<?xml version="1.0" encoding="UTF-8" standalone="no"?>
<svg
   xmlns:dc="http://purl.org/dc/elements/1.1/"
   xmlns:cc="http://creativecommons.org/ns#"
   xmlns:rdf="http://www.w3.org/1999/02/22-rdf-syntax-ns#"
   xmlns:svg="http://www.w3.org/2000/svg"
   xmlns="http://www.w3.org/2000/svg"
   width="1200"
   height="1200"
   viewBox="0 0 317.49999 317.50001"
   version="1.1"
   id="svg9478">
  <defs
     id="defs9472" />
  <metadata
     id="metadata9475">
    <rdf:RDF>
      <cc:Work
         rdf:about="">
        <dc:format>image/svg+xml</dc:format>
        <dc:type
           rdf:resource="http://purl.org/dc/dcmitype/StillImage" />
        <dc:title></dc:title>
      </cc:Work>
    </rdf:RDF>
  </metadata>
  <circle
     transform="rotate(0.99999982)"
     r="158.35303"
     cy="155.95525"
     cx="161.4964"
     id="circle9170"
     style="fill:#333333;fill-opacity:1;stroke:#646464;stroke-width:0.79295625;stroke-miterlimit:4;stroke-dasharray:none;stroke-opacity:1" />
  <g
     id="flowRoot9210"
     style="font-style:normal;font-weight:normal;font-size:42.66666794px;line-height:1.25;font-family:sans-serif;letter-spacing:0px;word-spacing:0px;fill:#ffffff;fill-opacity:1;stroke:none"
     transform="matrix(0.26432465,0,0,0.26432465,151.35791,93.982752)"
     aria-label="0">
    <path
       id="path10629"
       style="font-style:normal;font-variant:normal;font-weight:normal;font-stretch:normal;font-size:42.66666794px;line-height:53.33333588px;font-family:'Ubuntu Mono';-inkscape-font-specification:'Ubuntu Mono';fill:#ffffff"
       d="m 579.80735,244.55981 q 0,1.10933 -0.68267,1.92 -0.64,0.81067 -1.70666,0.81067 -1.10934,0 -1.792,-0.81067 -0.68267,-0.81067 -0.68267,-1.92 0,-1.10933 0.68267,-1.96267 0.68266,-0.85333 1.792,-0.85333 1.06666,0 1.70666,0.85333 0.68267,0.85334 0.68267,1.96267 z m -11.17867,0.46933 q 0,-6.656 2.26134,-10.19733 2.304,-3.584 6.44266,-3.584 4.18134,0 6.44267,3.584 2.26133,3.54133 2.26133,10.19733 0,6.656 -2.26133,10.24 -2.26133,3.54134 -6.44267,3.54134 -4.13866,0 -6.44266,-3.54134 -2.26134,-3.584 -2.26134,-10.24 z m 13.824,0 q 0,-2.176 -0.256,-4.096 -0.256,-1.96266 -0.85333,-3.41333 -0.59733,-1.45067 -1.57867,-2.304 -0.98133,-0.85333 -2.432,-0.85333 -1.45066,0 -2.432,0.85333 -0.98133,0.85333 -1.57866,2.304 -0.59734,1.45067 -0.85334,3.41333 -0.256,1.92 -0.256,4.096 0,2.176 0.256,4.13867 0.256,1.92 0.85334,3.37067 0.59733,1.45066 1.57866,2.304 0.98134,0.85333 2.432,0.85333 1.45067,0 2.432,-0.85333 0.98134,-0.85334 1.57867,-2.304 0.59733,-1.45067 0.85333,-3.37067 0.256,-1.96267 0.256,-4.13867 z" />
  </g>
  <g
     id="flowRoot9378"
     style="font-style:normal;font-weight:normal;font-size:42.66666794px;line-height:1.25;font-family:sans-serif;letter-spacing:0px;word-spacing:0px;fill:#ffffff;fill-opacity:1;stroke:none"
     transform="matrix(0.26107037,-0.04134948,0.04134948,0.26107037,141.31709,95.93652)"
     aria-label="1">
    <path
       id="path10626"
       style="font-style:normal;font-variant:normal;font-weight:normal;font-stretch:normal;font-size:42.66666794px;line-height:53.33333588px;font-family:'Ubuntu Mono';-inkscape-font-specification:'Ubuntu Mono';fill:#ffffff"
       d="m 569.86602,237.30648 q 2.176,-0.85334 4.224,-2.13334 2.048,-1.32266 3.79733,-3.328 h 2.47467 v 23.424 h 4.992 v 2.98667 h -14.208 v -2.98667 h 5.71733 v -18.51733 q -0.46933,0.42667 -1.152,0.896 -0.64,0.42667 -1.45067,0.85333 -0.768,0.42667 -1.62133,0.81067 -0.85333,0.384 -1.664,0.64 z" />
  </g>
  <g
     id="flowRoot9386"
     style="font-style:normal;font-weight:normal;font-size:42.66666794px;line-height:1.25;font-family:sans-serif;letter-spacing:0px;word-spacing:0px;fill:#ffffff;fill-opacity:1;stroke:none"
     transform="matrix(0.25138768,-0.0816808,0.0816808,0.25138768,131.70552,99.436964)"
     aria-label="2">
    <path
       id="path10623"
       style="font-style:normal;font-variant:normal;font-weight:normal;font-stretch:normal;font-size:42.66666794px;line-height:53.33333588px;font-family:'Ubuntu Mono';-inkscape-font-specification:'Ubuntu Mono';fill:#ffffff"
       d="m 584.58602,238.58648 q 0,1.36533 -0.55467,2.64533 -0.512,1.28 -1.408,2.51733 -0.85333,1.23734 -1.96267,2.432 -1.10933,1.19467 -2.26133,2.34667 -0.64,0.64 -1.49333,1.536 -0.85334,0.896 -1.62134,1.83467 -0.768,0.93866 -1.28,1.83466 -0.512,0.896 -0.512,1.536 h 12.16 v 2.98667 h -16 q -0.0427,-0.21333 -0.0427,-0.42667 0,-0.256 0,-0.46933 0,-1.792 0.59733,-3.328 0.59733,-1.536 1.536,-2.90133 0.93867,-1.36534 2.09067,-2.56 1.19466,-1.23734 2.34666,-2.38934 0.93867,-0.93866 1.792,-1.83466 0.896,-0.896 1.536,-1.792 0.68267,-0.896 1.06667,-1.83467 0.42667,-0.98133 0.42667,-2.00533 0,-1.152 -0.384,-1.96267 -0.34134,-0.81067 -0.98134,-1.32267 -0.59733,-0.55466 -1.408,-0.81066 -0.81066,-0.256 -1.74933,-0.256 -1.10933,0 -2.048,0.29866 -0.896,0.29867 -1.62133,0.72534 -0.68267,0.42666 -1.19467,0.85333 -0.512,0.384 -0.768,0.64 l -1.74933,-2.47467 q 0.34133,-0.384 1.024,-0.93866 0.68266,-0.55467 1.62133,-1.024 0.98133,-0.512 2.176,-0.85334 1.19467,-0.34133 2.56,-0.34133 4.13867,0 6.10133,1.92 2.00534,1.87733 2.00534,5.41867 z" />
  </g>
  <g
     id="flowRoot9394"
     style="font-style:normal;font-weight:normal;font-size:42.66666794px;line-height:1.25;font-family:sans-serif;letter-spacing:0px;word-spacing:0px;fill:#ffffff;fill-opacity:1;stroke:none"
     transform="matrix(0.23551498,-0.12000087,0.12000087,0.23551498,122.75989,104.39789)"
     aria-label="3">
    <path
       id="path10620"
       style="font-style:normal;font-variant:normal;font-weight:normal;font-stretch:normal;font-size:42.66666794px;line-height:53.33333588px;font-family:'Ubuntu Mono';-inkscape-font-specification:'Ubuntu Mono';fill:#ffffff"
       d="m 575.71135,255.69581 q 3.37067,0 4.77867,-1.32267 1.45066,-1.36533 1.45066,-3.62666 0,-1.45067 -0.59733,-2.432 -0.59733,-0.98134 -1.57867,-1.57867 -0.98133,-0.59733 -2.26133,-0.85333 -1.28,-0.256 -2.688,-0.256 h -0.896 v -2.85867 h 1.23733 q 0.93867,0 1.92,-0.17067 1.024,-0.21333 1.83467,-0.68266 0.85333,-0.512 1.36533,-1.36534 0.512,-0.85333 0.512,-2.176 0,-2.176 -1.36533,-3.072 -1.32267,-0.93866 -3.11467,-0.93866 -1.83466,0 -3.11466,0.55466 -1.28,0.512 -2.13334,1.06667 l -1.36533,-2.688 q 0.896,-0.64 2.688,-1.32267 1.83467,-0.72533 4.05333,-0.72533 2.09067,0 3.584,0.512 1.49334,0.512 2.432,1.45067 0.98134,0.93866 1.45067,2.21866 0.46933,1.23734 0.46933,2.73067 0,2.09067 -1.10933,3.54133 -1.06667,1.45067 -2.77333,2.21867 2.048,0.59733 3.54133,2.34667 1.49333,1.70666 1.49333,4.56533 0,1.70667 -0.59733,3.2 -0.55467,1.45067 -1.74933,2.51733 -1.152,1.06667 -3.02934,1.664 -1.83466,0.59734 -4.39466,0.59734 -0.98134,0 -2.048,-0.17067 -1.024,-0.128 -1.92,-0.384 -0.896,-0.21333 -1.62134,-0.42667 -0.68266,-0.256 -0.98133,-0.384 l 0.68267,-3.02933 q 0.68266,0.34133 2.176,0.81067 1.49333,0.46933 3.66933,0.46933 z" />
  </g>
  <g
     id="flowRoot9402"
     style="font-style:normal;font-weight:normal;font-size:42.66666794px;line-height:1.25;font-family:sans-serif;letter-spacing:0px;word-spacing:0px;fill:#ffffff;fill-opacity:1;stroke:none"
     transform="matrix(0.26107037,0.04134948,-0.04134948,0.26107037,161.58075,93.623763)"
     aria-label="9">
    <path
       id="path10617"
       style="font-style:normal;font-variant:normal;font-weight:normal;font-stretch:normal;font-size:42.66666794px;line-height:53.33333588px;font-family:'Ubuntu Mono';-inkscape-font-specification:'Ubuntu Mono';fill:#ffffff"
       d="m 585.73802,242.42648 q 0,7.89333 -3.84,11.904 -3.84,3.968 -11.56267,4.01066 l -0.128,-2.98666 q 4.77867,0 7.68,-1.87734 2.944,-1.92 3.88267,-6.57066 -1.024,0.46933 -2.26134,0.768 -1.23733,0.256 -2.60266,0.256 -2.26134,0 -3.79734,-0.64 -1.536,-0.68267 -2.47466,-1.792 -0.93867,-1.152 -1.36534,-2.60267 -0.42666,-1.45067 -0.42666,-3.072 0,-1.45067 0.46933,-2.944 0.46933,-1.536 1.45067,-2.77333 0.98133,-1.23734 2.51733,-2.048 1.536,-0.81067 3.66933,-0.81067 4.352,0 6.57067,2.98667 2.21867,2.98666 2.21867,8.192 z m -8.448,2.60266 q 1.36533,0 2.51733,-0.256 1.19467,-0.256 2.304,-0.72533 0.0427,-0.42667 0.0427,-0.81067 0,-0.384 0,-0.81066 0,-1.664 -0.256,-3.15734 -0.21334,-1.49333 -0.81067,-2.60266 -0.55467,-1.10934 -1.57867,-1.74934 -0.98133,-0.68266 -2.51733,-0.68266 -1.28,0 -2.13333,0.55466 -0.85334,0.512 -1.408,1.32267 -0.55467,0.768 -0.81067,1.74933 -0.21333,0.98134 -0.21333,1.87734 0,2.60266 1.152,3.968 1.19466,1.32266 3.712,1.32266 z" />
  </g>
  <g
     id="flowRoot9410"
     style="font-style:normal;font-weight:normal;font-size:42.66666794px;line-height:1.25;font-family:sans-serif;letter-spacing:0px;word-spacing:0px;fill:#ffffff;fill-opacity:1;stroke:none"
     transform="matrix(0.25138768,0.0816808,-0.0816808,0.25138768,171.73388,94.868405)"
     aria-label="8">
    <path
       id="path10614"
       style="font-style:normal;font-variant:normal;font-weight:normal;font-stretch:normal;font-size:42.66666794px;line-height:53.33333588px;font-family:'Ubuntu Mono';-inkscape-font-specification:'Ubuntu Mono';fill:#ffffff"
       d="m 585.82335,251.38648 q 0,3.328 -2.13333,5.376 -2.09067,2.048 -6.4,2.048 -2.47467,0 -4.096,-0.64 -1.62134,-0.68267 -2.60267,-1.70667 -0.93867,-1.06667 -1.36533,-2.34667 -0.384,-1.28 -0.384,-2.51733 0,-2.26133 1.23733,-4.01067 1.23733,-1.74933 2.944,-2.816 -3.62667,-2.048 -3.62667,-6.272 0,-1.45066 0.55467,-2.77333 0.55467,-1.32267 1.57867,-2.304 1.024,-0.98133 2.47466,-1.57867 1.49334,-0.59733 3.328,-0.59733 2.13334,0 3.62667,0.64 1.536,0.64 2.47467,1.664 0.93866,0.98133 1.36533,2.21867 0.42667,1.19466 0.42667,2.34666 0,2.26134 -1.152,3.92534 -1.152,1.62133 -2.64534,2.60266 4.39467,2.09067 4.39467,6.74134 z m -13.568,0.256 q 0,0.68266 0.256,1.45066 0.256,0.72534 0.85333,1.36534 0.59734,0.64 1.57867,1.06666 0.98133,0.384 2.38933,0.384 1.32267,0 2.26134,-0.34133 0.98133,-0.384 1.57866,-0.98133 0.64,-0.64 0.93867,-1.408 0.29867,-0.768 0.29867,-1.536 0,-2.432 -1.74934,-3.712 -1.74933,-1.32267 -4.82133,-2.00534 -1.70667,0.93867 -2.64533,2.34667 -0.93867,1.408 -0.93867,3.37067 z m 9.55733,-13.52534 q 0,-0.55466 -0.256,-1.23733 -0.256,-0.72533 -0.81066,-1.28 -0.512,-0.59733 -1.36534,-0.98133 -0.85333,-0.42667 -2.048,-0.42667 -1.23733,0 -2.09066,0.384 -0.81067,0.384 -1.36534,0.98133 -0.55466,0.55467 -0.81066,1.28 -0.21334,0.68267 -0.21334,1.36534 0,1.74933 1.23734,3.28533 1.28,1.49333 4.18133,2.176 1.62133,-0.93867 2.56,-2.21867 0.98133,-1.28 0.98133,-3.328 z" />
  </g>
  <g
     id="flowRoot9418"
     style="font-style:normal;font-weight:normal;font-size:42.66666794px;line-height:1.25;font-family:sans-serif;letter-spacing:0px;word-spacing:0px;fill:#ffffff;fill-opacity:1;stroke:none"
     transform="matrix(0.23551498,0.12000087,-0.12000087,0.23551498,181.56731,97.686018)"
     aria-label="7">
    <path
       id="path10611"
       style="font-style:normal;font-variant:normal;font-weight:normal;font-stretch:normal;font-size:42.66666794px;line-height:53.33333588px;font-family:'Ubuntu Mono';-inkscape-font-specification:'Ubuntu Mono';fill:#ffffff"
       d="m 573.27935,258.25581 q 0.21333,-3.02933 1.06667,-6.4 0.896,-3.41333 2.13333,-6.57067 1.23733,-3.2 2.73067,-5.888 1.49333,-2.73066 2.944,-4.48 h -12.8 v -3.072 h 16.72533 v 2.944 q -1.28,1.49334 -2.77333,4.01067 -1.49334,2.51733 -2.85867,5.67467 -1.32267,3.11466 -2.304,6.69866 -0.98133,3.54134 -1.23733,7.08267 z" />
  </g>
  <g
     id="flowRoot10202"
     style="font-style:normal;font-weight:normal;font-size:42.66666794px;line-height:1.25;font-family:sans-serif;letter-spacing:0px;word-spacing:0px;fill:#ffffff;fill-opacity:1;stroke:none"
     transform="matrix(0.21384313,-0.15536612,0.15536612,0.21384313,114.70044,110.69714)"
     aria-label="4">
    <path
       id="path10608"
       style="font-style:normal;font-variant:normal;font-weight:normal;font-stretch:normal;font-size:42.66666794px;line-height:53.33333588px;font-family:'Ubuntu Mono';-inkscape-font-specification:'Ubuntu Mono';fill:#ffffff"
       d="m 568.20202,249.12514 q 0.72533,-1.70666 1.96266,-3.92533 1.28,-2.21867 2.85867,-4.56533 1.57867,-2.38934 3.37067,-4.65067 1.792,-2.304 3.62666,-4.13867 h 3.41334 v 16.768 h 3.11466 v 2.90134 h -3.11466 v 6.74133 h -3.41334 v -6.74133 h -11.81866 z m 11.81866,-13.09866 q -1.152,1.23733 -2.34666,2.73066 -1.152,1.49334 -2.26134,3.15734 -1.10933,1.62133 -2.09066,3.328 -0.93867,1.70666 -1.70667,3.37066 h 8.40533 z" />
  </g>
  <g
     id="flowRoot10210"
     style="font-style:normal;font-weight:normal;font-size:42.66666794px;line-height:1.25;font-family:sans-serif;letter-spacing:0px;word-spacing:0px;fill:#ffffff;fill-opacity:1;stroke:none"
     transform="matrix(0.18690575,-0.18690574,0.18690574,0.18690575,107.72564,118.17962)"
     aria-label="5">
    <path
       id="path10605"
       style="font-style:normal;font-variant:normal;font-weight:normal;font-stretch:normal;font-size:42.66666794px;line-height:53.33333588px;font-family:'Ubuntu Mono';-inkscape-font-specification:'Ubuntu Mono';fill:#ffffff"
       d="m 574.60202,242.04248 q 5.71733,0.21333 8.32,2.51733 2.60266,2.304 2.60266,6.18667 0,1.74933 -0.55466,3.24266 -0.55467,1.49334 -1.74934,2.56 -1.152,1.06667 -2.98666,1.664 -1.792,0.59734 -4.26667,0.59734 -1.024,0 -2.048,-0.17067 -0.98133,-0.128 -1.87733,-0.34133 -0.896,-0.21334 -1.57867,-0.42667 -0.68267,-0.256 -0.98133,-0.42667 l 0.68266,-3.02933 q 0.68267,0.34133 2.09067,0.81067 1.45067,0.46933 3.62667,0.46933 1.70666,0 2.85866,-0.384 1.152,-0.384 1.83467,-1.024 0.72533,-0.68267 1.024,-1.536 0.34133,-0.85333 0.34133,-1.792 0,-1.45067 -0.512,-2.56 -0.46933,-1.152 -1.70666,-1.92 -1.19467,-0.768 -3.328,-1.152 -2.09067,-0.42667 -5.29067,-0.42667 0.256,-1.87733 0.384,-3.49866 0.17067,-1.664 0.256,-3.2 0.128,-1.57867 0.17067,-3.11467 0.0853,-1.536 0.17066,-3.24267 h 12.71467 v 2.98667 h -9.64267 q -0.0427,0.59733 -0.128,1.57867 -0.0427,0.93866 -0.128,2.00533 -0.0853,1.06667 -0.17066,2.048 -0.0853,0.98133 -0.128,1.57867 z" />
  </g>
  <g
     id="flowRoot10218"
     style="font-style:normal;font-weight:normal;font-size:42.66666794px;line-height:1.25;font-family:sans-serif;letter-spacing:0px;word-spacing:0px;fill:#ffffff;fill-opacity:1;stroke:none"
     transform="matrix(0.15536613,-0.21384312,0.21384312,0.15536613,102.00723,126.66108)"
     aria-label="6">
    <path
       id="path10602"
       style="font-style:normal;font-variant:normal;font-weight:normal;font-stretch:normal;font-size:42.66666794px;line-height:53.33333588px;font-family:'Ubuntu Mono';-inkscape-font-specification:'Ubuntu Mono';fill:#ffffff"
       d="m 568.97002,247.67448 q 0,-3.84 1.024,-6.784 1.06666,-2.98667 2.98666,-4.992 1.96267,-2.00534 4.736,-3.072 2.77334,-1.06667 6.272,-1.10934 l 0.29867,2.98667 q -2.26133,0.0427 -4.13867,0.512 -1.83466,0.42667 -3.28533,1.45067 -1.45067,0.98133 -2.432,2.56 -0.98133,1.57866 -1.49333,3.88266 1.024,-0.46933 2.21866,-0.768 1.23734,-0.29866 2.60267,-0.29866 2.21867,0 3.75467,0.68266 1.57866,0.68267 2.51733,1.83467 0.93867,1.10933 1.36533,2.60267 0.42667,1.49333 0.42667,3.072 0,1.45066 -0.46933,2.98666 -0.46934,1.49334 -1.45067,2.77334 -0.98133,1.23733 -2.51733,2.048 -1.536,0.768 -3.66934,0.768 -4.39466,0 -6.57066,-2.944 -2.176,-2.944 -2.176,-8.192 z m 8.40533,-2.73067 q -1.36533,0 -2.51733,0.256 -1.10934,0.256 -2.26134,0.768 -0.0427,0.42667 -0.0427,0.85333 0,0.384 0,0.85334 0,1.664 0.21333,3.15733 0.256,1.45067 0.81067,2.60267 0.59733,1.10933 1.57866,1.792 0.98134,0.64 2.51734,0.64 1.28,0 2.13333,-0.512 0.85333,-0.55467 1.408,-1.36534 0.55467,-0.81066 0.768,-1.792 0.256,-1.024 0.256,-1.92 0,-2.60266 -1.19467,-3.968 -1.152,-1.36533 -3.66933,-1.36533 z" />
  </g>
  <g
     id="flowRoot10226"
     style="font-style:normal;font-weight:normal;font-size:42.66666794px;line-height:1.25;font-family:sans-serif;letter-spacing:0px;word-spacing:0px;fill:#ffffff;fill-opacity:1;stroke:none"
     transform="matrix(0.12000088,-0.23551497,0.23551497,0.12000088,97.686018,135.93268)"
     aria-label="7">
    <path
       id="path10599"
       style="font-style:normal;font-variant:normal;font-weight:normal;font-stretch:normal;font-size:42.66666794px;line-height:53.33333588px;font-family:'Ubuntu Mono';-inkscape-font-specification:'Ubuntu Mono';fill:#ffffff"
       d="m 573.27935,258.25581 q 0.21333,-3.02933 1.06667,-6.4 0.896,-3.41333 2.13333,-6.57067 1.23733,-3.2 2.73067,-5.888 1.49333,-2.73066 2.944,-4.48 h -12.8 v -3.072 h 16.72533 v 2.944 q -1.28,1.49334 -2.77333,4.01067 -1.49334,2.51733 -2.85867,5.67467 -1.32267,3.11466 -2.304,6.69866 -0.98133,3.54134 -1.23733,7.08267 z" />
  </g>
  <g
     id="flowRoot10234"
     style="font-style:normal;font-weight:normal;font-size:42.66666794px;line-height:1.25;font-family:sans-serif;letter-spacing:0px;word-spacing:0px;fill:#ffffff;fill-opacity:1;stroke:none"
     transform="matrix(0.08168081,-0.25138767,0.25138767,0.08168081,94.868405,145.7661)"
     aria-label="8">
    <path
       id="path10596"
       style="font-style:normal;font-variant:normal;font-weight:normal;font-stretch:normal;font-size:42.66666794px;line-height:53.33333588px;font-family:'Ubuntu Mono';-inkscape-font-specification:'Ubuntu Mono';fill:#ffffff"
       d="m 585.82335,251.38648 q 0,3.328 -2.13333,5.376 -2.09067,2.048 -6.4,2.048 -2.47467,0 -4.096,-0.64 -1.62134,-0.68267 -2.60267,-1.70667 -0.93867,-1.06667 -1.36533,-2.34667 -0.384,-1.28 -0.384,-2.51733 0,-2.26133 1.23733,-4.01067 1.23733,-1.74933 2.944,-2.816 -3.62667,-2.048 -3.62667,-6.272 0,-1.45066 0.55467,-2.77333 0.55467,-1.32267 1.57867,-2.304 1.024,-0.98133 2.47466,-1.57867 1.49334,-0.59733 3.328,-0.59733 2.13334,0 3.62667,0.64 1.536,0.64 2.47467,1.664 0.93866,0.98133 1.36533,2.21867 0.42667,1.19466 0.42667,2.34666 0,2.26134 -1.152,3.92534 -1.152,1.62133 -2.64534,2.60266 4.39467,2.09067 4.39467,6.74134 z m -13.568,0.256 q 0,0.68266 0.256,1.45066 0.256,0.72534 0.85333,1.36534 0.59734,0.64 1.57867,1.06666 0.98133,0.384 2.38933,0.384 1.32267,0 2.26134,-0.34133 0.98133,-0.384 1.57866,-0.98133 0.64,-0.64 0.93867,-1.408 0.29867,-0.768 0.29867,-1.536 0,-2.432 -1.74934,-3.712 -1.74933,-1.32267 -4.82133,-2.00534 -1.70667,0.93867 -2.64533,2.34667 -0.93867,1.408 -0.93867,3.37067 z m 9.55733,-13.52534 q 0,-0.55466 -0.256,-1.23733 -0.256,-0.72533 -0.81066,-1.28 -0.512,-0.59733 -1.36534,-0.98133 -0.85333,-0.42667 -2.048,-0.42667 -1.23733,0 -2.09066,0.384 -0.81067,0.384 -1.36534,0.98133 -0.55466,0.55467 -0.81066,1.28 -0.21334,0.68267 -0.21334,1.36534 0,1.74933 1.23734,3.28533 1.28,1.49333 4.18133,2.176 1.62133,-0.93867 2.56,-2.21867 0.98133,-1.28 0.98133,-3.328 z" />
  </g>
  <g
     id="flowRoot10242"
     style="font-style:normal;font-weight:normal;font-size:42.66666794px;line-height:1.25;font-family:sans-serif;letter-spacing:0px;word-spacing:0px;fill:#ffffff;fill-opacity:1;stroke:none"
     transform="matrix(0.04134949,-0.26107036,0.26107036,0.04134949,93.623763,155.91924)"
     aria-label="9">
    <path
       id="path10593"
       style="font-style:normal;font-variant:normal;font-weight:normal;font-stretch:normal;font-size:42.66666794px;line-height:53.33333588px;font-family:'Ubuntu Mono';-inkscape-font-specification:'Ubuntu Mono';fill:#ffffff"
       d="m 585.73802,242.42648 q 0,7.89333 -3.84,11.904 -3.84,3.968 -11.56267,4.01066 l -0.128,-2.98666 q 4.77867,0 7.68,-1.87734 2.944,-1.92 3.88267,-6.57066 -1.024,0.46933 -2.26134,0.768 -1.23733,0.256 -2.60266,0.256 -2.26134,0 -3.79734,-0.64 -1.536,-0.68267 -2.47466,-1.792 -0.93867,-1.152 -1.36534,-2.60267 -0.42666,-1.45067 -0.42666,-3.072 0,-1.45067 0.46933,-2.944 0.46933,-1.536 1.45067,-2.77333 0.98133,-1.23734 2.51733,-2.048 1.536,-0.81067 3.66933,-0.81067 4.352,0 6.57067,2.98667 2.21867,2.98666 2.21867,8.192 z m -8.448,2.60266 q 1.36533,0 2.51733,-0.256 1.19467,-0.256 2.304,-0.72533 0.0427,-0.42667 0.0427,-0.81067 0,-0.384 0,-0.81066 0,-1.664 -0.256,-3.15734 -0.21334,-1.49333 -0.81067,-2.60266 -0.55467,-1.10934 -1.57867,-1.74934 -0.98133,-0.68266 -2.51733,-0.68266 -1.28,0 -2.13333,0.55466 -0.85334,0.512 -1.408,1.32267 -0.55467,0.768 -0.81067,1.74933 -0.21333,0.98134 -0.21333,1.87734 0,2.60266 1.152,3.968 1.19466,1.32266 3.712,1.32266 z" />
  </g>
  <g
     id="flowRoot10250"
     style="font-style:normal;font-weight:normal;font-size:42.66666794px;line-height:1.25;font-family:sans-serif;letter-spacing:0px;word-spacing:0px;fill:#ffffff;fill-opacity:1;stroke:none"
     transform="matrix(0,-0.26432464,0.26432464,0,93.982742,166.14207)"
     aria-label="0">
    <path
       id="path10590"
       style="font-style:normal;font-variant:normal;font-weight:normal;font-stretch:normal;font-size:42.66666794px;line-height:53.33333588px;font-family:'Ubuntu Mono';-inkscape-font-specification:'Ubuntu Mono';fill:#ffffff"
       d="m 579.80735,244.55981 q 0,1.10933 -0.68267,1.92 -0.64,0.81067 -1.70666,0.81067 -1.10934,0 -1.792,-0.81067 -0.68267,-0.81067 -0.68267,-1.92 0,-1.10933 0.68267,-1.96267 0.68266,-0.85333 1.792,-0.85333 1.06666,0 1.70666,0.85333 0.68267,0.85334 0.68267,1.96267 z m -11.17867,0.46933 q 0,-6.656 2.26134,-10.19733 2.304,-3.584 6.44266,-3.584 4.18134,0 6.44267,3.584 2.26133,3.54133 2.26133,10.19733 0,6.656 -2.26133,10.24 -2.26133,3.54134 -6.44267,3.54134 -4.13866,0 -6.44266,-3.54134 -2.26134,-3.584 -2.26134,-10.24 z m 13.824,0 q 0,-2.176 -0.256,-4.096 -0.256,-1.96266 -0.85333,-3.41333 -0.59733,-1.45067 -1.57867,-2.304 -0.98133,-0.85333 -2.432,-0.85333 -1.45066,0 -2.432,0.85333 -0.98133,0.85333 -1.57866,2.304 -0.59734,1.45067 -0.85334,3.41333 -0.256,1.92 -0.256,4.096 0,2.176 0.256,4.13867 0.256,1.92 0.85334,3.37067 0.59733,1.45066 1.57866,2.304 0.98134,0.85333 2.432,0.85333 1.45067,0 2.432,-0.85333 0.98134,-0.85334 1.57867,-2.304 0.59733,-1.45067 0.85333,-3.37067 0.256,-1.96267 0.256,-4.13867 z" />
  </g>
  <g
     id="flowRoot10258"
     style="font-style:normal;font-weight:normal;font-size:42.66666794px;line-height:1.25;font-family:sans-serif;letter-spacing:0px;word-spacing:0px;fill:#ffffff;fill-opacity:1;stroke:none"
     transform="matrix(-0.04134948,-0.26107036,0.26107036,-0.04134948,95.93651,176.1829)"
     aria-label="1">
    <path
       id="path10587"
       style="font-style:normal;font-variant:normal;font-weight:normal;font-stretch:normal;font-size:42.66666794px;line-height:53.33333588px;font-family:'Ubuntu Mono';-inkscape-font-specification:'Ubuntu Mono';fill:#ffffff"
       d="m 569.86602,237.30648 q 2.176,-0.85334 4.224,-2.13334 2.048,-1.32266 3.79733,-3.328 h 2.47467 v 23.424 h 4.992 v 2.98667 h -14.208 v -2.98667 h 5.71733 v -18.51733 q -0.46933,0.42667 -1.152,0.896 -0.64,0.42667 -1.45067,0.85333 -0.768,0.42667 -1.62133,0.81067 -0.85333,0.384 -1.664,0.64 z" />
  </g>
  <g
     id="flowRoot10266"
     style="font-style:normal;font-weight:normal;font-size:42.66666794px;line-height:1.25;font-family:sans-serif;letter-spacing:0px;word-spacing:0px;fill:#ffffff;fill-opacity:1;stroke:none"
     transform="matrix(-0.0816808,-0.25138767,0.25138767,-0.0816808,99.436954,185.79446)"
     aria-label="2">
    <path
       id="path10584"
       style="font-style:normal;font-variant:normal;font-weight:normal;font-stretch:normal;font-size:42.66666794px;line-height:53.33333588px;font-family:'Ubuntu Mono';-inkscape-font-specification:'Ubuntu Mono';fill:#ffffff"
       d="m 584.58602,238.58648 q 0,1.36533 -0.55467,2.64533 -0.512,1.28 -1.408,2.51733 -0.85333,1.23734 -1.96267,2.432 -1.10933,1.19467 -2.26133,2.34667 -0.64,0.64 -1.49333,1.536 -0.85334,0.896 -1.62134,1.83467 -0.768,0.93866 -1.28,1.83466 -0.512,0.896 -0.512,1.536 h 12.16 v 2.98667 h -16 q -0.0427,-0.21333 -0.0427,-0.42667 0,-0.256 0,-0.46933 0,-1.792 0.59733,-3.328 0.59733,-1.536 1.536,-2.90133 0.93867,-1.36534 2.09067,-2.56 1.19466,-1.23734 2.34666,-2.38934 0.93867,-0.93866 1.792,-1.83466 0.896,-0.896 1.536,-1.792 0.68267,-0.896 1.06667,-1.83467 0.42667,-0.98133 0.42667,-2.00533 0,-1.152 -0.384,-1.96267 -0.34134,-0.81067 -0.98134,-1.32267 -0.59733,-0.55466 -1.408,-0.81066 -0.81066,-0.256 -1.74933,-0.256 -1.10933,0 -2.048,0.29866 -0.896,0.29867 -1.62133,0.72534 -0.68267,0.42666 -1.19467,0.85333 -0.512,0.384 -0.768,0.64 l -1.74933,-2.47467 q 0.34133,-0.384 1.024,-0.93866 0.68266,-0.55467 1.62133,-1.024 0.98133,-0.512 2.176,-0.85334 1.19467,-0.34133 2.56,-0.34133 4.13867,0 6.10133,1.92 2.00534,1.87733 2.00534,5.41867 z" />
  </g>
  <g
     id="flowRoot10274"
     style="font-style:normal;font-weight:normal;font-size:42.66666794px;line-height:1.25;font-family:sans-serif;letter-spacing:0px;word-spacing:0px;fill:#ffffff;fill-opacity:1;stroke:none"
     transform="matrix(-0.12000087,-0.23551497,0.23551497,-0.12000087,104.39788,194.7401)"
     aria-label="3">
    <path
       id="path10581"
       style="font-style:normal;font-variant:normal;font-weight:normal;font-stretch:normal;font-size:42.66666794px;line-height:53.33333588px;font-family:'Ubuntu Mono';-inkscape-font-specification:'Ubuntu Mono';fill:#ffffff"
       d="m 575.71135,255.69581 q 3.37067,0 4.77867,-1.32267 1.45066,-1.36533 1.45066,-3.62666 0,-1.45067 -0.59733,-2.432 -0.59733,-0.98134 -1.57867,-1.57867 -0.98133,-0.59733 -2.26133,-0.85333 -1.28,-0.256 -2.688,-0.256 h -0.896 v -2.85867 h 1.23733 q 0.93867,0 1.92,-0.17067 1.024,-0.21333 1.83467,-0.68266 0.85333,-0.512 1.36533,-1.36534 0.512,-0.85333 0.512,-2.176 0,-2.176 -1.36533,-3.072 -1.32267,-0.93866 -3.11467,-0.93866 -1.83466,0 -3.11466,0.55466 -1.28,0.512 -2.13334,1.06667 l -1.36533,-2.688 q 0.896,-0.64 2.688,-1.32267 1.83467,-0.72533 4.05333,-0.72533 2.09067,0 3.584,0.512 1.49334,0.512 2.432,1.45067 0.98134,0.93866 1.45067,2.21866 0.46933,1.23734 0.46933,2.73067 0,2.09067 -1.10933,3.54133 -1.06667,1.45067 -2.77333,2.21867 2.048,0.59733 3.54133,2.34667 1.49333,1.70666 1.49333,4.56533 0,1.70667 -0.59733,3.2 -0.55467,1.45067 -1.74933,2.51733 -1.152,1.06667 -3.02934,1.664 -1.83466,0.59734 -4.39466,0.59734 -0.98134,0 -2.048,-0.17067 -1.024,-0.128 -1.92,-0.384 -0.896,-0.21333 -1.62134,-0.42667 -0.68266,-0.256 -0.98133,-0.384 l 0.68267,-3.02933 q 0.68266,0.34133 2.176,0.81067 1.49333,0.46933 3.66933,0.46933 z" />
  </g>
  <g
     id="flowRoot10282"
     style="font-style:normal;font-weight:normal;font-size:42.66666794px;line-height:1.25;font-family:sans-serif;letter-spacing:0px;word-spacing:0px;fill:#ffffff;fill-opacity:1;stroke:none"
     transform="matrix(-0.15536612,-0.21384312,0.21384312,-0.15536612,110.69714,202.79955)"
     aria-label="4">
    <path
       id="path10578"
       style="font-style:normal;font-variant:normal;font-weight:normal;font-stretch:normal;font-size:42.66666794px;line-height:53.33333588px;font-family:'Ubuntu Mono';-inkscape-font-specification:'Ubuntu Mono';fill:#ffffff"
       d="m 568.20202,249.12514 q 0.72533,-1.70666 1.96266,-3.92533 1.28,-2.21867 2.85867,-4.56533 1.57867,-2.38934 3.37067,-4.65067 1.792,-2.304 3.62666,-4.13867 h 3.41334 v 16.768 h 3.11466 v 2.90134 h -3.11466 v 6.74133 h -3.41334 v -6.74133 h -11.81866 z m 11.81866,-13.09866 q -1.152,1.23733 -2.34666,2.73066 -1.152,1.49334 -2.26134,3.15734 -1.10933,1.62133 -2.09066,3.328 -0.93867,1.70666 -1.70667,3.37066 h 8.40533 z" />
  </g>
  <g
     id="flowRoot10290"
     style="font-style:normal;font-weight:normal;font-size:42.66666794px;line-height:1.25;font-family:sans-serif;letter-spacing:0px;word-spacing:0px;fill:#ffffff;fill-opacity:1;stroke:none"
     transform="matrix(-0.18690574,-0.18690574,0.18690574,-0.18690574,118.17962,209.77435)"
     aria-label="5">
    <path
       id="path10575"
       style="font-style:normal;font-variant:normal;font-weight:normal;font-stretch:normal;font-size:42.66666794px;line-height:53.33333588px;font-family:'Ubuntu Mono';-inkscape-font-specification:'Ubuntu Mono';fill:#ffffff"
       d="m 574.60202,242.04248 q 5.71733,0.21333 8.32,2.51733 2.60266,2.304 2.60266,6.18667 0,1.74933 -0.55466,3.24266 -0.55467,1.49334 -1.74934,2.56 -1.152,1.06667 -2.98666,1.664 -1.792,0.59734 -4.26667,0.59734 -1.024,0 -2.048,-0.17067 -0.98133,-0.128 -1.87733,-0.34133 -0.896,-0.21334 -1.57867,-0.42667 -0.68267,-0.256 -0.98133,-0.42667 l 0.68266,-3.02933 q 0.68267,0.34133 2.09067,0.81067 1.45067,0.46933 3.62667,0.46933 1.70666,0 2.85866,-0.384 1.152,-0.384 1.83467,-1.024 0.72533,-0.68267 1.024,-1.536 0.34133,-0.85333 0.34133,-1.792 0,-1.45067 -0.512,-2.56 -0.46933,-1.152 -1.70666,-1.92 -1.19467,-0.768 -3.328,-1.152 -2.09067,-0.42667 -5.29067,-0.42667 0.256,-1.87733 0.384,-3.49866 0.17067,-1.664 0.256,-3.2 0.128,-1.57867 0.17067,-3.11467 0.0853,-1.536 0.17066,-3.24267 h 12.71467 v 2.98667 h -9.64267 q -0.0427,0.59733 -0.128,1.57867 -0.0427,0.93866 -0.128,2.00533 -0.0853,1.06667 -0.17066,2.048 -0.0853,0.98133 -0.128,1.57867 z" />
  </g>
  <g
     id="flowRoot10298"
     style="font-style:normal;font-weight:normal;font-size:42.66666794px;line-height:1.25;font-family:sans-serif;letter-spacing:0px;word-spacing:0px;fill:#ffffff;fill-opacity:1;stroke:none"
     transform="matrix(-0.21384312,-0.15536612,0.15536612,-0.21384312,126.66107,215.49276)"
     aria-label="6">
    <path
       id="path10572"
       style="font-style:normal;font-variant:normal;font-weight:normal;font-stretch:normal;font-size:42.66666794px;line-height:53.33333588px;font-family:'Ubuntu Mono';-inkscape-font-specification:'Ubuntu Mono';fill:#ffffff"
       d="m 568.97002,247.67448 q 0,-3.84 1.024,-6.784 1.06666,-2.98667 2.98666,-4.992 1.96267,-2.00534 4.736,-3.072 2.77334,-1.06667 6.272,-1.10934 l 0.29867,2.98667 q -2.26133,0.0427 -4.13867,0.512 -1.83466,0.42667 -3.28533,1.45067 -1.45067,0.98133 -2.432,2.56 -0.98133,1.57866 -1.49333,3.88266 1.024,-0.46933 2.21866,-0.768 1.23734,-0.29866 2.60267,-0.29866 2.21867,0 3.75467,0.68266 1.57866,0.68267 2.51733,1.83467 0.93867,1.10933 1.36533,2.60267 0.42667,1.49333 0.42667,3.072 0,1.45066 -0.46933,2.98666 -0.46934,1.49334 -1.45067,2.77334 -0.98133,1.23733 -2.51733,2.048 -1.536,0.768 -3.66934,0.768 -4.39466,0 -6.57066,-2.944 -2.176,-2.944 -2.176,-8.192 z m 8.40533,-2.73067 q -1.36533,0 -2.51733,0.256 -1.10934,0.256 -2.26134,0.768 -0.0427,0.42667 -0.0427,0.85333 0,0.384 0,0.85334 0,1.664 0.21333,3.15733 0.256,1.45067 0.81067,2.60267 0.59733,1.10933 1.57866,1.792 0.98134,0.64 2.51734,0.64 1.28,0 2.13333,-0.512 0.85333,-0.55467 1.408,-1.36534 0.55467,-0.81066 0.768,-1.792 0.256,-1.024 0.256,-1.92 0,-2.60266 -1.19467,-3.968 -1.152,-1.36533 -3.66933,-1.36533 z" />
  </g>
  <g
     id="flowRoot10306"
     style="font-style:normal;font-weight:normal;font-size:42.66666794px;line-height:1.25;font-family:sans-serif;letter-spacing:0px;word-spacing:0px;fill:#ffffff;fill-opacity:1;stroke:none"
     transform="matrix(-0.23551497,-0.12000087,0.12000087,-0.23551497,135.93267,219.81398)"
     aria-label="7">
    <path
       id="path10569"
       style="font-style:normal;font-variant:normal;font-weight:normal;font-stretch:normal;font-size:42.66666794px;line-height:53.33333588px;font-family:'Ubuntu Mono';-inkscape-font-specification:'Ubuntu Mono';fill:#ffffff"
       d="m 573.27935,258.25581 q 0.21333,-3.02933 1.06667,-6.4 0.896,-3.41333 2.13333,-6.57067 1.23733,-3.2 2.73067,-5.888 1.49333,-2.73066 2.944,-4.48 h -12.8 v -3.072 h 16.72533 v 2.944 q -1.28,1.49334 -2.77333,4.01067 -1.49334,2.51733 -2.85867,5.67467 -1.32267,3.11466 -2.304,6.69866 -0.98133,3.54134 -1.23733,7.08267 z" />
  </g>
  <g
     id="flowRoot10314"
     style="font-style:normal;font-weight:normal;font-size:42.66666794px;line-height:1.25;font-family:sans-serif;letter-spacing:0px;word-spacing:0px;fill:#ffffff;fill-opacity:1;stroke:none"
     transform="matrix(-0.25138767,-0.0816808,0.0816808,-0.25138767,145.7661,222.63159)"
     aria-label="8">
    <path
       id="path10566"
       style="font-style:normal;font-variant:normal;font-weight:normal;font-stretch:normal;font-size:42.66666794px;line-height:53.33333588px;font-family:'Ubuntu Mono';-inkscape-font-specification:'Ubuntu Mono';fill:#ffffff"
       d="m 585.82335,251.38648 q 0,3.328 -2.13333,5.376 -2.09067,2.048 -6.4,2.048 -2.47467,0 -4.096,-0.64 -1.62134,-0.68267 -2.60267,-1.70667 -0.93867,-1.06667 -1.36533,-2.34667 -0.384,-1.28 -0.384,-2.51733 0,-2.26133 1.23733,-4.01067 1.23733,-1.74933 2.944,-2.816 -3.62667,-2.048 -3.62667,-6.272 0,-1.45066 0.55467,-2.77333 0.55467,-1.32267 1.57867,-2.304 1.024,-0.98133 2.47466,-1.57867 1.49334,-0.59733 3.328,-0.59733 2.13334,0 3.62667,0.64 1.536,0.64 2.47467,1.664 0.93866,0.98133 1.36533,2.21867 0.42667,1.19466 0.42667,2.34666 0,2.26134 -1.152,3.92534 -1.152,1.62133 -2.64534,2.60266 4.39467,2.09067 4.39467,6.74134 z m -13.568,0.256 q 0,0.68266 0.256,1.45066 0.256,0.72534 0.85333,1.36534 0.59734,0.64 1.57867,1.06666 0.98133,0.384 2.38933,0.384 1.32267,0 2.26134,-0.34133 0.98133,-0.384 1.57866,-0.98133 0.64,-0.64 0.93867,-1.408 0.29867,-0.768 0.29867,-1.536 0,-2.432 -1.74934,-3.712 -1.74933,-1.32267 -4.82133,-2.00534 -1.70667,0.93867 -2.64533,2.34667 -0.93867,1.408 -0.93867,3.37067 z m 9.55733,-13.52534 q 0,-0.55466 -0.256,-1.23733 -0.256,-0.72533 -0.81066,-1.28 -0.512,-0.59733 -1.36534,-0.98133 -0.85333,-0.42667 -2.048,-0.42667 -1.23733,0 -2.09066,0.384 -0.81067,0.384 -1.36534,0.98133 -0.55466,0.55467 -0.81066,1.28 -0.21334,0.68267 -0.21334,1.36534 0,1.74933 1.23734,3.28533 1.28,1.49333 4.18133,2.176 1.62133,-0.93867 2.56,-2.21867 0.98133,-1.28 0.98133,-3.328 z" />
  </g>
  <g
     id="flowRoot10322"
     style="font-style:normal;font-weight:normal;font-size:42.66666794px;line-height:1.25;font-family:sans-serif;letter-spacing:0px;word-spacing:0px;fill:#ffffff;fill-opacity:1;stroke:none"
     transform="matrix(-0.26107036,-0.04134948,0.04134948,-0.26107036,155.91924,223.87623)"
     aria-label="9">
    <path
       id="path10563"
       style="font-style:normal;font-variant:normal;font-weight:normal;font-stretch:normal;font-size:42.66666794px;line-height:53.33333588px;font-family:'Ubuntu Mono';-inkscape-font-specification:'Ubuntu Mono';fill:#ffffff"
       d="m 585.73802,242.42648 q 0,7.89333 -3.84,11.904 -3.84,3.968 -11.56267,4.01066 l -0.128,-2.98666 q 4.77867,0 7.68,-1.87734 2.944,-1.92 3.88267,-6.57066 -1.024,0.46933 -2.26134,0.768 -1.23733,0.256 -2.60266,0.256 -2.26134,0 -3.79734,-0.64 -1.536,-0.68267 -2.47466,-1.792 -0.93867,-1.152 -1.36534,-2.60267 -0.42666,-1.45067 -0.42666,-3.072 0,-1.45067 0.46933,-2.944 0.46933,-1.536 1.45067,-2.77333 0.98133,-1.23734 2.51733,-2.048 1.536,-0.81067 3.66933,-0.81067 4.352,0 6.57067,2.98667 2.21867,2.98666 2.21867,8.192 z m -8.448,2.60266 q 1.36533,0 2.51733,-0.256 1.19467,-0.256 2.304,-0.72533 0.0427,-0.42667 0.0427,-0.81067 0,-0.384 0,-0.81066 0,-1.664 -0.256,-3.15734 -0.21334,-1.49333 -0.81067,-2.60266 -0.55467,-1.10934 -1.57867,-1.74934 -0.98133,-0.68266 -2.51733,-0.68266 -1.28,0 -2.13333,0.55466 -0.85334,0.512 -1.408,1.32267 -0.55467,0.768 -0.81067,1.74933 -0.21333,0.98134 -0.21333,1.87734 0,2.60266 1.152,3.968 1.19466,1.32266 3.712,1.32266 z" />
  </g>
  <g
     id="flowRoot10330"
     style="font-style:normal;font-weight:normal;font-size:42.66666794px;line-height:1.25;font-family:sans-serif;letter-spacing:0px;word-spacing:0px;fill:#ffffff;fill-opacity:1;stroke:none"
     transform="matrix(-0.26432464,0,0,-0.26432464,166.14207,223.51724)"
     aria-label="0">
    <path
       id="path10560"
       style="font-style:normal;font-variant:normal;font-weight:normal;font-stretch:normal;font-size:42.66666794px;line-height:53.33333588px;font-family:'Ubuntu Mono';-inkscape-font-specification:'Ubuntu Mono';fill:#ffffff"
       d="m 579.80735,244.55981 q 0,1.10933 -0.68267,1.92 -0.64,0.81067 -1.70666,0.81067 -1.10934,0 -1.792,-0.81067 -0.68267,-0.81067 -0.68267,-1.92 0,-1.10933 0.68267,-1.96267 0.68266,-0.85333 1.792,-0.85333 1.06666,0 1.70666,0.85333 0.68267,0.85334 0.68267,1.96267 z m -11.17867,0.46933 q 0,-6.656 2.26134,-10.19733 2.304,-3.584 6.44266,-3.584 4.18134,0 6.44267,3.584 2.26133,3.54133 2.26133,10.19733 0,6.656 -2.26133,10.24 -2.26133,3.54134 -6.44267,3.54134 -4.13866,0 -6.44266,-3.54134 -2.26134,-3.584 -2.26134,-10.24 z m 13.824,0 q 0,-2.176 -0.256,-4.096 -0.256,-1.96266 -0.85333,-3.41333 -0.59733,-1.45067 -1.57867,-2.304 -0.98133,-0.85333 -2.432,-0.85333 -1.45066,0 -2.432,0.85333 -0.98133,0.85333 -1.57866,2.304 -0.59734,1.45067 -0.85334,3.41333 -0.256,1.92 -0.256,4.096 0,2.176 0.256,4.13867 0.256,1.92 0.85334,3.37067 0.59733,1.45066 1.57866,2.304 0.98134,0.85333 2.432,0.85333 1.45067,0 2.432,-0.85333 0.98134,-0.85334 1.57867,-2.304 0.59733,-1.45067 0.85333,-3.37067 0.256,-1.96267 0.256,-4.13867 z" />
  </g>
  <g
     id="flowRoot10338"
     style="font-style:normal;font-weight:normal;font-size:42.66666794px;line-height:1.25;font-family:sans-serif;letter-spacing:0px;word-spacing:0px;fill:#ffffff;fill-opacity:1;stroke:none"
     transform="matrix(-0.26107036,0.04134948,-0.04134948,-0.26107036,176.1829,221.56347)"
     aria-label="1">
    <path
       id="path10557"
       style="font-style:normal;font-variant:normal;font-weight:normal;font-stretch:normal;font-size:42.66666794px;line-height:53.33333588px;font-family:'Ubuntu Mono';-inkscape-font-specification:'Ubuntu Mono';fill:#ffffff"
       d="m 569.86602,237.30648 q 2.176,-0.85334 4.224,-2.13334 2.048,-1.32266 3.79733,-3.328 h 2.47467 v 23.424 h 4.992 v 2.98667 h -14.208 v -2.98667 h 5.71733 v -18.51733 q -0.46933,0.42667 -1.152,0.896 -0.64,0.42667 -1.45067,0.85333 -0.768,0.42667 -1.62133,0.81067 -0.85333,0.384 -1.664,0.64 z" />
  </g>
  <g
     id="flowRoot10346"
     style="font-style:normal;font-weight:normal;font-size:42.66666794px;line-height:1.25;font-family:sans-serif;letter-spacing:0px;word-spacing:0px;fill:#ffffff;fill-opacity:1;stroke:none"
     transform="matrix(-0.25138767,0.0816808,-0.0816808,-0.25138767,185.79446,218.06303)"
     aria-label="2">
    <path
       id="path10554"
       style="font-style:normal;font-variant:normal;font-weight:normal;font-stretch:normal;font-size:42.66666794px;line-height:53.33333588px;font-family:'Ubuntu Mono';-inkscape-font-specification:'Ubuntu Mono';fill:#ffffff"
       d="m 584.58602,238.58648 q 0,1.36533 -0.55467,2.64533 -0.512,1.28 -1.408,2.51733 -0.85333,1.23734 -1.96267,2.432 -1.10933,1.19467 -2.26133,2.34667 -0.64,0.64 -1.49333,1.536 -0.85334,0.896 -1.62134,1.83467 -0.768,0.93866 -1.28,1.83466 -0.512,0.896 -0.512,1.536 h 12.16 v 2.98667 h -16 q -0.0427,-0.21333 -0.0427,-0.42667 0,-0.256 0,-0.46933 0,-1.792 0.59733,-3.328 0.59733,-1.536 1.536,-2.90133 0.93867,-1.36534 2.09067,-2.56 1.19466,-1.23734 2.34666,-2.38934 0.93867,-0.93866 1.792,-1.83466 0.896,-0.896 1.536,-1.792 0.68267,-0.896 1.06667,-1.83467 0.42667,-0.98133 0.42667,-2.00533 0,-1.152 -0.384,-1.96267 -0.34134,-0.81067 -0.98134,-1.32267 -0.59733,-0.55466 -1.408,-0.81066 -0.81066,-0.256 -1.74933,-0.256 -1.10933,0 -2.048,0.29866 -0.896,0.29867 -1.62133,0.72534 -0.68267,0.42666 -1.19467,0.85333 -0.512,0.384 -0.768,0.64 l -1.74933,-2.47467 q 0.34133,-0.384 1.024,-0.93866 0.68266,-0.55467 1.62133,-1.024 0.98133,-0.512 2.176,-0.85334 1.19467,-0.34133 2.56,-0.34133 4.13867,0 6.10133,1.92 2.00534,1.87733 2.00534,5.41867 z" />
  </g>
  <g
     id="flowRoot10354"
     style="font-style:normal;font-weight:normal;font-size:42.66666794px;line-height:1.25;font-family:sans-serif;letter-spacing:0px;word-spacing:0px;fill:#ffffff;fill-opacity:1;stroke:none"
     transform="matrix(-0.23551497,0.12000087,-0.12000087,-0.23551497,194.7401,213.1021)"
     aria-label="3">
    <path
       id="path10551"
       style="font-style:normal;font-variant:normal;font-weight:normal;font-stretch:normal;font-size:42.66666794px;line-height:53.33333588px;font-family:'Ubuntu Mono';-inkscape-font-specification:'Ubuntu Mono';fill:#ffffff"
       d="m 575.71135,255.69581 q 3.37067,0 4.77867,-1.32267 1.45066,-1.36533 1.45066,-3.62666 0,-1.45067 -0.59733,-2.432 -0.59733,-0.98134 -1.57867,-1.57867 -0.98133,-0.59733 -2.26133,-0.85333 -1.28,-0.256 -2.688,-0.256 h -0.896 v -2.85867 h 1.23733 q 0.93867,0 1.92,-0.17067 1.024,-0.21333 1.83467,-0.68266 0.85333,-0.512 1.36533,-1.36534 0.512,-0.85333 0.512,-2.176 0,-2.176 -1.36533,-3.072 -1.32267,-0.93866 -3.11467,-0.93866 -1.83466,0 -3.11466,0.55466 -1.28,0.512 -2.13334,1.06667 l -1.36533,-2.688 q 0.896,-0.64 2.688,-1.32267 1.83467,-0.72533 4.05333,-0.72533 2.09067,0 3.584,0.512 1.49334,0.512 2.432,1.45067 0.98134,0.93866 1.45067,2.21866 0.46933,1.23734 0.46933,2.73067 0,2.09067 -1.10933,3.54133 -1.06667,1.45067 -2.77333,2.21867 2.048,0.59733 3.54133,2.34667 1.49333,1.70666 1.49333,4.56533 0,1.70667 -0.59733,3.2 -0.55467,1.45067 -1.74933,2.51733 -1.152,1.06667 -3.02934,1.664 -1.83466,0.59734 -4.39466,0.59734 -0.98134,0 -2.048,-0.17067 -1.024,-0.128 -1.92,-0.384 -0.896,-0.21333 -1.62134,-0.42667 -0.68266,-0.256 -0.98133,-0.384 l 0.68267,-3.02933 q 0.68266,0.34133 2.176,0.81067 1.49333,0.46933 3.66933,0.46933 z" />
  </g>
  <g
     id="flowRoot10362"
     style="font-style:normal;font-weight:normal;font-size:42.66666794px;line-height:1.25;font-family:sans-serif;letter-spacing:0px;word-spacing:0px;fill:#ffffff;fill-opacity:1;stroke:none"
     transform="matrix(-0.21384312,0.15536612,-0.15536612,-0.21384312,202.79955,206.80285)"
     aria-label="4">
    <path
       id="path10548"
       style="font-style:normal;font-variant:normal;font-weight:normal;font-stretch:normal;font-size:42.66666794px;line-height:53.33333588px;font-family:'Ubuntu Mono';-inkscape-font-specification:'Ubuntu Mono';fill:#ffffff"
       d="m 568.20202,249.12514 q 0.72533,-1.70666 1.96266,-3.92533 1.28,-2.21867 2.85867,-4.56533 1.57867,-2.38934 3.37067,-4.65067 1.792,-2.304 3.62666,-4.13867 h 3.41334 v 16.768 h 3.11466 v 2.90134 h -3.11466 v 6.74133 h -3.41334 v -6.74133 h -11.81866 z m 11.81866,-13.09866 q -1.152,1.23733 -2.34666,2.73066 -1.152,1.49334 -2.26134,3.15734 -1.10933,1.62133 -2.09066,3.328 -0.93867,1.70666 -1.70667,3.37066 h 8.40533 z" />
  </g>
  <g
     id="flowRoot10370"
     style="font-style:normal;font-weight:normal;font-size:42.66666794px;line-height:1.25;font-family:sans-serif;letter-spacing:0px;word-spacing:0px;fill:#ffffff;fill-opacity:1;stroke:none"
     transform="matrix(-0.18690574,0.18690574,-0.18690574,-0.18690574,209.77435,199.32037)"
     aria-label="5">
    <path
       id="path10545"
       style="font-style:normal;font-variant:normal;font-weight:normal;font-stretch:normal;font-size:42.66666794px;line-height:53.33333588px;font-family:'Ubuntu Mono';-inkscape-font-specification:'Ubuntu Mono';fill:#ffffff"
       d="m 574.60202,242.04248 q 5.71733,0.21333 8.32,2.51733 2.60266,2.304 2.60266,6.18667 0,1.74933 -0.55466,3.24266 -0.55467,1.49334 -1.74934,2.56 -1.152,1.06667 -2.98666,1.664 -1.792,0.59734 -4.26667,0.59734 -1.024,0 -2.048,-0.17067 -0.98133,-0.128 -1.87733,-0.34133 -0.896,-0.21334 -1.57867,-0.42667 -0.68267,-0.256 -0.98133,-0.42667 l 0.68266,-3.02933 q 0.68267,0.34133 2.09067,0.81067 1.45067,0.46933 3.62667,0.46933 1.70666,0 2.85866,-0.384 1.152,-0.384 1.83467,-1.024 0.72533,-0.68267 1.024,-1.536 0.34133,-0.85333 0.34133,-1.792 0,-1.45067 -0.512,-2.56 -0.46933,-1.152 -1.70666,-1.92 -1.19467,-0.768 -3.328,-1.152 -2.09067,-0.42667 -5.29067,-0.42667 0.256,-1.87733 0.384,-3.49866 0.17067,-1.664 0.256,-3.2 0.128,-1.57867 0.17067,-3.11467 0.0853,-1.536 0.17066,-3.24267 h 12.71467 v 2.98667 h -9.64267 q -0.0427,0.59733 -0.128,1.57867 -0.0427,0.93866 -0.128,2.00533 -0.0853,1.06667 -0.17066,2.048 -0.0853,0.98133 -0.128,1.57867 z" />
  </g>
  <g
     id="flowRoot10378"
     style="font-style:normal;font-weight:normal;font-size:42.66666794px;line-height:1.25;font-family:sans-serif;letter-spacing:0px;word-spacing:0px;fill:#ffffff;fill-opacity:1;stroke:none"
     transform="matrix(-0.15536612,0.21384312,-0.21384312,-0.15536612,215.49277,190.83891)"
     aria-label="6">
    <path
       id="path10542"
       style="font-style:normal;font-variant:normal;font-weight:normal;font-stretch:normal;font-size:42.66666794px;line-height:53.33333588px;font-family:'Ubuntu Mono';-inkscape-font-specification:'Ubuntu Mono';fill:#ffffff"
       d="m 568.97002,247.67448 q 0,-3.84 1.024,-6.784 1.06666,-2.98667 2.98666,-4.992 1.96267,-2.00534 4.736,-3.072 2.77334,-1.06667 6.272,-1.10934 l 0.29867,2.98667 q -2.26133,0.0427 -4.13867,0.512 -1.83466,0.42667 -3.28533,1.45067 -1.45067,0.98133 -2.432,2.56 -0.98133,1.57866 -1.49333,3.88266 1.024,-0.46933 2.21866,-0.768 1.23734,-0.29866 2.60267,-0.29866 2.21867,0 3.75467,0.68266 1.57866,0.68267 2.51733,1.83467 0.93867,1.10933 1.36533,2.60267 0.42667,1.49333 0.42667,3.072 0,1.45066 -0.46933,2.98666 -0.46934,1.49334 -1.45067,2.77334 -0.98133,1.23733 -2.51733,2.048 -1.536,0.768 -3.66934,0.768 -4.39466,0 -6.57066,-2.944 -2.176,-2.944 -2.176,-8.192 z m 8.40533,-2.73067 q -1.36533,0 -2.51733,0.256 -1.10934,0.256 -2.26134,0.768 -0.0427,0.42667 -0.0427,0.85333 0,0.384 0,0.85334 0,1.664 0.21333,3.15733 0.256,1.45067 0.81067,2.60267 0.59733,1.10933 1.57866,1.792 0.98134,0.64 2.51734,0.64 1.28,0 2.13333,-0.512 0.85333,-0.55467 1.408,-1.36534 0.55467,-0.81066 0.768,-1.792 0.256,-1.024 0.256,-1.92 0,-2.60266 -1.19467,-3.968 -1.152,-1.36533 -3.66933,-1.36533 z" />
  </g>
  <g
     id="flowRoot10386"
     style="font-style:normal;font-weight:normal;font-size:42.66666794px;line-height:1.25;font-family:sans-serif;letter-spacing:0px;word-spacing:0px;fill:#ffffff;fill-opacity:1;stroke:none"
     transform="matrix(-0.12000087,0.23551497,-0.23551497,-0.12000087,219.81398,181.56732)"
     aria-label="7">
    <path
       id="path10539"
       style="font-style:normal;font-variant:normal;font-weight:normal;font-stretch:normal;font-size:42.66666794px;line-height:53.33333588px;font-family:'Ubuntu Mono';-inkscape-font-specification:'Ubuntu Mono';fill:#ffffff"
       d="m 573.27935,258.25581 q 0.21333,-3.02933 1.06667,-6.4 0.896,-3.41333 2.13333,-6.57067 1.23733,-3.2 2.73067,-5.888 1.49333,-2.73066 2.944,-4.48 h -12.8 v -3.072 h 16.72533 v 2.944 q -1.28,1.49334 -2.77333,4.01067 -1.49334,2.51733 -2.85867,5.67467 -1.32267,3.11466 -2.304,6.69866 -0.98133,3.54134 -1.23733,7.08267 z" />
  </g>
  <g
     id="flowRoot10394"
     style="font-style:normal;font-weight:normal;font-size:42.66666794px;line-height:1.25;font-family:sans-serif;letter-spacing:0px;word-spacing:0px;fill:#ffffff;fill-opacity:1;stroke:none"
     transform="matrix(-0.0816808,0.25138767,-0.25138767,-0.0816808,222.63159,171.73388)"
     aria-label="8">
    <path
       id="path10536"
       style="font-style:normal;font-variant:normal;font-weight:normal;font-stretch:normal;font-size:42.66666794px;line-height:53.33333588px;font-family:'Ubuntu Mono';-inkscape-font-specification:'Ubuntu Mono';fill:#ffffff"
       d="m 585.82335,251.38648 q 0,3.328 -2.13333,5.376 -2.09067,2.048 -6.4,2.048 -2.47467,0 -4.096,-0.64 -1.62134,-0.68267 -2.60267,-1.70667 -0.93867,-1.06667 -1.36533,-2.34667 -0.384,-1.28 -0.384,-2.51733 0,-2.26133 1.23733,-4.01067 1.23733,-1.74933 2.944,-2.816 -3.62667,-2.048 -3.62667,-6.272 0,-1.45066 0.55467,-2.77333 0.55467,-1.32267 1.57867,-2.304 1.024,-0.98133 2.47466,-1.57867 1.49334,-0.59733 3.328,-0.59733 2.13334,0 3.62667,0.64 1.536,0.64 2.47467,1.664 0.93866,0.98133 1.36533,2.21867 0.42667,1.19466 0.42667,2.34666 0,2.26134 -1.152,3.92534 -1.152,1.62133 -2.64534,2.60266 4.39467,2.09067 4.39467,6.74134 z m -13.568,0.256 q 0,0.68266 0.256,1.45066 0.256,0.72534 0.85333,1.36534 0.59734,0.64 1.57867,1.06666 0.98133,0.384 2.38933,0.384 1.32267,0 2.26134,-0.34133 0.98133,-0.384 1.57866,-0.98133 0.64,-0.64 0.93867,-1.408 0.29867,-0.768 0.29867,-1.536 0,-2.432 -1.74934,-3.712 -1.74933,-1.32267 -4.82133,-2.00534 -1.70667,0.93867 -2.64533,2.34667 -0.93867,1.408 -0.93867,3.37067 z m 9.55733,-13.52534 q 0,-0.55466 -0.256,-1.23733 -0.256,-0.72533 -0.81066,-1.28 -0.512,-0.59733 -1.36534,-0.98133 -0.85333,-0.42667 -2.048,-0.42667 -1.23733,0 -2.09066,0.384 -0.81067,0.384 -1.36534,0.98133 -0.55466,0.55467 -0.81066,1.28 -0.21334,0.68267 -0.21334,1.36534 0,1.74933 1.23734,3.28533 1.28,1.49333 4.18133,2.176 1.62133,-0.93867 2.56,-2.21867 0.98133,-1.28 0.98133,-3.328 z" />
  </g>
  <g
     id="flowRoot10402"
     style="font-style:normal;font-weight:normal;font-size:42.66666794px;line-height:1.25;font-family:sans-serif;letter-spacing:0px;word-spacing:0px;fill:#ffffff;fill-opacity:1;stroke:none"
     transform="matrix(-0.04134948,0.26107036,-0.26107036,-0.04134948,223.87623,161.58075)"
     aria-label="9">
    <path
       id="path10533"
       style="font-style:normal;font-variant:normal;font-weight:normal;font-stretch:normal;font-size:42.66666794px;line-height:53.33333588px;font-family:'Ubuntu Mono';-inkscape-font-specification:'Ubuntu Mono';fill:#ffffff"
       d="m 585.73802,242.42648 q 0,7.89333 -3.84,11.904 -3.84,3.968 -11.56267,4.01066 l -0.128,-2.98666 q 4.77867,0 7.68,-1.87734 2.944,-1.92 3.88267,-6.57066 -1.024,0.46933 -2.26134,0.768 -1.23733,0.256 -2.60266,0.256 -2.26134,0 -3.79734,-0.64 -1.536,-0.68267 -2.47466,-1.792 -0.93867,-1.152 -1.36534,-2.60267 -0.42666,-1.45067 -0.42666,-3.072 0,-1.45067 0.46933,-2.944 0.46933,-1.536 1.45067,-2.77333 0.98133,-1.23734 2.51733,-2.048 1.536,-0.81067 3.66933,-0.81067 4.352,0 6.57067,2.98667 2.21867,2.98666 2.21867,8.192 z m -8.448,2.60266 q 1.36533,0 2.51733,-0.256 1.19467,-0.256 2.304,-0.72533 0.0427,-0.42667 0.0427,-0.81067 0,-0.384 0,-0.81066 0,-1.664 -0.256,-3.15734 -0.21334,-1.49333 -0.81067,-2.60266 -0.55467,-1.10934 -1.57867,-1.74934 -0.98133,-0.68266 -2.51733,-0.68266 -1.28,0 -2.13333,0.55466 -0.85334,0.512 -1.408,1.32267 -0.55467,0.768 -0.81067,1.74933 -0.21333,0.98134 -0.21333,1.87734 0,2.60266 1.152,3.968 1.19466,1.32266 3.712,1.32266 z" />
  </g>
  <g
     id="flowRoot10410"
     style="font-style:normal;font-weight:normal;font-size:42.66666794px;line-height:1.25;font-family:sans-serif;letter-spacing:0px;word-spacing:0px;fill:#ffffff;fill-opacity:1;stroke:none"
     transform="matrix(0,0.26432464,-0.26432464,0,223.51725,151.3579)"
     aria-label="0">
    <path
       id="path10530"
       style="font-style:normal;font-variant:normal;font-weight:normal;font-stretch:normal;font-size:42.66666794px;line-height:53.33333588px;font-family:'Ubuntu Mono';-inkscape-font-specification:'Ubuntu Mono';fill:#ffffff"
       d="m 579.80735,244.55981 q 0,1.10933 -0.68267,1.92 -0.64,0.81067 -1.70666,0.81067 -1.10934,0 -1.792,-0.81067 -0.68267,-0.81067 -0.68267,-1.92 0,-1.10933 0.68267,-1.96267 0.68266,-0.85333 1.792,-0.85333 1.06666,0 1.70666,0.85333 0.68267,0.85334 0.68267,1.96267 z m -11.17867,0.46933 q 0,-6.656 2.26134,-10.19733 2.304,-3.584 6.44266,-3.584 4.18134,0 6.44267,3.584 2.26133,3.54133 2.26133,10.19733 0,6.656 -2.26133,10.24 -2.26133,3.54134 -6.44267,3.54134 -4.13866,0 -6.44266,-3.54134 -2.26134,-3.584 -2.26134,-10.24 z m 13.824,0 q 0,-2.176 -0.256,-4.096 -0.256,-1.96266 -0.85333,-3.41333 -0.59733,-1.45067 -1.57867,-2.304 -0.98133,-0.85333 -2.432,-0.85333 -1.45066,0 -2.432,0.85333 -0.98133,0.85333 -1.57866,2.304 -0.59734,1.45067 -0.85334,3.41333 -0.256,1.92 -0.256,4.096 0,2.176 0.256,4.13867 0.256,1.92 0.85334,3.37067 0.59733,1.45066 1.57866,2.304 0.98134,0.85333 2.432,0.85333 1.45067,0 2.432,-0.85333 0.98134,-0.85334 1.57867,-2.304 0.59733,-1.45067 0.85333,-3.37067 0.256,-1.96267 0.256,-4.13867 z" />
  </g>
  <g
     id="flowRoot10418"
     style="font-style:normal;font-weight:normal;font-size:42.66666794px;line-height:1.25;font-family:sans-serif;letter-spacing:0px;word-spacing:0px;fill:#ffffff;fill-opacity:1;stroke:none"
     transform="matrix(0.04134948,0.26107036,-0.26107036,0.04134948,221.56348,141.31708)"
     aria-label="1">
    <path
       id="path10527"
       style="font-style:normal;font-variant:normal;font-weight:normal;font-stretch:normal;font-size:42.66666794px;line-height:53.33333588px;font-family:'Ubuntu Mono';-inkscape-font-specification:'Ubuntu Mono';fill:#ffffff"
       d="m 569.86602,237.30648 q 2.176,-0.85334 4.224,-2.13334 2.048,-1.32266 3.79733,-3.328 h 2.47467 v 23.424 h 4.992 v 2.98667 h -14.208 v -2.98667 h 5.71733 v -18.51733 q -0.46933,0.42667 -1.152,0.896 -0.64,0.42667 -1.45067,0.85333 -0.768,0.42667 -1.62133,0.81067 -0.85333,0.384 -1.664,0.64 z" />
  </g>
  <g
     id="flowRoot10426"
     style="font-style:normal;font-weight:normal;font-size:42.66666794px;line-height:1.25;font-family:sans-serif;letter-spacing:0px;word-spacing:0px;fill:#ffffff;fill-opacity:1;stroke:none"
     transform="matrix(0.0816808,0.25138767,-0.25138767,0.0816808,218.06304,131.70551)"
     aria-label="2">
    <path
       id="path10524"
       style="font-style:normal;font-variant:normal;font-weight:normal;font-stretch:normal;font-size:42.66666794px;line-height:53.33333588px;font-family:'Ubuntu Mono';-inkscape-font-specification:'Ubuntu Mono';fill:#ffffff"
       d="m 584.58602,238.58648 q 0,1.36533 -0.55467,2.64533 -0.512,1.28 -1.408,2.51733 -0.85333,1.23734 -1.96267,2.432 -1.10933,1.19467 -2.26133,2.34667 -0.64,0.64 -1.49333,1.536 -0.85334,0.896 -1.62134,1.83467 -0.768,0.93866 -1.28,1.83466 -0.512,0.896 -0.512,1.536 h 12.16 v 2.98667 h -16 q -0.0427,-0.21333 -0.0427,-0.42667 0,-0.256 0,-0.46933 0,-1.792 0.59733,-3.328 0.59733,-1.536 1.536,-2.90133 0.93867,-1.36534 2.09067,-2.56 1.19466,-1.23734 2.34666,-2.38934 0.93867,-0.93866 1.792,-1.83466 0.896,-0.896 1.536,-1.792 0.68267,-0.896 1.06667,-1.83467 0.42667,-0.98133 0.42667,-2.00533 0,-1.152 -0.384,-1.96267 -0.34134,-0.81067 -0.98134,-1.32267 -0.59733,-0.55466 -1.408,-0.81066 -0.81066,-0.256 -1.74933,-0.256 -1.10933,0 -2.048,0.29866 -0.896,0.29867 -1.62133,0.72534 -0.68267,0.42666 -1.19467,0.85333 -0.512,0.384 -0.768,0.64 l -1.74933,-2.47467 q 0.34133,-0.384 1.024,-0.93866 0.68266,-0.55467 1.62133,-1.024 0.98133,-0.512 2.176,-0.85334 1.19467,-0.34133 2.56,-0.34133 4.13867,0 6.10133,1.92 2.00534,1.87733 2.00534,5.41867 z" />
  </g>
  <g
     id="flowRoot10434"
     style="font-style:normal;font-weight:normal;font-size:42.66666794px;line-height:1.25;font-family:sans-serif;letter-spacing:0px;word-spacing:0px;fill:#ffffff;fill-opacity:1;stroke:none"
     transform="matrix(0.12000087,0.23551497,-0.23551497,0.12000087,213.10212,122.75987)"
     aria-label="3">
    <path
       id="path10521"
       style="font-style:normal;font-variant:normal;font-weight:normal;font-stretch:normal;font-size:42.66666794px;line-height:53.33333588px;font-family:'Ubuntu Mono';-inkscape-font-specification:'Ubuntu Mono';fill:#ffffff"
       d="m 575.71135,255.69581 q 3.37067,0 4.77867,-1.32267 1.45066,-1.36533 1.45066,-3.62666 0,-1.45067 -0.59733,-2.432 -0.59733,-0.98134 -1.57867,-1.57867 -0.98133,-0.59733 -2.26133,-0.85333 -1.28,-0.256 -2.688,-0.256 h -0.896 v -2.85867 h 1.23733 q 0.93867,0 1.92,-0.17067 1.024,-0.21333 1.83467,-0.68266 0.85333,-0.512 1.36533,-1.36534 0.512,-0.85333 0.512,-2.176 0,-2.176 -1.36533,-3.072 -1.32267,-0.93866 -3.11467,-0.93866 -1.83466,0 -3.11466,0.55466 -1.28,0.512 -2.13334,1.06667 l -1.36533,-2.688 q 0.896,-0.64 2.688,-1.32267 1.83467,-0.72533 4.05333,-0.72533 2.09067,0 3.584,0.512 1.49334,0.512 2.432,1.45067 0.98134,0.93866 1.45067,2.21866 0.46933,1.23734 0.46933,2.73067 0,2.09067 -1.10933,3.54133 -1.06667,1.45067 -2.77333,2.21867 2.048,0.59733 3.54133,2.34667 1.49333,1.70666 1.49333,4.56533 0,1.70667 -0.59733,3.2 -0.55467,1.45067 -1.74933,2.51733 -1.152,1.06667 -3.02934,1.664 -1.83466,0.59734 -4.39466,0.59734 -0.98134,0 -2.048,-0.17067 -1.024,-0.128 -1.92,-0.384 -0.896,-0.21333 -1.62134,-0.42667 -0.68266,-0.256 -0.98133,-0.384 l 0.68267,-3.02933 q 0.68266,0.34133 2.176,0.81067 1.49333,0.46933 3.66933,0.46933 z" />
  </g>
  <g
     id="flowRoot10442"
     style="font-style:normal;font-weight:normal;font-size:42.66666794px;line-height:1.25;font-family:sans-serif;letter-spacing:0px;word-spacing:0px;fill:#ffffff;fill-opacity:1;stroke:none"
     transform="matrix(0.15536612,0.21384312,-0.21384312,0.15536612,206.80286,114.70042)"
     aria-label="4">
    <path
       id="path10518"
       style="font-style:normal;font-variant:normal;font-weight:normal;font-stretch:normal;font-size:42.66666794px;line-height:53.33333588px;font-family:'Ubuntu Mono';-inkscape-font-specification:'Ubuntu Mono';fill:#ffffff"
       d="m 568.20202,249.12514 q 0.72533,-1.70666 1.96266,-3.92533 1.28,-2.21867 2.85867,-4.56533 1.57867,-2.38934 3.37067,-4.65067 1.792,-2.304 3.62666,-4.13867 h 3.41334 v 16.768 h 3.11466 v 2.90134 h -3.11466 v 6.74133 h -3.41334 v -6.74133 h -11.81866 z m 11.81866,-13.09866 q -1.152,1.23733 -2.34666,2.73066 -1.152,1.49334 -2.26134,3.15734 -1.10933,1.62133 -2.09066,3.328 -0.93867,1.70666 -1.70667,3.37066 h 8.40533 z" />
  </g>
  <g
     id="flowRoot10450"
     style="font-style:normal;font-weight:normal;font-size:42.66666794px;line-height:1.25;font-family:sans-serif;letter-spacing:0px;word-spacing:0px;fill:#ffffff;fill-opacity:1;stroke:none"
     transform="matrix(0.18690574,0.18690574,-0.18690574,0.18690574,199.32038,107.72561)"
     aria-label="5">
    <path
       id="path10515"
       style="font-style:normal;font-variant:normal;font-weight:normal;font-stretch:normal;font-size:42.66666794px;line-height:53.33333588px;font-family:'Ubuntu Mono';-inkscape-font-specification:'Ubuntu Mono';fill:#ffffff"
       d="m 574.60202,242.04248 q 5.71733,0.21333 8.32,2.51733 2.60266,2.304 2.60266,6.18667 0,1.74933 -0.55466,3.24266 -0.55467,1.49334 -1.74934,2.56 -1.152,1.06667 -2.98666,1.664 -1.792,0.59734 -4.26667,0.59734 -1.024,0 -2.048,-0.17067 -0.98133,-0.128 -1.87733,-0.34133 -0.896,-0.21334 -1.57867,-0.42667 -0.68267,-0.256 -0.98133,-0.42667 l 0.68266,-3.02933 q 0.68267,0.34133 2.09067,0.81067 1.45067,0.46933 3.62667,0.46933 1.70666,0 2.85866,-0.384 1.152,-0.384 1.83467,-1.024 0.72533,-0.68267 1.024,-1.536 0.34133,-0.85333 0.34133,-1.792 0,-1.45067 -0.512,-2.56 -0.46933,-1.152 -1.70666,-1.92 -1.19467,-0.768 -3.328,-1.152 -2.09067,-0.42667 -5.29067,-0.42667 0.256,-1.87733 0.384,-3.49866 0.17067,-1.664 0.256,-3.2 0.128,-1.57867 0.17067,-3.11467 0.0853,-1.536 0.17066,-3.24267 h 12.71467 v 2.98667 h -9.64267 q -0.0427,0.59733 -0.128,1.57867 -0.0427,0.93866 -0.128,2.00533 -0.0853,1.06667 -0.17066,2.048 -0.0853,0.98133 -0.128,1.57867 z" />
  </g>
  <g
     id="flowRoot10458"
     style="font-style:normal;font-weight:normal;font-size:42.66666794px;line-height:1.25;font-family:sans-serif;letter-spacing:0px;word-spacing:0px;fill:#ffffff;fill-opacity:1;stroke:none"
     transform="matrix(0.21384312,0.15536612,-0.15536612,0.21384312,190.83892,102.0072)"
     aria-label="6">
    <path
       id="path10512"
       style="font-style:normal;font-variant:normal;font-weight:normal;font-stretch:normal;font-size:42.66666794px;line-height:53.33333588px;font-family:'Ubuntu Mono';-inkscape-font-specification:'Ubuntu Mono';fill:#ffffff"
       d="m 568.97002,247.67448 q 0,-3.84 1.024,-6.784 1.06666,-2.98667 2.98666,-4.992 1.96267,-2.00534 4.736,-3.072 2.77334,-1.06667 6.272,-1.10934 l 0.29867,2.98667 q -2.26133,0.0427 -4.13867,0.512 -1.83466,0.42667 -3.28533,1.45067 -1.45067,0.98133 -2.432,2.56 -0.98133,1.57866 -1.49333,3.88266 1.024,-0.46933 2.21866,-0.768 1.23734,-0.29866 2.60267,-0.29866 2.21867,0 3.75467,0.68266 1.57866,0.68267 2.51733,1.83467 0.93867,1.10933 1.36533,2.60267 0.42667,1.49333 0.42667,3.072 0,1.45066 -0.46933,2.98666 -0.46934,1.49334 -1.45067,2.77334 -0.98133,1.23733 -2.51733,2.048 -1.536,0.768 -3.66934,0.768 -4.39466,0 -6.57066,-2.944 -2.176,-2.944 -2.176,-8.192 z m 8.40533,-2.73067 q -1.36533,0 -2.51733,0.256 -1.10934,0.256 -2.26134,0.768 -0.0427,0.42667 -0.0427,0.85333 0,0.384 0,0.85334 0,1.664 0.21333,3.15733 0.256,1.45067 0.81067,2.60267 0.59733,1.10933 1.57866,1.792 0.98134,0.64 2.51734,0.64 1.28,0 2.13333,-0.512 0.85333,-0.55467 1.408,-1.36534 0.55467,-0.81066 0.768,-1.792 0.256,-1.024 0.256,-1.92 0,-2.60266 -1.19467,-3.968 -1.152,-1.36533 -3.66933,-1.36533 z" />
  </g>
</svg>
