<?xml version="1.0" encoding="UTF-8" standalone="no"?>
<svg
   xmlns:dc="http://purl.org/dc/elements/1.1/"
   xmlns:cc="http://creativecommons.org/ns#"
   xmlns:rdf="http://www.w3.org/1999/02/22-rdf-syntax-ns#"
   xmlns:svg="http://www.w3.org/2000/svg"
   xmlns="http://www.w3.org/2000/svg"
   xmlns:sodipodi="http://sodipodi.sourceforge.net/DTD/sodipodi-0.dtd"
   xmlns:inkscape="http://www.inkscape.org/namespaces/inkscape"
   id="svg6106"
   version="1.1"
   viewBox="0 0 423.33332 423.33335"
   height="1600"
   width="1600"
   sodipodi:docname="4.svg"
   inkscape:version="0.92.4 (5da689c313, 2019-01-14)">
  <sodipodi:namedview
     pagecolor="#ffffff"
     bordercolor="#666666"
     borderopacity="1"
     objecttolerance="10"
     gridtolerance="10"
     guidetolerance="10"
     inkscape:pageopacity="0"
     inkscape:pageshadow="2"
     inkscape:window-width="1920"
     inkscape:window-height="1029"
     id="namedview128"
     showgrid="false"
     inkscape:zoom="0.63"
     inkscape:cx="496.52943"
     inkscape:cy="800"
     inkscape:window-x="1920"
     inkscape:window-y="25"
     inkscape:window-maximized="1"
     inkscape:current-layer="svg6106" />
  <defs
     id="defs6100" />
  <metadata
     id="metadata6103">
    <rdf:RDF>
      <cc:Work
         rdf:about="">
        <dc:format>image/svg+xml</dc:format>
        <dc:type
           rdf:resource="http://purl.org/dc/dcmitype/StillImage" />
        <dc:title></dc:title>
      </cc:Work>
    </rdf:RDF>
  </metadata>
  <g
     id="g1194">
    <circle
       transform="rotate(1.0000002)"
       r="211.26927"
       cy="207.94034"
       cx="215.32852"
       id="circle8938"
       style="fill:#666666;fill-opacity:1;stroke:#323232;stroke-width:0.79346937;stroke-miterlimit:4;stroke-dasharray:none;stroke-opacity:1" />
    <path
       d="m 410.52135,211.54253 q 0,0.29341 -0.18056,0.50782 -0.16927,0.21442 -0.45139,0.21442 -0.29341,0 -0.47396,-0.21442 -0.18056,-0.21441 -0.18056,-0.50782 0,-0.2934 0.18056,-0.5191 0.18055,-0.2257 0.47396,-0.2257 0.28212,0 0.45139,0.2257 0.18056,0.2257 0.18056,0.5191 z m -2.95664,0.12414 q 0,-1.76045 0.5981,-2.69709 0.60939,-0.94794 1.70402,-0.94794 1.10592,0 1.70402,0.94794 0.5981,0.93664 0.5981,2.69709 0,1.76044 -0.5981,2.70837 -0.5981,0.93665 -1.70402,0.93665 -1.09463,0 -1.70402,-0.93665 -0.5981,-0.94793 -0.5981,-2.70837 z m 3.65631,0 q 0,-0.57553 -0.0677,-1.08335 -0.0677,-0.51911 -0.2257,-0.9028 -0.15799,-0.38368 -0.41754,-0.60938 -0.25955,-0.2257 -0.64324,-0.2257 -0.38369,0 -0.64324,0.2257 -0.25955,0.2257 -0.41754,0.60938 -0.15799,0.38369 -0.2257,0.9028 -0.0677,0.50782 -0.0677,1.08335 0,0.57553 0.0677,1.09463 0.0677,0.50782 0.2257,0.89151 0.15799,0.38368 0.41754,0.60938 0.25955,0.2257 0.64324,0.2257 0.38369,0 0.64324,-0.2257 0.25955,-0.2257 0.41754,-0.60938 0.15799,-0.38369 0.2257,-0.89151 0.0677,-0.5191 0.0677,-1.09463 z"
       style="font-style:normal;font-variant:normal;font-weight:normal;font-stretch:normal;font-size:42.66666794px;line-height:53.33333588px;font-family:'Ubuntu Mono';-inkscape-font-specification:'Ubuntu Mono';letter-spacing:0px;word-spacing:0px;fill:#ffffff;fill-opacity:1;stroke:none;stroke-width:0.2644898"
       id="path7557"
       inkscape:connector-curvature="0" />
    <path
       d="m 406.60352,189.12415 q 0.54879,-0.28462 1.05211,-0.67793 0.50214,-0.40453 0.90684,-0.98038 l 0.65094,-0.0684 0.6476,6.16147 1.3131,-0.13801 0.0826,0.78561 -3.73728,0.39281 -0.0826,-0.78562 1.5039,-0.15806 -0.51195,-4.87082 q -0.11166,0.12521 -0.27825,0.26753 -0.15655,0.12993 -0.35799,0.26457 -0.19022,0.13347 -0.40407,0.25807 -0.21384,0.12459 -0.42,0.21435 z"
       style="font-style:normal;font-variant:normal;font-weight:normal;font-stretch:normal;font-size:42.66666794px;line-height:53.33333588px;font-family:'Ubuntu Mono';-inkscape-font-specification:'Ubuntu Mono';letter-spacing:0px;word-spacing:0px;fill:#ffffff;fill-opacity:1;stroke:none;stroke-width:0.26448977"
       id="path7554"
       inkscape:connector-curvature="0" />
    <path
       d="m 407.0579,168.39288 q 0.0751,0.35322 0.002,0.71487 -0.0621,0.35931 -0.22584,0.72869 -0.15272,0.36704 -0.37402,0.73711 -0.2213,0.37008 -0.45599,0.73146 -0.13038,0.20077 -0.30187,0.4795 -0.1715,0.27873 -0.31857,0.5638 -0.14707,0.28508 -0.23026,0.54503 -0.0832,0.25996 -0.048,0.42554 l 3.14591,-0.66869 0.16424,0.77269 -4.13936,0.87984 q -0.0228,-0.0528 -0.0345,-0.10803 -0.0141,-0.0662 -0.0258,-0.12142 -0.0985,-0.46361 -0.0285,-0.89384 0.0701,-0.43022 0.23783,-0.83507 0.16776,-0.40484 0.4001,-0.77726 0.24103,-0.38581 0.47572,-0.74719 0.19122,-0.29446 0.36271,-0.57319 0.18254,-0.28107 0.29884,-0.54807 0.12734,-0.26935 0.17507,-0.53331 0.0564,-0.27734 1.1e-4,-0.54226 -0.0634,-0.29803 -0.20727,-0.48664 -0.13289,-0.19096 -0.32662,-0.28823 -0.18504,-0.11065 -0.40884,-0.1323 -0.22381,-0.0216 -0.46665,0.03 -0.28699,0.061 -0.51341,0.18989 -0.21538,0.12654 -0.37957,0.27681 -0.15315,0.14792 -0.26215,0.28646 -0.11134,0.1275 -0.1635,0.2078 l -0.58865,-0.54402 q 0.0672,-0.11812 0.2133,-0.29915 0.14611,-0.18104 0.36315,-0.35408 0.22572,-0.18642 0.51602,-0.34043 0.29031,-0.154 0.64353,-0.22908 1.07072,-0.22758 1.68406,0.16121 0.62204,0.37541 0.81678,1.29159 z"
       style="font-style:normal;font-variant:normal;font-weight:normal;font-stretch:normal;font-size:42.66666794px;line-height:53.33333588px;font-family:'Ubuntu Mono';-inkscape-font-specification:'Ubuntu Mono';letter-spacing:0px;word-spacing:0px;fill:#ffffff;fill-opacity:1;stroke:none;stroke-width:0.26448977"
       id="path7551"
       inkscape:connector-curvature="0" />
    <path
       d="m 400.63018,153.23509 q 0.84787,-0.27549 1.09394,-0.72328 0.25332,-0.462 0.0685,-1.03083 -0.11857,-0.36491 -0.34903,-0.56294 -0.23046,-0.19803 -0.52613,-0.26807 -0.29567,-0.0701 -0.63857,-0.0298 -0.3429,0.0402 -0.69708,0.1553 l -0.22538,0.0732 -0.23365,-0.71908 0.31125,-0.10113 q 0.23611,-0.0767 0.46901,-0.19986 0.24015,-0.13735 0.40571,-0.32167 0.1728,-0.19853 0.23185,-0.45503 0.0591,-0.2565 -0.0491,-0.58921 -0.17785,-0.54736 -0.59452,-0.66116 -0.40943,-0.12801 -0.8602,0.0185 -0.4615,0.14995 -0.73814,0.39408 -0.28013,0.23341 -0.44945,0.44268 l -0.56314,-0.56456 q 0.17308,-0.23422 0.56805,-0.55241 0.40222,-0.3324 0.96031,-0.51373 0.5259,-0.17088 0.94339,-0.16414 0.41748,0.007 0.73032,0.16614 0.32357,0.1559 0.54624,0.43952 0.21919,0.27289 0.34124,0.64853 0.17088,0.5259 0.0104,0.98147 -0.14974,0.45209 -0.51628,0.78476 0.56399,-0.0171 1.0826,0.30086 0.51513,0.30724 0.74878,1.02633 0.13949,0.4293 0.11128,0.85376 -0.021,0.41024 -0.23428,0.7762 -0.2026,0.36247 -0.62602,0.66616 -0.41268,0.30021 -1.05663,0.50944 -0.24685,0.0802 -0.52911,0.12446 -0.26805,0.0515 -0.51435,0.0603 -0.24282,0.0196 -0.44272,0.0252 -0.19264,-0.009 -0.27823,-0.0164 l -0.0759,-0.8178 q 0.19962,0.0301 0.61362,0.0261 0.414,-0.004 0.96136,-0.18185 z"
       style="font-style:normal;font-variant:normal;font-weight:normal;font-stretch:normal;font-size:42.66666794px;line-height:53.33333588px;font-family:'Ubuntu Mono';-inkscape-font-specification:'Ubuntu Mono';letter-spacing:0px;word-spacing:0px;fill:#ffffff;fill-opacity:1;stroke:none;stroke-width:0.26448977"
       id="path7548"
       inkscape:connector-curvature="0" />
    <path
       d="m 411.06397,231.93199 q -0.21822,2.07627 -1.33918,3.02508 -1.11978,0.93758 -3.15234,0.7353 l 0.0489,-0.78916 q 1.25699,0.13212 2.07206,-0.28149 0.82747,-0.42364 1.20296,-1.62101 -0.28233,0.0951 -0.61606,0.1395 -0.33255,0.0331 -0.69168,-0.005 -0.59483,-0.0625 -0.98117,-0.27334 -0.38515,-0.22203 -0.60139,-0.53978 -0.21506,-0.32897 -0.28719,-0.72236 -0.0721,-0.39338 -0.0273,-0.81985 0.0401,-0.38159 0.20484,-0.76142 0.16592,-0.39106 0.45826,-0.68939 0.29234,-0.29834 0.71878,-0.46912 0.42644,-0.17077 0.9876,-0.11179 1.14475,0.12032 1.64578,0.96727 0.50103,0.84696 0.35712,2.21617 z m -2.29412,0.45105 q 0.35913,0.0378 0.66923,0.002 0.32133,-0.0343 0.6261,-0.1271 0.023,-0.11105 0.0337,-0.21205 0.0106,-0.10101 0.0224,-0.21324 0.046,-0.4377 0.0199,-0.83759 -0.0148,-0.3987 -0.14128,-0.70702 -0.11524,-0.30713 -0.36689,-0.50379 -0.23926,-0.2067 -0.64329,-0.24916 -0.33669,-0.0354 -0.57649,0.0869 -0.23862,0.11108 -0.40693,0.30899 -0.16713,0.18668 -0.2616,0.43773 -0.0833,0.25223 -0.10802,0.48792 -0.072,0.6846 0.19332,1.07559 0.27768,0.38095 0.93984,0.45054 z"
       style="font-style:normal;font-variant:normal;font-weight:normal;font-stretch:normal;font-size:42.66666794px;line-height:53.33333588px;font-family:'Ubuntu Mono';-inkscape-font-specification:'Ubuntu Mono';letter-spacing:0px;word-spacing:0px;fill:#ffffff;fill-opacity:1;stroke:none;stroke-width:0.26448977"
       id="path7545"
       inkscape:connector-curvature="0" />
    <path
       d="m 407.38271,254.98641 q -0.18301,0.86098 -0.84754,1.27351 -0.6535,0.41487 -1.76837,0.1779 -0.64022,-0.13609 -1.02448,-0.39082 -0.38192,-0.26577 -0.57949,-0.58465 -0.18418,-0.32758 -0.22418,-0.68219 -0.029,-0.35226 0.0391,-0.67237 0.12435,-0.58503 0.54066,-0.96956 0.4163,-0.38453 0.91649,-0.56664 -0.82563,-0.72927 -0.59335,-1.82206 0.0798,-0.3753 0.296,-0.68699 0.21623,-0.31168 0.53512,-0.50925 0.31888,-0.19757 0.72703,-0.27234 0.41919,-0.0724 0.89383,0.0285 0.55192,0.11732 0.90307,0.36501 0.36218,0.25004 0.54871,0.56658 0.18888,0.3055 0.23122,0.64907 0.0447,0.33253 -0.0187,0.63057 -0.12435,0.58503 -0.51389,0.95217 -0.38719,0.35611 -0.8275,0.52787 1.02198,0.78254 0.76624,1.98572 z m -3.52426,-0.67988 q -0.0375,0.17661 -0.0135,0.38937 0.0263,0.20173 0.14569,0.40016 0.11934,0.19842 0.34976,0.36276 0.23276,0.15331 0.59702,0.23074 0.34219,0.0727 0.60381,0.036 0.27499,-0.0454 0.46237,-0.16706 0.20077,-0.13038 0.32027,-0.31265 0.11951,-0.18226 0.16174,-0.38095 0.13374,-0.62919 -0.24845,-1.05653 -0.37983,-0.43839 -1.13705,-0.78393 -0.49315,0.14899 -0.81342,0.46164 -0.32027,0.31264 -0.4282,0.82041 z m 3.21635,-2.97358 q 0.0305,-0.1435 0.002,-0.33419 -0.0264,-0.20173 -0.13934,-0.37573 -0.0996,-0.18269 -0.29926,-0.32896 -0.19731,-0.15731 -0.50638,-0.223 -0.32011,-0.068 -0.56199,-0.0156 -0.23084,0.0548 -0.40719,0.1788 -0.174,0.113 -0.28011,0.28657 -0.0927,0.16489 -0.13028,0.3415 -0.0962,0.45257 0.13945,0.91799 0.24903,0.45673 0.96209,0.79289 0.47108,-0.15369 0.78431,-0.43322 0.32427,-0.27719 0.43689,-0.80702 z"
       style="font-style:normal;font-variant:normal;font-weight:normal;font-stretch:normal;font-size:42.66666794px;line-height:53.33333588px;font-family:'Ubuntu Mono';-inkscape-font-specification:'Ubuntu Mono';letter-spacing:0px;word-spacing:0px;fill:#ffffff;fill-opacity:1;stroke:none;stroke-width:0.26448977"
       id="path7542"
       inkscape:connector-curvature="0" />
    <path
       d="m 398.06559,275.90969 q 0.30126,-0.74457 0.7914,-1.5227 0.50436,-0.78538 1.07366,-1.47846 0.57279,-0.70381 1.16812,-1.25791 0.59882,-0.56483 1.10671,-0.8863 l -3.21977,-1.04617 0.25108,-0.77275 4.20717,1.36699 -0.24062,0.74055 q -0.44403,0.27103 -1.02542,0.7822 -0.58139,0.51116 -1.18288,1.19378 -0.58728,0.67538 -1.12706,1.49671 -0.53628,0.8106 -0.89012,1.68048 z"
       style="font-style:normal;font-variant:normal;font-weight:normal;font-stretch:normal;font-size:42.66666794px;line-height:53.33333588px;font-family:'Ubuntu Mono';-inkscape-font-specification:'Ubuntu Mono';letter-spacing:0px;word-spacing:0px;fill:#ffffff;fill-opacity:1;stroke:none;stroke-width:0.26448977"
       id="path7539"
       inkscape:connector-curvature="0" />
    <path
       d="m 390.96598,133.02332 q -0.008,-0.4904 0.0519,-1.15959 0.0706,-0.67378 0.1996,-1.41062 0.1244,-0.74715 0.31412,-1.48632 0.18513,-0.74948 0.43106,-1.39015 l 0.82474,-0.3672 1.80387,4.05155 0.75257,-0.33507 0.31212,0.70103 -0.75257,0.33507 0.72521,1.62886 -0.82474,0.3672 -0.72522,-1.62886 -2.85566,1.27142 z m 1.44654,-4.43637 q -0.14524,0.4229 -0.27325,0.91224 -0.1177,0.48476 -0.20673,1.00616 -0.0936,0.51109 -0.14714,1.02903 -0.0432,0.51335 -0.0498,0.99803 l 2.03092,-0.90423 z"
       style="font-style:normal;font-variant:normal;font-weight:normal;font-stretch:normal;font-size:42.66666794px;line-height:53.33333588px;font-family:'Ubuntu Mono';-inkscape-font-specification:'Ubuntu Mono';letter-spacing:0px;word-spacing:0px;fill:#ffffff;fill-opacity:1;stroke:none;stroke-width:0.26448977"
       id="path7536"
       inkscape:connector-curvature="0" />
    <path
       d="m 382.29259,112.24356 q 1.3378,-0.70722 2.23865,-0.52367 0.90084,0.18356 1.4143,1.0729 0.23134,0.40069 0.30178,0.8161 0.0704,0.41541 -0.0621,0.81772 -0.12281,0.39667 -0.46405,0.77612 -0.33147,0.3738 -0.89831,0.70107 -0.23455,0.13542 -0.49167,0.23174 -0.24171,0.10046 -0.47515,0.17009 -0.23345,0.0696 -0.41803,0.11104 -0.19022,0.0316 -0.2812,0.032 l -0.24425,-0.78416 q 0.20151,-0.0121 0.58609,-0.0908 0.39434,-0.0843 0.89277,-0.37211 0.39092,-0.2257 0.60401,-0.466 0.21309,-0.2403 0.28482,-0.47718 0.0759,-0.25229 0.0314,-0.48724 -0.0347,-0.2406 -0.1588,-0.45561 -0.19184,-0.33228 -0.45582,-0.51867 -0.25985,-0.20181 -0.64483,-0.21409 -0.37521,-0.0179 -0.91464,0.17624 -0.5353,0.17875 -1.26828,0.60193 -0.18963,-0.46386 -0.37472,-0.85216 -0.18097,-0.40372 -0.36455,-0.76683 -0.17945,-0.37853 -0.3728,-0.736 -0.18359,-0.36311 -0.38974,-0.76532 l 2.91236,-1.68145 0.39497,0.68411 -2.2087,1.27519 q 0.0692,0.14247 0.17945,0.37853 0.11435,0.22065 0.23588,0.47626 0.12152,0.25561 0.23174,0.49167 0.11024,0.23606 0.17945,0.37853 z"
       style="font-style:normal;font-variant:normal;font-weight:normal;font-stretch:normal;font-size:42.66666794px;line-height:53.33333588px;font-family:'Ubuntu Mono';-inkscape-font-specification:'Ubuntu Mono';letter-spacing:0px;word-spacing:0px;fill:#ffffff;fill-opacity:1;stroke:none;stroke-width:0.2644898"
       id="path7533"
       inkscape:connector-curvature="0" />
    <path
       d="m 370.6358,97.033633 q -0.59698,-0.821671 -0.83555,-1.610813 -0.23608,-0.804904 -0.137,-1.532487 0.10821,-0.734219 0.53581,-1.39361 0.4276,-0.659395 1.1696,-1.212438 l 0.52823,0.592645 q -0.47724,0.360691 -0.80599,0.752967 -0.32624,0.37652 -0.47745,0.821158 -0.15785,0.435507 -0.12241,0.925867 0.0354,0.490357 0.28407,1.062956 0.14615,-0.25962 0.35535,-0.509254 0.21833,-0.256267 0.51048,-0.468525 0.47474,-0.344922 0.90954,-0.43764 0.44393,-0.09935 0.82387,0.0012 0.37332,0.09144 0.69677,0.344653 0.32346,0.253206 0.56888,0.591005 0.22553,0.310407 0.36389,0.712039 0.13173,0.392505 0.12074,0.818956 -0.0176,0.41732 -0.22026,0.829576 -0.20927,0.403126 -0.66575,0.734782 -0.94036,0.683208 -1.86366,0.391548 -0.92329,-0.291659 -1.73916,-1.414609 z m 1.37402,-1.891019 q -0.29215,0.212258 -0.49885,0.44613 -0.19757,0.227239 -0.36448,0.515889 0.0572,0.09794 0.12353,0.189231 0.0597,0.08217 0.13266,0.182595 0.25869,0.356057 0.5365,0.64243 0.2803,0.270611 0.57808,0.430882 0.30027,0.144508 0.61639,0.138022 0.30948,-0.01562 0.63815,-0.254408 0.27389,-0.198993 0.37688,-0.441211 0.0964,-0.251348 0.089,-0.511043 -0.007,-0.259693 -0.11426,-0.502842 -0.10441,-0.258911 -0.24371,-0.450634 -0.40461,-0.556908 -0.87251,-0.663332 -0.45876,-0.113055 -0.99741,0.278297 z"
       style="font-style:normal;font-variant:normal;font-weight:normal;font-stretch:normal;font-size:42.66666794px;line-height:53.33333588px;font-family:'Ubuntu Mono';-inkscape-font-specification:'Ubuntu Mono';letter-spacing:0px;word-spacing:0px;fill:#ffffff;fill-opacity:1;stroke:none;stroke-width:0.26448977"
       id="path7530"
       inkscape:connector-curvature="0" />
    <path
       d="m 360.5022,82.361951 q -0.49419,-0.633182 -0.923,-1.446724 -0.42797,-0.829477 -0.74355,-1.669046 -0.32313,-0.847954 -0.50532,-1.64058 -0.18975,-0.80101 -0.21421,-1.401587 l -2.51589,2.265321 -0.54368,-0.603814 3.28744,-2.960019 0.52102,0.578655 q 0.0127,0.520055 0.16469,1.279133 0.15199,0.759081 0.44241,1.621303 0.29125,0.846283 0.73266,1.724407 0.43385,0.86974 1.01027,1.611109 z"
       style="font-style:normal;font-variant:normal;font-weight:normal;font-stretch:normal;font-size:42.66666794px;line-height:53.33333588px;font-family:'Ubuntu Mono';-inkscape-font-specification:'Ubuntu Mono';letter-spacing:0px;word-spacing:0px;fill:#ffffff;fill-opacity:1;stroke:none;stroke-width:0.26448977"
       id="path7527"
       inkscape:connector-curvature="0" />
    <path
       d="m 347.04067,63.831441 q 0.65414,0.588983 0.67913,1.37075 0.0325,0.773381 -0.73012,1.620398 -0.43796,0.486407 -0.8507,0.69182 -0.42112,0.197864 -0.79607,0.209522 -0.37578,-0.0043 -0.70288,-0.146948 -0.31955,-0.151055 -0.56275,-0.370035 -0.44448,-0.400206 -0.56933,-0.953004 -0.12486,-0.552796 -0.0325,-1.077026 -1.04438,0.350386 -1.87463,-0.39717 -0.28513,-0.256735 -0.44694,-0.599842 -0.16181,-0.343106 -0.17347,-0.718052 -0.0117,-0.374945 0.12766,-0.765795 0.14688,-0.399237 0.47158,-0.759847 0.37755,-0.419317 0.76764,-0.599571 0.39763,-0.188641 0.76502,-0.191915 0.35901,-0.01082 0.67773,0.124295 0.31032,0.127565 0.53675,0.331444 0.44448,0.400208 0.56767,0.92113 0.1148,0.51337 0.0434,0.980567 1.18869,-0.493788 2.1028,0.329279 z m -2.35092,2.712154 q 0.13418,0.120816 0.33044,0.206417 0.18788,0.07805 0.41938,0.07391 0.23152,-0.0041 0.48905,-0.121519 0.24915,-0.124925 0.49834,-0.401673 0.23408,-0.259976 0.33312,-0.504884 0.0982,-0.260844 0.0865,-0.483966 -0.0125,-0.239061 -0.11062,-0.433685 -0.0981,-0.194624 -0.24905,-0.330543 -0.47802,-0.430411 -1.03921,-0.313103 -0.56957,0.109754 -1.24743,0.592751 -0.11754,0.501577 -0.007,0.93526 0.11062,0.433685 0.49639,0.781035 z m -0.96702,-4.272224 q -0.10902,-0.09816 -0.28851,-0.168662 -0.18787,-0.07805 -0.39506,-0.06719 -0.20802,-0.0051 -0.43452,0.09469 -0.23488,0.09222 -0.44632,0.327032 -0.21898,0.243203 -0.29452,0.478888 -0.068,0.2273 -0.0488,0.442037 0.0109,0.207185 0.10812,0.385871 0.0964,0.16275 0.23061,0.283568 0.34383,0.309593 0.86472,0.338228 0.52006,0.0127 1.16771,-0.436754 0.10244,-0.484803 0.017,-0.895835 -0.0779,-0.419417 -0.48046,-0.781868 z"
       style="font-style:normal;font-variant:normal;font-weight:normal;font-stretch:normal;font-size:42.66666794px;line-height:53.33333588px;font-family:'Ubuntu Mono';-inkscape-font-specification:'Ubuntu Mono';letter-spacing:0px;word-spacing:0px;fill:#ffffff;fill-opacity:1;stroke:none;stroke-width:0.26448977"
       id="path7524"
       inkscape:connector-curvature="0" />
    <path
       d="m 328.9156,49.116168 q 1.68899,1.227122 1.9502,2.672304 0.25208,1.438549 -0.93938,3.097653 l -0.65898,-0.436927 q 0.74291,-1.022524 0.79225,-1.935199 0.0469,-0.928437 -0.80236,-1.852296 -0.0588,0.292075 -0.18722,0.603269 -0.13758,0.304559 -0.34984,0.596708 -0.35155,0.483874 -0.72729,0.713046 -0.38487,0.222538 -0.76816,0.250929 -0.39243,0.02176 -0.76917,-0.112468 -0.37674,-0.134231 -0.72367,-0.386288 -0.31041,-0.225526 -0.55698,-0.558109 -0.25571,-0.339217 -0.36791,-0.74156 -0.1122,-0.402343 -0.0469,-0.857039 0.0653,-0.454698 0.39698,-0.911181 0.67658,-0.931226 1.66058,-0.941653 0.98399,-0.01043 2.09782,0.798811 z m -0.75645,2.212293 q 0.21226,-0.292149 0.33658,-0.578449 0.13095,-0.29543 0.20298,-0.605764 -0.0847,-0.07547 -0.16683,-0.135166 -0.0822,-0.0597 -0.17346,-0.126028 -0.35606,-0.258691 -0.71539,-0.436072 -0.35271,-0.186508 -0.68294,-0.231153 -0.32361,-0.05378 -0.61975,0.06584 -0.29863,0.103853 -0.53742,0.432522 -0.19899,0.27389 -0.21297,0.542712 -0.0231,0.262192 0.0641,0.506906 0.0781,0.238082 0.24828,0.445421 0.17682,0.19821 0.36855,0.337505 0.5569,0.404617 1.02815,0.370376 0.46874,-0.05 0.8601,-0.588656 z"
       style="font-style:normal;font-variant:normal;font-weight:normal;font-stretch:normal;font-size:42.66666794px;line-height:53.33333588px;font-family:'Ubuntu Mono';-inkscape-font-specification:'Ubuntu Mono';letter-spacing:0px;word-spacing:0px;fill:#ffffff;fill-opacity:1;stroke:none;stroke-width:0.26448977"
       id="path7521"
       inkscape:connector-curvature="0" />
    <path
       d="m 310.98648,39.391348 q 0.2541,0.146703 0.34951,0.410279 0.10105,0.253802 -0.04,0.498126 -0.1467,0.2541 -0.42267,0.303259 -0.27597,0.04916 -0.53006,-0.09754 -0.2541,-0.146703 -0.35928,-0.415922 -0.10519,-0.269215 0.0415,-0.523315 0.14106,-0.244324 0.42116,-0.27807 0.28574,-0.04352 0.53983,0.103184 z m -1.37081,2.622595 q -1.52459,-0.880222 -2.0367,-1.866515 -0.51624,-1.001709 0.0311,-1.949689 0.55296,-0.957756 1.67295,-1.001759 1.1102,-0.04965 2.63479,0.830576 1.52459,0.880222 2.04648,1.872156 0.51211,0.986293 -0.0409,1.944049 -0.54732,0.947981 -1.66317,1.007399 -1.11999,0.044 -2.64457,-0.836217 z m 1.82815,-3.166454 q -0.49842,-0.287765 -0.97207,-0.483037 -0.48341,-0.200914 -0.89468,-0.255936 -0.41128,-0.05502 -0.73652,0.05691 -0.32523,0.111929 -0.51708,0.444212 -0.19184,0.332281 -0.12616,0.66991 0.0657,0.337627 0.31898,0.666292 0.25328,0.328668 0.66899,0.646858 0.40593,0.312548 0.90435,0.600313 0.49842,0.287765 0.98184,0.48868 0.47364,0.195272 0.88492,0.250292 0.41127,0.05502 0.73651,-0.05691 0.32523,-0.111932 0.51708,-0.444213 0.19184,-0.332283 0.12616,-0.66991 -0.0657,-0.33763 -0.31897,-0.666294 -0.25329,-0.328665 -0.65922,-0.641213 -0.41571,-0.318191 -0.91413,-0.605956 z"
       style="font-style:normal;font-variant:normal;font-weight:normal;font-stretch:normal;font-size:42.66666794px;line-height:53.33333588px;font-family:'Ubuntu Mono';-inkscape-font-specification:'Ubuntu Mono';letter-spacing:0px;word-spacing:0px;fill:#ffffff;fill-opacity:1;stroke:none;stroke-width:0.26448977"
       id="path7518"
       inkscape:connector-curvature="0" />
    <path
       d="m 289.61269,31.575108 q 0.0279,-0.617573 -0.0611,-1.250117 -0.0993,-0.637133 -0.39561,-1.275542 l 0.26622,-0.597939 5.65978,2.5199 0.53703,-1.206184 0.72165,0.321299 -1.52846,3.432986 -0.72165,-0.3213 0.61506,-1.38144 -4.47422,-1.992052 q 0.0526,0.159301 0.0926,0.37474 0.0342,0.200539 0.0501,0.442315 0.0205,0.231467 0.0215,0.478961 9.9e-4,0.247495 -0.0244,0.470912 z"
       style="font-style:normal;font-variant:normal;font-weight:normal;font-stretch:normal;font-size:42.66666794px;line-height:53.33333588px;font-family:'Ubuntu Mono';-inkscape-font-specification:'Ubuntu Mono';letter-spacing:0px;word-spacing:0px;fill:#ffffff;fill-opacity:1;stroke:none;stroke-width:0.26448977"
       id="path7515"
       inkscape:connector-curvature="0" />
    <path
       d="m 271.88606,20.815963 q 0.34345,0.111591 0.62009,0.355732 0.28013,0.233408 0.51814,0.559921 0.2415,0.315781 0.45135,0.692471 0.20984,0.376689 0.40547,0.760623 0.10868,0.213297 0.26432,0.50118 0.15563,0.287884 0.32898,0.55779 0.17335,0.269905 0.35688,0.471927 0.18354,0.202023 0.34453,0.254331 l 0.99386,-3.058783 0.75128,0.244106 -1.30771,4.024715 q -0.0571,-0.0067 -0.11082,-0.02413 -0.0644,-0.02092 -0.11805,-0.03836 -0.45077,-0.146463 -0.78832,-0.422258 -0.33755,-0.275796 -0.60428,-0.623504 -0.26672,-0.347709 -0.47308,-0.735131 -0.2136,-0.40164 -0.40923,-0.785575 -0.15939,-0.312836 -0.31503,-0.600718 -0.15215,-0.298616 -0.32523,-0.532836 -0.16959,-0.244954 -0.37432,-0.418266 -0.21198,-0.187533 -0.46956,-0.271226 -0.28978,-0.09416 -0.52508,-0.06382 -0.23182,0.0196 -0.41292,0.138747 -0.18834,0.104922 -0.319,0.287918 -0.13065,0.182994 -0.20737,0.419112 -0.0907,0.279046 -0.0923,0.539573 0.002,0.249795 0.0499,0.467121 0.0515,0.206593 0.11701,0.370257 0.0547,0.160176 0.0982,0.245495 l -0.76547,0.237775 q -0.0687,-0.117245 -0.15242,-0.3343 -0.0837,-0.217054 -0.12506,-0.491531 -0.0486,-0.288695 -0.0368,-0.617106 0.0118,-0.32841 0.12337,-0.671852 0.33827,-1.041061 0.98164,-1.377832 0.63614,-0.350995 1.52694,-0.06156 z"
       style="font-style:normal;font-variant:normal;font-weight:normal;font-stretch:normal;font-size:42.66666794px;line-height:53.33333588px;font-family:'Ubuntu Mono';-inkscape-font-specification:'Ubuntu Mono';letter-spacing:0px;word-spacing:0px;fill:#ffffff;fill-opacity:1;stroke:none;stroke-width:0.26448977"
       id="path7512"
       inkscape:connector-curvature="0" />
    <path
       d="m 255.54518,18.803637 q 0.18536,-0.872027 -0.0794,-1.309025 -0.27345,-0.45038 -0.85848,-0.574732 -0.37531,-0.07977 -0.66203,0.0208 -0.28673,0.10057 -0.49523,0.321605 -0.2085,0.221033 -0.34512,0.538104 -0.13662,0.317071 -0.21404,0.681335 l -0.0493,0.231804 -0.73956,-0.157199 0.068,-0.32011 q 0.0516,-0.242843 0.0614,-0.506109 10e-4,-0.27665 -0.0757,-0.512187 -0.0855,-0.24892 -0.27815,-0.428305 -0.19261,-0.179385 -0.5348,-0.252119 -0.56295,-0.119659 -0.86984,0.184294 -0.31557,0.29057 -0.41412,0.754179 -0.10088,0.474645 -0.0278,0.836294 0.0621,0.359304 0.15865,0.610574 l -0.77049,0.20541 q -0.11631,-0.266998 -0.19438,-0.768147 -0.0868,-0.514534 0.0352,-1.088524 0.11496,-0.540877 0.32954,-0.899061 0.21458,-0.358187 0.50904,-0.54941 0.29681,-0.202265 0.65377,-0.253298 0.34592,-0.05338 0.73226,0.02874 0.54087,0.114967 0.85517,0.481734 0.31665,0.355732 0.42149,0.839494 0.26715,-0.49699 0.80184,-0.787133 0.52365,-0.292489 1.26322,-0.135289 0.44153,0.09385 0.79502,0.330505 0.3448,0.223271 0.55507,0.590998 0.2126,0.356691 0.2639,0.875225 0.0537,0.507493 -0.0871,1.169791 -0.054,0.253882 -0.15678,0.520453 -0.0894,0.25788 -0.20492,0.475607 -0.10447,0.220073 -0.19955,0.395994 -0.10377,0.162533 -0.1533,0.232763 l -0.74618,-0.343198 q 0.12584,-0.157841 0.32939,-0.518374 0.20353,-0.36053 0.32319,-0.923483 z"
       style="font-style:normal;font-variant:normal;font-weight:normal;font-stretch:normal;font-size:42.66666794px;line-height:53.33333588px;font-family:'Ubuntu Mono';-inkscape-font-specification:'Ubuntu Mono';letter-spacing:0px;word-spacing:0px;fill:#ffffff;fill-opacity:1;stroke:none;stroke-width:0.26448977"
       id="path7509"
       inkscape:connector-curvature="0" />
    <path
       d="m 233.20917,17.067214 q -0.42886,-0.237975 -0.97826,-0.624782 -0.54821,-0.398031 -1.12183,-0.878163 -0.58485,-0.481312 -1.13013,-1.0152 -0.5565,-0.535067 -0.98837,-1.06838 l 0.0944,-0.897848 4.41067,0.46358 0.0861,-0.819283 0.76317,0.08021 -0.0861,0.819283 1.77325,0.186376 -0.0944,0.897848 -1.77324,-0.186376 -0.32675,3.108791 z m -3.11873,-3.470925 q 0.29362,0.337231 0.6534,0.692761 0.36096,0.344309 0.76799,0.682115 0.3958,0.336624 0.8176,0.641937 0.42297,0.294092 0.83943,0.542112 l 0.23238,-2.210945 z"
       style="font-style:normal;font-variant:normal;font-weight:normal;font-stretch:normal;font-size:42.66666794px;line-height:53.33333588px;font-family:'Ubuntu Mono';-inkscape-font-specification:'Ubuntu Mono';letter-spacing:0px;word-spacing:0px;fill:#ffffff;fill-opacity:1;stroke:none;stroke-width:0.26448977"
       id="path7506"
       inkscape:connector-curvature="0" />
    <path
       d="m 210.87669,14.188714 q 0.0564,-1.512175 0.66581,-2.200555 0.60938,-0.688377 1.63631,-0.688377 0.46268,0 0.85765,0.146702 0.39497,0.146704 0.67709,0.462682 0.28213,0.304693 0.44011,0.789942 0.15799,0.473965 0.15799,1.12849 0,0.270838 -0.0451,0.541675 -0.0339,0.259552 -0.0903,0.496535 -0.0564,0.236983 -0.11285,0.417542 -0.0677,0.180559 -0.11285,0.259552 l -0.80123,-0.180557 q 0.0903,-0.180559 0.21441,-0.552961 0.12414,-0.383687 0.12414,-0.959217 0,-0.451394 -0.10157,-0.756086 -0.10156,-0.304693 -0.27084,-0.485252 -0.18055,-0.191842 -0.40625,-0.270837 -0.2257,-0.09028 -0.47397,-0.09028 -0.38368,0 -0.67709,0.135419 -0.30469,0.124133 -0.50782,0.451394 -0.20313,0.315978 -0.30469,0.880222 -0.11285,0.552961 -0.11285,1.399328 -0.49654,-0.06771 -0.92536,-0.101564 -0.44011,-0.04514 -0.84637,-0.06771 -0.41754,-0.03386 -0.8238,-0.04514 -0.40626,-0.02256 -0.85765,-0.04514 V 11.49162 h 0.78994 v 2.550388 q 0.15799,0.01129 0.41754,0.03386 0.24827,0.01129 0.53039,0.03385 0.28213,0.02256 0.54168,0.04514 0.25955,0.02256 0.41754,0.03385 z"
       style="font-style:normal;font-variant:normal;font-weight:normal;font-stretch:normal;font-size:42.66666794px;line-height:53.33333588px;font-family:'Ubuntu Mono';-inkscape-font-specification:'Ubuntu Mono';letter-spacing:0px;word-spacing:0px;fill:#ffffff;fill-opacity:1;stroke:none;stroke-width:0.26448977"
       id="path7503"
       inkscape:connector-curvature="0" />
    <path
       d="m 191.8761,16.678832 q -1.01008,0.106163 -1.81278,-0.0818 -0.81511,-0.198004 -1.39567,-0.647602 -0.58175,-0.460821 -0.939,-1.160831 -0.35725,-0.700011 -0.4652,-1.619122 l 0.77736,-0.161134 q 0.0738,0.593641 0.2491,1.074484 0.16295,0.470795 0.47241,0.82407 0.29824,0.354455 0.74062,0.56894 0.44238,0.214485 1.06259,0.285464 -0.15177,-0.256379 -0.26336,-0.562366 -0.11277,-0.317214 -0.15051,-0.676352 -0.0613,-0.5836 0.0758,-1.006504 0.13593,-0.434126 0.413,-0.712884 0.26585,-0.277578 0.64686,-0.431093 0.38101,-0.153517 0.79626,-0.197162 0.38159,-0.04011 0.79859,0.04088 0.40579,0.08217 0.76961,0.304912 0.3526,0.223921 0.60831,0.60554 0.24448,0.382798 0.30346,0.943953 0.12149,1.155976 -0.59274,1.809744 -0.71423,0.653769 -2.09467,0.798859 z m -0.95066,-2.135451 q 0.0377,0.359137 0.13694,0.655083 0.098,0.284724 0.26453,0.573592 0.11341,-5.64e-4 0.22564,-0.01236 0.10101,-0.01062 0.22446,-0.02359 0.4377,-0.046 0.82461,-0.143404 0.37451,-0.107445 0.6622,-0.285195 0.27528,-0.187791 0.42772,-0.464795 0.14122,-0.275826 0.0987,-0.679857 -0.0354,-0.336692 -0.19365,-0.546998 -0.1695,-0.209126 -0.39807,-0.332614 -0.22857,-0.123489 -0.4926,-0.152473 -0.27643,-0.03903 -0.51212,-0.01426 -0.6846,0.07195 -1.01071,0.423949 -0.32729,0.34077 -0.2577,1.00293 z"
       style="font-style:normal;font-variant:normal;font-weight:normal;font-stretch:normal;font-size:42.66666794px;line-height:53.33333588px;font-family:'Ubuntu Mono';-inkscape-font-specification:'Ubuntu Mono';letter-spacing:0px;word-spacing:0px;fill:#ffffff;fill-opacity:1;stroke:none;stroke-width:0.26448977"
       id="path7500"
       inkscape:connector-curvature="0" />
    <path
       d="m 174.10326,18.118937 q -0.79545,0.111393 -1.7144,0.07598 -0.93234,-0.0441 -1.81722,-0.19059 -0.89591,-0.14414 -1.67344,-0.382667 -0.78857,-0.236179 -1.32091,-0.515285 l 0.70387,3.311488 -0.79475,0.168931 -0.91974,-4.32701 0.76164,-0.161892 q 0.45673,0.249029 1.19011,0.496939 0.73338,0.247913 1.6253,0.427514 0.87852,0.170911 1.8597,0.227705 0.97015,0.05914 1.9004,-0.06937 z"
       style="font-style:normal;font-variant:normal;font-weight:normal;font-stretch:normal;font-size:42.66666794px;line-height:53.33333588px;font-family:'Ubuntu Mono';-inkscape-font-specification:'Ubuntu Mono';letter-spacing:0px;word-spacing:0px;fill:#ffffff;fill-opacity:1;stroke:none;stroke-width:0.26448977"
       id="path7497"
       inkscape:connector-curvature="0" />
    <path
       d="m 151.3246,20.511724 q 0.83714,-0.272003 1.52667,0.09724 0.68604,0.35851 1.03824,1.442499 0.20226,0.62249 0.17379,1.082635 -0.0392,0.463636 -0.21658,0.794178 -0.1916,0.323298 -0.4787,0.535239 -0.2906,0.20121 -0.60184,0.302339 -0.56883,0.184822 -1.10999,0.01656 -0.54117,-0.168267 -0.94897,-0.51039 -0.21875,1.079656 -1.28127,1.424891 -0.36491,0.118565 -0.74296,0.08714 -0.37804,-0.03142 -0.70858,-0.208796 -0.33054,-0.177375 -0.59937,-0.49346 -0.27231,-0.32682 -0.42226,-0.788319 -0.17436,-0.536631 -0.13542,-0.964578 0.0354,-0.438682 0.21631,-0.758492 0.17013,-0.316321 0.4465,-0.524778 0.26564,-0.204968 0.55542,-0.299123 0.56883,-0.184824 1.08155,-0.03105 0.502,0.157265 0.8709,0.452701 0.16671,-1.27633 1.33656,-1.656438 z m 1.17334,3.392035 q 0.17171,-0.05579 0.34398,-0.18296 0.16153,-0.123679 0.2737,-0.326243 0.11216,-0.202566 0.13928,-0.484286 0.0164,-0.278233 -0.0987,-0.632408 -0.1081,-0.332711 -0.27068,-0.540931 -0.1768,-0.215463 -0.37588,-0.316897 -0.21329,-0.108681 -0.43089,-0.121039 -0.2176,-0.01236 -0.41078,0.05041 -0.61176,0.198772 -0.79076,0.743426 -0.18974,0.548139 -0.11038,1.37668 0.37561,0.352584 0.8065,0.473621 0.4309,0.121039 0.9246,-0.03937 z m -4.18337,-1.298645 q -0.13952,0.04533 -0.29032,0.165525 -0.16153,0.123678 -0.25572,0.308534 -0.10841,0.177612 -0.13526,0.42365 -0.0376,0.249523 0.0601,0.550036 0.10113,0.311244 0.26747,0.494509 0.16285,0.172535 0.35844,0.263239 0.18486,0.09419 0.38823,0.0993 0.18916,-0.0021 0.36088,-0.05793 0.44004,-0.142976 0.72528,-0.579762 0.27102,-0.44403 0.20561,-1.22964 -0.36863,-0.331118 -0.76732,-0.462619 -0.40219,-0.142231 -0.91735,0.02516 z"
       style="font-style:normal;font-variant:normal;font-weight:normal;font-stretch:normal;font-size:42.66666794px;line-height:53.33333588px;font-family:'Ubuntu Mono';-inkscape-font-specification:'Ubuntu Mono';letter-spacing:0px;word-spacing:0px;fill:#ffffff;fill-opacity:1;stroke:none;stroke-width:0.26448974"
       id="path7494"
       inkscape:connector-curvature="0" />
    <path
       d="m 129.51827,28.850854 q 1.90721,-0.849146 3.28938,-0.352771 1.37186,0.500966 2.21295,2.362354 l -0.70787,0.352226 q -0.51408,-1.154638 -1.27981,-1.653708 -0.78063,-0.50479 -2.00531,-0.231287 0.22356,0.196933 0.42883,0.463773 0.19497,0.271428 0.34185,0.601323 0.24327,0.546393 0.25387,0.986376 2.9e-4,0.444574 -0.16677,0.790715 -0.17737,0.350734 -0.48199,0.609888 -0.30462,0.25915 -0.69637,0.433569 -0.35051,0.15606 -0.76183,0.203308 -0.42162,0.05184 -0.82616,-0.05217 -0.40454,-0.104002 -0.76565,-0.387926 -0.36112,-0.283924 -0.59062,-0.799386 -0.46817,-1.051545 0.0148,-1.908927 0.48296,-0.857381 1.7407,-1.417359 z m 1.53768,1.761246 q -0.14688,-0.329895 -0.33267,-0.580706 -0.19037,-0.26112 -0.42311,-0.478671 -0.10769,0.03558 -0.20047,0.07689 -0.0928,0.04131 -0.19588,0.08721 -0.40206,0.179009 -0.73535,0.401515 -0.33787,0.212197 -0.54165,0.475865 -0.20837,0.253361 -0.25285,0.569633 -0.0594,0.310552 0.10586,0.681685 0.1377,0.309278 0.36352,0.455794 0.21551,0.151107 0.47105,0.197916 0.24524,0.0514 0.50989,0.0077 0.26007,-0.05402 0.47656,-0.150415 0.62887,-0.279988 0.83483,-0.705218 0.19107,-0.430947 -0.0797,-1.039195 z"
       style="font-style:normal;font-variant:normal;font-weight:normal;font-stretch:normal;font-size:42.66666794px;line-height:53.33333588px;font-family:'Ubuntu Mono';-inkscape-font-specification:'Ubuntu Mono';letter-spacing:0px;word-spacing:0px;fill:#ffffff;fill-opacity:1;stroke:none;stroke-width:0.26448974"
       id="path7491"
       inkscape:connector-curvature="0" />
    <path
       d="m 112.13177,39.515509 q 0.2541,-0.146703 0.53007,-0.09754 0.27032,0.03939 0.41138,0.283712 0.14671,0.254099 0.0513,0.517673 -0.0954,0.263576 -0.34951,0.410279 -0.2541,0.146703 -0.53984,0.103184 -0.28574,-0.04352 -0.43244,-0.297618 -0.14106,-0.244323 -0.0302,-0.503767 0.10518,-0.269219 0.35928,-0.415922 z m 1.58583,2.498462 q -1.52459,0.880222 -2.6348,0.830574 -1.12563,-0.05378 -1.67294,-1.001757 -0.55297,-0.957756 -0.0311,-1.94969 0.51211,-0.986292 2.0367,-1.866513 1.52459,-0.880222 2.64457,-0.83622 1.11021,0.04964 1.66317,1.007401 0.54732,0.94798 0.0409,1.944047 -0.52189,0.991936 -2.04647,1.872158 z m -1.82816,-3.166454 q -0.49842,0.287765 -0.90435,0.600313 -0.4157,0.31819 -0.66899,0.646855 -0.25329,0.328665 -0.31897,0.666294 -0.0657,0.337627 0.12616,0.66991 0.19184,0.332281 0.51707,0.444213 0.32524,0.11193 0.73652,0.05691 0.41128,-0.05502 0.89469,-0.255934 0.47364,-0.195272 0.97206,-0.483037 0.49842,-0.287765 0.91413,-0.605956 0.40593,-0.312548 0.65922,-0.641216 0.25328,-0.328664 0.31897,-0.666292 0.0657,-0.337629 -0.12616,-0.66991 -0.19185,-0.332283 -0.51708,-0.444213 -0.32524,-0.11193 -0.73651,-0.05691 -0.41128,0.05502 -0.88492,0.250294 -0.48341,0.200915 -0.98184,0.488679 z"
       style="font-style:normal;font-variant:normal;font-weight:normal;font-stretch:normal;font-size:42.66666794px;line-height:53.33333588px;font-family:'Ubuntu Mono';-inkscape-font-specification:'Ubuntu Mono';letter-spacing:0px;word-spacing:0px;fill:#ffffff;fill-opacity:1;stroke:none;stroke-width:0.26448977"
       id="path7488"
       inkscape:connector-curvature="0" />
    <path
       d="m 94.675811,54.117632 q -0.520883,-0.332951 -1.113162,-0.572182 -0.601407,-0.2326 -1.30246,-0.295159 l -0.38472,-0.529522 5.012191,-3.641569 -0.776072,-1.068172 0.639077,-0.464317 2.208821,3.040181 -0.639077,0.464317 -0.888835,-1.223376 -3.962277,2.878764 q 0.164261,0.03409 0.370817,0.107206 0.190793,0.07061 0.408118,0.177748 0.210693,0.098 0.425522,0.220897 0.214828,0.122895 0.395636,0.256561 z"
       style="font-style:normal;font-variant:normal;font-weight:normal;font-stretch:normal;font-size:42.66666794px;line-height:53.33333588px;font-family:'Ubuntu Mono';-inkscape-font-specification:'Ubuntu Mono';letter-spacing:0px;word-spacing:0px;fill:#ffffff;fill-opacity:1;stroke:none;stroke-width:0.26448977"
       id="path7485"
       inkscape:connector-curvature="0" />
    <path
       d="m 76.494811,64.089773 q 0.268361,-0.241634 0.618115,-0.359143 0.342202,-0.125897 0.743977,-0.168765 0.394225,-0.05126 0.82537,-0.04464 0.431144,0.0066 0.861454,0.02916 0.23906,0.01253 0.566194,0.02168 0.327135,0.0092 0.647554,-0.006 0.320416,-0.01517 0.587142,-0.0731 0.266725,-0.05794 0.39252,-0.171203 l -2.152055,-2.390099 0.587042,-0.528576 2.831652,3.144868 q -0.03437,0.04615 -0.07631,0.0839 -0.05032,0.04531 -0.09225,0.08306 -0.352225,0.317145 -0.759847,0.471576 -0.407621,0.15443 -0.842107,0.211564 -0.434487,0.05714 -0.873182,0.04214 -0.454633,-0.01583 -0.884942,-0.03839 -0.350622,-0.01838 -0.677755,-0.02753 -0.334685,-0.01754 -0.624064,0.01524 -0.29693,0.02439 -0.549389,0.115039 -0.268396,0.08981 -0.469667,0.271035 -0.226431,0.203879 -0.317812,0.422827 -0.09893,0.210563 -0.0863,0.42697 -0.0033,0.215571 0.08985,0.420218 0.09315,0.204645 0.259276,0.389144 0.196327,0.218044 0.421154,0.349687 0.217277,0.123254 0.429509,0.19031 0.204679,0.05867 0.379156,0.0838 0.166089,0.03268 0.261714,0.03769 l -0.176814,0.781801 q -0.135884,8.7e-4 -0.365723,-0.03515 -0.229839,-0.03602 -0.488211,-0.137454 -0.27431,-0.102272 -0.552833,-0.276679 -0.27852,-0.17441 -0.520154,-0.442771 -0.732454,-0.813473 -0.702418,-1.53904 0.0141,-0.726405 0.710161,-1.353145 z"
       style="font-style:normal;font-variant:normal;font-weight:normal;font-stretch:normal;font-size:42.66666794px;line-height:53.33333588px;font-family:'Ubuntu Mono';-inkscape-font-specification:'Ubuntu Mono';letter-spacing:0px;word-spacing:0px;fill:#ffffff;fill-opacity:1;stroke:none;stroke-width:0.26448977"
       id="path7482"
       inkscape:connector-curvature="0" />
    <path
       d="m 66.581648,77.235222 q -0.66252,-0.596535 -1.173352,-0.585744 -0.526767,0.01163 -0.926973,0.4561 -0.256737,0.285135 -0.313003,0.583734 -0.05627,0.298601 0.0309,0.589685 0.08717,0.291081 0.293453,0.567931 0.206283,0.27685 0.483032,0.526035 l 0.176112,0.158573 -0.505922,0.561884 -0.243203,-0.218981 q -0.184499,-0.166124 -0.407588,-0.306252 -0.239027,-0.139295 -0.481428,-0.190517 -0.258339,-0.05038 -0.509997,0.02673 -0.251657,0.07711 -0.485741,0.337089 -0.385104,0.427702 -0.275315,0.845448 0.09385,0.418581 0.446079,0.735726 0.36061,0.324695 0.710362,0.442206 0.342202,0.125897 0.608094,0.167896 l -0.207356,0.769972 q -0.289378,-0.03278 -0.762421,-0.215741 -0.48898,-0.18213 -0.925067,-0.574785 -0.41093,-0.370003 -0.613837,-0.734925 -0.202909,-0.364925 -0.221283,-0.715546 -0.02676,-0.358174 0.107519,-0.692824 0.126734,-0.326266 0.39102,-0.619786 0.370003,-0.41093 0.844782,-0.499736 0.466396,-0.09636 0.937766,0.05473 -0.296829,-0.479859 -0.280754,-1.087986 0.0085,-0.599738 0.514444,-1.161622 0.302043,-0.335453 0.683738,-0.523259 0.365759,-0.186971 0.78935,-0.185198 0.415208,-0.0058 0.889921,0.209061 0.466327,0.207285 0.969506,0.660349 0.192886,0.173676 0.372338,0.395997 0.178618,0.206385 0.309424,0.415275 0.138358,0.200503 0.24317,0.370806 0.08887,0.171133 0.124925,0.24915 l -0.670307,0.47461 q -0.07377,-0.187906 -0.284231,-0.544445 -0.210459,-0.356536 -0.638161,-0.74164 z"
       style="font-style:normal;font-variant:normal;font-weight:normal;font-stretch:normal;font-size:42.66666794px;line-height:53.33333588px;font-family:'Ubuntu Mono';-inkscape-font-specification:'Ubuntu Mono';letter-spacing:0px;word-spacing:0px;fill:#ffffff;fill-opacity:1;stroke:none;stroke-width:0.26448977"
       id="path7479"
       inkscape:connector-curvature="0" />
    <path
       d="m 53.909852,95.710557 q -0.420527,0.252423 -1.030208,0.534808 -0.618812,0.27575 -1.321429,0.532456 -0.709253,0.265838 -1.444253,0.47112 -0.741634,0.214412 -1.419432,0.321767 l -0.730375,-0.530649 2.606806,-3.587961 -0.666464,-0.484215 0.451051,-0.620819 0.666465,0.484214 1.048029,-1.442487 0.730375,0.530648 -1.048029,1.442488 2.528918,1.837367 z m -4.565277,0.965442 q 0.43886,-0.08567 0.926647,-0.219479 0.478661,-0.140446 0.974724,-0.324042 0.489428,-0.174467 0.964734,-0.387094 0.466177,-0.219257 0.889202,-0.455918 l -1.798545,-1.30672 z"
       style="font-style:normal;font-variant:normal;font-weight:normal;font-stretch:normal;font-size:42.66666794px;line-height:53.33333588px;font-family:'Ubuntu Mono';-inkscape-font-specification:'Ubuntu Mono';letter-spacing:0px;word-spacing:0px;fill:#ffffff;fill-opacity:1;stroke:none;stroke-width:0.26448977"
       id="path7476"
       inkscape:connector-curvature="0" />
    <path
       d="m 40.250743,113.6118 q -1.28137,-0.80495 -1.572832,-1.67689 -0.29146,-0.87193 0.222004,-1.76127 0.231339,-0.40069 0.555872,-0.6694 0.324537,-0.2687 0.739242,-0.35504 0.404933,-0.092 0.904164,0.0138 0.489462,0.10016 1.056297,0.42742 0.234552,0.13542 0.446534,0.30993 0.207851,0.15909 0.384873,0.32645 0.17702,0.16736 0.305177,0.3065 0.122514,0.14892 0.168353,0.22751 l -0.55698,0.6036 q -0.111229,-0.16846 -0.371671,-0.46217 -0.270216,-0.29934 -0.76864,-0.58711 -0.390919,-0.22569 -0.705572,-0.29008 -0.314653,-0.0644 -0.555659,-0.008 -0.25642,0.0605 -0.43768,0.21641 -0.191032,0.15032 -0.315166,0.36533 -0.191844,0.33228 -0.221271,0.65409 -0.04484,0.32594 0.137009,0.66548 0.172081,0.33391 0.609948,0.70398 0.422453,0.37422 1.155429,0.7974 -0.306905,0.39616 -0.550637,0.7506 -0.259148,0.35858 -0.481822,0.69912 -0.23809,0.34468 -0.450992,0.69086 -0.222666,0.34055 -0.467917,0.72018 l -2.912357,-1.68145 0.394972,-0.68411 2.208701,1.2752 q 0.08877,-0.13118 0.23809,-0.34468 0.133913,-0.20936 0.294513,-0.4424 0.1606,-0.23305 0.309928,-0.44654 0.149315,-0.21349 0.23809,-0.34467 z"
       style="font-style:normal;font-variant:normal;font-weight:normal;font-stretch:normal;font-size:42.66666794px;line-height:53.33333588px;font-family:'Ubuntu Mono';-inkscape-font-specification:'Ubuntu Mono';letter-spacing:0px;word-spacing:0px;fill:#ffffff;fill-opacity:1;stroke:none;stroke-width:0.26448977"
       id="path7473"
       inkscape:connector-curvature="0" />
    <path
       d="m 32.906961,131.31186 q -0.413098,0.92783 -0.977229,1.52901 -0.579029,0.6069 -1.258675,0.88489 -0.689957,0.27339 -1.474807,0.23278 -0.784854,-0.0406 -1.634802,-0.40669 l 0.249133,-0.75378 q 0.550984,0.23295 1.05508,0.32152 0.489197,0.0943 0.949872,0.003 0.456085,-0.0811 0.863027,-0.35693 0.406941,-0.27587 0.778511,-0.77749 -0.297912,0.003 -0.6187,-0.0531 -0.331099,-0.0609 -0.660995,-0.20783 -0.536083,-0.23868 -0.833777,-0.56886 -0.308001,-0.33478 -0.410877,-0.71411 -0.107465,-0.36902 -0.04991,-0.77574 0.05756,-0.40673 0.227385,-0.78817 0.156059,-0.35052 0.434699,-0.67116 0.274054,-0.31033 0.648865,-0.51404 0.370222,-0.1934 0.828565,-0.22404 0.453753,-0.0203 0.969218,0.20917 1.061853,0.47277 1.270917,1.4182 0.209064,0.94543 -0.355504,2.21347 z m -2.324683,-0.24444 q 0.329895,0.14688 0.635785,0.20896 0.295583,0.0575 0.629013,0.0577 0.05622,-0.0985 0.102116,-0.20159 0.04131,-0.0928 0.0918,-0.20619 0.179009,-0.40206 0.288112,-0.78583 0.0942,-0.37806 0.08411,-0.71608 -0.02499,-0.3323 -0.188662,-0.60282 -0.168265,-0.26021 -0.539399,-0.42544 -0.309278,-0.1377 -0.570542,-0.10579 -0.265855,0.0422 -0.487086,0.17843 -0.22123,0.1362 -0.378346,0.35037 -0.172015,0.21988 -0.268405,0.43637 -0.279988,0.62887 -0.138208,1.08728 0.131471,0.45383 0.739717,0.72464 z"
       style="font-style:normal;font-variant:normal;font-weight:normal;font-stretch:normal;font-size:42.66666794px;line-height:53.33333588px;font-family:'Ubuntu Mono';-inkscape-font-specification:'Ubuntu Mono';letter-spacing:0px;word-spacing:0px;fill:#ffffff;fill-opacity:1;stroke:none;stroke-width:0.26448977"
       id="path7470"
       inkscape:connector-curvature="0" />
    <path
       d="m 25.26771,147.42364 q -0.301255,0.74458 -0.791399,1.52271 -0.504362,0.78537 -1.073661,1.47845 -0.572786,0.70382 -1.168123,1.25792 -0.598821,0.56483 -1.106706,0.8863 l 3.219773,1.04617 -0.251081,0.77274 -4.207168,-1.36699 0.240619,-0.74055 q 0.44403,-0.27102 1.025415,-0.78219 0.581388,-0.51117 1.182885,-1.19379 0.587277,-0.67537 1.127053,-1.4967 0.536288,-0.8106 0.890123,-1.68048 z"
       style="font-style:normal;font-variant:normal;font-weight:normal;font-stretch:normal;font-size:42.66666794px;line-height:53.33333588px;font-family:'Ubuntu Mono';-inkscape-font-specification:'Ubuntu Mono';letter-spacing:0px;word-spacing:0px;fill:#ffffff;fill-opacity:1;stroke:none;stroke-width:0.26448977"
       id="path7467"
       inkscape:connector-curvature="0" />
    <path
       d="m 15.950592,168.34693 q 0.183008,-0.86099 0.847543,-1.27351 0.653497,-0.41488 1.768364,-0.1779 0.640222,0.13608 1.024483,0.39081 0.381916,0.26577 0.579486,0.58466 0.184186,0.32757 0.22418,0.68218 0.02896,0.35227 -0.03909,0.67238 -0.124351,0.58503 -0.540658,0.96956 -0.416306,0.38453 -0.916496,0.56663 0.825636,0.72927 0.593356,1.82206 -0.07977,0.37531 -0.296006,0.68699 -0.216233,0.31169 -0.535116,0.50926 -0.318882,0.19757 -0.727031,0.27233 -0.419189,0.0724 -0.893834,-0.0285 -0.551917,-0.11731 -0.903062,-0.36501 -0.362185,-0.25004 -0.548718,-0.56657 -0.188877,-0.3055 -0.231219,-0.64908 -0.04469,-0.33253 0.01866,-0.63056 0.124353,-0.58504 0.513891,-0.95218 0.387191,-0.3561 0.827497,-0.52787 -1.021978,-0.78254 -0.766235,-1.98571 z m 3.524255,0.67988 q 0.03754,-0.17661 0.01354,-0.38938 -0.02634,-0.20173 -0.145685,-0.40015 -0.119343,-0.19842 -0.349761,-0.36277 -0.232764,-0.15331 -0.597027,-0.23073 -0.342188,-0.0727 -0.603802,-0.036 -0.274996,0.0454 -0.462379,0.16707 -0.200768,0.13038 -0.32027,0.31264 -0.119501,0.18227 -0.161734,0.38096 -0.133737,0.62918 0.248447,1.05653 0.379835,0.43838 1.137052,0.78393 0.49315,-0.149 0.813418,-0.46164 0.32027,-0.31265 0.428198,-0.82041 z m -3.216342,2.97358 q -0.0305,0.14349 -0.0018,0.33418 0.02634,0.20173 0.139338,0.37573 0.09961,0.18269 0.299263,0.32896 0.197303,0.15731 0.506376,0.22301 0.320109,0.068 0.561991,0.0156 0.230845,-0.0548 0.407191,-0.1788 0.173997,-0.113 0.280114,-0.28657 0.09273,-0.16488 0.130273,-0.3415 0.0962,-0.45257 -0.13945,-0.91799 -0.24903,-0.45672 -0.962093,-0.79288 -0.471072,0.15368 -0.784303,0.43321 -0.324268,0.27719 -0.436888,0.80703 z"
       style="font-style:normal;font-variant:normal;font-weight:normal;font-stretch:normal;font-size:42.66666794px;line-height:53.33333588px;font-family:'Ubuntu Mono';-inkscape-font-specification:'Ubuntu Mono';letter-spacing:0px;word-spacing:0px;fill:#ffffff;fill-opacity:1;stroke:none;stroke-width:0.26448977"
       id="path7464"
       inkscape:connector-curvature="0" />
    <path
       d="m 12.269337,191.40134 q 0.218225,-2.07627 1.339183,-3.02507 1.119779,-0.93759 3.152336,-0.7353 l -0.0489,0.78915 q -1.256985,-0.13211 -2.072056,0.28149 -0.827474,0.42365 -1.202957,1.62101 0.282329,-0.0951 0.616057,-0.1395 0.332546,-0.0331 0.691683,0.005 0.594825,0.0625 0.981162,0.27333 0.385157,0.22204 0.601394,0.53979 0.21506,0.32897 0.287185,0.72235 0.07212,0.39338 0.0273,0.81986 -0.04011,0.38159 -0.204844,0.76142 -0.165919,0.39105 -0.458259,0.68939 -0.292339,0.29834 -0.718781,0.46911 -0.426443,0.17078 -0.987596,0.1118 -1.144754,-0.12032 -1.645784,-0.96728 -0.501029,-0.84695 -0.357119,-2.21617 z m 2.294124,-0.45104 q -0.359137,-0.0377 -0.669238,-0.002 -0.321324,0.0343 -0.626099,0.12709 -0.02303,0.11105 -0.03364,0.21206 -0.01062,0.10101 -0.02241,0.21324 -0.046,0.4377 -0.01995,0.83758 0.01483,0.39871 0.141285,0.70702 0.115231,0.30714 0.366891,0.5038 0.239256,0.20669 0.643287,0.24916 0.336693,0.0354 0.576488,-0.0869 0.238618,-0.11108 0.406929,-0.30899 0.167133,-0.18668 0.261602,-0.43773 0.08325,-0.25224 0.108017,-0.48792 0.07196,-0.68461 -0.193321,-1.0756 -0.277677,-0.38094 -0.939841,-0.45053 z"
       style="font-style:normal;font-variant:normal;font-weight:normal;font-stretch:normal;font-size:42.66666794px;line-height:53.33333588px;font-family:'Ubuntu Mono';-inkscape-font-specification:'Ubuntu Mono';letter-spacing:0px;word-spacing:0px;fill:#ffffff;fill-opacity:1;stroke:none;stroke-width:0.26448977"
       id="path7461"
       inkscape:connector-curvature="0" />
    <path
       d="m 12.811949,211.7908 q 0,-0.2934 0.180559,-0.50782 0.169274,-0.21441 0.451394,-0.21441 0.29341,0 0.473966,0.21441 0.180559,0.21442 0.180559,0.50782 0,0.29341 -0.180559,0.51911 -0.180556,0.2257 -0.473965,0.2257 -0.282121,0 -0.451395,-0.2257 -0.180559,-0.2257 -0.180559,-0.51911 z m 2.956644,-0.12413 q 0,1.76044 -0.598101,2.69709 -0.609385,0.94793 -1.704018,0.94793 -1.105921,0 -1.70402,-0.94793 -0.598099,-0.93665 -0.598099,-2.69709 0,-1.76044 0.598099,-2.70837 0.598098,-0.93665 1.70402,-0.93665 1.094633,0 1.704017,0.93665 0.598102,0.94793 0.598102,2.70837 z m -3.656307,0 q 1e-6,0.57553 0.06771,1.08335 0.06771,0.5191 0.225697,0.90279 0.157988,0.38369 0.417542,0.60939 0.259552,0.22569 0.643239,0.22569 0.383685,0 0.643239,-0.22569 0.259552,-0.2257 0.41754,-0.60939 0.15799,-0.38369 0.225699,-0.90279 0.06771,-0.50782 0.06771,-1.08335 0,-0.57553 -0.06771,-1.09464 -0.06771,-0.50782 -0.2257,-0.8915 -0.157987,-0.38369 -0.417539,-0.60939 -0.259554,-0.22569 -0.643239,-0.22569 -0.383687,0 -0.643239,0.22569 -0.259555,0.2257 -0.417542,0.60939 -0.157988,0.38368 -0.225697,0.89151 -0.06771,0.5191 -0.06771,1.09463 z"
       style="font-style:normal;font-variant:normal;font-weight:normal;font-stretch:normal;font-size:42.66666794px;line-height:53.33333588px;font-family:'Ubuntu Mono';-inkscape-font-specification:'Ubuntu Mono';letter-spacing:0px;word-spacing:0px;fill:#ffffff;fill-opacity:1;stroke:none;stroke-width:0.26448977"
       id="path7458"
       inkscape:connector-curvature="0" />
    <path
       d="m 16.729782,234.20918 q -0.548785,0.28462 -1.052105,0.67793 -0.50214,0.40454 -0.906844,0.98039 l -0.65094,0.0684 -0.647596,-6.16147 -1.3131,0.13802 -0.08257,-0.78562 3.737284,-0.3928 0.08257,0.78561 -1.503891,0.15807 0.511943,4.87081 q 0.111657,-0.1252 0.278252,-0.26753 0.15655,-0.12993 0.357993,-0.26457 0.19022,-0.13346 0.404064,-0.25806 0.213844,-0.1246 0.420006,-0.21435 z"
       style="font-style:normal;font-variant:normal;font-weight:normal;font-stretch:normal;font-size:42.66666794px;line-height:53.33333588px;font-family:'Ubuntu Mono';-inkscape-font-specification:'Ubuntu Mono';letter-spacing:0px;word-spacing:0px;fill:#ffffff;fill-opacity:1;stroke:none;stroke-width:0.26448974"
       id="path7455"
       inkscape:connector-curvature="0" />
    <path
       d="m 16.27541,254.94045 q -0.07508,-0.35323 -0.002,-0.71488 0.06207,-0.3593 0.225834,-0.72868 0.152723,-0.36704 0.374026,-0.73711 0.221299,-0.37008 0.455984,-0.73146 0.13038,-0.20077 0.301874,-0.4795 0.171496,-0.27873 0.318567,-0.5638 0.147072,-0.28508 0.23026,-0.54504 0.08319,-0.25996 0.04799,-0.42553 l -3.145913,0.66868 -0.164239,-0.77268 4.13936,-0.87985 q 0.02278,0.0529 0.03451,0.10804 0.01408,0.0662 0.02581,0.12142 0.09854,0.46361 0.02847,0.89383 -0.07007,0.43023 -0.237833,0.83507 -0.167763,0.40485 -0.400102,0.77727 -0.241028,0.3858 -0.475713,0.74719 -0.191226,0.29446 -0.362719,0.57319 -0.182533,0.28107 -0.298836,0.54807 -0.127342,0.26934 -0.175069,0.5333 -0.05642,0.27735 -1.09e-4,0.54227 0.06335,0.29803 0.207272,0.48664 0.132888,0.19096 0.326617,0.28823 0.185037,0.11064 0.408843,0.13229 0.223803,0.0217 0.466646,-0.03 0.286995,-0.061 0.513415,-0.18989 0.21538,-0.12654 0.379567,-0.27681 0.153152,-0.14792 0.262148,-0.28646 0.111344,-0.1275 0.163496,-0.20781 l 0.588652,0.54403 q -0.06719,0.11811 -0.213301,0.29915 -0.14611,0.18104 -0.363144,0.35408 -0.225725,0.18642 -0.516028,0.34042 -0.290303,0.154 -0.643527,0.22908 -1.070716,0.22759 -1.684057,-0.1612 -0.622037,-0.37541 -0.816777,-1.29159 z"
       style="font-style:normal;font-variant:normal;font-weight:normal;font-stretch:normal;font-size:42.66666794px;line-height:53.33333588px;font-family:'Ubuntu Mono';-inkscape-font-specification:'Ubuntu Mono';letter-spacing:0px;word-spacing:0px;fill:#ffffff;fill-opacity:1;stroke:none;stroke-width:0.26448974"
       id="path7452"
       inkscape:connector-curvature="0" />
    <path
       d="m 22.70314,270.09823 q -0.847874,0.27549 -1.093944,0.72328 -0.253315,0.46201 -0.06849,1.03083 0.118566,0.36491 0.349027,0.56294 0.230462,0.19803 0.526134,0.26808 0.295669,0.07 0.63857,0.0298 0.3429,-0.0402 0.697075,-0.1553 l 0.225384,-0.0732 0.233645,0.71909 -0.311244,0.10112 q -0.236118,0.0767 -0.469017,0.19986 -0.240146,0.13736 -0.405706,0.32167 -0.172804,0.19854 -0.23185,0.45504 -0.05905,0.25649 0.04906,0.5892 0.177848,0.54737 0.594521,0.66116 0.409429,0.12801 0.860197,-0.0184 0.461499,-0.14995 0.738143,-0.39409 0.280131,-0.23341 0.44945,-0.44268 l 0.563136,0.56456 q -0.173075,0.23422 -0.568048,0.55241 -0.402219,0.3324 -0.960311,0.51374 -0.525897,0.17087 -0.943383,0.16413 -0.417488,-0.007 -0.730322,-0.16613 -0.323569,-0.15591 -0.546244,-0.43953 -0.219187,-0.27289 -0.34124,-0.64853 -0.170874,-0.52589 -0.01039,-0.98147 0.149749,-0.45209 0.51628,-0.78476 -0.563984,0.0171 -1.0826,-0.30085 -0.515128,-0.30725 -0.748772,-1.02634 -0.139489,-0.4293 -0.111287,-0.85376 0.02096,-0.41024 0.234289,-0.7762 0.202599,-0.36247 0.626013,-0.66616 0.412677,-0.30021 1.056631,-0.50944 0.246851,-0.0802 0.529113,-0.12446 0.268044,-0.0515 0.514351,-0.0603 0.24282,-0.0196 0.442712,-0.0252 0.192643,0.009 0.278233,0.0164 l 0.07587,0.81781 q -0.199617,-0.0301 -0.613619,-0.0261 -0.413998,0.004 -0.96136,0.18184 z"
       style="font-style:normal;font-variant:normal;font-weight:normal;font-stretch:normal;font-size:42.66666794px;line-height:53.33333588px;font-family:'Ubuntu Mono';-inkscape-font-specification:'Ubuntu Mono';letter-spacing:0px;word-spacing:0px;fill:#ffffff;fill-opacity:1;stroke:none;stroke-width:0.26448974"
       id="path7449"
       inkscape:connector-curvature="0" />
    <path
       d="m 32.367351,290.31 q 0.0083,0.4904 -0.05195,1.15959 -0.0706,0.67378 -0.199594,1.41062 -0.124404,0.74715 -0.314125,1.48632 -0.18513,0.74948 -0.431057,1.39015 l -0.824743,0.3672 -1.803862,-4.05154 -0.752575,0.33506 -0.31212,-0.70103 0.752575,-0.33507 -0.725216,-1.62886 0.824742,-0.3672 0.725217,1.62887 2.855665,-1.27143 z m -1.446541,4.43637 q 0.145241,-0.4229 0.27325,-0.91224 0.1177,-0.48476 0.206733,-1.00616 0.09362,-0.51109 0.147134,-1.02903 0.04321,-0.51335 0.04976,-0.99803 l -2.030925,0.90423 z"
       style="font-style:normal;font-variant:normal;font-weight:normal;font-stretch:normal;font-size:42.66666794px;line-height:53.33333588px;font-family:'Ubuntu Mono';-inkscape-font-specification:'Ubuntu Mono';letter-spacing:0px;word-spacing:0px;fill:#ffffff;fill-opacity:1;stroke:none;stroke-width:0.26448974"
       id="path7446"
       inkscape:connector-curvature="0" />
    <path
       d="m 41.040725,311.08976 q -1.337794,0.70722 -2.23864,0.52367 -0.900844,-0.18355 -1.414308,-1.0729 -0.23134,-0.40069 -0.301777,-0.8161 -0.07044,-0.4154 0.06215,-0.81772 0.122809,-0.39667 0.464053,-0.77612 0.331471,-0.3738 0.898306,-0.70106 0.234552,-0.13542 0.491675,-0.23175 0.241706,-0.10046 0.475151,-0.17008 0.233446,-0.0696 0.418026,-0.11104 0.190224,-0.0316 0.281204,-0.032 l 0.244247,0.78416 q -0.201508,0.0121 -0.586085,0.0908 -0.39435,0.0843 -0.892773,0.3721 -0.390919,0.2257 -0.604008,0.466 -0.213089,0.2403 -0.284821,0.47718 -0.07586,0.25229 -0.03142,0.48725 0.03467,0.2406 0.158799,0.4556 0.191844,0.33229 0.455823,0.51867 0.259849,0.20181 0.644829,0.21409 0.375209,0.0179 0.914641,-0.17624 0.535303,-0.17875 1.268278,-0.60193 0.189629,0.46386 0.374723,0.85217 0.180963,0.40371 0.364546,0.76683 0.179452,0.37852 0.372806,0.736 0.18359,0.3631 0.389736,0.76531 l -2.912357,1.68145 -0.394971,-0.68411 2.2087,-1.27519 q -0.06921,-0.14247 -0.179452,-0.37853 -0.114353,-0.22065 -0.235876,-0.47626 -0.121523,-0.2556 -0.231747,-0.49167 -0.110237,-0.23606 -0.179452,-0.37853 z"
       style="font-style:normal;font-variant:normal;font-weight:normal;font-stretch:normal;font-size:42.66666794px;line-height:53.33333588px;font-family:'Ubuntu Mono';-inkscape-font-specification:'Ubuntu Mono';letter-spacing:0px;word-spacing:0px;fill:#ffffff;fill-opacity:1;stroke:none;stroke-width:0.26448977"
       id="path7443"
       inkscape:connector-curvature="0" />
    <path
       d="m 52.697518,326.29969 q 0.596979,0.82167 0.83555,1.61081 0.236077,0.8049 0.136997,1.53249 -0.108209,0.73422 -0.535811,1.39361 -0.427602,0.65939 -1.1696,1.21243 l -0.528226,-0.59264 q 0.477234,-0.36069 0.805982,-0.75297 0.326243,-0.37652 0.477458,-0.82116 0.157849,-0.4355 0.122406,-0.92586 -0.03544,-0.49036 -0.284073,-1.06296 -0.146149,0.25962 -0.355346,0.50925 -0.218331,0.25627 -0.51048,0.46853 -0.474744,0.34492 -0.909541,0.43764 -0.443926,0.0994 -0.823873,-10e-4 -0.373314,-0.0915 -0.696768,-0.34466 -0.323456,-0.2532 -0.568881,-0.591 -0.225524,-0.31041 -0.36389,-0.71204 -0.131731,-0.39251 -0.120742,-0.81896 0.01762,-0.41732 0.220261,-0.82957 0.209272,-0.40313 0.665757,-0.73478 0.940355,-0.68321 1.863652,-0.39155 0.923297,0.29166 1.739168,1.41461 z m -1.374026,1.89102 q 0.292149,-0.21226 0.498851,-0.44613 0.197575,-0.22724 0.364479,-0.51589 -0.0572,-0.0979 -0.123525,-0.18923 -0.0597,-0.0822 -0.132663,-0.1826 -0.258691,-0.35606 -0.536496,-0.64243 -0.280304,-0.27061 -0.578084,-0.43088 -0.300275,-0.14451 -0.616387,-0.13802 -0.30948,0.0156 -0.638148,0.2544 -0.27389,0.199 -0.376886,0.44122 -0.09636,0.25134 -0.08902,0.51104 0.0073,0.25969 0.114256,0.50284 0.104416,0.25891 0.243711,0.45063 0.404618,0.55691 0.87251,0.66334 0.458759,0.11305 0.997409,-0.2783 z"
       style="font-style:normal;font-variant:normal;font-weight:normal;font-stretch:normal;font-size:42.66666794px;line-height:53.33333588px;font-family:'Ubuntu Mono';-inkscape-font-specification:'Ubuntu Mono';letter-spacing:0px;word-spacing:0px;fill:#ffffff;fill-opacity:1;stroke:none;stroke-width:0.26448977"
       id="path7440"
       inkscape:connector-curvature="0" />
    <path
       d="m 62.831109,340.97137 q 0.494195,0.63318 0.923002,1.44672 0.427973,0.82948 0.743551,1.66905 0.323127,0.84795 0.505323,1.64058 0.189747,0.80101 0.214206,1.40158 l 2.515894,-2.26532 0.543677,0.60382 -3.287434,2.96002 -0.521023,-0.57866 q -0.0127,-0.52005 -0.164692,-1.27913 -0.15199,-0.75908 -0.442409,-1.6213 -0.291251,-0.84629 -0.732656,-1.72441 -0.433856,-0.86974 -1.010276,-1.61111 z"
       style="font-style:normal;font-variant:normal;font-weight:normal;font-stretch:normal;font-size:42.66666794px;line-height:53.33333588px;font-family:'Ubuntu Mono';-inkscape-font-specification:'Ubuntu Mono';letter-spacing:0px;word-spacing:0px;fill:#ffffff;fill-opacity:1;stroke:none;stroke-width:0.26448974"
       id="path7437"
       inkscape:connector-curvature="0" />
    <path
       d="m 76.292651,359.50188 q -0.654132,-0.58899 -0.679122,-1.37075 -0.03254,-0.77338 0.730117,-1.6204 0.437963,-0.48641 0.850697,-0.69182 0.421124,-0.19786 0.796069,-0.20952 0.375783,0.004 0.702882,0.14695 0.319549,0.15105 0.562751,0.37003 0.444474,0.40021 0.569334,0.95301 0.124858,0.55279 0.03247,1.07702 1.044384,-0.35038 1.874629,0.39717 0.285133,0.25674 0.446945,0.59984 0.161812,0.34311 0.173471,0.71805 0.01166,0.37495 -0.127667,0.7658 -0.14688,0.39924 -0.471575,0.75985 -0.377555,0.41931 -0.767636,0.59957 -0.397634,0.18864 -0.765029,0.19191 -0.359007,0.0108 -0.677723,-0.12429 -0.310326,-0.12757 -0.536757,-0.33145 -0.444476,-0.4002 -0.567663,-0.92113 -0.1148,-0.51337 -0.0434,-0.98056 -1.188691,0.49379 -2.1028,-0.32928 z m 2.350922,-2.71216 q -0.134179,-0.12081 -0.330439,-0.20641 -0.187875,-0.078 -0.419385,-0.0739 -0.23151,0.004 -0.489046,0.12152 -0.249151,0.12492 -0.498336,0.40167 -0.234084,0.25998 -0.333118,0.50488 -0.0982,0.26085 -0.0865,0.48397 0.01253,0.23906 0.110624,0.43368 0.0981,0.19463 0.249049,0.33055 0.47802,0.43041 1.039205,0.3131 0.569569,-0.10975 1.247428,-0.59275 0.117544,-0.50158 0.0069,-0.93526 -0.110625,-0.43369 -0.496396,-0.78104 z m 0.967024,4.27223 q 0.109021,0.0982 0.288509,0.16866 0.187873,0.078 0.395058,0.0672 0.208021,0.005 0.43452,-0.0947 0.234885,-0.0922 0.446315,-0.32703 0.218981,-0.2432 0.294525,-0.47888 0.06799,-0.22731 0.04875,-0.44204 -0.01086,-0.20719 -0.10812,-0.38587 -0.09643,-0.16275 -0.230607,-0.28357 -0.343838,-0.30959 -0.864727,-0.33823 -0.520053,-0.0127 -1.167706,0.43675 -0.102441,0.48481 -0.01698,0.89584 0.07792,0.41942 0.480459,0.78187 z"
       style="font-style:normal;font-variant:normal;font-weight:normal;font-stretch:normal;font-size:42.66666794px;line-height:53.33333588px;font-family:'Ubuntu Mono';-inkscape-font-specification:'Ubuntu Mono';letter-spacing:0px;word-spacing:0px;fill:#ffffff;fill-opacity:1;stroke:none;stroke-width:0.26448974"
       id="path7434"
       inkscape:connector-curvature="0" />
    <path
       d="m 94.41773,374.21715 q -1.688989,-1.22713 -1.9502,-2.67231 -0.252081,-1.43855 0.939381,-3.09765 l 0.658975,0.43693 q -0.742907,1.02252 -0.79225,1.93519 -0.04685,0.92844 0.802356,1.8523 0.05877,-0.29207 0.187221,-0.60327 0.137581,-0.30456 0.34984,-0.59671 0.351555,-0.48387 0.727292,-0.71304 0.384866,-0.22254 0.768164,-0.25093 0.39243,-0.0218 0.769171,0.11247 0.37674,0.13423 0.723666,0.38628 0.31041,0.22553 0.556984,0.55811 0.255705,0.33922 0.367903,0.74156 0.112201,0.40235 0.04687,0.85704 -0.06533,0.4547 -0.396981,0.91118 -0.676576,0.93123 -1.660575,0.94166 -0.983997,0.0104 -2.097819,-0.79881 z m 0.756444,-2.2123 q -0.212258,0.29215 -0.336574,0.57845 -0.130949,0.29543 -0.202983,0.60577 0.08466,0.0755 0.166826,0.13516 0.08217,0.0597 0.173462,0.12603 0.356058,0.25869 0.715396,0.43607 0.352705,0.18651 0.682938,0.23115 0.323604,0.0538 0.619743,-0.0658 0.298634,-0.10385 0.537426,-0.43252 0.198992,-0.27389 0.21297,-0.54271 0.02311,-0.26219 -0.06413,-0.50691 -0.0781,-0.23808 -0.248286,-0.44542 -0.176819,-0.19821 -0.368543,-0.3375 -0.556908,-0.40462 -1.028153,-0.37038 -0.468744,0.05 -0.860097,0.58866 z"
       style="font-style:normal;font-variant:normal;font-weight:normal;font-stretch:normal;font-size:42.66666794px;line-height:53.33333588px;font-family:'Ubuntu Mono';-inkscape-font-specification:'Ubuntu Mono';letter-spacing:0px;word-spacing:0px;fill:#ffffff;fill-opacity:1;stroke:none;stroke-width:0.26448974"
       id="path7431"
       inkscape:connector-curvature="0" />
    <path
       d="m 112.34684,383.94197 q -0.2541,-0.14671 -0.3495,-0.41028 -0.10106,-0.25381 0.04,-0.49813 0.1467,-0.2541 0.42267,-0.30326 0.27596,-0.0492 0.53006,0.0975 0.2541,0.14671 0.35928,0.41592 0.10518,0.26922 -0.0415,0.52332 -0.14106,0.24432 -0.42116,0.27807 -0.28574,0.0435 -0.53984,-0.10318 z m 1.37082,-2.6226 q 1.52459,0.88022 2.0367,1.86652 0.51624,1.0017 -0.0311,1.94968 -0.55296,0.95776 -1.67294,1.00176 -1.11021,0.0496 -2.6348,-0.83057 -1.52459,-0.88022 -2.04647,-1.87216 -0.51211,-0.98629 0.0409,-1.94405 0.54732,-0.94798 1.66317,-1.0074 1.11998,-0.044 2.64457,0.83622 z m -1.82815,3.16645 q 0.49842,0.28777 0.97206,0.48304 0.48341,0.20092 0.89469,0.25594 0.41128,0.055 0.73651,-0.0569 0.32524,-0.11193 0.51708,-0.44422 0.19184,-0.33228 0.12616,-0.66991 -0.0657,-0.33762 -0.31897,-0.66629 -0.25329,-0.32866 -0.66899,-0.64685 -0.40593,-0.31255 -0.90435,-0.60032 -0.49843,-0.28776 -0.98184,-0.48868 -0.47364,-0.19527 -0.88492,-0.25029 -0.41127,-0.055 -0.73651,0.0569 -0.32524,0.11193 -0.51708,0.44421 -0.19184,0.33228 -0.12616,0.66991 0.0657,0.33763 0.31897,0.6663 0.25329,0.32866 0.65922,0.64121 0.4157,0.31819 0.91413,0.60595 z"
       style="font-style:normal;font-variant:normal;font-weight:normal;font-stretch:normal;font-size:42.66666794px;line-height:53.33333588px;font-family:'Ubuntu Mono';-inkscape-font-specification:'Ubuntu Mono';letter-spacing:0px;word-spacing:0px;fill:#ffffff;fill-opacity:1;stroke:none;stroke-width:0.26448974"
       id="path7428"
       inkscape:connector-curvature="0" />
    <path
       d="m 133.72065,391.75821 q -0.0279,0.61757 0.061,1.25011 0.0993,0.63714 0.39562,1.27554 l -0.26622,0.59794 -5.65979,-2.5199 -0.53703,1.20619 -0.72165,-0.3213 1.52847,-3.43299 0.72165,0.3213 -0.61506,1.38144 4.47422,1.99205 q -0.0526,-0.1593 -0.0926,-0.37474 -0.0343,-0.20053 -0.0501,-0.44231 -0.0205,-0.23147 -0.0215,-0.47896 -9.8e-4,-0.2475 0.0244,-0.47091 z"
       style="font-style:normal;font-variant:normal;font-weight:normal;font-stretch:normal;font-size:42.66666794px;line-height:53.33333588px;font-family:'Ubuntu Mono';-inkscape-font-specification:'Ubuntu Mono';letter-spacing:0px;word-spacing:0px;fill:#ffffff;fill-opacity:1;stroke:none;stroke-width:0.26448974"
       id="path7425"
       inkscape:connector-curvature="0" />
    <path
       d="m 151.44727,402.51735 q -0.34344,-0.11159 -0.62008,-0.35573 -0.28013,-0.23341 -0.51815,-0.55992 -0.2415,-0.31578 -0.45134,-0.69247 -0.20984,-0.37669 -0.40547,-0.76063 -0.10868,-0.21329 -0.26432,-0.50118 -0.15564,-0.28788 -0.32899,-0.55779 -0.17334,-0.2699 -0.35688,-0.47192 -0.18354,-0.20203 -0.34452,-0.25433 l -0.99386,3.05878 -0.75128,-0.24411 1.30771,-4.02471 q 0.0572,0.007 0.11081,0.0241 0.0644,0.0209 0.11806,0.0384 0.45077,0.14646 0.78832,0.42226 0.33755,0.27579 0.60427,0.6235 0.26673,0.34771 0.47308,0.73513 0.21361,0.40164 0.40923,0.78558 0.1594,0.31283 0.31504,0.60071 0.15215,0.29862 0.32523,0.53284 0.16958,0.24495 0.37432,0.41827 0.21197,0.18753 0.46955,0.27122 0.28978,0.0942 0.52509,0.0638 0.23182,-0.0196 0.41292,-0.13875 0.18834,-0.10492 0.31899,-0.28791 0.13065,-0.183 0.20737,-0.41911 0.0907,-0.27905 0.0923,-0.53958 -0.002,-0.24979 -0.0499,-0.46712 -0.0515,-0.20659 -0.11701,-0.37026 -0.0547,-0.16017 -0.0982,-0.24549 l 0.76546,-0.23778 q 0.0687,0.11725 0.15242,0.3343 0.0837,0.21706 0.12507,0.49153 0.0486,0.2887 0.0368,0.61711 -0.0118,0.32841 -0.12338,0.67185 -0.33826,1.04106 -0.98164,1.37784 -0.63613,0.35099 -1.52693,0.0616 z"
       style="font-style:normal;font-variant:normal;font-weight:normal;font-stretch:normal;font-size:42.66666794px;line-height:53.33333588px;font-family:'Ubuntu Mono';-inkscape-font-specification:'Ubuntu Mono';letter-spacing:0px;word-spacing:0px;fill:#ffffff;fill-opacity:1;stroke:none;stroke-width:0.26448974"
       id="path7422"
       inkscape:connector-curvature="0" />
    <path
       d="m 167.78815,404.52967 q -0.18536,0.87203 0.0794,1.30903 0.27346,0.45038 0.85848,0.57473 0.37531,0.0798 0.66203,-0.0208 0.28673,-0.10057 0.49523,-0.3216 0.2085,-0.22104 0.34512,-0.53811 0.13662,-0.31707 0.21404,-0.68133 l 0.0493,-0.23181 0.73956,0.1572 -0.068,0.32011 q -0.0516,0.24285 -0.0614,0.50611 -0.001,0.27665 0.0757,0.51219 0.0855,0.24892 0.27814,0.4283 0.19261,0.17939 0.5348,0.25212 0.56295,0.11966 0.86984,-0.18429 0.31557,-0.29057 0.41412,-0.75418 0.10088,-0.47464 0.0278,-0.83629 -0.0621,-0.35931 -0.15865,-0.61058 l 0.77049,-0.20541 q 0.11631,0.267 0.19438,0.76815 0.0868,0.51453 -0.0352,1.08852 -0.11496,0.54088 -0.32954,0.89906 -0.21458,0.35819 -0.50904,0.54941 -0.29681,0.20227 -0.65376,0.2533 -0.34593,0.0534 -0.73227,-0.0287 -0.54087,-0.11497 -0.85517,-0.48173 -0.31665,-0.35573 -0.42149,-0.8395 -0.26715,0.49699 -0.80184,0.78714 -0.52365,0.29248 -1.26322,0.13529 -0.44153,-0.0939 -0.79502,-0.33051 -0.3448,-0.22327 -0.55506,-0.591 -0.21261,-0.35669 -0.26391,-0.87522 -0.0537,-0.5075 0.0871,-1.16979 0.054,-0.25389 0.15678,-0.52046 0.0894,-0.25788 0.20493,-0.4756 0.10446,-0.22008 0.19954,-0.396 0.10377,-0.16253 0.15331,-0.23276 l 0.74617,0.3432 q -0.12584,0.15784 -0.32938,0.51837 -0.20354,0.36053 -0.3232,0.92348 z"
       style="font-style:normal;font-variant:normal;font-weight:normal;font-stretch:normal;font-size:42.66666794px;line-height:53.33333588px;font-family:'Ubuntu Mono';-inkscape-font-specification:'Ubuntu Mono';letter-spacing:0px;word-spacing:0px;fill:#ffffff;fill-opacity:1;stroke:none;stroke-width:0.26448974"
       id="path7419"
       inkscape:connector-curvature="0" />
    <path
       d="m 190.12416,406.26611 q 0.42886,0.23797 0.97826,0.62478 0.54821,0.39803 1.12183,0.87816 0.58485,0.48131 1.13013,1.0152 0.5565,0.53507 0.98838,1.06838 l -0.0944,0.89785 -4.41067,-0.46358 -0.0861,0.81928 -0.76317,-0.0802 0.0861,-0.81928 -1.77325,-0.18638 0.0944,-0.89785 1.77325,0.18638 0.32674,-3.10879 z m 3.11873,3.47092 q -0.29362,-0.33723 -0.6534,-0.69276 -0.36096,-0.34431 -0.76799,-0.68211 -0.3958,-0.33663 -0.8176,-0.64194 -0.42297,-0.29409 -0.83943,-0.54211 l -0.23238,2.21094 z"
       style="font-style:normal;font-variant:normal;font-weight:normal;font-stretch:normal;font-size:42.66666794px;line-height:53.33333588px;font-family:'Ubuntu Mono';-inkscape-font-specification:'Ubuntu Mono';letter-spacing:0px;word-spacing:0px;fill:#ffffff;fill-opacity:1;stroke:none;stroke-width:0.26448974"
       id="path7416"
       inkscape:connector-curvature="0" />
    <path
       d="m 212.45663,409.1446 q -0.0564,1.51217 -0.6658,2.20055 -0.60939,0.68838 -1.63631,0.68838 -0.46268,0 -0.85766,-0.1467 -0.39497,-0.14671 -0.67709,-0.46268 -0.28212,-0.3047 -0.44011,-0.78995 -0.15799,-0.47396 -0.15799,-1.12849 0,-0.27083 0.0451,-0.54167 0.0339,-0.25955 0.0903,-0.49654 0.0564,-0.23698 0.11285,-0.41754 0.0677,-0.18056 0.11285,-0.25955 l 0.80122,0.18056 q -0.0903,0.18056 -0.21441,0.55296 -0.12413,0.38369 -0.12413,0.95922 0,0.45139 0.10156,0.75608 0.10157,0.30469 0.27084,0.48525 0.18056,0.19185 0.40626,0.27084 0.22569,0.0903 0.47396,0.0903 0.38369,0 0.6771,-0.13542 0.30469,-0.12413 0.50782,-0.45139 0.20312,-0.31598 0.30469,-0.88023 0.11285,-0.55296 0.11285,-1.39932 0.49653,0.0677 0.92536,0.10156 0.44011,0.0451 0.84636,0.0677 0.41755,0.0339 0.8238,0.0451 0.40626,0.0226 0.85766,0.0451 v 3.3629 h -0.78995 v -2.55039 q -0.15799,-0.0113 -0.41754,-0.0338 -0.24827,-0.0113 -0.53039,-0.0339 -0.28212,-0.0226 -0.54167,-0.0451 -0.25956,-0.0226 -0.41755,-0.0338 z"
       style="font-style:normal;font-variant:normal;font-weight:normal;font-stretch:normal;font-size:42.66666794px;line-height:53.33333588px;font-family:'Ubuntu Mono';-inkscape-font-specification:'Ubuntu Mono';letter-spacing:0px;word-spacing:0px;fill:#ffffff;fill-opacity:1;stroke:none;stroke-width:0.26448974"
       id="path7413"
       inkscape:connector-curvature="0" />
    <path
       d="m 231.45723,406.65448 q 1.01008,-0.10616 1.81278,0.0818 0.81511,0.198 1.39567,0.6476 0.58175,0.46082 0.939,1.16083 0.35725,0.70001 0.4652,1.61912 l -0.77736,0.16114 q -0.0737,-0.59365 -0.2491,-1.07449 -0.16295,-0.47079 -0.47241,-0.82407 -0.29824,-0.35445 -0.74062,-0.56894 -0.44238,-0.21448 -1.06259,-0.28546 0.15177,0.25638 0.26336,0.56236 0.11277,0.31722 0.15051,0.67636 0.0613,0.5836 -0.0758,1.0065 -0.13592,0.43413 -0.413,0.71288 -0.26584,0.27758 -0.64686,0.4311 -0.38101,0.15351 -0.79626,0.19716 -0.38159,0.0401 -0.79859,-0.0409 -0.40579,-0.0822 -0.76961,-0.30491 -0.3526,-0.22393 -0.6083,-0.60554 -0.24448,-0.3828 -0.30346,-0.94396 -0.1215,-1.15597 0.59273,-1.80974 0.71423,-0.65377 2.09467,-0.79886 z m 0.95066,2.13545 q -0.0378,-0.35914 -0.13694,-0.65508 -0.098,-0.28473 -0.26453,-0.5736 -0.11341,5.7e-4 -0.22564,0.0124 -0.10101,0.0106 -0.22446,0.0236 -0.4377,0.046 -0.82461,0.1434 -0.37451,0.10745 -0.6622,0.2852 -0.27528,0.18779 -0.42772,0.46479 -0.14122,0.27583 -0.0987,0.67986 0.0354,0.33669 0.19365,0.547 0.1695,0.20912 0.39807,0.33261 0.22857,0.12349 0.4926,0.15247 0.27643,0.039 0.51212,0.0143 0.6846,-0.072 1.01072,-0.42395 0.32728,-0.34077 0.25769,-1.00293 z"
       style="font-style:normal;font-variant:normal;font-weight:normal;font-stretch:normal;font-size:42.66666794px;line-height:53.33333588px;font-family:'Ubuntu Mono';-inkscape-font-specification:'Ubuntu Mono';letter-spacing:0px;word-spacing:0px;fill:#ffffff;fill-opacity:1;stroke:none;stroke-width:0.26448974"
       id="path7410"
       inkscape:connector-curvature="0" />
    <path
       d="m 249.23007,405.21437 q 0.79545,-0.11139 1.7144,-0.076 0.93233,0.0441 1.81721,0.19059 0.89591,0.14414 1.67345,0.38267 0.78856,0.23618 1.32091,0.51528 l -0.70388,-3.31149 0.79476,-0.16893 0.91973,4.32701 -0.76164,0.1619 q -0.45673,-0.24903 -1.19011,-0.49694 -0.73338,-0.24792 -1.62529,-0.42752 -0.87853,-0.17091 -1.85971,-0.2277 -0.97014,-0.0591 -1.9004,0.0694 z"
       style="font-style:normal;font-variant:normal;font-weight:normal;font-stretch:normal;font-size:42.66666794px;line-height:53.33333588px;font-family:'Ubuntu Mono';-inkscape-font-specification:'Ubuntu Mono';letter-spacing:0px;word-spacing:0px;fill:#ffffff;fill-opacity:1;stroke:none;stroke-width:0.26448974"
       id="path7407"
       inkscape:connector-curvature="0" />
    <path
       d="m 272.00872,402.82157 q -0.83714,0.27201 -1.52666,-0.0972 -0.68604,-0.35851 -1.03825,-1.4425 -0.20226,-0.62249 -0.17378,-1.08264 0.0392,-0.46363 0.21658,-0.79417 0.19159,-0.3233 0.4787,-0.53524 0.29059,-0.20121 0.60184,-0.30234 0.56882,-0.18483 1.10999,-0.0166 0.54116,0.16827 0.94897,0.51039 0.21874,-1.07965 1.28127,-1.42489 0.36491,-0.11856 0.74295,-0.0871 0.37805,0.0314 0.70859,0.20879 0.33054,0.17738 0.59936,0.49346 0.27231,0.32682 0.42226,0.78832 0.17436,0.53663 0.13543,0.96458 -0.0354,0.43868 -0.21632,0.75849 -0.17013,0.31632 -0.4465,0.52478 -0.26564,0.20497 -0.55542,0.29912 -0.56882,0.18482 -1.08155,0.031 -0.50199,-0.15727 -0.87089,-0.4527 -0.16672,1.27633 -1.33657,1.65643 z m -1.17333,-3.39203 q -0.17172,0.0558 -0.34398,0.18296 -0.16153,0.12368 -0.2737,0.32624 -0.11217,0.20257 -0.13929,0.48429 -0.0164,0.27823 0.0987,0.63241 0.10811,0.33271 0.27069,0.54093 0.1768,0.21546 0.37587,0.31689 0.2133,0.10868 0.4309,0.12104 0.21759,0.0124 0.41078,-0.0504 0.61176,-0.19877 0.79076,-0.74342 0.18973,-0.54814 0.11037,-1.37668 -0.3756,-0.35259 -0.8065,-0.47362 -0.43089,-0.12104 -0.92459,0.0394 z m 4.18337,1.29864 q 0.13952,-0.0453 0.29032,-0.16552 0.16153,-0.12368 0.25572,-0.30853 0.1084,-0.17762 0.13525,-0.42365 0.0376,-0.24953 -0.0601,-0.55004 -0.10113,-0.31124 -0.26746,-0.49451 -0.16285,-0.17253 -0.35844,-0.26324 -0.18486,-0.0942 -0.38824,-0.0993 -0.18916,0.002 -0.36088,0.0579 -0.44003,0.14297 -0.72528,0.57976 -0.27102,0.44403 -0.20561,1.22964 0.36863,0.33112 0.76733,0.46262 0.40218,0.14223 0.91735,-0.0252 z"
       style="font-style:normal;font-variant:normal;font-weight:normal;font-stretch:normal;font-size:42.66666794px;line-height:53.33333588px;font-family:'Ubuntu Mono';-inkscape-font-specification:'Ubuntu Mono';letter-spacing:0px;word-spacing:0px;fill:#ffffff;fill-opacity:1;stroke:none;stroke-width:0.26448974"
       id="path7404"
       inkscape:connector-curvature="0" />
    <path
       d="m 293.81506,394.48243 q -1.90721,0.84915 -3.28938,0.35277 -1.37186,-0.50096 -2.21295,-2.36235 l 0.70787,-0.35223 q 0.51408,1.15464 1.27981,1.65371 0.78062,0.50479 2.00531,0.23129 -0.22356,-0.19693 -0.42883,-0.46377 -0.19497,-0.27143 -0.34185,-0.60133 -0.24327,-0.54639 -0.25387,-0.98637 -2.9e-4,-0.44458 0.16677,-0.79072 0.17737,-0.35073 0.48199,-0.60989 0.30462,-0.25915 0.69637,-0.43357 0.35051,-0.15606 0.76183,-0.2033 0.42162,-0.0518 0.82616,0.0522 0.40454,0.10401 0.76565,0.38793 0.36112,0.28392 0.59061,0.79939 0.46818,1.05154 -0.0148,1.90892 -0.48296,0.85738 -1.7407,1.41736 z m -1.53768,-1.76124 q 0.14688,0.32989 0.33267,0.5807 0.19037,0.26112 0.42311,0.47867 0.10769,-0.0356 0.20047,-0.0769 0.0928,-0.0413 0.19588,-0.0872 0.40206,-0.17901 0.73535,-0.40151 0.33787,-0.2122 0.54165,-0.47587 0.20837,-0.25336 0.25285,-0.56963 0.0594,-0.31055 -0.10586,-0.68169 -0.1377,-0.30928 -0.36352,-0.45579 -0.21551,-0.15111 -0.47106,-0.19792 -0.24523,-0.0514 -0.50988,-0.008 -0.26007,0.054 -0.47656,0.15041 -0.62887,0.27999 -0.83484,0.70522 -0.19106,0.43094 0.0798,1.03919 z"
       style="font-style:normal;font-variant:normal;font-weight:normal;font-stretch:normal;font-size:42.66666794px;line-height:53.33333588px;font-family:'Ubuntu Mono';-inkscape-font-specification:'Ubuntu Mono';letter-spacing:0px;word-spacing:0px;fill:#ffffff;fill-opacity:1;stroke:none;stroke-width:0.26448974"
       id="path7401"
       inkscape:connector-curvature="0" />
    <path
       d="m 311.20155,383.81777 q -0.2541,0.14671 -0.53006,0.0976 -0.27033,-0.0394 -0.41139,-0.28372 -0.1467,-0.2541 -0.0513,-0.51767 0.0954,-0.26358 0.3495,-0.41028 0.2541,-0.1467 0.53984,-0.10318 0.28574,0.0435 0.43244,0.29762 0.14106,0.24432 0.0302,0.50376 -0.10518,0.26922 -0.35928,0.41592 z m -1.58582,-2.49846 q 1.52459,-0.88022 2.6348,-0.83057 1.12562,0.0538 1.67294,1.00176 0.55296,0.95775 0.0311,1.94969 -0.5121,0.98629 -2.03669,1.86651 -1.52459,0.88022 -2.64457,0.83622 -1.11021,-0.0496 -1.66318,-1.0074 -0.54731,-0.94798 -0.0408,-1.94405 0.52188,-0.99194 2.04647,-1.87216 z m 1.82815,3.16646 q 0.49842,-0.28777 0.90435,-0.60032 0.41571,-0.31819 0.669,-0.64685 0.25329,-0.32867 0.31897,-0.6663 0.0657,-0.33762 -0.12616,-0.66991 -0.19185,-0.33228 -0.51708,-0.44421 -0.32524,-0.11193 -0.73651,-0.0569 -0.41128,0.055 -0.89469,0.25594 -0.47364,0.19527 -0.97207,0.48303 -0.49842,0.28777 -0.91412,0.60596 -0.40593,0.31255 -0.65922,0.64122 -0.25329,0.32866 -0.31898,0.66629 -0.0657,0.33763 0.12616,0.66991 0.19185,0.33228 0.51708,0.44421 0.32524,0.11193 0.73652,0.0569 0.41127,-0.055 0.88491,-0.25029 0.48342,-0.20092 0.98184,-0.48868 z"
       style="font-style:normal;font-variant:normal;font-weight:normal;font-stretch:normal;font-size:42.66666794px;line-height:53.33333588px;font-family:'Ubuntu Mono';-inkscape-font-specification:'Ubuntu Mono';letter-spacing:0px;word-spacing:0px;fill:#ffffff;fill-opacity:1;stroke:none;stroke-width:0.26448974"
       id="path7398"
       inkscape:connector-curvature="0" />
    <path
       d="m 328.65751,369.21564 q 0.52089,0.33295 1.11316,0.57218 0.60141,0.2326 1.30246,0.29516 l 0.38472,0.52952 -5.01219,3.64157 0.77608,1.06818 -0.63908,0.46431 -2.20882,-3.04018 0.63908,-0.46432 0.88883,1.22338 3.96228,-2.87876 q -0.16426,-0.0341 -0.37082,-0.10721 -0.19079,-0.0706 -0.40812,-0.17775 -0.21069,-0.098 -0.42552,-0.22089 -0.21483,-0.1229 -0.39564,-0.25657 z"
       style="font-style:normal;font-variant:normal;font-weight:normal;font-stretch:normal;font-size:42.66666794px;line-height:53.33333588px;font-family:'Ubuntu Mono';-inkscape-font-specification:'Ubuntu Mono';letter-spacing:0px;word-spacing:0px;fill:#ffffff;fill-opacity:1;stroke:none;stroke-width:0.26448974"
       id="path7395"
       inkscape:connector-curvature="0" />
    <path
       d="m 346.83851,359.24351 q -0.26836,0.24163 -0.61812,0.35914 -0.3422,0.1259 -0.74397,0.16876 -0.39423,0.0513 -0.82537,0.0446 -0.43115,-0.007 -0.86146,-0.0292 -0.23906,-0.0125 -0.56619,-0.0217 -0.32713,-0.009 -0.64755,0.006 -0.32042,0.0152 -0.58715,0.0731 -0.26672,0.0579 -0.39252,0.1712 l 2.15206,2.3901 -0.58704,0.52858 -2.83165,-3.14487 q 0.0344,-0.0461 0.0763,-0.0839 0.0503,-0.0453 0.0923,-0.0831 0.35223,-0.31714 0.75985,-0.47157 0.40762,-0.15443 0.8421,-0.21157 0.43449,-0.0571 0.87319,-0.0421 0.45463,0.0158 0.88494,0.0384 0.35062,0.0184 0.67775,0.0275 0.33469,0.0175 0.62407,-0.0152 0.29693,-0.0244 0.54939,-0.11504 0.26839,-0.0898 0.46966,-0.27104 0.22643,-0.20388 0.31782,-0.42282 0.0989,-0.21057 0.0863,-0.42697 0.003,-0.21558 -0.0899,-0.42022 -0.0931,-0.20465 -0.25928,-0.38915 -0.19632,-0.21804 -0.42115,-0.34968 -0.21728,-0.12326 -0.42951,-0.19031 -0.20468,-0.0587 -0.37915,-0.0838 -0.16609,-0.0327 -0.26172,-0.0377 l 0.17681,-0.7818 q 0.13589,-8.7e-4 0.36573,0.0352 0.22984,0.036 0.48821,0.13745 0.27431,0.10228 0.55283,0.27668 0.27852,0.17441 0.52016,0.44277 0.73245,0.81348 0.70241,1.53904 -0.0141,0.72641 -0.71016,1.35315 z"
       style="font-style:normal;font-variant:normal;font-weight:normal;font-stretch:normal;font-size:42.66666794px;line-height:53.33333588px;font-family:'Ubuntu Mono';-inkscape-font-specification:'Ubuntu Mono';letter-spacing:0px;word-spacing:0px;fill:#ffffff;fill-opacity:1;stroke:none;stroke-width:0.26448974"
       id="path7392"
       inkscape:connector-curvature="0" />
    <path
       d="m 356.75168,346.09805 q 0.66252,0.59654 1.17335,0.58575 0.52677,-0.0116 0.92697,-0.4561 0.25674,-0.28514 0.31301,-0.58374 0.0563,-0.2986 -0.0309,-0.58968 -0.0872,-0.29108 -0.29345,-0.56793 -0.20628,-0.27685 -0.48303,-0.52604 l -0.17611,-0.15857 0.50592,-0.56188 0.2432,0.21898 q 0.1845,0.16612 0.40759,0.30625 0.23903,0.13929 0.48143,0.19052 0.25834,0.0504 0.51,-0.0267 0.25165,-0.0771 0.48574,-0.33709 0.3851,-0.42771 0.27531,-0.84545 -0.0939,-0.41858 -0.44608,-0.73573 -0.36061,-0.32469 -0.71036,-0.4422 -0.3422,-0.1259 -0.60809,-0.1679 l 0.20735,-0.76997 q 0.28938,0.0328 0.76242,0.21574 0.48898,0.18213 0.92507,0.57478 0.41093,0.37001 0.61384,0.73493 0.20291,0.36492 0.22128,0.71555 0.0268,0.35817 -0.10752,0.69282 -0.12673,0.32627 -0.39102,0.61979 -0.37,0.41093 -0.84478,0.49973 -0.4664,0.0964 -0.93777,-0.0547 0.29683,0.47986 0.28076,1.08799 -0.009,0.59974 -0.51445,1.16162 -0.30204,0.33545 -0.68373,0.52326 -0.36576,0.18697 -0.78935,0.1852 -0.41521,0.006 -0.88993,-0.20906 -0.46632,-0.20729 -0.9695,-0.66035 -0.19289,-0.17368 -0.37234,-0.396 -0.17862,-0.20639 -0.30942,-0.41528 -0.13836,-0.2005 -0.24317,-0.3708 -0.0889,-0.17114 -0.12493,-0.24915 l 0.67031,-0.47461 q 0.0738,0.1879 0.28423,0.54444 0.21046,0.35654 0.63816,0.74164 z"
       style="font-style:normal;font-variant:normal;font-weight:normal;font-stretch:normal;font-size:42.66666794px;line-height:53.33333588px;font-family:'Ubuntu Mono';-inkscape-font-specification:'Ubuntu Mono';letter-spacing:0px;word-spacing:0px;fill:#ffffff;fill-opacity:1;stroke:none;stroke-width:0.26448974"
       id="path7389"
       inkscape:connector-curvature="0" />
    <path
       d="m 369.42348,327.62272 q 0.42052,-0.25243 1.0302,-0.53481 0.61882,-0.27575 1.32143,-0.53246 0.70926,-0.26583 1.44426,-0.47112 0.74163,-0.21441 1.41943,-0.32176 l 0.73037,0.53065 -2.6068,3.58796 0.66646,0.48421 -0.45105,0.62082 -0.66646,-0.48421 -1.04803,1.44248 -0.73038,-0.53064 1.04803,-1.44249 -2.52892,-1.83737 z m 4.56527,-0.96544 q -0.43886,0.0857 -0.92664,0.21948 -0.47866,0.14044 -0.97473,0.32404 -0.48943,0.17446 -0.96473,0.38709 -0.46618,0.21926 -0.8892,0.45592 l 1.79854,1.30672 z"
       style="font-style:normal;font-variant:normal;font-weight:normal;font-stretch:normal;font-size:42.66666794px;line-height:53.33333588px;font-family:'Ubuntu Mono';-inkscape-font-specification:'Ubuntu Mono';letter-spacing:0px;word-spacing:0px;fill:#ffffff;fill-opacity:1;stroke:none;stroke-width:0.26448974"
       id="path7386"
       inkscape:connector-curvature="0" />
    <path
       d="m 383.08259,309.72147 q 1.28137,0.80495 1.57283,1.67688 0.29146,0.87193 -0.22201,1.76128 -0.23134,0.40069 -0.55587,0.66939 -0.32454,0.26871 -0.73924,0.35504 -0.40493,0.092 -0.90417,-0.0138 -0.48946,-0.10016 -1.05629,-0.42742 -0.23455,-0.13542 -0.44654,-0.30993 -0.20785,-0.1591 -0.38487,-0.32645 -0.17702,-0.16736 -0.30518,-0.30651 -0.12251,-0.14891 -0.16835,-0.2275 l 0.55698,-0.60361 q 0.11123,0.16847 0.37167,0.46217 0.27022,0.29935 0.76864,0.58711 0.39092,0.2257 0.70557,0.29009 0.31466,0.0644 0.55566,0.008 0.25642,-0.0605 0.43768,-0.21641 0.19104,-0.15032 0.31517,-0.36533 0.19184,-0.33228 0.22127,-0.65409 0.0448,-0.32593 -0.13701,-0.66548 -0.17208,-0.3339 -0.60995,-0.70398 -0.42245,-0.37421 -1.15543,-0.79739 0.30691,-0.39616 0.55064,-0.75061 0.25915,-0.35857 0.48182,-0.69912 0.23809,-0.34467 0.451,-0.69086 0.22266,-0.34055 0.46791,-0.72018 l 2.91236,1.68145 -0.39497,0.68411 -2.2087,-1.27519 q -0.0888,0.13117 -0.23809,0.34467 -0.13392,0.20936 -0.29452,0.44241 -0.1606,0.23304 -0.30992,0.44653 -0.14932,0.2135 -0.23809,0.34468 z"
       style="font-style:normal;font-variant:normal;font-weight:normal;font-stretch:normal;font-size:42.66666794px;line-height:53.33333588px;font-family:'Ubuntu Mono';-inkscape-font-specification:'Ubuntu Mono';letter-spacing:0px;word-spacing:0px;fill:#ffffff;fill-opacity:1;stroke:none;stroke-width:0.26448974"
       id="path7383"
       inkscape:connector-curvature="0" />
    <path
       d="m 390.42637,292.02141 q 0.4131,-0.92783 0.97723,-1.52901 0.57903,-0.60691 1.25867,-0.88489 0.68996,-0.2734 1.47481,-0.23278 0.78485,0.0406 1.6348,0.40668 l -0.24913,0.75378 q -0.55099,-0.23295 -1.05508,-0.32151 -0.4892,-0.0943 -0.94987,-0.003 -0.45609,0.0811 -0.86303,0.35693 -0.40694,0.27587 -0.77851,0.77749 0.29791,-0.003 0.6187,0.0531 0.3311,0.0609 0.66099,0.20782 0.53609,0.23868 0.83378,0.56887 0.308,0.33477 0.41088,0.7141 0.10746,0.36902 0.0499,0.77575 -0.0575,0.40672 -0.22738,0.78817 -0.15606,0.35051 -0.4347,0.67115 -0.27406,0.31034 -0.64887,0.51405 -0.37022,0.1934 -0.82856,0.22403 -0.45376,0.0203 -0.96922,-0.20917 -1.06185,-0.47276 -1.27092,-1.41819 -0.20906,-0.94543 0.35551,-2.21347 z m 2.32468,0.24443 q -0.32989,-0.14688 -0.63578,-0.20895 -0.29559,-0.0575 -0.62902,-0.0577 -0.0562,0.0985 -0.10211,0.20159 -0.0413,0.0928 -0.0918,0.20618 -0.17901,0.40206 -0.28812,0.78584 -0.0942,0.37805 -0.0841,0.71607 0.025,0.3323 0.18866,0.60282 0.16827,0.26021 0.5394,0.42545 0.30928,0.1377 0.57054,0.10579 0.26586,-0.0422 0.48709,-0.17843 0.22123,-0.13621 0.37835,-0.35037 0.17201,-0.21988 0.2684,-0.43638 0.27999,-0.62886 0.13821,-1.08728 -0.13147,-0.45382 -0.73972,-0.72463 z"
       style="font-style:normal;font-variant:normal;font-weight:normal;font-stretch:normal;font-size:42.66666794px;line-height:53.33333588px;font-family:'Ubuntu Mono';-inkscape-font-specification:'Ubuntu Mono';letter-spacing:0px;word-spacing:0px;fill:#ffffff;fill-opacity:1;stroke:none;stroke-width:0.26448974"
       id="path7380"
       inkscape:connector-curvature="0" />
  </g>
</svg>
