<?xml version="1.0" encoding="UTF-8" standalone="no"?>
<svg
   xmlns:dc="http://purl.org/dc/elements/1.1/"
   xmlns:cc="http://creativecommons.org/ns#"
   xmlns:rdf="http://www.w3.org/1999/02/22-rdf-syntax-ns#"
   xmlns:svg="http://www.w3.org/2000/svg"
   xmlns="http://www.w3.org/2000/svg"
   id="svg2402"
   version="1.1"
   viewBox="0 0 529.16665 529.16668"
   height="2000"
   width="2000">
  <defs
     id="defs2396" />
  <metadata
     id="metadata2399">
    <rdf:RDF>
      <cc:Work
         rdf:about="">
        <dc:format>image/svg+xml</dc:format>
        <dc:type
           rdf:resource="http://purl.org/dc/dcmitype/StillImage" />
        <dc:title></dc:title>
      </cc:Work>
    </rdf:RDF>
  </metadata>
  <g
     transform="translate(246.44047,335.73214)"
     id="layer1">
    <g
       id="g1176">
      <circle
         style="fill:#333333;fill-opacity:1;stroke:#646464;stroke-width:0.79376692;stroke-miterlimit:4;stroke-dasharray:none;stroke-opacity:1;paint-order:normal"
         id="path5490"
         cx="16.898376"
         cy="-71.454613"
         r="264.18561"
         transform="rotate(1.0000001)" />
      <path
         id="path3695"
         style="font-style:normal;font-variant:normal;font-weight:normal;font-stretch:normal;font-size:42.66666794px;line-height:53.33333588px;font-family:'Ubuntu Mono';-inkscape-font-specification:'Ubuntu Mono';letter-spacing:0px;word-spacing:0px;fill:#ffffff;fill-opacity:1;stroke:none;stroke-width:0.26458898"
         d="m 269.46106,-71.273002 q 0,0.293517 -0.18063,0.508011 -0.16933,0.214494 -0.45156,0.214494 -0.29352,0 -0.47414,-0.214494 -0.18063,-0.214494 -0.18063,-0.508011 0,-0.293516 0.18063,-0.519301 0.18062,-0.225781 0.47414,-0.225781 0.28223,0 0.45156,0.225781 0.18063,0.225785 0.18063,0.519301 z m -2.95775,0.12418 q 0,-1.761104 0.59832,-2.698101 0.60962,-0.948287 1.70466,-0.948287 1.10634,0 1.70466,0.948287 0.59832,0.936997 0.59832,2.698101 0,1.761104 -0.59832,2.709391 -0.59832,0.936999 -1.70466,0.936999 -1.09504,0 -1.70466,-0.936999 -0.59832,-0.948287 -0.59832,-2.709391 z m 3.65767,0 q 0,-0.575746 -0.0677,-1.083757 -0.0677,-0.519298 -0.22578,-0.903129 -0.15805,-0.383831 -0.4177,-0.609613 -0.25965,-0.225782 -0.64348,-0.225782 -0.38383,0 -0.64348,0.225782 -0.25965,0.225782 -0.4177,0.609613 -0.15805,0.383831 -0.22578,0.903129 -0.0677,0.508011 -0.0677,1.083757 0,0.575745 0.0677,1.095046 0.0677,0.508011 0.22578,0.891842 0.15805,0.383829 0.4177,0.609613 0.25965,0.225782 0.64348,0.225782 0.38383,0 0.64348,-0.225782 0.25965,-0.225784 0.4177,-0.609613 0.15805,-0.383831 0.22578,-0.891842 0.0677,-0.519301 0.0677,-1.095046 z" />
      <path
         id="path3698"
         style="font-style:normal;font-variant:normal;font-weight:normal;font-stretch:normal;font-size:42.66666794px;line-height:53.33333588px;font-family:'Ubuntu Mono';-inkscape-font-specification:'Ubuntu Mono';letter-spacing:0px;word-spacing:0px;fill:#ffffff;fill-opacity:1;stroke:none;stroke-width:0.26458895"
         d="m 265.25477,-99.175919 q 0.54899,-0.28473 1.0525,-0.67819 0.50233,-0.404681 0.90718,-0.980751 l 0.65119,-0.0684 0.64784,6.163778 1.31359,-0.138065 0.0826,0.785911 -3.73868,0.392952 -0.0826,-0.785911 1.50446,-0.158124 -0.51214,-4.872642 q -0.1117,0.125254 -0.27835,0.267634 -0.15661,0.129975 -0.35813,0.264667 -0.19029,0.133514 -0.40422,0.25816 -0.21392,0.124646 -0.42016,0.214431 z" />
      <path
         id="path3701"
         style="font-style:normal;font-variant:normal;font-weight:normal;font-stretch:normal;font-size:42.66666794px;line-height:53.33333588px;font-family:'Ubuntu Mono';-inkscape-font-specification:'Ubuntu Mono';letter-spacing:0px;word-spacing:0px;fill:#ffffff;fill-opacity:1;stroke:none;stroke-width:0.26458895"
         d="m 264.85149,-125.3311 q 0.0751,0.35336 0.002,0.71514 -0.0621,0.35944 -0.22592,0.72896 -0.15278,0.36718 -0.37417,0.73739 -0.22138,0.37021 -0.45615,0.73173 -0.13043,0.20085 -0.30199,0.47968 -0.17156,0.27883 -0.31869,0.56402 -0.14712,0.28518 -0.23034,0.54523 -0.0832,0.26006 -0.048,0.4257 l 3.14709,-0.66894 0.1643,0.77297 -4.14091,0.88018 q -0.0228,-0.0529 -0.0345,-0.10808 -0.0141,-0.0662 -0.0258,-0.12146 -0.0986,-0.46378 -0.0285,-0.89417 0.0701,-0.43039 0.23792,-0.83538 0.16783,-0.405 0.40026,-0.77756 0.24111,-0.38595 0.47589,-0.74747 0.19129,-0.29457 0.36285,-0.5734 0.1826,-0.28118 0.29895,-0.54828 0.12739,-0.26945 0.17513,-0.53351 0.0564,-0.27744 1.1e-4,-0.54246 -0.0634,-0.29815 -0.20735,-0.48683 -0.13293,-0.19103 -0.32674,-0.28833 -0.1851,-0.11069 -0.40899,-0.13235 -0.22389,-0.0217 -0.46682,0.03 -0.28711,0.061 -0.51361,0.18996 -0.21546,0.12658 -0.37971,0.27691 -0.15321,0.14798 -0.26225,0.28657 -0.11138,0.12755 -0.16355,0.20788 l -0.58888,-0.54423 q 0.0672,-0.11815 0.21339,-0.29926 0.14616,-0.18111 0.36328,-0.35421 0.2258,-0.18649 0.51622,-0.34055 0.29041,-0.15406 0.64377,-0.22917 1.07111,-0.22767 1.68468,0.16127 0.62227,0.37555 0.81709,1.29207 z" />
      <path
         id="path3704"
         style="font-style:normal;font-variant:normal;font-weight:normal;font-stretch:normal;font-size:42.66666794px;line-height:53.33333588px;font-family:'Ubuntu Mono';-inkscape-font-specification:'Ubuntu Mono';letter-spacing:0px;word-spacing:0px;fill:#ffffff;fill-opacity:1;stroke:none;stroke-width:0.26458895"
         d="m 257.00209,-145.79136 q 0.84819,-0.2756 1.09435,-0.72355 0.25341,-0.46218 0.0685,-1.03122 -0.11861,-0.36505 -0.34916,-0.56315 -0.23054,-0.1981 -0.52633,-0.26818 -0.29578,-0.0701 -0.63881,-0.0298 -0.34303,0.0402 -0.69733,0.15536 l -0.22547,0.0733 -0.23373,-0.71935 0.31136,-0.10117 q 0.2362,-0.0768 0.46919,-0.19993 0.24023,-0.13741 0.40586,-0.32179 0.17287,-0.19861 0.23193,-0.45521 0.0591,-0.25659 -0.0491,-0.58943 -0.17792,-0.54756 -0.59475,-0.6614 -0.40958,-0.12806 -0.86052,0.0185 -0.46167,0.15001 -0.73842,0.39424 -0.28023,0.23349 -0.44961,0.44284 l -0.56335,-0.56477 q 0.17314,-0.23431 0.56826,-0.55262 0.40237,-0.33253 0.96067,-0.51393 0.52609,-0.17094 0.94374,-0.1642 0.41764,0.007 0.73059,0.1662 0.32369,0.15597 0.54645,0.43969 0.21927,0.27299 0.34137,0.64877 0.17094,0.5261 0.0104,0.98184 -0.14981,0.45226 -0.51648,0.78506 0.5642,-0.0171 1.08301,0.30097 0.51532,0.30736 0.74905,1.02671 0.13954,0.42947 0.11133,0.85409 -0.021,0.41039 -0.23438,0.77648 -0.20267,0.36261 -0.62624,0.66642 -0.41284,0.30032 -1.05703,0.50963 -0.24694,0.0802 -0.52931,0.1245 -0.26815,0.0515 -0.51455,0.0604 -0.24291,0.0196 -0.44287,0.0252 -0.19272,-0.009 -0.27834,-0.0164 l -0.0759,-0.81811 q 0.19969,0.0301 0.61385,0.0261 0.41415,-0.004 0.96172,-0.18191 z" />
      <path
         id="path3707"
         style="font-style:normal;font-variant:normal;font-weight:normal;font-stretch:normal;font-size:42.66666794px;line-height:53.33333588px;font-family:'Ubuntu Mono';-inkscape-font-specification:'Ubuntu Mono';letter-spacing:0px;word-spacing:0px;fill:#ffffff;fill-opacity:1;stroke:none;stroke-width:0.26458895"
         d="m 245.36909,-171.13015 q -0.008,-0.49058 0.052,-1.16002 0.0706,-0.67404 0.19967,-1.41115 0.12445,-0.74743 0.31424,-1.48688 0.1852,-0.74976 0.43122,-1.39067 l 0.82505,-0.36733 1.80454,4.05306 0.75286,-0.3352 0.31224,0.7013 -0.75286,0.33519 0.72549,1.62948 -0.82505,0.36733 -0.72549,-1.62947 -2.85674,1.2719 z m 1.44709,-4.43803 q -0.1453,0.42306 -0.27335,0.91258 -0.11775,0.48494 -0.20681,1.00654 -0.0937,0.51128 -0.14719,1.02941 -0.0432,0.51355 -0.0498,0.99841 l 2.03169,-0.90457 z" />
      <path
         id="path3710"
         style="font-style:normal;font-variant:normal;font-weight:normal;font-stretch:normal;font-size:42.66666794px;line-height:53.33333588px;font-family:'Ubuntu Mono';-inkscape-font-specification:'Ubuntu Mono';letter-spacing:0px;word-spacing:0px;fill:#ffffff;fill-opacity:1;stroke:none;stroke-width:0.26458895"
         d="m 234.20293,-196.80366 q 1.3383,-0.70749 2.23948,-0.52387 0.90119,0.18362 1.41484,1.0733 0.23143,0.40084 0.30189,0.8164 0.0705,0.41557 -0.0622,0.81803 -0.12285,0.39682 -0.46423,0.77641 -0.33159,0.37395 -0.89864,0.70133 -0.23464,0.13547 -0.49186,0.23183 -0.24179,0.1005 -0.47533,0.17015 -0.23353,0.0696 -0.41818,0.11108 -0.1903,0.0317 -0.28131,0.0321 l -0.24434,-0.78445 q 0.20159,-0.0121 0.58631,-0.0908 0.39449,-0.0844 0.8931,-0.37225 0.39107,-0.22578 0.60424,-0.46617 0.21317,-0.24039 0.28493,-0.47736 0.0759,-0.25238 0.0314,-0.48743 -0.0347,-0.24069 -0.15886,-0.45577 -0.19191,-0.33241 -0.45599,-0.51887 -0.25995,-0.20188 -0.64507,-0.21417 -0.37535,-0.0179 -0.91498,0.17631 -0.53551,0.17881 -1.26876,0.60216 -0.1897,-0.46404 -0.37486,-0.85249 -0.18103,-0.40387 -0.36468,-0.76712 -0.17952,-0.37867 -0.37295,-0.73627 -0.18366,-0.36325 -0.38988,-0.76561 l 2.91345,-1.68208 0.39512,0.68437 -2.20953,1.27567 q 0.0692,0.14252 0.17952,0.37867 0.11439,0.22074 0.23596,0.47644 0.12157,0.2557 0.23183,0.49186 0.11028,0.23614 0.17952,0.37867 z" />
      <path
         id="path3713"
         style="font-style:normal;font-variant:normal;font-weight:normal;font-stretch:normal;font-size:42.66666794px;line-height:53.33333588px;font-family:'Ubuntu Mono';-inkscape-font-specification:'Ubuntu Mono';letter-spacing:0px;word-spacing:0px;fill:#ffffff;fill-opacity:1;stroke:none;stroke-width:0.26458895"
         d="m 219.55515,-216.61827 q -0.5972,-0.82198 -0.83586,-1.61142 -0.23617,-0.8052 -0.13705,-1.53306 0.10825,-0.73449 0.53601,-1.39413 0.42776,-0.65964 1.17004,-1.21289 l 0.52842,0.59286 q -0.47741,0.36083 -0.80628,0.75325 -0.32637,0.37666 -0.47764,0.82147 -0.15791,0.43567 -0.12245,0.92621 0.0355,0.49054 0.28418,1.06336 0.1462,-0.25972 0.35548,-0.50945 0.21841,-0.25636 0.51067,-0.4687 0.47492,-0.34505 0.90988,-0.4378 0.4441,-0.0994 0.82419,0.001 0.37345,0.0915 0.69702,0.34479 0.32358,0.2533 0.5691,0.59122 0.22561,0.31053 0.36403,0.71231 0.13178,0.39265 0.12078,0.81926 -0.0176,0.41748 -0.22034,0.82989 -0.20935,0.40328 -0.66601,0.73506 -0.94071,0.68346 -1.86435,0.39169 -0.92364,-0.29177 -1.73982,-1.41514 z m 1.37454,-1.89173 q -0.29226,0.21234 -0.49904,0.4463 -0.19764,0.22732 -0.36461,0.51608 0.0572,0.098 0.12357,0.1893 0.0597,0.0822 0.13271,0.18267 0.25879,0.35619 0.5367,0.64267 0.28041,0.27071 0.5783,0.43104 0.30039,0.14456 0.61662,0.13808 0.30959,-0.0156 0.63839,-0.25451 0.27399,-0.19906 0.37702,-0.44137 0.0964,-0.25145 0.0891,-0.51124 -0.007,-0.25979 -0.1143,-0.50303 -0.10446,-0.25901 -0.24381,-0.4508 -0.40477,-0.55712 -0.87283,-0.66358 -0.45893,-0.1131 -0.99779,0.2784 z" />
      <path
         id="path3716"
         style="font-style:normal;font-variant:normal;font-weight:normal;font-stretch:normal;font-size:42.66666794px;line-height:53.33333588px;font-family:'Ubuntu Mono';-inkscape-font-specification:'Ubuntu Mono';letter-spacing:0px;word-spacing:0px;fill:#ffffff;fill-opacity:1;stroke:none;stroke-width:0.26458895"
         d="m 205.96679,-235.55705 q -0.49438,-0.63342 -0.92334,-1.44726 -0.42814,-0.82979 -0.74383,-1.66967 -0.32325,-0.84828 -0.50552,-1.6412 -0.18981,-0.80131 -0.21428,-1.40211 l -2.51684,2.26617 -0.54388,-0.60404 3.28866,-2.96113 0.52122,0.57887 q 0.0127,0.52025 0.16476,1.27961 0.15204,0.75937 0.44257,1.62191 0.29136,0.84661 0.73293,1.72506 0.43402,0.87006 1.01066,1.61171 z" />
      <path
         id="path3719"
         style="font-style:normal;font-variant:normal;font-weight:normal;font-stretch:normal;font-size:42.66666794px;line-height:53.33333588px;font-family:'Ubuntu Mono';-inkscape-font-specification:'Ubuntu Mono';letter-spacing:0px;word-spacing:0px;fill:#ffffff;fill-opacity:1;stroke:none;stroke-width:0.26458895"
         d="m 188.62268,-257.97203 q 0.65437,0.58921 0.67937,1.37127 0.0326,0.77367 -0.73039,1.621 -0.43812,0.48659 -0.85101,0.69208 -0.42129,0.19794 -0.79637,0.2096 -0.37593,-0.004 -0.70315,-0.147 -0.31967,-0.15111 -0.56296,-0.37018 -0.44464,-0.40035 -0.56955,-0.95336 -0.1249,-0.553 -0.0325,-1.07743 -1.04478,0.35052 -1.87533,-0.39732 -0.28524,-0.25683 -0.44712,-0.60006 -0.16187,-0.34324 -0.17353,-0.71832 -0.0117,-0.37509 0.12771,-0.76609 0.14694,-0.39938 0.47175,-0.76013 0.3777,-0.41947 0.76793,-0.59979 0.39778,-0.18872 0.76531,-0.19199 0.35915,-0.0108 0.67798,0.12434 0.31044,0.12761 0.53696,0.33157 0.44464,0.40036 0.56788,0.92147 0.11484,0.51357 0.0434,0.98094 1.18913,-0.49397 2.10359,0.3294 z m -2.35181,2.71317 q 0.13423,0.12086 0.33057,0.2065 0.18794,0.0781 0.41954,0.0739 0.23159,-0.004 0.48923,-0.12157 0.24924,-0.12497 0.49852,-0.40182 0.23417,-0.26008 0.33324,-0.50508 0.0982,-0.26094 0.0865,-0.48414 -0.0125,-0.23915 -0.11067,-0.43385 -0.0981,-0.1947 -0.24914,-0.33067 -0.4782,-0.43057 -1.03959,-0.31322 -0.56979,0.1098 -1.2479,0.59297 -0.11759,0.50177 -0.007,0.93562 0.11067,0.43384 0.49658,0.78132 z m -0.96738,-4.27382 q -0.10907,-0.0982 -0.28862,-0.16873 -0.18794,-0.0781 -0.39521,-0.0672 -0.2081,-0.005 -0.43468,0.0947 -0.23497,0.0922 -0.44648,0.32715 -0.21907,0.2433 -0.29464,0.47907 -0.068,0.22738 -0.0488,0.4422 0.0109,0.20727 0.10816,0.38602 0.0965,0.16281 0.2307,0.28367 0.34396,0.30971 0.86505,0.33836 0.52025,0.0127 1.16814,-0.43692 0.10248,-0.48499 0.017,-0.89617 -0.0779,-0.41958 -0.48063,-0.78216 z" />
      <path
         id="path3722"
         style="font-style:normal;font-variant:normal;font-weight:normal;font-stretch:normal;font-size:42.66666794px;line-height:53.33333588px;font-family:'Ubuntu Mono';-inkscape-font-specification:'Ubuntu Mono';letter-spacing:0px;word-spacing:0px;fill:#ffffff;fill-opacity:1;stroke:none;stroke-width:0.26458895"
         d="m 166.22921,-276.1438 q 1.68962,1.22758 1.95093,2.67331 0.25218,1.43908 -0.93973,3.09881 l -0.65923,-0.43709 q 0.74319,-1.02291 0.79255,-1.93593 0.0469,-0.92878 -0.80266,-1.85299 -0.0588,0.29219 -0.18729,0.6035 -0.13763,0.30467 -0.34997,0.59693 -0.35168,0.48406 -0.72756,0.71331 -0.38501,0.22263 -0.76845,0.25103 -0.39258,0.0218 -0.76946,-0.11251 -0.37689,-0.13428 -0.72394,-0.38644 -0.31053,-0.22561 -0.55719,-0.55831 -0.25581,-0.33935 -0.36805,-0.74184 -0.11224,-0.4025 -0.0469,-0.85736 0.0653,-0.45487 0.39713,-0.91152 0.67682,-0.93158 1.66119,-0.94201 0.98437,-0.0104 2.09861,0.79911 z m -0.75673,2.21312 q 0.21234,-0.29226 0.3367,-0.57866 0.131,-0.29554 0.20306,-0.606 -0.0847,-0.0755 -0.16689,-0.13521 -0.0822,-0.0597 -0.17353,-0.12608 -0.35619,-0.25878 -0.71566,-0.43623 -0.35284,-0.18658 -0.68319,-0.23124 -0.32373,-0.0538 -0.61998,0.0659 -0.29875,0.10389 -0.53763,0.43269 -0.19906,0.27399 -0.21305,0.54291 -0.0231,0.26229 0.0642,0.5071 0.0781,0.23817 0.24838,0.44559 0.17688,0.19828 0.36868,0.33763 0.55711,0.40477 1.02853,0.37051 0.46892,-0.05 0.86043,-0.58887 z" />
      <path
         id="path3725"
         style="font-style:normal;font-variant:normal;font-weight:normal;font-stretch:normal;font-size:42.66666794px;line-height:53.33333588px;font-family:'Ubuntu Mono';-inkscape-font-specification:'Ubuntu Mono';letter-spacing:0px;word-spacing:0px;fill:#ffffff;fill-opacity:1;stroke:none;stroke-width:0.26458895"
         d="m 143.69441,-288.85885 q 0.25419,0.14675 0.34963,0.41043 0.10109,0.2539 -0.04,0.49831 -0.14676,0.2542 -0.42283,0.30337 -0.27607,0.0492 -0.53026,-0.0976 -0.2542,-0.14676 -0.35942,-0.41608 -0.10522,-0.26932 0.0415,-0.52351 0.14111,-0.24442 0.42132,-0.27818 0.28584,-0.0435 0.54004,0.10323 z m -1.37134,2.62357 q -1.52516,-0.88055 -2.03746,-1.86721 -0.51643,-1.00208 0.0311,-1.95042 0.55317,-0.95812 1.67357,-1.00214 1.11062,-0.0497 2.63579,0.83089 1.52516,0.88055 2.04724,1.87286 0.5123,0.98666 -0.0409,1.94478 -0.54752,0.94833 -1.66379,1.00778 -1.12041,0.044 -2.64557,-0.83654 z m 1.82884,-3.16764 q -0.49861,-0.28787 -0.97243,-0.48322 -0.48359,-0.20098 -0.89502,-0.25603 -0.41143,-0.055 -0.73679,0.0569 -0.32536,0.11198 -0.51727,0.44438 -0.19192,0.33241 -0.12621,0.67016 0.0657,0.33776 0.31909,0.66655 0.25339,0.32879 0.66924,0.6471 0.40609,0.31266 0.9047,0.60053 0.49861,0.28788 0.9822,0.48887 0.47382,0.19534 0.88525,0.25038 0.41143,0.055 0.73679,-0.0569 0.32536,-0.11197 0.51727,-0.44437 0.19192,-0.33241 0.12621,-0.67017 -0.0657,-0.33775 -0.31909,-0.66654 -0.25338,-0.32879 -0.65947,-0.64145 -0.41586,-0.31831 -0.91447,-0.60619 z" />
      <path
         id="path3728"
         style="font-style:normal;font-variant:normal;font-weight:normal;font-stretch:normal;font-size:42.66666794px;line-height:53.33333588px;font-family:'Ubuntu Mono';-inkscape-font-specification:'Ubuntu Mono';letter-spacing:0px;word-spacing:0px;fill:#ffffff;fill-opacity:1;stroke:none;stroke-width:0.26458895"
         d="m 117.42662,-299.16755 q 0.0279,-0.61781 -0.0611,-1.25059 -0.0993,-0.63737 -0.39576,-1.27602 l 0.26632,-0.59816 5.66191,2.52084 0.53723,-1.20664 0.72192,0.32142 -1.52904,3.43428 -0.72192,-0.32142 0.61529,-1.38196 -4.4759,-1.9928 q 0.0526,0.15936 0.0926,0.37488 0.0343,0.20061 0.0501,0.44248 0.0205,0.23156 0.0215,0.47914 9.9e-4,0.24759 -0.0244,0.47109 z" />
      <path
         id="path3731"
         style="font-style:normal;font-variant:normal;font-weight:normal;font-stretch:normal;font-size:42.66666794px;line-height:53.33333588px;font-family:'Ubuntu Mono';-inkscape-font-specification:'Ubuntu Mono';letter-spacing:0px;word-spacing:0px;fill:#ffffff;fill-opacity:1;stroke:none;stroke-width:0.26458895"
         d="m 94.573928,-311.8959 q 0.34357,0.11163 0.620317,0.35587 0.280236,0.23349 0.518337,0.56013 0.241593,0.3159 0.451513,0.69273 0.209924,0.37683 0.405622,0.76091 0.108721,0.21337 0.26442,0.50136 0.155697,0.288 0.329109,0.558 0.17341,0.27001 0.357016,0.47211 0.183607,0.2021 0.344656,0.25442 l 0.994231,-3.05993 0.751563,0.2442 -1.308199,4.02623 q -0.05717,-0.007 -0.110859,-0.0241 -0.06442,-0.0209 -0.118101,-0.0384 -0.450937,-0.14652 -0.788616,-0.42242 -0.337678,-0.27589 -0.604501,-0.62373 -0.266825,-0.34784 -0.473257,-0.73541 -0.213685,-0.40179 -0.409383,-0.78587 -0.159455,-0.31295 -0.315153,-0.60094 -0.15221,-0.29873 -0.32535,-0.53304 -0.169652,-0.24504 -0.374462,-0.41842 -0.212055,-0.1876 -0.469733,-0.27133 -0.289888,-0.0942 -0.525281,-0.0638 -0.231906,0.0196 -0.413073,0.1388 -0.188413,0.10496 -0.319115,0.28802 -0.130701,0.18307 -0.207449,0.41927 -0.0907,0.27915 -0.09229,0.53978 0.0019,0.24989 0.04996,0.46729 0.05155,0.20667 0.117052,0.3704 0.05477,0.16024 0.09825,0.24559 l -0.765753,0.23786 q -0.06872,-0.11729 -0.152479,-0.33443 -0.08376,-0.21713 -0.125114,-0.49171 -0.0486,-0.2888 -0.03682,-0.61734 0.01179,-0.32853 0.12342,-0.6721 0.338388,-1.04145 0.982007,-1.37835 0.636371,-0.35113 1.527511,-0.0616 z" />
      <path
         id="path3734"
         style="font-style:normal;font-variant:normal;font-weight:normal;font-stretch:normal;font-size:42.66666794px;line-height:53.33333588px;font-family:'Ubuntu Mono';-inkscape-font-specification:'Ubuntu Mono';letter-spacing:0px;word-spacing:0px;fill:#ffffff;fill-opacity:1;stroke:none;stroke-width:0.26458895"
         d="m 72.930111,-315.32825 q 0.185425,-0.87235 -0.07944,-1.30952 -0.273555,-0.45055 -0.858803,-0.57494 -0.375443,-0.0798 -0.662278,0.0208 -0.286838,0.10061 -0.495416,0.32173 -0.208577,0.22111 -0.345246,0.5383 -0.136669,0.31719 -0.214124,0.6816 l -0.04929,0.23189 -0.739844,-0.15726 0.06807,-0.32023 q 0.05164,-0.24294 0.06145,-0.5063 0.0011,-0.27675 -0.07575,-0.51238 -0.08557,-0.24901 -0.278251,-0.42847 -0.192682,-0.17945 -0.534998,-0.25221 -0.563164,-0.1197 -0.870164,0.18436 -0.315693,0.29068 -0.414273,0.75447 -0.100927,0.47482 -0.02779,0.8366 0.06209,0.35944 0.158704,0.61081 l -0.770782,0.20548 q -0.116346,-0.2671 -0.194446,-0.76843 -0.08679,-0.51473 0.03526,-1.08893 0.11501,-0.54108 0.329669,-0.8994 0.214659,-0.35832 0.50923,-0.54962 0.296917,-0.20234 0.654008,-0.25339 0.346051,-0.0534 0.732535,0.0288 0.54108,0.11501 0.855496,0.48192 0.316765,0.35586 0.421643,0.8398 0.267256,-0.49717 0.802148,-0.78742 0.523845,-0.2926 1.263689,-0.13534 0.441698,0.0939 0.795323,0.33063 0.34493,0.22335 0.55527,0.59122 0.212689,0.35682 0.264007,0.87555 0.05367,0.50768 -0.08716,1.17023 -0.05398,0.25398 -0.156833,0.52065 -0.08946,0.25797 -0.205004,0.47578 -0.104501,0.22016 -0.199617,0.39614 -0.103808,0.1626 -0.153366,0.23285 l -0.746457,-0.34332 q 0.125892,-0.1579 0.329511,-0.51857 0.203616,-0.36067 0.32332,-0.92383 z" />
      <path
         id="path3737"
         style="font-style:normal;font-variant:normal;font-weight:normal;font-stretch:normal;font-size:42.66666794px;line-height:53.33333588px;font-family:'Ubuntu Mono';-inkscape-font-specification:'Ubuntu Mono';letter-spacing:0px;word-spacing:0px;fill:#ffffff;fill-opacity:1;stroke:none;stroke-width:0.26458895"
         d="m 45.169591,-317.92315 q -0.429029,-0.23807 -0.978628,-0.62502 -0.548419,-0.39818 -1.122256,-0.87849 -0.585069,-0.4815 -1.130552,-1.01558 -0.556712,-0.53527 -0.988745,-1.06878 l 0.0944,-0.89819 4.412323,0.46375 0.08614,-0.81959 0.763457,0.0802 -0.08614,0.81959 1.77391,0.18644 -0.0944,0.89819 -1.77391,-0.18645 -0.326869,3.10996 z m -3.119906,-3.47223 q 0.29373,0.33736 0.653643,0.69302 0.361096,0.34444 0.768279,0.68237 0.395955,0.33675 0.817907,0.64218 0.423129,0.2942 0.839752,0.54231 l 0.232467,-2.21177 z" />
      <path
         id="path3740"
         style="font-style:normal;font-variant:normal;font-weight:normal;font-stretch:normal;font-size:42.66666794px;line-height:53.33333588px;font-family:'Ubuntu Mono';-inkscape-font-specification:'Ubuntu Mono';letter-spacing:0px;word-spacing:0px;fill:#ffffff;fill-opacity:1;stroke:none;stroke-width:0.26458895"
         d="m 17.352604,-321.08974 q 0.05644,-1.51274 0.666057,-2.20138 0.609613,-0.68863 1.636925,-0.68863 0.462853,0 0.857972,0.14676 0.395121,0.14676 0.677348,0.46285 0.282229,0.30481 0.440276,0.79024 0.158049,0.47414 0.158049,1.12891 0,0.27094 -0.04516,0.54188 -0.03387,0.25965 -0.09031,0.49672 -0.05645,0.23707 -0.112893,0.4177 -0.06773,0.18063 -0.112892,0.25965 l -0.801527,-0.18062 q 0.09031,-0.18063 0.214494,-0.55317 0.12418,-0.38383 0.12418,-0.95958 0,-0.45156 -0.101602,-0.75637 -0.101602,-0.30481 -0.270939,-0.48543 -0.180627,-0.19192 -0.406409,-0.27094 -0.225782,-0.0903 -0.474143,-0.0903 -0.383832,0 -0.677348,0.13547 -0.304807,0.12418 -0.508011,0.45156 -0.203204,0.3161 -0.304806,0.88055 -0.112893,0.55317 -0.112893,1.39985 -0.49672,-0.0677 -0.925706,-0.1016 -0.440276,-0.0452 -0.846685,-0.0677 -0.417699,-0.0339 -0.824107,-0.0452 -0.406409,-0.0226 -0.857975,-0.0452 v -3.36417 h 0.79024 v 2.55135 q 0.158047,0.0113 0.417699,0.0339 0.248359,0.0113 0.530588,0.0339 0.282229,0.0226 0.541878,0.0452 0.259649,0.0226 0.417699,0.0339 z" />
      <path
         id="path3743"
         style="font-style:normal;font-variant:normal;font-weight:normal;font-stretch:normal;font-size:42.66666794px;line-height:53.33333588px;font-family:'Ubuntu Mono';-inkscape-font-specification:'Ubuntu Mono';letter-spacing:0px;word-spacing:0px;fill:#ffffff;fill-opacity:1;stroke:none;stroke-width:0.26458892"
         d="m -7.131246,-318.31169 q -1.0104556,0.1062 -1.8134592,-0.0818 -0.8154115,-0.19808 -1.3961948,-0.64785 -0.581966,-0.46099 -0.939348,-1.16126 -0.357386,-0.70028 -0.465377,-1.61973 l 0.777651,-0.1612 q 0.07378,0.59387 0.249191,1.07489 0.163015,0.47097 0.472591,0.82438 0.298348,0.35459 0.7408991,0.56915 0.4425485,0.21457 1.0629824,0.28557 -0.1518201,-0.25647 -0.2634528,-0.56257 -0.1128105,-0.31734 -0.1505715,-0.67661 -0.061362,-0.58382 0.075792,-1.00688 0.1359763,-0.43429 0.4131521,-0.71315 0.2659477,-0.27768 0.6471042,-0.43126 0.3811537,-0.15357 0.7965641,-0.19723 0.3817259,-0.0401 0.7988885,0.0409 0.4059373,0.0822 0.7698965,0.30503 0.3527312,0.22401 0.6085317,0.60577 0.2445724,0.38294 0.3035744,0.94431 0.1215434,1.1564 -0.5929574,1.81042 -0.7145009,0.65401 -2.0954569,0.79916 z m -0.951014,-2.13626 q 0.037761,0.35928 0.1369857,0.65533 0.098045,0.28483 0.2646332,0.57381 0.1134547,-5.6e-4 0.2257258,-0.0124 0.1010455,-0.0106 0.2245474,-0.0236 0.4378641,-0.046 0.8249181,-0.14345 0.3746484,-0.10749 0.6624445,-0.2853 0.2753882,-0.18787 0.4278849,-0.46497 0.1412683,-0.27593 0.098787,-0.68012 -0.035401,-0.33681 -0.1937291,-0.5472 -0.1695562,-0.2092 -0.3982161,-0.33274 -0.2286572,-0.12353 -0.4927866,-0.15253 -0.276535,-0.039 -0.512308,-0.0143 -0.6848626,0.072 -1.0110964,0.42411 -0.3274113,0.3409 -0.2577893,1.0033 z" />
      <path
         id="path3746"
         style="font-style:normal;font-variant:normal;font-weight:normal;font-stretch:normal;font-size:42.66666794px;line-height:53.33333588px;font-family:'Ubuntu Mono';-inkscape-font-specification:'Ubuntu Mono';letter-spacing:0px;word-spacing:0px;fill:#ffffff;fill-opacity:1;stroke:none;stroke-width:0.26458892"
         d="m -30.326887,-316.01322 q -0.795748,0.11143 -1.715044,0.076 -0.932684,-0.0441 -1.817893,-0.19066 -0.896249,-0.1442 -1.674073,-0.38281 -0.788863,-0.23627 -1.321408,-0.51548 l 0.704143,3.31273 -0.795056,0.16899 -0.920079,-4.32863 0.761928,-0.16195 q 0.456901,0.24912 1.190553,0.49712 0.733653,0.24801 1.625904,0.42768 0.878857,0.17097 1.860406,0.22779 0.970507,0.0592 1.901111,-0.0694 z" />
      <path
         id="path3749"
         style="font-style:normal;font-variant:normal;font-weight:normal;font-stretch:normal;font-size:42.66666794px;line-height:53.33333588px;font-family:'Ubuntu Mono';-inkscape-font-specification:'Ubuntu Mono';letter-spacing:0px;word-spacing:0px;fill:#ffffff;fill-opacity:1;stroke:none;stroke-width:0.26458892"
         d="m -58.410879,-312.20026 q 0.837455,-0.27211 1.527238,0.0973 0.686295,0.35865 1.038636,1.44304 0.202336,0.62273 0.173851,1.08304 -0.03922,0.46381 -0.216664,0.79448 -0.191668,0.32342 -0.478881,0.53544 -0.290702,0.20128 -0.602062,0.30245 -0.569039,0.18489 -1.110408,0.0166 -0.541367,-0.16833 -0.949325,-0.51058 -0.218831,1.08006 -1.281754,1.42543 -0.365043,0.11861 -0.743229,0.0872 -0.378187,-0.0314 -0.708853,-0.20887 -0.330665,-0.17744 -0.599589,-0.49364 -0.272411,-0.32695 -0.422417,-0.78862 -0.174427,-0.53683 -0.135477,-0.96494 0.03546,-0.43885 0.216393,-0.75878 0.170193,-0.31644 0.446671,-0.52497 0.265737,-0.20505 0.555625,-0.29924 0.569042,-0.18489 1.08196,-0.031 0.50218,0.15732 0.87122,0.45287 0.166775,-1.27681 1.337065,-1.65706 z m 1.173773,3.39331 q 0.171784,-0.0558 0.344111,-0.18303 0.161593,-0.12373 0.273803,-0.32637 0.112209,-0.20264 0.139337,-0.48447 0.01639,-0.27833 -0.09873,-0.63264 -0.108145,-0.33284 -0.270785,-0.54113 -0.176865,-0.21555 -0.376016,-0.31702 -0.213377,-0.10872 -0.431055,-0.12109 -0.217679,-0.0124 -0.410938,0.0504 -0.611986,0.19885 -0.791054,0.74371 -0.189806,0.54834 -0.110418,1.3772 0.375748,0.35271 0.806803,0.47379 0.431056,0.12109 0.92494,-0.0394 z m -4.184934,-1.29914 q -0.139575,0.0453 -0.29043,0.16559 -0.16159,0.12372 -0.255816,0.30865 -0.108449,0.17768 -0.135308,0.42381 -0.0376,0.24962 0.06008,0.55024 0.101167,0.31136 0.267567,0.4947 0.162912,0.1726 0.358575,0.26333 0.184927,0.0942 0.388379,0.0993 0.18923,-0.002 0.361016,-0.058 0.4402,-0.14303 0.725549,-0.57998 0.271125,-0.44419 0.205691,-1.2301 -0.36877,-0.33124 -0.767616,-0.46279 -0.402334,-0.14229 -0.91769,0.0252 z" />
      <path
         id="path3752"
         style="font-style:normal;font-variant:normal;font-weight:normal;font-stretch:normal;font-size:42.66666794px;line-height:53.33333588px;font-family:'Ubuntu Mono';-inkscape-font-specification:'Ubuntu Mono';letter-spacing:0px;word-spacing:0px;fill:#ffffff;fill-opacity:1;stroke:none;stroke-width:0.26458895"
         d="m -85.344828,-301.89284 q 1.907929,-0.84946 3.290617,-0.3529 1.372374,0.50115 2.213784,2.36324 l -0.708142,0.35236 q -0.514271,-1.15508 -1.280286,-1.65433 -0.780918,-0.50498 -2.006066,-0.23138 0.223645,0.19701 0.428997,0.46395 0.195038,0.27153 0.341972,0.60155 0.243361,0.5466 0.253966,0.98675 2.9e-4,0.44474 -0.166834,0.79101 -0.177437,0.35086 -0.482167,0.61011 -0.30473,0.25925 -0.696629,0.43374 -0.350647,0.15611 -0.762114,0.20338 -0.421781,0.0519 -0.826471,-0.0522 -0.404691,-0.10404 -0.76594,-0.38807 -0.361252,-0.28403 -0.590837,-0.79969 -0.468353,-1.05194 0.0148,-1.90964 0.483148,-0.8577 1.741352,-1.41789 z m 1.538257,1.76191 q -0.146935,-0.33002 -0.332789,-0.58093 -0.190447,-0.26121 -0.423275,-0.47885 -0.107727,0.0356 -0.200545,0.0769 -0.09282,0.0413 -0.195948,0.0872 -0.402212,0.17907 -0.735623,0.40166 -0.338,0.21228 -0.541857,0.47605 -0.208451,0.25345 -0.252947,0.56984 -0.0594,0.31067 0.105902,0.68194 0.137751,0.3094 0.363654,0.45597 0.215592,0.15116 0.471234,0.19799 0.245329,0.0514 0.51008,0.008 0.260162,-0.054 0.476738,-0.15047 0.629099,-0.2801 0.835145,-0.70549 0.191138,-0.4311 -0.07977,-1.03958 z" />
      <path
         id="path3755"
         style="font-style:normal;font-variant:normal;font-weight:normal;font-stretch:normal;font-size:42.66666794px;line-height:53.33333588px;font-family:'Ubuntu Mono';-inkscape-font-specification:'Ubuntu Mono';letter-spacing:0px;word-spacing:0px;fill:#ffffff;fill-opacity:1;stroke:none;stroke-width:0.26458895"
         d="m -107.62381,-288.73466 q 0.2542,-0.14676 0.53027,-0.0976 0.27042,0.0394 0.41154,0.28382 0.14676,0.2542 0.0513,0.51787 -0.0954,0.26367 -0.34964,0.41043 -0.25419,0.14676 -0.54004,0.10323 -0.28584,-0.0435 -0.4326,-0.29773 -0.14111,-0.24442 -0.0303,-0.50396 0.10522,-0.26932 0.35941,-0.41608 z m 1.58642,2.4994 q -1.52516,0.88055 -2.63578,0.83089 -1.12605,-0.0538 -1.67357,-1.00214 -0.55317,-0.95811 -0.0311,-1.95042 0.5123,-0.98666 2.03746,-1.86721 1.52516,-0.88055 2.64556,-0.83653 1.11063,0.0497 1.6638,1.00777 0.54752,0.94834 0.0409,1.94478 -0.52208,0.99231 -2.04724,1.87286 z m -1.82884,-3.16764 q -0.49861,0.28787 -0.90469,0.60054 -0.41586,0.31831 -0.66924,0.64709 -0.25339,0.32879 -0.31909,0.66655 -0.0657,0.33775 0.12621,0.67016 0.19191,0.33241 0.51727,0.44438 0.32536,0.11197 0.73679,0.0569 0.41143,-0.055 0.89502,-0.25603 0.47382,-0.19535 0.97243,-0.48322 0.49861,-0.28787 0.91447,-0.60618 0.40608,-0.31267 0.65947,-0.64146 0.25338,-0.32879 0.31909,-0.66654 0.0657,-0.33776 -0.12621,-0.67016 -0.19192,-0.33241 -0.51727,-0.44438 -0.32536,-0.11197 -0.73679,-0.0569 -0.41143,0.055 -0.88525,0.25039 -0.4836,0.20099 -0.98221,0.48886 z" />
      <path
         id="path3758"
         style="font-style:normal;font-variant:normal;font-weight:normal;font-stretch:normal;font-size:42.66666794px;line-height:53.33333588px;font-family:'Ubuntu Mono';-inkscape-font-specification:'Ubuntu Mono';letter-spacing:0px;word-spacing:0px;fill:#ffffff;fill-opacity:1;stroke:none;stroke-width:0.26458895"
         d="m -129.68528,-271.14045 q -0.52108,-0.33307 -1.11358,-0.57239 -0.60163,-0.23269 -1.30295,-0.29527 l -0.38486,-0.52972 5.01407,-3.64294 -0.77636,-1.06857 0.63931,-0.46449 2.20965,3.04132 -0.63931,0.46449 -0.88917,-1.22383 -3.96377,2.87984 q 0.16433,0.0341 0.37096,0.10725 0.19087,0.0706 0.40827,0.17781 0.21077,0.098 0.42568,0.22098 0.21491,0.12294 0.39579,0.25666 z" />
      <path
         id="path3761"
         style="font-style:normal;font-variant:normal;font-weight:normal;font-stretch:normal;font-size:42.66666794px;line-height:53.33333588px;font-family:'Ubuntu Mono';-inkscape-font-specification:'Ubuntu Mono';letter-spacing:0px;word-spacing:0px;fill:#ffffff;fill-opacity:1;stroke:none;stroke-width:0.26458895"
         d="m -152.1347,-257.7136 q 0.26846,-0.24172 0.61835,-0.35928 0.34233,-0.12594 0.74425,-0.16883 0.39438,-0.0513 0.82568,-0.0446 0.43131,0.007 0.86178,0.0292 0.23915,0.0125 0.56641,0.0217 0.32725,0.009 0.64779,-0.006 0.32054,-0.0152 0.58737,-0.0731 0.26682,-0.058 0.39266,-0.17126 l -2.15286,-2.391 0.58726,-0.52877 2.83272,3.14604 q -0.0344,0.0462 -0.0763,0.0839 -0.0503,0.0453 -0.0923,0.0831 -0.35236,0.31727 -0.76013,0.47175 -0.40778,0.15449 -0.84243,0.21165 -0.43465,0.0572 -0.87351,0.0421 -0.4548,-0.0158 -0.88527,-0.0384 -0.35075,-0.0184 -0.67801,-0.0275 -0.33481,-0.0176 -0.6243,0.0152 -0.29704,0.0244 -0.54959,0.11508 -0.2685,0.0899 -0.46985,0.27114 -0.22651,0.20396 -0.31793,0.42299 -0.099,0.21064 -0.0863,0.42713 -0.003,0.21565 0.0899,0.42037 0.0932,0.20472 0.25937,0.38929 0.1964,0.21813 0.42132,0.34982 0.21735,0.1233 0.42967,0.19038 0.20475,0.0587 0.37929,0.0838 0.16616,0.0327 0.26182,0.0377 l -0.17688,0.78209 q -0.13594,8.7e-4 -0.36586,-0.0352 -0.22993,-0.036 -0.4884,-0.1375 -0.27441,-0.10231 -0.55304,-0.27679 -0.27862,-0.17447 -0.52035,-0.44293 -0.73273,-0.81378 -0.70268,-1.53962 0.0141,-0.72668 0.71043,-1.35365 z" />
      <path
         id="path3764"
         style="font-style:normal;font-variant:normal;font-weight:normal;font-stretch:normal;font-size:42.66666794px;line-height:53.33333588px;font-family:'Ubuntu Mono';-inkscape-font-specification:'Ubuntu Mono';letter-spacing:0px;word-spacing:0px;fill:#ffffff;fill-opacity:1;stroke:none;stroke-width:0.26458895"
         d="m -165.9291,-240.68569 q -0.66277,-0.59675 -1.1738,-0.58596 -0.52696,0.0116 -0.92732,0.45627 -0.25683,0.28524 -0.31312,0.58395 -0.0563,0.29872 0.0309,0.58991 0.0872,0.29119 0.29356,0.56815 0.20636,0.27695 0.48321,0.52623 l 0.17618,0.15863 -0.50611,0.56209 -0.24329,-0.21906 q -0.18457,-0.16619 -0.40775,-0.30637 -0.23911,-0.13934 -0.4816,-0.19058 -0.25844,-0.0504 -0.51019,0.0267 -0.25175,0.0771 -0.48592,0.33721 -0.38525,0.42786 -0.27542,0.84577 0.0939,0.41873 0.44624,0.736 0.36075,0.32482 0.71063,0.44237 0.34233,0.12594 0.60832,0.16796 l -0.20743,0.77026 q -0.28949,-0.0328 -0.76271,-0.21582 -0.48916,-0.1822 -0.92541,-0.575 -0.41108,-0.37014 -0.61407,-0.7352 -0.20298,-0.36506 -0.22136,-0.71582 -0.0268,-0.35831 0.10756,-0.69308 0.12678,-0.32639 0.39116,-0.62002 0.37014,-0.41108 0.8451,-0.49992 0.46657,-0.0964 0.93812,0.0548 -0.29694,-0.48004 -0.28086,-1.0884 0.009,-0.59996 0.51464,-1.16205 0.30215,-0.33558 0.68399,-0.52346 0.3659,-0.18704 0.78965,-0.18527 0.41536,-0.006 0.89025,0.20914 0.4665,0.20736 0.96987,0.6606 0.19296,0.17374 0.37248,0.39614 0.17868,0.20647 0.30954,0.41544 0.13841,0.20057 0.24326,0.37094 0.0889,0.1712 0.12497,0.24924 l -0.67056,0.47479 q -0.0738,-0.18797 -0.28433,-0.54465 -0.21054,-0.35667 -0.6384,-0.74192 z" />
      <path
         id="path3767"
         style="font-style:normal;font-variant:normal;font-weight:normal;font-stretch:normal;font-size:42.66666794px;line-height:53.33333588px;font-family:'Ubuntu Mono';-inkscape-font-specification:'Ubuntu Mono';letter-spacing:0px;word-spacing:0px;fill:#ffffff;fill-opacity:1;stroke:none;stroke-width:0.26458895"
         d="m -182.05663,-217.94183 q -0.42068,0.25252 -1.03059,0.53501 -0.61905,0.27585 -1.32193,0.53266 -0.70952,0.26593 -1.44479,0.47129 -0.74191,0.2145 -1.41997,0.32189 l -0.73065,-0.53085 2.60779,-3.5893 -0.66672,-0.4844 0.45122,-0.62105 0.66672,0.48439 1.04842,-1.44303 0.73065,0.53085 -1.04842,1.44303 2.52986,1.83806 z m -4.56699,0.96581 q 0.43903,-0.0857 0.927,-0.21957 0.47884,-0.14049 0.97509,-0.32416 0.48961,-0.17453 0.96509,-0.38724 0.46635,-0.21934 0.88954,-0.45609 l -1.79922,-1.30721 z" />
      <path
         id="path3770"
         style="font-style:normal;font-variant:normal;font-weight:normal;font-stretch:normal;font-size:42.66666794px;line-height:53.33333588px;font-family:'Ubuntu Mono';-inkscape-font-specification:'Ubuntu Mono';letter-spacing:0px;word-spacing:0px;fill:#ffffff;fill-opacity:1;stroke:none;stroke-width:0.26458895"
         d="m -198.70745,-195.4349 q -1.28186,-0.80525 -1.57343,-1.67751 -0.29157,-0.87226 0.22209,-1.76194 0.23143,-0.40084 0.55608,-0.66964 0.32466,-0.26881 0.73952,-0.35518 0.40509,-0.092 0.9045,0.0138 0.48965,0.1002 1.0567,0.42758 0.23464,0.13547 0.4467,0.31005 0.20793,0.15916 0.38502,0.32657 0.17708,0.16742 0.30529,0.30662 0.12256,0.14897 0.16841,0.22759 l -0.55719,0.60383 q -0.11127,-0.16852 -0.37181,-0.46234 -0.27031,-0.29946 -0.76892,-0.58733 -0.39107,-0.22578 -0.70584,-0.29019 -0.31477,-0.0644 -0.55587,-0.008 -0.25651,0.0605 -0.43784,0.21649 -0.19111,0.15038 -0.31529,0.36546 -0.19191,0.33241 -0.22135,0.65434 -0.0449,0.32606 0.13706,0.66573 0.17214,0.33403 0.61018,0.70425 0.42261,0.37435 1.15586,0.79769 -0.30702,0.39631 -0.55084,0.75089 -0.25925,0.35871 -0.48201,0.69938 -0.23818,0.3448 -0.45116,0.69112 -0.22275,0.34067 -0.46809,0.72045 l -2.91345,-1.68208 0.39512,-0.68437 2.20953,1.27567 q 0.0888,-0.13122 0.23818,-0.3448 0.13396,-0.20944 0.29462,-0.44257 0.16066,-0.23313 0.31005,-0.4467 0.14937,-0.21358 0.23818,-0.34481 z" />
      <path
         id="path3773"
         style="font-style:normal;font-variant:normal;font-weight:normal;font-stretch:normal;font-size:42.66666794px;line-height:53.33333588px;font-family:'Ubuntu Mono';-inkscape-font-specification:'Ubuntu Mono';letter-spacing:0px;word-spacing:0px;fill:#ffffff;fill-opacity:1;stroke:none;stroke-width:0.26458895"
         d="m -208.54352,-172.84224 q -0.41325,0.92818 -0.9776,1.52959 -0.57924,0.60712 -1.25914,0.88521 -0.69022,0.2735 -1.47536,0.23287 -0.78515,-0.0406 -1.63542,-0.40684 l 0.24923,-0.75406 q 0.55119,0.23304 1.05547,0.32164 0.48938,0.0943 0.95023,0.003 0.45626,-0.0811 0.86335,-0.35706 0.4071,-0.27597 0.77881,-0.77778 -0.29803,0.003 -0.61894,-0.0531 -0.33122,-0.061 -0.66124,-0.20791 -0.53628,-0.23877 -0.83409,-0.56908 -0.30812,-0.3349 -0.41103,-0.71437 -0.1075,-0.36916 -0.0499,-0.77604 0.0576,-0.40687 0.22747,-0.78846 0.15611,-0.35065 0.43486,-0.67141 0.27415,-0.31045 0.64911,-0.51424 0.37036,-0.19347 0.82887,-0.22412 0.45393,-0.0203 0.96958,0.20925 1.06225,0.47295 1.2714,1.41873 0.20914,0.94578 -0.35564,2.2143 z m -2.32556,-0.24452 q 0.33002,0.14693 0.63603,0.20903 0.29569,0.0575 0.62925,0.0577 0.0562,-0.0985 0.10215,-0.20167 0.0413,-0.0928 0.0918,-0.20626 0.17907,-0.40221 0.28822,-0.78613 0.0942,-0.3782 0.0841,-0.71634 -0.025,-0.33243 -0.18873,-0.60305 -0.16833,-0.2603 -0.5396,-0.42561 -0.3094,-0.13775 -0.57076,-0.10582 -0.26595,0.0422 -0.48727,0.17849 -0.22131,0.13626 -0.37848,0.3505 -0.17208,0.21997 -0.26851,0.43654 -0.28009,0.6291 -0.13826,1.08769 0.13152,0.454 0.73999,0.72491 z" />
      <path
         id="path3776"
         style="font-style:normal;font-variant:normal;font-weight:normal;font-stretch:normal;font-size:42.66666794px;line-height:53.33333588px;font-family:'Ubuntu Mono';-inkscape-font-specification:'Ubuntu Mono';letter-spacing:0px;word-spacing:0px;fill:#ffffff;fill-opacity:1;stroke:none;stroke-width:0.26458895"
         d="m -218.1508,-151.605 q -0.30137,0.74486 -0.7917,1.52328 -0.50455,0.78567 -1.07406,1.47901 -0.573,0.70408 -1.16856,1.25838 -0.59905,0.56505 -1.10713,0.88664 l 3.22098,1.04656 -0.25117,0.77303 -4.20875,-1.3675 0.24071,-0.74083 q 0.4442,-0.27112 1.0258,-0.78248 0.58161,-0.51136 1.18333,-1.19424 0.5875,-0.67563 1.12748,-1.49726 0.53649,-0.81091 0.89045,-1.68111 z" />
      <path
         id="path3779"
         style="font-style:normal;font-variant:normal;font-weight:normal;font-stretch:normal;font-size:42.66666794px;line-height:53.33333588px;font-family:'Ubuntu Mono';-inkscape-font-specification:'Ubuntu Mono';letter-spacing:0px;word-spacing:0px;fill:#ffffff;fill-opacity:1;stroke:none;stroke-width:0.26458895"
         d="m -228.89069,-125.37706 q 0.18307,-0.86131 0.84786,-1.27399 0.65374,-0.41502 1.76903,-0.17796 0.64046,0.13613 1.02486,0.39096 0.38206,0.26587 0.57971,0.58487 0.18425,0.3277 0.22426,0.68245 0.029,0.35239 -0.0391,0.67262 -0.1244,0.58525 -0.54086,0.96993 -0.41646,0.38467 -0.91684,0.56684 0.82594,0.72955 0.59358,1.82275 -0.0798,0.37544 -0.29612,0.68724 -0.21631,0.31181 -0.53532,0.50945 -0.319,0.19764 -0.7273,0.27244 -0.41935,0.0724 -0.89417,-0.0285 -0.55212,-0.11735 -0.9034,-0.36514 -0.36232,-0.25013 -0.54892,-0.56679 -0.18895,-0.30561 -0.23131,-0.64932 -0.0447,-0.33265 0.0187,-0.6308 0.1244,-0.58525 0.51408,-0.95253 0.38734,-0.35624 0.82781,-0.52807 -1.02236,-0.78283 -0.76652,-1.98646 z m 3.52557,0.68014 q 0.0376,-0.17668 0.0135,-0.38953 -0.0263,-0.2018 -0.14574,-0.4003 -0.11939,-0.1985 -0.34989,-0.3629 -0.23285,-0.15337 -0.59725,-0.23082 -0.34232,-0.0728 -0.60403,-0.0361 -0.2751,0.0454 -0.46255,0.16713 -0.20085,0.13043 -0.32039,0.31276 -0.11955,0.18233 -0.1618,0.3811 -0.13378,0.62942 0.24854,1.05692 0.37998,0.43855 1.13748,0.78423 0.49334,-0.14905 0.81372,-0.46182 0.32039,-0.31276 0.42836,-0.82071 z m -3.21754,2.97469 q -0.0305,0.14355 -0.002,0.33431 0.0264,0.20181 0.13939,0.37587 0.0996,0.18276 0.29938,0.32909 0.19737,0.15736 0.50656,0.22308 0.32023,0.0681 0.56221,0.0156 0.23093,-0.0548 0.40734,-0.17886 0.17406,-0.11304 0.28022,-0.28668 0.0928,-0.16495 0.13032,-0.34163 0.0962,-0.45273 -0.1395,-0.91833 -0.24913,-0.4569 -0.96246,-0.79318 -0.47124,0.15374 -0.78459,0.43338 -0.32439,0.27728 -0.43705,0.80732 z" />
      <path
         id="path3782"
         style="font-style:normal;font-variant:normal;font-weight:normal;font-stretch:normal;font-size:42.66666794px;line-height:53.33333588px;font-family:'Ubuntu Mono';-inkscape-font-specification:'Ubuntu Mono';letter-spacing:0px;word-spacing:0px;fill:#ffffff;fill-opacity:1;stroke:none;stroke-width:0.26458892"
         d="m -233.43116,-96.897863 q 0.21831,-2.077047 1.33969,-3.026209 1.12019,-0.937938 3.15351,-0.735578 l -0.0489,0.789452 q -1.25745,-0.132162 -2.07283,0.281597 -0.82778,0.423805 -1.20341,1.621616 0.28244,-0.09518 0.61629,-0.139549 0.33267,-0.03314 0.69194,0.0046 0.59505,0.06254 0.98153,0.273432 0.3853,0.222119 0.60162,0.539988 0.21514,0.329097 0.28729,0.722626 0.0721,0.393529 0.0273,0.820165 -0.0401,0.381729 -0.20492,0.761702 -0.16598,0.391202 -0.45843,0.689652 -0.29245,0.298452 -0.71905,0.469288 -0.4266,0.170838 -0.98797,0.111836 -1.14518,-0.120364 -1.6464,-0.967636 -0.50121,-0.84727 -0.35725,-2.217001 z m 2.29498,-0.451216 q -0.35927,-0.03776 -0.66948,-0.0023 -0.32145,0.03432 -0.62634,0.127141 -0.023,0.111093 -0.0337,0.212139 -0.0106,0.101045 -0.0224,0.213316 -0.046,0.437864 -0.02,0.837901 0.0148,0.398855 0.14134,0.707284 0.11528,0.307251 0.36703,0.503981 0.23935,0.206776 0.64353,0.249257 0.33682,0.0354 0.5767,-0.08695 0.23871,-0.111127 0.40708,-0.309106 0.1672,-0.18675 0.26171,-0.437897 0.0833,-0.252329 0.10805,-0.488102 0.072,-0.684863 -0.19339,-1.075998 -0.27778,-0.381085 -0.94019,-0.450707 z" />
      <path
         id="path3785"
         style="font-style:normal;font-variant:normal;font-weight:normal;font-stretch:normal;font-size:42.66666794px;line-height:53.33333588px;font-family:'Ubuntu Mono';-inkscape-font-specification:'Ubuntu Mono';letter-spacing:0px;word-spacing:0px;fill:#ffffff;fill-opacity:1;stroke:none;stroke-width:0.26458895"
         d="m -233.17533,-71.024617 q 0,-0.293517 0.18062,-0.508011 0.16934,-0.214494 0.45157,-0.214494 0.29352,0 0.47414,0.214494 0.18063,0.214494 0.18063,0.508011 0,0.293516 -0.18063,0.519301 -0.18062,0.225781 -0.47414,0.225781 -0.28223,0 -0.45157,-0.225781 -0.18062,-0.225785 -0.18062,-0.519301 z m 2.95775,-0.12418 q 0,1.761104 -0.59833,2.698101 -0.60961,0.948287 -1.70465,0.948287 -1.10634,0 -1.70466,-0.948287 -0.59832,-0.936997 -0.59832,-2.698101 -1e-5,-1.761104 0.59832,-2.70939 0.59832,-0.937 1.70466,-0.937 1.09504,0 1.70465,0.936999 0.59833,0.948287 0.59833,2.709391 z m -3.65768,0 q 0,0.575746 0.0677,1.083757 0.0677,0.519298 0.22578,0.903129 0.15805,0.383831 0.4177,0.609613 0.25965,0.225782 0.64348,0.225782 0.38383,0 0.64348,-0.225782 0.25965,-0.225782 0.41769,-0.609613 0.15805,-0.383831 0.22579,-0.903129 0.0677,-0.508011 0.0677,-1.083757 0,-0.575745 -0.0677,-1.095046 -0.0677,-0.508011 -0.22579,-0.891842 -0.15804,-0.383829 -0.41769,-0.609613 -0.25965,-0.225782 -0.64348,-0.225782 -0.38383,0 -0.64348,0.225782 -0.25965,0.225784 -0.4177,0.609613 -0.15805,0.383831 -0.22578,0.891842 -0.0677,0.519301 -0.0677,1.095046 z" />
      <path
         id="path3788"
         style="font-style:normal;font-variant:normal;font-weight:normal;font-stretch:normal;font-size:42.66666794px;line-height:53.33333588px;font-family:'Ubuntu Mono';-inkscape-font-specification:'Ubuntu Mono';letter-spacing:0px;word-spacing:0px;fill:#ffffff;fill-opacity:1;stroke:none;stroke-width:0.26458892"
         d="m -228.96903,-43.121703 q -0.54899,0.284729 -1.0525,0.678189 -0.50232,0.404686 -0.90718,0.980752 l -0.65118,0.06844 -0.64784,-6.163779 -1.3136,0.138064 -0.0826,-0.785911 3.73869,-0.392952 0.0826,0.785911 -1.50445,0.158125 0.51213,4.87264 q 0.1117,-0.125254 0.27836,-0.267634 0.15661,-0.129974 0.35812,-0.264666 0.1903,-0.133514 0.40422,-0.25816 0.21392,-0.124646 0.42016,-0.214431 z" />
      <path
         id="path3791"
         style="font-style:normal;font-variant:normal;font-weight:normal;font-stretch:normal;font-size:42.66666794px;line-height:53.33333588px;font-family:'Ubuntu Mono';-inkscape-font-specification:'Ubuntu Mono';letter-spacing:0px;word-spacing:0px;fill:#ffffff;fill-opacity:1;stroke:none;stroke-width:0.26458892"
         d="m -228.56574,-16.966525 q -0.0751,-0.353357 -0.002,-0.715143 0.0621,-0.359438 0.22591,-0.728958 0.15279,-0.367175 0.37417,-0.737387 0.22138,-0.370215 0.45616,-0.731733 0.13043,-0.200844 0.30198,-0.479678 0.17156,-0.278834 0.31869,-0.564017 0.14713,-0.28518 0.23035,-0.545237 0.0832,-0.260057 0.048,-0.425693 l -3.1471,0.668935 -0.1643,-0.772971 4.14092,-0.880178 q 0.0228,0.05286 0.0345,0.108076 0.0141,0.06626 0.0258,0.121466 0.0986,0.463782 0.0285,0.894169 -0.0701,0.430388 -0.23792,0.835382 -0.16783,0.404997 -0.40025,0.777556 -0.24112,0.385952 -0.47589,0.747471 -0.1913,0.294569 -0.36286,0.573402 -0.1826,0.281182 -0.29895,0.54828 -0.12739,0.269445 -0.17513,0.533504 -0.0564,0.277447 -1.1e-4,0.542465 0.0634,0.298146 0.20735,0.486829 0.13294,0.191029 0.32674,0.288331 0.1851,0.11069 0.40899,0.132349 0.22389,0.02166 0.46683,-0.02998 0.2871,-0.06103 0.5136,-0.189958 0.21546,-0.126588 0.37971,-0.276914 0.15321,-0.147977 0.26225,-0.286568 0.11138,-0.127548 0.16356,-0.207885 l 0.58887,0.544229 q -0.0672,0.118159 -0.21338,0.299263 -0.14617,0.181106 -0.36328,0.35421 -0.22581,0.186493 -0.51622,0.340554 -0.29041,0.154059 -0.64377,0.229167 -1.07112,0.227673 -1.68469,-0.161268 -0.62227,-0.37555 -0.81708,-1.292074 z" />
      <path
         id="path3794"
         style="font-style:normal;font-variant:normal;font-weight:normal;font-stretch:normal;font-size:42.66666794px;line-height:53.33333588px;font-family:'Ubuntu Mono';-inkscape-font-specification:'Ubuntu Mono';letter-spacing:0px;word-spacing:0px;fill:#ffffff;fill-opacity:1;stroke:none;stroke-width:0.26458892"
         d="m -220.71634,3.4937357 q -0.84819,0.2755943 -1.09436,0.7235513 -0.25341,0.4621798 -0.0685,1.0312187 0.11861,0.3650452 0.34915,0.5631469 0.23055,0.1981043 0.52633,0.268179 0.29578,0.070076 0.63881,0.029839 0.34303,-0.040236 0.69734,-0.155358 l 0.22547,-0.073259 0.23373,0.7193529 -0.31136,0.1011671 q -0.23621,0.076748 -0.46919,0.1999312 -0.24024,0.137407 -0.40586,0.3217911 -0.17287,0.1986096 -0.23194,0.4552056 -0.0591,0.2565935 0.0491,0.5894289 0.17791,0.5475665 0.59474,0.6614023 0.40959,0.1280587 0.86052,-0.01846 0.46168,-0.1500063 0.73842,-0.3942364 0.28024,-0.2334951 0.44962,-0.442843 l 0.56335,0.564773 q -0.17314,0.2343081 -0.56826,0.5526129 -0.40237,0.3325285 -0.96067,0.5139316 -0.5261,0.1709384 -0.94374,0.1641976 -0.41765,-0.00674 -0.7306,-0.1661988 -0.32369,-0.1559667 -0.54645,-0.4396911 -0.21926,-0.2729894 -0.34136,-0.6487695 -0.17094,-0.5260942 -0.0104,-0.9818384 0.1498,-0.4522588 0.51647,-0.7850583 -0.56419,0.017138 -1.083,-0.3009658 -0.51532,-0.3073639 -0.74906,-1.0267168 -0.13954,-0.4294648 -0.11132,-0.8540841 0.021,-0.4103963 0.23437,-0.776488 0.20268,-0.3626061 0.62625,-0.6664137 0.41283,-0.3003204 1.05703,-0.5096323 0.24694,-0.080237 0.52931,-0.1245023 0.26814,-0.051515 0.51454,-0.060355 0.24291,-0.019577 0.44288,-0.025198 0.19272,0.0086 0.27834,0.016393 l 0.0759,0.8181145 q -0.19969,-0.030076 -0.61385,-0.026081 -0.41415,0.004 -0.96172,0.1819118 z" />
      <path
         id="path3797"
         style="font-style:normal;font-variant:normal;font-weight:normal;font-stretch:normal;font-size:42.66666794px;line-height:53.33333588px;font-family:'Ubuntu Mono';-inkscape-font-specification:'Ubuntu Mono';letter-spacing:0px;word-spacing:0px;fill:#ffffff;fill-opacity:1;stroke:none;stroke-width:0.26458892"
         d="m -209.08334,28.832503 q 0.008,0.490582 -0.052,1.160025 -0.0706,0.674034 -0.19967,1.411148 -0.12445,0.747431 -0.31425,1.486877 -0.18519,0.749761 -0.43121,1.390669 l -0.82506,0.367337 -1.80454,-4.053061 -0.75285,0.335194 -0.31224,-0.701295 0.75286,-0.335194 -0.72549,-1.629473 0.82505,-0.367337 0.72549,1.629474 2.85674,-1.271901 z m -1.44708,4.43803 q 0.14529,-0.423056 0.27335,-0.912581 0.11774,-0.484938 0.20681,-1.006535 0.0937,-0.511282 0.14719,-1.029417 0.0432,-0.513541 0.0498,-0.998404 l -2.03168,0.904565 z" />
      <path
         id="path3800"
         style="font-style:normal;font-variant:normal;font-weight:normal;font-stretch:normal;font-size:42.66666794px;line-height:53.33333588px;font-family:'Ubuntu Mono';-inkscape-font-specification:'Ubuntu Mono';letter-spacing:0px;word-spacing:0px;fill:#ffffff;fill-opacity:1;stroke:none;stroke-width:0.26458892"
         d="m -197.91719,54.506017 q -1.33829,0.707488 -2.23948,0.523867 -0.90118,-0.183623 -1.41483,-1.0733 -0.23143,-0.400843 -0.3019,-0.816404 -0.0705,-0.415565 0.0622,-0.818029 0.12285,-0.39682 0.46422,-0.776408 0.3316,-0.373947 0.89865,-0.701332 0.23464,-0.13547 0.49186,-0.231832 0.24179,-0.100494 0.47532,-0.170148 0.23354,-0.06965 0.41819,-0.111082 0.19029,-0.03165 0.28131,-0.03206 l 0.24433,0.784455 q -0.20158,0.0121 -0.5863,0.09083 -0.3945,0.08437 -0.89311,0.372246 -0.39106,0.225782 -0.60423,0.466175 -0.21317,0.240393 -0.28493,0.477357 -0.0759,0.252384 -0.0314,0.487429 0.0347,0.240689 0.15886,0.455777 0.19192,0.332407 0.456,0.518865 0.25994,0.20188 0.64507,0.214169 0.37535,0.01793 0.91498,-0.176306 0.53551,-0.178817 1.26876,-0.602159 0.1897,0.46404 0.37486,0.852486 0.18103,0.403869 0.36468,0.767118 0.17952,0.378671 0.37295,0.736276 0.18366,0.363245 0.38988,0.765606 l -2.91345,1.68208 -0.39512,-0.684367 2.20953,-1.275672 q -0.0692,-0.142522 -0.17952,-0.378672 -0.1144,-0.220734 -0.23596,-0.476436 -0.12157,-0.255702 -0.23184,-0.491858 -0.11028,-0.236147 -0.17952,-0.378671 z" />
      <path
         id="path3803"
         style="font-style:normal;font-variant:normal;font-weight:normal;font-stretch:normal;font-size:42.66666794px;line-height:53.33333588px;font-family:'Ubuntu Mono';-inkscape-font-specification:'Ubuntu Mono';letter-spacing:0px;word-spacing:0px;fill:#ffffff;fill-opacity:1;stroke:none;stroke-width:0.26458892"
         d="m -183.26941,74.320624 q 0.5972,0.821979 0.83586,1.611417 0.23617,0.805206 0.13705,1.533062 -0.10825,0.734494 -0.53601,1.394132 -0.42776,0.659642 -1.17004,1.212893 l -0.52842,-0.592868 q 0.47741,-0.360826 0.80628,-0.753249 0.32637,-0.376661 0.47764,-0.821466 0.15791,-0.43567 0.12245,-0.926214 -0.0355,-0.490541 -0.28418,-1.063355 -0.1462,0.259718 -0.35548,0.509445 -0.21841,0.256363 -0.51067,0.468702 -0.47492,0.34505 -0.90988,0.437803 -0.44409,0.09939 -0.82418,-0.0012 -0.37346,-0.09148 -0.69703,-0.344781 -0.32358,-0.253301 -0.5691,-0.591227 -0.22561,-0.310524 -0.36402,-0.712306 -0.13178,-0.392652 -0.12079,-0.819263 0.0176,-0.417477 0.22034,-0.829887 0.20935,-0.403277 0.66601,-0.735057 0.94071,-0.683464 1.86435,-0.391695 0.92364,0.291768 1.73982,1.415139 z m -1.37454,1.891729 q 0.29226,-0.212339 0.49904,-0.446298 0.19765,-0.227325 0.36461,-0.516083 -0.0572,-0.09797 -0.12357,-0.189302 -0.0597,-0.0822 -0.13271,-0.182663 -0.25879,-0.356191 -0.5367,-0.642671 -0.28041,-0.270712 -0.5783,-0.431043 -0.30039,-0.144562 -0.61662,-0.138074 -0.30959,0.01562 -0.63839,0.254504 -0.27399,0.199067 -0.37702,0.441375 -0.0964,0.251442 -0.089,0.511235 0.007,0.259791 0.11429,0.503031 0.10446,0.259007 0.24381,0.450802 0.40477,0.557118 0.87283,0.663582 0.45894,0.113097 0.99779,-0.278402 z" />
      <path
         id="path3806"
         style="font-style:normal;font-variant:normal;font-weight:normal;font-stretch:normal;font-size:42.66666794px;line-height:53.33333588px;font-family:'Ubuntu Mono';-inkscape-font-specification:'Ubuntu Mono';letter-spacing:0px;word-spacing:0px;fill:#ffffff;fill-opacity:1;stroke:none;stroke-width:0.26458892"
         d="m -169.68105,93.2594 q 0.49438,0.63342 0.92335,1.447267 0.42813,0.829788 0.74383,1.669671 0.32324,0.848272 0.50551,1.641196 0.18982,0.801309 0.21428,1.402112 l 2.51684,-2.266171 0.54388,0.604041 -3.28866,2.961124 -0.52122,-0.57887 q -0.0127,-0.520247 -0.16476,-1.27961 -0.15204,-0.759365 -0.44257,-1.62191 -0.29136,-0.846601 -0.73293,-1.725055 -0.43402,-0.870065 -1.01066,-1.611713 z" />
      <path
         id="path3809"
         style="font-style:normal;font-variant:normal;font-weight:normal;font-stretch:normal;font-size:42.66666794px;line-height:53.33333588px;font-family:'Ubuntu Mono';-inkscape-font-specification:'Ubuntu Mono';letter-spacing:0px;word-spacing:0px;fill:#ffffff;fill-opacity:1;stroke:none;stroke-width:0.26458892"
         d="m -152.33693,115.67438 q -0.65438,-0.5892 -0.67938,-1.37126 -0.0325,-0.77367 0.73039,-1.62101 0.43813,-0.48658 0.85102,-0.69207 0.42128,-0.19794 0.79636,-0.20961 0.37593,0.004 0.70315,0.14701 0.31967,0.15111 0.56296,0.37017 0.44464,0.40036 0.56955,0.95336 0.1249,0.55301 0.0325,1.07743 1.04478,-0.35051 1.87534,0.39732 0.28524,0.25683 0.44711,0.60007 0.16187,0.34323 0.17353,0.71832 0.0117,0.37509 -0.12771,0.76608 -0.14694,0.39939 -0.47175,0.76013 -0.3777,0.41948 -0.76793,0.5998 -0.39778,0.18871 -0.76531,0.19199 -0.35914,0.0108 -0.67798,-0.12435 -0.31044,-0.12761 -0.53696,-0.33156 -0.44464,-0.40036 -0.56787,-0.92148 -0.11485,-0.51356 -0.0434,-0.98093 -1.18913,0.49397 -2.10358,-0.32941 z m 2.3518,-2.71317 q -0.13423,-0.12086 -0.33056,-0.20649 -0.18795,-0.0781 -0.41955,-0.0739 -0.23159,0.004 -0.48923,0.12157 -0.24924,0.12497 -0.49852,0.40182 -0.23417,0.26007 -0.33324,0.50507 -0.0982,0.26094 -0.0865,0.48415 0.0125,0.23915 0.11067,0.43385 0.0981,0.19469 0.24914,0.33066 0.4782,0.43058 1.03959,0.31323 0.56979,-0.1098 1.2479,-0.59298 0.11759,-0.50176 0.007,-0.93561 -0.11067,-0.43385 -0.49658,-0.78133 z m 0.96739,4.27383 q 0.10906,0.0982 0.28861,0.16872 0.18795,0.0781 0.39521,0.0672 0.2081,0.005 0.43468,-0.0947 0.23497,-0.0923 0.44648,-0.32716 0.21907,-0.24329 0.29464,-0.47906 0.068,-0.22739 0.0488,-0.44221 -0.0109,-0.20726 -0.10816,-0.38601 -0.0965,-0.16281 -0.2307,-0.28368 -0.34396,-0.30971 -0.86505,-0.33835 -0.52024,-0.0127 -1.16814,0.43692 -0.10248,0.48498 -0.017,0.89617 0.0779,0.41957 0.48064,0.78216 z" />
      <path
         id="path3812"
         style="font-style:normal;font-variant:normal;font-weight:normal;font-stretch:normal;font-size:42.66666794px;line-height:53.33333588px;font-family:'Ubuntu Mono';-inkscape-font-specification:'Ubuntu Mono';letter-spacing:0px;word-spacing:0px;fill:#ffffff;fill-opacity:1;stroke:none;stroke-width:0.26458892"
         d="m -129.94346,133.84614 q -1.68963,-1.22759 -1.95094,-2.67331 -0.25217,-1.43909 0.93974,-3.09881 l 0.65922,0.43709 q -0.74319,1.0229 -0.79255,1.93592 -0.0469,0.92879 0.80266,1.85299 0.0588,-0.29218 0.18729,-0.60349 0.13763,-0.30468 0.34997,-0.59694 0.35169,-0.48405 0.72757,-0.71331 0.38501,-0.22262 0.76845,-0.25102 0.39258,-0.0218 0.76946,0.11251 0.37688,0.13428 0.72394,0.38643 0.31052,0.22561 0.55719,0.55832 0.2558,0.33934 0.36804,0.74184 0.11224,0.40249 0.0469,0.85736 -0.0653,0.45487 -0.39713,0.91152 -0.67683,0.93158 -1.6612,0.94201 -0.98437,0.0104 -2.0986,-0.79911 z m 0.75672,-2.21313 q -0.21234,0.29226 -0.3367,0.57867 -0.131,0.29554 -0.20306,0.60599 0.0847,0.0755 0.16689,0.13522 0.0822,0.0597 0.17353,0.12607 0.35619,0.25879 0.71566,0.43624 0.35284,0.18658 0.6832,0.23124 0.32372,0.0538 0.61997,-0.0659 0.29875,-0.10389 0.53763,-0.43268 0.19907,-0.27399 0.21305,-0.54292 0.0231,-0.26229 -0.0641,-0.50709 -0.0781,-0.23817 -0.24838,-0.44559 -0.17689,-0.19828 -0.36868,-0.33763 -0.55712,-0.40477 -1.02854,-0.37052 -0.46892,0.05 -0.86042,0.58888 z" />
      <path
         id="path3815"
         style="font-style:normal;font-variant:normal;font-weight:normal;font-stretch:normal;font-size:42.66666794px;line-height:53.33333588px;font-family:'Ubuntu Mono';-inkscape-font-specification:'Ubuntu Mono';letter-spacing:0px;word-spacing:0px;fill:#ffffff;fill-opacity:1;stroke:none;stroke-width:0.26458892"
         d="m -107.40866,146.5612 q -0.2542,-0.14676 -0.34964,-0.41044 -0.10109,-0.25389 0.04,-0.49831 0.14676,-0.25419 0.42283,-0.30337 0.27607,-0.0492 0.53027,0.0976 0.25419,0.14675 0.35941,0.41607 0.10522,0.26932 -0.0415,0.52352 -0.14111,0.24441 -0.42131,0.27817 -0.28585,0.0435 -0.54004,-0.10322 z m 1.37133,-2.62358 q 1.52516,0.88055 2.03746,1.86721 0.51643,1.00209 -0.0311,1.95042 -0.55317,0.95812 -1.67357,1.00214 -1.11062,0.0497 -2.63578,-0.83089 -1.52516,-0.88055 -2.04724,-1.87286 -0.51231,-0.98666 0.0409,-1.94478 0.54752,-0.94833 1.6638,-1.00777 1.1204,-0.044 2.64556,0.83653 z m -1.82884,3.16764 q 0.49861,0.28787 0.97243,0.48322 0.48359,0.20099 0.89502,0.25603 0.41143,0.055 0.73679,-0.0569 0.32536,-0.11197 0.51727,-0.44438 0.19192,-0.33241 0.12621,-0.67016 -0.0657,-0.33775 -0.31909,-0.66654 -0.25338,-0.32879 -0.66924,-0.6471 -0.40608,-0.31267 -0.90469,-0.60054 -0.49861,-0.28787 -0.98221,-0.48886 -0.47382,-0.19535 -0.88525,-0.25039 -0.41143,-0.055 -0.73679,0.0569 -0.32536,0.11197 -0.51727,0.44438 -0.19192,0.33241 -0.12621,0.67016 0.0657,0.33776 0.31909,0.66654 0.25339,0.32879 0.65947,0.64146 0.41586,0.31831 0.91447,0.60618 z" />
      <path
         id="path3818"
         style="font-style:normal;font-variant:normal;font-weight:normal;font-stretch:normal;font-size:42.66666794px;line-height:53.33333588px;font-family:'Ubuntu Mono';-inkscape-font-specification:'Ubuntu Mono';letter-spacing:0px;word-spacing:0px;fill:#ffffff;fill-opacity:1;stroke:none;stroke-width:0.26458892"
         d="m -81.140883,156.8699 q -0.02791,0.6178 0.06108,1.25058 0.0993,0.63738 0.395763,1.27602 l -0.266319,0.59817 -5.661909,-2.52085 -0.537229,1.20664 -0.72192,-0.32142 1.529037,-3.43427 0.72192,0.32142 -0.615288,1.38196 4.475898,1.99279 q -0.05262,-0.15936 -0.0926,-0.37488 -0.03426,-0.20061 -0.05014,-0.44248 -0.02048,-0.23155 -0.02147,-0.47914 -9.85e-4,-0.24759 0.02438,-0.47109 z" />
      <path
         id="path3821"
         style="font-style:normal;font-variant:normal;font-weight:normal;font-stretch:normal;font-size:42.66666794px;line-height:53.33333588px;font-family:'Ubuntu Mono';-inkscape-font-specification:'Ubuntu Mono';letter-spacing:0px;word-spacing:0px;fill:#ffffff;fill-opacity:1;stroke:none;stroke-width:0.26458892"
         d="m -58.288194,169.59824 q -0.343571,-0.11164 -0.620318,-0.35587 -0.280235,-0.23349 -0.518337,-0.56013 -0.241592,-0.3159 -0.451513,-0.69273 -0.209924,-0.37683 -0.405622,-0.76091 -0.108721,-0.21338 -0.264419,-0.50137 -0.155697,-0.28799 -0.32911,-0.558 -0.17341,-0.27 -0.357016,-0.4721 -0.183606,-0.2021 -0.344655,-0.25443 l -0.994232,3.05993 -0.751562,-0.24419 1.308199,-4.02623 q 0.05717,0.007 0.110858,0.0241 0.06442,0.0209 0.118102,0.0384 0.450937,0.14651 0.788615,0.42241 0.337679,0.2759 0.604501,0.62374 0.266825,0.34784 0.473258,0.73541 0.213684,0.40179 0.409382,0.78587 0.159456,0.31295 0.315154,0.60094 0.152209,0.29873 0.32535,0.53304 0.169652,0.24504 0.374461,0.41842 0.212055,0.1876 0.469734,0.27133 0.289888,0.0942 0.525281,0.0638 0.231905,-0.0196 0.413072,-0.1388 0.188413,-0.10496 0.319115,-0.28803 0.130701,-0.18306 0.207449,-0.41926 0.0907,-0.27916 0.0923,-0.53978 -0.0019,-0.24989 -0.04996,-0.4673 -0.05155,-0.20667 -0.117052,-0.37039 -0.05477,-0.16024 -0.09826,-0.24559 l 0.765753,-0.23786 q 0.06872,0.11729 0.152479,0.33442 0.08376,0.21714 0.125114,0.49172 0.0486,0.2888 0.03682,0.61733 -0.01179,0.32854 -0.12342,0.67211 -0.338388,1.04145 -0.982007,1.37835 -0.636371,0.35112 -1.52751,0.0616 z" />
      <path
         id="path3824"
         style="font-style:normal;font-variant:normal;font-weight:normal;font-stretch:normal;font-size:42.66666794px;line-height:53.33333588px;font-family:'Ubuntu Mono';-inkscape-font-specification:'Ubuntu Mono';letter-spacing:0px;word-spacing:0px;fill:#ffffff;fill-opacity:1;stroke:none;stroke-width:0.26458892"
         d="m -36.644383,173.03058 q -0.185425,0.87235 0.07944,1.30952 0.273555,0.45055 0.858803,0.57494 0.375443,0.0798 0.662278,-0.0208 0.286838,-0.10061 0.495415,-0.32173 0.208578,-0.22111 0.345247,-0.5383 0.136668,-0.31719 0.214124,-0.68159 l 0.04929,-0.2319 0.739844,0.15726 -0.06807,0.32023 q -0.05164,0.24294 -0.06145,0.5063 -0.0011,0.27676 0.07575,0.51238 0.08557,0.24901 0.278251,0.42847 0.192683,0.17945 0.534999,0.25221 0.563164,0.1197 0.870163,-0.18436 0.315694,-0.29068 0.414274,-0.75446 0.100926,-0.47483 0.02779,-0.83661 -0.06209,-0.35944 -0.158705,-0.61081 l 0.770782,-0.20548 q 0.116347,0.2671 0.194446,0.76843 0.08679,0.51473 -0.03526,1.08893 -0.11501,0.54108 -0.329669,0.8994 -0.21466,0.35832 -0.509231,0.54962 -0.296916,0.20234 -0.654008,0.25339 -0.34605,0.0534 -0.732535,-0.0288 -0.54108,-0.11501 -0.855495,-0.48192 -0.316765,-0.35586 -0.421644,-0.8398 -0.267256,0.49717 -0.802147,0.78742 -0.523845,0.2926 -1.263689,0.13534 -0.441698,-0.0939 -0.795323,-0.33062 -0.34493,-0.22336 -0.55527,-0.59122 -0.212689,-0.35683 -0.264008,-0.87556 -0.05367,-0.50768 0.08716,-1.17023 0.05398,-0.25397 0.156833,-0.52064 0.08946,-0.25798 0.205003,-0.47579 0.104502,-0.22016 0.199617,-0.39614 0.103809,-0.1626 0.153366,-0.23285 l 0.746458,0.34332 q -0.125893,0.1579 -0.329511,0.51857 -0.203616,0.36067 -0.32332,0.92383 z" />
      <path
         id="path3827"
         style="font-style:normal;font-variant:normal;font-weight:normal;font-stretch:normal;font-size:42.66666794px;line-height:53.33333588px;font-family:'Ubuntu Mono';-inkscape-font-specification:'Ubuntu Mono';letter-spacing:0px;word-spacing:0px;fill:#ffffff;fill-opacity:1;stroke:none;stroke-width:0.26458892"
         d="m -8.8838632,175.62549 q 0.4290292,0.23806 0.9786279,0.62501 0.5484187,0.39818 1.1222562,0.8785 0.5850683,0.48149 1.1305521,1.01558 0.5567119,0.53526 0.9887447,1.06878 l -0.094403,0.89818 -4.4123228,-0.46375 -0.086142,0.81959 -0.7634579,-0.0802 0.086143,-0.81959 -1.7739103,-0.18645 0.0944,-0.89818 1.7739103,0.18644 0.3268694,-3.10995 z m 3.1199052,3.47222 q -0.2937294,-0.33735 -0.6536427,-0.69302 -0.3610958,-0.34444 -0.7682788,-0.68237 -0.3959551,-0.33675 -0.8179067,-0.64218 -0.4231287,-0.2942 -0.8397522,-0.54231 l -0.2324667,2.21177 z" />
      <path
         id="path3830"
         style="font-style:normal;font-variant:normal;font-weight:normal;font-stretch:normal;font-size:42.66666794px;line-height:53.33333588px;font-family:'Ubuntu Mono';-inkscape-font-specification:'Ubuntu Mono';letter-spacing:0px;word-spacing:0px;fill:#ffffff;fill-opacity:1;stroke:none;stroke-width:0.26458892"
         d="m 18.933127,178.79207 q -0.05645,1.51274 -0.666058,2.20138 -0.609612,0.68863 -1.636924,0.68863 -0.462853,0 -0.857972,-0.14676 -0.395121,-0.14675 -0.677348,-0.46285 -0.282229,-0.30481 -0.440276,-0.79024 -0.158049,-0.47414 -0.158049,-1.12891 0,-0.27094 0.04516,-0.54188 0.03387,-0.25965 0.09031,-0.49672 0.05645,-0.23707 0.112892,-0.4177 0.06773,-0.18063 0.112892,-0.25965 l 0.801528,0.18063 q -0.09031,0.18062 -0.214495,0.55316 -0.124179,0.38383 -0.124179,0.95958 0,0.45156 0.101602,0.75637 0.101602,0.30481 0.270939,0.48543 0.180627,0.19192 0.406409,0.27094 0.225782,0.0903 0.474143,0.0903 0.383831,0 0.677348,-0.13546 0.304806,-0.12418 0.508011,-0.45157 0.203204,-0.31609 0.304806,-0.88055 0.112892,-0.55317 0.112892,-1.39985 0.496721,0.0677 0.925707,0.1016 0.440276,0.0452 0.846684,0.0677 0.417699,0.0339 0.824108,0.0452 0.406408,0.0226 0.857974,0.0452 v 3.36416 h -0.790239 l -1e-6,-2.55135 q -0.158047,-0.0113 -0.417698,-0.0339 -0.248359,-0.0113 -0.530588,-0.0339 -0.282229,-0.0226 -0.541878,-0.0452 -0.25965,-0.0226 -0.417699,-0.0339 z" />
      <path
         id="path3833"
         style="font-style:normal;font-variant:normal;font-weight:normal;font-stretch:normal;font-size:42.66666794px;line-height:53.33333588px;font-family:'Ubuntu Mono';-inkscape-font-specification:'Ubuntu Mono';letter-spacing:0px;word-spacing:0px;fill:#ffffff;fill-opacity:1;stroke:none;stroke-width:0.26458892"
         d="m 43.416974,176.01401 q 1.010455,-0.10621 1.813459,0.0818 0.815411,0.19807 1.396194,0.64784 0.581966,0.461 0.939349,1.16127 0.357385,0.70027 0.465376,1.61973 l -0.77765,0.16119 q -0.07378,-0.59386 -0.249191,-1.07489 -0.163015,-0.47097 -0.472592,-0.82437 -0.298347,-0.35459 -0.740899,-0.56916 -0.442548,-0.21456 -1.062982,-0.28557 0.15182,0.25648 0.263453,0.56258 0.11281,0.31733 0.150571,0.6766 0.06136,0.58382 -0.07579,1.00689 -0.135976,0.43428 -0.413152,0.71315 -0.265948,0.27768 -0.647104,0.43125 -0.381154,0.15357 -0.796564,0.19724 -0.381726,0.0401 -0.798889,-0.0409 -0.405937,-0.0822 -0.769896,-0.30503 -0.352731,-0.224 -0.608532,-0.60576 -0.244572,-0.38295 -0.303574,-0.94431 -0.121544,-1.15641 0.592957,-1.81042 0.714501,-0.65402 2.095457,-0.79916 z m 0.951014,2.13625 q -0.03776,-0.35927 -0.136986,-0.65533 -0.09804,-0.28483 -0.264633,-0.57381 -0.113455,5.7e-4 -0.225726,0.0124 -0.101046,0.0106 -0.224547,0.0236 -0.437865,0.046 -0.824919,0.14346 -0.374648,0.10748 -0.662444,0.2853 -0.275388,0.18786 -0.427885,0.46497 -0.141268,0.27593 -0.09879,0.68011 0.0354,0.33682 0.193729,0.5472 0.169557,0.20921 0.398216,0.33274 0.228658,0.12354 0.492787,0.15253 0.276535,0.039 0.512308,0.0143 0.684863,-0.072 1.011096,-0.4241 0.327412,-0.3409 0.25779,-1.00331 z" />
      <path
         id="path3836"
         style="font-style:normal;font-variant:normal;font-weight:normal;font-stretch:normal;font-size:42.66666794px;line-height:53.33333588px;font-family:'Ubuntu Mono';-inkscape-font-specification:'Ubuntu Mono';letter-spacing:0px;word-spacing:0px;fill:#ffffff;fill-opacity:1;stroke:none;stroke-width:0.26458892"
         d="m 66.612607,173.71553 q 0.795747,-0.11144 1.715043,-0.076 0.932684,0.0441 1.817893,0.19066 0.896249,0.14419 1.674072,0.38281 0.788864,0.23627 1.321409,0.51548 l -0.704143,-3.31273 0.795055,-0.169 0.92008,4.32864 -0.761928,0.16195 q -0.456901,-0.24912 -1.190554,-0.49713 -0.733653,-0.248 -1.625903,-0.42767 -0.878857,-0.17098 -1.860406,-0.22779 -0.970507,-0.0592 -1.901111,0.0694 z" />
      <path
         id="path3839"
         style="font-style:normal;font-variant:normal;font-weight:normal;font-stretch:normal;font-size:42.66666794px;line-height:53.33333588px;font-family:'Ubuntu Mono';-inkscape-font-specification:'Ubuntu Mono';letter-spacing:0px;word-spacing:0px;fill:#ffffff;fill-opacity:1;stroke:none;stroke-width:0.26458892"
         d="m 94.696605,169.90257 q -0.837455,0.27211 -1.527238,-0.0973 -0.686295,-0.35865 -1.038636,-1.44304 -0.202335,-0.62273 -0.17385,-1.08305 0.03922,-0.4638 0.216664,-0.79447 0.191667,-0.32342 0.478881,-0.53544 0.290701,-0.20129 0.602061,-0.30245 0.569039,-0.18489 1.110408,-0.0166 0.541367,0.16833 0.949325,0.51058 0.218831,-1.08006 1.281754,-1.42543 0.365043,-0.11861 0.743229,-0.0872 0.378187,0.0314 0.708852,0.20888 0.330666,0.17744 0.59959,0.49364 0.27241,0.32695 0.422417,0.78862 0.174427,0.53683 0.135476,0.96494 -0.03546,0.43884 -0.216392,0.75877 -0.170194,0.31644 -0.446671,0.52498 -0.265737,0.20504 -0.555626,0.29923 -0.569041,0.1849 -1.081959,0.0311 -0.50218,-0.15732 -0.87122,-0.45287 -0.166775,1.27681 -1.337065,1.65706 z m -1.173773,-3.39331 q -0.171784,0.0558 -0.344111,0.18303 -0.161593,0.12373 -0.273803,0.32637 -0.112209,0.20264 -0.139337,0.48446 -0.01639,0.27834 0.09873,0.63265 0.108145,0.33284 0.270785,0.54113 0.176865,0.21555 0.376016,0.31702 0.213377,0.10872 0.431056,0.12108 0.217678,0.0124 0.410937,-0.0504 0.611986,-0.19884 0.791054,-0.7437 0.189806,-0.54834 0.110418,-1.3772 -0.375748,-0.35271 -0.806803,-0.4738 -0.431056,-0.12108 -0.92494,0.0394 z m 4.184934,1.29913 q 0.139574,-0.0454 0.29043,-0.16558 0.16159,-0.12373 0.255816,-0.30865 0.108449,-0.17768 0.135307,-0.42381 0.0376,-0.24962 -0.06008,-0.55024 -0.101167,-0.31136 -0.267566,-0.4947 -0.162912,-0.1726 -0.358575,-0.26333 -0.184927,-0.0942 -0.388379,-0.0993 -0.18923,0.002 -0.361016,0.058 -0.4402,0.14303 -0.72555,0.57998 -0.271124,0.44419 -0.20569,1.2301 0.36877,0.33124 0.767616,0.46279 0.402334,0.14228 0.91769,-0.0252 z" />
      <path
         id="path3842"
         style="font-style:normal;font-variant:normal;font-weight:normal;font-stretch:normal;font-size:42.66666794px;line-height:53.33333588px;font-family:'Ubuntu Mono';-inkscape-font-specification:'Ubuntu Mono';letter-spacing:0px;word-spacing:0px;fill:#ffffff;fill-opacity:1;stroke:none;stroke-width:0.26458892"
         d="m 121.63054,159.59513 q -1.90793,0.84947 -3.29062,0.35291 -1.37238,-0.50116 -2.21378,-2.36324 l 0.70814,-0.35236 q 0.51427,1.15507 1.28028,1.65433 0.78092,0.50497 2.00607,0.23137 -0.22365,-0.19701 -0.429,-0.46395 -0.19504,-0.27153 -0.34197,-0.60155 -0.24336,-0.54659 -0.25397,-0.98674 -2.9e-4,-0.44474 0.16684,-0.79101 0.17743,-0.35087 0.48216,-0.61012 0.30474,-0.25925 0.69663,-0.43373 0.35065,-0.15612 0.76212,-0.20339 0.42178,-0.0519 0.82647,0.0522 0.40469,0.10404 0.76594,0.38807 0.36125,0.28403 0.59084,0.79969 0.46835,1.05194 -0.0148,1.90964 -0.48315,0.8577 -1.74135,1.41789 z m -1.53826,-1.7619 q 0.14693,0.33001 0.33279,0.58092 0.19045,0.26122 0.42327,0.47885 0.10773,-0.0356 0.20055,-0.0769 0.0928,-0.0413 0.19595,-0.0872 0.40221,-0.17908 0.73562,-0.40167 0.338,-0.21228 0.54186,-0.47604 0.20845,-0.25346 0.25294,-0.56985 0.0594,-0.31067 -0.1059,-0.68194 -0.13775,-0.30939 -0.36365,-0.45596 -0.2156,-0.15117 -0.47124,-0.19799 -0.24533,-0.0514 -0.51008,-0.008 -0.26016,0.054 -0.47673,0.15048 -0.6291,0.28009 -0.83515,0.70548 -0.19114,0.43111 0.0798,1.03958 z" />
      <path
         id="path3845"
         style="font-style:normal;font-variant:normal;font-weight:normal;font-stretch:normal;font-size:42.66666794px;line-height:53.33333588px;font-family:'Ubuntu Mono';-inkscape-font-specification:'Ubuntu Mono';letter-spacing:0px;word-spacing:0px;fill:#ffffff;fill-opacity:1;stroke:none;stroke-width:0.26458892"
         d="m 143.90951,146.43695 q -0.25419,0.14676 -0.53026,0.0976 -0.27043,-0.0394 -0.41154,-0.28382 -0.14676,-0.25419 -0.0513,-0.51787 0.0954,-0.26367 0.34964,-0.41043 0.25419,-0.14676 0.54004,-0.10322 0.28584,0.0435 0.4326,0.29773 0.14112,0.24441 0.0302,0.50395 -0.10522,0.26932 -0.35941,0.41608 z m -1.58642,-2.4994 q 1.52516,-0.88055 2.63579,-0.83088 1.12604,0.0538 1.67357,1.00213 0.55316,0.95811 0.0311,1.95042 -0.5123,0.98666 -2.03746,1.86721 -1.52516,0.88056 -2.64556,0.83654 -1.11063,-0.0497 -1.66379,-1.00778 -0.54753,-0.94834 -0.0409,-1.94478 0.52208,-0.99231 2.04724,-1.87286 z m 1.82884,3.16764 q 0.49861,-0.28787 0.90469,-0.60053 0.41586,-0.31831 0.66924,-0.6471 0.25339,-0.32879 0.3191,-0.66655 0.0657,-0.33775 -0.12621,-0.67016 -0.19192,-0.3324 -0.51728,-0.44438 -0.32535,-0.11197 -0.73678,-0.0569 -0.41144,0.055 -0.89503,0.25603 -0.47382,0.19535 -0.97243,0.48322 -0.49861,0.28787 -0.91447,0.60619 -0.40608,0.31266 -0.65946,0.64145 -0.25338,0.32879 -0.31909,0.66654 -0.0657,0.33776 0.1262,0.67016 0.19192,0.33241 0.51728,0.44438 0.32536,0.11198 0.73679,0.0569 0.41143,-0.055 0.88524,-0.25038 0.4836,-0.20099 0.98221,-0.48887 z" />
      <path
         id="path3848"
         style="font-style:normal;font-variant:normal;font-weight:normal;font-stretch:normal;font-size:42.66666794px;line-height:53.33333588px;font-family:'Ubuntu Mono';-inkscape-font-specification:'Ubuntu Mono';letter-spacing:0px;word-spacing:0px;fill:#ffffff;fill-opacity:1;stroke:none;stroke-width:0.26458892"
         d="m 165.97098,128.84274 q 0.52108,0.33308 1.11358,0.5724 0.60163,0.23268 1.30295,0.29527 l 0.38486,0.52972 -5.01407,3.64293 0.77636,1.06857 -0.63931,0.46449 -2.20965,-3.04132 0.63931,-0.46449 0.88917,1.22384 3.96376,-2.87985 q -0.16432,-0.0341 -0.37095,-0.10724 -0.19087,-0.0706 -0.40827,-0.17782 -0.21077,-0.098 -0.42568,-0.22098 -0.21491,-0.12294 -0.39579,-0.25665 z" />
      <path
         id="path3851"
         style="font-style:normal;font-variant:normal;font-weight:normal;font-stretch:normal;font-size:42.66666794px;line-height:53.33333588px;font-family:'Ubuntu Mono';-inkscape-font-specification:'Ubuntu Mono';letter-spacing:0px;word-spacing:0px;fill:#ffffff;fill-opacity:1;stroke:none;stroke-width:0.26458892"
         d="m 188.42039,115.4159 q -0.26847,0.24172 -0.61835,0.35928 -0.34233,0.12594 -0.74426,0.16882 -0.39437,0.0513 -0.82568,0.0447 -0.4313,-0.007 -0.86177,-0.0292 -0.23915,-0.0125 -0.56641,-0.0217 -0.32726,-0.009 -0.6478,0.006 -0.32053,0.0152 -0.58736,0.0731 -0.26682,0.058 -0.39266,0.17126 l 2.15286,2.391 -0.58727,0.52877 -2.83271,-3.14605 q 0.0344,-0.0462 0.0763,-0.0839 0.0503,-0.0453 0.0923,-0.0831 0.35236,-0.31727 0.76013,-0.47176 0.40778,-0.15448 0.84242,-0.21164 0.43466,-0.0572 0.87351,-0.0421 0.45481,0.0158 0.88528,0.0384 0.35075,0.0184 0.67801,0.0275 0.33481,0.0175 0.62429,-0.0152 0.29705,-0.0244 0.5496,-0.11508 0.2685,-0.0898 0.46984,-0.27114 0.22652,-0.20396 0.31793,-0.42299 0.099,-0.21064 0.0863,-0.42713 0.003,-0.21565 -0.0899,-0.42037 -0.0932,-0.20472 -0.25938,-0.38929 -0.1964,-0.21813 -0.42131,-0.34982 -0.21736,-0.1233 -0.42967,-0.19038 -0.20475,-0.0587 -0.3793,-0.0838 -0.16615,-0.0327 -0.26181,-0.0377 l 0.17688,-0.7821 q 0.13594,-8.7e-4 0.36586,0.0352 0.22993,0.036 0.4884,0.1375 0.27441,0.10231 0.55304,0.27678 0.27862,0.17448 0.52035,0.44294 0.73272,0.81378 0.70268,1.53962 -0.0141,0.72668 -0.71043,1.35365 z" />
      <path
         id="path3854"
         style="font-style:normal;font-variant:normal;font-weight:normal;font-stretch:normal;font-size:42.66666794px;line-height:53.33333588px;font-family:'Ubuntu Mono';-inkscape-font-specification:'Ubuntu Mono';letter-spacing:0px;word-spacing:0px;fill:#ffffff;fill-opacity:1;stroke:none;stroke-width:0.26458892"
         d="m 202.21479,98.387987 q 0.66277,0.596759 1.17379,0.585964 0.52696,-0.01163 0.92732,-0.456271 0.25683,-0.285242 0.31312,-0.583953 0.0563,-0.298713 -0.0309,-0.589905 -0.0872,-0.291191 -0.29357,-0.568145 -0.20636,-0.276954 -0.48321,-0.526233 l -0.17618,-0.158631 0.50611,-0.562095 0.2433,0.219063 q 0.18457,0.166186 0.40774,0.306367 0.23911,0.139347 0.48161,0.190588 0.25843,0.0504 0.51018,-0.02674 0.25176,-0.07714 0.48593,-0.337216 0.38525,-0.427862 0.27542,-0.845765 -0.0939,-0.418738 -0.44625,-0.736002 -0.36075,-0.324817 -0.71063,-0.442372 -0.34233,-0.125944 -0.60832,-0.167959 l 0.20743,-0.77026 q 0.28949,0.03279 0.76271,0.215822 0.48916,0.182198 0.92541,0.575 0.41109,0.370141 0.61407,0.735201 0.20299,0.365061 0.22137,0.715814 0.0268,0.358308 -0.10756,0.693084 -0.12678,0.326388 -0.39117,0.620018 -0.37014,0.411084 -0.8451,0.499924 -0.46657,0.09639 -0.93812,-0.05475 0.29694,0.480039 0.28086,1.088394 -0.009,0.599963 -0.51463,1.162057 -0.30216,0.335579 -0.684,0.523455 -0.36589,0.187041 -0.78964,0.185268 -0.41537,0.0058 -0.89026,-0.209139 -0.4665,-0.207363 -0.96987,-0.660597 -0.19296,-0.173741 -0.37247,-0.396146 -0.17869,-0.206462 -0.30955,-0.41543 -0.1384,-0.200579 -0.24326,-0.370945 -0.0889,-0.171198 -0.12497,-0.249244 l 0.67056,-0.474788 q 0.0738,0.187976 0.28434,0.544649 0.21054,0.35667 0.6384,0.741918 z" />
      <path
         id="path3857"
         style="font-style:normal;font-variant:normal;font-weight:normal;font-stretch:normal;font-size:42.66666794px;line-height:53.33333588px;font-family:'Ubuntu Mono';-inkscape-font-specification:'Ubuntu Mono';letter-spacing:0px;word-spacing:0px;fill:#ffffff;fill-opacity:1;stroke:none;stroke-width:0.26458892"
         d="m 218.34231,75.644131 q 0.42068,-0.252518 1.03059,-0.535009 0.61905,-0.275854 1.32193,-0.532656 0.70952,-0.265938 1.44479,-0.471296 0.74191,-0.214493 1.41996,-0.321888 l 0.73065,0.530848 -2.60778,3.589306 0.66671,0.484397 -0.45122,0.621052 -0.66671,-0.484397 -1.04842,1.443029 -0.73065,-0.530848 1.04842,-1.443028 -2.52987,-1.838056 z m 4.56699,-0.965804 q -0.43903,0.0857 -0.927,0.219561 -0.47884,0.140499 -0.97509,0.324163 -0.48961,0.174532 -0.96509,0.387239 -0.46635,0.219339 -0.88954,0.456089 l 1.79922,1.30721 z" />
      <path
         id="path3860"
         style="font-style:normal;font-variant:normal;font-weight:normal;font-stretch:normal;font-size:42.66666794px;line-height:53.33333588px;font-family:'Ubuntu Mono';-inkscape-font-specification:'Ubuntu Mono';letter-spacing:0px;word-spacing:0px;fill:#ffffff;fill-opacity:1;stroke:none;stroke-width:0.26458892"
         d="m 234.99312,53.1372 q 1.28186,0.805254 1.57343,1.677513 0.29157,0.872258 -0.22209,1.761936 -0.23143,0.400842 -0.55608,0.669647 -0.32466,0.268805 -0.73952,0.355172 -0.40508,0.09201 -0.9045,-0.01383 -0.48965,-0.100197 -1.0567,-0.427582 -0.23464,-0.13547 -0.4467,-0.310047 -0.20793,-0.159154 -0.38501,-0.326573 -0.17709,-0.167421 -0.3053,-0.306617 -0.12256,-0.148973 -0.16841,-0.227592 l 0.55719,-0.60383 q 0.11127,0.168526 0.37181,0.462341 0.27031,0.299458 0.76892,0.587331 0.39107,0.225782 0.70584,0.290195 0.31477,0.06441 0.55587,0.0081 0.25651,-0.06047 0.43784,-0.216491 0.19111,-0.150377 0.31529,-0.365464 0.19191,-0.332408 0.22135,-0.654335 0.0449,-0.32606 -0.13706,-0.665732 -0.17214,-0.334028 -0.61018,-0.704246 -0.42261,-0.374352 -1.15586,-0.797694 0.30702,-0.396305 0.55085,-0.750884 0.25924,-0.358712 0.482,-0.699383 0.23818,-0.344804 0.45116,-0.691119 0.22275,-0.340676 0.46809,-0.720451 l 2.91345,1.682081 -0.39512,0.684367 -2.20953,-1.275671 q -0.0888,0.131223 -0.23818,0.344803 -0.13396,0.209437 -0.29462,0.44257 -0.16066,0.233132 -0.31005,0.446702 -0.14937,0.213578 -0.23818,0.344804 z" />
      <path
         id="path3863"
         style="font-style:normal;font-variant:normal;font-weight:normal;font-stretch:normal;font-size:42.66666794px;line-height:53.33333588px;font-family:'Ubuntu Mono';-inkscape-font-specification:'Ubuntu Mono';letter-spacing:0px;word-spacing:0px;fill:#ffffff;fill-opacity:1;stroke:none;stroke-width:0.26458892"
         d="m 244.8292,30.544543 q 0.41325,-0.928182 0.9776,-1.529587 0.57924,-0.607128 1.25914,-0.885218 0.69022,-0.2735 1.47536,-0.232866 0.78515,0.04063 1.63542,0.406837 l -0.24923,0.754062 q -0.55119,-0.233039 -1.05547,-0.321638 -0.48938,-0.09431 -0.95023,-0.0029 -0.45626,0.08108 -0.86335,0.357061 -0.4071,0.275975 -0.77881,0.777784 0.29803,-0.0032 0.61894,0.05313 0.33122,0.06097 0.66124,0.207904 0.53628,0.238769 0.83409,0.569079 0.30812,0.334903 0.41103,0.714375 0.10751,0.369158 0.0499,0.776036 -0.0576,0.406876 -0.22747,0.788463 -0.15611,0.350645 -0.43486,0.671409 -0.27415,0.310452 -0.64911,0.514237 -0.37036,0.193471 -0.82887,0.22412 -0.45393,0.02033 -0.96958,-0.209251 -1.06225,-0.472944 -1.2714,-1.418727 -0.20914,-0.945783 0.35564,-2.214298 z m 2.32556,0.244524 q -0.33002,-0.146934 -0.63603,-0.209032 -0.29569,-0.05751 -0.62925,-0.05772 -0.0562,0.09854 -0.10215,0.201666 -0.0413,0.09282 -0.0918,0.206265 -0.17907,0.402212 -0.28822,0.786129 -0.0942,0.378197 -0.0841,0.716344 0.025,0.332424 0.18873,0.603044 0.16833,0.260307 0.5396,0.425608 0.3094,0.137751 0.57076,0.105827 0.26595,-0.04224 0.48727,-0.178495 0.22131,-0.136256 0.37849,-0.350501 0.17207,-0.219965 0.2685,-0.436541 0.28009,-0.629099 0.13826,-1.087689 -0.13152,-0.453996 -0.73999,-0.724906 z" />
      <path
         id="path3866"
         style="font-style:normal;font-variant:normal;font-weight:normal;font-stretch:normal;font-size:42.66666794px;line-height:53.33333588px;font-family:'Ubuntu Mono';-inkscape-font-specification:'Ubuntu Mono';letter-spacing:0px;word-spacing:0px;fill:#ffffff;fill-opacity:1;stroke:none;stroke-width:0.26458892"
         d="m 254.43648,9.3072946 q 0.30137,-0.7448553 0.7917,-1.5232762 0.50455,-0.7856678 1.07406,-1.4790106 0.573,-0.7040777 1.16856,-1.2583842 0.59905,-0.5650423 1.10712,-0.8866341 l -3.22098,-1.0465596 0.25118,-0.7730351 4.20874,1.3675043 -0.24071,0.7408253 q -0.44419,0.2711266 -1.0258,0.7824867 -0.5816,0.5113593 -1.18333,1.1942365 -0.58749,0.6756252 -1.12747,1.4972635 -0.53649,0.8109034 -0.89046,1.681109 z" />
      <path
         id="path3869"
         style="font-style:normal;font-variant:normal;font-weight:normal;font-stretch:normal;font-size:42.66666794px;line-height:53.33333588px;font-family:'Ubuntu Mono';-inkscape-font-specification:'Ubuntu Mono';letter-spacing:0px;word-spacing:0px;fill:#ffffff;fill-opacity:1;stroke:none;stroke-width:0.26458892"
         d="m 265.17636,-16.92062 q -0.18308,0.86131 -0.84786,1.27399 -0.65374,0.415027 -1.76903,0.177965 -0.64046,-0.136134 -1.02486,-0.390962 -0.38206,-0.265871 -0.57971,-0.584874 -0.18425,-0.327699 -0.22426,-0.682443 -0.029,-0.352397 0.0391,-0.672627 0.1244,-0.585248 0.54086,-0.969922 0.41646,-0.384672 0.91684,-0.566848 -0.82595,-0.729544 -0.59358,-1.822745 0.0798,-0.375441 0.29612,-0.687244 0.21631,-0.311803 0.53531,-0.509447 0.31901,-0.197644 0.72731,-0.272437 0.41934,-0.07244 0.89417,0.02848 0.55212,0.117357 0.9034,0.365143 0.36232,0.250134 0.54892,0.56679 0.18895,0.305612 0.23131,0.649315 0.0447,0.332658 -0.0187,0.630804 -0.1244,0.585251 -0.51408,0.952533 -0.38734,0.356239 -0.82781,0.528063 1.02236,0.782836 0.76652,1.986462 z m -3.52558,-0.680136 q -0.0376,0.176677 -0.0135,0.389524 0.0263,0.201806 0.14574,0.400302 0.11938,0.198497 0.34989,0.362903 0.23285,0.153366 0.59725,0.230822 0.34232,0.07276 0.60403,0.03606 0.2751,-0.0454 0.46255,-0.167131 0.20084,-0.130429 0.32039,-0.312763 0.11955,-0.182334 0.16179,-0.381097 0.13379,-0.629419 -0.24854,-1.056925 -0.37997,-0.438549 -1.13747,-0.784223 -0.49334,0.149049 -0.81373,0.461812 -0.32039,0.312763 -0.42836,0.820716 z m 3.21755,-2.974694 q 0.0305,-0.14355 0.002,-0.334312 -0.0264,-0.201803 -0.13939,-0.375868 -0.0996,-0.182759 -0.29938,-0.329084 -0.19738,-0.157368 -0.50657,-0.223088 -0.32023,-0.06807 -0.5622,-0.01563 -0.23093,0.05479 -0.40734,0.178866 -0.17406,0.11304 -0.28022,0.286678 -0.0928,0.164943 -0.13032,0.341623 -0.0962,0.452739 0.1395,0.918334 0.24912,0.456899 0.96245,0.793184 0.47125,-0.153743 0.7846,-0.433379 0.32439,-0.277289 0.43705,-0.807326 z" />
      <path
         id="path3872"
         style="font-style:normal;font-variant:normal;font-weight:normal;font-stretch:normal;font-size:42.66666794px;line-height:53.33333588px;font-family:'Ubuntu Mono';-inkscape-font-specification:'Ubuntu Mono';letter-spacing:0px;word-spacing:0px;fill:#ffffff;fill-opacity:1;stroke:none;stroke-width:0.26458892"
         d="m 269.71682,-45.399811 q -0.2183,2.077046 -1.33968,3.026209 -1.1202,0.937934 -3.15352,0.735573 l 0.0489,-0.789448 q 1.25746,0.132164 2.07283,-0.281596 0.82779,-0.423805 1.20341,-1.621617 -0.28243,0.09518 -0.61629,0.139549 -0.33267,0.03314 -0.69194,-0.0046 -0.59505,-0.06254 -0.98153,-0.273433 -0.3853,-0.222118 -0.60162,-0.539987 -0.21514,-0.329098 -0.28729,-0.722627 -0.0722,-0.393529 -0.0273,-0.820164 0.0401,-0.381729 0.20492,-0.761703 0.16598,-0.391202 0.45843,-0.689651 0.29245,-0.298452 0.71905,-0.469288 0.42661,-0.170838 0.98797,-0.111836 1.14518,0.120364 1.6464,0.967636 0.50122,0.84727 0.35725,2.217001 z m -2.29498,0.451215 q 0.35927,0.03776 0.66949,0.0023 0.32144,-0.03432 0.62633,-0.127141 0.023,-0.111093 0.0337,-0.212139 0.0106,-0.101045 0.0224,-0.213316 0.046,-0.437864 0.02,-0.837901 -0.0148,-0.398855 -0.14134,-0.707284 -0.11527,-0.307251 -0.36703,-0.503982 -0.23934,-0.206775 -0.64353,-0.249256 -0.33681,-0.0354 -0.5767,0.08695 -0.23871,0.111126 -0.40708,0.309105 -0.1672,0.186751 -0.2617,0.437897 -0.0833,0.25233 -0.10806,0.488103 -0.072,0.684862 0.19339,1.075998 0.27779,0.381085 0.9402,0.450707 z" />
    </g>
  </g>
</svg>
