<?xml version="1.0" encoding="UTF-8" standalone="no"?>
<svg
   xmlns:dc="http://purl.org/dc/elements/1.1/"
   xmlns:cc="http://creativecommons.org/ns#"
   xmlns:rdf="http://www.w3.org/1999/02/22-rdf-syntax-ns#"
   xmlns:svg="http://www.w3.org/2000/svg"
   xmlns="http://www.w3.org/2000/svg"
   width="600"
   height="600"
   viewBox="0 0 158.75 158.75"
   version="1.1"
   id="svg21580">
  <defs
     id="defs21574" />
  <metadata
     id="metadata21577">
    <rdf:RDF>
      <cc:Work
         rdf:about="">
        <dc:format>image/svg+xml</dc:format>
        <dc:type
           rdf:resource="http://purl.org/dc/dcmitype/StillImage" />
        <dc:title></dc:title>
      </cc:Work>
    </rdf:RDF>
  </metadata>
  <g
     id="g857">
    <circle
       transform="rotate(0.99999997)"
       r="78.977882"
       cy="77.977631"
       cx="80.748192"
       id="circle16351"
       style="fill:#333333;fill-opacity:1;stroke:#646464;stroke-width:0.79374498;stroke-miterlimit:4;stroke-dasharray:none;stroke-opacity:1" />
    <path
       id="path20932"
       d="m 136.64582,107.05413 -2.24626,-1.08173 c -0.1405,-0.0677 -0.31079,-0.008 -0.37846,0.13242 l -0.24602,0.51086 c -0.0677,0.14047 -0.008,0.3108 0.13243,0.37845 l 2.2702,1.09326 c 0.25385,0.12224 0.40792,0.41083 0.32873,0.68145 -0.10109,0.34467 -0.48075,0.50405 -0.79204,0.35412 -0.22511,-0.10839 -0.34596,-0.34754 -0.31696,-0.58335 0.0149,-0.11674 -0.0596,-0.22737 -0.16502,-0.2781 l -0.52365,-0.25218 c -0.15646,-0.0754 -0.35024,0.004 -0.39531,0.17151 -0.20175,0.77017 0.16333,1.60481 0.90729,1.96308 0.91159,0.43901 2.02477,-0.0103 2.35479,-1.00186 0.27472,-0.81959 -0.15226,-1.71358 -0.92975,-2.08799 z m -2.00024,-1.59261 5.36421,2.58323 c 0.9531,0.45899 2.12636,-0.0538 2.39474,-1.14191 0.15697,-0.63636 -0.0855,-1.32939 -0.60504,-1.72905 -0.79527,-0.6111 -1.86934,-0.41049 -2.41482,0.32198 -0.1042,0.13864 -0.0433,0.33906 0.11155,0.41364 l 0.52365,0.25218 c 0.10696,0.0515 0.23834,0.0401 0.32033,-0.0444 0.16629,-0.16965 0.42861,-0.22428 0.6537,-0.11591 0.30972,0.14915 0.4234,0.54611 0.21696,0.84004 -0.16221,0.23066 -0.48231,0.29087 -0.73774,0.16788 l -5.33547,-2.56939 c -0.14049,-0.0676 -0.31079,-0.008 -0.37845,0.13241 l -0.24602,0.51088 c -0.0677,0.14046 -0.008,0.31079 0.13242,0.37845 z m 5.8845,3.46314 -2.49531,-1.20166 c 0.1805,0.4134 0.23172,0.87468 0.14335,1.32773 l 1.85991,0.89569 c 0.42307,0.20373 0.60102,0.71227 0.39729,1.13534 -0.20374,0.42308 -0.71228,0.60102 -1.13535,0.39728 -0.28577,-0.13762 -0.45552,-0.41407 -0.47654,-0.70937 -0.008,-0.10212 -0.0804,-0.18823 -0.17307,-0.23281 l -0.53962,-0.25986 c -0.17402,-0.0838 -0.38636,0.0263 -0.40646,0.21927 -0.10484,0.94469 0.47356,1.89585 1.51001,2.14913 0.72464,0.17785 1.51879,-0.0868 1.98803,-0.66912 0.83596,-1.037 0.45331,-2.50955 -0.67222,-3.05157 z"
       style="fill:#ffffff;stroke-width:0.01771965" />
    <path
       id="path20942"
       d="m 148.56747,78.90491 c 0.0727,-0.18951 0.11347,-0.39685 0.11347,-0.61301 5e-5,-0.93903 -0.76178,-1.70091 -1.70078,-1.701 -0.34905,-3e-5 -0.67504,0.10626 -0.94438,0.28696 -0.49067,-0.8505 -1.40669,-1.42107 -2.45733,-1.42114 -1.56623,-1.1e-4 -2.8349,1.26841 -2.83501,2.83463 6e-5,0.0479 0.002,0.0957 0.004,0.14357 -0.99219,0.34896 -1.70453,1.29505 -1.70462,2.40771 -9e-5,1.40855 1.14267,2.5514 2.55118,2.55152 l 6.52009,4.4e-4 c 1.25265,1.1e-4 2.26792,-1.01502 2.26802,-2.26769 8e-5,-1.0967 -0.77945,-2.01276 -1.81415,-2.2219 z"
       style="fill:#ffffff;stroke-width:0.01771763" />
    <path
       style="fill:#ffffff;stroke-width:0.01550293"
       d="m 143.25495,50.63457 -7.59843,3.65916 c -0.12291,0.0592 -0.17504,0.20819 -0.11585,0.33111 l 0.10761,0.22347 c 0.0592,0.12295 0.20818,0.17506 0.33112,0.11584 l 7.59842,-3.65915 c 0.12291,-0.0592 0.17505,-0.20819 0.11586,-0.33112 l -0.10762,-0.22347 c -0.0592,-0.12295 -0.20819,-0.17506 -0.33112,-0.11584 z m -6.05876,4.56957 -1.78786,0.86097 c -0.12292,0.0592 -0.17506,0.20819 -0.11587,0.33111 l 0.10762,0.22347 c 0.0592,0.12295 0.20818,0.17507 0.33112,0.11584 l 1.78786,-0.86097 c 0.12291,-0.0592 0.17506,-0.2082 0.11587,-0.33111 l -0.10762,-0.22348 c -0.0592,-0.12295 -0.20819,-0.17506 -0.33113,-0.11584 z m 5.81056,-2.79819 -4.69314,2.26007 c -0.12292,0.0592 -0.17506,0.20819 -0.11587,0.33111 l 0.10762,0.22348 c 0.0592,0.12295 0.20818,0.17506 0.33112,0.11584 l 4.69313,-2.26007 c 0.12292,-0.0592 0.17506,-0.20819 0.11587,-0.33111 l -0.10762,-0.22347 c -0.0592,-0.12295 -0.20818,-0.17506 -0.33112,-0.11584 z m -6.99441,0.33987 2.18036,-1.04999 c 0.44679,0.12381 0.93598,0.0999 1.38713,-0.11738 0.45116,-0.21726 0.77349,-0.58413 0.95665,-1.01131 l 0.83945,-0.40426 c 0.86461,-0.41636 1.2274,-1.45313 0.81104,-2.31773 -0.41638,-0.86461 -1.45314,-1.22739 -2.31775,-0.81103 -0.25141,0.12108 -0.45374,0.29765 -0.61281,0.50332 -0.64277,-0.46649 -1.51056,-0.58201 -2.27599,-0.2134 -0.57267,0.27578 -0.9703,0.76498 -1.1513,1.3253 -0.55091,-0.20792 -1.1813,-0.20199 -1.75398,0.0738 -1.11043,0.53475 -1.57749,1.86953 -1.04275,2.97995 0.53475,1.11043 1.86953,1.57749 2.97995,1.04275 z"
       id="path16986" />
    <path
       style="fill:#ffffff;stroke-width:0.01550293"
       d="m 63.250306,15.94385 c 0.182475,0.79954 0.98258,1.3023 1.782123,1.11983 0.799553,-0.18247 1.302309,-0.98257 1.119823,-1.78212 -0.182475,-0.79955 -0.982565,-1.3023 -1.782111,-1.11983 -0.799542,0.18248 -1.302299,0.98258 -1.119835,1.78212 z m 0.36677,-4.00184 -0.388264,1.59447 -1.633045,-0.16001 c -0.221069,-0.0211 -0.37156,0.21834 -0.255422,0.40658 l 0.852655,1.40192 -1.26933,1.04342 c -0.171356,0.14091 -0.108589,0.41597 0.106922,0.46854 l 1.594497,0.38825 -0.159669,1.63455 c -0.02113,0.22109 0.218363,0.37155 0.406546,0.25546 l 1.401921,-0.85265 1.04308,1.26782 c 0.140865,0.1714 0.415958,0.10861 0.468537,-0.10694 l 0.388272,-1.59447 1.634538,0.15966 c 0.221068,0.0211 0.37157,-0.21834 0.255426,-0.40657 l -0.852652,-1.40193 1.268166,-1.04156 C 68.650692,14.85772 68.587839,14.58258 68.372316,14.53 l -1.594473,-0.38824 0.159999,-1.63302 c 0.02113,-0.2211 -0.218367,-0.37156 -0.406546,-0.25547 l -1.401911,0.85265 -1.041574,-1.26817 C 63.944732,11.66369 63.669647,11.72646 63.617064,11.942 Z m 2.139884,1.99068 c 0.926325,0.58208 1.206419,1.80936 0.62435,2.73569 -0.582082,0.92633 -1.809371,1.20642 -2.735696,0.62434 -0.926328,-0.58207 -1.206423,-1.80936 -0.62434,-2.73568 0.582077,-0.92633 1.809345,-1.20643 2.735686,-0.62435 z"
       id="path17006" />
    <path
       style="fill:#ffffff;stroke-width:0.01550293"
       d="m 120.12825,25.19831 c -0.005,0.007 -0.008,0.0152 -0.0132,0.0214 -0.0521,-0.0639 -0.11305,-0.12181 -0.18089,-0.17602 -0.53573,-0.42724 -1.31569,-0.33937 -1.74293,0.19634 -0.23778,0.29817 -0.31057,0.67042 -0.24055,1.01775 -0.61614,-0.12253 -1.27532,0.0874 -1.69386,0.61224 -0.59834,0.75026 -0.47537,1.84177 0.27489,2.44011 0.0885,0.0706 0.18109,0.1285 0.27726,0.17947 -0.2175,0.58603 -0.0535,1.26804 0.46157,1.67885 0.64239,0.51231 1.57921,0.40677 2.09152,-0.23563 l 3.09313,-3.87858 c 0.51231,-0.64239 0.40674,-1.57921 -0.23565,-2.09149 -0.64239,-0.51232 -1.5792,-0.40677 -2.0915,0.23561 z m -0.18638,6.35532 c 0.41443,0.58431 0.29696,1.02998 0.67634,1.33254 0.33571,0.26778 0.81505,0.22368 1.07121,-0.0975 0.25615,-0.32121 0.19246,-0.79832 -0.14324,-1.06607 -0.38057,-0.30351 -0.78528,-0.0869 -1.4496,-0.36289 -0.11934,-0.0519 -0.23352,0.0815 -0.15465,0.19392 z m 1.54657,-1.93928 c 0.41443,0.5843 0.29696,1.02996 0.67634,1.33252 0.33571,0.26778 0.81506,0.22368 1.0712,-0.0975 0.25616,-0.3212 0.19247,-0.79832 -0.14322,-1.06606 -0.38059,-0.30353 -0.78531,-0.0869 -1.44962,-0.36289 -0.11926,-0.0519 -0.23351,0.0815 -0.15463,0.19391 z m 1.54657,-1.9393 c 0.41444,0.58431 0.29695,1.02998 0.67633,1.33253 0.33572,0.26777 0.81506,0.22368 1.07121,-0.0975 0.25614,-0.32119 0.19247,-0.7983 -0.14332,-1.06604 -0.38057,-0.30352 -0.78529,-0.0869 -1.44961,-0.36288 -0.11925,-0.0519 -0.2335,0.0815 -0.15466,0.19392 z"
       id="path16966" />
    <path
       style="fill:#ffffff;stroke-width:0.01550293"
       d="m 96.094489,12.85169 -0.411319,0.4436 -0.0161,-0.41712 c -0.005,-0.13153 -0.116561,-0.2349 -0.248058,-0.22995 l -0.238986,0.009 c -0.131518,0.005 -0.23493,0.11646 -0.229936,0.24806 l 0.04292,1.13564 -0.779687,0.83814 -0.337616,-1.0916 0.531431,-1.00453 c 0.06156,-0.11633 0.01677,-0.26173 -0.09953,-0.32326 l -0.211411,-0.11186 c -0.116345,-0.0615 -0.261725,-0.0168 -0.323272,0.0995 l -0.195507,0.36881 -0.178122,-0.57814 c -0.0395,-0.12669 -0.172912,-0.1969 -0.299243,-0.15895 l -0.458542,0.1418 c -0.126659,0.0395 -0.196865,0.17294 -0.158965,0.29924 l 0.178118,0.57813 -0.368819,-0.1955 C 92.1755,12.8412 92.03012,12.8859 91.968577,13.0022 l -0.111818,0.21143 c -0.06156,0.11633 -0.01677,0.26173 0.09954,0.32326 l 1.004531,0.53142 0.33047,1.07406 -1.171345,-0.26736 -0.626365,-0.9969 c -0.0723,-0.1151 -0.226487,-0.15029 -0.341585,-0.078 l -0.209736,0.13186 c -0.115102,0.0723 -0.15029,0.22647 -0.07797,0.34158 l 0.229443,0.36723 -0.610617,-0.13938 C 90.350104,14.471 90.216454,14.555 90.18611,14.68805 l -0.1104,0.48366 c -0.03036,0.13301 0.05362,0.26666 0.186636,0.29702 l 0.610617,0.13938 -0.36574,0.22974 c -0.115102,0.0723 -0.150294,0.22647 -0.07797,0.34158 l 0.131456,0.21128 c 0.07196,0.11661 0.226145,0.1518 0.341589,0.078 l 0.996888,-0.62636 1.171345,0.26736 -0.763779,0.82429 -1.135641,0.0429 c -0.131517,0.005 -0.234937,0.11647 -0.229932,0.24807 l 0.009,0.23899 c 0.005,0.13153 0.116556,0.23489 0.248045,0.22994 l 0.417125,-0.0161 -0.411324,0.4436 c -0.09055,0.097 -0.08361,0.24806 0.01339,0.33858 l 0.350082,0.32639 c 0.09701,0.0905 0.248053,0.0837 0.338574,-0.0134 l 0.411324,-0.44359 0.0161,0.41712 c 0.0046,0.13306 0.11618,0.23642 0.249211,0.23181 l 0.238987,-0.009 c 0.131517,-0.005 0.234929,-0.11647 0.229935,-0.24806 l -0.04292,-1.13564 0.777851,-0.83696 0.337606,1.09159 -0.53143,1.00454 c -0.06156,0.11633 -0.01676,0.26173 0.09954,0.32326 l 0.211412,0.11186 c 0.116331,0.0615 0.26172,0.0168 0.32327,-0.0995 l 0.195509,-0.36881 0.179629,0.57848 c 0.0395,0.12669 0.172912,0.1969 0.299244,0.15895 l 0.458545,-0.1418 c 0.126658,-0.0395 0.196866,-0.17294 0.15896,-0.29925 l -0.178122,-0.57814 0.368823,0.1955 c 0.116336,0.0616 0.261726,0.0168 0.323272,-0.0995 L 96.14464,18.4144 c 0.06156,-0.11633 0.01676,-0.26173 -0.09953,-0.32325 l -1.004533,-0.53144 -0.330477,-1.07405 1.171353,0.26737 0.626357,0.99689 c 0.07196,0.1166 0.226145,0.1518 0.341589,0.078 l 0.209736,-0.13186 c 0.115102,-0.0723 0.150293,-0.22646 0.07796,-0.34158 l -0.229765,-0.36571 0.60909,0.13903 c 0.133022,0.0304 0.266672,-0.0536 0.297015,-0.18665 l 0.110404,-0.48365 c 0.03036,-0.13301 -0.05362,-0.26667 -0.186636,-0.29703 l -0.610621,-0.13938 0.365741,-0.22974 c 0.115102,-0.0723 0.150289,-0.22648 0.07796,-0.34159 l -0.1318,-0.20977 c -0.07231,-0.1151 -0.226479,-0.15029 -0.341581,-0.078 l -0.995856,0.62183 -1.171353,-0.26737 0.763784,-0.82429 1.135625,-0.0429 c 0.131517,-0.005 0.234941,-0.11647 0.229931,-0.24807 l -0.009,-0.23901 c -0.005,-0.13153 -0.116556,-0.23489 -0.248049,-0.22994 l -0.417121,0.0161 0.41132,-0.4436 c 0.09055,-0.097 0.08371,-0.24804 -0.01339,-0.33858 L 96.43121,12.83944 c -0.09551,-0.0902 -0.24771,-0.0852 -0.336717,0.0122 z"
       id="path16996" />
    <path
       style="fill:#ffffff;stroke-width:0.01771763"
       d="m 10.21595,80.05902 c -0.0727,0.18956 -0.11347,0.39686 -0.11347,0.61303 -2e-5,0.93902 0.76183,1.70089 1.70084,1.70094 0.34905,1e-5 0.67504,-0.10629 0.94437,-0.28699 0.4907,0.85048 1.40672,1.42101 2.45737,1.42105 1.56624,5e-5 2.83487,-1.26851 2.83491,-2.83473 -9e-5,-0.0479 -0.002,-0.0957 -0.004,-0.14354 0.9922,-0.34899 1.7045,-1.2951 1.70454,-2.40777 4e-5,-1.40855 -1.14275,-2.55136 -2.55126,-2.55143 l -6.5201,-2.2e-4 c -1.25264,-5e-5 -2.26788,1.01511 -2.26793,2.26778 -4e-5,1.09671 0.77951,2.01273 1.81423,2.22183 z"
       id="path16976" />
    <path
       style="fill:#ffffff;stroke-width:0.01550293"
       d="m 36.26269,27.71391 1.11541,1.39875 -1.98505,0.73824 c -0.2229,0.0985 -0.29373,0.3827 -0.14179,0.57312 l 1.39184,1.74541 c 0.11599,0.14543 0.32246,0.18304 0.48216,0.0874 l 3.21832,-1.93188 c 0.19293,-0.11611 0.23982,-0.37562 0.0996,-0.55139 l -1.1473,-1.43875 2.80312,-1.32116 c 0.21905,-0.10325 0.28033,-0.38205 0.1326,-0.56749 -0.0812,-0.10181 -0.21182,-0.15628 -0.3465,-0.13612 l -5.3859,0.80507 c -0.28261,0.041 -0.41505,0.37465 -0.23633,0.59884 z"
       id="path16956" />
    <path
       style="fill:#ffffff;stroke-width:0.01771965"
       d="m 21.88271,51.78587 2.24623,1.08181 c 0.14056,0.0676 0.31079,0.008 0.37844,-0.13242 l 0.24605,-0.51085 c 0.0677,-0.14047 0.008,-0.31079 -0.13241,-0.37846 l -2.27018,-1.09334 c -0.25384,-0.12225 -0.40792,-0.41082 -0.3287,-0.68146 0.10116,-0.34466 0.48076,-0.50404 0.79205,-0.35413 0.22509,0.10842 0.34595,0.34755 0.3169,0.5834 -0.0149,0.11673 0.06,0.22726 0.16501,0.27812 l 0.52364,0.25217 c 0.15642,0.0754 0.35025,-0.004 0.39531,-0.1715 0.20175,-0.77017 -0.16328,-1.60483 -0.90721,-1.96314 -0.91158,-0.43903 -2.02476,0.0102 -2.35483,1.00178 -0.27477,0.81959 0.1522,1.7136 0.92971,2.08802 z m 2.00018,1.59269 -5.36412,-2.58342 c -0.95309,-0.45902 -2.12637,0.0537 -2.39477,1.14182 -0.15706,0.63634 0.0855,1.32939 0.60496,1.72906 0.79525,0.61114 1.86933,0.41057 2.41483,-0.32189 0.10417,-0.13864 0.0433,-0.33906 -0.11152,-0.41365 l -0.52366,-0.25219 c -0.10692,-0.0515 -0.23832,-0.0401 -0.32031,0.0444 -0.16628,0.16967 -0.42862,0.22429 -0.65371,0.11589 -0.30971,-0.14915 -0.42375,-0.54582 -0.21694,-0.84003 0.16224,-0.23065 0.48231,-0.29087 0.73774,-0.16785 l 5.33538,2.56958 c 0.14055,0.0676 0.3108,0.008 0.37846,-0.13243 L 24.01527,53.757 c 0.0677,-0.14047 0.008,-0.31078 -0.13241,-0.37844 z m -5.88438,-3.46335 2.49527,1.20175 c -0.18053,-0.41339 -0.23174,-0.87469 -0.14331,-1.32775 l -1.85988,-0.89573 c -0.42308,-0.20376 -0.601,-0.71229 -0.39725,-1.13537 0.20376,-0.42307 0.7123,-0.601 1.13536,-0.39723 0.28577,0.13762 0.45554,0.41405 0.47656,0.70938 0.008,0.10208 0.0806,0.18813 0.17287,0.23292 l 0.53961,0.2599 c 0.174,0.0838 0.38638,-0.0263 0.40651,-0.2192 0.10488,-0.94467 -0.47351,-1.89585 -1.50993,-2.14916 -0.72465,-0.17788 -1.5188,0.0867 -1.98806,0.66904 -0.83596,1.037 -0.45338,2.50954 0.67214,3.0516 z"
       id="path20934" />
    <path
       id="path20940"
       d="m 15.69396,108.19002 7.59855,-3.6589 c 0.12295,-0.0592 0.17497,-0.20823 0.11593,-0.33109 l -0.10761,-0.22349 c -0.0591,-0.12302 -0.20824,-0.17498 -0.33111,-0.11583 l -7.59856,3.65889 c -0.12296,0.0592 -0.17497,0.20823 -0.11593,0.33109 l 0.10762,0.22348 c 0.0591,0.12293 0.20824,0.17498 0.33112,0.11584 z m 6.05892,-4.56936 1.7879,-0.86091 c 0.12296,-0.0592 0.17498,-0.20824 0.11594,-0.33109 l -0.10762,-0.22348 c -0.0591,-0.12293 -0.20824,-0.17498 -0.33113,-0.11584 l -1.78788,0.86089 c -0.12296,0.0592 -0.17498,0.20824 -0.11594,0.33109 l 0.10763,0.22349 c 0.0591,0.12301 0.20823,0.17497 0.33111,0.11583 z m -5.81065,2.798 4.69322,-2.25992 c 0.12296,-0.0592 0.17498,-0.20824 0.11593,-0.33108 l -0.10761,-0.22347 c -0.0591,-0.12303 -0.2082,-0.17507 -0.33109,-0.11594 l -4.6932,2.2599 c -0.12296,0.0592 -0.17498,0.20825 -0.11593,0.33108 l 0.10761,0.22348 c 0.0591,0.12302 0.20824,0.17498 0.33116,0.11575 z m 6.99441,-0.33964 -2.18039,1.04992 c -0.4468,-0.12382 -0.93597,-0.0999 -1.38713,0.11732 -0.45117,0.21724 -0.77352,0.5841 -0.95669,1.01129 l -0.83947,0.40423 c -0.8646,0.41633 -1.22749,1.45305 -0.81111,2.3177 0.41633,0.86462 1.45311,1.2274 2.31771,0.8111 0.25141,-0.12106 0.45375,-0.29765 0.61282,-0.50329 0.64274,0.46654 1.51056,0.58206 2.27599,0.21348 0.57268,-0.27576 0.97031,-0.76498 1.15138,-1.32523 0.55092,0.20792 1.18129,0.20205 1.75399,-0.0737 1.11046,-0.53472 1.57759,-1.86946 1.04287,-2.97992 -0.53471,-1.11045 -1.86946,-1.57759 -2.97993,-1.04284 z"
       style="fill:#ffffff;stroke-width:0.01550293" />
    <path
       id="path20936"
       d="m 95.275046,142.89871 c -0.182442,-0.79955 -0.982519,-1.30235 -1.782098,-1.1199 -0.799554,0.18245 -1.302332,0.98252 -1.119874,1.78209 0.182438,0.79955 0.982515,1.30235 1.782069,1.11989 0.799545,-0.18246 1.302348,-0.98251 1.119903,-1.78208 z m -0.366919,4.00182 0.388361,-1.59445 1.633029,0.16007 c 0.22107,0.0211 0.371582,-0.21835 0.255427,-0.40658 l -0.852613,-1.40195 1.269395,-1.04334 c 0.171589,-0.14057 0.108592,-0.41599 -0.106911,-0.46854 l -1.594494,-0.38826 0.159728,-1.63456 c 0.02114,-0.2211 -0.218381,-0.37152 -0.406514,-0.25551 l -1.401938,0.85261 -1.043021,-1.26789 c -0.140696,-0.17155 -0.415942,-0.10869 -0.468547,0.10694 l -0.388357,1.59443 -1.634546,-0.15971 c -0.221061,-0.0211 -0.37157,0.21834 -0.255416,0.40656 l 0.852594,1.40195 -1.268214,1.04152 c -0.171588,0.14068 -0.108491,0.41599 0.106926,0.46855 l 1.594451,0.38825 -0.160043,1.63301 c -0.02113,0.2211 0.21839,0.37156 0.406531,0.25551 l 1.401934,-0.85259 1.041508,1.26822 c 0.142843,0.17429 0.418187,0.11126 0.470724,-0.10435 z m -2.139815,-1.99075 c -0.926304,-0.58211 -1.206349,-1.8094 -0.624246,-2.73571 0.58212,-0.92631 1.809405,-1.20635 2.735713,-0.62425 0.926312,0.58211 1.206358,1.80941 0.624246,2.7357 -0.582115,0.92631 -1.809389,1.20637 -2.735713,0.62426 z"
       style="fill:#ffffff;stroke-width:0.01550293" />
    <path
       id="path20944"
       d="m 38.71564,133.63649 c 0.005,-0.007 0.008,-0.0155 0.0131,-0.0213 0.0521,0.0639 0.11306,0.12182 0.18089,0.17601 0.53571,0.42725 1.31568,0.3394 1.74293,-0.19628 0.2378,-0.29817 0.3106,-0.67042 0.24052,-1.01776 0.61613,0.12257 1.27534,-0.0873 1.69388,-0.61217 0.59837,-0.75025 0.47538,-1.84179 -0.2748,-2.44013 -0.0885,-0.0706 -0.18114,-0.12841 -0.27726,-0.17947 0.21746,-0.58603 0.0536,-1.26804 -0.46157,-1.67885 -0.64236,-0.51234 -1.57921,-0.40682 -2.09152,0.23555 l -3.09327,3.87848 c -0.51232,0.64236 -0.40682,1.57919 0.23557,2.09151 0.64238,0.51233 1.57918,0.40682 2.09152,-0.23555 z m 0.18659,-6.35531 c -0.41442,-0.58431 -0.29695,-1.02998 -0.67625,-1.33258 -0.33571,-0.26777 -0.81506,-0.2237 -1.07122,0.0975 -0.25616,0.32118 -0.19247,0.79832 0.14324,1.06609 0.38056,0.3035 0.78528,0.0869 1.4496,0.36286 0.11937,0.0519 0.23352,-0.0815 0.15466,-0.19391 z m -1.54664,1.93924 c -0.41443,-0.5843 -0.29686,-1.03001 -0.67624,-1.33257 -0.33571,-0.26777 -0.81506,-0.22368 -1.07121,0.0975 -0.25617,0.32117 -0.19248,0.79831 0.14322,1.06606 0.38059,0.30354 0.78532,0.0869 1.44961,0.36288 0.11925,0.0519 0.23353,-0.0815 0.15466,-0.19391 z m -1.54662,1.93924 c -0.41445,-0.58432 -0.29696,-1.03 -0.67634,-1.33254 -0.3357,-0.26777 -0.81505,-0.22369 -1.0712,0.0975 -0.25616,0.32118 -0.19248,0.7983 0.14332,1.06603 0.38055,0.30355 0.78528,0.0869 1.44961,0.36289 0.11924,0.0519 0.2335,-0.0815 0.15467,-0.19391 z"
       style="fill:#ffffff;stroke-width:0.01550293" />
    <path
       id="path20938"
       d="m 62.853108,145.97453 0.411317,-0.44359 0.01611,0.41711 c 0.005,0.13148 0.116471,0.23494 0.248067,0.22993 l 0.238965,-0.009 c 0.131524,-0.005 0.234942,-0.11647 0.229937,-0.24807 l -0.04288,-1.13563 0.779694,-0.83815 0.337542,1.09163 -0.531461,1.00451 c -0.06152,0.11642 -0.01676,0.26172 0.09951,0.32326 l 0.211455,0.11184 c 0.116232,0.0616 0.261708,0.0168 0.323275,-0.0995 l 0.195511,-0.36881 0.178082,0.57815 c 0.03948,0.1267 0.172871,0.19695 0.299241,0.15896 l 0.458547,-0.1418 c 0.12667,-0.0395 0.196878,-0.17295 0.158962,-0.29926 l -0.178073,-0.57812 0.368803,0.19549 c 0.116322,0.0615 0.261726,0.0168 0.323275,-0.0995 l 0.111835,-0.21144 c 0.06152,-0.11642 0.01676,-0.26174 -0.09952,-0.32328 l -1.004521,-0.5314 -0.330464,-1.07407 1.171327,0.2674 0.626338,0.99692 c 0.0723,0.11509 0.22648,0.1503 0.341561,0.078 l 0.209757,-0.13195 c 0.115081,-0.0723 0.150374,-0.22642 0.07799,-0.34158 l -0.22946,-0.36724 0.610617,0.13941 c 0.132966,0.0304 0.266641,-0.0537 0.297027,-0.18665 l 0.110417,-0.48366 c 0.03039,-0.13304 -0.05371,-0.26664 -0.186569,-0.29707 l -0.610599,-0.1394 0.365732,-0.22973 c 0.115081,-0.0723 0.15036,-0.2264 0.07799,-0.34157 l -0.131406,-0.21134 c -0.07198,-0.11651 -0.226118,-0.1518 -0.341565,-0.078 l -0.996901,0.62631 -1.171332,-0.26739 0.763767,-0.82428 1.135639,-0.0429 c 0.131612,-0.005 0.234942,-0.11647 0.229932,-0.24806 l -0.009,-0.23902 c -0.0051,-0.13149 -0.116471,-0.23495 -0.247999,-0.23002 l -0.417111,0.0161 0.411332,-0.44361 c 0.09054,-0.097 0.0836,-0.24805 -0.01339,-0.3386 l -0.350073,-0.32637 c -0.09699,-0.0905 -0.248051,-0.0837 -0.338584,0.0134 l -0.411322,0.4436 -0.01612,-0.41712 c -0.0046,-0.13309 -0.11609,-0.23646 -0.249179,-0.23185 l -0.238974,0.009 c -0.131603,0.005 -0.234915,0.11646 -0.229923,0.24805 l 0.04287,1.13564 -0.777856,0.83697 -0.337543,-1.09161 0.531475,-1.00453 c 0.06154,-0.11632 0.01677,-0.26175 -0.09952,-0.32328 l -0.211442,-0.11183 c -0.116228,-0.0616 -0.261717,-0.0168 -0.323266,0.0995 l -0.195516,0.36883 -0.179583,-0.5785 c -0.03948,-0.1267 -0.172872,-0.19695 -0.299251,-0.15896 l -0.458538,0.1418 c -0.126679,0.0395 -0.196869,0.17294 -0.158961,0.29925 l 0.17809,0.57817 -0.368825,-0.19552 c -0.116421,-0.0615 -0.261709,-0.0168 -0.323275,0.0995 l -0.111723,0.21146 c -0.06153,0.11643 -0.01677,0.26174 0.0995,0.32325 l 1.004497,0.53154 0.330455,1.07403 -1.171345,-0.2674 -0.626311,-0.99691 c -0.07198,-0.11651 -0.226191,-0.15172 -0.341583,-0.078 l -0.209766,0.13187 c -0.11509,0.0723 -0.15037,0.2264 -0.07796,0.34159 l 0.229733,0.36574 -0.609092,-0.13906 c -0.133019,-0.0305 -0.266642,0.0537 -0.297018,0.18665 l -0.110418,0.48366 c -0.03039,0.13303 0.05371,0.26664 0.18656,0.29705 l 0.610626,0.13941 -0.36575,0.22974 c -0.11509,0.0723 -0.150299,0.22648 -0.07798,0.34158 l 0.131872,0.20976 c 0.07229,0.11509 0.226466,0.1503 0.341551,0.078 l 0.995886,-0.6218 1.171322,0.26742 -0.763766,0.82428 -1.13563,0.0429 c -0.131562,0.005 -0.234933,0.11647 -0.229928,0.24807 l 0.009,0.23903 c 0.005,0.13153 0.116466,0.23493 0.248053,0.22993 l 0.41712,-0.0161 -0.411327,0.44362 c -0.09053,0.097 -0.08372,0.24802 0.01338,0.33859 l 0.351603,0.32669 c 0.09557,0.0901 0.247707,0.0853 0.336701,-0.0122 z"
       style="fill:#ffffff;stroke-width:0.01550293" />
    <path
       id="path20946"
       d="m 122.63439,131.17803 -1.11537,-1.39879 1.98509,-0.73818 c 0.22292,-0.0985 0.29369,-0.38272 0.14179,-0.57311 l -1.39178,-1.74546 c -0.11597,-0.14542 -0.32248,-0.18304 -0.48218,-0.0874 l -3.21836,1.93178 c -0.19289,0.11619 -0.23982,0.37561 -0.0996,0.55139 l 1.14726,1.43879 -2.80318,1.32106 c -0.21905,0.10327 -0.28035,0.38201 -0.13261,0.56748 0.0812,0.10181 0.21183,0.15628 0.3465,0.13612 l 5.38593,-0.80487 c 0.28262,-0.041 0.41513,-0.37459 0.23628,-0.59886 z"
       style="fill:#ffffff;stroke-width:0.01550293" />
  </g>
</svg>
