<?xml version="1.0" encoding="UTF-8" standalone="no"?>
<svg
   xmlns:dc="http://purl.org/dc/elements/1.1/"
   xmlns:cc="http://creativecommons.org/ns#"
   xmlns:rdf="http://www.w3.org/1999/02/22-rdf-syntax-ns#"
   xmlns:svg="http://www.w3.org/2000/svg"
   xmlns="http://www.w3.org/2000/svg"
   id="svg10870"
   version="1.1"
   viewBox="0 0 264.58333 264.58334"
   height="1000"
   width="1000">
  <defs
     id="defs10864" />
  <metadata
     id="metadata10867">
    <rdf:RDF>
      <cc:Work
         rdf:about="">
        <dc:format>image/svg+xml</dc:format>
        <dc:type
           rdf:resource="http://purl.org/dc/dcmitype/StillImage" />
        <dc:title></dc:title>
      </cc:Work>
    </rdf:RDF>
  </metadata>
  <g
     transform="translate(109.6131,-23.34524)"
     id="layer1">
    <g
       id="g11935">
      <circle
         transform="rotate(1.0000001)"
         r="131.89496"
         cy="155.21741"
         cx="25.391352"
         id="circle9172"
         style="fill:#ffffff;fill-opacity:1;stroke:#000000;stroke-width:0.79257804;stroke-miterlimit:4;stroke-dasharray:none;stroke-opacity:1" />
      <g
         aria-label="0"
         transform="matrix(0.26419267,0,0,0.26419267,-10.072352,90.901994)"
         style="font-style:normal;font-weight:normal;font-size:42.66666794px;line-height:1.25;font-family:sans-serif;letter-spacing:0px;word-spacing:0px;fill:#000000;fill-opacity:1;stroke:none"
         id="flowRoot9218">
        <path
           d="m 579.80735,244.55981 q 0,1.10933 -0.68267,1.92 -0.64,0.81067 -1.70666,0.81067 -1.10934,0 -1.792,-0.81067 -0.68267,-0.81067 -0.68267,-1.92 0,-1.10933 0.68267,-1.96267 0.68266,-0.85333 1.792,-0.85333 1.06666,0 1.70666,0.85333 0.68267,0.85334 0.68267,1.96267 z m -11.17867,0.46933 q 0,-6.656 2.26134,-10.19733 2.304,-3.584 6.44266,-3.584 4.18134,0 6.44267,3.584 2.26133,3.54133 2.26133,10.19733 0,6.656 -2.26133,10.24 -2.26133,3.54134 -6.44267,3.54134 -4.13866,0 -6.44266,-3.54134 -2.26134,-3.584 -2.26134,-10.24 z m 13.824,0 q 0,-2.176 -0.256,-4.096 -0.256,-1.96266 -0.85333,-3.41333 -0.59733,-1.45067 -1.57867,-2.304 -0.98133,-0.85333 -2.432,-0.85333 -1.45066,0 -2.432,0.85333 -0.98133,0.85333 -1.57866,2.304 -0.59734,1.45067 -0.85334,3.41333 -0.256,1.92 -0.256,4.096 0,2.176 0.256,4.13867 0.256,1.92 0.85334,3.37067 0.59733,1.45066 1.57866,2.304 0.98134,0.85333 2.432,0.85333 1.45067,0 2.432,-0.85333 0.98134,-0.85334 1.57867,-2.304 0.59733,-1.45067 0.85333,-3.37067 0.256,-1.96267 0.256,-4.13867 z"
           style="font-style:normal;font-variant:normal;font-weight:normal;font-stretch:normal;font-size:42.66666794px;line-height:53.33333588px;font-family:'Ubuntu Mono';-inkscape-font-specification:'Ubuntu Mono'"
           id="path11871" />
      </g>
      <g
         aria-label="1"
         transform="matrix(0.25841943,-0.05492875,0.05492875,0.25841943,-22.815809,99.125903)"
         style="font-style:normal;font-weight:normal;font-size:42.66666794px;line-height:1.25;font-family:sans-serif;letter-spacing:0px;word-spacing:0px;fill:#000000;fill-opacity:1;stroke:none"
         id="flowRoot9970">
        <path
           d="m 569.86602,237.30648 q 2.176,-0.85334 4.224,-2.13334 2.048,-1.32266 3.79733,-3.328 h 2.47467 v 23.424 h 4.992 v 2.98667 h -14.208 v -2.98667 h 5.71733 v -18.51733 q -0.46933,0.42667 -1.152,0.896 -0.64,0.42667 -1.45067,0.85333 -0.768,0.42667 -1.62133,0.81067 -0.85333,0.384 -1.664,0.64 z"
           style="font-style:normal;font-variant:normal;font-weight:normal;font-stretch:normal;font-size:42.66666794px;line-height:53.33333588px;font-family:'Ubuntu Mono';-inkscape-font-specification:'Ubuntu Mono'"
           id="path11868" />
      </g>
      <g
         aria-label="2"
         transform="matrix(0.24135202,-0.10745685,0.10745685,0.24135202,-33.570945,109.81962)"
         style="font-style:normal;font-weight:normal;font-size:42.66666794px;line-height:1.25;font-family:sans-serif;letter-spacing:0px;word-spacing:0px;fill:#000000;fill-opacity:1;stroke:none"
         id="flowRoot9978">
        <path
           d="m 584.58602,238.58648 q 0,1.36533 -0.55467,2.64533 -0.512,1.28 -1.408,2.51733 -0.85333,1.23734 -1.96267,2.432 -1.10933,1.19467 -2.26133,2.34667 -0.64,0.64 -1.49333,1.536 -0.85334,0.896 -1.62134,1.83467 -0.768,0.93866 -1.28,1.83466 -0.512,0.896 -0.512,1.536 h 12.16 v 2.98667 h -16 q -0.0427,-0.21333 -0.0427,-0.42667 0,-0.256 0,-0.46933 0,-1.792 0.59733,-3.328 0.59733,-1.536 1.536,-2.90133 0.93867,-1.36534 2.09067,-2.56 1.19466,-1.23734 2.34666,-2.38934 0.93867,-0.93866 1.792,-1.83466 0.896,-0.896 1.536,-1.792 0.68267,-0.896 1.06667,-1.83467 0.42667,-0.98133 0.42667,-2.00533 0,-1.152 -0.384,-1.96267 -0.34134,-0.81067 -0.98134,-1.32267 -0.59733,-0.55466 -1.408,-0.81066 -0.81066,-0.256 -1.74933,-0.256 -1.10933,0 -2.048,0.29866 -0.896,0.29867 -1.62133,0.72534 -0.68267,0.42666 -1.19467,0.85333 -0.512,0.384 -0.768,0.64 l -1.74933,-2.47467 q 0.34133,-0.384 1.024,-0.93866 0.68266,-0.55467 1.62133,-1.024 0.98133,-0.512 2.176,-0.85334 1.19467,-0.34133 2.56,-0.34133 4.13867,0 6.10133,1.92 2.00534,1.87733 2.00534,5.41867 z"
           style="font-style:normal;font-variant:normal;font-weight:normal;font-stretch:normal;font-size:42.66666794px;line-height:53.33333588px;font-family:'Ubuntu Mono';-inkscape-font-specification:'Ubuntu Mono'"
           id="path11865" />
      </g>
      <g
         aria-label="0"
         transform="matrix(0.21373636,-0.15528856,0.15528856,0.21373636,-41.867707,122.51577)"
         style="font-style:normal;font-weight:normal;font-size:42.66666794px;line-height:1.25;font-family:sans-serif;letter-spacing:0px;word-spacing:0px;fill:#000000;fill-opacity:1;stroke:none"
         id="flowRoot9986">
        <path
           d="m 579.80735,244.55981 q 0,1.10933 -0.68267,1.92 -0.64,0.81067 -1.70666,0.81067 -1.10934,0 -1.792,-0.81067 -0.68267,-0.81067 -0.68267,-1.92 0,-1.10933 0.68267,-1.96267 0.68266,-0.85333 1.792,-0.85333 1.06666,0 1.70666,0.85333 0.68267,0.85334 0.68267,1.96267 z m -11.17867,0.46933 q 0,-6.656 2.26134,-10.19733 2.304,-3.584 6.44266,-3.584 4.18134,0 6.44267,3.584 2.26133,3.54133 2.26133,10.19733 0,6.656 -2.26133,10.24 -2.26133,3.54134 -6.44267,3.54134 -4.13866,0 -6.44266,-3.54134 -2.26134,-3.584 -2.26134,-10.24 z m 13.824,0 q 0,-2.176 -0.256,-4.096 -0.256,-1.96266 -0.85333,-3.41333 -0.59733,-1.45067 -1.57867,-2.304 -0.98133,-0.85333 -2.432,-0.85333 -1.45066,0 -2.432,0.85333 -0.98133,0.85333 -1.57866,2.304 -0.59734,1.45067 -0.85334,3.41333 -0.256,1.92 -0.256,4.096 0,2.176 0.256,4.13867 0.256,1.92 0.85334,3.37067 0.59733,1.45066 1.57866,2.304 0.98134,0.85333 2.432,0.85333 1.45067,0 2.432,-0.85333 0.98134,-0.85334 1.57867,-2.304 0.59733,-1.45067 0.85333,-3.37067 0.256,-1.96267 0.256,-4.13867 z"
           style="font-style:normal;font-variant:normal;font-weight:normal;font-stretch:normal;font-size:42.66666794px;line-height:53.33333588px;font-family:'Ubuntu Mono';-inkscape-font-specification:'Ubuntu Mono'"
           id="path11862" />
      </g>
      <g
         aria-label="1"
         transform="matrix(0.1767794,-0.19633342,0.19633342,0.1767794,-47.34348,136.65947)"
         style="font-style:normal;font-weight:normal;font-size:42.66666794px;line-height:1.25;font-family:sans-serif;letter-spacing:0px;word-spacing:0px;fill:#000000;fill-opacity:1;stroke:none"
         id="flowRoot9994">
        <path
           d="m 569.86602,237.30648 q 2.176,-0.85334 4.224,-2.13334 2.048,-1.32266 3.79733,-3.328 h 2.47467 v 23.424 h 4.992 v 2.98667 h -14.208 v -2.98667 h 5.71733 v -18.51733 q -0.46933,0.42667 -1.152,0.896 -0.64,0.42667 -1.45067,0.85333 -0.768,0.42667 -1.62133,0.81067 -0.85333,0.384 -1.664,0.64 z"
           style="font-style:normal;font-variant:normal;font-weight:normal;font-stretch:normal;font-size:42.66666794px;line-height:53.33333588px;font-family:'Ubuntu Mono';-inkscape-font-specification:'Ubuntu Mono'"
           id="path11859" />
      </g>
      <g
         aria-label="2"
         transform="matrix(0.13209633,-0.22879756,0.22879756,0.13209633,-49.758968,151.63258)"
         style="font-style:normal;font-weight:normal;font-size:42.66666794px;line-height:1.25;font-family:sans-serif;letter-spacing:0px;word-spacing:0px;fill:#000000;fill-opacity:1;stroke:none"
         id="flowRoot10002">
        <path
           d="m 584.58602,238.58648 q 0,1.36533 -0.55467,2.64533 -0.512,1.28 -1.408,2.51733 -0.85333,1.23734 -1.96267,2.432 -1.10933,1.19467 -2.26133,2.34667 -0.64,0.64 -1.49333,1.536 -0.85334,0.896 -1.62134,1.83467 -0.768,0.93866 -1.28,1.83466 -0.512,0.896 -0.512,1.536 h 12.16 v 2.98667 h -16 q -0.0427,-0.21333 -0.0427,-0.42667 0,-0.256 0,-0.46933 0,-1.792 0.59733,-3.328 0.59733,-1.536 1.536,-2.90133 0.93867,-1.36534 2.09067,-2.56 1.19466,-1.23734 2.34666,-2.38934 0.93867,-0.93866 1.792,-1.83466 0.896,-0.896 1.536,-1.792 0.68267,-0.896 1.06667,-1.83467 0.42667,-0.98133 0.42667,-2.00533 0,-1.152 -0.384,-1.96267 -0.34134,-0.81067 -0.98134,-1.32267 -0.59733,-0.55466 -1.408,-0.81066 -0.81066,-0.256 -1.74933,-0.256 -1.10933,0 -2.048,0.29866 -0.896,0.29867 -1.62133,0.72534 -0.68267,0.42666 -1.19467,0.85333 -0.512,0.384 -0.768,0.64 l -1.74933,-2.47467 q 0.34133,-0.384 1.024,-0.93866 0.68266,-0.55467 1.62133,-1.024 0.98133,-0.512 2.176,-0.85334 1.19467,-0.34133 2.56,-0.34133 4.13867,0 6.10133,1.92 2.00534,1.87733 2.00534,5.41867 z"
           style="font-style:normal;font-variant:normal;font-weight:normal;font-stretch:normal;font-size:42.66666794px;line-height:53.33333588px;font-family:'Ubuntu Mono';-inkscape-font-specification:'Ubuntu Mono'"
           id="path11856" />
      </g>
      <g
         aria-label="0"
         transform="matrix(0.08164002,-0.25126215,0.25126215,0.08164002,-49.008578,166.78069)"
         style="font-style:normal;font-weight:normal;font-size:42.66666794px;line-height:1.25;font-family:sans-serif;letter-spacing:0px;word-spacing:0px;fill:#000000;fill-opacity:1;stroke:none"
         id="flowRoot10010">
        <path
           d="m 579.80735,244.55981 q 0,1.10933 -0.68267,1.92 -0.64,0.81067 -1.70666,0.81067 -1.10934,0 -1.792,-0.81067 -0.68267,-0.81067 -0.68267,-1.92 0,-1.10933 0.68267,-1.96267 0.68266,-0.85333 1.792,-0.85333 1.06666,0 1.70666,0.85333 0.68267,0.85334 0.68267,1.96267 z m -11.17867,0.46933 q 0,-6.656 2.26134,-10.19733 2.304,-3.584 6.44266,-3.584 4.18134,0 6.44267,3.584 2.26133,3.54133 2.26133,10.19733 0,6.656 -2.26133,10.24 -2.26133,3.54134 -6.44267,3.54134 -4.13866,0 -6.44266,-3.54134 -2.26134,-3.584 -2.26134,-10.24 z m 13.824,0 q 0,-2.176 -0.256,-4.096 -0.256,-1.96266 -0.85333,-3.41333 -0.59733,-1.45067 -1.57867,-2.304 -0.98133,-0.85333 -2.432,-0.85333 -1.45066,0 -2.432,0.85333 -0.98133,0.85333 -1.57866,2.304 -0.59734,1.45067 -0.85334,3.41333 -0.256,1.92 -0.256,4.096 0,2.176 0.256,4.13867 0.256,1.92 0.85334,3.37067 0.59733,1.45066 1.57866,2.304 0.98134,0.85333 2.432,0.85333 1.45067,0 2.432,-0.85333 0.98134,-0.85334 1.57867,-2.304 0.59733,-1.45067 0.85333,-3.37067 0.256,-1.96267 0.256,-4.13867 z"
           style="font-style:normal;font-variant:normal;font-weight:normal;font-stretch:normal;font-size:42.66666794px;line-height:53.33333588px;font-family:'Ubuntu Mono';-inkscape-font-specification:'Ubuntu Mono'"
           id="path11853" />
      </g>
      <g
         aria-label="1"
         transform="matrix(0.02761566,-0.26274538,0.26274538,0.02761566,-45.12511,181.44177)"
         style="font-style:normal;font-weight:normal;font-size:42.66666794px;line-height:1.25;font-family:sans-serif;letter-spacing:0px;word-spacing:0px;fill:#000000;fill-opacity:1;stroke:none"
         id="flowRoot10018">
        <path
           d="m 569.86602,237.30648 q 2.176,-0.85334 4.224,-2.13334 2.048,-1.32266 3.79733,-3.328 h 2.47467 v 23.424 h 4.992 v 2.98667 h -14.208 v -2.98667 h 5.71733 v -18.51733 q -0.46933,0.42667 -1.152,0.896 -0.64,0.42667 -1.45067,0.85333 -0.768,0.42667 -1.62133,0.81067 -0.85333,0.384 -1.664,0.64 z"
           style="font-style:normal;font-variant:normal;font-weight:normal;font-stretch:normal;font-size:42.66666794px;line-height:53.33333588px;font-family:'Ubuntu Mono';-inkscape-font-specification:'Ubuntu Mono'"
           id="path11850" />
      </g>
      <g
         aria-label="2"
         transform="matrix(-0.02761565,-0.26274538,0.26274538,-0.02761565,-38.278305,194.97505)"
         style="font-style:normal;font-weight:normal;font-size:42.66666794px;line-height:1.25;font-family:sans-serif;letter-spacing:0px;word-spacing:0px;fill:#000000;fill-opacity:1;stroke:none"
         id="flowRoot10026">
        <path
           d="m 584.58602,238.58648 q 0,1.36533 -0.55467,2.64533 -0.512,1.28 -1.408,2.51733 -0.85333,1.23734 -1.96267,2.432 -1.10933,1.19467 -2.26133,2.34667 -0.64,0.64 -1.49333,1.536 -0.85334,0.896 -1.62134,1.83467 -0.768,0.93866 -1.28,1.83466 -0.512,0.896 -0.512,1.536 h 12.16 v 2.98667 h -16 q -0.0427,-0.21333 -0.0427,-0.42667 0,-0.256 0,-0.46933 0,-1.792 0.59733,-3.328 0.59733,-1.536 1.536,-2.90133 0.93867,-1.36534 2.09067,-2.56 1.19466,-1.23734 2.34666,-2.38934 0.93867,-0.93866 1.792,-1.83466 0.896,-0.896 1.536,-1.792 0.68267,-0.896 1.06667,-1.83467 0.42667,-0.98133 0.42667,-2.00533 0,-1.152 -0.384,-1.96267 -0.34134,-0.81067 -0.98134,-1.32267 -0.59733,-0.55466 -1.408,-0.81066 -0.81066,-0.256 -1.74933,-0.256 -1.10933,0 -2.048,0.29866 -0.896,0.29867 -1.62133,0.72534 -0.68267,0.42666 -1.19467,0.85333 -0.512,0.384 -0.768,0.64 l -1.74933,-2.47467 q 0.34133,-0.384 1.024,-0.93866 0.68266,-0.55467 1.62133,-1.024 0.98133,-0.512 2.176,-0.85334 1.19467,-0.34133 2.56,-0.34133 4.13867,0 6.10133,1.92 2.00534,1.87733 2.00534,5.41867 z"
           style="font-style:normal;font-variant:normal;font-weight:normal;font-stretch:normal;font-size:42.66666794px;line-height:53.33333588px;font-family:'Ubuntu Mono';-inkscape-font-specification:'Ubuntu Mono'"
           id="path11847" />
      </g>
      <g
         aria-label="0"
         transform="matrix(-0.08164001,-0.25126215,0.25126215,-0.08164001,-28.767388,206.78906)"
         style="font-style:normal;font-weight:normal;font-size:42.66666794px;line-height:1.25;font-family:sans-serif;letter-spacing:0px;word-spacing:0px;fill:#000000;fill-opacity:1;stroke:none"
         id="flowRoot10034">
        <path
           d="m 579.80735,244.55981 q 0,1.10933 -0.68267,1.92 -0.64,0.81067 -1.70666,0.81067 -1.10934,0 -1.792,-0.81067 -0.68267,-0.81067 -0.68267,-1.92 0,-1.10933 0.68267,-1.96267 0.68266,-0.85333 1.792,-0.85333 1.06666,0 1.70666,0.85333 0.68267,0.85334 0.68267,1.96267 z m -11.17867,0.46933 q 0,-6.656 2.26134,-10.19733 2.304,-3.584 6.44266,-3.584 4.18134,0 6.44267,3.584 2.26133,3.54133 2.26133,10.19733 0,6.656 -2.26133,10.24 -2.26133,3.54134 -6.44267,3.54134 -4.13866,0 -6.44266,-3.54134 -2.26134,-3.584 -2.26134,-10.24 z m 13.824,0 q 0,-2.176 -0.256,-4.096 -0.256,-1.96266 -0.85333,-3.41333 -0.59733,-1.45067 -1.57867,-2.304 -0.98133,-0.85333 -2.432,-0.85333 -1.45066,0 -2.432,0.85333 -0.98133,0.85333 -1.57866,2.304 -0.59734,1.45067 -0.85334,3.41333 -0.256,1.92 -0.256,4.096 0,2.176 0.256,4.13867 0.256,1.92 0.85334,3.37067 0.59733,1.45066 1.57866,2.304 0.98134,0.85333 2.432,0.85333 1.45067,0 2.432,-0.85333 0.98134,-0.85334 1.57867,-2.304 0.59733,-1.45067 0.85333,-3.37067 0.256,-1.96267 0.256,-4.13867 z"
           style="font-style:normal;font-variant:normal;font-weight:normal;font-stretch:normal;font-size:42.66666794px;line-height:53.33333588px;font-family:'Ubuntu Mono';-inkscape-font-specification:'Ubuntu Mono'"
           id="path11844" />
      </g>
      <g
         aria-label="1"
         transform="matrix(-0.13209632,-0.22879756,0.22879756,-0.13209632,-17.008047,216.36748)"
         style="font-style:normal;font-weight:normal;font-size:42.66666794px;line-height:1.25;font-family:sans-serif;letter-spacing:0px;word-spacing:0px;fill:#000000;fill-opacity:1;stroke:none"
         id="flowRoot10042">
        <path
           d="m 569.86602,237.30648 q 2.176,-0.85334 4.224,-2.13334 2.048,-1.32266 3.79733,-3.328 h 2.47467 v 23.424 h 4.992 v 2.98667 h -14.208 v -2.98667 h 5.71733 v -18.51733 q -0.46933,0.42667 -1.152,0.896 -0.64,0.42667 -1.45067,0.85333 -0.768,0.42667 -1.62133,0.81067 -0.85333,0.384 -1.664,0.64 z"
           style="font-style:normal;font-variant:normal;font-weight:normal;font-stretch:normal;font-size:42.66666794px;line-height:53.33333588px;font-family:'Ubuntu Mono';-inkscape-font-specification:'Ubuntu Mono'"
           id="path11841" />
      </g>
      <g
         aria-label="2"
         transform="matrix(-0.17677939,-0.19633342,0.19633342,-0.17677939,-3.5141998,223.29168)"
         style="font-style:normal;font-weight:normal;font-size:42.66666794px;line-height:1.25;font-family:sans-serif;letter-spacing:0px;word-spacing:0px;fill:#000000;fill-opacity:1;stroke:none"
         id="flowRoot10050">
        <path
           d="m 584.58602,238.58648 q 0,1.36533 -0.55467,2.64533 -0.512,1.28 -1.408,2.51733 -0.85333,1.23734 -1.96267,2.432 -1.10933,1.19467 -2.26133,2.34667 -0.64,0.64 -1.49333,1.536 -0.85334,0.896 -1.62134,1.83467 -0.768,0.93866 -1.28,1.83466 -0.512,0.896 -0.512,1.536 h 12.16 v 2.98667 h -16 q -0.0427,-0.21333 -0.0427,-0.42667 0,-0.256 0,-0.46933 0,-1.792 0.59733,-3.328 0.59733,-1.536 1.536,-2.90133 0.93867,-1.36534 2.09067,-2.56 1.19466,-1.23734 2.34666,-2.38934 0.93867,-0.93866 1.792,-1.83466 0.896,-0.896 1.536,-1.792 0.68267,-0.896 1.06667,-1.83467 0.42667,-0.98133 0.42667,-2.00533 0,-1.152 -0.384,-1.96267 -0.34134,-0.81067 -0.98134,-1.32267 -0.59733,-0.55466 -1.408,-0.81066 -0.81066,-0.256 -1.74933,-0.256 -1.10933,0 -2.048,0.29866 -0.896,0.29867 -1.62133,0.72534 -0.68267,0.42666 -1.19467,0.85333 -0.512,0.384 -0.768,0.64 l -1.74933,-2.47467 q 0.34133,-0.384 1.024,-0.93866 0.68266,-0.55467 1.62133,-1.024 0.98133,-0.512 2.176,-0.85334 1.19467,-0.34133 2.56,-0.34133 4.13867,0 6.10133,1.92 2.00534,1.87733 2.00534,5.41867 z"
           style="font-style:normal;font-variant:normal;font-weight:normal;font-stretch:normal;font-size:42.66666794px;line-height:53.33333588px;font-family:'Ubuntu Mono';-inkscape-font-specification:'Ubuntu Mono'"
           id="path11838" />
      </g>
      <g
         aria-label="0"
         transform="matrix(-0.21373635,-0.15528856,0.15528856,-0.21373635,11.124393,227.25904)"
         style="font-style:normal;font-weight:normal;font-size:42.66666794px;line-height:1.25;font-family:sans-serif;letter-spacing:0px;word-spacing:0px;fill:#000000;fill-opacity:1;stroke:none"
         id="flowRoot10058">
        <path
           d="m 579.80735,244.55981 q 0,1.10933 -0.68267,1.92 -0.64,0.81067 -1.70666,0.81067 -1.10934,0 -1.792,-0.81067 -0.68267,-0.81067 -0.68267,-1.92 0,-1.10933 0.68267,-1.96267 0.68266,-0.85333 1.792,-0.85333 1.06666,0 1.70666,0.85333 0.68267,0.85334 0.68267,1.96267 z m -11.17867,0.46933 q 0,-6.656 2.26134,-10.19733 2.304,-3.584 6.44266,-3.584 4.18134,0 6.44267,3.584 2.26133,3.54133 2.26133,10.19733 0,6.656 -2.26133,10.24 -2.26133,3.54134 -6.44267,3.54134 -4.13866,0 -6.44266,-3.54134 -2.26134,-3.584 -2.26134,-10.24 z m 13.824,0 q 0,-2.176 -0.256,-4.096 -0.256,-1.96266 -0.85333,-3.41333 -0.59733,-1.45067 -1.57867,-2.304 -0.98133,-0.85333 -2.432,-0.85333 -1.45066,0 -2.432,0.85333 -0.98133,0.85333 -1.57866,2.304 -0.59734,1.45067 -0.85334,3.41333 -0.256,1.92 -0.256,4.096 0,2.176 0.256,4.13867 0.256,1.92 0.85334,3.37067 0.59733,1.45066 1.57866,2.304 0.98134,0.85333 2.432,0.85333 1.45067,0 2.432,-0.85333 0.98134,-0.85334 1.57867,-2.304 0.59733,-1.45067 0.85333,-3.37067 0.256,-1.96267 0.256,-4.13867 z"
           style="font-style:normal;font-variant:normal;font-weight:normal;font-stretch:normal;font-size:42.66666794px;line-height:53.33333588px;font-family:'Ubuntu Mono';-inkscape-font-specification:'Ubuntu Mono'"
           id="path11835" />
      </g>
      <g
         aria-label="1"
         transform="matrix(-0.24135201,-0.10745685,0.10745685,-0.24135201,26.267962,228.09618)"
         style="font-style:normal;font-weight:normal;font-size:42.66666794px;line-height:1.25;font-family:sans-serif;letter-spacing:0px;word-spacing:0px;fill:#000000;fill-opacity:1;stroke:none"
         id="flowRoot10066">
        <path
           d="m 569.86602,237.30648 q 2.176,-0.85334 4.224,-2.13334 2.048,-1.32266 3.79733,-3.328 h 2.47467 v 23.424 h 4.992 v 2.98667 h -14.208 v -2.98667 h 5.71733 v -18.51733 q -0.46933,0.42667 -1.152,0.896 -0.64,0.42667 -1.45067,0.85333 -0.768,0.42667 -1.62133,0.81067 -0.85333,0.384 -1.664,0.64 z"
           style="font-style:normal;font-variant:normal;font-weight:normal;font-stretch:normal;font-size:42.66666794px;line-height:53.33333588px;font-family:'Ubuntu Mono';-inkscape-font-specification:'Ubuntu Mono'"
           id="path11832" />
      </g>
      <g
         aria-label="2"
         transform="matrix(-0.25841942,-0.05492875,0.05492875,-0.25841942,41.254651,225.76649)"
         style="font-style:normal;font-weight:normal;font-size:42.66666794px;line-height:1.25;font-family:sans-serif;letter-spacing:0px;word-spacing:0px;fill:#000000;fill-opacity:1;stroke:none"
         id="flowRoot10074">
        <path
           d="m 584.58602,238.58648 q 0,1.36533 -0.55467,2.64533 -0.512,1.28 -1.408,2.51733 -0.85333,1.23734 -1.96267,2.432 -1.10933,1.19467 -2.26133,2.34667 -0.64,0.64 -1.49333,1.536 -0.85334,0.896 -1.62134,1.83467 -0.768,0.93866 -1.28,1.83466 -0.512,0.896 -0.512,1.536 h 12.16 v 2.98667 h -16 q -0.0427,-0.21333 -0.0427,-0.42667 0,-0.256 0,-0.46933 0,-1.792 0.59733,-3.328 0.59733,-1.536 1.536,-2.90133 0.93867,-1.36534 2.09067,-2.56 1.19466,-1.23734 2.34666,-2.38934 0.93867,-0.93866 1.792,-1.83466 0.896,-0.896 1.536,-1.792 0.68267,-0.896 1.06667,-1.83467 0.42667,-0.98133 0.42667,-2.00533 0,-1.152 -0.384,-1.96267 -0.34134,-0.81067 -0.98134,-1.32267 -0.59733,-0.55466 -1.408,-0.81066 -0.81066,-0.256 -1.74933,-0.256 -1.10933,0 -2.048,0.29866 -0.896,0.29867 -1.62133,0.72534 -0.68267,0.42666 -1.19467,0.85333 -0.512,0.384 -0.768,0.64 l -1.74933,-2.47467 q 0.34133,-0.384 1.024,-0.93866 0.68266,-0.55467 1.62133,-1.024 0.98133,-0.512 2.176,-0.85334 1.19467,-0.34133 2.56,-0.34133 4.13867,0 6.10133,1.92 2.00534,1.87733 2.00534,5.41867 z"
           style="font-style:normal;font-variant:normal;font-weight:normal;font-stretch:normal;font-size:42.66666794px;line-height:53.33333588px;font-family:'Ubuntu Mono';-inkscape-font-specification:'Ubuntu Mono'"
           id="path11829" />
      </g>
      <g
         aria-label="0"
         transform="matrix(-0.26419266,0,0,-0.26419266,55.429481,220.37181)"
         style="font-style:normal;font-weight:normal;font-size:42.66666794px;line-height:1.25;font-family:sans-serif;letter-spacing:0px;word-spacing:0px;fill:#000000;fill-opacity:1;stroke:none"
         id="flowRoot10082">
        <path
           d="m 579.80735,244.55981 q 0,1.10933 -0.68267,1.92 -0.64,0.81067 -1.70666,0.81067 -1.10934,0 -1.792,-0.81067 -0.68267,-0.81067 -0.68267,-1.92 0,-1.10933 0.68267,-1.96267 0.68266,-0.85333 1.792,-0.85333 1.06666,0 1.70666,0.85333 0.68267,0.85334 0.68267,1.96267 z m -11.17867,0.46933 q 0,-6.656 2.26134,-10.19733 2.304,-3.584 6.44266,-3.584 4.18134,0 6.44267,3.584 2.26133,3.54133 2.26133,10.19733 0,6.656 -2.26133,10.24 -2.26133,3.54134 -6.44267,3.54134 -4.13866,0 -6.44266,-3.54134 -2.26134,-3.584 -2.26134,-10.24 z m 13.824,0 q 0,-2.176 -0.256,-4.096 -0.256,-1.96266 -0.85333,-3.41333 -0.59733,-1.45067 -1.57867,-2.304 -0.98133,-0.85333 -2.432,-0.85333 -1.45066,0 -2.432,0.85333 -0.98133,0.85333 -1.57866,2.304 -0.59734,1.45067 -0.85334,3.41333 -0.256,1.92 -0.256,4.096 0,2.176 0.256,4.13867 0.256,1.92 0.85334,3.37067 0.59733,1.45066 1.57866,2.304 0.98134,0.85333 2.432,0.85333 1.45067,0 2.432,-0.85333 0.98134,-0.85334 1.57867,-2.304 0.59733,-1.45067 0.85333,-3.37067 0.256,-1.96267 0.256,-4.13867 z"
           style="font-style:normal;font-variant:normal;font-weight:normal;font-stretch:normal;font-size:42.66666794px;line-height:53.33333588px;font-family:'Ubuntu Mono';-inkscape-font-specification:'Ubuntu Mono'"
           id="path11826" />
      </g>
      <g
         aria-label="1"
         transform="matrix(-0.25841942,0.05492875,-0.05492875,-0.25841942,68.172938,212.1479)"
         style="font-style:normal;font-weight:normal;font-size:42.66666794px;line-height:1.25;font-family:sans-serif;letter-spacing:0px;word-spacing:0px;fill:#000000;fill-opacity:1;stroke:none"
         id="flowRoot10090">
        <path
           d="m 569.86602,237.30648 q 2.176,-0.85334 4.224,-2.13334 2.048,-1.32266 3.79733,-3.328 h 2.47467 v 23.424 h 4.992 v 2.98667 h -14.208 v -2.98667 h 5.71733 v -18.51733 q -0.46933,0.42667 -1.152,0.896 -0.64,0.42667 -1.45067,0.85333 -0.768,0.42667 -1.62133,0.81067 -0.85333,0.384 -1.664,0.64 z"
           style="font-style:normal;font-variant:normal;font-weight:normal;font-stretch:normal;font-size:42.66666794px;line-height:53.33333588px;font-family:'Ubuntu Mono';-inkscape-font-specification:'Ubuntu Mono'"
           id="path11823" />
      </g>
      <g
         aria-label="2"
         transform="matrix(-0.24135201,0.10745685,-0.10745685,-0.24135201,78.928074,201.45419)"
         style="font-style:normal;font-weight:normal;font-size:42.66666794px;line-height:1.25;font-family:sans-serif;letter-spacing:0px;word-spacing:0px;fill:#000000;fill-opacity:1;stroke:none"
         id="flowRoot10098">
        <path
           d="m 584.58602,238.58648 q 0,1.36533 -0.55467,2.64533 -0.512,1.28 -1.408,2.51733 -0.85333,1.23734 -1.96267,2.432 -1.10933,1.19467 -2.26133,2.34667 -0.64,0.64 -1.49333,1.536 -0.85334,0.896 -1.62134,1.83467 -0.768,0.93866 -1.28,1.83466 -0.512,0.896 -0.512,1.536 h 12.16 v 2.98667 h -16 q -0.0427,-0.21333 -0.0427,-0.42667 0,-0.256 0,-0.46933 0,-1.792 0.59733,-3.328 0.59733,-1.536 1.536,-2.90133 0.93867,-1.36534 2.09067,-2.56 1.19466,-1.23734 2.34666,-2.38934 0.93867,-0.93866 1.792,-1.83466 0.896,-0.896 1.536,-1.792 0.68267,-0.896 1.06667,-1.83467 0.42667,-0.98133 0.42667,-2.00533 0,-1.152 -0.384,-1.96267 -0.34134,-0.81067 -0.98134,-1.32267 -0.59733,-0.55466 -1.408,-0.81066 -0.81066,-0.256 -1.74933,-0.256 -1.10933,0 -2.048,0.29866 -0.896,0.29867 -1.62133,0.72534 -0.68267,0.42666 -1.19467,0.85333 -0.512,0.384 -0.768,0.64 l -1.74933,-2.47467 q 0.34133,-0.384 1.024,-0.93866 0.68266,-0.55467 1.62133,-1.024 0.98133,-0.512 2.176,-0.85334 1.19467,-0.34133 2.56,-0.34133 4.13867,0 6.10133,1.92 2.00534,1.87733 2.00534,5.41867 z"
           style="font-style:normal;font-variant:normal;font-weight:normal;font-stretch:normal;font-size:42.66666794px;line-height:53.33333588px;font-family:'Ubuntu Mono';-inkscape-font-specification:'Ubuntu Mono'"
           id="path11820" />
      </g>
      <g
         aria-label="0"
         transform="matrix(-0.21373635,0.15528856,-0.15528856,-0.21373635,87.224836,188.75805)"
         style="font-style:normal;font-weight:normal;font-size:42.66666794px;line-height:1.25;font-family:sans-serif;letter-spacing:0px;word-spacing:0px;fill:#000000;fill-opacity:1;stroke:none"
         id="flowRoot10106">
        <path
           d="m 579.80735,244.55981 q 0,1.10933 -0.68267,1.92 -0.64,0.81067 -1.70666,0.81067 -1.10934,0 -1.792,-0.81067 -0.68267,-0.81067 -0.68267,-1.92 0,-1.10933 0.68267,-1.96267 0.68266,-0.85333 1.792,-0.85333 1.06666,0 1.70666,0.85333 0.68267,0.85334 0.68267,1.96267 z m -11.17867,0.46933 q 0,-6.656 2.26134,-10.19733 2.304,-3.584 6.44266,-3.584 4.18134,0 6.44267,3.584 2.26133,3.54133 2.26133,10.19733 0,6.656 -2.26133,10.24 -2.26133,3.54134 -6.44267,3.54134 -4.13866,0 -6.44266,-3.54134 -2.26134,-3.584 -2.26134,-10.24 z m 13.824,0 q 0,-2.176 -0.256,-4.096 -0.256,-1.96266 -0.85333,-3.41333 -0.59733,-1.45067 -1.57867,-2.304 -0.98133,-0.85333 -2.432,-0.85333 -1.45066,0 -2.432,0.85333 -0.98133,0.85333 -1.57866,2.304 -0.59734,1.45067 -0.85334,3.41333 -0.256,1.92 -0.256,4.096 0,2.176 0.256,4.13867 0.256,1.92 0.85334,3.37067 0.59733,1.45066 1.57866,2.304 0.98134,0.85333 2.432,0.85333 1.45067,0 2.432,-0.85333 0.98134,-0.85334 1.57867,-2.304 0.59733,-1.45067 0.85333,-3.37067 0.256,-1.96267 0.256,-4.13867 z"
           style="font-style:normal;font-variant:normal;font-weight:normal;font-stretch:normal;font-size:42.66666794px;line-height:53.33333588px;font-family:'Ubuntu Mono';-inkscape-font-specification:'Ubuntu Mono'"
           id="path11817" />
      </g>
      <g
         aria-label="1"
         transform="matrix(-0.17677939,0.19633342,-0.19633342,-0.17677939,92.700619,174.61435)"
         style="font-style:normal;font-weight:normal;font-size:42.66666794px;line-height:1.25;font-family:sans-serif;letter-spacing:0px;word-spacing:0px;fill:#000000;fill-opacity:1;stroke:none"
         id="flowRoot10114">
        <path
           d="m 569.86602,237.30648 q 2.176,-0.85334 4.224,-2.13334 2.048,-1.32266 3.79733,-3.328 h 2.47467 v 23.424 h 4.992 v 2.98667 h -14.208 v -2.98667 h 5.71733 v -18.51733 q -0.46933,0.42667 -1.152,0.896 -0.64,0.42667 -1.45067,0.85333 -0.768,0.42667 -1.62133,0.81067 -0.85333,0.384 -1.664,0.64 z"
           style="font-style:normal;font-variant:normal;font-weight:normal;font-stretch:normal;font-size:42.66666794px;line-height:53.33333588px;font-family:'Ubuntu Mono';-inkscape-font-specification:'Ubuntu Mono'"
           id="path11814" />
      </g>
      <g
         aria-label="2"
         transform="matrix(-0.13209632,0.22879756,-0.22879756,-0.13209632,95.116097,159.64125)"
         style="font-style:normal;font-weight:normal;font-size:42.66666794px;line-height:1.25;font-family:sans-serif;letter-spacing:0px;word-spacing:0px;fill:#000000;fill-opacity:1;stroke:none"
         id="flowRoot10122">
        <path
           d="m 584.58602,238.58648 q 0,1.36533 -0.55467,2.64533 -0.512,1.28 -1.408,2.51733 -0.85333,1.23734 -1.96267,2.432 -1.10933,1.19467 -2.26133,2.34667 -0.64,0.64 -1.49333,1.536 -0.85334,0.896 -1.62134,1.83467 -0.768,0.93866 -1.28,1.83466 -0.512,0.896 -0.512,1.536 h 12.16 v 2.98667 h -16 q -0.0427,-0.21333 -0.0427,-0.42667 0,-0.256 0,-0.46933 0,-1.792 0.59733,-3.328 0.59733,-1.536 1.536,-2.90133 0.93867,-1.36534 2.09067,-2.56 1.19466,-1.23734 2.34666,-2.38934 0.93867,-0.93866 1.792,-1.83466 0.896,-0.896 1.536,-1.792 0.68267,-0.896 1.06667,-1.83467 0.42667,-0.98133 0.42667,-2.00533 0,-1.152 -0.384,-1.96267 -0.34134,-0.81067 -0.98134,-1.32267 -0.59733,-0.55466 -1.408,-0.81066 -0.81066,-0.256 -1.74933,-0.256 -1.10933,0 -2.048,0.29866 -0.896,0.29867 -1.62133,0.72534 -0.68267,0.42666 -1.19467,0.85333 -0.512,0.384 -0.768,0.64 l -1.74933,-2.47467 q 0.34133,-0.384 1.024,-0.93866 0.68266,-0.55467 1.62133,-1.024 0.98133,-0.512 2.176,-0.85334 1.19467,-0.34133 2.56,-0.34133 4.13867,0 6.10133,1.92 2.00534,1.87733 2.00534,5.41867 z"
           style="font-style:normal;font-variant:normal;font-weight:normal;font-stretch:normal;font-size:42.66666794px;line-height:53.33333588px;font-family:'Ubuntu Mono';-inkscape-font-specification:'Ubuntu Mono'"
           id="path11811" />
      </g>
      <g
         aria-label="0"
         transform="matrix(-0.08164001,0.25126215,-0.25126215,-0.08164001,94.365717,144.49314)"
         style="font-style:normal;font-weight:normal;font-size:42.66666794px;line-height:1.25;font-family:sans-serif;letter-spacing:0px;word-spacing:0px;fill:#000000;fill-opacity:1;stroke:none"
         id="flowRoot10130">
        <path
           d="m 579.80735,244.55981 q 0,1.10933 -0.68267,1.92 -0.64,0.81067 -1.70666,0.81067 -1.10934,0 -1.792,-0.81067 -0.68267,-0.81067 -0.68267,-1.92 0,-1.10933 0.68267,-1.96267 0.68266,-0.85333 1.792,-0.85333 1.06666,0 1.70666,0.85333 0.68267,0.85334 0.68267,1.96267 z m -11.17867,0.46933 q 0,-6.656 2.26134,-10.19733 2.304,-3.584 6.44266,-3.584 4.18134,0 6.44267,3.584 2.26133,3.54133 2.26133,10.19733 0,6.656 -2.26133,10.24 -2.26133,3.54134 -6.44267,3.54134 -4.13866,0 -6.44266,-3.54134 -2.26134,-3.584 -2.26134,-10.24 z m 13.824,0 q 0,-2.176 -0.256,-4.096 -0.256,-1.96266 -0.85333,-3.41333 -0.59733,-1.45067 -1.57867,-2.304 -0.98133,-0.85333 -2.432,-0.85333 -1.45066,0 -2.432,0.85333 -0.98133,0.85333 -1.57866,2.304 -0.59734,1.45067 -0.85334,3.41333 -0.256,1.92 -0.256,4.096 0,2.176 0.256,4.13867 0.256,1.92 0.85334,3.37067 0.59733,1.45066 1.57866,2.304 0.98134,0.85333 2.432,0.85333 1.45067,0 2.432,-0.85333 0.98134,-0.85334 1.57867,-2.304 0.59733,-1.45067 0.85333,-3.37067 0.256,-1.96267 0.256,-4.13867 z"
           style="font-style:normal;font-variant:normal;font-weight:normal;font-stretch:normal;font-size:42.66666794px;line-height:53.33333588px;font-family:'Ubuntu Mono';-inkscape-font-specification:'Ubuntu Mono'"
           id="path11808" />
      </g>
      <g
         aria-label="1"
         transform="matrix(-0.02761565,0.26274538,-0.26274538,-0.02761565,90.482259,129.83207)"
         style="font-style:normal;font-weight:normal;font-size:42.66666794px;line-height:1.25;font-family:sans-serif;letter-spacing:0px;word-spacing:0px;fill:#000000;fill-opacity:1;stroke:none"
         id="flowRoot10138">
        <path
           d="m 569.86602,237.30648 q 2.176,-0.85334 4.224,-2.13334 2.048,-1.32266 3.79733,-3.328 h 2.47467 v 23.424 h 4.992 v 2.98667 h -14.208 v -2.98667 h 5.71733 v -18.51733 q -0.46933,0.42667 -1.152,0.896 -0.64,0.42667 -1.45067,0.85333 -0.768,0.42667 -1.62133,0.81067 -0.85333,0.384 -1.664,0.64 z"
           style="font-style:normal;font-variant:normal;font-weight:normal;font-stretch:normal;font-size:42.66666794px;line-height:53.33333588px;font-family:'Ubuntu Mono';-inkscape-font-specification:'Ubuntu Mono'"
           id="path11805" />
      </g>
      <g
         aria-label="2"
         transform="matrix(0.02761566,0.26274538,-0.26274538,0.02761566,83.635463,116.29879)"
         style="font-style:normal;font-weight:normal;font-size:42.66666794px;line-height:1.25;font-family:sans-serif;letter-spacing:0px;word-spacing:0px;fill:#000000;fill-opacity:1;stroke:none"
         id="flowRoot10146">
        <path
           d="m 584.58602,238.58648 q 0,1.36533 -0.55467,2.64533 -0.512,1.28 -1.408,2.51733 -0.85333,1.23734 -1.96267,2.432 -1.10933,1.19467 -2.26133,2.34667 -0.64,0.64 -1.49333,1.536 -0.85334,0.896 -1.62134,1.83467 -0.768,0.93866 -1.28,1.83466 -0.512,0.896 -0.512,1.536 h 12.16 v 2.98667 h -16 q -0.0427,-0.21333 -0.0427,-0.42667 0,-0.256 0,-0.46933 0,-1.792 0.59733,-3.328 0.59733,-1.536 1.536,-2.90133 0.93867,-1.36534 2.09067,-2.56 1.19466,-1.23734 2.34666,-2.38934 0.93867,-0.93866 1.792,-1.83466 0.896,-0.896 1.536,-1.792 0.68267,-0.896 1.06667,-1.83467 0.42667,-0.98133 0.42667,-2.00533 0,-1.152 -0.384,-1.96267 -0.34134,-0.81067 -0.98134,-1.32267 -0.59733,-0.55466 -1.408,-0.81066 -0.81066,-0.256 -1.74933,-0.256 -1.10933,0 -2.048,0.29866 -0.896,0.29867 -1.62133,0.72534 -0.68267,0.42666 -1.19467,0.85333 -0.512,0.384 -0.768,0.64 l -1.74933,-2.47467 q 0.34133,-0.384 1.024,-0.93866 0.68266,-0.55467 1.62133,-1.024 0.98133,-0.512 2.176,-0.85334 1.19467,-0.34133 2.56,-0.34133 4.13867,0 6.10133,1.92 2.00534,1.87733 2.00534,5.41867 z"
           style="font-style:normal;font-variant:normal;font-weight:normal;font-stretch:normal;font-size:42.66666794px;line-height:53.33333588px;font-family:'Ubuntu Mono';-inkscape-font-specification:'Ubuntu Mono'"
           id="path11802" />
      </g>
      <g
         aria-label="0"
         transform="matrix(0.08164002,0.25126215,-0.25126215,0.08164002,74.124557,104.48477)"
         style="font-style:normal;font-weight:normal;font-size:42.66666794px;line-height:1.25;font-family:sans-serif;letter-spacing:0px;word-spacing:0px;fill:#000000;fill-opacity:1;stroke:none"
         id="flowRoot10154">
        <path
           d="m 579.80735,244.55981 q 0,1.10933 -0.68267,1.92 -0.64,0.81067 -1.70666,0.81067 -1.10934,0 -1.792,-0.81067 -0.68267,-0.81067 -0.68267,-1.92 0,-1.10933 0.68267,-1.96267 0.68266,-0.85333 1.792,-0.85333 1.06666,0 1.70666,0.85333 0.68267,0.85334 0.68267,1.96267 z m -11.17867,0.46933 q 0,-6.656 2.26134,-10.19733 2.304,-3.584 6.44266,-3.584 4.18134,0 6.44267,3.584 2.26133,3.54133 2.26133,10.19733 0,6.656 -2.26133,10.24 -2.26133,3.54134 -6.44267,3.54134 -4.13866,0 -6.44266,-3.54134 -2.26134,-3.584 -2.26134,-10.24 z m 13.824,0 q 0,-2.176 -0.256,-4.096 -0.256,-1.96266 -0.85333,-3.41333 -0.59733,-1.45067 -1.57867,-2.304 -0.98133,-0.85333 -2.432,-0.85333 -1.45066,0 -2.432,0.85333 -0.98133,0.85333 -1.57866,2.304 -0.59734,1.45067 -0.85334,3.41333 -0.256,1.92 -0.256,4.096 0,2.176 0.256,4.13867 0.256,1.92 0.85334,3.37067 0.59733,1.45066 1.57866,2.304 0.98134,0.85333 2.432,0.85333 1.45067,0 2.432,-0.85333 0.98134,-0.85334 1.57867,-2.304 0.59733,-1.45067 0.85333,-3.37067 0.256,-1.96267 0.256,-4.13867 z"
           style="font-style:normal;font-variant:normal;font-weight:normal;font-stretch:normal;font-size:42.66666794px;line-height:53.33333588px;font-family:'Ubuntu Mono';-inkscape-font-specification:'Ubuntu Mono'"
           id="path11799" />
      </g>
      <g
         aria-label="1"
         transform="matrix(0.13209633,0.22879756,-0.22879756,0.13209633,62.365215,94.906343)"
         style="font-style:normal;font-weight:normal;font-size:42.66666794px;line-height:1.25;font-family:sans-serif;letter-spacing:0px;word-spacing:0px;fill:#000000;fill-opacity:1;stroke:none"
         id="flowRoot10162">
        <path
           d="m 569.86602,237.30648 q 2.176,-0.85334 4.224,-2.13334 2.048,-1.32266 3.79733,-3.328 h 2.47467 v 23.424 h 4.992 v 2.98667 h -14.208 v -2.98667 h 5.71733 v -18.51733 q -0.46933,0.42667 -1.152,0.896 -0.64,0.42667 -1.45067,0.85333 -0.768,0.42667 -1.62133,0.81067 -0.85333,0.384 -1.664,0.64 z"
           style="font-style:normal;font-variant:normal;font-weight:normal;font-stretch:normal;font-size:42.66666794px;line-height:53.33333588px;font-family:'Ubuntu Mono';-inkscape-font-specification:'Ubuntu Mono'"
           id="path11796" />
      </g>
      <g
         aria-label="2"
         transform="matrix(0.1767794,0.19633342,-0.19633342,0.1767794,48.871378,87.982131)"
         style="font-style:normal;font-weight:normal;font-size:42.66666794px;line-height:1.25;font-family:sans-serif;letter-spacing:0px;word-spacing:0px;fill:#000000;fill-opacity:1;stroke:none"
         id="flowRoot10170">
        <path
           d="m 584.58602,238.58648 q 0,1.36533 -0.55467,2.64533 -0.512,1.28 -1.408,2.51733 -0.85333,1.23734 -1.96267,2.432 -1.10933,1.19467 -2.26133,2.34667 -0.64,0.64 -1.49333,1.536 -0.85334,0.896 -1.62134,1.83467 -0.768,0.93866 -1.28,1.83466 -0.512,0.896 -0.512,1.536 h 12.16 v 2.98667 h -16 q -0.0427,-0.21333 -0.0427,-0.42667 0,-0.256 0,-0.46933 0,-1.792 0.59733,-3.328 0.59733,-1.536 1.536,-2.90133 0.93867,-1.36534 2.09067,-2.56 1.19466,-1.23734 2.34666,-2.38934 0.93867,-0.93866 1.792,-1.83466 0.896,-0.896 1.536,-1.792 0.68267,-0.896 1.06667,-1.83467 0.42667,-0.98133 0.42667,-2.00533 0,-1.152 -0.384,-1.96267 -0.34134,-0.81067 -0.98134,-1.32267 -0.59733,-0.55466 -1.408,-0.81066 -0.81066,-0.256 -1.74933,-0.256 -1.10933,0 -2.048,0.29866 -0.896,0.29867 -1.62133,0.72534 -0.68267,0.42666 -1.19467,0.85333 -0.512,0.384 -0.768,0.64 l -1.74933,-2.47467 q 0.34133,-0.384 1.024,-0.93866 0.68266,-0.55467 1.62133,-1.024 0.98133,-0.512 2.176,-0.85334 1.19467,-0.34133 2.56,-0.34133 4.13867,0 6.10133,1.92 2.00534,1.87733 2.00534,5.41867 z"
           style="font-style:normal;font-variant:normal;font-weight:normal;font-stretch:normal;font-size:42.66666794px;line-height:53.33333588px;font-family:'Ubuntu Mono';-inkscape-font-specification:'Ubuntu Mono'"
           id="path11793" />
      </g>
      <g
         aria-label="0"
         transform="matrix(0.21373636,0.15528856,-0.15528856,0.21373636,34.232784,84.014758)"
         style="font-style:normal;font-weight:normal;font-size:42.66666794px;line-height:1.25;font-family:sans-serif;letter-spacing:0px;word-spacing:0px;fill:#000000;fill-opacity:1;stroke:none"
         id="flowRoot10178">
        <path
           d="m 579.80735,244.55981 q 0,1.10933 -0.68267,1.92 -0.64,0.81067 -1.70666,0.81067 -1.10934,0 -1.792,-0.81067 -0.68267,-0.81067 -0.68267,-1.92 0,-1.10933 0.68267,-1.96267 0.68266,-0.85333 1.792,-0.85333 1.06666,0 1.70666,0.85333 0.68267,0.85334 0.68267,1.96267 z m -11.17867,0.46933 q 0,-6.656 2.26134,-10.19733 2.304,-3.584 6.44266,-3.584 4.18134,0 6.44267,3.584 2.26133,3.54133 2.26133,10.19733 0,6.656 -2.26133,10.24 -2.26133,3.54134 -6.44267,3.54134 -4.13866,0 -6.44266,-3.54134 -2.26134,-3.584 -2.26134,-10.24 z m 13.824,0 q 0,-2.176 -0.256,-4.096 -0.256,-1.96266 -0.85333,-3.41333 -0.59733,-1.45067 -1.57867,-2.304 -0.98133,-0.85333 -2.432,-0.85333 -1.45066,0 -2.432,0.85333 -0.98133,0.85333 -1.57866,2.304 -0.59734,1.45067 -0.85334,3.41333 -0.256,1.92 -0.256,4.096 0,2.176 0.256,4.13867 0.256,1.92 0.85334,3.37067 0.59733,1.45066 1.57866,2.304 0.98134,0.85333 2.432,0.85333 1.45067,0 2.432,-0.85333 0.98134,-0.85334 1.57867,-2.304 0.59733,-1.45067 0.85333,-3.37067 0.256,-1.96267 0.256,-4.13867 z"
           style="font-style:normal;font-variant:normal;font-weight:normal;font-stretch:normal;font-size:42.66666794px;line-height:53.33333588px;font-family:'Ubuntu Mono';-inkscape-font-specification:'Ubuntu Mono'"
           id="path11790" />
      </g>
      <g
         aria-label="1"
         transform="matrix(0.24135202,0.10745685,-0.10745685,0.24135202,19.089217,83.177616)"
         style="font-style:normal;font-weight:normal;font-size:42.66666794px;line-height:1.25;font-family:sans-serif;letter-spacing:0px;word-spacing:0px;fill:#000000;fill-opacity:1;stroke:none"
         id="flowRoot10186">
        <path
           d="m 569.86602,237.30648 q 2.176,-0.85334 4.224,-2.13334 2.048,-1.32266 3.79733,-3.328 h 2.47467 v 23.424 h 4.992 v 2.98667 h -14.208 v -2.98667 h 5.71733 v -18.51733 q -0.46933,0.42667 -1.152,0.896 -0.64,0.42667 -1.45067,0.85333 -0.768,0.42667 -1.62133,0.81067 -0.85333,0.384 -1.664,0.64 z"
           style="font-style:normal;font-variant:normal;font-weight:normal;font-stretch:normal;font-size:42.66666794px;line-height:53.33333588px;font-family:'Ubuntu Mono';-inkscape-font-specification:'Ubuntu Mono'"
           id="path11787" />
      </g>
      <g
         aria-label="2"
         transform="matrix(0.25841943,0.05492875,-0.05492875,0.25841943,4.1025214,85.507301)"
         style="font-style:normal;font-weight:normal;font-size:42.66666794px;line-height:1.25;font-family:sans-serif;letter-spacing:0px;word-spacing:0px;fill:#000000;fill-opacity:1;stroke:none"
         id="flowRoot10194">
        <path
           d="m 584.58602,238.58648 q 0,1.36533 -0.55467,2.64533 -0.512,1.28 -1.408,2.51733 -0.85333,1.23734 -1.96267,2.432 -1.10933,1.19467 -2.26133,2.34667 -0.64,0.64 -1.49333,1.536 -0.85334,0.896 -1.62134,1.83467 -0.768,0.93866 -1.28,1.83466 -0.512,0.896 -0.512,1.536 h 12.16 v 2.98667 h -16 q -0.0427,-0.21333 -0.0427,-0.42667 0,-0.256 0,-0.46933 0,-1.792 0.59733,-3.328 0.59733,-1.536 1.536,-2.90133 0.93867,-1.36534 2.09067,-2.56 1.19466,-1.23734 2.34666,-2.38934 0.93867,-0.93866 1.792,-1.83466 0.896,-0.896 1.536,-1.792 0.68267,-0.896 1.06667,-1.83467 0.42667,-0.98133 0.42667,-2.00533 0,-1.152 -0.384,-1.96267 -0.34134,-0.81067 -0.98134,-1.32267 -0.59733,-0.55466 -1.408,-0.81066 -0.81066,-0.256 -1.74933,-0.256 -1.10933,0 -2.048,0.29866 -0.896,0.29867 -1.62133,0.72534 -0.68267,0.42666 -1.19467,0.85333 -0.512,0.384 -0.768,0.64 l -1.74933,-2.47467 q 0.34133,-0.384 1.024,-0.93866 0.68266,-0.55467 1.62133,-1.024 0.98133,-0.512 2.176,-0.85334 1.19467,-0.34133 2.56,-0.34133 4.13867,0 6.10133,1.92 2.00534,1.87733 2.00534,5.41867 z"
           style="font-style:normal;font-variant:normal;font-weight:normal;font-stretch:normal;font-size:42.66666794px;line-height:53.33333588px;font-family:'Ubuntu Mono';-inkscape-font-specification:'Ubuntu Mono'"
           id="path11784" />
      </g>
    </g>
  </g>
</svg>
