<?xml version="1.0" encoding="UTF-8" standalone="no"?>
<svg
   xmlns:dc="http://purl.org/dc/elements/1.1/"
   xmlns:cc="http://creativecommons.org/ns#"
   xmlns:rdf="http://www.w3.org/1999/02/22-rdf-syntax-ns#"
   xmlns:svg="http://www.w3.org/2000/svg"
   xmlns="http://www.w3.org/2000/svg"
   xmlns:sodipodi="http://sodipodi.sourceforge.net/DTD/sodipodi-0.dtd"
   xmlns:inkscape="http://www.inkscape.org/namespaces/inkscape"
   id="svg7910"
   version="1.1"
   viewBox="0 0 370.41666 370.41668"
   height="1400"
   width="1400"
   sodipodi:docname="3.svg"
   inkscape:version="0.92.4 (5da689c313, 2019-01-14)">
  <sodipodi:namedview
     pagecolor="#ffffff"
     bordercolor="#666666"
     borderopacity="1"
     objecttolerance="10"
     gridtolerance="10"
     guidetolerance="10"
     inkscape:pageopacity="0"
     inkscape:pageshadow="2"
     inkscape:window-width="1920"
     inkscape:window-height="1029"
     id="namedview104"
     showgrid="false"
     inkscape:zoom="0.59"
     inkscape:cx="700"
     inkscape:cy="700"
     inkscape:window-x="1920"
     inkscape:window-y="25"
     inkscape:window-maximized="1"
     inkscape:current-layer="svg7910" />
  <defs
     id="defs7904" />
  <metadata
     id="metadata7907">
    <rdf:RDF>
      <cc:Work
         rdf:about="">
        <dc:format>image/svg+xml</dc:format>
        <dc:type
           rdf:resource="http://purl.org/dc/dcmitype/StillImage" />
        <dc:title />
      </cc:Work>
    </rdf:RDF>
  </metadata>
  <g
     id="g1203">
    <circle
       style="fill:#cccccc;fill-opacity:1;stroke:#000000;stroke-width:0.79322084;stroke-miterlimit:4;stroke-dasharray:none;stroke-opacity:1"
       id="circle9168"
       cx="188.41246"
       cy="181.9478"
       r="184.81113"
       transform="rotate(1.0000002)" />
    <path
       d="m 357.56772,185.08423 q 0,0.29332 -0.18051,0.50768 -0.16923,0.21436 -0.45128,0.21436 -0.29333,0 -0.47383,-0.21436 -0.18052,-0.21436 -0.18052,-0.50768 0,-0.29333 0.18052,-0.51897 0.1805,-0.22564 0.47383,-0.22564 0.28205,0 0.45128,0.22564 0.18051,0.22564 0.18051,0.51897 z m -2.95585,0.1241 q 0,-1.75998 0.59794,-2.69637 0.60922,-0.94768 1.70356,-0.94768 1.10562,0 1.70356,0.94768 0.59794,0.93639 0.59794,2.69637 0,1.75997 -0.59794,2.70765 -0.59794,0.93639 -1.70356,0.93639 -1.09434,0 -1.70356,-0.93639 -0.59794,-0.94768 -0.59794,-2.70765 z m 3.65532,0 q 0,-0.57538 -0.0677,-1.08306 -0.0677,-0.51897 -0.22563,-0.90255 -0.15795,-0.38359 -0.41743,-0.60923 -0.25949,-0.22563 -0.64307,-0.22563 -0.38358,0 -0.64307,0.22563 -0.25948,0.22564 -0.41743,0.60923 -0.15794,0.38358 -0.22564,0.90255 -0.0677,0.50768 -0.0677,1.08306 0,0.57537 0.0677,1.09434 0.0677,0.50768 0.22564,0.89127 0.15795,0.38358 0.41743,0.60922 0.25949,0.22564 0.64307,0.22564 0.38358,0 0.64307,-0.22564 0.25948,-0.22564 0.41743,-0.60922 0.15794,-0.38359 0.22563,-0.89127 0.0677,-0.51897 0.0677,-1.09434 z"
       style="font-style:normal;font-variant:normal;font-weight:normal;font-stretch:normal;font-size:42.66666794px;line-height:53.33333588px;font-family:'Ubuntu Mono';-inkscape-font-specification:'Ubuntu Mono';letter-spacing:0px;word-spacing:0px;fill:#000000;fill-opacity:1;stroke:none;stroke-width:0.26441899"
       id="path9181"
       inkscape:connector-curvature="0" />
    <path
       d="m 354.83163,206.74312 q 1.49148,0.25325 2.09427,0.94708 0.60278,0.69384 0.46878,1.71171 -0.0604,0.4586 -0.25733,0.83094 -0.19695,0.37235 -0.54695,0.61075 -0.33882,0.23987 -0.84041,0.33315 -0.4904,0.0947 -1.13915,0.009 -0.26845,-0.0353 -0.53101,-0.11542 -0.25284,-0.0674 -0.48037,-0.15428 -0.22753,-0.0868 -0.39914,-0.16634 -0.17013,-0.0907 -0.24253,-0.14572 l 0.28352,-0.7706 q 0.16718,0.11304 0.5201,0.28468 0.3641,0.17311 0.93456,0.24821 0.44741,0.0589 0.76267,-0.002 0.31526,-0.0609 0.51631,-0.20513 0.21371,-0.15393 0.32146,-0.36733 0.11894,-0.21192 0.15133,-0.458 0.0501,-0.3803 -0.0459,-0.68879 -0.0833,-0.31821 -0.38114,-0.56225 -0.28669,-0.24257 -0.8327,-0.41686 -0.53336,-0.18401 -1.37226,-0.29446 0.13191,-0.48332 0.22142,-0.90394 0.10217,-0.43034 0.17755,-0.83007 0.0881,-0.40944 0.15225,-0.81064 0.0754,-0.39973 0.15665,-0.8442 l 3.33324,0.43883 -0.10308,0.78298 -2.52789,-0.33281 q -0.0318,0.15512 -0.0881,0.40944 -0.0436,0.24461 -0.10276,0.5213 -0.0592,0.27669 -0.11543,0.531 -0.0562,0.25432 -0.088,0.40945 z"
       style="font-style:normal;font-variant:normal;font-weight:normal;font-stretch:normal;font-size:42.66666794px;line-height:53.33333588px;font-family:'Ubuntu Mono';-inkscape-font-specification:'Ubuntu Mono';letter-spacing:0px;word-spacing:0px;fill:#000000;fill-opacity:1;stroke:none;stroke-width:0.26441899"
       id="path9178"
       inkscape:connector-curvature="0" />
    <path
       d="m 348.45029,230.07014 q 0.30205,-0.38626 0.76991,-0.86825 0.47877,-0.47907 1.04257,-0.97039 0.56672,-0.50222 1.17918,-0.95714 0.61537,-0.46583 1.20951,-0.80886 l 0.8718,0.2336 -1.14754,4.2827 0.79551,0.21316 -0.19856,0.74102 -0.79551,-0.21315 -0.46136,1.72179 -0.87179,-0.23359 0.46135,-1.7218 -3.01859,-0.80883 z m 3.91502,-2.53669 q -0.37891,0.23719 -0.78624,0.53684 -0.39643,0.30258 -0.79364,0.65166 -0.39429,0.33818 -0.76173,0.70692 -0.35655,0.37166 -0.66658,0.7441 l 2.1468,0.57523 z"
       style="font-style:normal;font-variant:normal;font-weight:normal;font-stretch:normal;font-size:42.66666794px;line-height:53.33333588px;font-family:'Ubuntu Mono';-inkscape-font-specification:'Ubuntu Mono';letter-spacing:0px;word-spacing:0px;fill:#000000;fill-opacity:1;stroke:none;stroke-width:0.26441899"
       id="path9175"
       inkscape:connector-curvature="0" />
    <path
       d="m 342.36767,253.35871 q 0.82343,0.34108 1.30123,0.16044 0.49254,-0.18675 0.72136,-0.73918 0.14679,-0.35438 0.10017,-0.65456 -0.0466,-0.30017 -0.22591,-0.54539 -0.17929,-0.24523 -0.46608,-0.43729 -0.28679,-0.19206 -0.63075,-0.33453 l -0.21889,-0.0907 0.28927,-0.69834 0.30227,0.1252 q 0.22931,0.095 0.48631,0.15259 0.27174,0.0515 0.51727,0.0189 0.26027,-0.0387 0.47169,-0.19538 0.21143,-0.15666 0.34527,-0.47977 0.22018,-0.53158 -0.0227,-0.88862 -0.22813,-0.36315 -0.6659,-0.54448 -0.4482,-0.18565 -0.81701,-0.17967 -0.3645,-0.004 -0.62909,0.0447 l -0.0615,-0.79481 q 0.28365,-0.0657 0.7905,-0.0511 0.52159,0.008 1.06359,0.23296 0.51073,0.21155 0.82373,0.48773 0.313,0.27619 0.44732,0.60048 0.14475,0.32861 0.12988,0.68879 -0.0106,0.34976 -0.16166,0.71457 -0.21155,0.51073 -0.62934,0.75287 -0.40737,0.24645 -0.902,0.26137 0.43986,0.35316 0.62766,0.93161 0.19211,0.56803 -0.0972,1.26638 -0.17269,0.41692 -0.46972,0.72129 -0.2823,0.29826 -0.68207,0.43795 -0.38936,0.14401 -0.90842,0.1 -0.50864,-0.0397 -1.13403,-0.29876 -0.23973,-0.0993 -0.48303,-0.24893 -0.23721,-0.13489 -0.43019,-0.28809 -0.19729,-0.14278 -0.3529,-0.26829 -0.14087,-0.13162 -0.20088,-0.19311 l 0.47331,-0.67096 q 0.13223,0.15246 0.44955,0.41823 0.31731,0.26576 0.84889,0.48594 z"
       style="font-style:normal;font-variant:normal;font-weight:normal;font-stretch:normal;font-size:42.66666794px;line-height:53.33333588px;font-family:'Ubuntu Mono';-inkscape-font-specification:'Ubuntu Mono';letter-spacing:0px;word-spacing:0px;fill:#000000;fill-opacity:1;stroke:none;stroke-width:0.26441899"
       id="path9172"
       inkscape:connector-curvature="0" />
    <path
       d="m 353.22044,161.02947 q 0.541,-0.29881 1.03372,-0.70506 0.49124,-0.41742 0.88063,-1.00351 l 0.64875,-0.0854 0.80845,6.14076 1.30869,-0.17229 0.10308,0.78297 -3.72473,0.49037 -0.10308,-0.78297 1.49884,-0.19733 -0.6391,-4.85444 q -0.10831,0.12805 -0.27108,0.27465 -0.15305,0.13394 -0.35085,0.27377 -0.18661,0.13836 -0.39707,0.26848 -0.21045,0.13012 -0.41414,0.22521 z"
       style="font-style:normal;font-variant:normal;font-weight:normal;font-stretch:normal;font-size:42.66666794px;line-height:53.33333588px;font-family:'Ubuntu Mono';-inkscape-font-specification:'Ubuntu Mono';letter-spacing:0px;word-spacing:0px;fill:#000000;fill-opacity:1;stroke:none;stroke-width:0.26441899"
       id="path9169"
       inkscape:connector-curvature="0" />
    <path
       d="m 352.47431,138.62588 q 0.0934,0.34872 0.0394,0.7136 -0.0432,0.36196 -0.18734,0.73931 -0.13326,0.37442 -0.33484,0.75547 -0.20158,0.38105 -0.41697,0.75412 -0.11966,0.20726 -0.27629,0.49451 -0.15663,0.28724 -0.28855,0.57955 -0.13191,0.2923 -0.20136,0.55618 -0.0695,0.26389 -0.0256,0.42735 l 3.10577,-0.83219 0.2044,0.76283 -4.08655,1.09498 q -0.0255,-0.0516 -0.0401,-0.10605 -0.0175,-0.0654 -0.0321,-0.11987 -0.12264,-0.4577 -0.0752,-0.89088 0.0474,-0.43319 0.19375,-0.84615 0.1463,-0.41296 0.35878,-0.79692 0.22044,-0.39779 0.43584,-0.77086 0.1755,-0.30398 0.33213,-0.59123 0.16753,-0.29016 0.26967,-0.56281 0.11304,-0.27557 0.14688,-0.54159 0.0418,-0.27984 -0.0283,-0.54138 -0.0788,-0.29423 -0.2324,-0.475 -0.14266,-0.1837 -0.34116,-0.27067 -0.19052,-0.10078 -0.4151,-0.11069 -0.22457,-0.01 -0.46431,0.0543 -0.28333,0.0759 -0.50264,0.21644 -0.20841,0.1376 -0.36446,0.29621 -0.14516,0.15569 -0.24673,0.29971 -0.10449,0.13312 -0.15236,0.21602 l -0.61615,-0.51233 q 0.0609,-0.12144 0.1973,-0.30983 0.1364,-0.18838 0.34402,-0.37249 0.2156,-0.19793 0.49737,-0.36687 0.28177,-0.16894 0.63049,-0.26238 1.05706,-0.28324 1.68973,0.0728 0.64067,0.34225 0.88302,1.24674 z"
       style="font-style:normal;font-variant:normal;font-weight:normal;font-stretch:normal;font-size:42.66666794px;line-height:53.33333588px;font-family:'Ubuntu Mono';-inkscape-font-specification:'Ubuntu Mono';letter-spacing:0px;word-spacing:0px;fill:#000000;fill-opacity:1;stroke:none;stroke-width:0.26441899"
       id="path9166"
       inkscape:connector-curvature="0" />
    <path
       d="m 344.52636,122.26949 q 0.82343,-0.34107 1.03355,-0.80667 0.21623,-0.48032 -0.0126,-1.03275 -0.14679,-0.35438 -0.39201,-0.53367 -0.24523,-0.17929 -0.5454,-0.22591 -0.30018,-0.0466 -0.63877,0.0204 -0.3386,0.067 -0.68256,0.20945 l -0.21889,0.0907 -0.28926,-0.69835 0.30227,-0.1252 q 0.2293,-0.095 0.45176,-0.23598 0.22857,-0.15573 0.37912,-0.35241 0.15665,-0.21143 0.19538,-0.4717 0.0387,-0.26027 -0.0951,-0.58339 -0.22018,-0.53157 -0.64439,-0.6123 -0.4181,-0.0955 -0.85587,0.0859 -0.44819,0.18565 -0.70476,0.45067 -0.26088,0.2546 -0.41322,0.47644 l -0.60553,-0.51849 q 0.15412,-0.24702 0.52282,-0.59512 0.37479,-0.36284 0.91679,-0.58734 0.51074,-0.21155 0.92735,-0.23758 0.41662,-0.026 0.74091,0.10829 0.33471,0.13001 0.57889,0.39521 0.23986,0.25478 0.39097,0.61959 0.21155,0.51073 0.0873,0.97737 -0.11379,0.46232 -0.453,0.82263 0.56075,-0.0613 1.10258,0.21493 0.5375,0.26581 0.82676,0.96416 0.1727,0.41692 0.17788,0.84217 0.0113,0.41052 -0.17262,0.79198 -0.17348,0.37714 -0.57166,0.71303 -0.38775,0.33157 -1.01313,0.59062 -0.23973,0.0993 -0.51758,0.16554 -0.26311,0.0724 -0.5079,0.10047 -0.24047,0.0386 -0.43925,0.0598 -0.19267,0.007 -0.27859,0.005 l -0.13976,-0.80912 q 0.20131,0.0143 0.61361,-0.0222 0.4123,-0.0364 0.94387,-0.25664 z"
       style="font-style:normal;font-variant:normal;font-weight:normal;font-stretch:normal;font-size:42.66666794px;line-height:53.33333588px;font-family:'Ubuntu Mono';-inkscape-font-specification:'Ubuntu Mono';letter-spacing:0px;word-spacing:0px;fill:#000000;fill-opacity:1;stroke:none;stroke-width:0.26441899"
       id="path9163"
       inkscape:connector-curvature="0" />
    <path
       d="m 332.35992,101.50092 q -0.0596,-0.48671 -0.0695,-1.15836 -2.2e-4,-0.677286 0.051,-1.423371 0.0456,-0.755859 0.157,-1.510608 0.10575,-0.764521 0.28331,-1.427208 l 0.78164,-0.451276 2.21688,3.839764 0.71324,-0.411787 0.38359,0.664388 -0.71324,0.411788 0.89127,1.54372 -0.78164,0.45128 -0.89126,-1.54372 -2.7064,1.56253 z m 0.97463,-4.562047 q -0.10022,0.435646 -0.17636,0.935555 -0.0664,0.49427 -0.1004,1.021981 -0.0397,0.517938 -0.0387,1.038495 0.0107,0.514916 0.0548,0.997496 l 1.92477,-1.111263 z"
       style="font-style:normal;font-variant:normal;font-weight:normal;font-stretch:normal;font-size:42.66666794px;line-height:53.33333588px;font-family:'Ubuntu Mono';-inkscape-font-specification:'Ubuntu Mono';letter-spacing:0px;word-spacing:0px;fill:#000000;fill-opacity:1;stroke:none;stroke-width:0.26441899"
       id="path9160"
       inkscape:connector-curvature="0" />
    <path
       d="m 320.3775,80.493932 q 1.23371,-0.875556 2.15056,-0.811175 0.91685,0.06438 1.54184,0.87888 0.28158,0.366971 0.40561,0.76952 0.12402,0.402554 0.0451,0.818619 -0.07,0.409199 -0.35868,0.829827 -0.27977,0.413763 -0.7989,0.812106 -0.21481,0.164832 -0.4571,0.29386 -0.22646,0.131111 -0.44876,0.230587 -0.22231,0.09947 -0.39985,0.16461 -0.18442,0.05618 -0.27455,0.06846 l -0.34441,-0.745373 q 0.19815,-0.03828 0.56906,-0.16647 0.37987,-0.135057 0.83635,-0.485323 0.35801,-0.274718 0.53787,-0.540708 0.17985,-0.26599 0.22004,-0.510136 0.0423,-0.259964 -0.0324,-0.48705 -0.0657,-0.233952 -0.21685,-0.430864 -0.23351,-0.304319 -0.51948,-0.454616 -0.28389,-0.166116 -0.66708,-0.128055 -0.37424,0.03119 -0.88358,0.294038 -0.50725,0.247025 -1.17854,0.762123 -0.24849,-0.43503 -0.48262,-0.795753 -0.23205,-0.376542 -0.46139,-0.712496 -0.22727,-0.351774 -0.46556,-0.680861 -0.22936,-0.335949 -0.48617,-0.70771 l 2.66726,-2.046656 0.48075,0.626537 -2.02281,1.552162 q 0.0872,0.132179 0.22726,0.351773 0.14214,0.203783 0.29594,0.441278 0.15381,0.237494 0.29387,0.457095 0.14006,0.219592 0.22726,0.351774 z"
       style="font-style:normal;font-variant:normal;font-weight:normal;font-stretch:normal;font-size:42.66666794px;line-height:53.33333588px;font-family:'Ubuntu Mono';-inkscape-font-specification:'Ubuntu Mono';letter-spacing:0px;word-spacing:0px;fill:#000000;fill-opacity:1;stroke:none;stroke-width:0.26441899"
       id="path9157"
       inkscape:connector-curvature="0" />
    <path
       d="m 306.99707,63.244076 q 0.20741,0.207414 0.23134,0.486628 0.0319,0.271235 -0.16752,0.470671 -0.20742,0.207416 -0.48663,0.183482 -0.27921,-0.02393 -0.48663,-0.231347 -0.20741,-0.207414 -0.23932,-0.494606 -0.0319,-0.287187 0.1755,-0.494603 0.19944,-0.199436 0.47865,-0.15955 0.28719,0.03191 0.49461,0.239325 z m -2.00235,2.177855 q -1.24449,-1.244488 -1.48382,-2.329428 -0.23932,-1.100894 0.5345,-1.874709 0.78179,-0.781795 1.87471,-0.534493 1.08493,0.239325 2.32942,1.483814 1.24449,1.244488 1.49179,2.337404 0.23933,1.08494 -0.54246,1.866735 -0.77382,0.773815 -1.86674,0.542467 -1.09292,-0.247301 -2.3374,-1.49179 z m 2.5847,-2.584707 q -0.40685,-0.406852 -0.8137,-0.717974 -0.41483,-0.319099 -0.79775,-0.47865 -0.38292,-0.159551 -0.72595,-0.135616 -0.34303,0.02393 -0.61427,0.295167 -0.27123,0.271234 -0.29517,0.614267 -0.0239,0.343031 0.13562,0.72595 0.15955,0.382922 0.47865,0.79775 0.31112,0.406852 0.71798,0.813704 0.40685,0.406852 0.82168,0.725952 0.40685,0.311122 0.78977,0.470672 0.38292,0.159549 0.72595,0.135618 0.34303,-0.02393 0.61427,-0.295168 0.27123,-0.271235 0.29517,-0.614266 0.0239,-0.343034 -0.13562,-0.725952 -0.15955,-0.38292 -0.47067,-0.789772 -0.3191,-0.41483 -0.72596,-0.821682 z"
       style="font-style:normal;font-variant:normal;font-weight:normal;font-stretch:normal;font-size:42.66666794px;line-height:53.33333588px;font-family:'Ubuntu Mono';-inkscape-font-specification:'Ubuntu Mono';letter-spacing:0px;word-spacing:0px;fill:#000000;fill-opacity:1;stroke:none;stroke-width:0.26441899"
       id="path9154"
       inkscape:connector-curvature="0" />
    <path
       d="m 286.91379,49.308794 q 0.17125,-0.593836 0.2324,-1.2295 0.0522,-0.642531 -0.0869,-1.332297 l 0.39834,-0.51913 4.91383,3.770516 0.80355,-1.04721 0.62654,0.480758 -2.28703,2.980521 -0.62654,-0.480758 0.92031,-1.199368 -3.88452,-2.980699 q 0.0139,0.167135 0.003,0.385891 -0.0135,0.202938 -0.0545,0.441677 -0.0341,0.22979 -0.0909,0.470611 -0.0568,0.240821 -0.1336,0.452089 z"
       style="font-style:normal;font-variant:normal;font-weight:normal;font-stretch:normal;font-size:42.66666794px;line-height:53.33333588px;font-family:'Ubuntu Mono';-inkscape-font-specification:'Ubuntu Mono';letter-spacing:0px;word-spacing:0px;fill:#000000;fill-opacity:1;stroke:none;stroke-width:0.26441899"
       id="path9151"
       inkscape:connector-curvature="0" />
    <path
       d="m 270.54447,33.994649 q 0.31266,0.180509 0.53244,0.476753 0.22542,0.286473 0.3903,0.655238 0.17052,0.358995 0.29743,0.770973 0.1269,0.411976 0.2384,0.828082 0.0619,0.231169 0.1543,0.545036 0.0924,0.313869 0.20577,0.613837 0.11341,0.299967 0.2509,0.535672 0.13749,0.235704 0.28404,0.320318 l 1.60767,-2.784561 0.68393,0.394866 -2.11535,3.663896 q -0.0545,-0.01843 -0.10335,-0.04663 -0.0586,-0.03385 -0.10748,-0.06205 -0.41035,-0.23692 -0.68312,-0.576778 -0.27276,-0.339859 -0.46131,-0.735318 -0.18855,-0.39546 -0.30982,-0.817206 -0.12539,-0.437157 -0.23689,-0.853263 -0.0908,-0.339049 -0.1832,-0.652916 -0.0867,-0.323638 -0.20729,-0.588654 -0.11492,-0.274786 -0.2791,-0.486821 -0.16831,-0.227446 -0.4028,-0.362828 -0.2638,-0.152306 -0.50021,-0.17155 -0.23076,-0.02901 -0.43262,0.04985 -0.20599,0.06345 -0.37179,0.215246 -0.1658,0.15179 -0.2899,0.366739 -0.14666,0.25403 -0.20237,0.508465 -0.0501,0.244665 -0.0483,0.467171 0.007,0.212735 0.0375,0.38639 0.0202,0.168013 0.045,0.260481 l -0.79796,0.07341 q -0.0428,-0.128931 -0.0796,-0.358589 -0.0368,-0.229657 -0.0201,-0.506657 0.0125,-0.292409 0.0923,-0.611109 0.0798,-0.318699 0.26029,-0.631351 0.54717,-0.947728 1.24632,-1.143323 0.69503,-0.211009 1.50597,0.25719 z"
       style="font-style:normal;font-variant:normal;font-weight:normal;font-stretch:normal;font-size:42.66666794px;line-height:53.33333588px;font-family:'Ubuntu Mono';-inkscape-font-specification:'Ubuntu Mono';letter-spacing:0px;word-spacing:0px;fill:#000000;fill-opacity:1;stroke:none;stroke-width:0.26441899"
       id="path9148"
       inkscape:connector-curvature="0" />
    <path
       d="m 253.35869,28.048979 q 0.34108,-0.823425 0.16044,-1.301226 -0.18675,-0.49254 -0.73918,-0.721361 -0.35438,-0.146792 -0.65456,-0.100169 -0.30017,0.04662 -0.54539,0.225912 -0.24523,0.179287 -0.43729,0.466076 -0.19206,0.286788 -0.33453,0.63075 l -0.0907,0.218885 -0.69834,-0.289265 0.1252,-0.302269 q 0.095,-0.229309 0.15259,-0.486309 0.0515,-0.271741 0.0189,-0.517271 -0.0387,-0.26027 -0.19538,-0.471696 -0.15666,-0.211424 -0.47977,-0.345264 -0.53158,-0.220186 -0.88862,0.02269 -0.36315,0.228135 -0.54448,0.665905 -0.18565,0.448191 -0.17967,0.817009 -0.004,0.364502 0.0447,0.629092 l -0.79481,0.06154 q -0.0657,-0.283645 -0.0511,-0.790494 0.008,-0.521589 0.23296,-1.063588 0.21155,-0.510733 0.48773,-0.823732 0.27619,-0.313001 0.60048,-0.447324 0.32861,-0.144751 0.68879,-0.129883 0.34976,0.01055 0.71457,0.16166 0.51073,0.211552 0.75287,0.629342 0.24645,0.40737 0.26137,0.902005 0.35316,-0.439865 0.93161,-0.627659 0.56803,-0.192113 1.26638,0.09715 0.41692,0.172696 0.72129,0.469727 0.29826,0.282292 0.43795,0.682071 0.14401,0.389359 0.1,0.90842 -0.0397,0.508635 -0.29876,1.134021 -0.0993,0.239733 -0.24893,0.483039 -0.13489,0.237202 -0.28809,0.430182 -0.14278,0.197299 -0.26829,0.352905 -0.13162,0.140864 -0.19311,0.200874 l -0.67096,-0.473304 q 0.15246,-0.132229 0.41823,-0.449547 0.26576,-0.317317 0.48594,-0.848895 z"
       style="font-style:normal;font-variant:normal;font-weight:normal;font-stretch:normal;font-size:42.66666794px;line-height:53.33333588px;font-family:'Ubuntu Mono';-inkscape-font-specification:'Ubuntu Mono';letter-spacing:0px;word-spacing:0px;fill:#000000;fill-opacity:1;stroke:none;stroke-width:0.26441899"
       id="path9145"
       inkscape:connector-curvature="0" />
    <path
       d="m 230.07013,21.966365 q -0.38626,-0.302054 -0.86825,-0.769918 -0.47907,-0.478762 -0.97039,-1.042566 -0.50222,-0.566726 -0.95714,-1.179177 -0.46583,-0.615371 -0.80886,-1.209518 l 0.2336,-0.871799 4.2827,1.147546 0.21316,-0.795512 0.74102,0.198558 -0.21315,0.795512 1.72179,0.461354 -0.23359,0.871799 -1.7218,-0.461355 -0.80883,3.018594 z m -2.53669,-3.915022 q 0.23719,0.37891 0.53684,0.786235 0.30258,0.396431 0.65166,0.793645 0.33818,0.394291 0.70692,0.761731 0.37166,0.356543 0.7441,0.666575 l 0.57523,-2.146798 z"
       style="font-style:normal;font-variant:normal;font-weight:normal;font-stretch:normal;font-size:42.66666794px;line-height:53.33333588px;font-family:'Ubuntu Mono';-inkscape-font-specification:'Ubuntu Mono';letter-spacing:0px;word-spacing:0px;fill:#000000;fill-opacity:1;stroke:none;stroke-width:0.26441899"
       id="path9142"
       inkscape:connector-curvature="0" />
    <path
       d="m 206.7431,15.585028 q 0.25325,-1.491475 0.94708,-2.094263 0.69384,-0.602786 1.71171,-0.468781 0.4586,0.06038 0.83094,0.257324 0.37235,0.196951 0.61075,0.546956 0.23987,0.338819 0.33315,0.840404 0.0947,0.490401 0.009,1.139153 -0.0353,0.268449 -0.11542,0.531007 -0.0674,0.252844 -0.15428,0.480374 -0.0868,0.22753 -0.16634,0.399133 -0.0907,0.170131 -0.14572,0.242537 l -0.7706,-0.283517 q 0.11304,-0.167186 0.28468,-0.520105 0.17311,-0.364104 0.24821,-0.934558 0.0589,-0.447412 -0.002,-0.76267 -0.0609,-0.315258 -0.20513,-0.516313 -0.15393,-0.213712 -0.36733,-0.321462 -0.21192,-0.118933 -0.458,-0.15133 -0.3803,-0.05007 -0.68879,0.04587 -0.31821,0.08328 -0.56225,0.381147 -0.24257,0.286684 -0.41686,0.832698 -0.18401,0.533358 -0.29446,1.372259 -0.48332,-0.131905 -0.90394,-0.221419 -0.43034,-0.102173 -0.83007,-0.177556 -0.40944,-0.08804 -0.81064,-0.152241 -0.39973,-0.07537 -0.8442,-0.156655 l 0.43883,-3.333238 0.78298,0.103081 -0.33281,2.527891 q 0.15512,0.03181 0.40944,0.08804 0.24461,0.04359 0.5213,0.102767 0.27669,0.05918 0.531,0.115424 0.25432,0.05623 0.40945,0.08804 z"
       style="font-style:normal;font-variant:normal;font-weight:normal;font-stretch:normal;font-size:42.66666794px;line-height:53.33333588px;font-family:'Ubuntu Mono';-inkscape-font-specification:'Ubuntu Mono';letter-spacing:0px;word-spacing:0px;fill:#000000;fill-opacity:1;stroke:none;stroke-width:0.26441899"
       id="path9139"
       inkscape:connector-curvature="0" />
    <path
       d="m 185.08421,12.848942 q 0.29332,0 0.50768,0.180511 0.21436,0.169228 0.21436,0.451273 0,0.293331 -0.21436,0.473839 -0.21436,0.180511 -0.50768,0.180511 -0.29333,0 -0.51897,-0.180511 -0.22564,-0.180508 -0.22564,-0.473839 0,-0.282045 0.22564,-0.451273 0.22564,-0.180511 0.51897,-0.180511 z m 0.1241,2.955852 q -1.75998,0 -2.69637,-0.597941 -0.94768,-0.609221 -0.94768,-1.703561 0,-1.105626 0.94768,-1.703565 0.93639,-0.597938 2.69637,-0.597938 1.75997,0 2.70765,0.597938 0.93639,0.597939 0.93639,1.703565 0,1.09434 -0.93639,1.703561 -0.94768,0.597941 -2.70765,0.597941 z m 0,-3.655328 q -0.57538,0 -1.08306,0.06769 -0.51897,0.06769 -0.90255,0.225636 -0.38359,0.157946 -0.60923,0.417431 -0.22563,0.259482 -0.22563,0.643067 0,0.383582 0.22563,0.643067 0.22564,0.259482 0.60923,0.417427 0.38358,0.157948 0.90255,0.22564 0.50768,0.06769 1.08306,0.06769 0.57537,0 1.09434,-0.06769 0.50768,-0.06769 0.89127,-0.22564 0.38358,-0.157945 0.60922,-0.417427 0.22564,-0.259485 0.22564,-0.643067 0,-0.383585 -0.22564,-0.643067 -0.22564,-0.259485 -0.60922,-0.417431 -0.38359,-0.157945 -0.89127,-0.225636 -0.51897,-0.06769 -1.09434,-0.06769 z"
       style="font-style:normal;font-variant:normal;font-weight:normal;font-stretch:normal;font-size:42.66666794px;line-height:53.33333588px;font-family:'Ubuntu Mono';-inkscape-font-specification:'Ubuntu Mono';letter-spacing:0px;word-spacing:0px;fill:#000000;fill-opacity:1;stroke:none;stroke-width:0.26441899"
       id="path9136"
       inkscape:connector-curvature="0" />
    <path
       d="m 161.02946,17.196224 q -0.29881,-0.541001 -0.70506,-1.033721 -0.41742,-0.491248 -1.00351,-0.880635 l -0.0854,-0.648752 6.14076,-0.808446 -0.17229,-1.308687 0.78297,-0.103081 0.49037,3.724724 -0.78297,0.103081 -0.19733,-1.498837 -4.85444,0.6391 q 0.12805,0.108312 0.27465,0.27108 0.13394,0.153055 0.27377,0.350852 0.13836,0.18661 0.26848,0.397063 0.13012,0.210454 0.22521,0.414141 z"
       style="font-style:normal;font-variant:normal;font-weight:normal;font-stretch:normal;font-size:42.66666794px;line-height:53.33333588px;font-family:'Ubuntu Mono';-inkscape-font-specification:'Ubuntu Mono';letter-spacing:0px;word-spacing:0px;fill:#000000;fill-opacity:1;stroke:none;stroke-width:0.26441899"
       id="path9133"
       inkscape:connector-curvature="0" />
    <path
       d="m 138.62587,17.942347 q 0.34872,-0.09344 0.7136,-0.03937 0.36196,0.04317 0.73931,0.187339 0.37442,0.133269 0.75547,0.334846 0.38105,0.201574 0.75412,0.416966 0.20726,0.119662 0.49451,0.276291 0.28724,0.156632 0.57955,0.288547 0.2923,0.131915 0.55618,0.201365 0.26389,0.06945 0.42735,0.02565 l -0.83219,-3.105775 0.76283,-0.204398 1.09498,4.086546 q -0.0516,0.02551 -0.10605,0.04011 -0.0654,0.01752 -0.11987,0.03212 -0.4577,0.122639 -0.89088,0.07519 -0.43319,-0.04744 -0.84615,-0.193751 -0.41296,-0.146306 -0.79692,-0.358778 -0.39779,-0.220448 -0.77086,-0.43584 -0.30398,-0.175506 -0.59123,-0.332135 -0.29016,-0.167528 -0.56281,-0.26967 -0.27557,-0.113041 -0.54159,-0.146879 -0.27984,-0.04182 -0.54138,0.02826 -0.29423,0.07884 -0.475,0.232396 -0.1837,0.14266 -0.27067,0.341162 -0.10078,0.190522 -0.11069,0.415095 -0.01,0.224569 0.0543,0.464314 0.0759,0.283333 0.21644,0.502639 0.1376,0.208407 0.29621,0.364463 0.15569,0.145161 0.29971,0.24673 0.13312,0.10449 0.21602,0.152355 l -0.51233,0.616153 q -0.12144,-0.0609 -0.30983,-0.1973 -0.18838,-0.136398 -0.37249,-0.344024 -0.19793,-0.215601 -0.36687,-0.49737 -0.16894,-0.28177 -0.26238,-0.630488 -0.28324,-1.057054 0.0728,-1.689734 0.34225,-0.64066 1.24674,-0.883018 z"
       style="font-style:normal;font-variant:normal;font-weight:normal;font-stretch:normal;font-size:42.66666794px;line-height:53.33333588px;font-family:'Ubuntu Mono';-inkscape-font-specification:'Ubuntu Mono';letter-spacing:0px;word-spacing:0px;fill:#000000;fill-opacity:1;stroke:none;stroke-width:0.26441899"
       id="path9130"
       inkscape:connector-curvature="0" />
    <path
       d="m 122.26947,25.890305 q -0.34107,-0.823425 -0.80667,-1.033548 -0.48032,-0.216227 -1.03275,0.01259 -0.35438,0.146792 -0.53367,0.392014 -0.17929,0.245223 -0.22591,0.545399 -0.0466,0.300173 0.0204,0.63877 0.067,0.338597 0.20945,0.682559 l 0.0907,0.218885 -0.69835,0.289266 -0.1252,-0.302269 q -0.095,-0.229309 -0.23598,-0.45177 -0.15573,-0.228567 -0.35241,-0.379116 -0.21143,-0.156652 -0.4717,-0.195381 -0.26027,-0.03873 -0.58339,0.09511 -0.53157,0.220187 -0.6123,0.644391 -0.0955,0.418098 0.0859,0.855868 0.18565,0.448192 0.45067,0.704759 0.2546,0.260884 0.47644,0.413221 l -0.51849,0.605534 q -0.24702,-0.154124 -0.59512,-0.522816 -0.36284,-0.374798 -0.58734,-0.916798 -0.21155,-0.510732 -0.23758,-0.927348 -0.026,-0.416619 0.10829,-0.740908 0.13001,-0.334715 0.39521,-0.57889 0.25478,-0.239858 0.61959,-0.390966 0.51073,-0.211552 0.97737,-0.08734 0.46232,0.113787 0.82263,0.452996 -0.0613,-0.560752 0.21493,-1.102573 0.26581,-0.537502 0.96416,-0.826767 0.41692,-0.172696 0.84217,-0.177882 0.41052,-0.01129 0.79198,0.172621 0.37714,0.173488 0.71303,0.571663 0.33157,0.387747 0.59062,1.013133 0.0993,0.239733 0.16554,0.517578 0.0724,0.263107 0.10047,0.507896 0.0386,0.240472 0.0598,0.439254 0.007,0.192672 0.006,0.278586 l -0.80912,0.139764 q 0.0143,-0.201306 -0.0221,-0.613608 -0.0365,-0.412299 -0.25664,-0.943877 z"
       style="font-style:normal;font-variant:normal;font-weight:normal;font-stretch:normal;font-size:42.66666794px;line-height:53.33333588px;font-family:'Ubuntu Mono';-inkscape-font-specification:'Ubuntu Mono';letter-spacing:0px;word-spacing:0px;fill:#000000;fill-opacity:1;stroke:none;stroke-width:0.26441899"
       id="path9127"
       inkscape:connector-curvature="0" />
    <path
       d="m 101.50091,38.056755 q -0.48671,0.05954 -1.15836,0.06953 -0.677286,2.17e-4 -1.423371,-0.05104 -0.755859,-0.04561 -1.510608,-0.156999 -0.764521,-0.105746 -1.427208,-0.28331 l -0.451276,-0.781633 3.839764,-2.216889 -0.411787,-0.713237 0.664388,-0.383585 0.411788,0.713237 1.54372,-0.891267 0.45128,0.781632 -1.54372,0.891268 1.56253,2.706397 z m -4.562047,-0.97463 q 0.435646,0.100214 0.935555,0.176351 0.49427,0.06637 1.021981,0.100402 0.517938,0.03967 1.038495,0.03875 0.514916,-0.01069 0.997496,-0.05482 l -1.111263,-1.924766 z"
       style="font-style:normal;font-variant:normal;font-weight:normal;font-stretch:normal;font-size:42.66666794px;line-height:53.33333588px;font-family:'Ubuntu Mono';-inkscape-font-specification:'Ubuntu Mono';letter-spacing:0px;word-spacing:0px;fill:#000000;fill-opacity:1;stroke:none;stroke-width:0.26441899"
       id="path9124"
       inkscape:connector-curvature="0" />
    <path
       d="m 80.493922,50.03917 q -0.875556,-1.233707 -0.811175,-2.15056 0.06438,-0.91685 0.87888,-1.541836 0.366971,-0.281586 0.76952,-0.405609 0.402554,-0.124023 0.818619,-0.04511 0.409199,0.06996 0.829827,0.358684 0.413763,0.279769 0.812106,0.798899 0.164832,0.214812 0.29386,0.457097 0.131111,0.226465 0.230587,0.448765 0.09947,0.222302 0.16461,0.39985 0.05618,0.184417 0.06846,0.274542 l -0.745373,0.344418 q -0.03828,-0.198152 -0.16647,-0.569068 -0.135057,-0.379865 -0.485323,-0.836341 -0.274718,-0.358019 -0.540708,-0.537871 -0.26599,-0.179853 -0.510136,-0.220042 -0.259964,-0.04227 -0.48705,0.03244 -0.233952,0.06575 -0.430864,0.216851 -0.304319,0.233512 -0.454616,0.519484 -0.166116,0.283891 -0.128055,0.667078 0.03119,0.374239 0.294038,0.883576 0.247025,0.507256 0.762123,1.178544 -0.43503,0.248487 -0.795753,0.482618 -0.376542,0.232048 -0.712496,0.461395 -0.351774,0.227264 -0.680861,0.46556 -0.335949,0.229353 -0.70771,0.486165 l -2.046656,-2.667254 0.626537,-0.480758 1.552162,2.022817 q 0.132179,-0.08719 0.351773,-0.227264 0.203783,-0.142137 0.441278,-0.295943 0.237494,-0.153805 0.457095,-0.293862 0.219592,-0.140068 0.351774,-0.227264 z"
       style="font-style:normal;font-variant:normal;font-weight:normal;font-stretch:normal;font-size:42.66666794px;line-height:53.33333588px;font-family:'Ubuntu Mono';-inkscape-font-specification:'Ubuntu Mono';letter-spacing:0px;word-spacing:0px;fill:#000000;fill-opacity:1;stroke:none;stroke-width:0.26441899"
       id="path9121"
       inkscape:connector-curvature="0" />
    <path
       d="m 63.244066,63.419612 q 0.207414,-0.207414 0.486628,-0.231346 0.271235,-0.03191 0.470671,0.167525 0.207416,0.207416 0.183482,0.486628 -0.02393,0.279213 -0.231347,0.486627 -0.207414,0.207415 -0.494606,0.239325 -0.287187,0.03191 -0.494603,-0.175505 -0.199436,-0.199436 -0.15955,-0.478648 0.03191,-0.287191 0.239325,-0.494606 z m 2.177855,2.002352 q -1.244488,1.244489 -2.329428,1.483811 -1.100894,0.239325 -1.874709,-0.53449 -0.781795,-0.781796 -0.534493,-1.874711 0.239325,-1.084938 1.483814,-2.329426 1.244488,-1.244489 2.337404,-1.491792 1.08494,-0.239327 1.866735,0.542469 0.773815,0.773815 0.542467,1.866733 -0.247301,1.092917 -1.49179,2.337406 z m -2.584707,-2.584707 q -0.406852,0.406852 -0.717974,0.813704 -0.319099,0.414828 -0.47865,0.797748 -0.159551,0.382919 -0.135616,0.725952 0.02393,0.343031 0.295167,0.614266 0.271234,0.271234 0.614267,0.295168 0.343031,0.02393 0.72595,-0.135619 0.382922,-0.159549 0.79775,-0.478647 0.406852,-0.311122 0.813704,-0.717974 0.406852,-0.406852 0.725952,-0.821683 0.311122,-0.406852 0.470672,-0.789773 0.159549,-0.382918 0.135618,-0.72595 -0.02393,-0.343033 -0.295168,-0.614267 -0.271235,-0.271235 -0.614266,-0.295167 -0.343034,-0.02393 -0.725952,0.135616 -0.38292,0.159551 -0.789772,0.470673 -0.41483,0.319101 -0.821682,0.725953 z"
       style="font-style:normal;font-variant:normal;font-weight:normal;font-stretch:normal;font-size:42.66666794px;line-height:53.33333588px;font-family:'Ubuntu Mono';-inkscape-font-specification:'Ubuntu Mono';letter-spacing:0px;word-spacing:0px;fill:#000000;fill-opacity:1;stroke:none;stroke-width:0.26441899"
       id="path9118"
       inkscape:connector-curvature="0" />
    <path
       d="m 49.308784,83.502884 q -0.593836,-0.171255 -1.2295,-0.232402 -0.642531,-0.0522 -1.332297,0.08689 l -0.51913,-0.398343 3.770516,-4.913832 -1.04721,-0.803553 0.480758,-0.626537 2.980521,2.287035 -0.480758,0.626537 -1.199368,-0.920308 -2.980699,3.884522 q 0.167135,-0.01396 0.385891,-0.0025 0.202938,0.01351 0.441677,0.0545 0.22979,0.03412 0.470611,0.09092 0.240821,0.0568 0.452089,0.133593 z"
       style="font-style:normal;font-variant:normal;font-weight:normal;font-stretch:normal;font-size:42.66666794px;line-height:53.33333588px;font-family:'Ubuntu Mono';-inkscape-font-specification:'Ubuntu Mono';letter-spacing:0px;word-spacing:0px;fill:#000000;fill-opacity:1;stroke:none;stroke-width:0.26441899"
       id="path9115"
       inkscape:connector-curvature="0" />
    <path
       d="m 33.994639,99.872205 q 0.180509,-0.312651 0.476753,-0.53243 0.286473,-0.225421 0.655238,-0.390302 0.358995,-0.170524 0.770973,-0.297429 0.411976,-0.126907 0.828082,-0.238403 0.231169,-0.06194 0.545036,-0.154301 0.313869,-0.09236 0.613837,-0.205771 0.299967,-0.113411 0.535672,-0.250897 0.235704,-0.137487 0.320318,-0.284043 l -2.784561,-1.607668 0.394866,-0.683928 3.663896,2.115352 q -0.01843,0.0545 -0.04663,0.10335 -0.03385,0.05862 -0.06205,0.107474 -0.23692,0.410356 -0.576778,0.683117 -0.339859,0.272762 -0.735318,0.461312 -0.39546,0.188553 -0.817206,0.309818 -0.437157,0.125397 -0.853263,0.236892 -0.339049,0.09085 -0.652916,0.183206 -0.323638,0.08672 -0.588654,0.207283 -0.274786,0.114923 -0.486821,0.279104 -0.227446,0.168309 -0.362828,0.402799 -0.152306,0.2638 -0.17155,0.50021 -0.02901,0.23076 0.04985,0.43262 0.06345,0.20599 0.215246,0.37179 0.15179,0.1658 0.366739,0.2899 0.25403,0.14666 0.508465,0.20237 0.244665,0.0501 0.467171,0.0483 0.212735,-0.007 0.38639,-0.0375 0.168013,-0.0202 0.260481,-0.045 l 0.07341,0.79796 q -0.128931,0.0428 -0.358589,0.0796 -0.229657,0.0368 -0.506657,0.0201 -0.292409,-0.0125 -0.611109,-0.0923 -0.318699,-0.0798 -0.631351,-0.26029 -0.947728,-0.54717 -1.143323,-1.24632 -0.211009,-0.69503 0.25719,-1.505969 z"
       style="font-style:normal;font-variant:normal;font-weight:normal;font-stretch:normal;font-size:42.66666794px;line-height:53.33333588px;font-family:'Ubuntu Mono';-inkscape-font-specification:'Ubuntu Mono';letter-spacing:0px;word-spacing:0px;fill:#000000;fill-opacity:1;stroke:none;stroke-width:0.26441899"
       id="path9112"
       inkscape:connector-curvature="0" />
    <path
       d="m 28.048969,117.05798 q -0.823425,-0.34108 -1.301226,-0.16044 -0.49254,0.18675 -0.721361,0.73918 -0.146792,0.35438 -0.100169,0.65456 0.04662,0.30017 0.225912,0.54539 0.179287,0.24523 0.466076,0.43729 0.286788,0.19206 0.63075,0.33453 l 0.218885,0.0907 -0.289265,0.69834 -0.302269,-0.1252 q -0.229309,-0.095 -0.486309,-0.15259 -0.271741,-0.0515 -0.517271,-0.0189 -0.26027,0.0387 -0.471696,0.19538 -0.211424,0.15666 -0.345264,0.47977 -0.220186,0.53158 0.02269,0.88862 0.228135,0.36315 0.665905,0.54448 0.448191,0.18565 0.817009,0.17967 0.364502,0.004 0.629092,-0.0447 l 0.06154,0.79481 q -0.283645,0.0657 -0.790494,0.0511 -0.521589,-0.008 -1.063588,-0.23296 -0.510733,-0.21155 -0.823732,-0.48773 -0.313001,-0.27619 -0.447324,-0.60048 -0.144751,-0.32861 -0.129883,-0.68879 0.01055,-0.34976 0.16166,-0.71457 0.211552,-0.51073 0.629342,-0.75287 0.40737,-0.24645 0.902005,-0.26137 -0.439865,-0.35316 -0.627659,-0.93161 -0.192113,-0.56803 0.09715,-1.26638 0.172696,-0.41692 0.469727,-0.72129 0.282292,-0.29826 0.682071,-0.43795 0.389359,-0.14401 0.90842,-0.1 0.508635,0.0397 1.134021,0.29876 0.239733,0.0993 0.483039,0.24893 0.237202,0.13489 0.430182,0.28809 0.197299,0.14278 0.352905,0.26829 0.140864,0.13162 0.200874,0.19311 l -0.473304,0.67096 q -0.132229,-0.15246 -0.449547,-0.41823 -0.317317,-0.26576 -0.848895,-0.48594 z"
       style="font-style:normal;font-variant:normal;font-weight:normal;font-stretch:normal;font-size:42.66666794px;line-height:53.33333588px;font-family:'Ubuntu Mono';-inkscape-font-specification:'Ubuntu Mono';letter-spacing:0px;word-spacing:0px;fill:#000000;fill-opacity:1;stroke:none;stroke-width:0.26441899"
       id="path9109"
       inkscape:connector-curvature="0" />
    <path
       d="m 21.966355,140.34655 q -0.302054,0.38626 -0.769918,0.86825 -0.478762,0.47907 -1.042566,0.97039 -0.566726,0.50222 -1.179177,0.95714 -0.615371,0.46583 -1.209518,0.80886 l -0.871799,-0.2336 1.147546,-4.2827 -0.795512,-0.21316 0.198558,-0.74102 0.795512,0.21315 0.461354,-1.72179 0.871799,0.23359 -0.461355,1.7218 3.018594,0.80883 z m -3.915022,2.53669 q 0.37891,-0.23719 0.786235,-0.53684 0.396431,-0.30258 0.793645,-0.65166 0.394291,-0.33818 0.761731,-0.70692 0.356543,-0.37166 0.666575,-0.7441 l -2.146798,-0.57523 z"
       style="font-style:normal;font-variant:normal;font-weight:normal;font-stretch:normal;font-size:42.66666794px;line-height:53.33333588px;font-family:'Ubuntu Mono';-inkscape-font-specification:'Ubuntu Mono';letter-spacing:0px;word-spacing:0px;fill:#000000;fill-opacity:1;stroke:none;stroke-width:0.26441899"
       id="path9106"
       inkscape:connector-curvature="0" />
    <path
       d="m 15.585018,163.67357 q -1.491475,-0.25325 -2.094263,-0.94708 -0.602786,-0.69384 -0.468781,-1.71171 0.06038,-0.4586 0.257324,-0.83094 0.196951,-0.37235 0.546956,-0.61075 0.338819,-0.23987 0.840404,-0.33315 0.490401,-0.0947 1.139153,-0.009 0.268449,0.0353 0.531007,0.11542 0.252844,0.0674 0.480374,0.15428 0.22753,0.0868 0.399133,0.16634 0.170131,0.0907 0.242537,0.14572 l -0.283517,0.7706 q -0.167186,-0.11304 -0.520105,-0.28468 -0.364104,-0.17311 -0.934558,-0.24821 -0.447412,-0.0589 -0.76267,0.002 -0.315258,0.0609 -0.516313,0.20513 -0.213712,0.15393 -0.321462,0.36733 -0.118933,0.21192 -0.15133,0.458 -0.05007,0.3803 0.04587,0.68879 0.08328,0.31821 0.381147,0.56225 0.286684,0.24257 0.832698,0.41686 0.533358,0.18401 1.372259,0.29446 -0.131905,0.48332 -0.221419,0.90394 -0.102173,0.43034 -0.177556,0.83007 -0.08804,0.40944 -0.152241,0.81064 -0.07537,0.39973 -0.156655,0.8442 l -3.333238,-0.43883 0.103081,-0.78298 2.527891,0.33281 q 0.03181,-0.15512 0.08804,-0.40944 0.04359,-0.24461 0.102767,-0.5213 0.05918,-0.27669 0.115424,-0.531 0.05623,-0.25432 0.08804,-0.40945 z"
       style="font-style:normal;font-variant:normal;font-weight:normal;font-stretch:normal;font-size:42.66666794px;line-height:53.33333588px;font-family:'Ubuntu Mono';-inkscape-font-specification:'Ubuntu Mono';letter-spacing:0px;word-spacing:0px;fill:#000000;fill-opacity:1;stroke:none;stroke-width:0.26441899"
       id="path9103"
       inkscape:connector-curvature="0" />
    <path
       d="m 12.848932,185.33246 q 0,-0.29332 0.180511,-0.50768 0.169228,-0.21436 0.451273,-0.21436 0.293331,0 0.473839,0.21436 0.180511,0.21436 0.180511,0.50768 0,0.29333 -0.180511,0.51897 -0.180508,0.22564 -0.473839,0.22564 -0.282045,0 -0.451273,-0.22564 -0.180511,-0.22564 -0.180511,-0.51897 z m 2.955852,-0.1241 q 0,1.75998 -0.597941,2.69637 -0.609221,0.94768 -1.703561,0.94768 -1.105626,0 -1.703565,-0.94768 -0.597938,-0.93639 -0.597938,-2.69637 0,-1.75997 0.597938,-2.70765 0.597939,-0.93639 1.703565,-0.93639 1.09434,0 1.703561,0.93639 0.597941,0.94768 0.597941,2.70765 z m -3.655328,0 q 0,0.57538 0.06769,1.08306 0.06769,0.51897 0.225636,0.90255 0.157946,0.38359 0.417431,0.60923 0.259482,0.22563 0.643067,0.22563 0.383582,0 0.643067,-0.22563 0.259482,-0.22564 0.417427,-0.60923 0.157948,-0.38358 0.22564,-0.90255 0.06769,-0.50768 0.06769,-1.08306 0,-0.57537 -0.06769,-1.09434 -0.06769,-0.50768 -0.22564,-0.89127 -0.157945,-0.38358 -0.417427,-0.60922 -0.259485,-0.22564 -0.643067,-0.22564 -0.383585,0 -0.643067,0.22564 -0.259485,0.22564 -0.417431,0.60922 -0.157945,0.38359 -0.225636,0.89127 -0.06769,0.51897 -0.06769,1.09434 z"
       style="font-style:normal;font-variant:normal;font-weight:normal;font-stretch:normal;font-size:42.66666794px;line-height:53.33333588px;font-family:'Ubuntu Mono';-inkscape-font-specification:'Ubuntu Mono';letter-spacing:0px;word-spacing:0px;fill:#000000;fill-opacity:1;stroke:none;stroke-width:0.26441899"
       id="path9100"
       inkscape:connector-curvature="0" />
    <path
       d="m 17.196224,209.38722 q -0.541001,0.29881 -1.033721,0.70506 -0.491248,0.41742 -0.880635,1.00351 l -0.648752,0.0854 -0.808446,-6.14076 -1.308687,0.17229 -0.103081,-0.78297 3.724724,-0.49037 0.103081,0.78297 -1.498837,0.19733 0.6391,4.85444 q 0.108312,-0.12805 0.27108,-0.27465 0.153055,-0.13394 0.350852,-0.27377 0.18661,-0.13836 0.397063,-0.26848 0.210454,-0.13012 0.414141,-0.22521 z"
       style="font-style:normal;font-variant:normal;font-weight:normal;font-stretch:normal;font-size:42.66666794px;line-height:53.33333588px;font-family:'Ubuntu Mono';-inkscape-font-specification:'Ubuntu Mono';letter-spacing:0px;word-spacing:0px;fill:#000000;fill-opacity:1;stroke:none;stroke-width:0.26441899"
       id="path9097"
       inkscape:connector-curvature="0" />
    <path
       d="m 17.942347,231.79081 q -0.09344,-0.34872 -0.03937,-0.7136 0.04317,-0.36196 0.187339,-0.73931 0.133269,-0.37442 0.334846,-0.75547 0.201574,-0.38105 0.416966,-0.75412 0.119662,-0.20726 0.276291,-0.49451 0.156632,-0.28724 0.288547,-0.57955 0.131915,-0.2923 0.201365,-0.55618 0.06945,-0.26389 0.02565,-0.42735 l -3.105775,0.83219 -0.204398,-0.76283 4.086546,-1.09498 q 0.02551,0.0516 0.04011,0.10605 0.01752,0.0654 0.03212,0.11987 0.122639,0.4577 0.07519,0.89088 -0.04744,0.43319 -0.193751,0.84615 -0.146306,0.41296 -0.358778,0.79692 -0.220448,0.39779 -0.43584,0.77086 -0.175506,0.30398 -0.332135,0.59123 -0.167528,0.29016 -0.26967,0.56281 -0.113041,0.27557 -0.146879,0.54159 -0.04182,0.27984 0.02826,0.54138 0.07884,0.29423 0.232396,0.475 0.14266,0.1837 0.341162,0.27067 0.190522,0.10078 0.415095,0.11069 0.224569,0.01 0.464314,-0.0543 0.283333,-0.0759 0.502639,-0.21644 0.208407,-0.1376 0.364463,-0.29621 0.145161,-0.15569 0.24673,-0.29971 0.10449,-0.13312 0.152355,-0.21602 l 0.616153,0.51233 q -0.0609,0.12144 -0.1973,0.30983 -0.136398,0.18838 -0.344024,0.37249 -0.215601,0.19793 -0.49737,0.36687 -0.28177,0.16894 -0.630488,0.26238 -1.057054,0.28324 -1.689734,-0.0728 -0.64066,-0.34225 -0.883018,-1.24674 z"
       style="font-style:normal;font-variant:normal;font-weight:normal;font-stretch:normal;font-size:42.66666794px;line-height:53.33333588px;font-family:'Ubuntu Mono';-inkscape-font-specification:'Ubuntu Mono';letter-spacing:0px;word-spacing:0px;fill:#000000;fill-opacity:1;stroke:none;stroke-width:0.26441899"
       id="path9094"
       inkscape:connector-curvature="0" />
    <path
       d="m 25.890305,248.14721 q -0.823425,0.34107 -1.033548,0.80667 -0.216227,0.48032 0.01259,1.03275 0.146792,0.35438 0.392014,0.53367 0.245223,0.17929 0.545399,0.22591 0.300173,0.0466 0.63877,-0.0204 0.338597,-0.067 0.682559,-0.20945 l 0.218885,-0.0907 0.289266,0.69835 -0.302269,0.1252 q -0.229309,0.095 -0.45177,0.23598 -0.228567,0.15573 -0.379116,0.35241 -0.156652,0.21143 -0.195381,0.4717 -0.03873,0.26027 0.09511,0.58339 0.220187,0.53157 0.644391,0.6123 0.418098,0.0955 0.855868,-0.0859 0.448192,-0.18565 0.704759,-0.45067 0.260884,-0.2546 0.413221,-0.47644 l 0.605534,0.51849 q -0.154124,0.24702 -0.522816,0.59512 -0.374798,0.36284 -0.916798,0.58734 -0.510732,0.21155 -0.927348,0.23758 -0.416619,0.026 -0.740908,-0.10829 -0.334715,-0.13001 -0.57889,-0.39521 -0.239858,-0.25478 -0.390966,-0.61959 -0.211552,-0.51073 -0.08734,-0.97737 0.113787,-0.46232 0.452996,-0.82263 -0.560752,0.0613 -1.102573,-0.21493 -0.537502,-0.26581 -0.826767,-0.96416 -0.172696,-0.41692 -0.177882,-0.84217 -0.01129,-0.41052 0.172621,-0.79198 0.173488,-0.37714 0.571663,-0.71303 0.387747,-0.33157 1.013133,-0.59062 0.239733,-0.0993 0.517578,-0.16554 0.263107,-0.0724 0.507896,-0.10047 0.240472,-0.0385 0.439254,-0.0598 0.192672,-0.007 0.278586,-0.005 l 0.139764,0.80912 q -0.201306,-0.0143 -0.613608,0.0222 -0.412299,0.0365 -0.943877,0.25664 z"
       style="font-style:normal;font-variant:normal;font-weight:normal;font-stretch:normal;font-size:42.66666794px;line-height:53.33333588px;font-family:'Ubuntu Mono';-inkscape-font-specification:'Ubuntu Mono';letter-spacing:0px;word-spacing:0px;fill:#000000;fill-opacity:1;stroke:none;stroke-width:0.26441899"
       id="path9091"
       inkscape:connector-curvature="0" />
    <path
       d="m 38.056755,268.91578 q 0.05954,0.48671 0.06953,1.15836 2.17e-4,0.67729 -0.05104,1.42337 -0.04561,0.75586 -0.156999,1.51061 -0.105746,0.76452 -0.28331,1.42721 l -0.781633,0.45127 -2.216889,-3.83976 -0.713237,0.41179 -0.383585,-0.66439 0.713237,-0.41179 -0.891267,-1.54372 0.781632,-0.45128 0.891268,1.54372 2.706397,-1.56253 z m -0.97463,4.56205 q 0.100214,-0.43565 0.176351,-0.93556 0.06637,-0.49427 0.100402,-1.02198 0.03967,-0.51794 0.03875,-1.03849 -0.01069,-0.51492 -0.05482,-0.9975 l -1.924766,1.11126 z"
       style="font-style:normal;font-variant:normal;font-weight:normal;font-stretch:normal;font-size:42.66666794px;line-height:53.33333588px;font-family:'Ubuntu Mono';-inkscape-font-specification:'Ubuntu Mono';letter-spacing:0px;word-spacing:0px;fill:#000000;fill-opacity:1;stroke:none;stroke-width:0.26441899"
       id="path9088"
       inkscape:connector-curvature="0" />
    <path
       d="m 50.03917,289.92277 q -1.233707,0.87555 -2.15056,0.81117 -0.91685,-0.0644 -1.541836,-0.87888 -0.281586,-0.36697 -0.405609,-0.76952 -0.124023,-0.40255 -0.04511,-0.81862 0.06996,-0.40919 0.358684,-0.82982 0.279769,-0.41377 0.798899,-0.81211 0.214812,-0.16483 0.457097,-0.29386 0.226465,-0.13111 0.448765,-0.23059 0.222302,-0.0995 0.39985,-0.16461 0.184417,-0.0562 0.274542,-0.0684 l 0.344418,0.74537 q -0.198152,0.0383 -0.569068,0.16647 -0.379865,0.13506 -0.836341,0.48532 -0.358019,0.27472 -0.537871,0.54071 -0.179853,0.26599 -0.220042,0.51014 -0.04227,0.25996 0.03244,0.48705 0.06575,0.23395 0.216851,0.43086 0.233512,0.30432 0.519484,0.45462 0.283891,0.16611 0.667078,0.12805 0.374239,-0.0312 0.883576,-0.29404 0.507256,-0.24702 1.178544,-0.76212 0.248487,0.43503 0.482618,0.79575 0.232048,0.37655 0.461395,0.7125 0.227264,0.35177 0.46556,0.68086 0.229353,0.33595 0.486165,0.70771 l -2.667254,2.04666 -0.480758,-0.62654 2.022817,-1.55216 q -0.08719,-0.13218 -0.227264,-0.35178 -0.142137,-0.20378 -0.295943,-0.44127 -0.153805,-0.2375 -0.293862,-0.4571 -0.140068,-0.21959 -0.227264,-0.35177 z"
       style="font-style:normal;font-variant:normal;font-weight:normal;font-stretch:normal;font-size:42.66666794px;line-height:53.33333588px;font-family:'Ubuntu Mono';-inkscape-font-specification:'Ubuntu Mono';letter-spacing:0px;word-spacing:0px;fill:#000000;fill-opacity:1;stroke:none;stroke-width:0.26441899"
       id="path9085"
       inkscape:connector-curvature="0" />
    <path
       d="m 63.419612,307.17261 q -0.207414,-0.20741 -0.231346,-0.48662 -0.03191,-0.27124 0.167525,-0.47068 0.207416,-0.20741 0.486628,-0.18348 0.279213,0.0239 0.486627,0.23135 0.207415,0.20741 0.239325,0.49461 0.03191,0.28718 -0.175505,0.4946 -0.199436,0.19944 -0.478648,0.15955 -0.287191,-0.0319 -0.494606,-0.23933 z m 2.002352,-2.17785 q 1.244489,1.24449 1.483811,2.32943 0.239325,1.10089 -0.53449,1.87471 -0.781796,0.78179 -1.874711,0.53449 -1.084938,-0.23933 -2.329426,-1.48381 -1.244489,-1.24449 -1.491792,-2.33741 -0.239327,-1.08494 0.542469,-1.86673 0.773815,-0.77382 1.866733,-0.54247 1.092917,0.2473 2.337406,1.49179 z m -2.584707,2.58471 q 0.406852,0.40685 0.813704,0.71797 0.414828,0.3191 0.797748,0.47865 0.382919,0.15955 0.725952,0.13562 0.343031,-0.0239 0.614266,-0.29517 0.271234,-0.27123 0.295168,-0.61427 0.02393,-0.34303 -0.135619,-0.72595 -0.159549,-0.38292 -0.478647,-0.79775 -0.311122,-0.40685 -0.717974,-0.8137 -0.406852,-0.40685 -0.821683,-0.72595 -0.406852,-0.31113 -0.789773,-0.47068 -0.382918,-0.15954 -0.72595,-0.13561 -0.343033,0.0239 -0.614267,0.29516 -0.271235,0.27124 -0.295167,0.61427 -0.02393,0.34303 0.135616,0.72595 0.159551,0.38292 0.470673,0.78977 0.319101,0.41483 0.725953,0.82169 z"
       style="font-style:normal;font-variant:normal;font-weight:normal;font-stretch:normal;font-size:42.66666794px;line-height:53.33333588px;font-family:'Ubuntu Mono';-inkscape-font-specification:'Ubuntu Mono';letter-spacing:0px;word-spacing:0px;fill:#000000;fill-opacity:1;stroke:none;stroke-width:0.26441899"
       id="path9082"
       inkscape:connector-curvature="0" />
    <path
       d="m 83.502884,321.1079 q -0.171255,0.59383 -0.232402,1.2295 -0.0522,0.64253 0.08689,1.33229 l -0.398343,0.51913 -4.913832,-3.77051 -0.803553,1.04721 -0.626537,-0.48076 2.287035,-2.98052 0.626537,0.48076 -0.920308,1.19936 3.884522,2.9807 q -0.01396,-0.16713 -0.0025,-0.38589 0.01351,-0.20294 0.0545,-0.44168 0.03412,-0.22978 0.09092,-0.47061 0.0568,-0.24082 0.133593,-0.45209 z"
       style="font-style:normal;font-variant:normal;font-weight:normal;font-stretch:normal;font-size:42.66666794px;line-height:53.33333588px;font-family:'Ubuntu Mono';-inkscape-font-specification:'Ubuntu Mono';letter-spacing:0px;word-spacing:0px;fill:#000000;fill-opacity:1;stroke:none;stroke-width:0.26441899"
       id="path9079"
       inkscape:connector-curvature="0" />
    <path
       d="m 99.872205,336.42204 q -0.312651,-0.18051 -0.53243,-0.47675 -0.225421,-0.28648 -0.390302,-0.65524 -0.170524,-0.359 -0.297429,-0.77097 -0.126907,-0.41198 -0.238403,-0.82808 -0.06194,-0.23117 -0.154301,-0.54504 -0.09236,-0.31387 -0.205771,-0.61384 -0.113411,-0.29997 -0.250897,-0.53567 -0.137487,-0.2357 -0.284043,-0.32032 l -1.607668,2.78456 -0.683928,-0.39486 2.115352,-3.6639 q 0.0545,0.0184 0.10335,0.0466 0.05862,0.0339 0.107474,0.062 0.410356,0.23692 0.683117,0.57678 0.272762,0.33986 0.461312,0.73532 0.188553,0.39546 0.309818,0.8172 0.125397,0.43716 0.236892,0.85327 0.09085,0.33905 0.183206,0.65291 0.08672,0.32364 0.207283,0.58866 0.114923,0.27478 0.279104,0.48682 0.168309,0.22744 0.402799,0.36283 0.2638,0.1523 0.50021,0.17155 0.23076,0.029 0.43262,-0.0498 0.20599,-0.0635 0.37179,-0.21525 0.1658,-0.15179 0.2899,-0.36674 0.14666,-0.25403 0.20237,-0.50846 0.0501,-0.24467 0.0483,-0.46718 -0.007,-0.21273 -0.0375,-0.38639 -0.0202,-0.16801 -0.045,-0.26048 l 0.79796,-0.0734 q 0.0428,0.12893 0.0796,0.35859 0.0368,0.22966 0.0201,0.50666 -0.0125,0.29241 -0.0923,0.61111 -0.0798,0.3187 -0.26029,0.63135 -0.54717,0.94773 -1.24632,1.14332 -0.69503,0.21101 -1.505969,-0.25719 z"
       style="font-style:normal;font-variant:normal;font-weight:normal;font-stretch:normal;font-size:42.66666794px;line-height:53.33333588px;font-family:'Ubuntu Mono';-inkscape-font-specification:'Ubuntu Mono';letter-spacing:0px;word-spacing:0px;fill:#000000;fill-opacity:1;stroke:none;stroke-width:0.26441899"
       id="path9076"
       inkscape:connector-curvature="0" />
    <path
       d="m 117.05798,342.36771 q -0.34108,0.82343 -0.16044,1.30123 0.18675,0.49254 0.73918,0.72136 0.35438,0.14679 0.65456,0.10017 0.30017,-0.0466 0.54539,-0.22591 0.24523,-0.17929 0.43729,-0.46608 0.19206,-0.28679 0.33453,-0.63075 l 0.0907,-0.21889 0.69834,0.28927 -0.1252,0.30227 q -0.095,0.22931 -0.15259,0.48631 -0.0515,0.27174 -0.0189,0.51727 0.0387,0.26027 0.19538,0.47169 0.15666,0.21143 0.47977,0.34527 0.53158,0.22018 0.88862,-0.0227 0.36315,-0.22813 0.54448,-0.6659 0.18565,-0.4482 0.17967,-0.81701 0.004,-0.3645 -0.0447,-0.62909 l 0.79481,-0.0616 q 0.0657,0.28365 0.0511,0.7905 -0.008,0.52159 -0.23296,1.06359 -0.21155,0.51073 -0.48773,0.82373 -0.27619,0.313 -0.60048,0.44732 -0.32861,0.14475 -0.68879,0.12988 -0.34976,-0.0105 -0.71457,-0.16166 -0.51073,-0.21155 -0.75287,-0.62934 -0.24645,-0.40737 -0.26137,-0.902 -0.35316,0.43986 -0.93161,0.62766 -0.56803,0.19211 -1.26638,-0.0972 -0.41692,-0.17269 -0.72129,-0.46972 -0.29826,-0.2823 -0.43795,-0.68207 -0.14401,-0.38936 -0.1,-0.90842 0.0397,-0.50864 0.29876,-1.13403 0.0993,-0.23973 0.24893,-0.48303 0.13489,-0.23721 0.28809,-0.43019 0.14278,-0.19729 0.26829,-0.3529 0.13162,-0.14087 0.19311,-0.20088 l 0.67096,0.47331 q -0.15246,0.13223 -0.41823,0.44955 -0.26576,0.31731 -0.48594,0.84889 z"
       style="font-style:normal;font-variant:normal;font-weight:normal;font-stretch:normal;font-size:42.66666794px;line-height:53.33333588px;font-family:'Ubuntu Mono';-inkscape-font-specification:'Ubuntu Mono';letter-spacing:0px;word-spacing:0px;fill:#000000;fill-opacity:1;stroke:none;stroke-width:0.26441899"
       id="path9073"
       inkscape:connector-curvature="0" />
    <path
       d="m 140.34655,348.45033 q 0.38626,0.30205 0.86825,0.76991 0.47907,0.47877 0.97039,1.04257 0.50222,0.56672 0.95714,1.17918 0.46583,0.61537 0.80886,1.20951 l -0.2336,0.8718 -4.2827,-1.14754 -0.21316,0.79551 -0.74102,-0.19856 0.21315,-0.79551 -1.72179,-0.46136 0.23359,-0.87179 1.7218,0.46135 0.80883,-3.01859 z m 2.53669,3.91502 q -0.23719,-0.37891 -0.53684,-0.78624 -0.30258,-0.39643 -0.65166,-0.79364 -0.33818,-0.39429 -0.70692,-0.76173 -0.37166,-0.35655 -0.7441,-0.66658 l -0.57523,2.1468 z"
       style="font-style:normal;font-variant:normal;font-weight:normal;font-stretch:normal;font-size:42.66666794px;line-height:53.33333588px;font-family:'Ubuntu Mono';-inkscape-font-specification:'Ubuntu Mono';letter-spacing:0px;word-spacing:0px;fill:#000000;fill-opacity:1;stroke:none;stroke-width:0.26441899"
       id="path9070"
       inkscape:connector-curvature="0" />
    <path
       d="m 163.67357,354.83166 q -0.25325,1.49148 -0.94708,2.09427 -0.69384,0.60278 -1.71171,0.46878 -0.4586,-0.0604 -0.83094,-0.25733 -0.37235,-0.19695 -0.61075,-0.54695 -0.23987,-0.33882 -0.33315,-0.84041 -0.0947,-0.4904 -0.009,-1.13915 0.0353,-0.26845 0.11542,-0.53101 0.0674,-0.25284 0.15428,-0.48037 0.0868,-0.22753 0.16634,-0.39914 0.0907,-0.17013 0.14572,-0.24253 l 0.7706,0.28352 q -0.11304,0.16718 -0.28468,0.5201 -0.17311,0.3641 -0.24821,0.93456 -0.0589,0.44741 0.002,0.76267 0.0609,0.31526 0.20513,0.51631 0.15393,0.21371 0.36733,0.32146 0.21192,0.11894 0.458,0.15133 0.3803,0.0501 0.68879,-0.0459 0.31821,-0.0833 0.56225,-0.38114 0.24257,-0.28669 0.41686,-0.8327 0.18401,-0.53336 0.29446,-1.37226 0.48332,0.13191 0.90394,0.22142 0.43034,0.10217 0.83007,0.17755 0.40944,0.0881 0.81064,0.15225 0.39973,0.0754 0.8442,0.15665 l -0.43883,3.33324 -0.78298,-0.10308 0.33281,-2.52789 q -0.15512,-0.0318 -0.40944,-0.088 -0.24461,-0.0436 -0.5213,-0.10276 -0.27669,-0.0592 -0.531,-0.11543 -0.25432,-0.0562 -0.40945,-0.088 z"
       style="font-style:normal;font-variant:normal;font-weight:normal;font-stretch:normal;font-size:42.66666794px;line-height:53.33333588px;font-family:'Ubuntu Mono';-inkscape-font-specification:'Ubuntu Mono';letter-spacing:0px;word-spacing:0px;fill:#000000;fill-opacity:1;stroke:none;stroke-width:0.26441899"
       id="path9067"
       inkscape:connector-curvature="0" />
    <path
       d="m 185.33246,357.56775 q -0.29332,0 -0.50768,-0.18051 -0.21436,-0.16923 -0.21436,-0.45128 0,-0.29333 0.21436,-0.47383 0.21436,-0.18052 0.50768,-0.18052 0.29333,0 0.51897,0.18052 0.22564,0.1805 0.22564,0.47383 0,0.28205 -0.22564,0.45128 -0.22564,0.18051 -0.51897,0.18051 z m -0.1241,-2.95585 q 1.75998,0 2.69637,0.59794 0.94768,0.60922 0.94768,1.70356 0,1.10562 -0.94768,1.70356 -0.93639,0.59794 -2.69637,0.59794 -1.75997,0 -2.70765,-0.59794 -0.93639,-0.59794 -0.93639,-1.70356 0,-1.09434 0.93639,-1.70356 0.94768,-0.59794 2.70765,-0.59794 z m 0,3.65532 q 0.57538,0 1.08306,-0.0677 0.51897,-0.0677 0.90255,-0.22563 0.38359,-0.15795 0.60923,-0.41743 0.22563,-0.25949 0.22563,-0.64307 0,-0.38358 -0.22563,-0.64307 -0.22564,-0.25948 -0.60923,-0.41743 -0.38358,-0.15794 -0.90255,-0.22564 -0.50768,-0.0677 -1.08306,-0.0677 -0.57537,0 -1.09434,0.0677 -0.50768,0.0677 -0.89127,0.22564 -0.38358,0.15795 -0.60922,0.41743 -0.22564,0.25949 -0.22564,0.64307 0,0.38358 0.22564,0.64307 0.22564,0.25948 0.60922,0.41743 0.38359,0.15794 0.89127,0.22563 0.51897,0.0677 1.09434,0.0677 z"
       style="font-style:normal;font-variant:normal;font-weight:normal;font-stretch:normal;font-size:42.66666794px;line-height:53.33333588px;font-family:'Ubuntu Mono';-inkscape-font-specification:'Ubuntu Mono';letter-spacing:0px;word-spacing:0px;fill:#000000;fill-opacity:1;stroke:none;stroke-width:0.26441899"
       id="path9064"
       inkscape:connector-curvature="0" />
    <path
       d="m 209.38722,353.22047 q 0.29881,0.541 0.70506,1.03372 0.41742,0.49124 1.00351,0.88063 l 0.0854,0.64875 -6.14076,0.80845 0.17229,1.30869 -0.78297,0.10308 -0.49037,-3.72473 0.78297,-0.10308 0.19733,1.49884 4.85444,-0.6391 q -0.12805,-0.10831 -0.27465,-0.27108 -0.13394,-0.15305 -0.27377,-0.35085 -0.13836,-0.18661 -0.26848,-0.39707 -0.13012,-0.21045 -0.22521,-0.41414 z"
       style="font-style:normal;font-variant:normal;font-weight:normal;font-stretch:normal;font-size:42.66666794px;line-height:53.33333588px;font-family:'Ubuntu Mono';-inkscape-font-specification:'Ubuntu Mono';letter-spacing:0px;word-spacing:0px;fill:#000000;fill-opacity:1;stroke:none;stroke-width:0.26441899"
       id="path9061"
       inkscape:connector-curvature="0" />
    <path
       d="m 231.79081,352.47434 q -0.34872,0.0934 -0.7136,0.0394 -0.36196,-0.0432 -0.73931,-0.18734 -0.37442,-0.13326 -0.75547,-0.33484 -0.38105,-0.20158 -0.75412,-0.41697 -0.20726,-0.11966 -0.49451,-0.27629 -0.28724,-0.15663 -0.57955,-0.28855 -0.2923,-0.13191 -0.55618,-0.20136 -0.26389,-0.0695 -0.42735,-0.0256 l 0.83219,3.10577 -0.76283,0.2044 -1.09498,-4.08655 q 0.0516,-0.0255 0.10605,-0.0401 0.0654,-0.0175 0.11987,-0.0321 0.4577,-0.12264 0.89088,-0.0752 0.43319,0.0474 0.84615,0.19375 0.41296,0.1463 0.79692,0.35878 0.39779,0.22044 0.77086,0.43584 0.30398,0.1755 0.59123,0.33213 0.29016,0.16753 0.56281,0.26967 0.27557,0.11304 0.54159,0.14688 0.27984,0.0418 0.54138,-0.0283 0.29423,-0.0788 0.475,-0.2324 0.1837,-0.14266 0.27067,-0.34116 0.10078,-0.19052 0.11069,-0.4151 0.01,-0.22457 -0.0543,-0.46431 -0.0759,-0.28333 -0.21644,-0.50264 -0.1376,-0.20841 -0.29621,-0.36446 -0.15569,-0.14516 -0.29971,-0.24673 -0.13312,-0.10449 -0.21602,-0.15236 l 0.51233,-0.61615 q 0.12144,0.0609 0.30983,0.1973 0.18838,0.1364 0.37249,0.34402 0.19793,0.2156 0.36687,0.49737 0.16894,0.28177 0.26238,0.63049 0.28324,1.05706 -0.0728,1.68973 -0.34225,0.64067 -1.24674,0.88302 z"
       style="font-style:normal;font-variant:normal;font-weight:normal;font-stretch:normal;font-size:42.66666794px;line-height:53.33333588px;font-family:'Ubuntu Mono';-inkscape-font-specification:'Ubuntu Mono';letter-spacing:0px;word-spacing:0px;fill:#000000;fill-opacity:1;stroke:none;stroke-width:0.26441899"
       id="path9058"
       inkscape:connector-curvature="0" />
    <path
       d="m 248.14722,344.52638 q 0.34107,0.82343 0.80667,1.03355 0.48032,0.21623 1.03275,-0.0126 0.35438,-0.14679 0.53367,-0.39201 0.17929,-0.24523 0.22591,-0.5454 0.0466,-0.30018 -0.0204,-0.63877 -0.067,-0.3386 -0.20945,-0.68256 l -0.0907,-0.21889 0.69835,-0.28926 0.1252,0.30227 q 0.095,0.2293 0.23598,0.45176 0.15573,0.22857 0.35241,0.37912 0.21143,0.15665 0.4717,0.19538 0.26027,0.0387 0.58339,-0.0951 0.53157,-0.22018 0.6123,-0.64439 0.0955,-0.4181 -0.0859,-0.85587 -0.18565,-0.44819 -0.45067,-0.70476 -0.2546,-0.26088 -0.47644,-0.41322 l 0.51849,-0.60553 q 0.24702,0.15412 0.59512,0.52282 0.36284,0.37479 0.58734,0.91679 0.21155,0.51074 0.23758,0.92735 0.026,0.41662 -0.10829,0.74091 -0.13001,0.33471 -0.39521,0.57889 -0.25478,0.23986 -0.61959,0.39097 -0.51073,0.21155 -0.97737,0.0873 -0.46232,-0.11379 -0.82263,-0.453 0.0613,0.56075 -0.21493,1.10258 -0.26581,0.5375 -0.96416,0.82676 -0.41692,0.1727 -0.84217,0.17788 -0.41052,0.0113 -0.79198,-0.17262 -0.37714,-0.17348 -0.71303,-0.57166 -0.33157,-0.38775 -0.59062,-1.01313 -0.0993,-0.23973 -0.16554,-0.51758 -0.0724,-0.26311 -0.10047,-0.5079 -0.0385,-0.24047 -0.0598,-0.43925 -0.007,-0.19267 -0.005,-0.27859 l 0.80912,-0.13976 q -0.0143,0.20131 0.0222,0.61361 0.0365,0.4123 0.25664,0.94387 z"
       style="font-style:normal;font-variant:normal;font-weight:normal;font-stretch:normal;font-size:42.66666794px;line-height:53.33333588px;font-family:'Ubuntu Mono';-inkscape-font-specification:'Ubuntu Mono';letter-spacing:0px;word-spacing:0px;fill:#000000;fill-opacity:1;stroke:none;stroke-width:0.26441899"
       id="path9055"
       inkscape:connector-curvature="0" />
    <path
       d="m 268.91579,332.35994 q 0.48671,-0.0596 1.15836,-0.0695 0.67729,-2.2e-4 1.42337,0.051 0.75586,0.0456 1.51061,0.157 0.76452,0.10575 1.42721,0.28331 l 0.45127,0.78164 -3.83976,2.21688 0.41179,0.71324 -0.66439,0.38359 -0.41179,-0.71324 -1.54372,0.89127 -0.45128,-0.78164 1.54372,-0.89126 -1.56253,-2.7064 z m 4.56205,0.97463 q -0.43565,-0.10022 -0.93556,-0.17636 -0.49427,-0.0664 -1.02198,-0.1004 -0.51794,-0.0397 -1.03849,-0.0387 -0.51492,0.0107 -0.9975,0.0548 l 1.11126,1.92477 z"
       style="font-style:normal;font-variant:normal;font-weight:normal;font-stretch:normal;font-size:42.66666794px;line-height:53.33333588px;font-family:'Ubuntu Mono';-inkscape-font-specification:'Ubuntu Mono';letter-spacing:0px;word-spacing:0px;fill:#000000;fill-opacity:1;stroke:none;stroke-width:0.26441899"
       id="path9052"
       inkscape:connector-curvature="0" />
    <path
       d="m 289.92278,320.37751 q 0.87555,1.23371 0.81117,2.15056 -0.0644,0.91685 -0.87888,1.54184 -0.36697,0.28158 -0.76952,0.40561 -0.40255,0.12402 -0.81862,0.0451 -0.40919,-0.07 -0.82982,-0.35868 -0.41377,-0.27977 -0.81211,-0.7989 -0.16483,-0.21481 -0.29386,-0.4571 -0.13111,-0.22646 -0.23059,-0.44876 -0.0995,-0.22231 -0.16461,-0.39985 -0.0562,-0.18442 -0.0685,-0.27455 l 0.74537,-0.34441 q 0.0383,0.19815 0.16647,0.56906 0.13506,0.37987 0.48532,0.83635 0.27472,0.35801 0.54071,0.53787 0.26599,0.17985 0.51014,0.22004 0.25996,0.0423 0.48705,-0.0324 0.23395,-0.0658 0.43086,-0.21685 0.30432,-0.23351 0.45462,-0.51948 0.16611,-0.28389 0.12805,-0.66708 -0.0312,-0.37424 -0.29404,-0.88358 -0.24702,-0.50725 -0.76212,-1.17854 0.43503,-0.24849 0.79575,-0.48262 0.37655,-0.23205 0.7125,-0.46139 0.35177,-0.22727 0.68086,-0.46556 0.33595,-0.22936 0.70771,-0.48617 l 2.04666,2.66726 -0.62654,0.48075 -1.55216,-2.02281 q -0.13218,0.0872 -0.35178,0.22726 -0.20378,0.14214 -0.44127,0.29594 -0.2375,0.15381 -0.4571,0.29387 -0.21959,0.14006 -0.35177,0.22726 z"
       style="font-style:normal;font-variant:normal;font-weight:normal;font-stretch:normal;font-size:42.66666794px;line-height:53.33333588px;font-family:'Ubuntu Mono';-inkscape-font-specification:'Ubuntu Mono';letter-spacing:0px;word-spacing:0px;fill:#000000;fill-opacity:1;stroke:none;stroke-width:0.26441899"
       id="path9049"
       inkscape:connector-curvature="0" />
    <path
       d="m 307.17263,306.99707 q -0.20741,0.20741 -0.48662,0.23134 -0.27124,0.0319 -0.47068,-0.16752 -0.20741,-0.20742 -0.18348,-0.48663 0.0239,-0.27921 0.23135,-0.48663 0.20741,-0.20741 0.49461,-0.23932 0.28718,-0.0319 0.4946,0.1755 0.19944,0.19944 0.15955,0.47865 -0.0319,0.28719 -0.23933,0.49461 z m -2.17785,-2.00235 q 1.24449,-1.24449 2.32943,-1.48382 1.10089,-0.23932 1.87471,0.5345 0.78179,0.78179 0.53449,1.87471 -0.23933,1.08493 -1.48381,2.32942 -1.24449,1.24449 -2.33741,1.49179 -1.08494,0.23933 -1.86673,-0.54246 -0.77382,-0.77382 -0.54247,-1.86674 0.2473,-1.09292 1.49179,-2.3374 z m 2.58471,2.5847 q 0.40685,-0.40685 0.71797,-0.8137 0.3191,-0.41483 0.47865,-0.79775 0.15955,-0.38292 0.13562,-0.72595 -0.0239,-0.34303 -0.29517,-0.61427 -0.27123,-0.27123 -0.61427,-0.29517 -0.34303,-0.0239 -0.72595,0.13562 -0.38292,0.15955 -0.79775,0.47865 -0.40685,0.31112 -0.8137,0.71798 -0.40685,0.40685 -0.72595,0.82168 -0.31113,0.40685 -0.47068,0.78977 -0.15954,0.38292 -0.13561,0.72595 0.0239,0.34303 0.29516,0.61427 0.27124,0.27123 0.61427,0.29517 0.34303,0.0239 0.72595,-0.13562 0.38292,-0.15955 0.78977,-0.47067 0.41483,-0.3191 0.82169,-0.72596 z"
       style="font-style:normal;font-variant:normal;font-weight:normal;font-stretch:normal;font-size:42.66666794px;line-height:53.33333588px;font-family:'Ubuntu Mono';-inkscape-font-specification:'Ubuntu Mono';letter-spacing:0px;word-spacing:0px;fill:#000000;fill-opacity:1;stroke:none;stroke-width:0.26441899"
       id="path9046"
       inkscape:connector-curvature="0" />
    <path
       d="m 321.10792,286.9138 q 0.59383,0.17125 1.2295,0.2324 0.64253,0.0522 1.33229,-0.0869 l 0.51913,0.39834 -3.77051,4.91383 1.04721,0.80355 -0.48076,0.62654 -2.98052,-2.28703 0.48076,-0.62654 1.19936,0.92031 2.9807,-3.88452 q -0.16713,0.014 -0.38589,0.003 -0.20294,-0.0135 -0.44168,-0.0545 -0.22978,-0.0341 -0.47061,-0.0909 -0.24082,-0.0568 -0.45209,-0.1336 z"
       style="font-style:normal;font-variant:normal;font-weight:normal;font-stretch:normal;font-size:42.66666794px;line-height:53.33333588px;font-family:'Ubuntu Mono';-inkscape-font-specification:'Ubuntu Mono';letter-spacing:0px;word-spacing:0px;fill:#000000;fill-opacity:1;stroke:none;stroke-width:0.26441899"
       id="path9043"
       inkscape:connector-curvature="0" />
    <path
       d="m 336.42206,270.54448 q -0.18051,0.31266 -0.47675,0.53244 -0.28648,0.22542 -0.65524,0.3903 -0.359,0.17052 -0.77097,0.29743 -0.41198,0.1269 -0.82808,0.2384 -0.23117,0.0619 -0.54504,0.1543 -0.31387,0.0924 -0.61384,0.20577 -0.29997,0.11341 -0.53567,0.2509 -0.2357,0.13749 -0.32032,0.28404 l 2.78456,1.60767 -0.39486,0.68393 -3.6639,-2.11535 q 0.0184,-0.0545 0.0466,-0.10335 0.0339,-0.0586 0.062,-0.10748 0.23692,-0.41035 0.57678,-0.68312 0.33986,-0.27276 0.73532,-0.46131 0.39546,-0.18855 0.8172,-0.30982 0.43716,-0.12539 0.85327,-0.23689 0.33905,-0.0908 0.65291,-0.1832 0.32364,-0.0867 0.58866,-0.20729 0.27478,-0.11492 0.48682,-0.2791 0.22744,-0.16831 0.36283,-0.4028 0.1523,-0.2638 0.17155,-0.50021 0.029,-0.23076 -0.0498,-0.43262 -0.0635,-0.20599 -0.21525,-0.37179 -0.15179,-0.1658 -0.36674,-0.2899 -0.25403,-0.14666 -0.50846,-0.20237 -0.24467,-0.0501 -0.46718,-0.0483 -0.21273,0.007 -0.38639,0.0375 -0.16801,0.0202 -0.26048,0.045 l -0.0734,-0.79796 q 0.12893,-0.0428 0.35859,-0.0796 0.22966,-0.0368 0.50666,-0.0201 0.29241,0.0125 0.61111,0.0923 0.3187,0.0798 0.63135,0.26029 0.94773,0.54717 1.14332,1.24632 0.21101,0.69503 -0.25719,1.50597 z"
       style="font-style:normal;font-variant:normal;font-weight:normal;font-stretch:normal;font-size:42.66666794px;line-height:53.33333588px;font-family:'Ubuntu Mono';-inkscape-font-specification:'Ubuntu Mono';letter-spacing:0px;word-spacing:0px;fill:#000000;fill-opacity:1;stroke:none;stroke-width:0.26441899"
       id="path9040"
       inkscape:connector-curvature="0" />
  </g>
</svg>
