<?xml version="1.0" encoding="UTF-8" standalone="no"?>
<svg
   xmlns:dc="http://purl.org/dc/elements/1.1/"
   xmlns:cc="http://creativecommons.org/ns#"
   xmlns:rdf="http://www.w3.org/1999/02/22-rdf-syntax-ns#"
   xmlns:svg="http://www.w3.org/2000/svg"
   xmlns="http://www.w3.org/2000/svg"
   id="svg6106"
   version="1.1"
   viewBox="0 0 423.33332 423.33335"
   height="1600"
   width="1600">
  <defs
     id="defs6100" />
  <metadata
     id="metadata6103">
    <rdf:RDF>
      <cc:Work
         rdf:about="">
        <dc:format>image/svg+xml</dc:format>
        <dc:type
           rdf:resource="http://purl.org/dc/dcmitype/StillImage" />
        <dc:title></dc:title>
      </cc:Work>
    </rdf:RDF>
  </metadata>
  <g
     transform="translate(154.97024,195.88096)"
     id="layer1">
    <g
       id="g7681">
      <circle
         style="fill:#f2f2f2;fill-opacity:1;stroke:#000000;stroke-width:0.79346937;stroke-miterlimit:4;stroke-dasharray:none;stroke-opacity:1"
         id="circle8938"
         cx="56.963287"
         cy="14.793817"
         r="211.26927"
         transform="rotate(1.0000002)" />
      <g
         aria-label="0"
         transform="matrix(0.26448979,0,0,0.26448979,102.19799,-49.022003)"
         style="font-style:normal;font-weight:normal;font-size:42.66666794px;line-height:1.25;font-family:sans-serif;letter-spacing:0px;word-spacing:0px;fill:#000000;fill-opacity:1;stroke:none"
         id="flowRoot9194">
        <path
           d="m 579.80735,244.55981 q 0,1.10933 -0.68267,1.92 -0.64,0.81067 -1.70666,0.81067 -1.10934,0 -1.792,-0.81067 -0.68267,-0.81067 -0.68267,-1.92 0,-1.10933 0.68267,-1.96267 0.68266,-0.85333 1.792,-0.85333 1.06666,0 1.70666,0.85333 0.68267,0.85334 0.68267,1.96267 z m -11.17867,0.46933 q 0,-6.656 2.26134,-10.19733 2.304,-3.584 6.44266,-3.584 4.18134,0 6.44267,3.584 2.26133,3.54133 2.26133,10.19733 0,6.656 -2.26133,10.24 -2.26133,3.54134 -6.44267,3.54134 -4.13866,0 -6.44266,-3.54134 -2.26134,-3.584 -2.26134,-10.24 z m 13.824,0 q 0,-2.176 -0.256,-4.096 -0.256,-1.96266 -0.85333,-3.41333 -0.59733,-1.45067 -1.57867,-2.304 -0.98133,-0.85333 -2.432,-0.85333 -1.45066,0 -2.432,0.85333 -0.98133,0.85333 -1.57866,2.304 -0.59734,1.45067 -0.85334,3.41333 -0.256,1.92 -0.256,4.096 0,2.176 0.256,4.13867 0.256,1.92 0.85334,3.37067 0.59733,1.45066 1.57866,2.304 0.98134,0.85333 2.432,0.85333 1.45067,0 2.432,-0.85333 0.98134,-0.85334 1.57867,-2.304 0.59733,-1.45067 0.85333,-3.37067 0.256,-1.96267 0.256,-4.13867 z"
           style="font-style:normal;font-variant:normal;font-weight:normal;font-stretch:normal;font-size:42.66666794px;line-height:53.33333588px;font-family:'Ubuntu Mono';-inkscape-font-specification:'Ubuntu Mono'"
           id="path7557" />
      </g>
      <g
         aria-label="1"
         transform="matrix(0.26304088,-0.02764671,0.02764671,0.26304088,95.174476,-53.423186)"
         style="font-style:normal;font-weight:normal;font-size:42.66666794px;line-height:1.25;font-family:sans-serif;letter-spacing:0px;word-spacing:0px;fill:#000000;fill-opacity:1;stroke:none"
         id="flowRoot9498">
        <path
           d="m 569.86602,237.30648 q 2.176,-0.85334 4.224,-2.13334 2.048,-1.32266 3.79733,-3.328 h 2.47467 v 23.424 h 4.992 v 2.98667 h -14.208 v -2.98667 h 5.71733 v -18.51733 q -0.46933,0.42667 -1.152,0.896 -0.64,0.42667 -1.45067,0.85333 -0.768,0.42667 -1.62133,0.81067 -0.85333,0.384 -1.664,0.64 z"
           style="font-style:normal;font-variant:normal;font-weight:normal;font-stretch:normal;font-size:42.66666794px;line-height:53.33333588px;font-family:'Ubuntu Mono';-inkscape-font-specification:'Ubuntu Mono'"
           id="path7554" />
      </g>
      <g
         aria-label="2"
         transform="matrix(0.25871004,-0.05499052,0.05499052,0.25871004,87.729389,-57.066108)"
         style="font-style:normal;font-weight:normal;font-size:42.66666794px;line-height:1.25;font-family:sans-serif;letter-spacing:0px;word-spacing:0px;fill:#000000;fill-opacity:1;stroke:none"
         id="flowRoot9506">
        <path
           d="m 584.58602,238.58648 q 0,1.36533 -0.55467,2.64533 -0.512,1.28 -1.408,2.51733 -0.85333,1.23734 -1.96267,2.432 -1.10933,1.19467 -2.26133,2.34667 -0.64,0.64 -1.49333,1.536 -0.85334,0.896 -1.62134,1.83467 -0.768,0.93866 -1.28,1.83466 -0.512,0.896 -0.512,1.536 h 12.16 v 2.98667 h -16 q -0.0427,-0.21333 -0.0427,-0.42667 0,-0.256 0,-0.46933 0,-1.792 0.59733,-3.328 0.59733,-1.536 1.536,-2.90133 0.93867,-1.36534 2.09067,-2.56 1.19466,-1.23734 2.34666,-2.38934 0.93867,-0.93866 1.792,-1.83466 0.896,-0.896 1.536,-1.792 0.68267,-0.896 1.06667,-1.83467 0.42667,-0.98133 0.42667,-2.00533 0,-1.152 -0.384,-1.96267 -0.34134,-0.81067 -0.98134,-1.32267 -0.59733,-0.55466 -1.408,-0.81066 -0.81066,-0.256 -1.74933,-0.256 -1.10933,0 -2.048,0.29866 -0.896,0.29867 -1.62133,0.72534 -0.68267,0.42666 -1.19467,0.85333 -0.512,0.384 -0.768,0.64 l -1.74933,-2.47467 q 0.34133,-0.384 1.024,-0.93866 0.68266,-0.55467 1.62133,-1.024 0.98133,-0.512 2.176,-0.85334 1.19467,-0.34133 2.56,-0.34133 4.13867,0 6.10133,1.92 2.00534,1.87733 2.00534,5.41867 z"
           style="font-style:normal;font-variant:normal;font-weight:normal;font-stretch:normal;font-size:42.66666794px;line-height:53.33333588px;font-family:'Ubuntu Mono';-inkscape-font-specification:'Ubuntu Mono'"
           id="path7551" />
      </g>
      <g
         aria-label="3"
         transform="matrix(0.25154472,-0.08173184,0.08173184,0.25154472,79.944303,-59.910852)"
         style="font-style:normal;font-weight:normal;font-size:42.66666794px;line-height:1.25;font-family:sans-serif;letter-spacing:0px;word-spacing:0px;fill:#000000;fill-opacity:1;stroke:none"
         id="flowRoot9514">
        <path
           d="m 575.71135,255.69581 q 3.37067,0 4.77867,-1.32267 1.45066,-1.36533 1.45066,-3.62666 0,-1.45067 -0.59733,-2.432 -0.59733,-0.98134 -1.57867,-1.57867 -0.98133,-0.59733 -2.26133,-0.85333 -1.28,-0.256 -2.688,-0.256 h -0.896 v -2.85867 h 1.23733 q 0.93867,0 1.92,-0.17067 1.024,-0.21333 1.83467,-0.68266 0.85333,-0.512 1.36533,-1.36534 0.512,-0.85333 0.512,-2.176 0,-2.176 -1.36533,-3.072 -1.32267,-0.93866 -3.11467,-0.93866 -1.83466,0 -3.11466,0.55466 -1.28,0.512 -2.13334,1.06667 l -1.36533,-2.688 q 0.896,-0.64 2.688,-1.32267 1.83467,-0.72533 4.05333,-0.72533 2.09067,0 3.584,0.512 1.49334,0.512 2.432,1.45067 0.98134,0.93866 1.45067,2.21866 0.46933,1.23734 0.46933,2.73067 0,2.09067 -1.10933,3.54133 -1.06667,1.45067 -2.77333,2.21867 2.048,0.59733 3.54133,2.34667 1.49333,1.70666 1.49333,4.56533 0,1.70667 -0.59733,3.2 -0.55467,1.45067 -1.74933,2.51733 -1.152,1.06667 -3.02934,1.664 -1.83466,0.59734 -4.39466,0.59734 -0.98134,0 -2.048,-0.17067 -1.024,-0.128 -1.92,-0.384 -0.896,-0.21333 -1.62134,-0.42667 -0.68266,-0.256 -0.98133,-0.384 l 0.68267,-3.02933 q 0.68266,0.34133 2.176,0.81067 1.49333,0.46933 3.66933,0.46933 z"
           style="font-style:normal;font-variant:normal;font-weight:normal;font-stretch:normal;font-size:42.66666794px;line-height:53.33333588px;font-family:'Ubuntu Mono';-inkscape-font-specification:'Ubuntu Mono'"
           id="path7548" />
      </g>
      <g
         aria-label="9"
         transform="matrix(0.26304088,0.02764671,-0.02764671,0.26304088,108.72298,-43.910771)"
         style="font-style:normal;font-weight:normal;font-size:42.66666794px;line-height:1.25;font-family:sans-serif;letter-spacing:0px;word-spacing:0px;fill:#000000;fill-opacity:1;stroke:none"
         id="flowRoot9522">
        <path
           d="m 585.73802,242.42648 q 0,7.89333 -3.84,11.904 -3.84,3.968 -11.56267,4.01066 l -0.128,-2.98666 q 4.77867,0 7.68,-1.87734 2.944,-1.92 3.88267,-6.57066 -1.024,0.46933 -2.26134,0.768 -1.23733,0.256 -2.60266,0.256 -2.26134,0 -3.79734,-0.64 -1.536,-0.68267 -2.47466,-1.792 -0.93867,-1.152 -1.36534,-2.60267 -0.42666,-1.45067 -0.42666,-3.072 0,-1.45067 0.46933,-2.944 0.46933,-1.536 1.45067,-2.77333 0.98133,-1.23734 2.51733,-2.048 1.536,-0.81067 3.66933,-0.81067 4.352,0 6.57067,2.98667 2.21867,2.98666 2.21867,8.192 z m -8.448,2.60266 q 1.36533,0 2.51733,-0.256 1.19467,-0.256 2.304,-0.72533 0.0427,-0.42667 0.0427,-0.81067 0,-0.384 0,-0.81066 0,-1.664 -0.256,-3.15734 -0.21334,-1.49333 -0.81067,-2.60266 -0.55467,-1.10934 -1.57867,-1.74934 -0.98133,-0.68266 -2.51733,-0.68266 -1.28,0 -2.13333,0.55466 -0.85334,0.512 -1.408,1.32267 -0.55467,0.768 -0.81067,1.74933 -0.21333,0.98134 -0.21333,1.87734 0,2.60266 1.152,3.968 1.19466,1.32266 3.712,1.32266 z"
           style="font-style:normal;font-variant:normal;font-weight:normal;font-stretch:normal;font-size:42.66666794px;line-height:53.33333588px;font-family:'Ubuntu Mono';-inkscape-font-specification:'Ubuntu Mono'"
           id="path7545" />
      </g>
      <g
         aria-label="8"
         transform="matrix(0.25871004,0.05499052,-0.05499052,0.25871004,114.67796,-38.14549)"
         style="font-style:normal;font-weight:normal;font-size:42.66666794px;line-height:1.25;font-family:sans-serif;letter-spacing:0px;word-spacing:0px;fill:#000000;fill-opacity:1;stroke:none"
         id="flowRoot9530">
        <path
           d="m 585.82335,251.38648 q 0,3.328 -2.13333,5.376 -2.09067,2.048 -6.4,2.048 -2.47467,0 -4.096,-0.64 -1.62134,-0.68267 -2.60267,-1.70667 -0.93867,-1.06667 -1.36533,-2.34667 -0.384,-1.28 -0.384,-2.51733 0,-2.26133 1.23733,-4.01067 1.23733,-1.74933 2.944,-2.816 -3.62667,-2.048 -3.62667,-6.272 0,-1.45066 0.55467,-2.77333 0.55467,-1.32267 1.57867,-2.304 1.024,-0.98133 2.47466,-1.57867 1.49334,-0.59733 3.328,-0.59733 2.13334,0 3.62667,0.64 1.536,0.64 2.47467,1.664 0.93866,0.98133 1.36533,2.21867 0.42667,1.19466 0.42667,2.34666 0,2.26134 -1.152,3.92534 -1.152,1.62133 -2.64534,2.60266 4.39467,2.09067 4.39467,6.74134 z m -13.568,0.256 q 0,0.68266 0.256,1.45066 0.256,0.72534 0.85333,1.36534 0.59734,0.64 1.57867,1.06666 0.98133,0.384 2.38933,0.384 1.32267,0 2.26134,-0.34133 0.98133,-0.384 1.57866,-0.98133 0.64,-0.64 0.93867,-1.408 0.29867,-0.768 0.29867,-1.536 0,-2.432 -1.74934,-3.712 -1.74933,-1.32267 -4.82133,-2.00534 -1.70667,0.93867 -2.64533,2.34667 -0.93867,1.408 -0.93867,3.37067 z m 9.55733,-13.52534 q 0,-0.55466 -0.256,-1.23733 -0.256,-0.72533 -0.81066,-1.28 -0.512,-0.59733 -1.36534,-0.98133 -0.85333,-0.42667 -2.048,-0.42667 -1.23733,0 -2.09066,0.384 -0.81067,0.384 -1.36534,0.98133 -0.55466,0.55467 -0.81066,1.28 -0.21334,0.68267 -0.21334,1.36534 0,1.74933 1.23734,3.28533 1.28,1.49333 4.18133,2.176 1.62133,-0.93867 2.56,-2.21867 0.98133,-1.28 0.98133,-3.328 z"
           style="font-style:normal;font-variant:normal;font-weight:normal;font-stretch:normal;font-size:42.66666794px;line-height:53.33333588px;font-family:'Ubuntu Mono';-inkscape-font-specification:'Ubuntu Mono'"
           id="path7542" />
      </g>
      <g
         aria-label="7"
         transform="matrix(0.25154472,0.08173184,-0.08173184,0.25154472,119.99768,-31.789328)"
         style="font-style:normal;font-weight:normal;font-size:42.66666794px;line-height:1.25;font-family:sans-serif;letter-spacing:0px;word-spacing:0px;fill:#000000;fill-opacity:1;stroke:none"
         id="flowRoot9538">
        <path
           d="m 573.27935,258.25581 q 0.21333,-3.02933 1.06667,-6.4 0.896,-3.41333 2.13333,-6.57067 1.23733,-3.2 2.73067,-5.888 1.49333,-2.73066 2.944,-4.48 h -12.8 v -3.072 h 16.72533 v 2.944 q -1.28,1.49334 -2.77333,4.01067 -1.49334,2.51733 -2.85867,5.67467 -1.32267,3.11466 -2.304,6.69866 -0.98133,3.54134 -1.23733,7.08267 z"
           style="font-style:normal;font-variant:normal;font-weight:normal;font-stretch:normal;font-size:42.66666794px;line-height:53.33333588px;font-family:'Ubuntu Mono';-inkscape-font-specification:'Ubuntu Mono'"
           id="path7539" />
      </g>
      <g
         aria-label="4"
         transform="matrix(0.24162343,-0.10757769,0.10757769,0.24162343,71.904506,-61.926249)"
         style="font-style:normal;font-weight:normal;font-size:42.66666794px;line-height:1.25;font-family:sans-serif;letter-spacing:0px;word-spacing:0px;fill:#000000;fill-opacity:1;stroke:none"
         id="flowRoot10798">
        <path
           d="m 568.20202,249.12514 q 0.72533,-1.70666 1.96266,-3.92533 1.28,-2.21867 2.85867,-4.56533 1.57867,-2.38934 3.37067,-4.65067 1.792,-2.304 3.62666,-4.13867 h 3.41334 v 16.768 h 3.11466 v 2.90134 h -3.11466 v 6.74133 h -3.41334 v -6.74133 h -11.81866 z m 11.81866,-13.09866 q -1.152,1.23733 -2.34666,2.73066 -1.152,1.49334 -2.26134,3.15734 -1.10933,1.62133 -2.09066,3.328 -0.93867,1.70666 -1.70667,3.37066 h 8.40533 z"
           style="font-style:normal;font-variant:normal;font-weight:normal;font-stretch:normal;font-size:42.66666794px;line-height:53.33333588px;font-family:'Ubuntu Mono';-inkscape-font-specification:'Ubuntu Mono'"
           id="path7536" />
      </g>
      <g
         aria-label="5"
         transform="matrix(0.22905487,-0.1322449,0.1322449,0.22905487,63.698079,-63.090217)"
         style="font-style:normal;font-weight:normal;font-size:42.66666794px;line-height:1.25;font-family:sans-serif;letter-spacing:0px;word-spacing:0px;fill:#000000;fill-opacity:1;stroke:none"
         id="flowRoot10806">
        <path
           d="m 574.60202,242.04248 q 5.71733,0.21333 8.32,2.51733 2.60266,2.304 2.60266,6.18667 0,1.74933 -0.55466,3.24266 -0.55467,1.49334 -1.74934,2.56 -1.152,1.06667 -2.98666,1.664 -1.792,0.59734 -4.26667,0.59734 -1.024,0 -2.048,-0.17067 -0.98133,-0.128 -1.87733,-0.34133 -0.896,-0.21334 -1.57867,-0.42667 -0.68267,-0.256 -0.98133,-0.42667 l 0.68266,-3.02933 q 0.68267,0.34133 2.09067,0.81067 1.45067,0.46933 3.62667,0.46933 1.70666,0 2.85866,-0.384 1.152,-0.384 1.83467,-1.024 0.72533,-0.68267 1.024,-1.536 0.34133,-0.85333 0.34133,-1.792 0,-1.45067 -0.512,-2.56 -0.46933,-1.152 -1.70666,-1.92 -1.19467,-0.768 -3.328,-1.152 -2.09067,-0.42667 -5.29067,-0.42667 0.256,-1.87733 0.384,-3.49866 0.17067,-1.664 0.256,-3.2 0.128,-1.57867 0.17067,-3.11467 0.0853,-1.536 0.17066,-3.24267 h 12.71467 v 2.98667 h -9.64267 q -0.0427,0.59733 -0.128,1.57867 -0.0427,0.93866 -0.128,2.00533 -0.0853,1.06667 -0.17066,2.048 -0.0853,0.98133 -0.128,1.57867 z"
           style="font-style:normal;font-variant:normal;font-weight:normal;font-stretch:normal;font-size:42.66666794px;line-height:53.33333588px;font-family:'Ubuntu Mono';-inkscape-font-specification:'Ubuntu Mono'"
           id="path7533" />
      </g>
      <g
         aria-label="6"
         transform="matrix(0.21397672,-0.1554632,0.1554632,0.21397672,55.414948,-63.390001)"
         style="font-style:normal;font-weight:normal;font-size:42.66666794px;line-height:1.25;font-family:sans-serif;letter-spacing:0px;word-spacing:0px;fill:#000000;fill-opacity:1;stroke:none"
         id="flowRoot10814">
        <path
           d="m 568.97002,247.67448 q 0,-3.84 1.024,-6.784 1.06666,-2.98667 2.98666,-4.992 1.96267,-2.00534 4.736,-3.072 2.77334,-1.06667 6.272,-1.10934 l 0.29867,2.98667 q -2.26133,0.0427 -4.13867,0.512 -1.83466,0.42667 -3.28533,1.45067 -1.45067,0.98133 -2.432,2.56 -0.98133,1.57866 -1.49333,3.88266 1.024,-0.46933 2.21866,-0.768 1.23734,-0.29866 2.60267,-0.29866 2.21867,0 3.75467,0.68266 1.57866,0.68267 2.51733,1.83467 0.93867,1.10933 1.36533,2.60267 0.42667,1.49333 0.42667,3.072 0,1.45066 -0.46933,2.98666 -0.46934,1.49334 -1.45067,2.77334 -0.98133,1.23733 -2.51733,2.048 -1.536,0.768 -3.66934,0.768 -4.39466,0 -6.57066,-2.944 -2.176,-2.944 -2.176,-8.192 z m 8.40533,-2.73067 q -1.36533,0 -2.51733,0.256 -1.10934,0.256 -2.26134,0.768 -0.0427,0.42667 -0.0427,0.85333 0,0.384 0,0.85334 0,1.664 0.21333,3.15733 0.256,1.45067 0.81067,2.60267 0.59733,1.10933 1.57866,1.792 0.98134,0.64 2.51734,0.64 1.28,0 2.13333,-0.512 0.85333,-0.55467 1.408,-1.36534 0.55467,-0.81066 0.768,-1.792 0.256,-1.024 0.256,-1.92 0,-2.60266 -1.19467,-3.968 -1.152,-1.36533 -3.66933,-1.36533 z"
           style="font-style:normal;font-variant:normal;font-weight:normal;font-stretch:normal;font-size:42.66666794px;line-height:53.33333588px;font-family:'Ubuntu Mono';-inkscape-font-specification:'Ubuntu Mono'"
           id="path7530" />
      </g>
      <g
         aria-label="7"
         transform="matrix(0.1965542,-0.17697821,0.17697821,0.1965542,47.145854,-62.822322)"
         style="font-style:normal;font-weight:normal;font-size:42.66666794px;line-height:1.25;font-family:sans-serif;letter-spacing:0px;word-spacing:0px;fill:#000000;fill-opacity:1;stroke:none"
         id="flowRoot10822">
        <path
           d="m 573.27935,258.25581 q 0.21333,-3.02933 1.06667,-6.4 0.896,-3.41333 2.13333,-6.57067 1.23733,-3.2 2.73067,-5.888 1.49333,-2.73066 2.944,-4.48 h -12.8 v -3.072 h 16.72533 v 2.944 q -1.28,1.49334 -2.77333,4.01067 -1.49334,2.51733 -2.85867,5.67467 -1.32267,3.11466 -2.304,6.69866 -0.98133,3.54134 -1.23733,7.08267 z"
           style="font-style:normal;font-variant:normal;font-weight:normal;font-stretch:normal;font-size:42.66666794px;line-height:53.33333588px;font-family:'Ubuntu Mono';-inkscape-font-specification:'Ubuntu Mono'"
           id="path7527" />
      </g>
      <g
         aria-label="8"
         transform="matrix(0.1769782,-0.19655421,0.19655421,0.1769782,38.981396,-61.393398)"
         style="font-style:normal;font-weight:normal;font-size:42.66666794px;line-height:1.25;font-family:sans-serif;letter-spacing:0px;word-spacing:0px;fill:#000000;fill-opacity:1;stroke:none"
         id="flowRoot10830">
        <path
           d="m 585.82335,251.38648 q 0,3.328 -2.13333,5.376 -2.09067,2.048 -6.4,2.048 -2.47467,0 -4.096,-0.64 -1.62134,-0.68267 -2.60267,-1.70667 -0.93867,-1.06667 -1.36533,-2.34667 -0.384,-1.28 -0.384,-2.51733 0,-2.26133 1.23733,-4.01067 1.23733,-1.74933 2.944,-2.816 -3.62667,-2.048 -3.62667,-6.272 0,-1.45066 0.55467,-2.77333 0.55467,-1.32267 1.57867,-2.304 1.024,-0.98133 2.47466,-1.57867 1.49334,-0.59733 3.328,-0.59733 2.13334,0 3.62667,0.64 1.536,0.64 2.47467,1.664 0.93866,0.98133 1.36533,2.21867 0.42667,1.19466 0.42667,2.34666 0,2.26134 -1.152,3.92534 -1.152,1.62133 -2.64534,2.60266 4.39467,2.09067 4.39467,6.74134 z m -13.568,0.256 q 0,0.68266 0.256,1.45066 0.256,0.72534 0.85333,1.36534 0.59734,0.64 1.57867,1.06666 0.98133,0.384 2.38933,0.384 1.32267,0 2.26134,-0.34133 0.98133,-0.384 1.57866,-0.98133 0.64,-0.64 0.93867,-1.408 0.29867,-0.768 0.29867,-1.536 0,-2.432 -1.74934,-3.712 -1.74933,-1.32267 -4.82133,-2.00534 -1.70667,0.93867 -2.64533,2.34667 -0.93867,1.408 -0.93867,3.37067 z m 9.55733,-13.52534 q 0,-0.55466 -0.256,-1.23733 -0.256,-0.72533 -0.81066,-1.28 -0.512,-0.59733 -1.36534,-0.98133 -0.85333,-0.42667 -2.048,-0.42667 -1.23733,0 -2.09066,0.384 -0.81067,0.384 -1.36534,0.98133 -0.55466,0.55467 -0.81066,1.28 -0.21334,0.68267 -0.21334,1.36534 0,1.74933 1.23734,3.28533 1.28,1.49333 4.18133,2.176 1.62133,-0.93867 2.56,-2.21867 0.98133,-1.28 0.98133,-3.328 z"
           style="font-style:normal;font-variant:normal;font-weight:normal;font-stretch:normal;font-size:42.66666794px;line-height:53.33333588px;font-family:'Ubuntu Mono';-inkscape-font-specification:'Ubuntu Mono'"
           id="path7524" />
      </g>
      <g
         aria-label="9"
         transform="matrix(0.15546319,-0.21397673,0.21397673,0.15546319,31.011029,-59.118882)"
         style="font-style:normal;font-weight:normal;font-size:42.66666794px;line-height:1.25;font-family:sans-serif;letter-spacing:0px;word-spacing:0px;fill:#000000;fill-opacity:1;stroke:none"
         id="flowRoot10838">
        <path
           d="m 585.73802,242.42648 q 0,7.89333 -3.84,11.904 -3.84,3.968 -11.56267,4.01066 l -0.128,-2.98666 q 4.77867,0 7.68,-1.87734 2.944,-1.92 3.88267,-6.57066 -1.024,0.46933 -2.26134,0.768 -1.23733,0.256 -2.60266,0.256 -2.26134,0 -3.79734,-0.64 -1.536,-0.68267 -2.47466,-1.792 -0.93867,-1.152 -1.36534,-2.60267 -0.42666,-1.45067 -0.42666,-3.072 0,-1.45067 0.46933,-2.944 0.46933,-1.536 1.45067,-2.77333 0.98133,-1.23734 2.51733,-2.048 1.536,-0.81067 3.66933,-0.81067 4.352,0 6.57067,2.98667 2.21867,2.98666 2.21867,8.192 z m -8.448,2.60266 q 1.36533,0 2.51733,-0.256 1.19467,-0.256 2.304,-0.72533 0.0427,-0.42667 0.0427,-0.81067 0,-0.384 0,-0.81066 0,-1.664 -0.256,-3.15734 -0.21334,-1.49333 -0.81067,-2.60266 -0.55467,-1.10934 -1.57867,-1.74934 -0.98133,-0.68266 -2.51733,-0.68266 -1.28,0 -2.13333,0.55466 -0.85334,0.512 -1.408,1.32267 -0.55467,0.768 -0.81067,1.74933 -0.21333,0.98134 -0.21333,1.87734 0,2.60266 1.152,3.968 1.19466,1.32266 3.712,1.32266 z"
           style="font-style:normal;font-variant:normal;font-weight:normal;font-stretch:normal;font-size:42.66666794px;line-height:53.33333588px;font-family:'Ubuntu Mono';-inkscape-font-specification:'Ubuntu Mono'"
           id="path7521" />
      </g>
      <g
         aria-label="0"
         transform="matrix(0.13224489,-0.22905487,0.22905487,0.13224489,23.322069,-56.023697)"
         style="font-style:normal;font-weight:normal;font-size:42.66666794px;line-height:1.25;font-family:sans-serif;letter-spacing:0px;word-spacing:0px;fill:#000000;fill-opacity:1;stroke:none"
         id="flowRoot10846">
        <path
           d="m 579.80735,244.55981 q 0,1.10933 -0.68267,1.92 -0.64,0.81067 -1.70666,0.81067 -1.10934,0 -1.792,-0.81067 -0.68267,-0.81067 -0.68267,-1.92 0,-1.10933 0.68267,-1.96267 0.68266,-0.85333 1.792,-0.85333 1.06666,0 1.70666,0.85333 0.68267,0.85334 0.68267,1.96267 z m -11.17867,0.46933 q 0,-6.656 2.26134,-10.19733 2.304,-3.584 6.44266,-3.584 4.18134,0 6.44267,3.584 2.26133,3.54133 2.26133,10.19733 0,6.656 -2.26133,10.24 -2.26133,3.54134 -6.44267,3.54134 -4.13866,0 -6.44266,-3.54134 -2.26134,-3.584 -2.26134,-10.24 z m 13.824,0 q 0,-2.176 -0.256,-4.096 -0.256,-1.96266 -0.85333,-3.41333 -0.59733,-1.45067 -1.57867,-2.304 -0.98133,-0.85333 -2.432,-0.85333 -1.45066,0 -2.432,0.85333 -0.98133,0.85333 -1.57866,2.304 -0.59734,1.45067 -0.85334,3.41333 -0.256,1.92 -0.256,4.096 0,2.176 0.256,4.13867 0.256,1.92 0.85334,3.37067 0.59733,1.45066 1.57866,2.304 0.98134,0.85333 2.432,0.85333 1.45067,0 2.432,-0.85333 0.98134,-0.85334 1.57867,-2.304 0.59733,-1.45067 0.85333,-3.37067 0.256,-1.96267 0.256,-4.13867 z"
           style="font-style:normal;font-variant:normal;font-weight:normal;font-stretch:normal;font-size:42.66666794px;line-height:53.33333588px;font-family:'Ubuntu Mono';-inkscape-font-specification:'Ubuntu Mono'"
           id="path7518" />
      </g>
      <g
         aria-label="1"
         transform="matrix(0.10757768,-0.24162343,0.24162343,0.10757768,15.998779,-52.14175)"
         style="font-style:normal;font-weight:normal;font-size:42.66666794px;line-height:1.25;font-family:sans-serif;letter-spacing:0px;word-spacing:0px;fill:#000000;fill-opacity:1;stroke:none"
         id="flowRoot10854">
        <path
           d="m 569.86602,237.30648 q 2.176,-0.85334 4.224,-2.13334 2.048,-1.32266 3.79733,-3.328 h 2.47467 v 23.424 h 4.992 v 2.98667 h -14.208 v -2.98667 h 5.71733 v -18.51733 q -0.46933,0.42667 -1.152,0.896 -0.64,0.42667 -1.45067,0.85333 -0.768,0.42667 -1.62133,0.81067 -0.85333,0.384 -1.664,0.64 z"
           style="font-style:normal;font-variant:normal;font-weight:normal;font-stretch:normal;font-size:42.66666794px;line-height:53.33333588px;font-family:'Ubuntu Mono';-inkscape-font-specification:'Ubuntu Mono'"
           id="path7515" />
      </g>
      <g
         aria-label="2"
         transform="matrix(0.08173183,-0.25154472,0.25154472,0.08173183,9.1213709,-47.515576)"
         style="font-style:normal;font-weight:normal;font-size:42.66666794px;line-height:1.25;font-family:sans-serif;letter-spacing:0px;word-spacing:0px;fill:#000000;fill-opacity:1;stroke:none"
         id="flowRoot10862">
        <path
           d="m 584.58602,238.58648 q 0,1.36533 -0.55467,2.64533 -0.512,1.28 -1.408,2.51733 -0.85333,1.23734 -1.96267,2.432 -1.10933,1.19467 -2.26133,2.34667 -0.64,0.64 -1.49333,1.536 -0.85334,0.896 -1.62134,1.83467 -0.768,0.93866 -1.28,1.83466 -0.512,0.896 -0.512,1.536 h 12.16 v 2.98667 h -16 q -0.0427,-0.21333 -0.0427,-0.42667 0,-0.256 0,-0.46933 0,-1.792 0.59733,-3.328 0.59733,-1.536 1.536,-2.90133 0.93867,-1.36534 2.09067,-2.56 1.19466,-1.23734 2.34666,-2.38934 0.93867,-0.93866 1.792,-1.83466 0.896,-0.896 1.536,-1.792 0.68267,-0.896 1.06667,-1.83467 0.42667,-0.98133 0.42667,-2.00533 0,-1.152 -0.384,-1.96267 -0.34134,-0.81067 -0.98134,-1.32267 -0.59733,-0.55466 -1.408,-0.81066 -0.81066,-0.256 -1.74933,-0.256 -1.10933,0 -2.048,0.29866 -0.896,0.29867 -1.62133,0.72534 -0.68267,0.42666 -1.19467,0.85333 -0.512,0.384 -0.768,0.64 l -1.74933,-2.47467 q 0.34133,-0.384 1.024,-0.93866 0.68266,-0.55467 1.62133,-1.024 0.98133,-0.512 2.176,-0.85334 1.19467,-0.34133 2.56,-0.34133 4.13867,0 6.10133,1.92 2.00534,1.87733 2.00534,5.41867 z"
           style="font-style:normal;font-variant:normal;font-weight:normal;font-stretch:normal;font-size:42.66666794px;line-height:53.33333588px;font-family:'Ubuntu Mono';-inkscape-font-specification:'Ubuntu Mono'"
           id="path7512" />
      </g>
      <g
         aria-label="3"
         transform="matrix(0.05499051,-0.25871004,0.25871004,0.05499051,2.765209,-42.195857)"
         style="font-style:normal;font-weight:normal;font-size:42.66666794px;line-height:1.25;font-family:sans-serif;letter-spacing:0px;word-spacing:0px;fill:#000000;fill-opacity:1;stroke:none"
         id="flowRoot10870">
        <path
           d="m 575.71135,255.69581 q 3.37067,0 4.77867,-1.32267 1.45066,-1.36533 1.45066,-3.62666 0,-1.45067 -0.59733,-2.432 -0.59733,-0.98134 -1.57867,-1.57867 -0.98133,-0.59733 -2.26133,-0.85333 -1.28,-0.256 -2.688,-0.256 h -0.896 v -2.85867 h 1.23733 q 0.93867,0 1.92,-0.17067 1.024,-0.21333 1.83467,-0.68266 0.85333,-0.512 1.36533,-1.36534 0.512,-0.85333 0.512,-2.176 0,-2.176 -1.36533,-3.072 -1.32267,-0.93866 -3.11467,-0.93866 -1.83466,0 -3.11466,0.55466 -1.28,0.512 -2.13334,1.06667 l -1.36533,-2.688 q 0.896,-0.64 2.688,-1.32267 1.83467,-0.72533 4.05333,-0.72533 2.09067,0 3.584,0.512 1.49334,0.512 2.432,1.45067 0.98134,0.93866 1.45067,2.21866 0.46933,1.23734 0.46933,2.73067 0,2.09067 -1.10933,3.54133 -1.06667,1.45067 -2.77333,2.21867 2.048,0.59733 3.54133,2.34667 1.49333,1.70666 1.49333,4.56533 0,1.70667 -0.59733,3.2 -0.55467,1.45067 -1.74933,2.51733 -1.152,1.06667 -3.02934,1.664 -1.83466,0.59734 -4.39466,0.59734 -0.98134,0 -2.048,-0.17067 -1.024,-0.128 -1.92,-0.384 -0.896,-0.21333 -1.62134,-0.42667 -0.68266,-0.256 -0.98133,-0.384 l 0.68267,-3.02933 q 0.68266,0.34133 2.176,0.81067 1.49333,0.46933 3.66933,0.46933 z"
           style="font-style:normal;font-variant:normal;font-weight:normal;font-stretch:normal;font-size:42.66666794px;line-height:53.33333588px;font-family:'Ubuntu Mono';-inkscape-font-specification:'Ubuntu Mono'"
           id="path7509" />
      </g>
      <g
         aria-label="4"
         transform="matrix(0.0276467,-0.26304087,0.26304087,0.0276467,-3.000072,-36.240883)"
         style="font-style:normal;font-weight:normal;font-size:42.66666794px;line-height:1.25;font-family:sans-serif;letter-spacing:0px;word-spacing:0px;fill:#000000;fill-opacity:1;stroke:none"
         id="flowRoot10878">
        <path
           d="m 568.20202,249.12514 q 0.72533,-1.70666 1.96266,-3.92533 1.28,-2.21867 2.85867,-4.56533 1.57867,-2.38934 3.37067,-4.65067 1.792,-2.304 3.62666,-4.13867 h 3.41334 v 16.768 h 3.11466 v 2.90134 h -3.11466 v 6.74133 h -3.41334 v -6.74133 h -11.81866 z m 11.81866,-13.09866 q -1.152,1.23733 -2.34666,2.73066 -1.152,1.49334 -2.26134,3.15734 -1.10933,1.62133 -2.09066,3.328 -0.93867,1.70666 -1.70667,3.37066 h 8.40533 z"
           style="font-style:normal;font-variant:normal;font-weight:normal;font-stretch:normal;font-size:42.66666794px;line-height:53.33333588px;font-family:'Ubuntu Mono';-inkscape-font-specification:'Ubuntu Mono'"
           id="path7506" />
      </g>
      <g
         aria-label="5"
         transform="matrix(0,-0.26448977,0.26448977,0,-8.1113143,-29.715891)"
         style="font-style:normal;font-weight:normal;font-size:42.66666794px;line-height:1.25;font-family:sans-serif;letter-spacing:0px;word-spacing:0px;fill:#000000;fill-opacity:1;stroke:none"
         id="flowRoot10886">
        <path
           d="m 574.60202,242.04248 q 5.71733,0.21333 8.32,2.51733 2.60266,2.304 2.60266,6.18667 0,1.74933 -0.55466,3.24266 -0.55467,1.49334 -1.74934,2.56 -1.152,1.06667 -2.98666,1.664 -1.792,0.59734 -4.26667,0.59734 -1.024,0 -2.048,-0.17067 -0.98133,-0.128 -1.87733,-0.34133 -0.896,-0.21334 -1.57867,-0.42667 -0.68267,-0.256 -0.98133,-0.42667 l 0.68266,-3.02933 q 0.68267,0.34133 2.09067,0.81067 1.45067,0.46933 3.62667,0.46933 1.70666,0 2.85866,-0.384 1.152,-0.384 1.83467,-1.024 0.72533,-0.68267 1.024,-1.536 0.34133,-0.85333 0.34133,-1.792 0,-1.45067 -0.512,-2.56 -0.46933,-1.152 -1.70666,-1.92 -1.19467,-0.768 -3.328,-1.152 -2.09067,-0.42667 -5.29067,-0.42667 0.256,-1.87733 0.384,-3.49866 0.17067,-1.664 0.256,-3.2 0.128,-1.57867 0.17067,-3.11467 0.0853,-1.536 0.17066,-3.24267 h 12.71467 v 2.98667 h -9.64267 q -0.0427,0.59733 -0.128,1.57867 -0.0427,0.93866 -0.128,2.00533 -0.0853,1.06667 -0.17066,2.048 -0.0853,0.98133 -0.128,1.57867 z"
           style="font-style:normal;font-variant:normal;font-weight:normal;font-stretch:normal;font-size:42.66666794px;line-height:53.33333588px;font-family:'Ubuntu Mono';-inkscape-font-specification:'Ubuntu Mono'"
           id="path7503" />
      </g>
      <g
         aria-label="6"
         transform="matrix(-0.02764671,-0.26304086,0.26304086,-0.02764671,-12.512498,-22.692375)"
         style="font-style:normal;font-weight:normal;font-size:42.66666794px;line-height:1.25;font-family:sans-serif;letter-spacing:0px;word-spacing:0px;fill:#000000;fill-opacity:1;stroke:none"
         id="flowRoot10894">
        <path
           d="m 568.97002,247.67448 q 0,-3.84 1.024,-6.784 1.06666,-2.98667 2.98666,-4.992 1.96267,-2.00534 4.736,-3.072 2.77334,-1.06667 6.272,-1.10934 l 0.29867,2.98667 q -2.26133,0.0427 -4.13867,0.512 -1.83466,0.42667 -3.28533,1.45067 -1.45067,0.98133 -2.432,2.56 -0.98133,1.57866 -1.49333,3.88266 1.024,-0.46933 2.21866,-0.768 1.23734,-0.29866 2.60267,-0.29866 2.21867,0 3.75467,0.68266 1.57866,0.68267 2.51733,1.83467 0.93867,1.10933 1.36533,2.60267 0.42667,1.49333 0.42667,3.072 0,1.45066 -0.46933,2.98666 -0.46934,1.49334 -1.45067,2.77334 -0.98133,1.23733 -2.51733,2.048 -1.536,0.768 -3.66934,0.768 -4.39466,0 -6.57066,-2.944 -2.176,-2.944 -2.176,-8.192 z m 8.40533,-2.73067 q -1.36533,0 -2.51733,0.256 -1.10934,0.256 -2.26134,0.768 -0.0427,0.42667 -0.0427,0.85333 0,0.384 0,0.85334 0,1.664 0.21333,3.15733 0.256,1.45067 0.81067,2.60267 0.59733,1.10933 1.57866,1.792 0.98134,0.64 2.51734,0.64 1.28,0 2.13333,-0.512 0.85333,-0.55467 1.408,-1.36534 0.55467,-0.81066 0.768,-1.792 0.256,-1.024 0.256,-1.92 0,-2.60266 -1.19467,-3.968 -1.152,-1.36533 -3.66933,-1.36533 z"
           style="font-style:normal;font-variant:normal;font-weight:normal;font-stretch:normal;font-size:42.66666794px;line-height:53.33333588px;font-family:'Ubuntu Mono';-inkscape-font-specification:'Ubuntu Mono'"
           id="path7500" />
      </g>
      <g
         aria-label="7"
         transform="matrix(-0.05499052,-0.25871002,0.25871002,-0.05499052,-16.155419,-15.247288)"
         style="font-style:normal;font-weight:normal;font-size:42.66666794px;line-height:1.25;font-family:sans-serif;letter-spacing:0px;word-spacing:0px;fill:#000000;fill-opacity:1;stroke:none"
         id="flowRoot10902">
        <path
           d="m 573.27935,258.25581 q 0.21333,-3.02933 1.06667,-6.4 0.896,-3.41333 2.13333,-6.57067 1.23733,-3.2 2.73067,-5.888 1.49333,-2.73066 2.944,-4.48 h -12.8 v -3.072 h 16.72533 v 2.944 q -1.28,1.49334 -2.77333,4.01067 -1.49334,2.51733 -2.85867,5.67467 -1.32267,3.11466 -2.304,6.69866 -0.98133,3.54134 -1.23733,7.08267 z"
           style="font-style:normal;font-variant:normal;font-weight:normal;font-stretch:normal;font-size:42.66666794px;line-height:53.33333588px;font-family:'Ubuntu Mono';-inkscape-font-specification:'Ubuntu Mono'"
           id="path7497" />
      </g>
      <g
         aria-label="8"
         transform="matrix(-0.08173183,-0.2515447,0.2515447,-0.08173183,-19.000163,-7.4622017)"
         style="font-style:normal;font-weight:normal;font-size:42.66666794px;line-height:1.25;font-family:sans-serif;letter-spacing:0px;word-spacing:0px;fill:#000000;fill-opacity:1;stroke:none"
         id="flowRoot10910">
        <path
           d="m 585.82335,251.38648 q 0,3.328 -2.13333,5.376 -2.09067,2.048 -6.4,2.048 -2.47467,0 -4.096,-0.64 -1.62134,-0.68267 -2.60267,-1.70667 -0.93867,-1.06667 -1.36533,-2.34667 -0.384,-1.28 -0.384,-2.51733 0,-2.26133 1.23733,-4.01067 1.23733,-1.74933 2.944,-2.816 -3.62667,-2.048 -3.62667,-6.272 0,-1.45066 0.55467,-2.77333 0.55467,-1.32267 1.57867,-2.304 1.024,-0.98133 2.47466,-1.57867 1.49334,-0.59733 3.328,-0.59733 2.13334,0 3.62667,0.64 1.536,0.64 2.47467,1.664 0.93866,0.98133 1.36533,2.21867 0.42667,1.19466 0.42667,2.34666 0,2.26134 -1.152,3.92534 -1.152,1.62133 -2.64534,2.60266 4.39467,2.09067 4.39467,6.74134 z m -13.568,0.256 q 0,0.68266 0.256,1.45066 0.256,0.72534 0.85333,1.36534 0.59734,0.64 1.57867,1.06666 0.98133,0.384 2.38933,0.384 1.32267,0 2.26134,-0.34133 0.98133,-0.384 1.57866,-0.98133 0.64,-0.64 0.93867,-1.408 0.29867,-0.768 0.29867,-1.536 0,-2.432 -1.74934,-3.712 -1.74933,-1.32267 -4.82133,-2.00534 -1.70667,0.93867 -2.64533,2.34667 -0.93867,1.408 -0.93867,3.37067 z m 9.55733,-13.52534 q 0,-0.55466 -0.256,-1.23733 -0.256,-0.72533 -0.81066,-1.28 -0.512,-0.59733 -1.36534,-0.98133 -0.85333,-0.42667 -2.048,-0.42667 -1.23733,0 -2.09066,0.384 -0.81067,0.384 -1.36534,0.98133 -0.55466,0.55467 -0.81066,1.28 -0.21334,0.68267 -0.21334,1.36534 0,1.74933 1.23734,3.28533 1.28,1.49333 4.18133,2.176 1.62133,-0.93867 2.56,-2.21867 0.98133,-1.28 0.98133,-3.328 z"
           style="font-style:normal;font-variant:normal;font-weight:normal;font-stretch:normal;font-size:42.66666794px;line-height:53.33333588px;font-family:'Ubuntu Mono';-inkscape-font-specification:'Ubuntu Mono'"
           id="path7494" />
      </g>
      <g
         aria-label="9"
         transform="matrix(-0.10757768,-0.24162341,0.24162341,-0.10757768,-21.01555,0.57759481)"
         style="font-style:normal;font-weight:normal;font-size:42.66666794px;line-height:1.25;font-family:sans-serif;letter-spacing:0px;word-spacing:0px;fill:#000000;fill-opacity:1;stroke:none"
         id="flowRoot10918">
        <path
           d="m 585.73802,242.42648 q 0,7.89333 -3.84,11.904 -3.84,3.968 -11.56267,4.01066 l -0.128,-2.98666 q 4.77867,0 7.68,-1.87734 2.944,-1.92 3.88267,-6.57066 -1.024,0.46933 -2.26134,0.768 -1.23733,0.256 -2.60266,0.256 -2.26134,0 -3.79734,-0.64 -1.536,-0.68267 -2.47466,-1.792 -0.93867,-1.152 -1.36534,-2.60267 -0.42666,-1.45067 -0.42666,-3.072 0,-1.45067 0.46933,-2.944 0.46933,-1.536 1.45067,-2.77333 0.98133,-1.23734 2.51733,-2.048 1.536,-0.81067 3.66933,-0.81067 4.352,0 6.57067,2.98667 2.21867,2.98666 2.21867,8.192 z m -8.448,2.60266 q 1.36533,0 2.51733,-0.256 1.19467,-0.256 2.304,-0.72533 0.0427,-0.42667 0.0427,-0.81067 0,-0.384 0,-0.81066 0,-1.664 -0.256,-3.15734 -0.21334,-1.49333 -0.81067,-2.60266 -0.55467,-1.10934 -1.57867,-1.74934 -0.98133,-0.68266 -2.51733,-0.68266 -1.28,0 -2.13333,0.55466 -0.85334,0.512 -1.408,1.32267 -0.55467,0.768 -0.81067,1.74933 -0.21333,0.98134 -0.21333,1.87734 0,2.60266 1.152,3.968 1.19466,1.32266 3.712,1.32266 z"
           style="font-style:normal;font-variant:normal;font-weight:normal;font-stretch:normal;font-size:42.66666794px;line-height:53.33333588px;font-family:'Ubuntu Mono';-inkscape-font-specification:'Ubuntu Mono'"
           id="path7491" />
      </g>
      <g
         aria-label="0"
         transform="matrix(-0.13224489,-0.22905485,0.22905485,-0.13224489,-22.179519,8.7840224)"
         style="font-style:normal;font-weight:normal;font-size:42.66666794px;line-height:1.25;font-family:sans-serif;letter-spacing:0px;word-spacing:0px;fill:#000000;fill-opacity:1;stroke:none"
         id="flowRoot10926">
        <path
           d="m 579.80735,244.55981 q 0,1.10933 -0.68267,1.92 -0.64,0.81067 -1.70666,0.81067 -1.10934,0 -1.792,-0.81067 -0.68267,-0.81067 -0.68267,-1.92 0,-1.10933 0.68267,-1.96267 0.68266,-0.85333 1.792,-0.85333 1.06666,0 1.70666,0.85333 0.68267,0.85334 0.68267,1.96267 z m -11.17867,0.46933 q 0,-6.656 2.26134,-10.19733 2.304,-3.584 6.44266,-3.584 4.18134,0 6.44267,3.584 2.26133,3.54133 2.26133,10.19733 0,6.656 -2.26133,10.24 -2.26133,3.54134 -6.44267,3.54134 -4.13866,0 -6.44266,-3.54134 -2.26134,-3.584 -2.26134,-10.24 z m 13.824,0 q 0,-2.176 -0.256,-4.096 -0.256,-1.96266 -0.85333,-3.41333 -0.59733,-1.45067 -1.57867,-2.304 -0.98133,-0.85333 -2.432,-0.85333 -1.45066,0 -2.432,0.85333 -0.98133,0.85333 -1.57866,2.304 -0.59734,1.45067 -0.85334,3.41333 -0.256,1.92 -0.256,4.096 0,2.176 0.256,4.13867 0.256,1.92 0.85334,3.37067 0.59733,1.45066 1.57866,2.304 0.98134,0.85333 2.432,0.85333 1.45067,0 2.432,-0.85333 0.98134,-0.85334 1.57867,-2.304 0.59733,-1.45067 0.85333,-3.37067 0.256,-1.96267 0.256,-4.13867 z"
           style="font-style:normal;font-variant:normal;font-weight:normal;font-stretch:normal;font-size:42.66666794px;line-height:53.33333588px;font-family:'Ubuntu Mono';-inkscape-font-specification:'Ubuntu Mono'"
           id="path7488" />
      </g>
      <g
         aria-label="1"
         transform="matrix(-0.15546319,-0.21397671,0.21397671,-0.15546319,-22.479303,17.067153)"
         style="font-style:normal;font-weight:normal;font-size:42.66666794px;line-height:1.25;font-family:sans-serif;letter-spacing:0px;word-spacing:0px;fill:#000000;fill-opacity:1;stroke:none"
         id="flowRoot10934">
        <path
           d="m 569.86602,237.30648 q 2.176,-0.85334 4.224,-2.13334 2.048,-1.32266 3.79733,-3.328 h 2.47467 v 23.424 h 4.992 v 2.98667 h -14.208 v -2.98667 h 5.71733 v -18.51733 q -0.46933,0.42667 -1.152,0.896 -0.64,0.42667 -1.45067,0.85333 -0.768,0.42667 -1.62133,0.81067 -0.85333,0.384 -1.664,0.64 z"
           style="font-style:normal;font-variant:normal;font-weight:normal;font-stretch:normal;font-size:42.66666794px;line-height:53.33333588px;font-family:'Ubuntu Mono';-inkscape-font-specification:'Ubuntu Mono'"
           id="path7485" />
      </g>
      <g
         aria-label="2"
         transform="matrix(-0.1769782,-0.19655419,0.19655419,-0.1769782,-21.911623,25.336248)"
         style="font-style:normal;font-weight:normal;font-size:42.66666794px;line-height:1.25;font-family:sans-serif;letter-spacing:0px;word-spacing:0px;fill:#000000;fill-opacity:1;stroke:none"
         id="flowRoot10942">
        <path
           d="m 584.58602,238.58648 q 0,1.36533 -0.55467,2.64533 -0.512,1.28 -1.408,2.51733 -0.85333,1.23734 -1.96267,2.432 -1.10933,1.19467 -2.26133,2.34667 -0.64,0.64 -1.49333,1.536 -0.85334,0.896 -1.62134,1.83467 -0.768,0.93866 -1.28,1.83466 -0.512,0.896 -0.512,1.536 h 12.16 v 2.98667 h -16 q -0.0427,-0.21333 -0.0427,-0.42667 0,-0.256 0,-0.46933 0,-1.792 0.59733,-3.328 0.59733,-1.536 1.536,-2.90133 0.93867,-1.36534 2.09067,-2.56 1.19466,-1.23734 2.34666,-2.38934 0.93867,-0.93866 1.792,-1.83466 0.896,-0.896 1.536,-1.792 0.68267,-0.896 1.06667,-1.83467 0.42667,-0.98133 0.42667,-2.00533 0,-1.152 -0.384,-1.96267 -0.34134,-0.81067 -0.98134,-1.32267 -0.59733,-0.55466 -1.408,-0.81066 -0.81066,-0.256 -1.74933,-0.256 -1.10933,0 -2.048,0.29866 -0.896,0.29867 -1.62133,0.72534 -0.68267,0.42666 -1.19467,0.85333 -0.512,0.384 -0.768,0.64 l -1.74933,-2.47467 q 0.34133,-0.384 1.024,-0.93866 0.68266,-0.55467 1.62133,-1.024 0.98133,-0.512 2.176,-0.85334 1.19467,-0.34133 2.56,-0.34133 4.13867,0 6.10133,1.92 2.00534,1.87733 2.00534,5.41867 z"
           style="font-style:normal;font-variant:normal;font-weight:normal;font-stretch:normal;font-size:42.66666794px;line-height:53.33333588px;font-family:'Ubuntu Mono';-inkscape-font-specification:'Ubuntu Mono'"
           id="path7482" />
      </g>
      <g
         aria-label="3"
         transform="matrix(-0.1965542,-0.17697819,0.17697819,-0.1965542,-20.482689,33.500701)"
         style="font-style:normal;font-weight:normal;font-size:42.66666794px;line-height:1.25;font-family:sans-serif;letter-spacing:0px;word-spacing:0px;fill:#000000;fill-opacity:1;stroke:none"
         id="flowRoot10950">
        <path
           d="m 575.71135,255.69581 q 3.37067,0 4.77867,-1.32267 1.45066,-1.36533 1.45066,-3.62666 0,-1.45067 -0.59733,-2.432 -0.59733,-0.98134 -1.57867,-1.57867 -0.98133,-0.59733 -2.26133,-0.85333 -1.28,-0.256 -2.688,-0.256 h -0.896 v -2.85867 h 1.23733 q 0.93867,0 1.92,-0.17067 1.024,-0.21333 1.83467,-0.68266 0.85333,-0.512 1.36533,-1.36534 0.512,-0.85333 0.512,-2.176 0,-2.176 -1.36533,-3.072 -1.32267,-0.93866 -3.11467,-0.93866 -1.83466,0 -3.11466,0.55466 -1.28,0.512 -2.13334,1.06667 l -1.36533,-2.688 q 0.896,-0.64 2.688,-1.32267 1.83467,-0.72533 4.05333,-0.72533 2.09067,0 3.584,0.512 1.49334,0.512 2.432,1.45067 0.98134,0.93866 1.45067,2.21866 0.46933,1.23734 0.46933,2.73067 0,2.09067 -1.10933,3.54133 -1.06667,1.45067 -2.77333,2.21867 2.048,0.59733 3.54133,2.34667 1.49333,1.70666 1.49333,4.56533 0,1.70667 -0.59733,3.2 -0.55467,1.45067 -1.74933,2.51733 -1.152,1.06667 -3.02934,1.664 -1.83466,0.59734 -4.39466,0.59734 -0.98134,0 -2.048,-0.17067 -1.024,-0.128 -1.92,-0.384 -0.896,-0.21333 -1.62134,-0.42667 -0.68266,-0.256 -0.98133,-0.384 l 0.68267,-3.02933 q 0.68266,0.34133 2.176,0.81067 1.49333,0.46933 3.66933,0.46933 z"
           style="font-style:normal;font-variant:normal;font-weight:normal;font-stretch:normal;font-size:42.66666794px;line-height:53.33333588px;font-family:'Ubuntu Mono';-inkscape-font-specification:'Ubuntu Mono'"
           id="path7479" />
      </g>
      <g
         aria-label="4"
         transform="matrix(-0.21397672,-0.15546318,0.15546318,-0.21397672,-18.208173,41.471072)"
         style="font-style:normal;font-weight:normal;font-size:42.66666794px;line-height:1.25;font-family:sans-serif;letter-spacing:0px;word-spacing:0px;fill:#000000;fill-opacity:1;stroke:none"
         id="flowRoot10958">
        <path
           d="m 568.20202,249.12514 q 0.72533,-1.70666 1.96266,-3.92533 1.28,-2.21867 2.85867,-4.56533 1.57867,-2.38934 3.37067,-4.65067 1.792,-2.304 3.62666,-4.13867 h 3.41334 v 16.768 h 3.11466 v 2.90134 h -3.11466 v 6.74133 h -3.41334 v -6.74133 h -11.81866 z m 11.81866,-13.09866 q -1.152,1.23733 -2.34666,2.73066 -1.152,1.49334 -2.26134,3.15734 -1.10933,1.62133 -2.09066,3.328 -0.93867,1.70666 -1.70667,3.37066 h 8.40533 z"
           style="font-style:normal;font-variant:normal;font-weight:normal;font-stretch:normal;font-size:42.66666794px;line-height:53.33333588px;font-family:'Ubuntu Mono';-inkscape-font-specification:'Ubuntu Mono'"
           id="path7476" />
      </g>
      <g
         aria-label="5"
         transform="matrix(-0.22905486,-0.13224488,0.13224488,-0.22905486,-15.112988,49.160022)"
         style="font-style:normal;font-weight:normal;font-size:42.66666794px;line-height:1.25;font-family:sans-serif;letter-spacing:0px;word-spacing:0px;fill:#000000;fill-opacity:1;stroke:none"
         id="flowRoot10966">
        <path
           d="m 574.60202,242.04248 q 5.71733,0.21333 8.32,2.51733 2.60266,2.304 2.60266,6.18667 0,1.74933 -0.55466,3.24266 -0.55467,1.49334 -1.74934,2.56 -1.152,1.06667 -2.98666,1.664 -1.792,0.59734 -4.26667,0.59734 -1.024,0 -2.048,-0.17067 -0.98133,-0.128 -1.87733,-0.34133 -0.896,-0.21334 -1.57867,-0.42667 -0.68267,-0.256 -0.98133,-0.42667 l 0.68266,-3.02933 q 0.68267,0.34133 2.09067,0.81067 1.45067,0.46933 3.62667,0.46933 1.70666,0 2.85866,-0.384 1.152,-0.384 1.83467,-1.024 0.72533,-0.68267 1.024,-1.536 0.34133,-0.85333 0.34133,-1.792 0,-1.45067 -0.512,-2.56 -0.46933,-1.152 -1.70666,-1.92 -1.19467,-0.768 -3.328,-1.152 -2.09067,-0.42667 -5.29067,-0.42667 0.256,-1.87733 0.384,-3.49866 0.17067,-1.664 0.256,-3.2 0.128,-1.57867 0.17067,-3.11467 0.0853,-1.536 0.17066,-3.24267 h 12.71467 v 2.98667 h -9.64267 q -0.0427,0.59733 -0.128,1.57867 -0.0427,0.93866 -0.128,2.00533 -0.0853,1.06667 -0.17066,2.048 -0.0853,0.98133 -0.128,1.57867 z"
           style="font-style:normal;font-variant:normal;font-weight:normal;font-stretch:normal;font-size:42.66666794px;line-height:53.33333588px;font-family:'Ubuntu Mono';-inkscape-font-specification:'Ubuntu Mono'"
           id="path7473" />
      </g>
      <g
         aria-label="6"
         transform="matrix(-0.24162342,-0.10757767,0.10757767,-0.24162342,-11.231041,56.483322)"
         style="font-style:normal;font-weight:normal;font-size:42.66666794px;line-height:1.25;font-family:sans-serif;letter-spacing:0px;word-spacing:0px;fill:#000000;fill-opacity:1;stroke:none"
         id="flowRoot10974">
        <path
           d="m 568.97002,247.67448 q 0,-3.84 1.024,-6.784 1.06666,-2.98667 2.98666,-4.992 1.96267,-2.00534 4.736,-3.072 2.77334,-1.06667 6.272,-1.10934 l 0.29867,2.98667 q -2.26133,0.0427 -4.13867,0.512 -1.83466,0.42667 -3.28533,1.45067 -1.45067,0.98133 -2.432,2.56 -0.98133,1.57866 -1.49333,3.88266 1.024,-0.46933 2.21866,-0.768 1.23734,-0.29866 2.60267,-0.29866 2.21867,0 3.75467,0.68266 1.57866,0.68267 2.51733,1.83467 0.93867,1.10933 1.36533,2.60267 0.42667,1.49333 0.42667,3.072 0,1.45066 -0.46933,2.98666 -0.46934,1.49334 -1.45067,2.77334 -0.98133,1.23733 -2.51733,2.048 -1.536,0.768 -3.66934,0.768 -4.39466,0 -6.57066,-2.944 -2.176,-2.944 -2.176,-8.192 z m 8.40533,-2.73067 q -1.36533,0 -2.51733,0.256 -1.10934,0.256 -2.26134,0.768 -0.0427,0.42667 -0.0427,0.85333 0,0.384 0,0.85334 0,1.664 0.21333,3.15733 0.256,1.45067 0.81067,2.60267 0.59733,1.10933 1.57866,1.792 0.98134,0.64 2.51734,0.64 1.28,0 2.13333,-0.512 0.85333,-0.55467 1.408,-1.36534 0.55467,-0.81066 0.768,-1.792 0.256,-1.024 0.256,-1.92 0,-2.60266 -1.19467,-3.968 -1.152,-1.36533 -3.66933,-1.36533 z"
           style="font-style:normal;font-variant:normal;font-weight:normal;font-stretch:normal;font-size:42.66666794px;line-height:53.33333588px;font-family:'Ubuntu Mono';-inkscape-font-specification:'Ubuntu Mono'"
           id="path7470" />
      </g>
      <g
         aria-label="7"
         transform="matrix(-0.25154471,-0.08173182,0.08173182,-0.25154471,-6.6048571,63.36073)"
         style="font-style:normal;font-weight:normal;font-size:42.66666794px;line-height:1.25;font-family:sans-serif;letter-spacing:0px;word-spacing:0px;fill:#000000;fill-opacity:1;stroke:none"
         id="flowRoot10982">
        <path
           d="m 573.27935,258.25581 q 0.21333,-3.02933 1.06667,-6.4 0.896,-3.41333 2.13333,-6.57067 1.23733,-3.2 2.73067,-5.888 1.49333,-2.73066 2.944,-4.48 h -12.8 v -3.072 h 16.72533 v 2.944 q -1.28,1.49334 -2.77333,4.01067 -1.49334,2.51733 -2.85867,5.67467 -1.32267,3.11466 -2.304,6.69866 -0.98133,3.54134 -1.23733,7.08267 z"
           style="font-style:normal;font-variant:normal;font-weight:normal;font-stretch:normal;font-size:42.66666794px;line-height:53.33333588px;font-family:'Ubuntu Mono';-inkscape-font-specification:'Ubuntu Mono'"
           id="path7467" />
      </g>
      <g
         aria-label="8"
         transform="matrix(-0.25871003,-0.0549905,0.0549905,-0.25871003,-1.2851385,69.716892)"
         style="font-style:normal;font-weight:normal;font-size:42.66666794px;line-height:1.25;font-family:sans-serif;letter-spacing:0px;word-spacing:0px;fill:#000000;fill-opacity:1;stroke:none"
         id="flowRoot10990">
        <path
           d="m 585.82335,251.38648 q 0,3.328 -2.13333,5.376 -2.09067,2.048 -6.4,2.048 -2.47467,0 -4.096,-0.64 -1.62134,-0.68267 -2.60267,-1.70667 -0.93867,-1.06667 -1.36533,-2.34667 -0.384,-1.28 -0.384,-2.51733 0,-2.26133 1.23733,-4.01067 1.23733,-1.74933 2.944,-2.816 -3.62667,-2.048 -3.62667,-6.272 0,-1.45066 0.55467,-2.77333 0.55467,-1.32267 1.57867,-2.304 1.024,-0.98133 2.47466,-1.57867 1.49334,-0.59733 3.328,-0.59733 2.13334,0 3.62667,0.64 1.536,0.64 2.47467,1.664 0.93866,0.98133 1.36533,2.21867 0.42667,1.19466 0.42667,2.34666 0,2.26134 -1.152,3.92534 -1.152,1.62133 -2.64534,2.60266 4.39467,2.09067 4.39467,6.74134 z m -13.568,0.256 q 0,0.68266 0.256,1.45066 0.256,0.72534 0.85333,1.36534 0.59734,0.64 1.57867,1.06666 0.98133,0.384 2.38933,0.384 1.32267,0 2.26134,-0.34133 0.98133,-0.384 1.57866,-0.98133 0.64,-0.64 0.93867,-1.408 0.29867,-0.768 0.29867,-1.536 0,-2.432 -1.74934,-3.712 -1.74933,-1.32267 -4.82133,-2.00534 -1.70667,0.93867 -2.64533,2.34667 -0.93867,1.408 -0.93867,3.37067 z m 9.55733,-13.52534 q 0,-0.55466 -0.256,-1.23733 -0.256,-0.72533 -0.81066,-1.28 -0.512,-0.59733 -1.36534,-0.98133 -0.85333,-0.42667 -2.048,-0.42667 -1.23733,0 -2.09066,0.384 -0.81067,0.384 -1.36534,0.98133 -0.55466,0.55467 -0.81066,1.28 -0.21334,0.68267 -0.21334,1.36534 0,1.74933 1.23734,3.28533 1.28,1.49333 4.18133,2.176 1.62133,-0.93867 2.56,-2.21867 0.98133,-1.28 0.98133,-3.328 z"
           style="font-style:normal;font-variant:normal;font-weight:normal;font-stretch:normal;font-size:42.66666794px;line-height:53.33333588px;font-family:'Ubuntu Mono';-inkscape-font-specification:'Ubuntu Mono'"
           id="path7464" />
      </g>
      <g
         aria-label="9"
         transform="matrix(-0.26304086,-0.02764669,0.02764669,-0.26304086,4.6698353,75.482173)"
         style="font-style:normal;font-weight:normal;font-size:42.66666794px;line-height:1.25;font-family:sans-serif;letter-spacing:0px;word-spacing:0px;fill:#000000;fill-opacity:1;stroke:none"
         id="flowRoot10998">
        <path
           d="m 585.73802,242.42648 q 0,7.89333 -3.84,11.904 -3.84,3.968 -11.56267,4.01066 l -0.128,-2.98666 q 4.77867,0 7.68,-1.87734 2.944,-1.92 3.88267,-6.57066 -1.024,0.46933 -2.26134,0.768 -1.23733,0.256 -2.60266,0.256 -2.26134,0 -3.79734,-0.64 -1.536,-0.68267 -2.47466,-1.792 -0.93867,-1.152 -1.36534,-2.60267 -0.42666,-1.45067 -0.42666,-3.072 0,-1.45067 0.46933,-2.944 0.46933,-1.536 1.45067,-2.77333 0.98133,-1.23734 2.51733,-2.048 1.536,-0.81067 3.66933,-0.81067 4.352,0 6.57067,2.98667 2.21867,2.98666 2.21867,8.192 z m -8.448,2.60266 q 1.36533,0 2.51733,-0.256 1.19467,-0.256 2.304,-0.72533 0.0427,-0.42667 0.0427,-0.81067 0,-0.384 0,-0.81066 0,-1.664 -0.256,-3.15734 -0.21334,-1.49333 -0.81067,-2.60266 -0.55467,-1.10934 -1.57867,-1.74934 -0.98133,-0.68266 -2.51733,-0.68266 -1.28,0 -2.13333,0.55466 -0.85334,0.512 -1.408,1.32267 -0.55467,0.768 -0.81067,1.74933 -0.21333,0.98134 -0.21333,1.87734 0,2.60266 1.152,3.968 1.19466,1.32266 3.712,1.32266 z"
           style="font-style:normal;font-variant:normal;font-weight:normal;font-stretch:normal;font-size:42.66666794px;line-height:53.33333588px;font-family:'Ubuntu Mono';-inkscape-font-specification:'Ubuntu Mono'"
           id="path7461" />
      </g>
      <g
         aria-label="0"
         transform="matrix(-0.26448976,1.6186019e-8,-1.6186019e-8,-0.26448976,11.194818,80.593405)"
         style="font-style:normal;font-weight:normal;font-size:42.66666794px;line-height:1.25;font-family:sans-serif;letter-spacing:0px;word-spacing:0px;fill:#000000;fill-opacity:1;stroke:none"
         id="flowRoot11006">
        <path
           d="m 579.80735,244.55981 q 0,1.10933 -0.68267,1.92 -0.64,0.81067 -1.70666,0.81067 -1.10934,0 -1.792,-0.81067 -0.68267,-0.81067 -0.68267,-1.92 0,-1.10933 0.68267,-1.96267 0.68266,-0.85333 1.792,-0.85333 1.06666,0 1.70666,0.85333 0.68267,0.85334 0.68267,1.96267 z m -11.17867,0.46933 q 0,-6.656 2.26134,-10.19733 2.304,-3.584 6.44266,-3.584 4.18134,0 6.44267,3.584 2.26133,3.54133 2.26133,10.19733 0,6.656 -2.26133,10.24 -2.26133,3.54134 -6.44267,3.54134 -4.13866,0 -6.44266,-3.54134 -2.26134,-3.584 -2.26134,-10.24 z m 13.824,0 q 0,-2.176 -0.256,-4.096 -0.256,-1.96266 -0.85333,-3.41333 -0.59733,-1.45067 -1.57867,-2.304 -0.98133,-0.85333 -2.432,-0.85333 -1.45066,0 -2.432,0.85333 -0.98133,0.85333 -1.57866,2.304 -0.59734,1.45067 -0.85334,3.41333 -0.256,1.92 -0.256,4.096 0,2.176 0.256,4.13867 0.256,1.92 0.85334,3.37067 0.59733,1.45066 1.57866,2.304 0.98134,0.85333 2.432,0.85333 1.45067,0 2.432,-0.85333 0.98134,-0.85334 1.57867,-2.304 0.59733,-1.45067 0.85333,-3.37067 0.256,-1.96267 0.256,-4.13867 z"
           style="font-style:normal;font-variant:normal;font-weight:normal;font-stretch:normal;font-size:42.66666794px;line-height:53.33333588px;font-family:'Ubuntu Mono';-inkscape-font-specification:'Ubuntu Mono'"
           id="path7458" />
      </g>
      <g
         aria-label="1"
         transform="matrix(-0.26304085,0.02764672,-0.02764672,-0.26304085,18.218334,84.994589)"
         style="font-style:normal;font-weight:normal;font-size:42.66666794px;line-height:1.25;font-family:sans-serif;letter-spacing:0px;word-spacing:0px;fill:#000000;fill-opacity:1;stroke:none"
         id="flowRoot11014">
        <path
           d="m 569.86602,237.30648 q 2.176,-0.85334 4.224,-2.13334 2.048,-1.32266 3.79733,-3.328 h 2.47467 v 23.424 h 4.992 v 2.98667 h -14.208 v -2.98667 h 5.71733 v -18.51733 q -0.46933,0.42667 -1.152,0.896 -0.64,0.42667 -1.45067,0.85333 -0.768,0.42667 -1.62133,0.81067 -0.85333,0.384 -1.664,0.64 z"
           style="font-style:normal;font-variant:normal;font-weight:normal;font-stretch:normal;font-size:42.66666794px;line-height:53.33333588px;font-family:'Ubuntu Mono';-inkscape-font-specification:'Ubuntu Mono'"
           id="path7455" />
      </g>
      <g
         aria-label="2"
         transform="matrix(-0.25871001,0.05499052,-0.05499052,-0.25871001,25.66342,88.63751)"
         style="font-style:normal;font-weight:normal;font-size:42.66666794px;line-height:1.25;font-family:sans-serif;letter-spacing:0px;word-spacing:0px;fill:#000000;fill-opacity:1;stroke:none"
         id="flowRoot11022">
        <path
           d="m 584.58602,238.58648 q 0,1.36533 -0.55467,2.64533 -0.512,1.28 -1.408,2.51733 -0.85333,1.23734 -1.96267,2.432 -1.10933,1.19467 -2.26133,2.34667 -0.64,0.64 -1.49333,1.536 -0.85334,0.896 -1.62134,1.83467 -0.768,0.93866 -1.28,1.83466 -0.512,0.896 -0.512,1.536 h 12.16 v 2.98667 h -16 q -0.0427,-0.21333 -0.0427,-0.42667 0,-0.256 0,-0.46933 0,-1.792 0.59733,-3.328 0.59733,-1.536 1.536,-2.90133 0.93867,-1.36534 2.09067,-2.56 1.19466,-1.23734 2.34666,-2.38934 0.93867,-0.93866 1.792,-1.83466 0.896,-0.896 1.536,-1.792 0.68267,-0.896 1.06667,-1.83467 0.42667,-0.98133 0.42667,-2.00533 0,-1.152 -0.384,-1.96267 -0.34134,-0.81067 -0.98134,-1.32267 -0.59733,-0.55466 -1.408,-0.81066 -0.81066,-0.256 -1.74933,-0.256 -1.10933,0 -2.048,0.29866 -0.896,0.29867 -1.62133,0.72534 -0.68267,0.42666 -1.19467,0.85333 -0.512,0.384 -0.768,0.64 l -1.74933,-2.47467 q 0.34133,-0.384 1.024,-0.93866 0.68266,-0.55467 1.62133,-1.024 0.98133,-0.512 2.176,-0.85334 1.19467,-0.34133 2.56,-0.34133 4.13867,0 6.10133,1.92 2.00534,1.87733 2.00534,5.41867 z"
           style="font-style:normal;font-variant:normal;font-weight:normal;font-stretch:normal;font-size:42.66666794px;line-height:53.33333588px;font-family:'Ubuntu Mono';-inkscape-font-specification:'Ubuntu Mono'"
           id="path7452" />
      </g>
      <g
         aria-label="3"
         transform="matrix(-0.25154469,0.08173183,-0.08173183,-0.25154469,33.448517,91.482254)"
         style="font-style:normal;font-weight:normal;font-size:42.66666794px;line-height:1.25;font-family:sans-serif;letter-spacing:0px;word-spacing:0px;fill:#000000;fill-opacity:1;stroke:none"
         id="flowRoot11030">
        <path
           d="m 575.71135,255.69581 q 3.37067,0 4.77867,-1.32267 1.45066,-1.36533 1.45066,-3.62666 0,-1.45067 -0.59733,-2.432 -0.59733,-0.98134 -1.57867,-1.57867 -0.98133,-0.59733 -2.26133,-0.85333 -1.28,-0.256 -2.688,-0.256 h -0.896 v -2.85867 h 1.23733 q 0.93867,0 1.92,-0.17067 1.024,-0.21333 1.83467,-0.68266 0.85333,-0.512 1.36533,-1.36534 0.512,-0.85333 0.512,-2.176 0,-2.176 -1.36533,-3.072 -1.32267,-0.93866 -3.11467,-0.93866 -1.83466,0 -3.11466,0.55466 -1.28,0.512 -2.13334,1.06667 l -1.36533,-2.688 q 0.896,-0.64 2.688,-1.32267 1.83467,-0.72533 4.05333,-0.72533 2.09067,0 3.584,0.512 1.49334,0.512 2.432,1.45067 0.98134,0.93866 1.45067,2.21866 0.46933,1.23734 0.46933,2.73067 0,2.09067 -1.10933,3.54133 -1.06667,1.45067 -2.77333,2.21867 2.048,0.59733 3.54133,2.34667 1.49333,1.70666 1.49333,4.56533 0,1.70667 -0.59733,3.2 -0.55467,1.45067 -1.74933,2.51733 -1.152,1.06667 -3.02934,1.664 -1.83466,0.59734 -4.39466,0.59734 -0.98134,0 -2.048,-0.17067 -1.024,-0.128 -1.92,-0.384 -0.896,-0.21333 -1.62134,-0.42667 -0.68266,-0.256 -0.98133,-0.384 l 0.68267,-3.02933 q 0.68266,0.34133 2.176,0.81067 1.49333,0.46933 3.66933,0.46933 z"
           style="font-style:normal;font-variant:normal;font-weight:normal;font-stretch:normal;font-size:42.66666794px;line-height:53.33333588px;font-family:'Ubuntu Mono';-inkscape-font-specification:'Ubuntu Mono'"
           id="path7449" />
      </g>
      <g
         aria-label="4"
         transform="matrix(-0.2416234,0.10757768,-0.10757768,-0.2416234,41.488316,93.497651)"
         style="font-style:normal;font-weight:normal;font-size:42.66666794px;line-height:1.25;font-family:sans-serif;letter-spacing:0px;word-spacing:0px;fill:#000000;fill-opacity:1;stroke:none"
         id="flowRoot11038">
        <path
           d="m 568.20202,249.12514 q 0.72533,-1.70666 1.96266,-3.92533 1.28,-2.21867 2.85867,-4.56533 1.57867,-2.38934 3.37067,-4.65067 1.792,-2.304 3.62666,-4.13867 h 3.41334 v 16.768 h 3.11466 v 2.90134 h -3.11466 v 6.74133 h -3.41334 v -6.74133 h -11.81866 z m 11.81866,-13.09866 q -1.152,1.23733 -2.34666,2.73066 -1.152,1.49334 -2.26134,3.15734 -1.10933,1.62133 -2.09066,3.328 -0.93867,1.70666 -1.70667,3.37066 h 8.40533 z"
           style="font-style:normal;font-variant:normal;font-weight:normal;font-stretch:normal;font-size:42.66666794px;line-height:53.33333588px;font-family:'Ubuntu Mono';-inkscape-font-specification:'Ubuntu Mono'"
           id="path7446" />
      </g>
      <g
         aria-label="5"
         transform="matrix(-0.22905484,0.13224489,-0.13224489,-0.22905484,49.69474,94.66162)"
         style="font-style:normal;font-weight:normal;font-size:42.66666794px;line-height:1.25;font-family:sans-serif;letter-spacing:0px;word-spacing:0px;fill:#000000;fill-opacity:1;stroke:none"
         id="flowRoot11046">
        <path
           d="m 574.60202,242.04248 q 5.71733,0.21333 8.32,2.51733 2.60266,2.304 2.60266,6.18667 0,1.74933 -0.55466,3.24266 -0.55467,1.49334 -1.74934,2.56 -1.152,1.06667 -2.98666,1.664 -1.792,0.59734 -4.26667,0.59734 -1.024,0 -2.048,-0.17067 -0.98133,-0.128 -1.87733,-0.34133 -0.896,-0.21334 -1.57867,-0.42667 -0.68267,-0.256 -0.98133,-0.42667 l 0.68266,-3.02933 q 0.68267,0.34133 2.09067,0.81067 1.45067,0.46933 3.62667,0.46933 1.70666,0 2.85866,-0.384 1.152,-0.384 1.83467,-1.024 0.72533,-0.68267 1.024,-1.536 0.34133,-0.85333 0.34133,-1.792 0,-1.45067 -0.512,-2.56 -0.46933,-1.152 -1.70666,-1.92 -1.19467,-0.768 -3.328,-1.152 -2.09067,-0.42667 -5.29067,-0.42667 0.256,-1.87733 0.384,-3.49866 0.17067,-1.664 0.256,-3.2 0.128,-1.57867 0.17067,-3.11467 0.0853,-1.536 0.17066,-3.24267 h 12.71467 v 2.98667 h -9.64267 q -0.0427,0.59733 -0.128,1.57867 -0.0427,0.93866 -0.128,2.00533 -0.0853,1.06667 -0.17066,2.048 -0.0853,0.98133 -0.128,1.57867 z"
           style="font-style:normal;font-variant:normal;font-weight:normal;font-stretch:normal;font-size:42.66666794px;line-height:53.33333588px;font-family:'Ubuntu Mono';-inkscape-font-specification:'Ubuntu Mono'"
           id="path7443" />
      </g>
      <g
         aria-label="6"
         transform="matrix(-0.2139767,0.15546319,-0.15546319,-0.2139767,57.977872,94.961404)"
         style="font-style:normal;font-weight:normal;font-size:42.66666794px;line-height:1.25;font-family:sans-serif;letter-spacing:0px;word-spacing:0px;fill:#000000;fill-opacity:1;stroke:none"
         id="flowRoot11054">
        <path
           d="m 568.97002,247.67448 q 0,-3.84 1.024,-6.784 1.06666,-2.98667 2.98666,-4.992 1.96267,-2.00534 4.736,-3.072 2.77334,-1.06667 6.272,-1.10934 l 0.29867,2.98667 q -2.26133,0.0427 -4.13867,0.512 -1.83466,0.42667 -3.28533,1.45067 -1.45067,0.98133 -2.432,2.56 -0.98133,1.57866 -1.49333,3.88266 1.024,-0.46933 2.21866,-0.768 1.23734,-0.29866 2.60267,-0.29866 2.21867,0 3.75467,0.68266 1.57866,0.68267 2.51733,1.83467 0.93867,1.10933 1.36533,2.60267 0.42667,1.49333 0.42667,3.072 0,1.45066 -0.46933,2.98666 -0.46934,1.49334 -1.45067,2.77334 -0.98133,1.23733 -2.51733,2.048 -1.536,0.768 -3.66934,0.768 -4.39466,0 -6.57066,-2.944 -2.176,-2.944 -2.176,-8.192 z m 8.40533,-2.73067 q -1.36533,0 -2.51733,0.256 -1.10934,0.256 -2.26134,0.768 -0.0427,0.42667 -0.0427,0.85333 0,0.384 0,0.85334 0,1.664 0.21333,3.15733 0.256,1.45067 0.81067,2.60267 0.59733,1.10933 1.57866,1.792 0.98134,0.64 2.51734,0.64 1.28,0 2.13333,-0.512 0.85333,-0.55467 1.408,-1.36534 0.55467,-0.81066 0.768,-1.792 0.256,-1.024 0.256,-1.92 0,-2.60266 -1.19467,-3.968 -1.152,-1.36533 -3.66933,-1.36533 z"
           style="font-style:normal;font-variant:normal;font-weight:normal;font-stretch:normal;font-size:42.66666794px;line-height:53.33333588px;font-family:'Ubuntu Mono';-inkscape-font-specification:'Ubuntu Mono'"
           id="path7440" />
      </g>
      <g
         aria-label="7"
         transform="matrix(-0.19655418,0.1769782,-0.1769782,-0.19655418,66.246967,94.393724)"
         style="font-style:normal;font-weight:normal;font-size:42.66666794px;line-height:1.25;font-family:sans-serif;letter-spacing:0px;word-spacing:0px;fill:#000000;fill-opacity:1;stroke:none"
         id="flowRoot11062">
        <path
           d="m 573.27935,258.25581 q 0.21333,-3.02933 1.06667,-6.4 0.896,-3.41333 2.13333,-6.57067 1.23733,-3.2 2.73067,-5.888 1.49333,-2.73066 2.944,-4.48 h -12.8 v -3.072 h 16.72533 v 2.944 q -1.28,1.49334 -2.77333,4.01067 -1.49334,2.51733 -2.85867,5.67467 -1.32267,3.11466 -2.304,6.69866 -0.98133,3.54134 -1.23733,7.08267 z"
           style="font-style:normal;font-variant:normal;font-weight:normal;font-stretch:normal;font-size:42.66666794px;line-height:53.33333588px;font-family:'Ubuntu Mono';-inkscape-font-specification:'Ubuntu Mono'"
           id="path7437" />
      </g>
      <g
         aria-label="8"
         transform="matrix(-0.17697818,0.1965542,-0.1965542,-0.17697818,74.411429,92.9648)"
         style="font-style:normal;font-weight:normal;font-size:42.66666794px;line-height:1.25;font-family:sans-serif;letter-spacing:0px;word-spacing:0px;fill:#000000;fill-opacity:1;stroke:none"
         id="flowRoot11070">
        <path
           d="m 585.82335,251.38648 q 0,3.328 -2.13333,5.376 -2.09067,2.048 -6.4,2.048 -2.47467,0 -4.096,-0.64 -1.62134,-0.68267 -2.60267,-1.70667 -0.93867,-1.06667 -1.36533,-2.34667 -0.384,-1.28 -0.384,-2.51733 0,-2.26133 1.23733,-4.01067 1.23733,-1.74933 2.944,-2.816 -3.62667,-2.048 -3.62667,-6.272 0,-1.45066 0.55467,-2.77333 0.55467,-1.32267 1.57867,-2.304 1.024,-0.98133 2.47466,-1.57867 1.49334,-0.59733 3.328,-0.59733 2.13334,0 3.62667,0.64 1.536,0.64 2.47467,1.664 0.93866,0.98133 1.36533,2.21867 0.42667,1.19466 0.42667,2.34666 0,2.26134 -1.152,3.92534 -1.152,1.62133 -2.64534,2.60266 4.39467,2.09067 4.39467,6.74134 z m -13.568,0.256 q 0,0.68266 0.256,1.45066 0.256,0.72534 0.85333,1.36534 0.59734,0.64 1.57867,1.06666 0.98133,0.384 2.38933,0.384 1.32267,0 2.26134,-0.34133 0.98133,-0.384 1.57866,-0.98133 0.64,-0.64 0.93867,-1.408 0.29867,-0.768 0.29867,-1.536 0,-2.432 -1.74934,-3.712 -1.74933,-1.32267 -4.82133,-2.00534 -1.70667,0.93867 -2.64533,2.34667 -0.93867,1.408 -0.93867,3.37067 z m 9.55733,-13.52534 q 0,-0.55466 -0.256,-1.23733 -0.256,-0.72533 -0.81066,-1.28 -0.512,-0.59733 -1.36534,-0.98133 -0.85333,-0.42667 -2.048,-0.42667 -1.23733,0 -2.09066,0.384 -0.81067,0.384 -1.36534,0.98133 -0.55466,0.55467 -0.81066,1.28 -0.21334,0.68267 -0.21334,1.36534 0,1.74933 1.23734,3.28533 1.28,1.49333 4.18133,2.176 1.62133,-0.93867 2.56,-2.21867 0.98133,-1.28 0.98133,-3.328 z"
           style="font-style:normal;font-variant:normal;font-weight:normal;font-stretch:normal;font-size:42.66666794px;line-height:53.33333588px;font-family:'Ubuntu Mono';-inkscape-font-specification:'Ubuntu Mono'"
           id="path7434" />
      </g>
      <g
         aria-label="9"
         transform="matrix(-0.15546317,0.21397671,-0.21397671,-0.15546317,82.381801,90.690284)"
         style="font-style:normal;font-weight:normal;font-size:42.66666794px;line-height:1.25;font-family:sans-serif;letter-spacing:0px;word-spacing:0px;fill:#000000;fill-opacity:1;stroke:none"
         id="flowRoot11078">
        <path
           d="m 585.73802,242.42648 q 0,7.89333 -3.84,11.904 -3.84,3.968 -11.56267,4.01066 l -0.128,-2.98666 q 4.77867,0 7.68,-1.87734 2.944,-1.92 3.88267,-6.57066 -1.024,0.46933 -2.26134,0.768 -1.23733,0.256 -2.60266,0.256 -2.26134,0 -3.79734,-0.64 -1.536,-0.68267 -2.47466,-1.792 -0.93867,-1.152 -1.36534,-2.60267 -0.42666,-1.45067 -0.42666,-3.072 0,-1.45067 0.46933,-2.944 0.46933,-1.536 1.45067,-2.77333 0.98133,-1.23734 2.51733,-2.048 1.536,-0.81067 3.66933,-0.81067 4.352,0 6.57067,2.98667 2.21867,2.98666 2.21867,8.192 z m -8.448,2.60266 q 1.36533,0 2.51733,-0.256 1.19467,-0.256 2.304,-0.72533 0.0427,-0.42667 0.0427,-0.81067 0,-0.384 0,-0.81066 0,-1.664 -0.256,-3.15734 -0.21334,-1.49333 -0.81067,-2.60266 -0.55467,-1.10934 -1.57867,-1.74934 -0.98133,-0.68266 -2.51733,-0.68266 -1.28,0 -2.13333,0.55466 -0.85334,0.512 -1.408,1.32267 -0.55467,0.768 -0.81067,1.74933 -0.21333,0.98134 -0.21333,1.87734 0,2.60266 1.152,3.968 1.19466,1.32266 3.712,1.32266 z"
           style="font-style:normal;font-variant:normal;font-weight:normal;font-stretch:normal;font-size:42.66666794px;line-height:53.33333588px;font-family:'Ubuntu Mono';-inkscape-font-specification:'Ubuntu Mono'"
           id="path7431" />
      </g>
      <g
         aria-label="0"
         transform="matrix(-0.13224487,0.22905485,-0.22905485,-0.13224487,90.070761,87.595099)"
         style="font-style:normal;font-weight:normal;font-size:42.66666794px;line-height:1.25;font-family:sans-serif;letter-spacing:0px;word-spacing:0px;fill:#000000;fill-opacity:1;stroke:none"
         id="flowRoot11086">
        <path
           d="m 579.80735,244.55981 q 0,1.10933 -0.68267,1.92 -0.64,0.81067 -1.70666,0.81067 -1.10934,0 -1.792,-0.81067 -0.68267,-0.81067 -0.68267,-1.92 0,-1.10933 0.68267,-1.96267 0.68266,-0.85333 1.792,-0.85333 1.06666,0 1.70666,0.85333 0.68267,0.85334 0.68267,1.96267 z m -11.17867,0.46933 q 0,-6.656 2.26134,-10.19733 2.304,-3.584 6.44266,-3.584 4.18134,0 6.44267,3.584 2.26133,3.54133 2.26133,10.19733 0,6.656 -2.26133,10.24 -2.26133,3.54134 -6.44267,3.54134 -4.13866,0 -6.44266,-3.54134 -2.26134,-3.584 -2.26134,-10.24 z m 13.824,0 q 0,-2.176 -0.256,-4.096 -0.256,-1.96266 -0.85333,-3.41333 -0.59733,-1.45067 -1.57867,-2.304 -0.98133,-0.85333 -2.432,-0.85333 -1.45066,0 -2.432,0.85333 -0.98133,0.85333 -1.57866,2.304 -0.59734,1.45067 -0.85334,3.41333 -0.256,1.92 -0.256,4.096 0,2.176 0.256,4.13867 0.256,1.92 0.85334,3.37067 0.59733,1.45066 1.57866,2.304 0.98134,0.85333 2.432,0.85333 1.45067,0 2.432,-0.85333 0.98134,-0.85334 1.57867,-2.304 0.59733,-1.45067 0.85333,-3.37067 0.256,-1.96267 0.256,-4.13867 z"
           style="font-style:normal;font-variant:normal;font-weight:normal;font-stretch:normal;font-size:42.66666794px;line-height:53.33333588px;font-family:'Ubuntu Mono';-inkscape-font-specification:'Ubuntu Mono'"
           id="path7428" />
      </g>
      <g
         aria-label="1"
         transform="matrix(-0.10757766,0.24162341,-0.24162341,-0.10757766,97.394061,83.713152)"
         style="font-style:normal;font-weight:normal;font-size:42.66666794px;line-height:1.25;font-family:sans-serif;letter-spacing:0px;word-spacing:0px;fill:#000000;fill-opacity:1;stroke:none"
         id="flowRoot11094">
        <path
           d="m 569.86602,237.30648 q 2.176,-0.85334 4.224,-2.13334 2.048,-1.32266 3.79733,-3.328 h 2.47467 v 23.424 h 4.992 v 2.98667 h -14.208 v -2.98667 h 5.71733 v -18.51733 q -0.46933,0.42667 -1.152,0.896 -0.64,0.42667 -1.45067,0.85333 -0.768,0.42667 -1.62133,0.81067 -0.85333,0.384 -1.664,0.64 z"
           style="font-style:normal;font-variant:normal;font-weight:normal;font-stretch:normal;font-size:42.66666794px;line-height:53.33333588px;font-family:'Ubuntu Mono';-inkscape-font-specification:'Ubuntu Mono'"
           id="path7425" />
      </g>
      <g
         aria-label="2"
         transform="matrix(-0.08173181,0.2515447,-0.2515447,-0.08173181,104.27147,79.086978)"
         style="font-style:normal;font-weight:normal;font-size:42.66666794px;line-height:1.25;font-family:sans-serif;letter-spacing:0px;word-spacing:0px;fill:#000000;fill-opacity:1;stroke:none"
         id="flowRoot11102">
        <path
           d="m 584.58602,238.58648 q 0,1.36533 -0.55467,2.64533 -0.512,1.28 -1.408,2.51733 -0.85333,1.23734 -1.96267,2.432 -1.10933,1.19467 -2.26133,2.34667 -0.64,0.64 -1.49333,1.536 -0.85334,0.896 -1.62134,1.83467 -0.768,0.93866 -1.28,1.83466 -0.512,0.896 -0.512,1.536 h 12.16 v 2.98667 h -16 q -0.0427,-0.21333 -0.0427,-0.42667 0,-0.256 0,-0.46933 0,-1.792 0.59733,-3.328 0.59733,-1.536 1.536,-2.90133 0.93867,-1.36534 2.09067,-2.56 1.19466,-1.23734 2.34666,-2.38934 0.93867,-0.93866 1.792,-1.83466 0.896,-0.896 1.536,-1.792 0.68267,-0.896 1.06667,-1.83467 0.42667,-0.98133 0.42667,-2.00533 0,-1.152 -0.384,-1.96267 -0.34134,-0.81067 -0.98134,-1.32267 -0.59733,-0.55466 -1.408,-0.81066 -0.81066,-0.256 -1.74933,-0.256 -1.10933,0 -2.048,0.29866 -0.896,0.29867 -1.62133,0.72534 -0.68267,0.42666 -1.19467,0.85333 -0.512,0.384 -0.768,0.64 l -1.74933,-2.47467 q 0.34133,-0.384 1.024,-0.93866 0.68266,-0.55467 1.62133,-1.024 0.98133,-0.512 2.176,-0.85334 1.19467,-0.34133 2.56,-0.34133 4.13867,0 6.10133,1.92 2.00534,1.87733 2.00534,5.41867 z"
           style="font-style:normal;font-variant:normal;font-weight:normal;font-stretch:normal;font-size:42.66666794px;line-height:53.33333588px;font-family:'Ubuntu Mono';-inkscape-font-specification:'Ubuntu Mono'"
           id="path7422" />
      </g>
      <g
         aria-label="3"
         transform="matrix(-0.0549905,0.25871002,-0.25871002,-0.0549905,110.62763,73.767259)"
         style="font-style:normal;font-weight:normal;font-size:42.66666794px;line-height:1.25;font-family:sans-serif;letter-spacing:0px;word-spacing:0px;fill:#000000;fill-opacity:1;stroke:none"
         id="flowRoot11110">
        <path
           d="m 575.71135,255.69581 q 3.37067,0 4.77867,-1.32267 1.45066,-1.36533 1.45066,-3.62666 0,-1.45067 -0.59733,-2.432 -0.59733,-0.98134 -1.57867,-1.57867 -0.98133,-0.59733 -2.26133,-0.85333 -1.28,-0.256 -2.688,-0.256 h -0.896 v -2.85867 h 1.23733 q 0.93867,0 1.92,-0.17067 1.024,-0.21333 1.83467,-0.68266 0.85333,-0.512 1.36533,-1.36534 0.512,-0.85333 0.512,-2.176 0,-2.176 -1.36533,-3.072 -1.32267,-0.93866 -3.11467,-0.93866 -1.83466,0 -3.11466,0.55466 -1.28,0.512 -2.13334,1.06667 l -1.36533,-2.688 q 0.896,-0.64 2.688,-1.32267 1.83467,-0.72533 4.05333,-0.72533 2.09067,0 3.584,0.512 1.49334,0.512 2.432,1.45067 0.98134,0.93866 1.45067,2.21866 0.46933,1.23734 0.46933,2.73067 0,2.09067 -1.10933,3.54133 -1.06667,1.45067 -2.77333,2.21867 2.048,0.59733 3.54133,2.34667 1.49333,1.70666 1.49333,4.56533 0,1.70667 -0.59733,3.2 -0.55467,1.45067 -1.74933,2.51733 -1.152,1.06667 -3.02934,1.664 -1.83466,0.59734 -4.39466,0.59734 -0.98134,0 -2.048,-0.17067 -1.024,-0.128 -1.92,-0.384 -0.896,-0.21333 -1.62134,-0.42667 -0.68266,-0.256 -0.98133,-0.384 l 0.68267,-3.02933 q 0.68266,0.34133 2.176,0.81067 1.49333,0.46933 3.66933,0.46933 z"
           style="font-style:normal;font-variant:normal;font-weight:normal;font-stretch:normal;font-size:42.66666794px;line-height:53.33333588px;font-family:'Ubuntu Mono';-inkscape-font-specification:'Ubuntu Mono'"
           id="path7419" />
      </g>
      <g
         aria-label="4"
         transform="matrix(-0.02764669,0.26304085,-0.26304085,-0.02764669,116.39291,67.812286)"
         style="font-style:normal;font-weight:normal;font-size:42.66666794px;line-height:1.25;font-family:sans-serif;letter-spacing:0px;word-spacing:0px;fill:#000000;fill-opacity:1;stroke:none"
         id="flowRoot11118">
        <path
           d="m 568.20202,249.12514 q 0.72533,-1.70666 1.96266,-3.92533 1.28,-2.21867 2.85867,-4.56533 1.57867,-2.38934 3.37067,-4.65067 1.792,-2.304 3.62666,-4.13867 h 3.41334 v 16.768 h 3.11466 v 2.90134 h -3.11466 v 6.74133 h -3.41334 v -6.74133 h -11.81866 z m 11.81866,-13.09866 q -1.152,1.23733 -2.34666,2.73066 -1.152,1.49334 -2.26134,3.15734 -1.10933,1.62133 -2.09066,3.328 -0.93867,1.70666 -1.70667,3.37066 h 8.40533 z"
           style="font-style:normal;font-variant:normal;font-weight:normal;font-stretch:normal;font-size:42.66666794px;line-height:53.33333588px;font-family:'Ubuntu Mono';-inkscape-font-specification:'Ubuntu Mono'"
           id="path7416" />
      </g>
      <g
         aria-label="5"
         transform="matrix(1.5141104e-8,0.26448975,-0.26448975,1.5141104e-8,121.50414,61.287293)"
         style="font-style:normal;font-weight:normal;font-size:42.66666794px;line-height:1.25;font-family:sans-serif;letter-spacing:0px;word-spacing:0px;fill:#000000;fill-opacity:1;stroke:none"
         id="flowRoot11126">
        <path
           d="m 574.60202,242.04248 q 5.71733,0.21333 8.32,2.51733 2.60266,2.304 2.60266,6.18667 0,1.74933 -0.55466,3.24266 -0.55467,1.49334 -1.74934,2.56 -1.152,1.06667 -2.98666,1.664 -1.792,0.59734 -4.26667,0.59734 -1.024,0 -2.048,-0.17067 -0.98133,-0.128 -1.87733,-0.34133 -0.896,-0.21334 -1.57867,-0.42667 -0.68267,-0.256 -0.98133,-0.42667 l 0.68266,-3.02933 q 0.68267,0.34133 2.09067,0.81067 1.45067,0.46933 3.62667,0.46933 1.70666,0 2.85866,-0.384 1.152,-0.384 1.83467,-1.024 0.72533,-0.68267 1.024,-1.536 0.34133,-0.85333 0.34133,-1.792 0,-1.45067 -0.512,-2.56 -0.46933,-1.152 -1.70666,-1.92 -1.19467,-0.768 -3.328,-1.152 -2.09067,-0.42667 -5.29067,-0.42667 0.256,-1.87733 0.384,-3.49866 0.17067,-1.664 0.256,-3.2 0.128,-1.57867 0.17067,-3.11467 0.0853,-1.536 0.17066,-3.24267 h 12.71467 v 2.98667 h -9.64267 q -0.0427,0.59733 -0.128,1.57867 -0.0427,0.93866 -0.128,2.00533 -0.0853,1.06667 -0.17066,2.048 -0.0853,0.98133 -0.128,1.57867 z"
           style="font-style:normal;font-variant:normal;font-weight:normal;font-stretch:normal;font-size:42.66666794px;line-height:53.33333588px;font-family:'Ubuntu Mono';-inkscape-font-specification:'Ubuntu Mono'"
           id="path7413" />
      </g>
      <g
         aria-label="6"
         transform="matrix(0.02764672,0.26304084,-0.26304084,0.02764672,125.90534,54.263777)"
         style="font-style:normal;font-weight:normal;font-size:42.66666794px;line-height:1.25;font-family:sans-serif;letter-spacing:0px;word-spacing:0px;fill:#000000;fill-opacity:1;stroke:none"
         id="flowRoot11134">
        <path
           d="m 568.97002,247.67448 q 0,-3.84 1.024,-6.784 1.06666,-2.98667 2.98666,-4.992 1.96267,-2.00534 4.736,-3.072 2.77334,-1.06667 6.272,-1.10934 l 0.29867,2.98667 q -2.26133,0.0427 -4.13867,0.512 -1.83466,0.42667 -3.28533,1.45067 -1.45067,0.98133 -2.432,2.56 -0.98133,1.57866 -1.49333,3.88266 1.024,-0.46933 2.21866,-0.768 1.23734,-0.29866 2.60267,-0.29866 2.21867,0 3.75467,0.68266 1.57866,0.68267 2.51733,1.83467 0.93867,1.10933 1.36533,2.60267 0.42667,1.49333 0.42667,3.072 0,1.45066 -0.46933,2.98666 -0.46934,1.49334 -1.45067,2.77334 -0.98133,1.23733 -2.51733,2.048 -1.536,0.768 -3.66934,0.768 -4.39466,0 -6.57066,-2.944 -2.176,-2.944 -2.176,-8.192 z m 8.40533,-2.73067 q -1.36533,0 -2.51733,0.256 -1.10934,0.256 -2.26134,0.768 -0.0427,0.42667 -0.0427,0.85333 0,0.384 0,0.85334 0,1.664 0.21333,3.15733 0.256,1.45067 0.81067,2.60267 0.59733,1.10933 1.57866,1.792 0.98134,0.64 2.51734,0.64 1.28,0 2.13333,-0.512 0.85333,-0.55467 1.408,-1.36534 0.55467,-0.81066 0.768,-1.792 0.256,-1.024 0.256,-1.92 0,-2.60266 -1.19467,-3.968 -1.152,-1.36533 -3.66933,-1.36533 z"
           style="font-style:normal;font-variant:normal;font-weight:normal;font-stretch:normal;font-size:42.66666794px;line-height:53.33333588px;font-family:'Ubuntu Mono';-inkscape-font-specification:'Ubuntu Mono'"
           id="path7410" />
      </g>
      <g
         aria-label="7"
         transform="matrix(0.05499052,0.25871,-0.25871,0.05499052,129.54826,46.81869)"
         style="font-style:normal;font-weight:normal;font-size:42.66666794px;line-height:1.25;font-family:sans-serif;letter-spacing:0px;word-spacing:0px;fill:#000000;fill-opacity:1;stroke:none"
         id="flowRoot11142">
        <path
           d="m 573.27935,258.25581 q 0.21333,-3.02933 1.06667,-6.4 0.896,-3.41333 2.13333,-6.57067 1.23733,-3.2 2.73067,-5.888 1.49333,-2.73066 2.944,-4.48 h -12.8 v -3.072 h 16.72533 v 2.944 q -1.28,1.49334 -2.77333,4.01067 -1.49334,2.51733 -2.85867,5.67467 -1.32267,3.11466 -2.304,6.69866 -0.98133,3.54134 -1.23733,7.08267 z"
           style="font-style:normal;font-variant:normal;font-weight:normal;font-stretch:normal;font-size:42.66666794px;line-height:53.33333588px;font-family:'Ubuntu Mono';-inkscape-font-specification:'Ubuntu Mono'"
           id="path7407" />
      </g>
      <g
         aria-label="8"
         transform="matrix(0.08173183,0.25154468,-0.25154468,0.08173183,132.393,39.033594)"
         style="font-style:normal;font-weight:normal;font-size:42.66666794px;line-height:1.25;font-family:sans-serif;letter-spacing:0px;word-spacing:0px;fill:#000000;fill-opacity:1;stroke:none"
         id="flowRoot11150">
        <path
           d="m 585.82335,251.38648 q 0,3.328 -2.13333,5.376 -2.09067,2.048 -6.4,2.048 -2.47467,0 -4.096,-0.64 -1.62134,-0.68267 -2.60267,-1.70667 -0.93867,-1.06667 -1.36533,-2.34667 -0.384,-1.28 -0.384,-2.51733 0,-2.26133 1.23733,-4.01067 1.23733,-1.74933 2.944,-2.816 -3.62667,-2.048 -3.62667,-6.272 0,-1.45066 0.55467,-2.77333 0.55467,-1.32267 1.57867,-2.304 1.024,-0.98133 2.47466,-1.57867 1.49334,-0.59733 3.328,-0.59733 2.13334,0 3.62667,0.64 1.536,0.64 2.47467,1.664 0.93866,0.98133 1.36533,2.21867 0.42667,1.19466 0.42667,2.34666 0,2.26134 -1.152,3.92534 -1.152,1.62133 -2.64534,2.60266 4.39467,2.09067 4.39467,6.74134 z m -13.568,0.256 q 0,0.68266 0.256,1.45066 0.256,0.72534 0.85333,1.36534 0.59734,0.64 1.57867,1.06666 0.98133,0.384 2.38933,0.384 1.32267,0 2.26134,-0.34133 0.98133,-0.384 1.57866,-0.98133 0.64,-0.64 0.93867,-1.408 0.29867,-0.768 0.29867,-1.536 0,-2.432 -1.74934,-3.712 -1.74933,-1.32267 -4.82133,-2.00534 -1.70667,0.93867 -2.64533,2.34667 -0.93867,1.408 -0.93867,3.37067 z m 9.55733,-13.52534 q 0,-0.55466 -0.256,-1.23733 -0.256,-0.72533 -0.81066,-1.28 -0.512,-0.59733 -1.36534,-0.98133 -0.85333,-0.42667 -2.048,-0.42667 -1.23733,0 -2.09066,0.384 -0.81067,0.384 -1.36534,0.98133 -0.55466,0.55467 -0.81066,1.28 -0.21334,0.68267 -0.21334,1.36534 0,1.74933 1.23734,3.28533 1.28,1.49333 4.18133,2.176 1.62133,-0.93867 2.56,-2.21867 0.98133,-1.28 0.98133,-3.328 z"
           style="font-style:normal;font-variant:normal;font-weight:normal;font-stretch:normal;font-size:42.66666794px;line-height:53.33333588px;font-family:'Ubuntu Mono';-inkscape-font-specification:'Ubuntu Mono'"
           id="path7404" />
      </g>
      <g
         aria-label="9"
         transform="matrix(0.10757767,0.24162339,-0.24162339,0.10757767,134.4084,30.993787)"
         style="font-style:normal;font-weight:normal;font-size:42.66666794px;line-height:1.25;font-family:sans-serif;letter-spacing:0px;word-spacing:0px;fill:#000000;fill-opacity:1;stroke:none"
         id="flowRoot11158">
        <path
           d="m 585.73802,242.42648 q 0,7.89333 -3.84,11.904 -3.84,3.968 -11.56267,4.01066 l -0.128,-2.98666 q 4.77867,0 7.68,-1.87734 2.944,-1.92 3.88267,-6.57066 -1.024,0.46933 -2.26134,0.768 -1.23733,0.256 -2.60266,0.256 -2.26134,0 -3.79734,-0.64 -1.536,-0.68267 -2.47466,-1.792 -0.93867,-1.152 -1.36534,-2.60267 -0.42666,-1.45067 -0.42666,-3.072 0,-1.45067 0.46933,-2.944 0.46933,-1.536 1.45067,-2.77333 0.98133,-1.23734 2.51733,-2.048 1.536,-0.81067 3.66933,-0.81067 4.352,0 6.57067,2.98667 2.21867,2.98666 2.21867,8.192 z m -8.448,2.60266 q 1.36533,0 2.51733,-0.256 1.19467,-0.256 2.304,-0.72533 0.0427,-0.42667 0.0427,-0.81067 0,-0.384 0,-0.81066 0,-1.664 -0.256,-3.15734 -0.21334,-1.49333 -0.81067,-2.60266 -0.55467,-1.10934 -1.57867,-1.74934 -0.98133,-0.68266 -2.51733,-0.68266 -1.28,0 -2.13333,0.55466 -0.85334,0.512 -1.408,1.32267 -0.55467,0.768 -0.81067,1.74933 -0.21333,0.98134 -0.21333,1.87734 0,2.60266 1.152,3.968 1.19466,1.32266 3.712,1.32266 z"
           style="font-style:normal;font-variant:normal;font-weight:normal;font-stretch:normal;font-size:42.66666794px;line-height:53.33333588px;font-family:'Ubuntu Mono';-inkscape-font-specification:'Ubuntu Mono'"
           id="path7401" />
      </g>
      <g
         aria-label="0"
         transform="matrix(0.13224487,0.22905483,-0.22905483,0.13224487,135.57237,22.78736)"
         style="font-style:normal;font-weight:normal;font-size:42.66666794px;line-height:1.25;font-family:sans-serif;letter-spacing:0px;word-spacing:0px;fill:#000000;fill-opacity:1;stroke:none"
         id="flowRoot11166">
        <path
           d="m 579.80735,244.55981 q 0,1.10933 -0.68267,1.92 -0.64,0.81067 -1.70666,0.81067 -1.10934,0 -1.792,-0.81067 -0.68267,-0.81067 -0.68267,-1.92 0,-1.10933 0.68267,-1.96267 0.68266,-0.85333 1.792,-0.85333 1.06666,0 1.70666,0.85333 0.68267,0.85334 0.68267,1.96267 z m -11.17867,0.46933 q 0,-6.656 2.26134,-10.19733 2.304,-3.584 6.44266,-3.584 4.18134,0 6.44267,3.584 2.26133,3.54133 2.26133,10.19733 0,6.656 -2.26133,10.24 -2.26133,3.54134 -6.44267,3.54134 -4.13866,0 -6.44266,-3.54134 -2.26134,-3.584 -2.26134,-10.24 z m 13.824,0 q 0,-2.176 -0.256,-4.096 -0.256,-1.96266 -0.85333,-3.41333 -0.59733,-1.45067 -1.57867,-2.304 -0.98133,-0.85333 -2.432,-0.85333 -1.45066,0 -2.432,0.85333 -0.98133,0.85333 -1.57866,2.304 -0.59734,1.45067 -0.85334,3.41333 -0.256,1.92 -0.256,4.096 0,2.176 0.256,4.13867 0.256,1.92 0.85334,3.37067 0.59733,1.45066 1.57866,2.304 0.98134,0.85333 2.432,0.85333 1.45067,0 2.432,-0.85333 0.98134,-0.85334 1.57867,-2.304 0.59733,-1.45067 0.85333,-3.37067 0.256,-1.96267 0.256,-4.13867 z"
           style="font-style:normal;font-variant:normal;font-weight:normal;font-stretch:normal;font-size:42.66666794px;line-height:53.33333588px;font-family:'Ubuntu Mono';-inkscape-font-specification:'Ubuntu Mono'"
           id="path7398" />
      </g>
      <g
         aria-label="1"
         transform="matrix(0.15546317,0.21397669,-0.21397669,0.15546317,135.87215,14.504219)"
         style="font-style:normal;font-weight:normal;font-size:42.66666794px;line-height:1.25;font-family:sans-serif;letter-spacing:0px;word-spacing:0px;fill:#000000;fill-opacity:1;stroke:none"
         id="flowRoot11174">
        <path
           d="m 569.86602,237.30648 q 2.176,-0.85334 4.224,-2.13334 2.048,-1.32266 3.79733,-3.328 h 2.47467 v 23.424 h 4.992 v 2.98667 h -14.208 v -2.98667 h 5.71733 v -18.51733 q -0.46933,0.42667 -1.152,0.896 -0.64,0.42667 -1.45067,0.85333 -0.768,0.42667 -1.62133,0.81067 -0.85333,0.384 -1.664,0.64 z"
           style="font-style:normal;font-variant:normal;font-weight:normal;font-stretch:normal;font-size:42.66666794px;line-height:53.33333588px;font-family:'Ubuntu Mono';-inkscape-font-specification:'Ubuntu Mono'"
           id="path7395" />
      </g>
      <g
         aria-label="2"
         transform="matrix(0.17697818,0.19655418,-0.19655418,0.17697818,135.30447,6.2351239)"
         style="font-style:normal;font-weight:normal;font-size:42.66666794px;line-height:1.25;font-family:sans-serif;letter-spacing:0px;word-spacing:0px;fill:#000000;fill-opacity:1;stroke:none"
         id="flowRoot11182">
        <path
           d="m 584.58602,238.58648 q 0,1.36533 -0.55467,2.64533 -0.512,1.28 -1.408,2.51733 -0.85333,1.23734 -1.96267,2.432 -1.10933,1.19467 -2.26133,2.34667 -0.64,0.64 -1.49333,1.536 -0.85334,0.896 -1.62134,1.83467 -0.768,0.93866 -1.28,1.83466 -0.512,0.896 -0.512,1.536 h 12.16 v 2.98667 h -16 q -0.0427,-0.21333 -0.0427,-0.42667 0,-0.256 0,-0.46933 0,-1.792 0.59733,-3.328 0.59733,-1.536 1.536,-2.90133 0.93867,-1.36534 2.09067,-2.56 1.19466,-1.23734 2.34666,-2.38934 0.93867,-0.93866 1.792,-1.83466 0.896,-0.896 1.536,-1.792 0.68267,-0.896 1.06667,-1.83467 0.42667,-0.98133 0.42667,-2.00533 0,-1.152 -0.384,-1.96267 -0.34134,-0.81067 -0.98134,-1.32267 -0.59733,-0.55466 -1.408,-0.81066 -0.81066,-0.256 -1.74933,-0.256 -1.10933,0 -2.048,0.29866 -0.896,0.29867 -1.62133,0.72534 -0.68267,0.42666 -1.19467,0.85333 -0.512,0.384 -0.768,0.64 l -1.74933,-2.47467 q 0.34133,-0.384 1.024,-0.93866 0.68266,-0.55467 1.62133,-1.024 0.98133,-0.512 2.176,-0.85334 1.19467,-0.34133 2.56,-0.34133 4.13867,0 6.10133,1.92 2.00534,1.87733 2.00534,5.41867 z"
           style="font-style:normal;font-variant:normal;font-weight:normal;font-stretch:normal;font-size:42.66666794px;line-height:53.33333588px;font-family:'Ubuntu Mono';-inkscape-font-specification:'Ubuntu Mono'"
           id="path7392" />
      </g>
      <g
         aria-label="3"
         transform="matrix(0.19655418,0.17697819,-0.17697819,0.19655418,133.87555,-1.9293385)"
         style="font-style:normal;font-weight:normal;font-size:42.66666794px;line-height:1.25;font-family:sans-serif;letter-spacing:0px;word-spacing:0px;fill:#000000;fill-opacity:1;stroke:none"
         id="flowRoot11190">
        <path
           d="m 575.71135,255.69581 q 3.37067,0 4.77867,-1.32267 1.45066,-1.36533 1.45066,-3.62666 0,-1.45067 -0.59733,-2.432 -0.59733,-0.98134 -1.57867,-1.57867 -0.98133,-0.59733 -2.26133,-0.85333 -1.28,-0.256 -2.688,-0.256 h -0.896 v -2.85867 h 1.23733 q 0.93867,0 1.92,-0.17067 1.024,-0.21333 1.83467,-0.68266 0.85333,-0.512 1.36533,-1.36534 0.512,-0.85333 0.512,-2.176 0,-2.176 -1.36533,-3.072 -1.32267,-0.93866 -3.11467,-0.93866 -1.83466,0 -3.11466,0.55466 -1.28,0.512 -2.13334,1.06667 l -1.36533,-2.688 q 0.896,-0.64 2.688,-1.32267 1.83467,-0.72533 4.05333,-0.72533 2.09067,0 3.584,0.512 1.49334,0.512 2.432,1.45067 0.98134,0.93866 1.45067,2.21866 0.46933,1.23734 0.46933,2.73067 0,2.09067 -1.10933,3.54133 -1.06667,1.45067 -2.77333,2.21867 2.048,0.59733 3.54133,2.34667 1.49333,1.70666 1.49333,4.56533 0,1.70667 -0.59733,3.2 -0.55467,1.45067 -1.74933,2.51733 -1.152,1.06667 -3.02934,1.664 -1.83466,0.59734 -4.39466,0.59734 -0.98134,0 -2.048,-0.17067 -1.024,-0.128 -1.92,-0.384 -0.896,-0.21333 -1.62134,-0.42667 -0.68266,-0.256 -0.98133,-0.384 l 0.68267,-3.02933 q 0.68266,0.34133 2.176,0.81067 1.49333,0.46933 3.66933,0.46933 z"
           style="font-style:normal;font-variant:normal;font-weight:normal;font-stretch:normal;font-size:42.66666794px;line-height:53.33333588px;font-family:'Ubuntu Mono';-inkscape-font-specification:'Ubuntu Mono'"
           id="path7389" />
      </g>
      <g
         aria-label="4"
         transform="matrix(0.2139767,0.15546318,-0.15546318,0.2139767,131.60103,-9.8997096)"
         style="font-style:normal;font-weight:normal;font-size:42.66666794px;line-height:1.25;font-family:sans-serif;letter-spacing:0px;word-spacing:0px;fill:#000000;fill-opacity:1;stroke:none"
         id="flowRoot11198">
        <path
           d="m 568.20202,249.12514 q 0.72533,-1.70666 1.96266,-3.92533 1.28,-2.21867 2.85867,-4.56533 1.57867,-2.38934 3.37067,-4.65067 1.792,-2.304 3.62666,-4.13867 h 3.41334 v 16.768 h 3.11466 v 2.90134 h -3.11466 v 6.74133 h -3.41334 v -6.74133 h -11.81866 z m 11.81866,-13.09866 q -1.152,1.23733 -2.34666,2.73066 -1.152,1.49334 -2.26134,3.15734 -1.10933,1.62133 -2.09066,3.328 -0.93867,1.70666 -1.70667,3.37066 h 8.40533 z"
           style="font-style:normal;font-variant:normal;font-weight:normal;font-stretch:normal;font-size:42.66666794px;line-height:53.33333588px;font-family:'Ubuntu Mono';-inkscape-font-specification:'Ubuntu Mono'"
           id="path7386" />
      </g>
      <g
         aria-label="5"
         transform="matrix(0.22905484,0.13224488,-0.13224488,0.22905484,128.50585,-17.58867)"
         style="font-style:normal;font-weight:normal;font-size:42.66666794px;line-height:1.25;font-family:sans-serif;letter-spacing:0px;word-spacing:0px;fill:#000000;fill-opacity:1;stroke:none"
         id="flowRoot11206">
        <path
           d="m 574.60202,242.04248 q 5.71733,0.21333 8.32,2.51733 2.60266,2.304 2.60266,6.18667 0,1.74933 -0.55466,3.24266 -0.55467,1.49334 -1.74934,2.56 -1.152,1.06667 -2.98666,1.664 -1.792,0.59734 -4.26667,0.59734 -1.024,0 -2.048,-0.17067 -0.98133,-0.128 -1.87733,-0.34133 -0.896,-0.21334 -1.57867,-0.42667 -0.68267,-0.256 -0.98133,-0.42667 l 0.68266,-3.02933 q 0.68267,0.34133 2.09067,0.81067 1.45067,0.46933 3.62667,0.46933 1.70666,0 2.85866,-0.384 1.152,-0.384 1.83467,-1.024 0.72533,-0.68267 1.024,-1.536 0.34133,-0.85333 0.34133,-1.792 0,-1.45067 -0.512,-2.56 -0.46933,-1.152 -1.70666,-1.92 -1.19467,-0.768 -3.328,-1.152 -2.09067,-0.42667 -5.29067,-0.42667 0.256,-1.87733 0.384,-3.49866 0.17067,-1.664 0.256,-3.2 0.128,-1.57867 0.17067,-3.11467 0.0853,-1.536 0.17066,-3.24267 h 12.71467 v 2.98667 h -9.64267 q -0.0427,0.59733 -0.128,1.57867 -0.0427,0.93866 -0.128,2.00533 -0.0853,1.06667 -0.17066,2.048 -0.0853,0.98133 -0.128,1.57867 z"
           style="font-style:normal;font-variant:normal;font-weight:normal;font-stretch:normal;font-size:42.66666794px;line-height:53.33333588px;font-family:'Ubuntu Mono';-inkscape-font-specification:'Ubuntu Mono'"
           id="path7383" />
      </g>
      <g
         aria-label="6"
         transform="matrix(0.2416234,0.10757767,-0.10757767,0.2416234,124.6239,-24.91197)"
         style="font-style:normal;font-weight:normal;font-size:42.66666794px;line-height:1.25;font-family:sans-serif;letter-spacing:0px;word-spacing:0px;fill:#000000;fill-opacity:1;stroke:none"
         id="flowRoot11214">
        <path
           d="m 568.97002,247.67448 q 0,-3.84 1.024,-6.784 1.06666,-2.98667 2.98666,-4.992 1.96267,-2.00534 4.736,-3.072 2.77334,-1.06667 6.272,-1.10934 l 0.29867,2.98667 q -2.26133,0.0427 -4.13867,0.512 -1.83466,0.42667 -3.28533,1.45067 -1.45067,0.98133 -2.432,2.56 -0.98133,1.57866 -1.49333,3.88266 1.024,-0.46933 2.21866,-0.768 1.23734,-0.29866 2.60267,-0.29866 2.21867,0 3.75467,0.68266 1.57866,0.68267 2.51733,1.83467 0.93867,1.10933 1.36533,2.60267 0.42667,1.49333 0.42667,3.072 0,1.45066 -0.46933,2.98666 -0.46934,1.49334 -1.45067,2.77334 -0.98133,1.23733 -2.51733,2.048 -1.536,0.768 -3.66934,0.768 -4.39466,0 -6.57066,-2.944 -2.176,-2.944 -2.176,-8.192 z m 8.40533,-2.73067 q -1.36533,0 -2.51733,0.256 -1.10934,0.256 -2.26134,0.768 -0.0427,0.42667 -0.0427,0.85333 0,0.384 0,0.85334 0,1.664 0.21333,3.15733 0.256,1.45067 0.81067,2.60267 0.59733,1.10933 1.57866,1.792 0.98134,0.64 2.51734,0.64 1.28,0 2.13333,-0.512 0.85333,-0.55467 1.408,-1.36534 0.55467,-0.81066 0.768,-1.792 0.256,-1.024 0.256,-1.92 0,-2.60266 -1.19467,-3.968 -1.152,-1.36533 -3.66933,-1.36533 z"
           style="font-style:normal;font-variant:normal;font-weight:normal;font-stretch:normal;font-size:42.66666794px;line-height:53.33333588px;font-family:'Ubuntu Mono';-inkscape-font-specification:'Ubuntu Mono'"
           id="path7380" />
      </g>
    </g>
  </g>
</svg>
