<?xml version="1.0" encoding="UTF-8" standalone="no"?>
<svg
   xmlns:dc="http://purl.org/dc/elements/1.1/"
   xmlns:cc="http://creativecommons.org/ns#"
   xmlns:rdf="http://www.w3.org/1999/02/22-rdf-syntax-ns#"
   xmlns:svg="http://www.w3.org/2000/svg"
   xmlns="http://www.w3.org/2000/svg"
   id="svg4254"
   version="1.1"
   viewBox="0 0 476.24999 476.25001"
   height="1800"
   width="1800">
  <defs
     id="defs4248" />
  <metadata
     id="metadata4251">
    <rdf:RDF>
      <cc:Work
         rdf:about="">
        <dc:format>image/svg+xml</dc:format>
        <dc:type
           rdf:resource="http://purl.org/dc/dcmitype/StillImage" />
        <dc:title></dc:title>
      </cc:Work>
    </rdf:RDF>
  </metadata>
  <g
     transform="translate(269.11905,313.05357)"
     id="layer1">
    <g
       id="g5829">
      <circle
         transform="rotate(0.99999998)"
         r="237.72745"
         cy="-74.376236"
         cx="-32.297012"
         id="circle8804"
         style="fill:#ffffff;fill-opacity:1;stroke:#000000;stroke-width:0.79363465;stroke-miterlimit:4;stroke-dasharray:none;stroke-opacity:1" />
      <g
         aria-label="0"
         transform="matrix(0.26454488,0,0,0.26454488,40.971654,-139.74978)"
         style="font-style:normal;font-weight:normal;font-size:42.66666794px;line-height:1.25;font-family:sans-serif;letter-spacing:0px;word-spacing:0px;fill:#000000;fill-opacity:1;stroke:none"
         id="flowRoot9186">
        <path
           d="m 579.80735,244.55981 q 0,1.10933 -0.68267,1.92 -0.64,0.81067 -1.70666,0.81067 -1.10934,0 -1.792,-0.81067 -0.68267,-0.81067 -0.68267,-1.92 0,-1.10933 0.68267,-1.96267 0.68266,-0.85333 1.792,-0.85333 1.06666,0 1.70666,0.85333 0.68267,0.85334 0.68267,1.96267 z m -11.17867,0.46933 q 0,-6.656 2.26134,-10.19733 2.304,-3.584 6.44266,-3.584 4.18134,0 6.44267,3.584 2.26133,3.54133 2.26133,10.19733 0,6.656 -2.26133,10.24 -2.26133,3.54134 -6.44267,3.54134 -4.13866,0 -6.44266,-3.54134 -2.26134,-3.584 -2.26134,-10.24 z m 13.824,0 q 0,-2.176 -0.256,-4.096 -0.256,-1.96266 -0.85333,-3.41333 -0.59733,-1.45067 -1.57867,-2.304 -0.98133,-0.85333 -2.432,-0.85333 -1.45066,0 -2.432,0.85333 -0.98133,0.85333 -1.57866,2.304 -0.59734,1.45067 -0.85334,3.41333 -0.256,1.92 -0.256,4.096 0,2.176 0.256,4.13867 0.256,1.92 0.85334,3.37067 0.59733,1.45066 1.57866,2.304 0.98134,0.85333 2.432,0.85333 1.45067,0 2.432,-0.85333 0.98134,-0.85334 1.57867,-2.304 0.59733,-1.45067 0.85333,-3.37067 0.256,-1.96267 0.256,-4.13867 z"
           style="font-style:normal;font-variant:normal;font-weight:normal;font-stretch:normal;font-size:42.66666794px;line-height:53.33333588px;font-family:'Ubuntu Mono';-inkscape-font-specification:'Ubuntu Mono'"
           id="path5705" />
      </g>
      <g
         aria-label="5"
         transform="matrix(0.26309567,0.02765247,-0.02765247,0.26309567,47.353077,-131.87222)"
         style="font-style:normal;font-weight:normal;font-size:42.66666794px;line-height:1.25;font-family:sans-serif;letter-spacing:0px;word-spacing:0px;fill:#000000;fill-opacity:1;stroke:none"
         id="flowRoot9546">
        <path
           d="m 574.60202,242.04248 q 5.71733,0.21333 8.32,2.51733 2.60266,2.304 2.60266,6.18667 0,1.74933 -0.55466,3.24266 -0.55467,1.49334 -1.74934,2.56 -1.152,1.06667 -2.98666,1.664 -1.792,0.59734 -4.26667,0.59734 -1.024,0 -2.048,-0.17067 -0.98133,-0.128 -1.87733,-0.34133 -0.896,-0.21334 -1.57867,-0.42667 -0.68267,-0.256 -0.98133,-0.42667 l 0.68266,-3.02933 q 0.68267,0.34133 2.09067,0.81067 1.45067,0.46933 3.62667,0.46933 1.70666,0 2.85866,-0.384 1.152,-0.384 1.83467,-1.024 0.72533,-0.68267 1.024,-1.536 0.34133,-0.85333 0.34133,-1.792 0,-1.45067 -0.512,-2.56 -0.46933,-1.152 -1.70666,-1.92 -1.19467,-0.768 -3.328,-1.152 -2.09067,-0.42667 -5.29067,-0.42667 0.256,-1.87733 0.384,-3.49866 0.17067,-1.664 0.256,-3.2 0.128,-1.57867 0.17067,-3.11467 0.0853,-1.536 0.17066,-3.24267 h 12.71467 v 2.98667 h -9.64267 q -0.0427,0.59733 -0.128,1.57867 -0.0427,0.93866 -0.128,2.00533 -0.0853,1.06667 -0.17066,2.048 -0.0853,0.98133 -0.128,1.57867 z"
           style="font-style:normal;font-variant:normal;font-weight:normal;font-stretch:normal;font-size:42.66666794px;line-height:53.33333588px;font-family:'Ubuntu Mono';-inkscape-font-specification:'Ubuntu Mono'"
           id="path5702" />
      </g>
      <g
         aria-label="4"
         transform="matrix(0.25876393,0.05500198,-0.05500198,0.25876393,52.876114,-123.37077)"
         style="font-style:normal;font-weight:normal;font-size:42.66666794px;line-height:1.25;font-family:sans-serif;letter-spacing:0px;word-spacing:0px;fill:#000000;fill-opacity:1;stroke:none"
         id="flowRoot9554">
        <path
           d="m 568.20202,249.12514 q 0.72533,-1.70666 1.96266,-3.92533 1.28,-2.21867 2.85867,-4.56533 1.57867,-2.38934 3.37067,-4.65067 1.792,-2.304 3.62666,-4.13867 h 3.41334 v 16.768 h 3.11466 v 2.90134 h -3.11466 v 6.74133 h -3.41334 v -6.74133 h -11.81866 z m 11.81866,-13.09866 q -1.152,1.23733 -2.34666,2.73066 -1.152,1.49334 -2.26134,3.15734 -1.10933,1.62133 -2.09066,3.328 -0.93867,1.70666 -1.70667,3.37066 h 8.40533 z"
           style="font-style:normal;font-variant:normal;font-weight:normal;font-stretch:normal;font-size:42.66666794px;line-height:53.33333588px;font-family:'Ubuntu Mono';-inkscape-font-specification:'Ubuntu Mono'"
           id="path5699" />
      </g>
      <g
         aria-label="3"
         transform="matrix(0.25159712,0.08174887,-0.08174887,0.25159712,57.480255,-114.33858)"
         style="font-style:normal;font-weight:normal;font-size:42.66666794px;line-height:1.25;font-family:sans-serif;letter-spacing:0px;word-spacing:0px;fill:#000000;fill-opacity:1;stroke:none"
         id="flowRoot9562">
        <path
           d="m 575.71135,255.69581 q 3.37067,0 4.77867,-1.32267 1.45066,-1.36533 1.45066,-3.62666 0,-1.45067 -0.59733,-2.432 -0.59733,-0.98134 -1.57867,-1.57867 -0.98133,-0.59733 -2.26133,-0.85333 -1.28,-0.256 -2.688,-0.256 h -0.896 v -2.85867 h 1.23733 q 0.93867,0 1.92,-0.17067 1.024,-0.21333 1.83467,-0.68266 0.85333,-0.512 1.36533,-1.36534 0.512,-0.85333 0.512,-2.176 0,-2.176 -1.36533,-3.072 -1.32267,-0.93866 -3.11467,-0.93866 -1.83466,0 -3.11466,0.55466 -1.28,0.512 -2.13334,1.06667 l -1.36533,-2.688 q 0.896,-0.64 2.688,-1.32267 1.83467,-0.72533 4.05333,-0.72533 2.09067,0 3.584,0.512 1.49334,0.512 2.432,1.45067 0.98134,0.93866 1.45067,2.21866 0.46933,1.23734 0.46933,2.73067 0,2.09067 -1.10933,3.54133 -1.06667,1.45067 -2.77333,2.21867 2.048,0.59733 3.54133,2.34667 1.49333,1.70666 1.49333,4.56533 0,1.70667 -0.59733,3.2 -0.55467,1.45067 -1.74933,2.51733 -1.152,1.06667 -3.02934,1.664 -1.83466,0.59734 -4.39466,0.59734 -0.98134,0 -2.048,-0.17067 -1.024,-0.128 -1.92,-0.384 -0.896,-0.21333 -1.62134,-0.42667 -0.68266,-0.256 -0.98133,-0.384 l 0.68267,-3.02933 q 0.68266,0.34133 2.176,0.81067 1.49333,0.46933 3.66933,0.46933 z"
           style="font-style:normal;font-variant:normal;font-weight:normal;font-stretch:normal;font-size:42.66666794px;line-height:53.33333588px;font-family:'Ubuntu Mono';-inkscape-font-specification:'Ubuntu Mono'"
           id="path5696" />
      </g>
      <g
         aria-label="1"
         transform="matrix(0.26309567,-0.02765247,0.02765247,0.26309567,33.801756,-146.91715)"
         style="font-style:normal;font-weight:normal;font-size:42.66666794px;line-height:1.25;font-family:sans-serif;letter-spacing:0px;word-spacing:0px;fill:#000000;fill-opacity:1;stroke:none"
         id="flowRoot9570">
        <path
           d="m 569.86602,237.30648 q 2.176,-0.85334 4.224,-2.13334 2.048,-1.32266 3.79733,-3.328 h 2.47467 v 23.424 h 4.992 v 2.98667 h -14.208 v -2.98667 h 5.71733 v -18.51733 q -0.46933,0.42667 -1.152,0.896 -0.64,0.42667 -1.45067,0.85333 -0.768,0.42667 -1.62133,0.81067 -0.85333,0.384 -1.664,0.64 z"
           style="font-style:normal;font-variant:normal;font-weight:normal;font-stretch:normal;font-size:42.66666794px;line-height:53.33333588px;font-family:'Ubuntu Mono';-inkscape-font-specification:'Ubuntu Mono'"
           id="path5693" />
      </g>
      <g
         aria-label="2"
         transform="matrix(0.25876393,-0.05500198,0.05500198,0.25876393,25.921942,-153.29579)"
         style="font-style:normal;font-weight:normal;font-size:42.66666794px;line-height:1.25;font-family:sans-serif;letter-spacing:0px;word-spacing:0px;fill:#000000;fill-opacity:1;stroke:none"
         id="flowRoot9578">
        <path
           d="m 584.58602,238.58648 q 0,1.36533 -0.55467,2.64533 -0.512,1.28 -1.408,2.51733 -0.85333,1.23734 -1.96267,2.432 -1.10933,1.19467 -2.26133,2.34667 -0.64,0.64 -1.49333,1.536 -0.85334,0.896 -1.62134,1.83467 -0.768,0.93866 -1.28,1.83466 -0.512,0.896 -0.512,1.536 h 12.16 v 2.98667 h -16 q -0.0427,-0.21333 -0.0427,-0.42667 0,-0.256 0,-0.46933 0,-1.792 0.59733,-3.328 0.59733,-1.536 1.536,-2.90133 0.93867,-1.36534 2.09067,-2.56 1.19466,-1.23734 2.34666,-2.38934 0.93867,-0.93866 1.792,-1.83466 0.896,-0.896 1.536,-1.792 0.68267,-0.896 1.06667,-1.83467 0.42667,-0.98133 0.42667,-2.00533 0,-1.152 -0.384,-1.96267 -0.34134,-0.81067 -0.98134,-1.32267 -0.59733,-0.55466 -1.408,-0.81066 -0.81066,-0.256 -1.74933,-0.256 -1.10933,0 -2.048,0.29866 -0.896,0.29867 -1.62133,0.72534 -0.68267,0.42666 -1.19467,0.85333 -0.512,0.384 -0.768,0.64 l -1.74933,-2.47467 q 0.34133,-0.384 1.024,-0.93866 0.68266,-0.55467 1.62133,-1.024 0.98133,-0.512 2.176,-0.85334 1.19467,-0.34133 2.56,-0.34133 4.13867,0 6.10133,1.92 2.00534,1.87733 2.00534,5.41867 z"
           style="font-style:normal;font-variant:normal;font-weight:normal;font-stretch:normal;font-size:42.66666794px;line-height:53.33333588px;font-family:'Ubuntu Mono';-inkscape-font-specification:'Ubuntu Mono'"
           id="path5690" />
      </g>
      <g
         aria-label="3"
         transform="matrix(0.25159712,-0.08174887,0.08174887,0.25159712,17.418548,-158.81583)"
         style="font-style:normal;font-weight:normal;font-size:42.66666794px;line-height:1.25;font-family:sans-serif;letter-spacing:0px;word-spacing:0px;fill:#000000;fill-opacity:1;stroke:none"
         id="flowRoot9586">
        <path
           d="m 575.71135,255.69581 q 3.37067,0 4.77867,-1.32267 1.45066,-1.36533 1.45066,-3.62666 0,-1.45067 -0.59733,-2.432 -0.59733,-0.98134 -1.57867,-1.57867 -0.98133,-0.59733 -2.26133,-0.85333 -1.28,-0.256 -2.688,-0.256 h -0.896 v -2.85867 h 1.23733 q 0.93867,0 1.92,-0.17067 1.024,-0.21333 1.83467,-0.68266 0.85333,-0.512 1.36533,-1.36534 0.512,-0.85333 0.512,-2.176 0,-2.176 -1.36533,-3.072 -1.32267,-0.93866 -3.11467,-0.93866 -1.83466,0 -3.11466,0.55466 -1.28,0.512 -2.13334,1.06667 l -1.36533,-2.688 q 0.896,-0.64 2.688,-1.32267 1.83467,-0.72533 4.05333,-0.72533 2.09067,0 3.584,0.512 1.49334,0.512 2.432,1.45067 0.98134,0.93866 1.45067,2.21866 0.46933,1.23734 0.46933,2.73067 0,2.09067 -1.10933,3.54133 -1.06667,1.45067 -2.77333,2.21867 2.048,0.59733 3.54133,2.34667 1.49333,1.70666 1.49333,4.56533 0,1.70667 -0.59733,3.2 -0.55467,1.45067 -1.74933,2.51733 -1.152,1.06667 -3.02934,1.664 -1.83466,0.59734 -4.39466,0.59734 -0.98134,0 -2.048,-0.17067 -1.024,-0.128 -1.92,-0.384 -0.896,-0.21333 -1.62134,-0.42667 -0.68266,-0.256 -0.98133,-0.384 l 0.68267,-3.02933 q 0.68266,0.34133 2.176,0.81067 1.49333,0.46933 3.66933,0.46933 z"
           style="font-style:normal;font-variant:normal;font-weight:normal;font-stretch:normal;font-size:42.66666794px;line-height:53.33333588px;font-family:'Ubuntu Mono';-inkscape-font-specification:'Ubuntu Mono'"
           id="path5687" />
      </g>
      <g
         aria-label="4"
         transform="matrix(0.24167376,-0.1076001,0.1076001,0.24167376,8.3847306,-163.41678)"
         style="font-style:normal;font-weight:normal;font-size:42.66666794px;line-height:1.25;font-family:sans-serif;letter-spacing:0px;word-spacing:0px;fill:#000000;fill-opacity:1;stroke:none"
         id="flowRoot11222">
        <path
           d="m 568.20202,249.12514 q 0.72533,-1.70666 1.96266,-3.92533 1.28,-2.21867 2.85867,-4.56533 1.57867,-2.38934 3.37067,-4.65067 1.792,-2.304 3.62666,-4.13867 h 3.41334 v 16.768 h 3.11466 v 2.90134 h -3.11466 v 6.74133 h -3.41334 v -6.74133 h -11.81866 z m 11.81866,-13.09866 q -1.152,1.23733 -2.34666,2.73066 -1.152,1.49334 -2.26134,3.15734 -1.10933,1.62133 -2.09066,3.328 -0.93867,1.70666 -1.70667,3.37066 h 8.40533 z"
           style="font-style:normal;font-variant:normal;font-weight:normal;font-stretch:normal;font-size:42.66666794px;line-height:53.33333588px;font-family:'Ubuntu Mono';-inkscape-font-specification:'Ubuntu Mono'"
           id="path5684" />
      </g>
      <g
         aria-label="5"
         transform="matrix(0.22910258,-0.13227245,0.13227245,0.22910258,-1.0805237,-167.04823)"
         style="font-style:normal;font-weight:normal;font-size:42.66666794px;line-height:1.25;font-family:sans-serif;letter-spacing:0px;word-spacing:0px;fill:#000000;fill-opacity:1;stroke:none"
         id="flowRoot11230">
        <path
           d="m 574.60202,242.04248 q 5.71733,0.21333 8.32,2.51733 2.60266,2.304 2.60266,6.18667 0,1.74933 -0.55466,3.24266 -0.55467,1.49334 -1.74934,2.56 -1.152,1.06667 -2.98666,1.664 -1.792,0.59734 -4.26667,0.59734 -1.024,0 -2.048,-0.17067 -0.98133,-0.128 -1.87733,-0.34133 -0.896,-0.21334 -1.57867,-0.42667 -0.68267,-0.256 -0.98133,-0.42667 l 0.68266,-3.02933 q 0.68267,0.34133 2.09067,0.81067 1.45067,0.46933 3.62667,0.46933 1.70666,0 2.85866,-0.384 1.152,-0.384 1.83467,-1.024 0.72533,-0.68267 1.024,-1.536 0.34133,-0.85333 0.34133,-1.792 0,-1.45067 -0.512,-2.56 -0.46933,-1.152 -1.70666,-1.92 -1.19467,-0.768 -3.328,-1.152 -2.09067,-0.42667 -5.29067,-0.42667 0.256,-1.87733 0.384,-3.49866 0.17067,-1.664 0.256,-3.2 0.128,-1.57867 0.17067,-3.11467 0.0853,-1.536 0.17066,-3.24267 h 12.71467 v 2.98667 h -9.64267 q -0.0427,0.59733 -0.128,1.57867 -0.0427,0.93866 -0.128,2.00533 -0.0853,1.06667 -0.17066,2.048 -0.0853,0.98133 -0.128,1.57867 z"
           style="font-style:normal;font-variant:normal;font-weight:normal;font-stretch:normal;font-size:42.66666794px;line-height:53.33333588px;font-family:'Ubuntu Mono';-inkscape-font-specification:'Ubuntu Mono'"
           id="path5681" />
      </g>
      <g
         aria-label="0"
         transform="matrix(0.21402129,-0.15549558,0.15549558,0.21402129,-10.87352,-169.67041)"
         style="font-style:normal;font-weight:normal;font-size:42.66666794px;line-height:1.25;font-family:sans-serif;letter-spacing:0px;word-spacing:0px;fill:#000000;fill-opacity:1;stroke:none"
         id="flowRoot11238">
        <path
           d="m 579.80735,244.55981 q 0,1.10933 -0.68267,1.92 -0.64,0.81067 -1.70666,0.81067 -1.10934,0 -1.792,-0.81067 -0.68267,-0.81067 -0.68267,-1.92 0,-1.10933 0.68267,-1.96267 0.68266,-0.85333 1.792,-0.85333 1.06666,0 1.70666,0.85333 0.68267,0.85334 0.68267,1.96267 z m -11.17867,0.46933 q 0,-6.656 2.26134,-10.19733 2.304,-3.584 6.44266,-3.584 4.18134,0 6.44267,3.584 2.26133,3.54133 2.26133,10.19733 0,6.656 -2.26133,10.24 -2.26133,3.54134 -6.44267,3.54134 -4.13866,0 -6.44266,-3.54134 -2.26134,-3.584 -2.26134,-10.24 z m 13.824,0 q 0,-2.176 -0.256,-4.096 -0.256,-1.96266 -0.85333,-3.41333 -0.59733,-1.45067 -1.57867,-2.304 -0.98133,-0.85333 -2.432,-0.85333 -1.45066,0 -2.432,0.85333 -0.98133,0.85333 -1.57866,2.304 -0.59734,1.45067 -0.85334,3.41333 -0.256,1.92 -0.256,4.096 0,2.176 0.256,4.13867 0.256,1.92 0.85334,3.37067 0.59733,1.45066 1.57866,2.304 0.98134,0.85333 2.432,0.85333 1.45067,0 2.432,-0.85333 0.98134,-0.85334 1.57867,-2.304 0.59733,-1.45067 0.85333,-3.37067 0.256,-1.96267 0.256,-4.13867 z"
           style="font-style:normal;font-variant:normal;font-weight:normal;font-stretch:normal;font-size:42.66666794px;line-height:53.33333588px;font-family:'Ubuntu Mono';-inkscape-font-specification:'Ubuntu Mono'"
           id="path5678" />
      </g>
      <g
         aria-label="1"
         transform="matrix(0.19659515,-0.17701507,0.17701507,0.19659515,-20.886965,-171.25457)"
         style="font-style:normal;font-weight:normal;font-size:42.66666794px;line-height:1.25;font-family:sans-serif;letter-spacing:0px;word-spacing:0px;fill:#000000;fill-opacity:1;stroke:none"
         id="flowRoot11246">
        <path
           d="m 569.86602,237.30648 q 2.176,-0.85334 4.224,-2.13334 2.048,-1.32266 3.79733,-3.328 h 2.47467 v 23.424 h 4.992 v 2.98667 h -14.208 v -2.98667 h 5.71733 v -18.51733 q -0.46933,0.42667 -1.152,0.896 -0.64,0.42667 -1.45067,0.85333 -0.768,0.42667 -1.62133,0.81067 -0.85333,0.384 -1.664,0.64 z"
           style="font-style:normal;font-variant:normal;font-weight:normal;font-stretch:normal;font-size:42.66666794px;line-height:53.33333588px;font-family:'Ubuntu Mono';-inkscape-font-specification:'Ubuntu Mono'"
           id="path5675" />
      </g>
      <g
         aria-label="2"
         transform="matrix(0.17701506,-0.19659516,0.19659516,0.17701506,-31.011144,-171.78337)"
         style="font-style:normal;font-weight:normal;font-size:42.66666794px;line-height:1.25;font-family:sans-serif;letter-spacing:0px;word-spacing:0px;fill:#000000;fill-opacity:1;stroke:none"
         id="flowRoot11254">
        <path
           d="m 584.58602,238.58648 q 0,1.36533 -0.55467,2.64533 -0.512,1.28 -1.408,2.51733 -0.85333,1.23734 -1.96267,2.432 -1.10933,1.19467 -2.26133,2.34667 -0.64,0.64 -1.49333,1.536 -0.85334,0.896 -1.62134,1.83467 -0.768,0.93866 -1.28,1.83466 -0.512,0.896 -0.512,1.536 h 12.16 v 2.98667 h -16 q -0.0427,-0.21333 -0.0427,-0.42667 0,-0.256 0,-0.46933 0,-1.792 0.59733,-3.328 0.59733,-1.536 1.536,-2.90133 0.93867,-1.36534 2.09067,-2.56 1.19466,-1.23734 2.34666,-2.38934 0.93867,-0.93866 1.792,-1.83466 0.896,-0.896 1.536,-1.792 0.68267,-0.896 1.06667,-1.83467 0.42667,-0.98133 0.42667,-2.00533 0,-1.152 -0.384,-1.96267 -0.34134,-0.81067 -0.98134,-1.32267 -0.59733,-0.55466 -1.408,-0.81066 -0.81066,-0.256 -1.74933,-0.256 -1.10933,0 -2.048,0.29866 -0.896,0.29867 -1.62133,0.72534 -0.68267,0.42666 -1.19467,0.85333 -0.512,0.384 -0.768,0.64 l -1.74933,-2.47467 q 0.34133,-0.384 1.024,-0.93866 0.68266,-0.55467 1.62133,-1.024 0.98133,-0.512 2.176,-0.85334 1.19467,-0.34133 2.56,-0.34133 4.13867,0 6.10133,1.92 2.00534,1.87733 2.00534,5.41867 z"
           style="font-style:normal;font-variant:normal;font-weight:normal;font-stretch:normal;font-size:42.66666794px;line-height:53.33333588px;font-family:'Ubuntu Mono';-inkscape-font-specification:'Ubuntu Mono'"
           id="path5672" />
      </g>
      <g
         aria-label="3"
         transform="matrix(0.15549557,-0.2140213,0.2140213,0.15549557,-41.135133,-171.251)"
         style="font-style:normal;font-weight:normal;font-size:42.66666794px;line-height:1.25;font-family:sans-serif;letter-spacing:0px;word-spacing:0px;fill:#000000;fill-opacity:1;stroke:none"
         id="flowRoot11262">
        <path
           d="m 575.71135,255.69581 q 3.37067,0 4.77867,-1.32267 1.45066,-1.36533 1.45066,-3.62666 0,-1.45067 -0.59733,-2.432 -0.59733,-0.98134 -1.57867,-1.57867 -0.98133,-0.59733 -2.26133,-0.85333 -1.28,-0.256 -2.688,-0.256 h -0.896 v -2.85867 h 1.23733 q 0.93867,0 1.92,-0.17067 1.024,-0.21333 1.83467,-0.68266 0.85333,-0.512 1.36533,-1.36534 0.512,-0.85333 0.512,-2.176 0,-2.176 -1.36533,-3.072 -1.32267,-0.93866 -3.11467,-0.93866 -1.83466,0 -3.11466,0.55466 -1.28,0.512 -2.13334,1.06667 l -1.36533,-2.688 q 0.896,-0.64 2.688,-1.32267 1.83467,-0.72533 4.05333,-0.72533 2.09067,0 3.584,0.512 1.49334,0.512 2.432,1.45067 0.98134,0.93866 1.45067,2.21866 0.46933,1.23734 0.46933,2.73067 0,2.09067 -1.10933,3.54133 -1.06667,1.45067 -2.77333,2.21867 2.048,0.59733 3.54133,2.34667 1.49333,1.70666 1.49333,4.56533 0,1.70667 -0.59733,3.2 -0.55467,1.45067 -1.74933,2.51733 -1.152,1.06667 -3.02934,1.664 -1.83466,0.59734 -4.39466,0.59734 -0.98134,0 -2.048,-0.17067 -1.024,-0.128 -1.92,-0.384 -0.896,-0.21333 -1.62134,-0.42667 -0.68266,-0.256 -0.98133,-0.384 l 0.68267,-3.02933 q 0.68266,0.34133 2.176,0.81067 1.49333,0.46933 3.66933,0.46933 z"
           style="font-style:normal;font-variant:normal;font-weight:normal;font-stretch:normal;font-size:42.66666794px;line-height:53.33333588px;font-family:'Ubuntu Mono';-inkscape-font-specification:'Ubuntu Mono'"
           id="path5669" />
      </g>
      <g
         aria-label="4"
         transform="matrix(0.13227244,-0.22910258,0.22910258,0.13227244,-51.148017,-169.6633)"
         style="font-style:normal;font-weight:normal;font-size:42.66666794px;line-height:1.25;font-family:sans-serif;letter-spacing:0px;word-spacing:0px;fill:#000000;fill-opacity:1;stroke:none"
         id="flowRoot11270">
        <path
           d="m 568.20202,249.12514 q 0.72533,-1.70666 1.96266,-3.92533 1.28,-2.21867 2.85867,-4.56533 1.57867,-2.38934 3.37067,-4.65067 1.792,-2.304 3.62666,-4.13867 h 3.41334 v 16.768 h 3.11466 v 2.90134 h -3.11466 v 6.74133 h -3.41334 v -6.74133 h -11.81866 z m 11.81866,-13.09866 q -1.152,1.23733 -2.34666,2.73066 -1.152,1.49334 -2.26134,3.15734 -1.10933,1.62133 -2.09066,3.328 -0.93867,1.70666 -1.70667,3.37066 h 8.40533 z"
           style="font-style:normal;font-variant:normal;font-weight:normal;font-stretch:normal;font-size:42.66666794px;line-height:53.33333588px;font-family:'Ubuntu Mono';-inkscape-font-specification:'Ubuntu Mono'"
           id="path5666" />
      </g>
      <g
         aria-label="5"
         transform="matrix(0.10760009,-0.24167376,0.24167376,0.10760009,-60.940084,-167.03767)"
         style="font-style:normal;font-weight:normal;font-size:42.66666794px;line-height:1.25;font-family:sans-serif;letter-spacing:0px;word-spacing:0px;fill:#000000;fill-opacity:1;stroke:none"
         id="flowRoot11278">
        <path
           d="m 574.60202,242.04248 q 5.71733,0.21333 8.32,2.51733 2.60266,2.304 2.60266,6.18667 0,1.74933 -0.55466,3.24266 -0.55467,1.49334 -1.74934,2.56 -1.152,1.06667 -2.98666,1.664 -1.792,0.59734 -4.26667,0.59734 -1.024,0 -2.048,-0.17067 -0.98133,-0.128 -1.87733,-0.34133 -0.896,-0.21334 -1.57867,-0.42667 -0.68267,-0.256 -0.98133,-0.42667 l 0.68266,-3.02933 q 0.68267,0.34133 2.09067,0.81067 1.45067,0.46933 3.62667,0.46933 1.70666,0 2.85866,-0.384 1.152,-0.384 1.83467,-1.024 0.72533,-0.68267 1.024,-1.536 0.34133,-0.85333 0.34133,-1.792 0,-1.45067 -0.512,-2.56 -0.46933,-1.152 -1.70666,-1.92 -1.19467,-0.768 -3.328,-1.152 -2.09067,-0.42667 -5.29067,-0.42667 0.256,-1.87733 0.384,-3.49866 0.17067,-1.664 0.256,-3.2 0.128,-1.57867 0.17067,-3.11467 0.0853,-1.536 0.17066,-3.24267 h 12.71467 v 2.98667 h -9.64267 q -0.0427,0.59733 -0.128,1.57867 -0.0427,0.93866 -0.128,2.00533 -0.0853,1.06667 -0.17066,2.048 -0.0853,0.98133 -0.128,1.57867 z"
           style="font-style:normal;font-variant:normal;font-weight:normal;font-stretch:normal;font-size:42.66666794px;line-height:53.33333588px;font-family:'Ubuntu Mono';-inkscape-font-specification:'Ubuntu Mono'"
           id="path5663" />
      </g>
      <g
         aria-label="0"
         transform="matrix(0.08174886,-0.25159712,0.25159712,0.08174886,-70.404058,-163.40288)"
         style="font-style:normal;font-weight:normal;font-size:42.66666794px;line-height:1.25;font-family:sans-serif;letter-spacing:0px;word-spacing:0px;fill:#000000;fill-opacity:1;stroke:none"
         id="flowRoot11286">
        <path
           d="m 579.80735,244.55981 q 0,1.10933 -0.68267,1.92 -0.64,0.81067 -1.70666,0.81067 -1.10934,0 -1.792,-0.81067 -0.68267,-0.81067 -0.68267,-1.92 0,-1.10933 0.68267,-1.96267 0.68266,-0.85333 1.792,-0.85333 1.06666,0 1.70666,0.85333 0.68267,0.85334 0.68267,1.96267 z m -11.17867,0.46933 q 0,-6.656 2.26134,-10.19733 2.304,-3.584 6.44266,-3.584 4.18134,0 6.44267,3.584 2.26133,3.54133 2.26133,10.19733 0,6.656 -2.26133,10.24 -2.26133,3.54134 -6.44267,3.54134 -4.13866,0 -6.44266,-3.54134 -2.26134,-3.584 -2.26134,-10.24 z m 13.824,0 q 0,-2.176 -0.256,-4.096 -0.256,-1.96266 -0.85333,-3.41333 -0.59733,-1.45067 -1.57867,-2.304 -0.98133,-0.85333 -2.432,-0.85333 -1.45066,0 -2.432,0.85333 -0.98133,0.85333 -1.57866,2.304 -0.59734,1.45067 -0.85334,3.41333 -0.256,1.92 -0.256,4.096 0,2.176 0.256,4.13867 0.256,1.92 0.85334,3.37067 0.59733,1.45066 1.57866,2.304 0.98134,0.85333 2.432,0.85333 1.45067,0 2.432,-0.85333 0.98134,-0.85334 1.57867,-2.304 0.59733,-1.45067 0.85333,-3.37067 0.256,-1.96267 0.256,-4.13867 z"
           style="font-style:normal;font-variant:normal;font-weight:normal;font-stretch:normal;font-size:42.66666794px;line-height:53.33333588px;font-family:'Ubuntu Mono';-inkscape-font-specification:'Ubuntu Mono'"
           id="path5660" />
      </g>
      <g
         aria-label="1"
         transform="matrix(0.05500197,-0.25876393,0.25876393,0.05500197,-79.436255,-158.79874)"
         style="font-style:normal;font-weight:normal;font-size:42.66666794px;line-height:1.25;font-family:sans-serif;letter-spacing:0px;word-spacing:0px;fill:#000000;fill-opacity:1;stroke:none"
         id="flowRoot11294">
        <path
           d="m 569.86602,237.30648 q 2.176,-0.85334 4.224,-2.13334 2.048,-1.32266 3.79733,-3.328 h 2.47467 v 23.424 h 4.992 v 2.98667 h -14.208 v -2.98667 h 5.71733 v -18.51733 q -0.46933,0.42667 -1.152,0.896 -0.64,0.42667 -1.45067,0.85333 -0.768,0.42667 -1.62133,0.81067 -0.85333,0.384 -1.664,0.64 z"
           style="font-style:normal;font-variant:normal;font-weight:normal;font-stretch:normal;font-size:42.66666794px;line-height:53.33333588px;font-family:'Ubuntu Mono';-inkscape-font-specification:'Ubuntu Mono'"
           id="path5657" />
      </g>
      <g
         aria-label="2"
         transform="matrix(0.02765246,-0.26309566,0.26309566,0.02765246,-87.9377,-153.27571)"
         style="font-style:normal;font-weight:normal;font-size:42.66666794px;line-height:1.25;font-family:sans-serif;letter-spacing:0px;word-spacing:0px;fill:#000000;fill-opacity:1;stroke:none"
         id="flowRoot11302">
        <path
           d="m 584.58602,238.58648 q 0,1.36533 -0.55467,2.64533 -0.512,1.28 -1.408,2.51733 -0.85333,1.23734 -1.96267,2.432 -1.10933,1.19467 -2.26133,2.34667 -0.64,0.64 -1.49333,1.536 -0.85334,0.896 -1.62134,1.83467 -0.768,0.93866 -1.28,1.83466 -0.512,0.896 -0.512,1.536 h 12.16 v 2.98667 h -16 q -0.0427,-0.21333 -0.0427,-0.42667 0,-0.256 0,-0.46933 0,-1.792 0.59733,-3.328 0.59733,-1.536 1.536,-2.90133 0.93867,-1.36534 2.09067,-2.56 1.19466,-1.23734 2.34666,-2.38934 0.93867,-0.93866 1.792,-1.83466 0.896,-0.896 1.536,-1.792 0.68267,-0.896 1.06667,-1.83467 0.42667,-0.98133 0.42667,-2.00533 0,-1.152 -0.384,-1.96267 -0.34134,-0.81067 -0.98134,-1.32267 -0.59733,-0.55466 -1.408,-0.81066 -0.81066,-0.256 -1.74933,-0.256 -1.10933,0 -2.048,0.29866 -0.896,0.29867 -1.62133,0.72534 -0.68267,0.42666 -1.19467,0.85333 -0.512,0.384 -0.768,0.64 l -1.74933,-2.47467 q 0.34133,-0.384 1.024,-0.93866 0.68266,-0.55467 1.62133,-1.024 0.98133,-0.512 2.176,-0.85334 1.19467,-0.34133 2.56,-0.34133 4.13867,0 6.10133,1.92 2.00534,1.87733 2.00534,5.41867 z"
           style="font-style:normal;font-variant:normal;font-weight:normal;font-stretch:normal;font-size:42.66666794px;line-height:53.33333588px;font-family:'Ubuntu Mono';-inkscape-font-specification:'Ubuntu Mono'"
           id="path5654" />
      </g>
      <g
         aria-label="3"
         transform="matrix(0,-0.26454486,0.26454486,0,-95.815265,-146.89428)"
         style="font-style:normal;font-weight:normal;font-size:42.66666794px;line-height:1.25;font-family:sans-serif;letter-spacing:0px;word-spacing:0px;fill:#000000;fill-opacity:1;stroke:none"
         id="flowRoot11310">
        <path
           d="m 575.71135,255.69581 q 3.37067,0 4.77867,-1.32267 1.45066,-1.36533 1.45066,-3.62666 0,-1.45067 -0.59733,-2.432 -0.59733,-0.98134 -1.57867,-1.57867 -0.98133,-0.59733 -2.26133,-0.85333 -1.28,-0.256 -2.688,-0.256 h -0.896 v -2.85867 h 1.23733 q 0.93867,0 1.92,-0.17067 1.024,-0.21333 1.83467,-0.68266 0.85333,-0.512 1.36533,-1.36534 0.512,-0.85333 0.512,-2.176 0,-2.176 -1.36533,-3.072 -1.32267,-0.93866 -3.11467,-0.93866 -1.83466,0 -3.11466,0.55466 -1.28,0.512 -2.13334,1.06667 l -1.36533,-2.688 q 0.896,-0.64 2.688,-1.32267 1.83467,-0.72533 4.05333,-0.72533 2.09067,0 3.584,0.512 1.49334,0.512 2.432,1.45067 0.98134,0.93866 1.45067,2.21866 0.46933,1.23734 0.46933,2.73067 0,2.09067 -1.10933,3.54133 -1.06667,1.45067 -2.77333,2.21867 2.048,0.59733 3.54133,2.34667 1.49333,1.70666 1.49333,4.56533 0,1.70667 -0.59733,3.2 -0.55467,1.45067 -1.74933,2.51733 -1.152,1.06667 -3.02934,1.664 -1.83466,0.59734 -4.39466,0.59734 -0.98134,0 -2.048,-0.17067 -1.024,-0.128 -1.92,-0.384 -0.896,-0.21333 -1.62134,-0.42667 -0.68266,-0.256 -0.98133,-0.384 l 0.68267,-3.02933 q 0.68266,0.34133 2.176,0.81067 1.49333,0.46933 3.66933,0.46933 z"
           style="font-style:normal;font-variant:normal;font-weight:normal;font-stretch:normal;font-size:42.66666794px;line-height:53.33333588px;font-family:'Ubuntu Mono';-inkscape-font-specification:'Ubuntu Mono'"
           id="path5651" />
      </g>
      <g
         aria-label="4"
         transform="matrix(-0.02765247,-0.26309565,0.26309565,-0.02765247,-102.98263,-139.72438)"
         style="font-style:normal;font-weight:normal;font-size:42.66666794px;line-height:1.25;font-family:sans-serif;letter-spacing:0px;word-spacing:0px;fill:#000000;fill-opacity:1;stroke:none"
         id="flowRoot11318">
        <path
           d="m 568.20202,249.12514 q 0.72533,-1.70666 1.96266,-3.92533 1.28,-2.21867 2.85867,-4.56533 1.57867,-2.38934 3.37067,-4.65067 1.792,-2.304 3.62666,-4.13867 h 3.41334 v 16.768 h 3.11466 v 2.90134 h -3.11466 v 6.74133 h -3.41334 v -6.74133 h -11.81866 z m 11.81866,-13.09866 q -1.152,1.23733 -2.34666,2.73066 -1.152,1.49334 -2.26134,3.15734 -1.10933,1.62133 -2.09066,3.328 -0.93867,1.70666 -1.70667,3.37066 h 8.40533 z"
           style="font-style:normal;font-variant:normal;font-weight:normal;font-stretch:normal;font-size:42.66666794px;line-height:53.33333588px;font-family:'Ubuntu Mono';-inkscape-font-specification:'Ubuntu Mono'"
           id="path5648" />
      </g>
      <g
         aria-label="5"
         transform="matrix(-0.05500198,-0.25876391,0.25876391,-0.05500198,-109.36128,-131.84457)"
         style="font-style:normal;font-weight:normal;font-size:42.66666794px;line-height:1.25;font-family:sans-serif;letter-spacing:0px;word-spacing:0px;fill:#000000;fill-opacity:1;stroke:none"
         id="flowRoot11326">
        <path
           d="m 574.60202,242.04248 q 5.71733,0.21333 8.32,2.51733 2.60266,2.304 2.60266,6.18667 0,1.74933 -0.55466,3.24266 -0.55467,1.49334 -1.74934,2.56 -1.152,1.06667 -2.98666,1.664 -1.792,0.59734 -4.26667,0.59734 -1.024,0 -2.048,-0.17067 -0.98133,-0.128 -1.87733,-0.34133 -0.896,-0.21334 -1.57867,-0.42667 -0.68267,-0.256 -0.98133,-0.42667 l 0.68266,-3.02933 q 0.68267,0.34133 2.09067,0.81067 1.45067,0.46933 3.62667,0.46933 1.70666,0 2.85866,-0.384 1.152,-0.384 1.83467,-1.024 0.72533,-0.68267 1.024,-1.536 0.34133,-0.85333 0.34133,-1.792 0,-1.45067 -0.512,-2.56 -0.46933,-1.152 -1.70666,-1.92 -1.19467,-0.768 -3.328,-1.152 -2.09067,-0.42667 -5.29067,-0.42667 0.256,-1.87733 0.384,-3.49866 0.17067,-1.664 0.256,-3.2 0.128,-1.57867 0.17067,-3.11467 0.0853,-1.536 0.17066,-3.24267 h 12.71467 v 2.98667 h -9.64267 q -0.0427,0.59733 -0.128,1.57867 -0.0427,0.93866 -0.128,2.00533 -0.0853,1.06667 -0.17066,2.048 -0.0853,0.98133 -0.128,1.57867 z"
           style="font-style:normal;font-variant:normal;font-weight:normal;font-stretch:normal;font-size:42.66666794px;line-height:53.33333588px;font-family:'Ubuntu Mono';-inkscape-font-specification:'Ubuntu Mono'"
           id="path5645" />
      </g>
      <g
         aria-label="0"
         transform="matrix(-0.08174886,-0.2515971,0.2515971,-0.08174886,-114.88131,-123.34118)"
         style="font-style:normal;font-weight:normal;font-size:42.66666794px;line-height:1.25;font-family:sans-serif;letter-spacing:0px;word-spacing:0px;fill:#000000;fill-opacity:1;stroke:none"
         id="flowRoot11334">
        <path
           d="m 579.80735,244.55981 q 0,1.10933 -0.68267,1.92 -0.64,0.81067 -1.70666,0.81067 -1.10934,0 -1.792,-0.81067 -0.68267,-0.81067 -0.68267,-1.92 0,-1.10933 0.68267,-1.96267 0.68266,-0.85333 1.792,-0.85333 1.06666,0 1.70666,0.85333 0.68267,0.85334 0.68267,1.96267 z m -11.17867,0.46933 q 0,-6.656 2.26134,-10.19733 2.304,-3.584 6.44266,-3.584 4.18134,0 6.44267,3.584 2.26133,3.54133 2.26133,10.19733 0,6.656 -2.26133,10.24 -2.26133,3.54134 -6.44267,3.54134 -4.13866,0 -6.44266,-3.54134 -2.26134,-3.584 -2.26134,-10.24 z m 13.824,0 q 0,-2.176 -0.256,-4.096 -0.256,-1.96266 -0.85333,-3.41333 -0.59733,-1.45067 -1.57867,-2.304 -0.98133,-0.85333 -2.432,-0.85333 -1.45066,0 -2.432,0.85333 -0.98133,0.85333 -1.57866,2.304 -0.59734,1.45067 -0.85334,3.41333 -0.256,1.92 -0.256,4.096 0,2.176 0.256,4.13867 0.256,1.92 0.85334,3.37067 0.59733,1.45066 1.57866,2.304 0.98134,0.85333 2.432,0.85333 1.45067,0 2.432,-0.85333 0.98134,-0.85334 1.57867,-2.304 0.59733,-1.45067 0.85333,-3.37067 0.256,-1.96267 0.256,-4.13867 z"
           style="font-style:normal;font-variant:normal;font-weight:normal;font-stretch:normal;font-size:42.66666794px;line-height:53.33333588px;font-family:'Ubuntu Mono';-inkscape-font-specification:'Ubuntu Mono'"
           id="path5642" />
      </g>
      <g
         aria-label="1"
         transform="matrix(-0.10760009,-0.24167374,0.24167374,-0.10760009,-119.48228,-114.30736)"
         style="font-style:normal;font-weight:normal;font-size:42.66666794px;line-height:1.25;font-family:sans-serif;letter-spacing:0px;word-spacing:0px;fill:#000000;fill-opacity:1;stroke:none"
         id="flowRoot11342">
        <path
           d="m 569.86602,237.30648 q 2.176,-0.85334 4.224,-2.13334 2.048,-1.32266 3.79733,-3.328 h 2.47467 v 23.424 h 4.992 v 2.98667 h -14.208 v -2.98667 h 5.71733 v -18.51733 q -0.46933,0.42667 -1.152,0.896 -0.64,0.42667 -1.45067,0.85333 -0.768,0.42667 -1.62133,0.81067 -0.85333,0.384 -1.664,0.64 z"
           style="font-style:normal;font-variant:normal;font-weight:normal;font-stretch:normal;font-size:42.66666794px;line-height:53.33333588px;font-family:'Ubuntu Mono';-inkscape-font-specification:'Ubuntu Mono'"
           id="path5639" />
      </g>
      <g
         aria-label="2"
         transform="matrix(-0.13227244,-0.22910256,0.22910256,-0.13227244,-123.11373,-104.8421)"
         style="font-style:normal;font-weight:normal;font-size:42.66666794px;line-height:1.25;font-family:sans-serif;letter-spacing:0px;word-spacing:0px;fill:#000000;fill-opacity:1;stroke:none"
         id="flowRoot11350">
        <path
           d="m 584.58602,238.58648 q 0,1.36533 -0.55467,2.64533 -0.512,1.28 -1.408,2.51733 -0.85333,1.23734 -1.96267,2.432 -1.10933,1.19467 -2.26133,2.34667 -0.64,0.64 -1.49333,1.536 -0.85334,0.896 -1.62134,1.83467 -0.768,0.93866 -1.28,1.83466 -0.512,0.896 -0.512,1.536 h 12.16 v 2.98667 h -16 q -0.0427,-0.21333 -0.0427,-0.42667 0,-0.256 0,-0.46933 0,-1.792 0.59733,-3.328 0.59733,-1.536 1.536,-2.90133 0.93867,-1.36534 2.09067,-2.56 1.19466,-1.23734 2.34666,-2.38934 0.93867,-0.93866 1.792,-1.83466 0.896,-0.896 1.536,-1.792 0.68267,-0.896 1.06667,-1.83467 0.42667,-0.98133 0.42667,-2.00533 0,-1.152 -0.384,-1.96267 -0.34134,-0.81067 -0.98134,-1.32267 -0.59733,-0.55466 -1.408,-0.81066 -0.81066,-0.256 -1.74933,-0.256 -1.10933,0 -2.048,0.29866 -0.896,0.29867 -1.62133,0.72534 -0.68267,0.42666 -1.19467,0.85333 -0.512,0.384 -0.768,0.64 l -1.74933,-2.47467 q 0.34133,-0.384 1.024,-0.93866 0.68266,-0.55467 1.62133,-1.024 0.98133,-0.512 2.176,-0.85334 1.19467,-0.34133 2.56,-0.34133 4.13867,0 6.10133,1.92 2.00534,1.87733 2.00534,5.41867 z"
           style="font-style:normal;font-variant:normal;font-weight:normal;font-stretch:normal;font-size:42.66666794px;line-height:53.33333588px;font-family:'Ubuntu Mono';-inkscape-font-specification:'Ubuntu Mono'"
           id="path5636" />
      </g>
      <g
         aria-label="3"
         transform="matrix(-0.15549557,-0.21402128,0.21402128,-0.15549557,-125.7359,-95.049108)"
         style="font-style:normal;font-weight:normal;font-size:42.66666794px;line-height:1.25;font-family:sans-serif;letter-spacing:0px;word-spacing:0px;fill:#000000;fill-opacity:1;stroke:none"
         id="flowRoot11358">
        <path
           d="m 575.71135,255.69581 q 3.37067,0 4.77867,-1.32267 1.45066,-1.36533 1.45066,-3.62666 0,-1.45067 -0.59733,-2.432 -0.59733,-0.98134 -1.57867,-1.57867 -0.98133,-0.59733 -2.26133,-0.85333 -1.28,-0.256 -2.688,-0.256 h -0.896 v -2.85867 h 1.23733 q 0.93867,0 1.92,-0.17067 1.024,-0.21333 1.83467,-0.68266 0.85333,-0.512 1.36533,-1.36534 0.512,-0.85333 0.512,-2.176 0,-2.176 -1.36533,-3.072 -1.32267,-0.93866 -3.11467,-0.93866 -1.83466,0 -3.11466,0.55466 -1.28,0.512 -2.13334,1.06667 l -1.36533,-2.688 q 0.896,-0.64 2.688,-1.32267 1.83467,-0.72533 4.05333,-0.72533 2.09067,0 3.584,0.512 1.49334,0.512 2.432,1.45067 0.98134,0.93866 1.45067,2.21866 0.46933,1.23734 0.46933,2.73067 0,2.09067 -1.10933,3.54133 -1.06667,1.45067 -2.77333,2.21867 2.048,0.59733 3.54133,2.34667 1.49333,1.70666 1.49333,4.56533 0,1.70667 -0.59733,3.2 -0.55467,1.45067 -1.74933,2.51733 -1.152,1.06667 -3.02934,1.664 -1.83466,0.59734 -4.39466,0.59734 -0.98134,0 -2.048,-0.17067 -1.024,-0.128 -1.92,-0.384 -0.896,-0.21333 -1.62134,-0.42667 -0.68266,-0.256 -0.98133,-0.384 l 0.68267,-3.02933 q 0.68266,0.34133 2.176,0.81067 1.49333,0.46933 3.66933,0.46933 z"
           style="font-style:normal;font-variant:normal;font-weight:normal;font-stretch:normal;font-size:42.66666794px;line-height:53.33333588px;font-family:'Ubuntu Mono';-inkscape-font-specification:'Ubuntu Mono'"
           id="path5633" />
      </g>
      <g
         aria-label="4"
         transform="matrix(-0.17701506,-0.19659514,0.19659514,-0.17701506,-127.32007,-85.035663)"
         style="font-style:normal;font-weight:normal;font-size:42.66666794px;line-height:1.25;font-family:sans-serif;letter-spacing:0px;word-spacing:0px;fill:#000000;fill-opacity:1;stroke:none"
         id="flowRoot11366">
        <path
           d="m 568.20202,249.12514 q 0.72533,-1.70666 1.96266,-3.92533 1.28,-2.21867 2.85867,-4.56533 1.57867,-2.38934 3.37067,-4.65067 1.792,-2.304 3.62666,-4.13867 h 3.41334 v 16.768 h 3.11466 v 2.90134 h -3.11466 v 6.74133 h -3.41334 v -6.74133 h -11.81866 z m 11.81866,-13.09866 q -1.152,1.23733 -2.34666,2.73066 -1.152,1.49334 -2.26134,3.15734 -1.10933,1.62133 -2.09066,3.328 -0.93867,1.70666 -1.70667,3.37066 h 8.40533 z"
           style="font-style:normal;font-variant:normal;font-weight:normal;font-stretch:normal;font-size:42.66666794px;line-height:53.33333588px;font-family:'Ubuntu Mono';-inkscape-font-specification:'Ubuntu Mono'"
           id="path5630" />
      </g>
      <g
         aria-label="5"
         transform="matrix(-0.19659515,-0.17701505,0.17701505,-0.19659515,-127.84886,-74.911485)"
         style="font-style:normal;font-weight:normal;font-size:42.66666794px;line-height:1.25;font-family:sans-serif;letter-spacing:0px;word-spacing:0px;fill:#000000;fill-opacity:1;stroke:none"
         id="flowRoot11374">
        <path
           d="m 574.60202,242.04248 q 5.71733,0.21333 8.32,2.51733 2.60266,2.304 2.60266,6.18667 0,1.74933 -0.55466,3.24266 -0.55467,1.49334 -1.74934,2.56 -1.152,1.06667 -2.98666,1.664 -1.792,0.59734 -4.26667,0.59734 -1.024,0 -2.048,-0.17067 -0.98133,-0.128 -1.87733,-0.34133 -0.896,-0.21334 -1.57867,-0.42667 -0.68267,-0.256 -0.98133,-0.42667 l 0.68266,-3.02933 q 0.68267,0.34133 2.09067,0.81067 1.45067,0.46933 3.62667,0.46933 1.70666,0 2.85866,-0.384 1.152,-0.384 1.83467,-1.024 0.72533,-0.68267 1.024,-1.536 0.34133,-0.85333 0.34133,-1.792 0,-1.45067 -0.512,-2.56 -0.46933,-1.152 -1.70666,-1.92 -1.19467,-0.768 -3.328,-1.152 -2.09067,-0.42667 -5.29067,-0.42667 0.256,-1.87733 0.384,-3.49866 0.17067,-1.664 0.256,-3.2 0.128,-1.57867 0.17067,-3.11467 0.0853,-1.536 0.17066,-3.24267 h 12.71467 v 2.98667 h -9.64267 q -0.0427,0.59733 -0.128,1.57867 -0.0427,0.93866 -0.128,2.00533 -0.0853,1.06667 -0.17066,2.048 -0.0853,0.98133 -0.128,1.57867 z"
           style="font-style:normal;font-variant:normal;font-weight:normal;font-stretch:normal;font-size:42.66666794px;line-height:53.33333588px;font-family:'Ubuntu Mono';-inkscape-font-specification:'Ubuntu Mono'"
           id="path5627" />
      </g>
      <g
         aria-label="0"
         transform="matrix(-0.21402129,-0.15549556,0.15549556,-0.21402129,-127.31649,-64.787496)"
         style="font-style:normal;font-weight:normal;font-size:42.66666794px;line-height:1.25;font-family:sans-serif;letter-spacing:0px;word-spacing:0px;fill:#000000;fill-opacity:1;stroke:none"
         id="flowRoot11382">
        <path
           d="m 579.80735,244.55981 q 0,1.10933 -0.68267,1.92 -0.64,0.81067 -1.70666,0.81067 -1.10934,0 -1.792,-0.81067 -0.68267,-0.81067 -0.68267,-1.92 0,-1.10933 0.68267,-1.96267 0.68266,-0.85333 1.792,-0.85333 1.06666,0 1.70666,0.85333 0.68267,0.85334 0.68267,1.96267 z m -11.17867,0.46933 q 0,-6.656 2.26134,-10.19733 2.304,-3.584 6.44266,-3.584 4.18134,0 6.44267,3.584 2.26133,3.54133 2.26133,10.19733 0,6.656 -2.26133,10.24 -2.26133,3.54134 -6.44267,3.54134 -4.13866,0 -6.44266,-3.54134 -2.26134,-3.584 -2.26134,-10.24 z m 13.824,0 q 0,-2.176 -0.256,-4.096 -0.256,-1.96266 -0.85333,-3.41333 -0.59733,-1.45067 -1.57867,-2.304 -0.98133,-0.85333 -2.432,-0.85333 -1.45066,0 -2.432,0.85333 -0.98133,0.85333 -1.57866,2.304 -0.59734,1.45067 -0.85334,3.41333 -0.256,1.92 -0.256,4.096 0,2.176 0.256,4.13867 0.256,1.92 0.85334,3.37067 0.59733,1.45066 1.57866,2.304 0.98134,0.85333 2.432,0.85333 1.45067,0 2.432,-0.85333 0.98134,-0.85334 1.57867,-2.304 0.59733,-1.45067 0.85333,-3.37067 0.256,-1.96267 0.256,-4.13867 z"
           style="font-style:normal;font-variant:normal;font-weight:normal;font-stretch:normal;font-size:42.66666794px;line-height:53.33333588px;font-family:'Ubuntu Mono';-inkscape-font-specification:'Ubuntu Mono'"
           id="path5624" />
      </g>
      <g
         aria-label="1"
         transform="matrix(-0.22910257,-0.13227243,0.13227243,-0.22910257,-125.72879,-54.774611)"
         style="font-style:normal;font-weight:normal;font-size:42.66666794px;line-height:1.25;font-family:sans-serif;letter-spacing:0px;word-spacing:0px;fill:#000000;fill-opacity:1;stroke:none"
         id="flowRoot11390">
        <path
           d="m 569.86602,237.30648 q 2.176,-0.85334 4.224,-2.13334 2.048,-1.32266 3.79733,-3.328 h 2.47467 v 23.424 h 4.992 v 2.98667 h -14.208 v -2.98667 h 5.71733 v -18.51733 q -0.46933,0.42667 -1.152,0.896 -0.64,0.42667 -1.45067,0.85333 -0.768,0.42667 -1.62133,0.81067 -0.85333,0.384 -1.664,0.64 z"
           style="font-style:normal;font-variant:normal;font-weight:normal;font-stretch:normal;font-size:42.66666794px;line-height:53.33333588px;font-family:'Ubuntu Mono';-inkscape-font-specification:'Ubuntu Mono'"
           id="path5621" />
      </g>
      <g
         aria-label="2"
         transform="matrix(-0.24167375,-0.10760008,0.10760008,-0.24167375,-123.10316,-44.982545)"
         style="font-style:normal;font-weight:normal;font-size:42.66666794px;line-height:1.25;font-family:sans-serif;letter-spacing:0px;word-spacing:0px;fill:#000000;fill-opacity:1;stroke:none"
         id="flowRoot11398">
        <path
           d="m 584.58602,238.58648 q 0,1.36533 -0.55467,2.64533 -0.512,1.28 -1.408,2.51733 -0.85333,1.23734 -1.96267,2.432 -1.10933,1.19467 -2.26133,2.34667 -0.64,0.64 -1.49333,1.536 -0.85334,0.896 -1.62134,1.83467 -0.768,0.93866 -1.28,1.83466 -0.512,0.896 -0.512,1.536 h 12.16 v 2.98667 h -16 q -0.0427,-0.21333 -0.0427,-0.42667 0,-0.256 0,-0.46933 0,-1.792 0.59733,-3.328 0.59733,-1.536 1.536,-2.90133 0.93867,-1.36534 2.09067,-2.56 1.19466,-1.23734 2.34666,-2.38934 0.93867,-0.93866 1.792,-1.83466 0.896,-0.896 1.536,-1.792 0.68267,-0.896 1.06667,-1.83467 0.42667,-0.98133 0.42667,-2.00533 0,-1.152 -0.384,-1.96267 -0.34134,-0.81067 -0.98134,-1.32267 -0.59733,-0.55466 -1.408,-0.81066 -0.81066,-0.256 -1.74933,-0.256 -1.10933,0 -2.048,0.29866 -0.896,0.29867 -1.62133,0.72534 -0.68267,0.42666 -1.19467,0.85333 -0.512,0.384 -0.768,0.64 l -1.74933,-2.47467 q 0.34133,-0.384 1.024,-0.93866 0.68266,-0.55467 1.62133,-1.024 0.98133,-0.512 2.176,-0.85334 1.19467,-0.34133 2.56,-0.34133 4.13867,0 6.10133,1.92 2.00534,1.87733 2.00534,5.41867 z"
           style="font-style:normal;font-variant:normal;font-weight:normal;font-stretch:normal;font-size:42.66666794px;line-height:53.33333588px;font-family:'Ubuntu Mono';-inkscape-font-specification:'Ubuntu Mono'"
           id="path5618" />
      </g>
      <g
         aria-label="3"
         transform="matrix(-0.25159711,-0.08174885,0.08174885,-0.25159711,-119.46837,-35.51857)"
         style="font-style:normal;font-weight:normal;font-size:42.66666794px;line-height:1.25;font-family:sans-serif;letter-spacing:0px;word-spacing:0px;fill:#000000;fill-opacity:1;stroke:none"
         id="flowRoot11406">
        <path
           d="m 575.71135,255.69581 q 3.37067,0 4.77867,-1.32267 1.45066,-1.36533 1.45066,-3.62666 0,-1.45067 -0.59733,-2.432 -0.59733,-0.98134 -1.57867,-1.57867 -0.98133,-0.59733 -2.26133,-0.85333 -1.28,-0.256 -2.688,-0.256 h -0.896 v -2.85867 h 1.23733 q 0.93867,0 1.92,-0.17067 1.024,-0.21333 1.83467,-0.68266 0.85333,-0.512 1.36533,-1.36534 0.512,-0.85333 0.512,-2.176 0,-2.176 -1.36533,-3.072 -1.32267,-0.93866 -3.11467,-0.93866 -1.83466,0 -3.11466,0.55466 -1.28,0.512 -2.13334,1.06667 l -1.36533,-2.688 q 0.896,-0.64 2.688,-1.32267 1.83467,-0.72533 4.05333,-0.72533 2.09067,0 3.584,0.512 1.49334,0.512 2.432,1.45067 0.98134,0.93866 1.45067,2.21866 0.46933,1.23734 0.46933,2.73067 0,2.09067 -1.10933,3.54133 -1.06667,1.45067 -2.77333,2.21867 2.048,0.59733 3.54133,2.34667 1.49333,1.70666 1.49333,4.56533 0,1.70667 -0.59733,3.2 -0.55467,1.45067 -1.74933,2.51733 -1.152,1.06667 -3.02934,1.664 -1.83466,0.59734 -4.39466,0.59734 -0.98134,0 -2.048,-0.17067 -1.024,-0.128 -1.92,-0.384 -0.896,-0.21333 -1.62134,-0.42667 -0.68266,-0.256 -0.98133,-0.384 l 0.68267,-3.02933 q 0.68266,0.34133 2.176,0.81067 1.49333,0.46933 3.66933,0.46933 z"
           style="font-style:normal;font-variant:normal;font-weight:normal;font-stretch:normal;font-size:42.66666794px;line-height:53.33333588px;font-family:'Ubuntu Mono';-inkscape-font-specification:'Ubuntu Mono'"
           id="path5615" />
      </g>
      <g
         aria-label="4"
         transform="matrix(-0.25876392,-0.05500196,0.05500196,-0.25876392,-114.86423,-26.486383)"
         style="font-style:normal;font-weight:normal;font-size:42.66666794px;line-height:1.25;font-family:sans-serif;letter-spacing:0px;word-spacing:0px;fill:#000000;fill-opacity:1;stroke:none"
         id="flowRoot11414">
        <path
           d="m 568.20202,249.12514 q 0.72533,-1.70666 1.96266,-3.92533 1.28,-2.21867 2.85867,-4.56533 1.57867,-2.38934 3.37067,-4.65067 1.792,-2.304 3.62666,-4.13867 h 3.41334 v 16.768 h 3.11466 v 2.90134 h -3.11466 v 6.74133 h -3.41334 v -6.74133 h -11.81866 z m 11.81866,-13.09866 q -1.152,1.23733 -2.34666,2.73066 -1.152,1.49334 -2.26134,3.15734 -1.10933,1.62133 -2.09066,3.328 -0.93867,1.70666 -1.70667,3.37066 h 8.40533 z"
           style="font-style:normal;font-variant:normal;font-weight:normal;font-stretch:normal;font-size:42.66666794px;line-height:53.33333588px;font-family:'Ubuntu Mono';-inkscape-font-specification:'Ubuntu Mono'"
           id="path5612" />
      </g>
      <g
         aria-label="5"
         transform="matrix(-0.26309565,-0.02765245,0.02765245,-0.26309565,-109.34119,-17.984938)"
         style="font-style:normal;font-weight:normal;font-size:42.66666794px;line-height:1.25;font-family:sans-serif;letter-spacing:0px;word-spacing:0px;fill:#000000;fill-opacity:1;stroke:none"
         id="flowRoot11422">
        <path
           d="m 574.60202,242.04248 q 5.71733,0.21333 8.32,2.51733 2.60266,2.304 2.60266,6.18667 0,1.74933 -0.55466,3.24266 -0.55467,1.49334 -1.74934,2.56 -1.152,1.06667 -2.98666,1.664 -1.792,0.59734 -4.26667,0.59734 -1.024,0 -2.048,-0.17067 -0.98133,-0.128 -1.87733,-0.34133 -0.896,-0.21334 -1.57867,-0.42667 -0.68267,-0.256 -0.98133,-0.42667 l 0.68266,-3.02933 q 0.68267,0.34133 2.09067,0.81067 1.45067,0.46933 3.62667,0.46933 1.70666,0 2.85866,-0.384 1.152,-0.384 1.83467,-1.024 0.72533,-0.68267 1.024,-1.536 0.34133,-0.85333 0.34133,-1.792 0,-1.45067 -0.512,-2.56 -0.46933,-1.152 -1.70666,-1.92 -1.19467,-0.768 -3.328,-1.152 -2.09067,-0.42667 -5.29067,-0.42667 0.256,-1.87733 0.384,-3.49866 0.17067,-1.664 0.256,-3.2 0.128,-1.57867 0.17067,-3.11467 0.0853,-1.536 0.17066,-3.24267 h 12.71467 v 2.98667 h -9.64267 q -0.0427,0.59733 -0.128,1.57867 -0.0427,0.93866 -0.128,2.00533 -0.0853,1.06667 -0.17066,2.048 -0.0853,0.98133 -0.128,1.57867 z"
           style="font-style:normal;font-variant:normal;font-weight:normal;font-stretch:normal;font-size:42.66666794px;line-height:53.33333588px;font-family:'Ubuntu Mono';-inkscape-font-specification:'Ubuntu Mono'"
           id="path5609" />
      </g>
      <g
         aria-label="0"
         transform="matrix(-0.26454485,1.6189391e-8,-1.6189391e-8,-0.26454485,-102.95976,-10.107373)"
         style="font-style:normal;font-weight:normal;font-size:42.66666794px;line-height:1.25;font-family:sans-serif;letter-spacing:0px;word-spacing:0px;fill:#000000;fill-opacity:1;stroke:none"
         id="flowRoot11430">
        <path
           d="m 579.80735,244.55981 q 0,1.10933 -0.68267,1.92 -0.64,0.81067 -1.70666,0.81067 -1.10934,0 -1.792,-0.81067 -0.68267,-0.81067 -0.68267,-1.92 0,-1.10933 0.68267,-1.96267 0.68266,-0.85333 1.792,-0.85333 1.06666,0 1.70666,0.85333 0.68267,0.85334 0.68267,1.96267 z m -11.17867,0.46933 q 0,-6.656 2.26134,-10.19733 2.304,-3.584 6.44266,-3.584 4.18134,0 6.44267,3.584 2.26133,3.54133 2.26133,10.19733 0,6.656 -2.26133,10.24 -2.26133,3.54134 -6.44267,3.54134 -4.13866,0 -6.44266,-3.54134 -2.26134,-3.584 -2.26134,-10.24 z m 13.824,0 q 0,-2.176 -0.256,-4.096 -0.256,-1.96266 -0.85333,-3.41333 -0.59733,-1.45067 -1.57867,-2.304 -0.98133,-0.85333 -2.432,-0.85333 -1.45066,0 -2.432,0.85333 -0.98133,0.85333 -1.57866,2.304 -0.59734,1.45067 -0.85334,3.41333 -0.256,1.92 -0.256,4.096 0,2.176 0.256,4.13867 0.256,1.92 0.85334,3.37067 0.59733,1.45066 1.57866,2.304 0.98134,0.85333 2.432,0.85333 1.45067,0 2.432,-0.85333 0.98134,-0.85334 1.57867,-2.304 0.59733,-1.45067 0.85333,-3.37067 0.256,-1.96267 0.256,-4.13867 z"
           style="font-style:normal;font-variant:normal;font-weight:normal;font-stretch:normal;font-size:42.66666794px;line-height:53.33333588px;font-family:'Ubuntu Mono';-inkscape-font-specification:'Ubuntu Mono'"
           id="path5606" />
      </g>
      <g
         aria-label="1"
         transform="matrix(-0.26309564,0.02765248,-0.02765248,-0.26309564,-95.789869,-2.9400051)"
         style="font-style:normal;font-weight:normal;font-size:42.66666794px;line-height:1.25;font-family:sans-serif;letter-spacing:0px;word-spacing:0px;fill:#000000;fill-opacity:1;stroke:none"
         id="flowRoot11438">
        <path
           d="m 569.86602,237.30648 q 2.176,-0.85334 4.224,-2.13334 2.048,-1.32266 3.79733,-3.328 h 2.47467 v 23.424 h 4.992 v 2.98667 h -14.208 v -2.98667 h 5.71733 v -18.51733 q -0.46933,0.42667 -1.152,0.896 -0.64,0.42667 -1.45067,0.85333 -0.768,0.42667 -1.62133,0.81067 -0.85333,0.384 -1.664,0.64 z"
           style="font-style:normal;font-variant:normal;font-weight:normal;font-stretch:normal;font-size:42.66666794px;line-height:53.33333588px;font-family:'Ubuntu Mono';-inkscape-font-specification:'Ubuntu Mono'"
           id="path5603" />
      </g>
      <g
         aria-label="2"
         transform="matrix(-0.2587639,0.05500198,-0.05500198,-0.2587639,-87.910054,3.4386378)"
         style="font-style:normal;font-weight:normal;font-size:42.66666794px;line-height:1.25;font-family:sans-serif;letter-spacing:0px;word-spacing:0px;fill:#000000;fill-opacity:1;stroke:none"
         id="flowRoot11446">
        <path
           d="m 584.58602,238.58648 q 0,1.36533 -0.55467,2.64533 -0.512,1.28 -1.408,2.51733 -0.85333,1.23734 -1.96267,2.432 -1.10933,1.19467 -2.26133,2.34667 -0.64,0.64 -1.49333,1.536 -0.85334,0.896 -1.62134,1.83467 -0.768,0.93866 -1.28,1.83466 -0.512,0.896 -0.512,1.536 h 12.16 v 2.98667 h -16 q -0.0427,-0.21333 -0.0427,-0.42667 0,-0.256 0,-0.46933 0,-1.792 0.59733,-3.328 0.59733,-1.536 1.536,-2.90133 0.93867,-1.36534 2.09067,-2.56 1.19466,-1.23734 2.34666,-2.38934 0.93867,-0.93866 1.792,-1.83466 0.896,-0.896 1.536,-1.792 0.68267,-0.896 1.06667,-1.83467 0.42667,-0.98133 0.42667,-2.00533 0,-1.152 -0.384,-1.96267 -0.34134,-0.81067 -0.98134,-1.32267 -0.59733,-0.55466 -1.408,-0.81066 -0.81066,-0.256 -1.74933,-0.256 -1.10933,0 -2.048,0.29866 -0.896,0.29867 -1.62133,0.72534 -0.68267,0.42666 -1.19467,0.85333 -0.512,0.384 -0.768,0.64 l -1.74933,-2.47467 q 0.34133,-0.384 1.024,-0.93866 0.68266,-0.55467 1.62133,-1.024 0.98133,-0.512 2.176,-0.85334 1.19467,-0.34133 2.56,-0.34133 4.13867,0 6.10133,1.92 2.00534,1.87733 2.00534,5.41867 z"
           style="font-style:normal;font-variant:normal;font-weight:normal;font-stretch:normal;font-size:42.66666794px;line-height:53.33333588px;font-family:'Ubuntu Mono';-inkscape-font-specification:'Ubuntu Mono'"
           id="path5600" />
      </g>
      <g
         aria-label="3"
         transform="matrix(-0.25159709,0.08174886,-0.08174886,-0.25159709,-79.40665,8.9586755)"
         style="font-style:normal;font-weight:normal;font-size:42.66666794px;line-height:1.25;font-family:sans-serif;letter-spacing:0px;word-spacing:0px;fill:#000000;fill-opacity:1;stroke:none"
         id="flowRoot11454">
        <path
           d="m 575.71135,255.69581 q 3.37067,0 4.77867,-1.32267 1.45066,-1.36533 1.45066,-3.62666 0,-1.45067 -0.59733,-2.432 -0.59733,-0.98134 -1.57867,-1.57867 -0.98133,-0.59733 -2.26133,-0.85333 -1.28,-0.256 -2.688,-0.256 h -0.896 v -2.85867 h 1.23733 q 0.93867,0 1.92,-0.17067 1.024,-0.21333 1.83467,-0.68266 0.85333,-0.512 1.36533,-1.36534 0.512,-0.85333 0.512,-2.176 0,-2.176 -1.36533,-3.072 -1.32267,-0.93866 -3.11467,-0.93866 -1.83466,0 -3.11466,0.55466 -1.28,0.512 -2.13334,1.06667 l -1.36533,-2.688 q 0.896,-0.64 2.688,-1.32267 1.83467,-0.72533 4.05333,-0.72533 2.09067,0 3.584,0.512 1.49334,0.512 2.432,1.45067 0.98134,0.93866 1.45067,2.21866 0.46933,1.23734 0.46933,2.73067 0,2.09067 -1.10933,3.54133 -1.06667,1.45067 -2.77333,2.21867 2.048,0.59733 3.54133,2.34667 1.49333,1.70666 1.49333,4.56533 0,1.70667 -0.59733,3.2 -0.55467,1.45067 -1.74933,2.51733 -1.152,1.06667 -3.02934,1.664 -1.83466,0.59734 -4.39466,0.59734 -0.98134,0 -2.048,-0.17067 -1.024,-0.128 -1.92,-0.384 -0.896,-0.21333 -1.62134,-0.42667 -0.68266,-0.256 -0.98133,-0.384 l 0.68267,-3.02933 q 0.68266,0.34133 2.176,0.81067 1.49333,0.46933 3.66933,0.46933 z"
           style="font-style:normal;font-variant:normal;font-weight:normal;font-stretch:normal;font-size:42.66666794px;line-height:53.33333588px;font-family:'Ubuntu Mono';-inkscape-font-specification:'Ubuntu Mono'"
           id="path5597" />
      </g>
      <g
         aria-label="4"
         transform="matrix(-0.24167373,0.10760009,-0.10760009,-0.24167373,-70.372843,13.559627)"
         style="font-style:normal;font-weight:normal;font-size:42.66666794px;line-height:1.25;font-family:sans-serif;letter-spacing:0px;word-spacing:0px;fill:#000000;fill-opacity:1;stroke:none"
         id="flowRoot11462">
        <path
           d="m 568.20202,249.12514 q 0.72533,-1.70666 1.96266,-3.92533 1.28,-2.21867 2.85867,-4.56533 1.57867,-2.38934 3.37067,-4.65067 1.792,-2.304 3.62666,-4.13867 h 3.41334 v 16.768 h 3.11466 v 2.90134 h -3.11466 v 6.74133 h -3.41334 v -6.74133 h -11.81866 z m 11.81866,-13.09866 q -1.152,1.23733 -2.34666,2.73066 -1.152,1.49334 -2.26134,3.15734 -1.10933,1.62133 -2.09066,3.328 -0.93867,1.70666 -1.70667,3.37066 h 8.40533 z"
           style="font-style:normal;font-variant:normal;font-weight:normal;font-stretch:normal;font-size:42.66666794px;line-height:53.33333588px;font-family:'Ubuntu Mono';-inkscape-font-specification:'Ubuntu Mono'"
           id="path5594" />
      </g>
      <g
         aria-label="5"
         transform="matrix(-0.22910255,0.13227244,-0.13227244,-0.22910255,-60.907578,17.191079)"
         style="font-style:normal;font-weight:normal;font-size:42.66666794px;line-height:1.25;font-family:sans-serif;letter-spacing:0px;word-spacing:0px;fill:#000000;fill-opacity:1;stroke:none"
         id="flowRoot11470">
        <path
           d="m 574.60202,242.04248 q 5.71733,0.21333 8.32,2.51733 2.60266,2.304 2.60266,6.18667 0,1.74933 -0.55466,3.24266 -0.55467,1.49334 -1.74934,2.56 -1.152,1.06667 -2.98666,1.664 -1.792,0.59734 -4.26667,0.59734 -1.024,0 -2.048,-0.17067 -0.98133,-0.128 -1.87733,-0.34133 -0.896,-0.21334 -1.57867,-0.42667 -0.68267,-0.256 -0.98133,-0.42667 l 0.68266,-3.02933 q 0.68267,0.34133 2.09067,0.81067 1.45067,0.46933 3.62667,0.46933 1.70666,0 2.85866,-0.384 1.152,-0.384 1.83467,-1.024 0.72533,-0.68267 1.024,-1.536 0.34133,-0.85333 0.34133,-1.792 0,-1.45067 -0.512,-2.56 -0.46933,-1.152 -1.70666,-1.92 -1.19467,-0.768 -3.328,-1.152 -2.09067,-0.42667 -5.29067,-0.42667 0.256,-1.87733 0.384,-3.49866 0.17067,-1.664 0.256,-3.2 0.128,-1.57867 0.17067,-3.11467 0.0853,-1.536 0.17066,-3.24267 h 12.71467 v 2.98667 h -9.64267 q -0.0427,0.59733 -0.128,1.57867 -0.0427,0.93866 -0.128,2.00533 -0.0853,1.06667 -0.17066,2.048 -0.0853,0.98133 -0.128,1.57867 z"
           style="font-style:normal;font-variant:normal;font-weight:normal;font-stretch:normal;font-size:42.66666794px;line-height:53.33333588px;font-family:'Ubuntu Mono';-inkscape-font-specification:'Ubuntu Mono'"
           id="path5591" />
      </g>
      <g
         aria-label="0"
         transform="matrix(-0.21402127,0.15549557,-0.15549557,-0.21402127,-51.114582,19.813248)"
         style="font-style:normal;font-weight:normal;font-size:42.66666794px;line-height:1.25;font-family:sans-serif;letter-spacing:0px;word-spacing:0px;fill:#000000;fill-opacity:1;stroke:none"
         id="flowRoot11478">
        <path
           d="m 579.80735,244.55981 q 0,1.10933 -0.68267,1.92 -0.64,0.81067 -1.70666,0.81067 -1.10934,0 -1.792,-0.81067 -0.68267,-0.81067 -0.68267,-1.92 0,-1.10933 0.68267,-1.96267 0.68266,-0.85333 1.792,-0.85333 1.06666,0 1.70666,0.85333 0.68267,0.85334 0.68267,1.96267 z m -11.17867,0.46933 q 0,-6.656 2.26134,-10.19733 2.304,-3.584 6.44266,-3.584 4.18134,0 6.44267,3.584 2.26133,3.54133 2.26133,10.19733 0,6.656 -2.26133,10.24 -2.26133,3.54134 -6.44267,3.54134 -4.13866,0 -6.44266,-3.54134 -2.26134,-3.584 -2.26134,-10.24 z m 13.824,0 q 0,-2.176 -0.256,-4.096 -0.256,-1.96266 -0.85333,-3.41333 -0.59733,-1.45067 -1.57867,-2.304 -0.98133,-0.85333 -2.432,-0.85333 -1.45066,0 -2.432,0.85333 -0.98133,0.85333 -1.57866,2.304 -0.59734,1.45067 -0.85334,3.41333 -0.256,1.92 -0.256,4.096 0,2.176 0.256,4.13867 0.256,1.92 0.85334,3.37067 0.59733,1.45066 1.57866,2.304 0.98134,0.85333 2.432,0.85333 1.45067,0 2.432,-0.85333 0.98134,-0.85334 1.57867,-2.304 0.59733,-1.45067 0.85333,-3.37067 0.256,-1.96267 0.256,-4.13867 z"
           style="font-style:normal;font-variant:normal;font-weight:normal;font-stretch:normal;font-size:42.66666794px;line-height:53.33333588px;font-family:'Ubuntu Mono';-inkscape-font-specification:'Ubuntu Mono'"
           id="path5588" />
      </g>
      <g
         aria-label="1"
         transform="matrix(-0.19659513,0.17701506,-0.17701506,-0.19659513,-41.101146,21.397408)"
         style="font-style:normal;font-weight:normal;font-size:42.66666794px;line-height:1.25;font-family:sans-serif;letter-spacing:0px;word-spacing:0px;fill:#000000;fill-opacity:1;stroke:none"
         id="flowRoot11486">
        <path
           d="m 569.86602,237.30648 q 2.176,-0.85334 4.224,-2.13334 2.048,-1.32266 3.79733,-3.328 h 2.47467 v 23.424 h 4.992 v 2.98667 h -14.208 v -2.98667 h 5.71733 v -18.51733 q -0.46933,0.42667 -1.152,0.896 -0.64,0.42667 -1.45067,0.85333 -0.768,0.42667 -1.62133,0.81067 -0.85333,0.384 -1.664,0.64 z"
           style="font-style:normal;font-variant:normal;font-weight:normal;font-stretch:normal;font-size:42.66666794px;line-height:53.33333588px;font-family:'Ubuntu Mono';-inkscape-font-specification:'Ubuntu Mono'"
           id="path5585" />
      </g>
      <g
         aria-label="2"
         transform="matrix(-0.17701504,0.19659515,-0.19659515,-0.17701504,-30.976969,21.926201)"
         style="font-style:normal;font-weight:normal;font-size:42.66666794px;line-height:1.25;font-family:sans-serif;letter-spacing:0px;word-spacing:0px;fill:#000000;fill-opacity:1;stroke:none"
         id="flowRoot11494">
        <path
           d="m 584.58602,238.58648 q 0,1.36533 -0.55467,2.64533 -0.512,1.28 -1.408,2.51733 -0.85333,1.23734 -1.96267,2.432 -1.10933,1.19467 -2.26133,2.34667 -0.64,0.64 -1.49333,1.536 -0.85334,0.896 -1.62134,1.83467 -0.768,0.93866 -1.28,1.83466 -0.512,0.896 -0.512,1.536 h 12.16 v 2.98667 h -16 q -0.0427,-0.21333 -0.0427,-0.42667 0,-0.256 0,-0.46933 0,-1.792 0.59733,-3.328 0.59733,-1.536 1.536,-2.90133 0.93867,-1.36534 2.09067,-2.56 1.19466,-1.23734 2.34666,-2.38934 0.93867,-0.93866 1.792,-1.83466 0.896,-0.896 1.536,-1.792 0.68267,-0.896 1.06667,-1.83467 0.42667,-0.98133 0.42667,-2.00533 0,-1.152 -0.384,-1.96267 -0.34134,-0.81067 -0.98134,-1.32267 -0.59733,-0.55466 -1.408,-0.81066 -0.81066,-0.256 -1.74933,-0.256 -1.10933,0 -2.048,0.29866 -0.896,0.29867 -1.62133,0.72534 -0.68267,0.42666 -1.19467,0.85333 -0.512,0.384 -0.768,0.64 l -1.74933,-2.47467 q 0.34133,-0.384 1.024,-0.93866 0.68266,-0.55467 1.62133,-1.024 0.98133,-0.512 2.176,-0.85334 1.19467,-0.34133 2.56,-0.34133 4.13867,0 6.10133,1.92 2.00534,1.87733 2.00534,5.41867 z"
           style="font-style:normal;font-variant:normal;font-weight:normal;font-stretch:normal;font-size:42.66666794px;line-height:53.33333588px;font-family:'Ubuntu Mono';-inkscape-font-specification:'Ubuntu Mono'"
           id="path5582" />
      </g>
      <g
         aria-label="3"
         transform="matrix(-0.15549555,0.21402128,-0.21402128,-0.15549555,-20.85298,21.393838)"
         style="font-style:normal;font-weight:normal;font-size:42.66666794px;line-height:1.25;font-family:sans-serif;letter-spacing:0px;word-spacing:0px;fill:#000000;fill-opacity:1;stroke:none"
         id="flowRoot11502">
        <path
           d="m 575.71135,255.69581 q 3.37067,0 4.77867,-1.32267 1.45066,-1.36533 1.45066,-3.62666 0,-1.45067 -0.59733,-2.432 -0.59733,-0.98134 -1.57867,-1.57867 -0.98133,-0.59733 -2.26133,-0.85333 -1.28,-0.256 -2.688,-0.256 h -0.896 v -2.85867 h 1.23733 q 0.93867,0 1.92,-0.17067 1.024,-0.21333 1.83467,-0.68266 0.85333,-0.512 1.36533,-1.36534 0.512,-0.85333 0.512,-2.176 0,-2.176 -1.36533,-3.072 -1.32267,-0.93866 -3.11467,-0.93866 -1.83466,0 -3.11466,0.55466 -1.28,0.512 -2.13334,1.06667 l -1.36533,-2.688 q 0.896,-0.64 2.688,-1.32267 1.83467,-0.72533 4.05333,-0.72533 2.09067,0 3.584,0.512 1.49334,0.512 2.432,1.45067 0.98134,0.93866 1.45067,2.21866 0.46933,1.23734 0.46933,2.73067 0,2.09067 -1.10933,3.54133 -1.06667,1.45067 -2.77333,2.21867 2.048,0.59733 3.54133,2.34667 1.49333,1.70666 1.49333,4.56533 0,1.70667 -0.59733,3.2 -0.55467,1.45067 -1.74933,2.51733 -1.152,1.06667 -3.02934,1.664 -1.83466,0.59734 -4.39466,0.59734 -0.98134,0 -2.048,-0.17067 -1.024,-0.128 -1.92,-0.384 -0.896,-0.21333 -1.62134,-0.42667 -0.68266,-0.256 -0.98133,-0.384 l 0.68267,-3.02933 q 0.68266,0.34133 2.176,0.81067 1.49333,0.46933 3.66933,0.46933 z"
           style="font-style:normal;font-variant:normal;font-weight:normal;font-stretch:normal;font-size:42.66666794px;line-height:53.33333588px;font-family:'Ubuntu Mono';-inkscape-font-specification:'Ubuntu Mono'"
           id="path5579" />
      </g>
      <g
         aria-label="4"
         transform="matrix(-0.13227242,0.22910256,-0.22910256,-0.13227242,-10.840095,19.806139)"
         style="font-style:normal;font-weight:normal;font-size:42.66666794px;line-height:1.25;font-family:sans-serif;letter-spacing:0px;word-spacing:0px;fill:#000000;fill-opacity:1;stroke:none"
         id="flowRoot11510">
        <path
           d="m 568.20202,249.12514 q 0.72533,-1.70666 1.96266,-3.92533 1.28,-2.21867 2.85867,-4.56533 1.57867,-2.38934 3.37067,-4.65067 1.792,-2.304 3.62666,-4.13867 h 3.41334 v 16.768 h 3.11466 v 2.90134 h -3.11466 v 6.74133 h -3.41334 v -6.74133 h -11.81866 z m 11.81866,-13.09866 q -1.152,1.23733 -2.34666,2.73066 -1.152,1.49334 -2.26134,3.15734 -1.10933,1.62133 -2.09066,3.328 -0.93867,1.70666 -1.70667,3.37066 h 8.40533 z"
           style="font-style:normal;font-variant:normal;font-weight:normal;font-stretch:normal;font-size:42.66666794px;line-height:53.33333588px;font-family:'Ubuntu Mono';-inkscape-font-specification:'Ubuntu Mono'"
           id="path5576" />
      </g>
      <g
         aria-label="5"
         transform="matrix(-0.10760007,0.24167374,-0.24167374,-0.10760007,-1.0480285,17.180511)"
         style="font-style:normal;font-weight:normal;font-size:42.66666794px;line-height:1.25;font-family:sans-serif;letter-spacing:0px;word-spacing:0px;fill:#000000;fill-opacity:1;stroke:none"
         id="flowRoot11518">
        <path
           d="m 574.60202,242.04248 q 5.71733,0.21333 8.32,2.51733 2.60266,2.304 2.60266,6.18667 0,1.74933 -0.55466,3.24266 -0.55467,1.49334 -1.74934,2.56 -1.152,1.06667 -2.98666,1.664 -1.792,0.59734 -4.26667,0.59734 -1.024,0 -2.048,-0.17067 -0.98133,-0.128 -1.87733,-0.34133 -0.896,-0.21334 -1.57867,-0.42667 -0.68267,-0.256 -0.98133,-0.42667 l 0.68266,-3.02933 q 0.68267,0.34133 2.09067,0.81067 1.45067,0.46933 3.62667,0.46933 1.70666,0 2.85866,-0.384 1.152,-0.384 1.83467,-1.024 0.72533,-0.68267 1.024,-1.536 0.34133,-0.85333 0.34133,-1.792 0,-1.45067 -0.512,-2.56 -0.46933,-1.152 -1.70666,-1.92 -1.19467,-0.768 -3.328,-1.152 -2.09067,-0.42667 -5.29067,-0.42667 0.256,-1.87733 0.384,-3.49866 0.17067,-1.664 0.256,-3.2 0.128,-1.57867 0.17067,-3.11467 0.0853,-1.536 0.17066,-3.24267 h 12.71467 v 2.98667 h -9.64267 q -0.0427,0.59733 -0.128,1.57867 -0.0427,0.93866 -0.128,2.00533 -0.0853,1.06667 -0.17066,2.048 -0.0853,0.98133 -0.128,1.57867 z"
           style="font-style:normal;font-variant:normal;font-weight:normal;font-stretch:normal;font-size:42.66666794px;line-height:53.33333588px;font-family:'Ubuntu Mono';-inkscape-font-specification:'Ubuntu Mono'"
           id="path5573" />
      </g>
      <g
         aria-label="0"
         transform="matrix(-0.08174884,0.2515971,-0.2515971,-0.08174884,8.415946,13.545719)"
         style="font-style:normal;font-weight:normal;font-size:42.66666794px;line-height:1.25;font-family:sans-serif;letter-spacing:0px;word-spacing:0px;fill:#000000;fill-opacity:1;stroke:none"
         id="flowRoot11526">
        <path
           d="m 579.80735,244.55981 q 0,1.10933 -0.68267,1.92 -0.64,0.81067 -1.70666,0.81067 -1.10934,0 -1.792,-0.81067 -0.68267,-0.81067 -0.68267,-1.92 0,-1.10933 0.68267,-1.96267 0.68266,-0.85333 1.792,-0.85333 1.06666,0 1.70666,0.85333 0.68267,0.85334 0.68267,1.96267 z m -11.17867,0.46933 q 0,-6.656 2.26134,-10.19733 2.304,-3.584 6.44266,-3.584 4.18134,0 6.44267,3.584 2.26133,3.54133 2.26133,10.19733 0,6.656 -2.26133,10.24 -2.26133,3.54134 -6.44267,3.54134 -4.13866,0 -6.44266,-3.54134 -2.26134,-3.584 -2.26134,-10.24 z m 13.824,0 q 0,-2.176 -0.256,-4.096 -0.256,-1.96266 -0.85333,-3.41333 -0.59733,-1.45067 -1.57867,-2.304 -0.98133,-0.85333 -2.432,-0.85333 -1.45066,0 -2.432,0.85333 -0.98133,0.85333 -1.57866,2.304 -0.59734,1.45067 -0.85334,3.41333 -0.256,1.92 -0.256,4.096 0,2.176 0.256,4.13867 0.256,1.92 0.85334,3.37067 0.59733,1.45066 1.57866,2.304 0.98134,0.85333 2.432,0.85333 1.45067,0 2.432,-0.85333 0.98134,-0.85334 1.57867,-2.304 0.59733,-1.45067 0.85333,-3.37067 0.256,-1.96267 0.256,-4.13867 z"
           style="font-style:normal;font-variant:normal;font-weight:normal;font-stretch:normal;font-size:42.66666794px;line-height:53.33333588px;font-family:'Ubuntu Mono';-inkscape-font-specification:'Ubuntu Mono'"
           id="path5570" />
      </g>
      <g
         aria-label="1"
         transform="matrix(-0.05500196,0.25876391,-0.25876391,-0.05500196,17.448133,8.941578)"
         style="font-style:normal;font-weight:normal;font-size:42.66666794px;line-height:1.25;font-family:sans-serif;letter-spacing:0px;word-spacing:0px;fill:#000000;fill-opacity:1;stroke:none"
         id="flowRoot11534">
        <path
           d="m 569.86602,237.30648 q 2.176,-0.85334 4.224,-2.13334 2.048,-1.32266 3.79733,-3.328 h 2.47467 v 23.424 h 4.992 v 2.98667 h -14.208 v -2.98667 h 5.71733 v -18.51733 q -0.46933,0.42667 -1.152,0.896 -0.64,0.42667 -1.45067,0.85333 -0.768,0.42667 -1.62133,0.81067 -0.85333,0.384 -1.664,0.64 z"
           style="font-style:normal;font-variant:normal;font-weight:normal;font-stretch:normal;font-size:42.66666794px;line-height:53.33333588px;font-family:'Ubuntu Mono';-inkscape-font-specification:'Ubuntu Mono'"
           id="path5567" />
      </g>
      <g
         aria-label="2"
         transform="matrix(-0.02765245,0.26309564,-0.26309564,-0.02765245,25.949578,3.4185407)"
         style="font-style:normal;font-weight:normal;font-size:42.66666794px;line-height:1.25;font-family:sans-serif;letter-spacing:0px;word-spacing:0px;fill:#000000;fill-opacity:1;stroke:none"
         id="flowRoot11542">
        <path
           d="m 584.58602,238.58648 q 0,1.36533 -0.55467,2.64533 -0.512,1.28 -1.408,2.51733 -0.85333,1.23734 -1.96267,2.432 -1.10933,1.19467 -2.26133,2.34667 -0.64,0.64 -1.49333,1.536 -0.85334,0.896 -1.62134,1.83467 -0.768,0.93866 -1.28,1.83466 -0.512,0.896 -0.512,1.536 h 12.16 v 2.98667 h -16 q -0.0427,-0.21333 -0.0427,-0.42667 0,-0.256 0,-0.46933 0,-1.792 0.59733,-3.328 0.59733,-1.536 1.536,-2.90133 0.93867,-1.36534 2.09067,-2.56 1.19466,-1.23734 2.34666,-2.38934 0.93867,-0.93866 1.792,-1.83466 0.896,-0.896 1.536,-1.792 0.68267,-0.896 1.06667,-1.83467 0.42667,-0.98133 0.42667,-2.00533 0,-1.152 -0.384,-1.96267 -0.34134,-0.81067 -0.98134,-1.32267 -0.59733,-0.55466 -1.408,-0.81066 -0.81066,-0.256 -1.74933,-0.256 -1.10933,0 -2.048,0.29866 -0.896,0.29867 -1.62133,0.72534 -0.68267,0.42666 -1.19467,0.85333 -0.512,0.384 -0.768,0.64 l -1.74933,-2.47467 q 0.34133,-0.384 1.024,-0.93866 0.68266,-0.55467 1.62133,-1.024 0.98133,-0.512 2.176,-0.85334 1.19467,-0.34133 2.56,-0.34133 4.13867,0 6.10133,1.92 2.00534,1.87733 2.00534,5.41867 z"
           style="font-style:normal;font-variant:normal;font-weight:normal;font-stretch:normal;font-size:42.66666794px;line-height:53.33333588px;font-family:'Ubuntu Mono';-inkscape-font-specification:'Ubuntu Mono'"
           id="path5564" />
      </g>
      <g
         aria-label="3"
         transform="matrix(1.5144258e-8,0.26454484,-0.26454484,1.5144258e-8,33.827133,-2.9628818)"
         style="font-style:normal;font-weight:normal;font-size:42.66666794px;line-height:1.25;font-family:sans-serif;letter-spacing:0px;word-spacing:0px;fill:#000000;fill-opacity:1;stroke:none"
         id="flowRoot11550">
        <path
           d="m 575.71135,255.69581 q 3.37067,0 4.77867,-1.32267 1.45066,-1.36533 1.45066,-3.62666 0,-1.45067 -0.59733,-2.432 -0.59733,-0.98134 -1.57867,-1.57867 -0.98133,-0.59733 -2.26133,-0.85333 -1.28,-0.256 -2.688,-0.256 h -0.896 v -2.85867 h 1.23733 q 0.93867,0 1.92,-0.17067 1.024,-0.21333 1.83467,-0.68266 0.85333,-0.512 1.36533,-1.36534 0.512,-0.85333 0.512,-2.176 0,-2.176 -1.36533,-3.072 -1.32267,-0.93866 -3.11467,-0.93866 -1.83466,0 -3.11466,0.55466 -1.28,0.512 -2.13334,1.06667 l -1.36533,-2.688 q 0.896,-0.64 2.688,-1.32267 1.83467,-0.72533 4.05333,-0.72533 2.09067,0 3.584,0.512 1.49334,0.512 2.432,1.45067 0.98134,0.93866 1.45067,2.21866 0.46933,1.23734 0.46933,2.73067 0,2.09067 -1.10933,3.54133 -1.06667,1.45067 -2.77333,2.21867 2.048,0.59733 3.54133,2.34667 1.49333,1.70666 1.49333,4.56533 0,1.70667 -0.59733,3.2 -0.55467,1.45067 -1.74933,2.51733 -1.152,1.06667 -3.02934,1.664 -1.83466,0.59734 -4.39466,0.59734 -0.98134,0 -2.048,-0.17067 -1.024,-0.128 -1.92,-0.384 -0.896,-0.21333 -1.62134,-0.42667 -0.68266,-0.256 -0.98133,-0.384 l 0.68267,-3.02933 q 0.68266,0.34133 2.176,0.81067 1.49333,0.46933 3.66933,0.46933 z"
           style="font-style:normal;font-variant:normal;font-weight:normal;font-stretch:normal;font-size:42.66666794px;line-height:53.33333588px;font-family:'Ubuntu Mono';-inkscape-font-specification:'Ubuntu Mono'"
           id="path5561" />
      </g>
      <g
         aria-label="4"
         transform="matrix(0.02765248,0.26309563,-0.26309563,0.02765248,40.994501,-10.13278)"
         style="font-style:normal;font-weight:normal;font-size:42.66666794px;line-height:1.25;font-family:sans-serif;letter-spacing:0px;word-spacing:0px;fill:#000000;fill-opacity:1;stroke:none"
         id="flowRoot11558">
        <path
           d="m 568.20202,249.12514 q 0.72533,-1.70666 1.96266,-3.92533 1.28,-2.21867 2.85867,-4.56533 1.57867,-2.38934 3.37067,-4.65067 1.792,-2.304 3.62666,-4.13867 h 3.41334 v 16.768 h 3.11466 v 2.90134 h -3.11466 v 6.74133 h -3.41334 v -6.74133 h -11.81866 z m 11.81866,-13.09866 q -1.152,1.23733 -2.34666,2.73066 -1.152,1.49334 -2.26134,3.15734 -1.10933,1.62133 -2.09066,3.328 -0.93867,1.70666 -1.70667,3.37066 h 8.40533 z"
           style="font-style:normal;font-variant:normal;font-weight:normal;font-stretch:normal;font-size:42.66666794px;line-height:53.33333588px;font-family:'Ubuntu Mono';-inkscape-font-specification:'Ubuntu Mono'"
           id="path5558" />
      </g>
      <g
         aria-label="5"
         transform="matrix(0.05500198,0.25876389,-0.25876389,0.05500198,47.373144,-18.012594)"
         style="font-style:normal;font-weight:normal;font-size:42.66666794px;line-height:1.25;font-family:sans-serif;letter-spacing:0px;word-spacing:0px;fill:#000000;fill-opacity:1;stroke:none"
         id="flowRoot11566">
        <path
           d="m 574.60202,242.04248 q 5.71733,0.21333 8.32,2.51733 2.60266,2.304 2.60266,6.18667 0,1.74933 -0.55466,3.24266 -0.55467,1.49334 -1.74934,2.56 -1.152,1.06667 -2.98666,1.664 -1.792,0.59734 -4.26667,0.59734 -1.024,0 -2.048,-0.17067 -0.98133,-0.128 -1.87733,-0.34133 -0.896,-0.21334 -1.57867,-0.42667 -0.68267,-0.256 -0.98133,-0.42667 l 0.68266,-3.02933 q 0.68267,0.34133 2.09067,0.81067 1.45067,0.46933 3.62667,0.46933 1.70666,0 2.85866,-0.384 1.152,-0.384 1.83467,-1.024 0.72533,-0.68267 1.024,-1.536 0.34133,-0.85333 0.34133,-1.792 0,-1.45067 -0.512,-2.56 -0.46933,-1.152 -1.70666,-1.92 -1.19467,-0.768 -3.328,-1.152 -2.09067,-0.42667 -5.29067,-0.42667 0.256,-1.87733 0.384,-3.49866 0.17067,-1.664 0.256,-3.2 0.128,-1.57867 0.17067,-3.11467 0.0853,-1.536 0.17066,-3.24267 h 12.71467 v 2.98667 h -9.64267 q -0.0427,0.59733 -0.128,1.57867 -0.0427,0.93866 -0.128,2.00533 -0.0853,1.06667 -0.17066,2.048 -0.0853,0.98133 -0.128,1.57867 z"
           style="font-style:normal;font-variant:normal;font-weight:normal;font-stretch:normal;font-size:42.66666794px;line-height:53.33333588px;font-family:'Ubuntu Mono';-inkscape-font-specification:'Ubuntu Mono'"
           id="path5555" />
      </g>
      <g
         aria-label="0"
         transform="matrix(0.08174886,0.25159708,-0.25159708,0.08174886,52.893182,-26.515989)"
         style="font-style:normal;font-weight:normal;font-size:42.66666794px;line-height:1.25;font-family:sans-serif;letter-spacing:0px;word-spacing:0px;fill:#000000;fill-opacity:1;stroke:none"
         id="flowRoot11574">
        <path
           d="m 579.80735,244.55981 q 0,1.10933 -0.68267,1.92 -0.64,0.81067 -1.70666,0.81067 -1.10934,0 -1.792,-0.81067 -0.68267,-0.81067 -0.68267,-1.92 0,-1.10933 0.68267,-1.96267 0.68266,-0.85333 1.792,-0.85333 1.06666,0 1.70666,0.85333 0.68267,0.85334 0.68267,1.96267 z m -11.17867,0.46933 q 0,-6.656 2.26134,-10.19733 2.304,-3.584 6.44266,-3.584 4.18134,0 6.44267,3.584 2.26133,3.54133 2.26133,10.19733 0,6.656 -2.26133,10.24 -2.26133,3.54134 -6.44267,3.54134 -4.13866,0 -6.44266,-3.54134 -2.26134,-3.584 -2.26134,-10.24 z m 13.824,0 q 0,-2.176 -0.256,-4.096 -0.256,-1.96266 -0.85333,-3.41333 -0.59733,-1.45067 -1.57867,-2.304 -0.98133,-0.85333 -2.432,-0.85333 -1.45066,0 -2.432,0.85333 -0.98133,0.85333 -1.57866,2.304 -0.59734,1.45067 -0.85334,3.41333 -0.256,1.92 -0.256,4.096 0,2.176 0.256,4.13867 0.256,1.92 0.85334,3.37067 0.59733,1.45066 1.57866,2.304 0.98134,0.85333 2.432,0.85333 1.45067,0 2.432,-0.85333 0.98134,-0.85334 1.57867,-2.304 0.59733,-1.45067 0.85333,-3.37067 0.256,-1.96267 0.256,-4.13867 z"
           style="font-style:normal;font-variant:normal;font-weight:normal;font-stretch:normal;font-size:42.66666794px;line-height:53.33333588px;font-family:'Ubuntu Mono';-inkscape-font-specification:'Ubuntu Mono'"
           id="path5552" />
      </g>
      <g
         aria-label="1"
         transform="matrix(0.10760008,0.24167372,-0.24167372,0.10760008,57.494133,-35.549806)"
         style="font-style:normal;font-weight:normal;font-size:42.66666794px;line-height:1.25;font-family:sans-serif;letter-spacing:0px;word-spacing:0px;fill:#000000;fill-opacity:1;stroke:none"
         id="flowRoot11582">
        <path
           d="m 569.86602,237.30648 q 2.176,-0.85334 4.224,-2.13334 2.048,-1.32266 3.79733,-3.328 h 2.47467 v 23.424 h 4.992 v 2.98667 h -14.208 v -2.98667 h 5.71733 v -18.51733 q -0.46933,0.42667 -1.152,0.896 -0.64,0.42667 -1.45067,0.85333 -0.768,0.42667 -1.62133,0.81067 -0.85333,0.384 -1.664,0.64 z"
           style="font-style:normal;font-variant:normal;font-weight:normal;font-stretch:normal;font-size:42.66666794px;line-height:53.33333588px;font-family:'Ubuntu Mono';-inkscape-font-specification:'Ubuntu Mono'"
           id="path5549" />
      </g>
      <g
         aria-label="2"
         transform="matrix(0.13227242,0.22910254,-0.22910254,0.13227242,61.125585,-45.01506)"
         style="font-style:normal;font-weight:normal;font-size:42.66666794px;line-height:1.25;font-family:sans-serif;letter-spacing:0px;word-spacing:0px;fill:#000000;fill-opacity:1;stroke:none"
         id="flowRoot11590">
        <path
           d="m 584.58602,238.58648 q 0,1.36533 -0.55467,2.64533 -0.512,1.28 -1.408,2.51733 -0.85333,1.23734 -1.96267,2.432 -1.10933,1.19467 -2.26133,2.34667 -0.64,0.64 -1.49333,1.536 -0.85334,0.896 -1.62134,1.83467 -0.768,0.93866 -1.28,1.83466 -0.512,0.896 -0.512,1.536 h 12.16 v 2.98667 h -16 q -0.0427,-0.21333 -0.0427,-0.42667 0,-0.256 0,-0.46933 0,-1.792 0.59733,-3.328 0.59733,-1.536 1.536,-2.90133 0.93867,-1.36534 2.09067,-2.56 1.19466,-1.23734 2.34666,-2.38934 0.93867,-0.93866 1.792,-1.83466 0.896,-0.896 1.536,-1.792 0.68267,-0.896 1.06667,-1.83467 0.42667,-0.98133 0.42667,-2.00533 0,-1.152 -0.384,-1.96267 -0.34134,-0.81067 -0.98134,-1.32267 -0.59733,-0.55466 -1.408,-0.81066 -0.81066,-0.256 -1.74933,-0.256 -1.10933,0 -2.048,0.29866 -0.896,0.29867 -1.62133,0.72534 -0.68267,0.42666 -1.19467,0.85333 -0.512,0.384 -0.768,0.64 l -1.74933,-2.47467 q 0.34133,-0.384 1.024,-0.93866 0.68266,-0.55467 1.62133,-1.024 0.98133,-0.512 2.176,-0.85334 1.19467,-0.34133 2.56,-0.34133 4.13867,0 6.10133,1.92 2.00534,1.87733 2.00534,5.41867 z"
           style="font-style:normal;font-variant:normal;font-weight:normal;font-stretch:normal;font-size:42.66666794px;line-height:53.33333588px;font-family:'Ubuntu Mono';-inkscape-font-specification:'Ubuntu Mono'"
           id="path5546" />
      </g>
      <g
         aria-label="3"
         transform="matrix(0.15549555,0.21402126,-0.21402126,0.15549555,63.747754,-54.808057)"
         style="font-style:normal;font-weight:normal;font-size:42.66666794px;line-height:1.25;font-family:sans-serif;letter-spacing:0px;word-spacing:0px;fill:#000000;fill-opacity:1;stroke:none"
         id="flowRoot11598">
        <path
           d="m 575.71135,255.69581 q 3.37067,0 4.77867,-1.32267 1.45066,-1.36533 1.45066,-3.62666 0,-1.45067 -0.59733,-2.432 -0.59733,-0.98134 -1.57867,-1.57867 -0.98133,-0.59733 -2.26133,-0.85333 -1.28,-0.256 -2.688,-0.256 h -0.896 v -2.85867 h 1.23733 q 0.93867,0 1.92,-0.17067 1.024,-0.21333 1.83467,-0.68266 0.85333,-0.512 1.36533,-1.36534 0.512,-0.85333 0.512,-2.176 0,-2.176 -1.36533,-3.072 -1.32267,-0.93866 -3.11467,-0.93866 -1.83466,0 -3.11466,0.55466 -1.28,0.512 -2.13334,1.06667 l -1.36533,-2.688 q 0.896,-0.64 2.688,-1.32267 1.83467,-0.72533 4.05333,-0.72533 2.09067,0 3.584,0.512 1.49334,0.512 2.432,1.45067 0.98134,0.93866 1.45067,2.21866 0.46933,1.23734 0.46933,2.73067 0,2.09067 -1.10933,3.54133 -1.06667,1.45067 -2.77333,2.21867 2.048,0.59733 3.54133,2.34667 1.49333,1.70666 1.49333,4.56533 0,1.70667 -0.59733,3.2 -0.55467,1.45067 -1.74933,2.51733 -1.152,1.06667 -3.02934,1.664 -1.83466,0.59734 -4.39466,0.59734 -0.98134,0 -2.048,-0.17067 -1.024,-0.128 -1.92,-0.384 -0.896,-0.21333 -1.62134,-0.42667 -0.68266,-0.256 -0.98133,-0.384 l 0.68267,-3.02933 q 0.68266,0.34133 2.176,0.81067 1.49333,0.46933 3.66933,0.46933 z"
           style="font-style:normal;font-variant:normal;font-weight:normal;font-stretch:normal;font-size:42.66666794px;line-height:53.33333588px;font-family:'Ubuntu Mono';-inkscape-font-specification:'Ubuntu Mono'"
           id="path5543" />
      </g>
      <g
         aria-label="4"
         transform="matrix(0.17701504,0.19659513,-0.19659513,0.17701504,65.331914,-64.821491)"
         style="font-style:normal;font-weight:normal;font-size:42.66666794px;line-height:1.25;font-family:sans-serif;letter-spacing:0px;word-spacing:0px;fill:#000000;fill-opacity:1;stroke:none"
         id="flowRoot11606">
        <path
           d="m 568.20202,249.12514 q 0.72533,-1.70666 1.96266,-3.92533 1.28,-2.21867 2.85867,-4.56533 1.57867,-2.38934 3.37067,-4.65067 1.792,-2.304 3.62666,-4.13867 h 3.41334 v 16.768 h 3.11466 v 2.90134 h -3.11466 v 6.74133 h -3.41334 v -6.74133 h -11.81866 z m 11.81866,-13.09866 q -1.152,1.23733 -2.34666,2.73066 -1.152,1.49334 -2.26134,3.15734 -1.10933,1.62133 -2.09066,3.328 -0.93867,1.70666 -1.70667,3.37066 h 8.40533 z"
           style="font-style:normal;font-variant:normal;font-weight:normal;font-stretch:normal;font-size:42.66666794px;line-height:53.33333588px;font-family:'Ubuntu Mono';-inkscape-font-specification:'Ubuntu Mono'"
           id="path5540" />
      </g>
      <g
         aria-label="5"
         transform="matrix(0.19659513,0.17701505,-0.17701505,0.19659513,65.860707,-74.94566)"
         style="font-style:normal;font-weight:normal;font-size:42.66666794px;line-height:1.25;font-family:sans-serif;letter-spacing:0px;word-spacing:0px;fill:#000000;fill-opacity:1;stroke:none"
         id="flowRoot11614">
        <path
           d="m 574.60202,242.04248 q 5.71733,0.21333 8.32,2.51733 2.60266,2.304 2.60266,6.18667 0,1.74933 -0.55466,3.24266 -0.55467,1.49334 -1.74934,2.56 -1.152,1.06667 -2.98666,1.664 -1.792,0.59734 -4.26667,0.59734 -1.024,0 -2.048,-0.17067 -0.98133,-0.128 -1.87733,-0.34133 -0.896,-0.21334 -1.57867,-0.42667 -0.68267,-0.256 -0.98133,-0.42667 l 0.68266,-3.02933 q 0.68267,0.34133 2.09067,0.81067 1.45067,0.46933 3.62667,0.46933 1.70666,0 2.85866,-0.384 1.152,-0.384 1.83467,-1.024 0.72533,-0.68267 1.024,-1.536 0.34133,-0.85333 0.34133,-1.792 0,-1.45067 -0.512,-2.56 -0.46933,-1.152 -1.70666,-1.92 -1.19467,-0.768 -3.328,-1.152 -2.09067,-0.42667 -5.29067,-0.42667 0.256,-1.87733 0.384,-3.49866 0.17067,-1.664 0.256,-3.2 0.128,-1.57867 0.17067,-3.11467 0.0853,-1.536 0.17066,-3.24267 h 12.71467 v 2.98667 h -9.64267 q -0.0427,0.59733 -0.128,1.57867 -0.0427,0.93866 -0.128,2.00533 -0.0853,1.06667 -0.17066,2.048 -0.0853,0.98133 -0.128,1.57867 z"
           style="font-style:normal;font-variant:normal;font-weight:normal;font-stretch:normal;font-size:42.66666794px;line-height:53.33333588px;font-family:'Ubuntu Mono';-inkscape-font-specification:'Ubuntu Mono'"
           id="path5537" />
      </g>
      <g
         aria-label="0"
         transform="matrix(0.21402127,0.15549556,-0.15549556,0.21402127,65.328344,-85.069648)"
         style="font-style:normal;font-weight:normal;font-size:42.66666794px;line-height:1.25;font-family:sans-serif;letter-spacing:0px;word-spacing:0px;fill:#000000;fill-opacity:1;stroke:none"
         id="flowRoot11622">
        <path
           d="m 579.80735,244.55981 q 0,1.10933 -0.68267,1.92 -0.64,0.81067 -1.70666,0.81067 -1.10934,0 -1.792,-0.81067 -0.68267,-0.81067 -0.68267,-1.92 0,-1.10933 0.68267,-1.96267 0.68266,-0.85333 1.792,-0.85333 1.06666,0 1.70666,0.85333 0.68267,0.85334 0.68267,1.96267 z m -11.17867,0.46933 q 0,-6.656 2.26134,-10.19733 2.304,-3.584 6.44266,-3.584 4.18134,0 6.44267,3.584 2.26133,3.54133 2.26133,10.19733 0,6.656 -2.26133,10.24 -2.26133,3.54134 -6.44267,3.54134 -4.13866,0 -6.44266,-3.54134 -2.26134,-3.584 -2.26134,-10.24 z m 13.824,0 q 0,-2.176 -0.256,-4.096 -0.256,-1.96266 -0.85333,-3.41333 -0.59733,-1.45067 -1.57867,-2.304 -0.98133,-0.85333 -2.432,-0.85333 -1.45066,0 -2.432,0.85333 -0.98133,0.85333 -1.57866,2.304 -0.59734,1.45067 -0.85334,3.41333 -0.256,1.92 -0.256,4.096 0,2.176 0.256,4.13867 0.256,1.92 0.85334,3.37067 0.59733,1.45066 1.57866,2.304 0.98134,0.85333 2.432,0.85333 1.45067,0 2.432,-0.85333 0.98134,-0.85334 1.57867,-2.304 0.59733,-1.45067 0.85333,-3.37067 0.256,-1.96267 0.256,-4.13867 z"
           style="font-style:normal;font-variant:normal;font-weight:normal;font-stretch:normal;font-size:42.66666794px;line-height:53.33333588px;font-family:'Ubuntu Mono';-inkscape-font-specification:'Ubuntu Mono'"
           id="path5534" />
      </g>
      <g
         aria-label="1"
         transform="matrix(0.22910255,0.13227243,-0.13227243,0.22910255,63.740645,-95.082523)"
         style="font-style:normal;font-weight:normal;font-size:42.66666794px;line-height:1.25;font-family:sans-serif;letter-spacing:0px;word-spacing:0px;fill:#000000;fill-opacity:1;stroke:none"
         id="flowRoot11630">
        <path
           d="m 569.86602,237.30648 q 2.176,-0.85334 4.224,-2.13334 2.048,-1.32266 3.79733,-3.328 h 2.47467 v 23.424 h 4.992 v 2.98667 h -14.208 v -2.98667 h 5.71733 v -18.51733 q -0.46933,0.42667 -1.152,0.896 -0.64,0.42667 -1.45067,0.85333 -0.768,0.42667 -1.62133,0.81067 -0.85333,0.384 -1.664,0.64 z"
           style="font-style:normal;font-variant:normal;font-weight:normal;font-stretch:normal;font-size:42.66666794px;line-height:53.33333588px;font-family:'Ubuntu Mono';-inkscape-font-specification:'Ubuntu Mono'"
           id="path5531" />
      </g>
      <g
         aria-label="2"
         transform="matrix(0.24167373,0.10760008,-0.10760008,0.24167373,61.115017,-104.87459)"
         style="font-style:normal;font-weight:normal;font-size:42.66666794px;line-height:1.25;font-family:sans-serif;letter-spacing:0px;word-spacing:0px;fill:#000000;fill-opacity:1;stroke:none"
         id="flowRoot11638">
        <path
           d="m 584.58602,238.58648 q 0,1.36533 -0.55467,2.64533 -0.512,1.28 -1.408,2.51733 -0.85333,1.23734 -1.96267,2.432 -1.10933,1.19467 -2.26133,2.34667 -0.64,0.64 -1.49333,1.536 -0.85334,0.896 -1.62134,1.83467 -0.768,0.93866 -1.28,1.83466 -0.512,0.896 -0.512,1.536 h 12.16 v 2.98667 h -16 q -0.0427,-0.21333 -0.0427,-0.42667 0,-0.256 0,-0.46933 0,-1.792 0.59733,-3.328 0.59733,-1.536 1.536,-2.90133 0.93867,-1.36534 2.09067,-2.56 1.19466,-1.23734 2.34666,-2.38934 0.93867,-0.93866 1.792,-1.83466 0.896,-0.896 1.536,-1.792 0.68267,-0.896 1.06667,-1.83467 0.42667,-0.98133 0.42667,-2.00533 0,-1.152 -0.384,-1.96267 -0.34134,-0.81067 -0.98134,-1.32267 -0.59733,-0.55466 -1.408,-0.81066 -0.81066,-0.256 -1.74933,-0.256 -1.10933,0 -2.048,0.29866 -0.896,0.29867 -1.62133,0.72534 -0.68267,0.42666 -1.19467,0.85333 -0.512,0.384 -0.768,0.64 l -1.74933,-2.47467 q 0.34133,-0.384 1.024,-0.93866 0.68266,-0.55467 1.62133,-1.024 0.98133,-0.512 2.176,-0.85334 1.19467,-0.34133 2.56,-0.34133 4.13867,0 6.10133,1.92 2.00534,1.87733 2.00534,5.41867 z"
           style="font-style:normal;font-variant:normal;font-weight:normal;font-stretch:normal;font-size:42.66666794px;line-height:53.33333588px;font-family:'Ubuntu Mono';-inkscape-font-specification:'Ubuntu Mono'"
           id="path5528" />
      </g>
    </g>
  </g>
</svg>
