<?xml version="1.0" encoding="UTF-8" standalone="no"?>
<svg
   xmlns:dc="http://purl.org/dc/elements/1.1/"
   xmlns:cc="http://creativecommons.org/ns#"
   xmlns:rdf="http://www.w3.org/1999/02/22-rdf-syntax-ns#"
   xmlns:svg="http://www.w3.org/2000/svg"
   xmlns="http://www.w3.org/2000/svg"
   xmlns:sodipodi="http://sodipodi.sourceforge.net/DTD/sodipodi-0.dtd"
   xmlns:inkscape="http://www.inkscape.org/namespaces/inkscape"
   id="svg6106"
   version="1.1"
   viewBox="0 0 423.33332 423.33335"
   height="1600"
   width="1600"
   sodipodi:docname="4.svg"
   inkscape:version="0.92.4 (5da689c313, 2019-01-14)">
  <sodipodi:namedview
     pagecolor="#ffffff"
     bordercolor="#666666"
     borderopacity="1"
     objecttolerance="10"
     gridtolerance="10"
     guidetolerance="10"
     inkscape:pageopacity="0"
     inkscape:pageshadow="2"
     inkscape:window-width="1920"
     inkscape:window-height="1029"
     id="namedview128"
     showgrid="false"
     inkscape:zoom="0.63"
     inkscape:cx="767.16435"
     inkscape:cy="800"
     inkscape:window-x="1920"
     inkscape:window-y="25"
     inkscape:window-maximized="1"
     inkscape:current-layer="svg6106" />
  <defs
     id="defs6100" />
  <metadata
     id="metadata6103">
    <rdf:RDF>
      <cc:Work
         rdf:about="">
        <dc:format>image/svg+xml</dc:format>
        <dc:type
           rdf:resource="http://purl.org/dc/dcmitype/StillImage" />
        <dc:title />
      </cc:Work>
    </rdf:RDF>
  </metadata>
  <g
     id="g1299">
    <circle
       transform="rotate(1.0000002)"
       r="211.26927"
       cy="207.94034"
       cx="215.32852"
       id="circle8938"
       style="fill:#cccccc;fill-opacity:1;stroke:#000000;stroke-width:0.79346937;stroke-miterlimit:4;stroke-dasharray:none;stroke-opacity:1" />
    <g
       id="flowRoot9194"
       style="font-style:normal;font-weight:normal;font-size:42.66666794px;line-height:1.25;font-family:sans-serif;letter-spacing:0px;word-spacing:0px;fill:#000000;fill-opacity:1;stroke:none"
       transform="matrix(0.26448979,0,0,0.26448979,257.16823,146.85896)"
       aria-label="0">
      <path
         inkscape:connector-curvature="0"
         id="path7557"
         style="font-style:normal;font-variant:normal;font-weight:normal;font-stretch:normal;font-size:42.66666794px;line-height:53.33333588px;font-family:'Ubuntu Mono';-inkscape-font-specification:'Ubuntu Mono'"
         d="m 579.80735,244.55981 q 0,1.10933 -0.68267,1.92 -0.64,0.81067 -1.70666,0.81067 -1.10934,0 -1.792,-0.81067 -0.68267,-0.81067 -0.68267,-1.92 0,-1.10933 0.68267,-1.96267 0.68266,-0.85333 1.792,-0.85333 1.06666,0 1.70666,0.85333 0.68267,0.85334 0.68267,1.96267 z m -11.17867,0.46933 q 0,-6.656 2.26134,-10.19733 2.304,-3.584 6.44266,-3.584 4.18134,0 6.44267,3.584 2.26133,3.54133 2.26133,10.19733 0,6.656 -2.26133,10.24 -2.26133,3.54134 -6.44267,3.54134 -4.13866,0 -6.44266,-3.54134 -2.26134,-3.584 -2.26134,-10.24 z m 13.824,0 q 0,-2.176 -0.256,-4.096 -0.256,-1.96266 -0.85333,-3.41333 -0.59733,-1.45067 -1.57867,-2.304 -0.98133,-0.85333 -2.432,-0.85333 -1.45066,0 -2.432,0.85333 -0.98133,0.85333 -1.57866,2.304 -0.59734,1.45067 -0.85334,3.41333 -0.256,1.92 -0.256,4.096 0,2.176 0.256,4.13867 0.256,1.92 0.85334,3.37067 0.59733,1.45066 1.57866,2.304 0.98134,0.85333 2.432,0.85333 1.45067,0 2.432,-0.85333 0.98134,-0.85334 1.57867,-2.304 0.59733,-1.45067 0.85333,-3.37067 0.256,-1.96267 0.256,-4.13867 z" />
    </g>
    <g
       id="flowRoot9498"
       style="font-style:normal;font-weight:normal;font-size:42.66666794px;line-height:1.25;font-family:sans-serif;letter-spacing:0px;word-spacing:0px;fill:#000000;fill-opacity:1;stroke:none"
       transform="matrix(0.26304088,-0.02764671,0.02764671,0.26304088,250.14472,142.45777)"
       aria-label="1">
      <path
         inkscape:connector-curvature="0"
         id="path7554"
         style="font-style:normal;font-variant:normal;font-weight:normal;font-stretch:normal;font-size:42.66666794px;line-height:53.33333588px;font-family:'Ubuntu Mono';-inkscape-font-specification:'Ubuntu Mono'"
         d="m 569.86602,237.30648 q 2.176,-0.85334 4.224,-2.13334 2.048,-1.32266 3.79733,-3.328 h 2.47467 v 23.424 h 4.992 v 2.98667 h -14.208 v -2.98667 h 5.71733 v -18.51733 q -0.46933,0.42667 -1.152,0.896 -0.64,0.42667 -1.45067,0.85333 -0.768,0.42667 -1.62133,0.81067 -0.85333,0.384 -1.664,0.64 z" />
    </g>
    <g
       id="flowRoot9506"
       style="font-style:normal;font-weight:normal;font-size:42.66666794px;line-height:1.25;font-family:sans-serif;letter-spacing:0px;word-spacing:0px;fill:#000000;fill-opacity:1;stroke:none"
       transform="matrix(0.25871004,-0.05499052,0.05499052,0.25871004,242.69963,138.81485)"
       aria-label="2">
      <path
         inkscape:connector-curvature="0"
         id="path7551"
         style="font-style:normal;font-variant:normal;font-weight:normal;font-stretch:normal;font-size:42.66666794px;line-height:53.33333588px;font-family:'Ubuntu Mono';-inkscape-font-specification:'Ubuntu Mono'"
         d="m 584.58602,238.58648 q 0,1.36533 -0.55467,2.64533 -0.512,1.28 -1.408,2.51733 -0.85333,1.23734 -1.96267,2.432 -1.10933,1.19467 -2.26133,2.34667 -0.64,0.64 -1.49333,1.536 -0.85334,0.896 -1.62134,1.83467 -0.768,0.93866 -1.28,1.83466 -0.512,0.896 -0.512,1.536 h 12.16 v 2.98667 h -16 q -0.0427,-0.21333 -0.0427,-0.42667 0,-0.256 0,-0.46933 0,-1.792 0.59733,-3.328 0.59733,-1.536 1.536,-2.90133 0.93867,-1.36534 2.09067,-2.56 1.19466,-1.23734 2.34666,-2.38934 0.93867,-0.93866 1.792,-1.83466 0.896,-0.896 1.536,-1.792 0.68267,-0.896 1.06667,-1.83467 0.42667,-0.98133 0.42667,-2.00533 0,-1.152 -0.384,-1.96267 -0.34134,-0.81067 -0.98134,-1.32267 -0.59733,-0.55466 -1.408,-0.81066 -0.81066,-0.256 -1.74933,-0.256 -1.10933,0 -2.048,0.29866 -0.896,0.29867 -1.62133,0.72534 -0.68267,0.42666 -1.19467,0.85333 -0.512,0.384 -0.768,0.64 l -1.74933,-2.47467 q 0.34133,-0.384 1.024,-0.93866 0.68266,-0.55467 1.62133,-1.024 0.98133,-0.512 2.176,-0.85334 1.19467,-0.34133 2.56,-0.34133 4.13867,0 6.10133,1.92 2.00534,1.87733 2.00534,5.41867 z" />
    </g>
    <g
       id="flowRoot9514"
       style="font-style:normal;font-weight:normal;font-size:42.66666794px;line-height:1.25;font-family:sans-serif;letter-spacing:0px;word-spacing:0px;fill:#000000;fill-opacity:1;stroke:none"
       transform="matrix(0.25154472,-0.08173184,0.08173184,0.25154472,234.91454,135.97011)"
       aria-label="3">
      <path
         inkscape:connector-curvature="0"
         id="path7548"
         style="font-style:normal;font-variant:normal;font-weight:normal;font-stretch:normal;font-size:42.66666794px;line-height:53.33333588px;font-family:'Ubuntu Mono';-inkscape-font-specification:'Ubuntu Mono'"
         d="m 575.71135,255.69581 q 3.37067,0 4.77867,-1.32267 1.45066,-1.36533 1.45066,-3.62666 0,-1.45067 -0.59733,-2.432 -0.59733,-0.98134 -1.57867,-1.57867 -0.98133,-0.59733 -2.26133,-0.85333 -1.28,-0.256 -2.688,-0.256 h -0.896 v -2.85867 h 1.23733 q 0.93867,0 1.92,-0.17067 1.024,-0.21333 1.83467,-0.68266 0.85333,-0.512 1.36533,-1.36534 0.512,-0.85333 0.512,-2.176 0,-2.176 -1.36533,-3.072 -1.32267,-0.93866 -3.11467,-0.93866 -1.83466,0 -3.11466,0.55466 -1.28,0.512 -2.13334,1.06667 l -1.36533,-2.688 q 0.896,-0.64 2.688,-1.32267 1.83467,-0.72533 4.05333,-0.72533 2.09067,0 3.584,0.512 1.49334,0.512 2.432,1.45067 0.98134,0.93866 1.45067,2.21866 0.46933,1.23734 0.46933,2.73067 0,2.09067 -1.10933,3.54133 -1.06667,1.45067 -2.77333,2.21867 2.048,0.59733 3.54133,2.34667 1.49333,1.70666 1.49333,4.56533 0,1.70667 -0.59733,3.2 -0.55467,1.45067 -1.74933,2.51733 -1.152,1.06667 -3.02934,1.664 -1.83466,0.59734 -4.39466,0.59734 -0.98134,0 -2.048,-0.17067 -1.024,-0.128 -1.92,-0.384 -0.896,-0.21333 -1.62134,-0.42667 -0.68266,-0.256 -0.98133,-0.384 l 0.68267,-3.02933 q 0.68266,0.34133 2.176,0.81067 1.49333,0.46933 3.66933,0.46933 z" />
    </g>
    <g
       id="flowRoot9522"
       style="font-style:normal;font-weight:normal;font-size:42.66666794px;line-height:1.25;font-family:sans-serif;letter-spacing:0px;word-spacing:0px;fill:#000000;fill-opacity:1;stroke:none"
       transform="matrix(0.26304088,0.02764671,-0.02764671,0.26304088,263.69322,151.97019)"
       aria-label="9">
      <path
         inkscape:connector-curvature="0"
         id="path7545"
         style="font-style:normal;font-variant:normal;font-weight:normal;font-stretch:normal;font-size:42.66666794px;line-height:53.33333588px;font-family:'Ubuntu Mono';-inkscape-font-specification:'Ubuntu Mono'"
         d="m 585.73802,242.42648 q 0,7.89333 -3.84,11.904 -3.84,3.968 -11.56267,4.01066 l -0.128,-2.98666 q 4.77867,0 7.68,-1.87734 2.944,-1.92 3.88267,-6.57066 -1.024,0.46933 -2.26134,0.768 -1.23733,0.256 -2.60266,0.256 -2.26134,0 -3.79734,-0.64 -1.536,-0.68267 -2.47466,-1.792 -0.93867,-1.152 -1.36534,-2.60267 -0.42666,-1.45067 -0.42666,-3.072 0,-1.45067 0.46933,-2.944 0.46933,-1.536 1.45067,-2.77333 0.98133,-1.23734 2.51733,-2.048 1.536,-0.81067 3.66933,-0.81067 4.352,0 6.57067,2.98667 2.21867,2.98666 2.21867,8.192 z m -8.448,2.60266 q 1.36533,0 2.51733,-0.256 1.19467,-0.256 2.304,-0.72533 0.0427,-0.42667 0.0427,-0.81067 0,-0.384 0,-0.81066 0,-1.664 -0.256,-3.15734 -0.21334,-1.49333 -0.81067,-2.60266 -0.55467,-1.10934 -1.57867,-1.74934 -0.98133,-0.68266 -2.51733,-0.68266 -1.28,0 -2.13333,0.55466 -0.85334,0.512 -1.408,1.32267 -0.55467,0.768 -0.81067,1.74933 -0.21333,0.98134 -0.21333,1.87734 0,2.60266 1.152,3.968 1.19466,1.32266 3.712,1.32266 z" />
    </g>
    <g
       id="flowRoot9530"
       style="font-style:normal;font-weight:normal;font-size:42.66666794px;line-height:1.25;font-family:sans-serif;letter-spacing:0px;word-spacing:0px;fill:#000000;fill-opacity:1;stroke:none"
       transform="matrix(0.25871004,0.05499052,-0.05499052,0.25871004,269.6482,157.73547)"
       aria-label="8">
      <path
         inkscape:connector-curvature="0"
         id="path7542"
         style="font-style:normal;font-variant:normal;font-weight:normal;font-stretch:normal;font-size:42.66666794px;line-height:53.33333588px;font-family:'Ubuntu Mono';-inkscape-font-specification:'Ubuntu Mono'"
         d="m 585.82335,251.38648 q 0,3.328 -2.13333,5.376 -2.09067,2.048 -6.4,2.048 -2.47467,0 -4.096,-0.64 -1.62134,-0.68267 -2.60267,-1.70667 -0.93867,-1.06667 -1.36533,-2.34667 -0.384,-1.28 -0.384,-2.51733 0,-2.26133 1.23733,-4.01067 1.23733,-1.74933 2.944,-2.816 -3.62667,-2.048 -3.62667,-6.272 0,-1.45066 0.55467,-2.77333 0.55467,-1.32267 1.57867,-2.304 1.024,-0.98133 2.47466,-1.57867 1.49334,-0.59733 3.328,-0.59733 2.13334,0 3.62667,0.64 1.536,0.64 2.47467,1.664 0.93866,0.98133 1.36533,2.21867 0.42667,1.19466 0.42667,2.34666 0,2.26134 -1.152,3.92534 -1.152,1.62133 -2.64534,2.60266 4.39467,2.09067 4.39467,6.74134 z m -13.568,0.256 q 0,0.68266 0.256,1.45066 0.256,0.72534 0.85333,1.36534 0.59734,0.64 1.57867,1.06666 0.98133,0.384 2.38933,0.384 1.32267,0 2.26134,-0.34133 0.98133,-0.384 1.57866,-0.98133 0.64,-0.64 0.93867,-1.408 0.29867,-0.768 0.29867,-1.536 0,-2.432 -1.74934,-3.712 -1.74933,-1.32267 -4.82133,-2.00534 -1.70667,0.93867 -2.64533,2.34667 -0.93867,1.408 -0.93867,3.37067 z m 9.55733,-13.52534 q 0,-0.55466 -0.256,-1.23733 -0.256,-0.72533 -0.81066,-1.28 -0.512,-0.59733 -1.36534,-0.98133 -0.85333,-0.42667 -2.048,-0.42667 -1.23733,0 -2.09066,0.384 -0.81067,0.384 -1.36534,0.98133 -0.55466,0.55467 -0.81066,1.28 -0.21334,0.68267 -0.21334,1.36534 0,1.74933 1.23734,3.28533 1.28,1.49333 4.18133,2.176 1.62133,-0.93867 2.56,-2.21867 0.98133,-1.28 0.98133,-3.328 z" />
    </g>
    <g
       id="flowRoot9538"
       style="font-style:normal;font-weight:normal;font-size:42.66666794px;line-height:1.25;font-family:sans-serif;letter-spacing:0px;word-spacing:0px;fill:#000000;fill-opacity:1;stroke:none"
       transform="matrix(0.25154472,0.08173184,-0.08173184,0.25154472,274.96792,164.09163)"
       aria-label="7">
      <path
         inkscape:connector-curvature="0"
         id="path7539"
         style="font-style:normal;font-variant:normal;font-weight:normal;font-stretch:normal;font-size:42.66666794px;line-height:53.33333588px;font-family:'Ubuntu Mono';-inkscape-font-specification:'Ubuntu Mono'"
         d="m 573.27935,258.25581 q 0.21333,-3.02933 1.06667,-6.4 0.896,-3.41333 2.13333,-6.57067 1.23733,-3.2 2.73067,-5.888 1.49333,-2.73066 2.944,-4.48 h -12.8 v -3.072 h 16.72533 v 2.944 q -1.28,1.49334 -2.77333,4.01067 -1.49334,2.51733 -2.85867,5.67467 -1.32267,3.11466 -2.304,6.69866 -0.98133,3.54134 -1.23733,7.08267 z" />
    </g>
    <g
       id="flowRoot10798"
       style="font-style:normal;font-weight:normal;font-size:42.66666794px;line-height:1.25;font-family:sans-serif;letter-spacing:0px;word-spacing:0px;fill:#000000;fill-opacity:1;stroke:none"
       transform="matrix(0.24162343,-0.10757769,0.10757769,0.24162343,226.87475,133.95471)"
       aria-label="4">
      <path
         inkscape:connector-curvature="0"
         id="path7536"
         style="font-style:normal;font-variant:normal;font-weight:normal;font-stretch:normal;font-size:42.66666794px;line-height:53.33333588px;font-family:'Ubuntu Mono';-inkscape-font-specification:'Ubuntu Mono'"
         d="m 568.20202,249.12514 q 0.72533,-1.70666 1.96266,-3.92533 1.28,-2.21867 2.85867,-4.56533 1.57867,-2.38934 3.37067,-4.65067 1.792,-2.304 3.62666,-4.13867 h 3.41334 v 16.768 h 3.11466 v 2.90134 h -3.11466 v 6.74133 h -3.41334 v -6.74133 h -11.81866 z m 11.81866,-13.09866 q -1.152,1.23733 -2.34666,2.73066 -1.152,1.49334 -2.26134,3.15734 -1.10933,1.62133 -2.09066,3.328 -0.93867,1.70666 -1.70667,3.37066 h 8.40533 z" />
    </g>
    <g
       id="flowRoot10806"
       style="font-style:normal;font-weight:normal;font-size:42.66666794px;line-height:1.25;font-family:sans-serif;letter-spacing:0px;word-spacing:0px;fill:#000000;fill-opacity:1;stroke:none"
       transform="matrix(0.22905487,-0.1322449,0.1322449,0.22905487,218.66832,132.79074)"
       aria-label="5">
      <path
         inkscape:connector-curvature="0"
         id="path7533"
         style="font-style:normal;font-variant:normal;font-weight:normal;font-stretch:normal;font-size:42.66666794px;line-height:53.33333588px;font-family:'Ubuntu Mono';-inkscape-font-specification:'Ubuntu Mono'"
         d="m 574.60202,242.04248 q 5.71733,0.21333 8.32,2.51733 2.60266,2.304 2.60266,6.18667 0,1.74933 -0.55466,3.24266 -0.55467,1.49334 -1.74934,2.56 -1.152,1.06667 -2.98666,1.664 -1.792,0.59734 -4.26667,0.59734 -1.024,0 -2.048,-0.17067 -0.98133,-0.128 -1.87733,-0.34133 -0.896,-0.21334 -1.57867,-0.42667 -0.68267,-0.256 -0.98133,-0.42667 l 0.68266,-3.02933 q 0.68267,0.34133 2.09067,0.81067 1.45067,0.46933 3.62667,0.46933 1.70666,0 2.85866,-0.384 1.152,-0.384 1.83467,-1.024 0.72533,-0.68267 1.024,-1.536 0.34133,-0.85333 0.34133,-1.792 0,-1.45067 -0.512,-2.56 -0.46933,-1.152 -1.70666,-1.92 -1.19467,-0.768 -3.328,-1.152 -2.09067,-0.42667 -5.29067,-0.42667 0.256,-1.87733 0.384,-3.49866 0.17067,-1.664 0.256,-3.2 0.128,-1.57867 0.17067,-3.11467 0.0853,-1.536 0.17066,-3.24267 h 12.71467 v 2.98667 h -9.64267 q -0.0427,0.59733 -0.128,1.57867 -0.0427,0.93866 -0.128,2.00533 -0.0853,1.06667 -0.17066,2.048 -0.0853,0.98133 -0.128,1.57867 z" />
    </g>
    <g
       id="flowRoot10814"
       style="font-style:normal;font-weight:normal;font-size:42.66666794px;line-height:1.25;font-family:sans-serif;letter-spacing:0px;word-spacing:0px;fill:#000000;fill-opacity:1;stroke:none"
       transform="matrix(0.21397672,-0.1554632,0.1554632,0.21397672,210.38519,132.49096)"
       aria-label="6">
      <path
         inkscape:connector-curvature="0"
         id="path7530"
         style="font-style:normal;font-variant:normal;font-weight:normal;font-stretch:normal;font-size:42.66666794px;line-height:53.33333588px;font-family:'Ubuntu Mono';-inkscape-font-specification:'Ubuntu Mono'"
         d="m 568.97002,247.67448 q 0,-3.84 1.024,-6.784 1.06666,-2.98667 2.98666,-4.992 1.96267,-2.00534 4.736,-3.072 2.77334,-1.06667 6.272,-1.10934 l 0.29867,2.98667 q -2.26133,0.0427 -4.13867,0.512 -1.83466,0.42667 -3.28533,1.45067 -1.45067,0.98133 -2.432,2.56 -0.98133,1.57866 -1.49333,3.88266 1.024,-0.46933 2.21866,-0.768 1.23734,-0.29866 2.60267,-0.29866 2.21867,0 3.75467,0.68266 1.57866,0.68267 2.51733,1.83467 0.93867,1.10933 1.36533,2.60267 0.42667,1.49333 0.42667,3.072 0,1.45066 -0.46933,2.98666 -0.46934,1.49334 -1.45067,2.77334 -0.98133,1.23733 -2.51733,2.048 -1.536,0.768 -3.66934,0.768 -4.39466,0 -6.57066,-2.944 -2.176,-2.944 -2.176,-8.192 z m 8.40533,-2.73067 q -1.36533,0 -2.51733,0.256 -1.10934,0.256 -2.26134,0.768 -0.0427,0.42667 -0.0427,0.85333 0,0.384 0,0.85334 0,1.664 0.21333,3.15733 0.256,1.45067 0.81067,2.60267 0.59733,1.10933 1.57866,1.792 0.98134,0.64 2.51734,0.64 1.28,0 2.13333,-0.512 0.85333,-0.55467 1.408,-1.36534 0.55467,-0.81066 0.768,-1.792 0.256,-1.024 0.256,-1.92 0,-2.60266 -1.19467,-3.968 -1.152,-1.36533 -3.66933,-1.36533 z" />
    </g>
    <g
       id="flowRoot10822"
       style="font-style:normal;font-weight:normal;font-size:42.66666794px;line-height:1.25;font-family:sans-serif;letter-spacing:0px;word-spacing:0px;fill:#000000;fill-opacity:1;stroke:none"
       transform="matrix(0.1965542,-0.17697821,0.17697821,0.1965542,202.11609,133.05864)"
       aria-label="7">
      <path
         inkscape:connector-curvature="0"
         id="path7527"
         style="font-style:normal;font-variant:normal;font-weight:normal;font-stretch:normal;font-size:42.66666794px;line-height:53.33333588px;font-family:'Ubuntu Mono';-inkscape-font-specification:'Ubuntu Mono'"
         d="m 573.27935,258.25581 q 0.21333,-3.02933 1.06667,-6.4 0.896,-3.41333 2.13333,-6.57067 1.23733,-3.2 2.73067,-5.888 1.49333,-2.73066 2.944,-4.48 h -12.8 v -3.072 h 16.72533 v 2.944 q -1.28,1.49334 -2.77333,4.01067 -1.49334,2.51733 -2.85867,5.67467 -1.32267,3.11466 -2.304,6.69866 -0.98133,3.54134 -1.23733,7.08267 z" />
    </g>
    <g
       id="flowRoot10830"
       style="font-style:normal;font-weight:normal;font-size:42.66666794px;line-height:1.25;font-family:sans-serif;letter-spacing:0px;word-spacing:0px;fill:#000000;fill-opacity:1;stroke:none"
       transform="matrix(0.1769782,-0.19655421,0.19655421,0.1769782,193.95164,134.48756)"
       aria-label="8">
      <path
         inkscape:connector-curvature="0"
         id="path7524"
         style="font-style:normal;font-variant:normal;font-weight:normal;font-stretch:normal;font-size:42.66666794px;line-height:53.33333588px;font-family:'Ubuntu Mono';-inkscape-font-specification:'Ubuntu Mono'"
         d="m 585.82335,251.38648 q 0,3.328 -2.13333,5.376 -2.09067,2.048 -6.4,2.048 -2.47467,0 -4.096,-0.64 -1.62134,-0.68267 -2.60267,-1.70667 -0.93867,-1.06667 -1.36533,-2.34667 -0.384,-1.28 -0.384,-2.51733 0,-2.26133 1.23733,-4.01067 1.23733,-1.74933 2.944,-2.816 -3.62667,-2.048 -3.62667,-6.272 0,-1.45066 0.55467,-2.77333 0.55467,-1.32267 1.57867,-2.304 1.024,-0.98133 2.47466,-1.57867 1.49334,-0.59733 3.328,-0.59733 2.13334,0 3.62667,0.64 1.536,0.64 2.47467,1.664 0.93866,0.98133 1.36533,2.21867 0.42667,1.19466 0.42667,2.34666 0,2.26134 -1.152,3.92534 -1.152,1.62133 -2.64534,2.60266 4.39467,2.09067 4.39467,6.74134 z m -13.568,0.256 q 0,0.68266 0.256,1.45066 0.256,0.72534 0.85333,1.36534 0.59734,0.64 1.57867,1.06666 0.98133,0.384 2.38933,0.384 1.32267,0 2.26134,-0.34133 0.98133,-0.384 1.57866,-0.98133 0.64,-0.64 0.93867,-1.408 0.29867,-0.768 0.29867,-1.536 0,-2.432 -1.74934,-3.712 -1.74933,-1.32267 -4.82133,-2.00534 -1.70667,0.93867 -2.64533,2.34667 -0.93867,1.408 -0.93867,3.37067 z m 9.55733,-13.52534 q 0,-0.55466 -0.256,-1.23733 -0.256,-0.72533 -0.81066,-1.28 -0.512,-0.59733 -1.36534,-0.98133 -0.85333,-0.42667 -2.048,-0.42667 -1.23733,0 -2.09066,0.384 -0.81067,0.384 -1.36534,0.98133 -0.55466,0.55467 -0.81066,1.28 -0.21334,0.68267 -0.21334,1.36534 0,1.74933 1.23734,3.28533 1.28,1.49333 4.18133,2.176 1.62133,-0.93867 2.56,-2.21867 0.98133,-1.28 0.98133,-3.328 z" />
    </g>
    <g
       id="flowRoot10838"
       style="font-style:normal;font-weight:normal;font-size:42.66666794px;line-height:1.25;font-family:sans-serif;letter-spacing:0px;word-spacing:0px;fill:#000000;fill-opacity:1;stroke:none"
       transform="matrix(0.15546319,-0.21397673,0.21397673,0.15546319,185.98127,136.76208)"
       aria-label="9">
      <path
         inkscape:connector-curvature="0"
         id="path7521"
         style="font-style:normal;font-variant:normal;font-weight:normal;font-stretch:normal;font-size:42.66666794px;line-height:53.33333588px;font-family:'Ubuntu Mono';-inkscape-font-specification:'Ubuntu Mono'"
         d="m 585.73802,242.42648 q 0,7.89333 -3.84,11.904 -3.84,3.968 -11.56267,4.01066 l -0.128,-2.98666 q 4.77867,0 7.68,-1.87734 2.944,-1.92 3.88267,-6.57066 -1.024,0.46933 -2.26134,0.768 -1.23733,0.256 -2.60266,0.256 -2.26134,0 -3.79734,-0.64 -1.536,-0.68267 -2.47466,-1.792 -0.93867,-1.152 -1.36534,-2.60267 -0.42666,-1.45067 -0.42666,-3.072 0,-1.45067 0.46933,-2.944 0.46933,-1.536 1.45067,-2.77333 0.98133,-1.23734 2.51733,-2.048 1.536,-0.81067 3.66933,-0.81067 4.352,0 6.57067,2.98667 2.21867,2.98666 2.21867,8.192 z m -8.448,2.60266 q 1.36533,0 2.51733,-0.256 1.19467,-0.256 2.304,-0.72533 0.0427,-0.42667 0.0427,-0.81067 0,-0.384 0,-0.81066 0,-1.664 -0.256,-3.15734 -0.21334,-1.49333 -0.81067,-2.60266 -0.55467,-1.10934 -1.57867,-1.74934 -0.98133,-0.68266 -2.51733,-0.68266 -1.28,0 -2.13333,0.55466 -0.85334,0.512 -1.408,1.32267 -0.55467,0.768 -0.81067,1.74933 -0.21333,0.98134 -0.21333,1.87734 0,2.60266 1.152,3.968 1.19466,1.32266 3.712,1.32266 z" />
    </g>
    <g
       id="flowRoot10846"
       style="font-style:normal;font-weight:normal;font-size:42.66666794px;line-height:1.25;font-family:sans-serif;letter-spacing:0px;word-spacing:0px;fill:#000000;fill-opacity:1;stroke:none"
       transform="matrix(0.13224489,-0.22905487,0.22905487,0.13224489,178.29231,139.85726)"
       aria-label="0">
      <path
         inkscape:connector-curvature="0"
         id="path7518"
         style="font-style:normal;font-variant:normal;font-weight:normal;font-stretch:normal;font-size:42.66666794px;line-height:53.33333588px;font-family:'Ubuntu Mono';-inkscape-font-specification:'Ubuntu Mono'"
         d="m 579.80735,244.55981 q 0,1.10933 -0.68267,1.92 -0.64,0.81067 -1.70666,0.81067 -1.10934,0 -1.792,-0.81067 -0.68267,-0.81067 -0.68267,-1.92 0,-1.10933 0.68267,-1.96267 0.68266,-0.85333 1.792,-0.85333 1.06666,0 1.70666,0.85333 0.68267,0.85334 0.68267,1.96267 z m -11.17867,0.46933 q 0,-6.656 2.26134,-10.19733 2.304,-3.584 6.44266,-3.584 4.18134,0 6.44267,3.584 2.26133,3.54133 2.26133,10.19733 0,6.656 -2.26133,10.24 -2.26133,3.54134 -6.44267,3.54134 -4.13866,0 -6.44266,-3.54134 -2.26134,-3.584 -2.26134,-10.24 z m 13.824,0 q 0,-2.176 -0.256,-4.096 -0.256,-1.96266 -0.85333,-3.41333 -0.59733,-1.45067 -1.57867,-2.304 -0.98133,-0.85333 -2.432,-0.85333 -1.45066,0 -2.432,0.85333 -0.98133,0.85333 -1.57866,2.304 -0.59734,1.45067 -0.85334,3.41333 -0.256,1.92 -0.256,4.096 0,2.176 0.256,4.13867 0.256,1.92 0.85334,3.37067 0.59733,1.45066 1.57866,2.304 0.98134,0.85333 2.432,0.85333 1.45067,0 2.432,-0.85333 0.98134,-0.85334 1.57867,-2.304 0.59733,-1.45067 0.85333,-3.37067 0.256,-1.96267 0.256,-4.13867 z" />
    </g>
    <g
       id="flowRoot10854"
       style="font-style:normal;font-weight:normal;font-size:42.66666794px;line-height:1.25;font-family:sans-serif;letter-spacing:0px;word-spacing:0px;fill:#000000;fill-opacity:1;stroke:none"
       transform="matrix(0.10757768,-0.24162343,0.24162343,0.10757768,170.96902,143.73921)"
       aria-label="1">
      <path
         inkscape:connector-curvature="0"
         id="path7515"
         style="font-style:normal;font-variant:normal;font-weight:normal;font-stretch:normal;font-size:42.66666794px;line-height:53.33333588px;font-family:'Ubuntu Mono';-inkscape-font-specification:'Ubuntu Mono'"
         d="m 569.86602,237.30648 q 2.176,-0.85334 4.224,-2.13334 2.048,-1.32266 3.79733,-3.328 h 2.47467 v 23.424 h 4.992 v 2.98667 h -14.208 v -2.98667 h 5.71733 v -18.51733 q -0.46933,0.42667 -1.152,0.896 -0.64,0.42667 -1.45067,0.85333 -0.768,0.42667 -1.62133,0.81067 -0.85333,0.384 -1.664,0.64 z" />
    </g>
    <g
       id="flowRoot10862"
       style="font-style:normal;font-weight:normal;font-size:42.66666794px;line-height:1.25;font-family:sans-serif;letter-spacing:0px;word-spacing:0px;fill:#000000;fill-opacity:1;stroke:none"
       transform="matrix(0.08173183,-0.25154472,0.25154472,0.08173183,164.09161,148.36538)"
       aria-label="2">
      <path
         inkscape:connector-curvature="0"
         id="path7512"
         style="font-style:normal;font-variant:normal;font-weight:normal;font-stretch:normal;font-size:42.66666794px;line-height:53.33333588px;font-family:'Ubuntu Mono';-inkscape-font-specification:'Ubuntu Mono'"
         d="m 584.58602,238.58648 q 0,1.36533 -0.55467,2.64533 -0.512,1.28 -1.408,2.51733 -0.85333,1.23734 -1.96267,2.432 -1.10933,1.19467 -2.26133,2.34667 -0.64,0.64 -1.49333,1.536 -0.85334,0.896 -1.62134,1.83467 -0.768,0.93866 -1.28,1.83466 -0.512,0.896 -0.512,1.536 h 12.16 v 2.98667 h -16 q -0.0427,-0.21333 -0.0427,-0.42667 0,-0.256 0,-0.46933 0,-1.792 0.59733,-3.328 0.59733,-1.536 1.536,-2.90133 0.93867,-1.36534 2.09067,-2.56 1.19466,-1.23734 2.34666,-2.38934 0.93867,-0.93866 1.792,-1.83466 0.896,-0.896 1.536,-1.792 0.68267,-0.896 1.06667,-1.83467 0.42667,-0.98133 0.42667,-2.00533 0,-1.152 -0.384,-1.96267 -0.34134,-0.81067 -0.98134,-1.32267 -0.59733,-0.55466 -1.408,-0.81066 -0.81066,-0.256 -1.74933,-0.256 -1.10933,0 -2.048,0.29866 -0.896,0.29867 -1.62133,0.72534 -0.68267,0.42666 -1.19467,0.85333 -0.512,0.384 -0.768,0.64 l -1.74933,-2.47467 q 0.34133,-0.384 1.024,-0.93866 0.68266,-0.55467 1.62133,-1.024 0.98133,-0.512 2.176,-0.85334 1.19467,-0.34133 2.56,-0.34133 4.13867,0 6.10133,1.92 2.00534,1.87733 2.00534,5.41867 z" />
    </g>
    <g
       id="flowRoot10870"
       style="font-style:normal;font-weight:normal;font-size:42.66666794px;line-height:1.25;font-family:sans-serif;letter-spacing:0px;word-spacing:0px;fill:#000000;fill-opacity:1;stroke:none"
       transform="matrix(0.05499051,-0.25871004,0.25871004,0.05499051,157.73545,153.6851)"
       aria-label="3">
      <path
         inkscape:connector-curvature="0"
         id="path7509"
         style="font-style:normal;font-variant:normal;font-weight:normal;font-stretch:normal;font-size:42.66666794px;line-height:53.33333588px;font-family:'Ubuntu Mono';-inkscape-font-specification:'Ubuntu Mono'"
         d="m 575.71135,255.69581 q 3.37067,0 4.77867,-1.32267 1.45066,-1.36533 1.45066,-3.62666 0,-1.45067 -0.59733,-2.432 -0.59733,-0.98134 -1.57867,-1.57867 -0.98133,-0.59733 -2.26133,-0.85333 -1.28,-0.256 -2.688,-0.256 h -0.896 v -2.85867 h 1.23733 q 0.93867,0 1.92,-0.17067 1.024,-0.21333 1.83467,-0.68266 0.85333,-0.512 1.36533,-1.36534 0.512,-0.85333 0.512,-2.176 0,-2.176 -1.36533,-3.072 -1.32267,-0.93866 -3.11467,-0.93866 -1.83466,0 -3.11466,0.55466 -1.28,0.512 -2.13334,1.06667 l -1.36533,-2.688 q 0.896,-0.64 2.688,-1.32267 1.83467,-0.72533 4.05333,-0.72533 2.09067,0 3.584,0.512 1.49334,0.512 2.432,1.45067 0.98134,0.93866 1.45067,2.21866 0.46933,1.23734 0.46933,2.73067 0,2.09067 -1.10933,3.54133 -1.06667,1.45067 -2.77333,2.21867 2.048,0.59733 3.54133,2.34667 1.49333,1.70666 1.49333,4.56533 0,1.70667 -0.59733,3.2 -0.55467,1.45067 -1.74933,2.51733 -1.152,1.06667 -3.02934,1.664 -1.83466,0.59734 -4.39466,0.59734 -0.98134,0 -2.048,-0.17067 -1.024,-0.128 -1.92,-0.384 -0.896,-0.21333 -1.62134,-0.42667 -0.68266,-0.256 -0.98133,-0.384 l 0.68267,-3.02933 q 0.68266,0.34133 2.176,0.81067 1.49333,0.46933 3.66933,0.46933 z" />
    </g>
    <g
       id="flowRoot10878"
       style="font-style:normal;font-weight:normal;font-size:42.66666794px;line-height:1.25;font-family:sans-serif;letter-spacing:0px;word-spacing:0px;fill:#000000;fill-opacity:1;stroke:none"
       transform="matrix(0.0276467,-0.26304087,0.26304087,0.0276467,151.97017,159.64008)"
       aria-label="4">
      <path
         inkscape:connector-curvature="0"
         id="path7506"
         style="font-style:normal;font-variant:normal;font-weight:normal;font-stretch:normal;font-size:42.66666794px;line-height:53.33333588px;font-family:'Ubuntu Mono';-inkscape-font-specification:'Ubuntu Mono'"
         d="m 568.20202,249.12514 q 0.72533,-1.70666 1.96266,-3.92533 1.28,-2.21867 2.85867,-4.56533 1.57867,-2.38934 3.37067,-4.65067 1.792,-2.304 3.62666,-4.13867 h 3.41334 v 16.768 h 3.11466 v 2.90134 h -3.11466 v 6.74133 h -3.41334 v -6.74133 h -11.81866 z m 11.81866,-13.09866 q -1.152,1.23733 -2.34666,2.73066 -1.152,1.49334 -2.26134,3.15734 -1.10933,1.62133 -2.09066,3.328 -0.93867,1.70666 -1.70667,3.37066 h 8.40533 z" />
    </g>
    <g
       id="flowRoot10886"
       style="font-style:normal;font-weight:normal;font-size:42.66666794px;line-height:1.25;font-family:sans-serif;letter-spacing:0px;word-spacing:0px;fill:#000000;fill-opacity:1;stroke:none"
       transform="matrix(0,-0.26448977,0.26448977,0,146.85893,166.16507)"
       aria-label="5">
      <path
         inkscape:connector-curvature="0"
         id="path7503"
         style="font-style:normal;font-variant:normal;font-weight:normal;font-stretch:normal;font-size:42.66666794px;line-height:53.33333588px;font-family:'Ubuntu Mono';-inkscape-font-specification:'Ubuntu Mono'"
         d="m 574.60202,242.04248 q 5.71733,0.21333 8.32,2.51733 2.60266,2.304 2.60266,6.18667 0,1.74933 -0.55466,3.24266 -0.55467,1.49334 -1.74934,2.56 -1.152,1.06667 -2.98666,1.664 -1.792,0.59734 -4.26667,0.59734 -1.024,0 -2.048,-0.17067 -0.98133,-0.128 -1.87733,-0.34133 -0.896,-0.21334 -1.57867,-0.42667 -0.68267,-0.256 -0.98133,-0.42667 l 0.68266,-3.02933 q 0.68267,0.34133 2.09067,0.81067 1.45067,0.46933 3.62667,0.46933 1.70666,0 2.85866,-0.384 1.152,-0.384 1.83467,-1.024 0.72533,-0.68267 1.024,-1.536 0.34133,-0.85333 0.34133,-1.792 0,-1.45067 -0.512,-2.56 -0.46933,-1.152 -1.70666,-1.92 -1.19467,-0.768 -3.328,-1.152 -2.09067,-0.42667 -5.29067,-0.42667 0.256,-1.87733 0.384,-3.49866 0.17067,-1.664 0.256,-3.2 0.128,-1.57867 0.17067,-3.11467 0.0853,-1.536 0.17066,-3.24267 h 12.71467 v 2.98667 h -9.64267 q -0.0427,0.59733 -0.128,1.57867 -0.0427,0.93866 -0.128,2.00533 -0.0853,1.06667 -0.17066,2.048 -0.0853,0.98133 -0.128,1.57867 z" />
    </g>
    <g
       id="flowRoot10894"
       style="font-style:normal;font-weight:normal;font-size:42.66666794px;line-height:1.25;font-family:sans-serif;letter-spacing:0px;word-spacing:0px;fill:#000000;fill-opacity:1;stroke:none"
       transform="matrix(-0.02764671,-0.26304086,0.26304086,-0.02764671,142.45774,173.18858)"
       aria-label="6">
      <path
         inkscape:connector-curvature="0"
         id="path7500"
         style="font-style:normal;font-variant:normal;font-weight:normal;font-stretch:normal;font-size:42.66666794px;line-height:53.33333588px;font-family:'Ubuntu Mono';-inkscape-font-specification:'Ubuntu Mono'"
         d="m 568.97002,247.67448 q 0,-3.84 1.024,-6.784 1.06666,-2.98667 2.98666,-4.992 1.96267,-2.00534 4.736,-3.072 2.77334,-1.06667 6.272,-1.10934 l 0.29867,2.98667 q -2.26133,0.0427 -4.13867,0.512 -1.83466,0.42667 -3.28533,1.45067 -1.45067,0.98133 -2.432,2.56 -0.98133,1.57866 -1.49333,3.88266 1.024,-0.46933 2.21866,-0.768 1.23734,-0.29866 2.60267,-0.29866 2.21867,0 3.75467,0.68266 1.57866,0.68267 2.51733,1.83467 0.93867,1.10933 1.36533,2.60267 0.42667,1.49333 0.42667,3.072 0,1.45066 -0.46933,2.98666 -0.46934,1.49334 -1.45067,2.77334 -0.98133,1.23733 -2.51733,2.048 -1.536,0.768 -3.66934,0.768 -4.39466,0 -6.57066,-2.944 -2.176,-2.944 -2.176,-8.192 z m 8.40533,-2.73067 q -1.36533,0 -2.51733,0.256 -1.10934,0.256 -2.26134,0.768 -0.0427,0.42667 -0.0427,0.85333 0,0.384 0,0.85334 0,1.664 0.21333,3.15733 0.256,1.45067 0.81067,2.60267 0.59733,1.10933 1.57866,1.792 0.98134,0.64 2.51734,0.64 1.28,0 2.13333,-0.512 0.85333,-0.55467 1.408,-1.36534 0.55467,-0.81066 0.768,-1.792 0.256,-1.024 0.256,-1.92 0,-2.60266 -1.19467,-3.968 -1.152,-1.36533 -3.66933,-1.36533 z" />
    </g>
    <g
       id="flowRoot10902"
       style="font-style:normal;font-weight:normal;font-size:42.66666794px;line-height:1.25;font-family:sans-serif;letter-spacing:0px;word-spacing:0px;fill:#000000;fill-opacity:1;stroke:none"
       transform="matrix(-0.05499052,-0.25871002,0.25871002,-0.05499052,138.81482,180.63367)"
       aria-label="7">
      <path
         inkscape:connector-curvature="0"
         id="path7497"
         style="font-style:normal;font-variant:normal;font-weight:normal;font-stretch:normal;font-size:42.66666794px;line-height:53.33333588px;font-family:'Ubuntu Mono';-inkscape-font-specification:'Ubuntu Mono'"
         d="m 573.27935,258.25581 q 0.21333,-3.02933 1.06667,-6.4 0.896,-3.41333 2.13333,-6.57067 1.23733,-3.2 2.73067,-5.888 1.49333,-2.73066 2.944,-4.48 h -12.8 v -3.072 h 16.72533 v 2.944 q -1.28,1.49334 -2.77333,4.01067 -1.49334,2.51733 -2.85867,5.67467 -1.32267,3.11466 -2.304,6.69866 -0.98133,3.54134 -1.23733,7.08267 z" />
    </g>
    <g
       id="flowRoot10910"
       style="font-style:normal;font-weight:normal;font-size:42.66666794px;line-height:1.25;font-family:sans-serif;letter-spacing:0px;word-spacing:0px;fill:#000000;fill-opacity:1;stroke:none"
       transform="matrix(-0.08173183,-0.2515447,0.2515447,-0.08173183,135.97008,188.41876)"
       aria-label="8">
      <path
         inkscape:connector-curvature="0"
         id="path7494"
         style="font-style:normal;font-variant:normal;font-weight:normal;font-stretch:normal;font-size:42.66666794px;line-height:53.33333588px;font-family:'Ubuntu Mono';-inkscape-font-specification:'Ubuntu Mono'"
         d="m 585.82335,251.38648 q 0,3.328 -2.13333,5.376 -2.09067,2.048 -6.4,2.048 -2.47467,0 -4.096,-0.64 -1.62134,-0.68267 -2.60267,-1.70667 -0.93867,-1.06667 -1.36533,-2.34667 -0.384,-1.28 -0.384,-2.51733 0,-2.26133 1.23733,-4.01067 1.23733,-1.74933 2.944,-2.816 -3.62667,-2.048 -3.62667,-6.272 0,-1.45066 0.55467,-2.77333 0.55467,-1.32267 1.57867,-2.304 1.024,-0.98133 2.47466,-1.57867 1.49334,-0.59733 3.328,-0.59733 2.13334,0 3.62667,0.64 1.536,0.64 2.47467,1.664 0.93866,0.98133 1.36533,2.21867 0.42667,1.19466 0.42667,2.34666 0,2.26134 -1.152,3.92534 -1.152,1.62133 -2.64534,2.60266 4.39467,2.09067 4.39467,6.74134 z m -13.568,0.256 q 0,0.68266 0.256,1.45066 0.256,0.72534 0.85333,1.36534 0.59734,0.64 1.57867,1.06666 0.98133,0.384 2.38933,0.384 1.32267,0 2.26134,-0.34133 0.98133,-0.384 1.57866,-0.98133 0.64,-0.64 0.93867,-1.408 0.29867,-0.768 0.29867,-1.536 0,-2.432 -1.74934,-3.712 -1.74933,-1.32267 -4.82133,-2.00534 -1.70667,0.93867 -2.64533,2.34667 -0.93867,1.408 -0.93867,3.37067 z m 9.55733,-13.52534 q 0,-0.55466 -0.256,-1.23733 -0.256,-0.72533 -0.81066,-1.28 -0.512,-0.59733 -1.36534,-0.98133 -0.85333,-0.42667 -2.048,-0.42667 -1.23733,0 -2.09066,0.384 -0.81067,0.384 -1.36534,0.98133 -0.55466,0.55467 -0.81066,1.28 -0.21334,0.68267 -0.21334,1.36534 0,1.74933 1.23734,3.28533 1.28,1.49333 4.18133,2.176 1.62133,-0.93867 2.56,-2.21867 0.98133,-1.28 0.98133,-3.328 z" />
    </g>
    <g
       id="flowRoot10918"
       style="font-style:normal;font-weight:normal;font-size:42.66666794px;line-height:1.25;font-family:sans-serif;letter-spacing:0px;word-spacing:0px;fill:#000000;fill-opacity:1;stroke:none"
       transform="matrix(-0.10757768,-0.24162341,0.24162341,-0.10757768,133.95469,196.45855)"
       aria-label="9">
      <path
         inkscape:connector-curvature="0"
         id="path7491"
         style="font-style:normal;font-variant:normal;font-weight:normal;font-stretch:normal;font-size:42.66666794px;line-height:53.33333588px;font-family:'Ubuntu Mono';-inkscape-font-specification:'Ubuntu Mono'"
         d="m 585.73802,242.42648 q 0,7.89333 -3.84,11.904 -3.84,3.968 -11.56267,4.01066 l -0.128,-2.98666 q 4.77867,0 7.68,-1.87734 2.944,-1.92 3.88267,-6.57066 -1.024,0.46933 -2.26134,0.768 -1.23733,0.256 -2.60266,0.256 -2.26134,0 -3.79734,-0.64 -1.536,-0.68267 -2.47466,-1.792 -0.93867,-1.152 -1.36534,-2.60267 -0.42666,-1.45067 -0.42666,-3.072 0,-1.45067 0.46933,-2.944 0.46933,-1.536 1.45067,-2.77333 0.98133,-1.23734 2.51733,-2.048 1.536,-0.81067 3.66933,-0.81067 4.352,0 6.57067,2.98667 2.21867,2.98666 2.21867,8.192 z m -8.448,2.60266 q 1.36533,0 2.51733,-0.256 1.19467,-0.256 2.304,-0.72533 0.0427,-0.42667 0.0427,-0.81067 0,-0.384 0,-0.81066 0,-1.664 -0.256,-3.15734 -0.21334,-1.49333 -0.81067,-2.60266 -0.55467,-1.10934 -1.57867,-1.74934 -0.98133,-0.68266 -2.51733,-0.68266 -1.28,0 -2.13333,0.55466 -0.85334,0.512 -1.408,1.32267 -0.55467,0.768 -0.81067,1.74933 -0.21333,0.98134 -0.21333,1.87734 0,2.60266 1.152,3.968 1.19466,1.32266 3.712,1.32266 z" />
    </g>
    <g
       id="flowRoot10926"
       style="font-style:normal;font-weight:normal;font-size:42.66666794px;line-height:1.25;font-family:sans-serif;letter-spacing:0px;word-spacing:0px;fill:#000000;fill-opacity:1;stroke:none"
       transform="matrix(-0.13224489,-0.22905485,0.22905485,-0.13224489,132.79072,204.66498)"
       aria-label="0">
      <path
         inkscape:connector-curvature="0"
         id="path7488"
         style="font-style:normal;font-variant:normal;font-weight:normal;font-stretch:normal;font-size:42.66666794px;line-height:53.33333588px;font-family:'Ubuntu Mono';-inkscape-font-specification:'Ubuntu Mono'"
         d="m 579.80735,244.55981 q 0,1.10933 -0.68267,1.92 -0.64,0.81067 -1.70666,0.81067 -1.10934,0 -1.792,-0.81067 -0.68267,-0.81067 -0.68267,-1.92 0,-1.10933 0.68267,-1.96267 0.68266,-0.85333 1.792,-0.85333 1.06666,0 1.70666,0.85333 0.68267,0.85334 0.68267,1.96267 z m -11.17867,0.46933 q 0,-6.656 2.26134,-10.19733 2.304,-3.584 6.44266,-3.584 4.18134,0 6.44267,3.584 2.26133,3.54133 2.26133,10.19733 0,6.656 -2.26133,10.24 -2.26133,3.54134 -6.44267,3.54134 -4.13866,0 -6.44266,-3.54134 -2.26134,-3.584 -2.26134,-10.24 z m 13.824,0 q 0,-2.176 -0.256,-4.096 -0.256,-1.96266 -0.85333,-3.41333 -0.59733,-1.45067 -1.57867,-2.304 -0.98133,-0.85333 -2.432,-0.85333 -1.45066,0 -2.432,0.85333 -0.98133,0.85333 -1.57866,2.304 -0.59734,1.45067 -0.85334,3.41333 -0.256,1.92 -0.256,4.096 0,2.176 0.256,4.13867 0.256,1.92 0.85334,3.37067 0.59733,1.45066 1.57866,2.304 0.98134,0.85333 2.432,0.85333 1.45067,0 2.432,-0.85333 0.98134,-0.85334 1.57867,-2.304 0.59733,-1.45067 0.85333,-3.37067 0.256,-1.96267 0.256,-4.13867 z" />
    </g>
    <g
       id="flowRoot10934"
       style="font-style:normal;font-weight:normal;font-size:42.66666794px;line-height:1.25;font-family:sans-serif;letter-spacing:0px;word-spacing:0px;fill:#000000;fill-opacity:1;stroke:none"
       transform="matrix(-0.15546319,-0.21397671,0.21397671,-0.15546319,132.49094,212.94811)"
       aria-label="1">
      <path
         inkscape:connector-curvature="0"
         id="path7485"
         style="font-style:normal;font-variant:normal;font-weight:normal;font-stretch:normal;font-size:42.66666794px;line-height:53.33333588px;font-family:'Ubuntu Mono';-inkscape-font-specification:'Ubuntu Mono'"
         d="m 569.86602,237.30648 q 2.176,-0.85334 4.224,-2.13334 2.048,-1.32266 3.79733,-3.328 h 2.47467 v 23.424 h 4.992 v 2.98667 h -14.208 v -2.98667 h 5.71733 v -18.51733 q -0.46933,0.42667 -1.152,0.896 -0.64,0.42667 -1.45067,0.85333 -0.768,0.42667 -1.62133,0.81067 -0.85333,0.384 -1.664,0.64 z" />
    </g>
    <g
       id="flowRoot10942"
       style="font-style:normal;font-weight:normal;font-size:42.66666794px;line-height:1.25;font-family:sans-serif;letter-spacing:0px;word-spacing:0px;fill:#000000;fill-opacity:1;stroke:none"
       transform="matrix(-0.1769782,-0.19655419,0.19655419,-0.1769782,133.05862,221.21721)"
       aria-label="2">
      <path
         inkscape:connector-curvature="0"
         id="path7482"
         style="font-style:normal;font-variant:normal;font-weight:normal;font-stretch:normal;font-size:42.66666794px;line-height:53.33333588px;font-family:'Ubuntu Mono';-inkscape-font-specification:'Ubuntu Mono'"
         d="m 584.58602,238.58648 q 0,1.36533 -0.55467,2.64533 -0.512,1.28 -1.408,2.51733 -0.85333,1.23734 -1.96267,2.432 -1.10933,1.19467 -2.26133,2.34667 -0.64,0.64 -1.49333,1.536 -0.85334,0.896 -1.62134,1.83467 -0.768,0.93866 -1.28,1.83466 -0.512,0.896 -0.512,1.536 h 12.16 v 2.98667 h -16 q -0.0427,-0.21333 -0.0427,-0.42667 0,-0.256 0,-0.46933 0,-1.792 0.59733,-3.328 0.59733,-1.536 1.536,-2.90133 0.93867,-1.36534 2.09067,-2.56 1.19466,-1.23734 2.34666,-2.38934 0.93867,-0.93866 1.792,-1.83466 0.896,-0.896 1.536,-1.792 0.68267,-0.896 1.06667,-1.83467 0.42667,-0.98133 0.42667,-2.00533 0,-1.152 -0.384,-1.96267 -0.34134,-0.81067 -0.98134,-1.32267 -0.59733,-0.55466 -1.408,-0.81066 -0.81066,-0.256 -1.74933,-0.256 -1.10933,0 -2.048,0.29866 -0.896,0.29867 -1.62133,0.72534 -0.68267,0.42666 -1.19467,0.85333 -0.512,0.384 -0.768,0.64 l -1.74933,-2.47467 q 0.34133,-0.384 1.024,-0.93866 0.68266,-0.55467 1.62133,-1.024 0.98133,-0.512 2.176,-0.85334 1.19467,-0.34133 2.56,-0.34133 4.13867,0 6.10133,1.92 2.00534,1.87733 2.00534,5.41867 z" />
    </g>
    <g
       id="flowRoot10950"
       style="font-style:normal;font-weight:normal;font-size:42.66666794px;line-height:1.25;font-family:sans-serif;letter-spacing:0px;word-spacing:0px;fill:#000000;fill-opacity:1;stroke:none"
       transform="matrix(-0.1965542,-0.17697819,0.17697819,-0.1965542,134.48755,229.38166)"
       aria-label="3">
      <path
         inkscape:connector-curvature="0"
         id="path7479"
         style="font-style:normal;font-variant:normal;font-weight:normal;font-stretch:normal;font-size:42.66666794px;line-height:53.33333588px;font-family:'Ubuntu Mono';-inkscape-font-specification:'Ubuntu Mono'"
         d="m 575.71135,255.69581 q 3.37067,0 4.77867,-1.32267 1.45066,-1.36533 1.45066,-3.62666 0,-1.45067 -0.59733,-2.432 -0.59733,-0.98134 -1.57867,-1.57867 -0.98133,-0.59733 -2.26133,-0.85333 -1.28,-0.256 -2.688,-0.256 h -0.896 v -2.85867 h 1.23733 q 0.93867,0 1.92,-0.17067 1.024,-0.21333 1.83467,-0.68266 0.85333,-0.512 1.36533,-1.36534 0.512,-0.85333 0.512,-2.176 0,-2.176 -1.36533,-3.072 -1.32267,-0.93866 -3.11467,-0.93866 -1.83466,0 -3.11466,0.55466 -1.28,0.512 -2.13334,1.06667 l -1.36533,-2.688 q 0.896,-0.64 2.688,-1.32267 1.83467,-0.72533 4.05333,-0.72533 2.09067,0 3.584,0.512 1.49334,0.512 2.432,1.45067 0.98134,0.93866 1.45067,2.21866 0.46933,1.23734 0.46933,2.73067 0,2.09067 -1.10933,3.54133 -1.06667,1.45067 -2.77333,2.21867 2.048,0.59733 3.54133,2.34667 1.49333,1.70666 1.49333,4.56533 0,1.70667 -0.59733,3.2 -0.55467,1.45067 -1.74933,2.51733 -1.152,1.06667 -3.02934,1.664 -1.83466,0.59734 -4.39466,0.59734 -0.98134,0 -2.048,-0.17067 -1.024,-0.128 -1.92,-0.384 -0.896,-0.21333 -1.62134,-0.42667 -0.68266,-0.256 -0.98133,-0.384 l 0.68267,-3.02933 q 0.68266,0.34133 2.176,0.81067 1.49333,0.46933 3.66933,0.46933 z" />
    </g>
    <g
       id="flowRoot10958"
       style="font-style:normal;font-weight:normal;font-size:42.66666794px;line-height:1.25;font-family:sans-serif;letter-spacing:0px;word-spacing:0px;fill:#000000;fill-opacity:1;stroke:none"
       transform="matrix(-0.21397672,-0.15546318,0.15546318,-0.21397672,136.76207,237.35203)"
       aria-label="4">
      <path
         inkscape:connector-curvature="0"
         id="path7476"
         style="font-style:normal;font-variant:normal;font-weight:normal;font-stretch:normal;font-size:42.66666794px;line-height:53.33333588px;font-family:'Ubuntu Mono';-inkscape-font-specification:'Ubuntu Mono'"
         d="m 568.20202,249.12514 q 0.72533,-1.70666 1.96266,-3.92533 1.28,-2.21867 2.85867,-4.56533 1.57867,-2.38934 3.37067,-4.65067 1.792,-2.304 3.62666,-4.13867 h 3.41334 v 16.768 h 3.11466 v 2.90134 h -3.11466 v 6.74133 h -3.41334 v -6.74133 h -11.81866 z m 11.81866,-13.09866 q -1.152,1.23733 -2.34666,2.73066 -1.152,1.49334 -2.26134,3.15734 -1.10933,1.62133 -2.09066,3.328 -0.93867,1.70666 -1.70667,3.37066 h 8.40533 z" />
    </g>
    <g
       id="flowRoot10966"
       style="font-style:normal;font-weight:normal;font-size:42.66666794px;line-height:1.25;font-family:sans-serif;letter-spacing:0px;word-spacing:0px;fill:#000000;fill-opacity:1;stroke:none"
       transform="matrix(-0.22905486,-0.13224488,0.13224488,-0.22905486,139.85725,245.04098)"
       aria-label="5">
      <path
         inkscape:connector-curvature="0"
         id="path7473"
         style="font-style:normal;font-variant:normal;font-weight:normal;font-stretch:normal;font-size:42.66666794px;line-height:53.33333588px;font-family:'Ubuntu Mono';-inkscape-font-specification:'Ubuntu Mono'"
         d="m 574.60202,242.04248 q 5.71733,0.21333 8.32,2.51733 2.60266,2.304 2.60266,6.18667 0,1.74933 -0.55466,3.24266 -0.55467,1.49334 -1.74934,2.56 -1.152,1.06667 -2.98666,1.664 -1.792,0.59734 -4.26667,0.59734 -1.024,0 -2.048,-0.17067 -0.98133,-0.128 -1.87733,-0.34133 -0.896,-0.21334 -1.57867,-0.42667 -0.68267,-0.256 -0.98133,-0.42667 l 0.68266,-3.02933 q 0.68267,0.34133 2.09067,0.81067 1.45067,0.46933 3.62667,0.46933 1.70666,0 2.85866,-0.384 1.152,-0.384 1.83467,-1.024 0.72533,-0.68267 1.024,-1.536 0.34133,-0.85333 0.34133,-1.792 0,-1.45067 -0.512,-2.56 -0.46933,-1.152 -1.70666,-1.92 -1.19467,-0.768 -3.328,-1.152 -2.09067,-0.42667 -5.29067,-0.42667 0.256,-1.87733 0.384,-3.49866 0.17067,-1.664 0.256,-3.2 0.128,-1.57867 0.17067,-3.11467 0.0853,-1.536 0.17066,-3.24267 h 12.71467 v 2.98667 h -9.64267 q -0.0427,0.59733 -0.128,1.57867 -0.0427,0.93866 -0.128,2.00533 -0.0853,1.06667 -0.17066,2.048 -0.0853,0.98133 -0.128,1.57867 z" />
    </g>
    <g
       id="flowRoot10974"
       style="font-style:normal;font-weight:normal;font-size:42.66666794px;line-height:1.25;font-family:sans-serif;letter-spacing:0px;word-spacing:0px;fill:#000000;fill-opacity:1;stroke:none"
       transform="matrix(-0.24162342,-0.10757767,0.10757767,-0.24162342,143.7392,252.36428)"
       aria-label="6">
      <path
         inkscape:connector-curvature="0"
         id="path7470"
         style="font-style:normal;font-variant:normal;font-weight:normal;font-stretch:normal;font-size:42.66666794px;line-height:53.33333588px;font-family:'Ubuntu Mono';-inkscape-font-specification:'Ubuntu Mono'"
         d="m 568.97002,247.67448 q 0,-3.84 1.024,-6.784 1.06666,-2.98667 2.98666,-4.992 1.96267,-2.00534 4.736,-3.072 2.77334,-1.06667 6.272,-1.10934 l 0.29867,2.98667 q -2.26133,0.0427 -4.13867,0.512 -1.83466,0.42667 -3.28533,1.45067 -1.45067,0.98133 -2.432,2.56 -0.98133,1.57866 -1.49333,3.88266 1.024,-0.46933 2.21866,-0.768 1.23734,-0.29866 2.60267,-0.29866 2.21867,0 3.75467,0.68266 1.57866,0.68267 2.51733,1.83467 0.93867,1.10933 1.36533,2.60267 0.42667,1.49333 0.42667,3.072 0,1.45066 -0.46933,2.98666 -0.46934,1.49334 -1.45067,2.77334 -0.98133,1.23733 -2.51733,2.048 -1.536,0.768 -3.66934,0.768 -4.39466,0 -6.57066,-2.944 -2.176,-2.944 -2.176,-8.192 z m 8.40533,-2.73067 q -1.36533,0 -2.51733,0.256 -1.10934,0.256 -2.26134,0.768 -0.0427,0.42667 -0.0427,0.85333 0,0.384 0,0.85334 0,1.664 0.21333,3.15733 0.256,1.45067 0.81067,2.60267 0.59733,1.10933 1.57866,1.792 0.98134,0.64 2.51734,0.64 1.28,0 2.13333,-0.512 0.85333,-0.55467 1.408,-1.36534 0.55467,-0.81066 0.768,-1.792 0.256,-1.024 0.256,-1.92 0,-2.60266 -1.19467,-3.968 -1.152,-1.36533 -3.66933,-1.36533 z" />
    </g>
    <g
       id="flowRoot10982"
       style="font-style:normal;font-weight:normal;font-size:42.66666794px;line-height:1.25;font-family:sans-serif;letter-spacing:0px;word-spacing:0px;fill:#000000;fill-opacity:1;stroke:none"
       transform="matrix(-0.25154471,-0.08173182,0.08173182,-0.25154471,148.36538,259.24169)"
       aria-label="7">
      <path
         inkscape:connector-curvature="0"
         id="path7467"
         style="font-style:normal;font-variant:normal;font-weight:normal;font-stretch:normal;font-size:42.66666794px;line-height:53.33333588px;font-family:'Ubuntu Mono';-inkscape-font-specification:'Ubuntu Mono'"
         d="m 573.27935,258.25581 q 0.21333,-3.02933 1.06667,-6.4 0.896,-3.41333 2.13333,-6.57067 1.23733,-3.2 2.73067,-5.888 1.49333,-2.73066 2.944,-4.48 h -12.8 v -3.072 h 16.72533 v 2.944 q -1.28,1.49334 -2.77333,4.01067 -1.49334,2.51733 -2.85867,5.67467 -1.32267,3.11466 -2.304,6.69866 -0.98133,3.54134 -1.23733,7.08267 z" />
    </g>
    <g
       id="flowRoot10990"
       style="font-style:normal;font-weight:normal;font-size:42.66666794px;line-height:1.25;font-family:sans-serif;letter-spacing:0px;word-spacing:0px;fill:#000000;fill-opacity:1;stroke:none"
       transform="matrix(-0.25871003,-0.0549905,0.0549905,-0.25871003,153.6851,265.59785)"
       aria-label="8">
      <path
         inkscape:connector-curvature="0"
         id="path7464"
         style="font-style:normal;font-variant:normal;font-weight:normal;font-stretch:normal;font-size:42.66666794px;line-height:53.33333588px;font-family:'Ubuntu Mono';-inkscape-font-specification:'Ubuntu Mono'"
         d="m 585.82335,251.38648 q 0,3.328 -2.13333,5.376 -2.09067,2.048 -6.4,2.048 -2.47467,0 -4.096,-0.64 -1.62134,-0.68267 -2.60267,-1.70667 -0.93867,-1.06667 -1.36533,-2.34667 -0.384,-1.28 -0.384,-2.51733 0,-2.26133 1.23733,-4.01067 1.23733,-1.74933 2.944,-2.816 -3.62667,-2.048 -3.62667,-6.272 0,-1.45066 0.55467,-2.77333 0.55467,-1.32267 1.57867,-2.304 1.024,-0.98133 2.47466,-1.57867 1.49334,-0.59733 3.328,-0.59733 2.13334,0 3.62667,0.64 1.536,0.64 2.47467,1.664 0.93866,0.98133 1.36533,2.21867 0.42667,1.19466 0.42667,2.34666 0,2.26134 -1.152,3.92534 -1.152,1.62133 -2.64534,2.60266 4.39467,2.09067 4.39467,6.74134 z m -13.568,0.256 q 0,0.68266 0.256,1.45066 0.256,0.72534 0.85333,1.36534 0.59734,0.64 1.57867,1.06666 0.98133,0.384 2.38933,0.384 1.32267,0 2.26134,-0.34133 0.98133,-0.384 1.57866,-0.98133 0.64,-0.64 0.93867,-1.408 0.29867,-0.768 0.29867,-1.536 0,-2.432 -1.74934,-3.712 -1.74933,-1.32267 -4.82133,-2.00534 -1.70667,0.93867 -2.64533,2.34667 -0.93867,1.408 -0.93867,3.37067 z m 9.55733,-13.52534 q 0,-0.55466 -0.256,-1.23733 -0.256,-0.72533 -0.81066,-1.28 -0.512,-0.59733 -1.36534,-0.98133 -0.85333,-0.42667 -2.048,-0.42667 -1.23733,0 -2.09066,0.384 -0.81067,0.384 -1.36534,0.98133 -0.55466,0.55467 -0.81066,1.28 -0.21334,0.68267 -0.21334,1.36534 0,1.74933 1.23734,3.28533 1.28,1.49333 4.18133,2.176 1.62133,-0.93867 2.56,-2.21867 0.98133,-1.28 0.98133,-3.328 z" />
    </g>
    <g
       id="flowRoot10998"
       style="font-style:normal;font-weight:normal;font-size:42.66666794px;line-height:1.25;font-family:sans-serif;letter-spacing:0px;word-spacing:0px;fill:#000000;fill-opacity:1;stroke:none"
       transform="matrix(-0.26304086,-0.02764669,0.02764669,-0.26304086,159.64008,271.36313)"
       aria-label="9">
      <path
         inkscape:connector-curvature="0"
         id="path7461"
         style="font-style:normal;font-variant:normal;font-weight:normal;font-stretch:normal;font-size:42.66666794px;line-height:53.33333588px;font-family:'Ubuntu Mono';-inkscape-font-specification:'Ubuntu Mono'"
         d="m 585.73802,242.42648 q 0,7.89333 -3.84,11.904 -3.84,3.968 -11.56267,4.01066 l -0.128,-2.98666 q 4.77867,0 7.68,-1.87734 2.944,-1.92 3.88267,-6.57066 -1.024,0.46933 -2.26134,0.768 -1.23733,0.256 -2.60266,0.256 -2.26134,0 -3.79734,-0.64 -1.536,-0.68267 -2.47466,-1.792 -0.93867,-1.152 -1.36534,-2.60267 -0.42666,-1.45067 -0.42666,-3.072 0,-1.45067 0.46933,-2.944 0.46933,-1.536 1.45067,-2.77333 0.98133,-1.23734 2.51733,-2.048 1.536,-0.81067 3.66933,-0.81067 4.352,0 6.57067,2.98667 2.21867,2.98666 2.21867,8.192 z m -8.448,2.60266 q 1.36533,0 2.51733,-0.256 1.19467,-0.256 2.304,-0.72533 0.0427,-0.42667 0.0427,-0.81067 0,-0.384 0,-0.81066 0,-1.664 -0.256,-3.15734 -0.21334,-1.49333 -0.81067,-2.60266 -0.55467,-1.10934 -1.57867,-1.74934 -0.98133,-0.68266 -2.51733,-0.68266 -1.28,0 -2.13333,0.55466 -0.85334,0.512 -1.408,1.32267 -0.55467,0.768 -0.81067,1.74933 -0.21333,0.98134 -0.21333,1.87734 0,2.60266 1.152,3.968 1.19466,1.32266 3.712,1.32266 z" />
    </g>
    <g
       id="flowRoot11006"
       style="font-style:normal;font-weight:normal;font-size:42.66666794px;line-height:1.25;font-family:sans-serif;letter-spacing:0px;word-spacing:0px;fill:#000000;fill-opacity:1;stroke:none"
       transform="matrix(-0.26448976,1.6186019e-8,-1.6186019e-8,-0.26448976,166.16506,276.47436)"
       aria-label="0">
      <path
         inkscape:connector-curvature="0"
         id="path7458"
         style="font-style:normal;font-variant:normal;font-weight:normal;font-stretch:normal;font-size:42.66666794px;line-height:53.33333588px;font-family:'Ubuntu Mono';-inkscape-font-specification:'Ubuntu Mono'"
         d="m 579.80735,244.55981 q 0,1.10933 -0.68267,1.92 -0.64,0.81067 -1.70666,0.81067 -1.10934,0 -1.792,-0.81067 -0.68267,-0.81067 -0.68267,-1.92 0,-1.10933 0.68267,-1.96267 0.68266,-0.85333 1.792,-0.85333 1.06666,0 1.70666,0.85333 0.68267,0.85334 0.68267,1.96267 z m -11.17867,0.46933 q 0,-6.656 2.26134,-10.19733 2.304,-3.584 6.44266,-3.584 4.18134,0 6.44267,3.584 2.26133,3.54133 2.26133,10.19733 0,6.656 -2.26133,10.24 -2.26133,3.54134 -6.44267,3.54134 -4.13866,0 -6.44266,-3.54134 -2.26134,-3.584 -2.26134,-10.24 z m 13.824,0 q 0,-2.176 -0.256,-4.096 -0.256,-1.96266 -0.85333,-3.41333 -0.59733,-1.45067 -1.57867,-2.304 -0.98133,-0.85333 -2.432,-0.85333 -1.45066,0 -2.432,0.85333 -0.98133,0.85333 -1.57866,2.304 -0.59734,1.45067 -0.85334,3.41333 -0.256,1.92 -0.256,4.096 0,2.176 0.256,4.13867 0.256,1.92 0.85334,3.37067 0.59733,1.45066 1.57866,2.304 0.98134,0.85333 2.432,0.85333 1.45067,0 2.432,-0.85333 0.98134,-0.85334 1.57867,-2.304 0.59733,-1.45067 0.85333,-3.37067 0.256,-1.96267 0.256,-4.13867 z" />
    </g>
    <g
       id="flowRoot11014"
       style="font-style:normal;font-weight:normal;font-size:42.66666794px;line-height:1.25;font-family:sans-serif;letter-spacing:0px;word-spacing:0px;fill:#000000;fill-opacity:1;stroke:none"
       transform="matrix(-0.26304085,0.02764672,-0.02764672,-0.26304085,173.18857,280.87555)"
       aria-label="1">
      <path
         inkscape:connector-curvature="0"
         id="path7455"
         style="font-style:normal;font-variant:normal;font-weight:normal;font-stretch:normal;font-size:42.66666794px;line-height:53.33333588px;font-family:'Ubuntu Mono';-inkscape-font-specification:'Ubuntu Mono'"
         d="m 569.86602,237.30648 q 2.176,-0.85334 4.224,-2.13334 2.048,-1.32266 3.79733,-3.328 h 2.47467 v 23.424 h 4.992 v 2.98667 h -14.208 v -2.98667 h 5.71733 v -18.51733 q -0.46933,0.42667 -1.152,0.896 -0.64,0.42667 -1.45067,0.85333 -0.768,0.42667 -1.62133,0.81067 -0.85333,0.384 -1.664,0.64 z" />
    </g>
    <g
       id="flowRoot11022"
       style="font-style:normal;font-weight:normal;font-size:42.66666794px;line-height:1.25;font-family:sans-serif;letter-spacing:0px;word-spacing:0px;fill:#000000;fill-opacity:1;stroke:none"
       transform="matrix(-0.25871001,0.05499052,-0.05499052,-0.25871001,180.63366,284.51847)"
       aria-label="2">
      <path
         inkscape:connector-curvature="0"
         id="path7452"
         style="font-style:normal;font-variant:normal;font-weight:normal;font-stretch:normal;font-size:42.66666794px;line-height:53.33333588px;font-family:'Ubuntu Mono';-inkscape-font-specification:'Ubuntu Mono'"
         d="m 584.58602,238.58648 q 0,1.36533 -0.55467,2.64533 -0.512,1.28 -1.408,2.51733 -0.85333,1.23734 -1.96267,2.432 -1.10933,1.19467 -2.26133,2.34667 -0.64,0.64 -1.49333,1.536 -0.85334,0.896 -1.62134,1.83467 -0.768,0.93866 -1.28,1.83466 -0.512,0.896 -0.512,1.536 h 12.16 v 2.98667 h -16 q -0.0427,-0.21333 -0.0427,-0.42667 0,-0.256 0,-0.46933 0,-1.792 0.59733,-3.328 0.59733,-1.536 1.536,-2.90133 0.93867,-1.36534 2.09067,-2.56 1.19466,-1.23734 2.34666,-2.38934 0.93867,-0.93866 1.792,-1.83466 0.896,-0.896 1.536,-1.792 0.68267,-0.896 1.06667,-1.83467 0.42667,-0.98133 0.42667,-2.00533 0,-1.152 -0.384,-1.96267 -0.34134,-0.81067 -0.98134,-1.32267 -0.59733,-0.55466 -1.408,-0.81066 -0.81066,-0.256 -1.74933,-0.256 -1.10933,0 -2.048,0.29866 -0.896,0.29867 -1.62133,0.72534 -0.68267,0.42666 -1.19467,0.85333 -0.512,0.384 -0.768,0.64 l -1.74933,-2.47467 q 0.34133,-0.384 1.024,-0.93866 0.68266,-0.55467 1.62133,-1.024 0.98133,-0.512 2.176,-0.85334 1.19467,-0.34133 2.56,-0.34133 4.13867,0 6.10133,1.92 2.00534,1.87733 2.00534,5.41867 z" />
    </g>
    <g
       id="flowRoot11030"
       style="font-style:normal;font-weight:normal;font-size:42.66666794px;line-height:1.25;font-family:sans-serif;letter-spacing:0px;word-spacing:0px;fill:#000000;fill-opacity:1;stroke:none"
       transform="matrix(-0.25154469,0.08173183,-0.08173183,-0.25154469,188.41876,287.36321)"
       aria-label="3">
      <path
         inkscape:connector-curvature="0"
         id="path7449"
         style="font-style:normal;font-variant:normal;font-weight:normal;font-stretch:normal;font-size:42.66666794px;line-height:53.33333588px;font-family:'Ubuntu Mono';-inkscape-font-specification:'Ubuntu Mono'"
         d="m 575.71135,255.69581 q 3.37067,0 4.77867,-1.32267 1.45066,-1.36533 1.45066,-3.62666 0,-1.45067 -0.59733,-2.432 -0.59733,-0.98134 -1.57867,-1.57867 -0.98133,-0.59733 -2.26133,-0.85333 -1.28,-0.256 -2.688,-0.256 h -0.896 v -2.85867 h 1.23733 q 0.93867,0 1.92,-0.17067 1.024,-0.21333 1.83467,-0.68266 0.85333,-0.512 1.36533,-1.36534 0.512,-0.85333 0.512,-2.176 0,-2.176 -1.36533,-3.072 -1.32267,-0.93866 -3.11467,-0.93866 -1.83466,0 -3.11466,0.55466 -1.28,0.512 -2.13334,1.06667 l -1.36533,-2.688 q 0.896,-0.64 2.688,-1.32267 1.83467,-0.72533 4.05333,-0.72533 2.09067,0 3.584,0.512 1.49334,0.512 2.432,1.45067 0.98134,0.93866 1.45067,2.21866 0.46933,1.23734 0.46933,2.73067 0,2.09067 -1.10933,3.54133 -1.06667,1.45067 -2.77333,2.21867 2.048,0.59733 3.54133,2.34667 1.49333,1.70666 1.49333,4.56533 0,1.70667 -0.59733,3.2 -0.55467,1.45067 -1.74933,2.51733 -1.152,1.06667 -3.02934,1.664 -1.83466,0.59734 -4.39466,0.59734 -0.98134,0 -2.048,-0.17067 -1.024,-0.128 -1.92,-0.384 -0.896,-0.21333 -1.62134,-0.42667 -0.68266,-0.256 -0.98133,-0.384 l 0.68267,-3.02933 q 0.68266,0.34133 2.176,0.81067 1.49333,0.46933 3.66933,0.46933 z" />
    </g>
    <g
       id="flowRoot11038"
       style="font-style:normal;font-weight:normal;font-size:42.66666794px;line-height:1.25;font-family:sans-serif;letter-spacing:0px;word-spacing:0px;fill:#000000;fill-opacity:1;stroke:none"
       transform="matrix(-0.2416234,0.10757768,-0.10757768,-0.2416234,196.45856,289.37861)"
       aria-label="4">
      <path
         inkscape:connector-curvature="0"
         id="path7446"
         style="font-style:normal;font-variant:normal;font-weight:normal;font-stretch:normal;font-size:42.66666794px;line-height:53.33333588px;font-family:'Ubuntu Mono';-inkscape-font-specification:'Ubuntu Mono'"
         d="m 568.20202,249.12514 q 0.72533,-1.70666 1.96266,-3.92533 1.28,-2.21867 2.85867,-4.56533 1.57867,-2.38934 3.37067,-4.65067 1.792,-2.304 3.62666,-4.13867 h 3.41334 v 16.768 h 3.11466 v 2.90134 h -3.11466 v 6.74133 h -3.41334 v -6.74133 h -11.81866 z m 11.81866,-13.09866 q -1.152,1.23733 -2.34666,2.73066 -1.152,1.49334 -2.26134,3.15734 -1.10933,1.62133 -2.09066,3.328 -0.93867,1.70666 -1.70667,3.37066 h 8.40533 z" />
    </g>
    <g
       id="flowRoot11046"
       style="font-style:normal;font-weight:normal;font-size:42.66666794px;line-height:1.25;font-family:sans-serif;letter-spacing:0px;word-spacing:0px;fill:#000000;fill-opacity:1;stroke:none"
       transform="matrix(-0.22905484,0.13224489,-0.13224489,-0.22905484,204.66498,290.54258)"
       aria-label="5">
      <path
         inkscape:connector-curvature="0"
         id="path7443"
         style="font-style:normal;font-variant:normal;font-weight:normal;font-stretch:normal;font-size:42.66666794px;line-height:53.33333588px;font-family:'Ubuntu Mono';-inkscape-font-specification:'Ubuntu Mono'"
         d="m 574.60202,242.04248 q 5.71733,0.21333 8.32,2.51733 2.60266,2.304 2.60266,6.18667 0,1.74933 -0.55466,3.24266 -0.55467,1.49334 -1.74934,2.56 -1.152,1.06667 -2.98666,1.664 -1.792,0.59734 -4.26667,0.59734 -1.024,0 -2.048,-0.17067 -0.98133,-0.128 -1.87733,-0.34133 -0.896,-0.21334 -1.57867,-0.42667 -0.68267,-0.256 -0.98133,-0.42667 l 0.68266,-3.02933 q 0.68267,0.34133 2.09067,0.81067 1.45067,0.46933 3.62667,0.46933 1.70666,0 2.85866,-0.384 1.152,-0.384 1.83467,-1.024 0.72533,-0.68267 1.024,-1.536 0.34133,-0.85333 0.34133,-1.792 0,-1.45067 -0.512,-2.56 -0.46933,-1.152 -1.70666,-1.92 -1.19467,-0.768 -3.328,-1.152 -2.09067,-0.42667 -5.29067,-0.42667 0.256,-1.87733 0.384,-3.49866 0.17067,-1.664 0.256,-3.2 0.128,-1.57867 0.17067,-3.11467 0.0853,-1.536 0.17066,-3.24267 h 12.71467 v 2.98667 h -9.64267 q -0.0427,0.59733 -0.128,1.57867 -0.0427,0.93866 -0.128,2.00533 -0.0853,1.06667 -0.17066,2.048 -0.0853,0.98133 -0.128,1.57867 z" />
    </g>
    <g
       id="flowRoot11054"
       style="font-style:normal;font-weight:normal;font-size:42.66666794px;line-height:1.25;font-family:sans-serif;letter-spacing:0px;word-spacing:0px;fill:#000000;fill-opacity:1;stroke:none"
       transform="matrix(-0.2139767,0.15546319,-0.15546319,-0.2139767,212.94811,290.84236)"
       aria-label="6">
      <path
         inkscape:connector-curvature="0"
         id="path7440"
         style="font-style:normal;font-variant:normal;font-weight:normal;font-stretch:normal;font-size:42.66666794px;line-height:53.33333588px;font-family:'Ubuntu Mono';-inkscape-font-specification:'Ubuntu Mono'"
         d="m 568.97002,247.67448 q 0,-3.84 1.024,-6.784 1.06666,-2.98667 2.98666,-4.992 1.96267,-2.00534 4.736,-3.072 2.77334,-1.06667 6.272,-1.10934 l 0.29867,2.98667 q -2.26133,0.0427 -4.13867,0.512 -1.83466,0.42667 -3.28533,1.45067 -1.45067,0.98133 -2.432,2.56 -0.98133,1.57866 -1.49333,3.88266 1.024,-0.46933 2.21866,-0.768 1.23734,-0.29866 2.60267,-0.29866 2.21867,0 3.75467,0.68266 1.57866,0.68267 2.51733,1.83467 0.93867,1.10933 1.36533,2.60267 0.42667,1.49333 0.42667,3.072 0,1.45066 -0.46933,2.98666 -0.46934,1.49334 -1.45067,2.77334 -0.98133,1.23733 -2.51733,2.048 -1.536,0.768 -3.66934,0.768 -4.39466,0 -6.57066,-2.944 -2.176,-2.944 -2.176,-8.192 z m 8.40533,-2.73067 q -1.36533,0 -2.51733,0.256 -1.10934,0.256 -2.26134,0.768 -0.0427,0.42667 -0.0427,0.85333 0,0.384 0,0.85334 0,1.664 0.21333,3.15733 0.256,1.45067 0.81067,2.60267 0.59733,1.10933 1.57866,1.792 0.98134,0.64 2.51734,0.64 1.28,0 2.13333,-0.512 0.85333,-0.55467 1.408,-1.36534 0.55467,-0.81066 0.768,-1.792 0.256,-1.024 0.256,-1.92 0,-2.60266 -1.19467,-3.968 -1.152,-1.36533 -3.66933,-1.36533 z" />
    </g>
    <g
       id="flowRoot11062"
       style="font-style:normal;font-weight:normal;font-size:42.66666794px;line-height:1.25;font-family:sans-serif;letter-spacing:0px;word-spacing:0px;fill:#000000;fill-opacity:1;stroke:none"
       transform="matrix(-0.19655418,0.1769782,-0.1769782,-0.19655418,221.21721,290.27468)"
       aria-label="7">
      <path
         inkscape:connector-curvature="0"
         id="path7437"
         style="font-style:normal;font-variant:normal;font-weight:normal;font-stretch:normal;font-size:42.66666794px;line-height:53.33333588px;font-family:'Ubuntu Mono';-inkscape-font-specification:'Ubuntu Mono'"
         d="m 573.27935,258.25581 q 0.21333,-3.02933 1.06667,-6.4 0.896,-3.41333 2.13333,-6.57067 1.23733,-3.2 2.73067,-5.888 1.49333,-2.73066 2.944,-4.48 h -12.8 v -3.072 h 16.72533 v 2.944 q -1.28,1.49334 -2.77333,4.01067 -1.49334,2.51733 -2.85867,5.67467 -1.32267,3.11466 -2.304,6.69866 -0.98133,3.54134 -1.23733,7.08267 z" />
    </g>
    <g
       id="flowRoot11070"
       style="font-style:normal;font-weight:normal;font-size:42.66666794px;line-height:1.25;font-family:sans-serif;letter-spacing:0px;word-spacing:0px;fill:#000000;fill-opacity:1;stroke:none"
       transform="matrix(-0.17697818,0.1965542,-0.1965542,-0.17697818,229.38167,288.84576)"
       aria-label="8">
      <path
         inkscape:connector-curvature="0"
         id="path7434"
         style="font-style:normal;font-variant:normal;font-weight:normal;font-stretch:normal;font-size:42.66666794px;line-height:53.33333588px;font-family:'Ubuntu Mono';-inkscape-font-specification:'Ubuntu Mono'"
         d="m 585.82335,251.38648 q 0,3.328 -2.13333,5.376 -2.09067,2.048 -6.4,2.048 -2.47467,0 -4.096,-0.64 -1.62134,-0.68267 -2.60267,-1.70667 -0.93867,-1.06667 -1.36533,-2.34667 -0.384,-1.28 -0.384,-2.51733 0,-2.26133 1.23733,-4.01067 1.23733,-1.74933 2.944,-2.816 -3.62667,-2.048 -3.62667,-6.272 0,-1.45066 0.55467,-2.77333 0.55467,-1.32267 1.57867,-2.304 1.024,-0.98133 2.47466,-1.57867 1.49334,-0.59733 3.328,-0.59733 2.13334,0 3.62667,0.64 1.536,0.64 2.47467,1.664 0.93866,0.98133 1.36533,2.21867 0.42667,1.19466 0.42667,2.34666 0,2.26134 -1.152,3.92534 -1.152,1.62133 -2.64534,2.60266 4.39467,2.09067 4.39467,6.74134 z m -13.568,0.256 q 0,0.68266 0.256,1.45066 0.256,0.72534 0.85333,1.36534 0.59734,0.64 1.57867,1.06666 0.98133,0.384 2.38933,0.384 1.32267,0 2.26134,-0.34133 0.98133,-0.384 1.57866,-0.98133 0.64,-0.64 0.93867,-1.408 0.29867,-0.768 0.29867,-1.536 0,-2.432 -1.74934,-3.712 -1.74933,-1.32267 -4.82133,-2.00534 -1.70667,0.93867 -2.64533,2.34667 -0.93867,1.408 -0.93867,3.37067 z m 9.55733,-13.52534 q 0,-0.55466 -0.256,-1.23733 -0.256,-0.72533 -0.81066,-1.28 -0.512,-0.59733 -1.36534,-0.98133 -0.85333,-0.42667 -2.048,-0.42667 -1.23733,0 -2.09066,0.384 -0.81067,0.384 -1.36534,0.98133 -0.55466,0.55467 -0.81066,1.28 -0.21334,0.68267 -0.21334,1.36534 0,1.74933 1.23734,3.28533 1.28,1.49333 4.18133,2.176 1.62133,-0.93867 2.56,-2.21867 0.98133,-1.28 0.98133,-3.328 z" />
    </g>
    <g
       id="flowRoot11078"
       style="font-style:normal;font-weight:normal;font-size:42.66666794px;line-height:1.25;font-family:sans-serif;letter-spacing:0px;word-spacing:0px;fill:#000000;fill-opacity:1;stroke:none"
       transform="matrix(-0.15546317,0.21397671,-0.21397671,-0.15546317,237.35204,286.57124)"
       aria-label="9">
      <path
         inkscape:connector-curvature="0"
         id="path7431"
         style="font-style:normal;font-variant:normal;font-weight:normal;font-stretch:normal;font-size:42.66666794px;line-height:53.33333588px;font-family:'Ubuntu Mono';-inkscape-font-specification:'Ubuntu Mono'"
         d="m 585.73802,242.42648 q 0,7.89333 -3.84,11.904 -3.84,3.968 -11.56267,4.01066 l -0.128,-2.98666 q 4.77867,0 7.68,-1.87734 2.944,-1.92 3.88267,-6.57066 -1.024,0.46933 -2.26134,0.768 -1.23733,0.256 -2.60266,0.256 -2.26134,0 -3.79734,-0.64 -1.536,-0.68267 -2.47466,-1.792 -0.93867,-1.152 -1.36534,-2.60267 -0.42666,-1.45067 -0.42666,-3.072 0,-1.45067 0.46933,-2.944 0.46933,-1.536 1.45067,-2.77333 0.98133,-1.23734 2.51733,-2.048 1.536,-0.81067 3.66933,-0.81067 4.352,0 6.57067,2.98667 2.21867,2.98666 2.21867,8.192 z m -8.448,2.60266 q 1.36533,0 2.51733,-0.256 1.19467,-0.256 2.304,-0.72533 0.0427,-0.42667 0.0427,-0.81067 0,-0.384 0,-0.81066 0,-1.664 -0.256,-3.15734 -0.21334,-1.49333 -0.81067,-2.60266 -0.55467,-1.10934 -1.57867,-1.74934 -0.98133,-0.68266 -2.51733,-0.68266 -1.28,0 -2.13333,0.55466 -0.85334,0.512 -1.408,1.32267 -0.55467,0.768 -0.81067,1.74933 -0.21333,0.98134 -0.21333,1.87734 0,2.60266 1.152,3.968 1.19466,1.32266 3.712,1.32266 z" />
    </g>
    <g
       id="flowRoot11086"
       style="font-style:normal;font-weight:normal;font-size:42.66666794px;line-height:1.25;font-family:sans-serif;letter-spacing:0px;word-spacing:0px;fill:#000000;fill-opacity:1;stroke:none"
       transform="matrix(-0.13224487,0.22905485,-0.22905485,-0.13224487,245.041,283.47606)"
       aria-label="0">
      <path
         inkscape:connector-curvature="0"
         id="path7428"
         style="font-style:normal;font-variant:normal;font-weight:normal;font-stretch:normal;font-size:42.66666794px;line-height:53.33333588px;font-family:'Ubuntu Mono';-inkscape-font-specification:'Ubuntu Mono'"
         d="m 579.80735,244.55981 q 0,1.10933 -0.68267,1.92 -0.64,0.81067 -1.70666,0.81067 -1.10934,0 -1.792,-0.81067 -0.68267,-0.81067 -0.68267,-1.92 0,-1.10933 0.68267,-1.96267 0.68266,-0.85333 1.792,-0.85333 1.06666,0 1.70666,0.85333 0.68267,0.85334 0.68267,1.96267 z m -11.17867,0.46933 q 0,-6.656 2.26134,-10.19733 2.304,-3.584 6.44266,-3.584 4.18134,0 6.44267,3.584 2.26133,3.54133 2.26133,10.19733 0,6.656 -2.26133,10.24 -2.26133,3.54134 -6.44267,3.54134 -4.13866,0 -6.44266,-3.54134 -2.26134,-3.584 -2.26134,-10.24 z m 13.824,0 q 0,-2.176 -0.256,-4.096 -0.256,-1.96266 -0.85333,-3.41333 -0.59733,-1.45067 -1.57867,-2.304 -0.98133,-0.85333 -2.432,-0.85333 -1.45066,0 -2.432,0.85333 -0.98133,0.85333 -1.57866,2.304 -0.59734,1.45067 -0.85334,3.41333 -0.256,1.92 -0.256,4.096 0,2.176 0.256,4.13867 0.256,1.92 0.85334,3.37067 0.59733,1.45066 1.57866,2.304 0.98134,0.85333 2.432,0.85333 1.45067,0 2.432,-0.85333 0.98134,-0.85334 1.57867,-2.304 0.59733,-1.45067 0.85333,-3.37067 0.256,-1.96267 0.256,-4.13867 z" />
    </g>
    <g
       id="flowRoot11094"
       style="font-style:normal;font-weight:normal;font-size:42.66666794px;line-height:1.25;font-family:sans-serif;letter-spacing:0px;word-spacing:0px;fill:#000000;fill-opacity:1;stroke:none"
       transform="matrix(-0.10757766,0.24162341,-0.24162341,-0.10757766,252.3643,279.59411)"
       aria-label="1">
      <path
         inkscape:connector-curvature="0"
         id="path7425"
         style="font-style:normal;font-variant:normal;font-weight:normal;font-stretch:normal;font-size:42.66666794px;line-height:53.33333588px;font-family:'Ubuntu Mono';-inkscape-font-specification:'Ubuntu Mono'"
         d="m 569.86602,237.30648 q 2.176,-0.85334 4.224,-2.13334 2.048,-1.32266 3.79733,-3.328 h 2.47467 v 23.424 h 4.992 v 2.98667 h -14.208 v -2.98667 h 5.71733 v -18.51733 q -0.46933,0.42667 -1.152,0.896 -0.64,0.42667 -1.45067,0.85333 -0.768,0.42667 -1.62133,0.81067 -0.85333,0.384 -1.664,0.64 z" />
    </g>
    <g
       id="flowRoot11102"
       style="font-style:normal;font-weight:normal;font-size:42.66666794px;line-height:1.25;font-family:sans-serif;letter-spacing:0px;word-spacing:0px;fill:#000000;fill-opacity:1;stroke:none"
       transform="matrix(-0.08173181,0.2515447,-0.2515447,-0.08173181,259.24171,274.96794)"
       aria-label="2">
      <path
         inkscape:connector-curvature="0"
         id="path7422"
         style="font-style:normal;font-variant:normal;font-weight:normal;font-stretch:normal;font-size:42.66666794px;line-height:53.33333588px;font-family:'Ubuntu Mono';-inkscape-font-specification:'Ubuntu Mono'"
         d="m 584.58602,238.58648 q 0,1.36533 -0.55467,2.64533 -0.512,1.28 -1.408,2.51733 -0.85333,1.23734 -1.96267,2.432 -1.10933,1.19467 -2.26133,2.34667 -0.64,0.64 -1.49333,1.536 -0.85334,0.896 -1.62134,1.83467 -0.768,0.93866 -1.28,1.83466 -0.512,0.896 -0.512,1.536 h 12.16 v 2.98667 h -16 q -0.0427,-0.21333 -0.0427,-0.42667 0,-0.256 0,-0.46933 0,-1.792 0.59733,-3.328 0.59733,-1.536 1.536,-2.90133 0.93867,-1.36534 2.09067,-2.56 1.19466,-1.23734 2.34666,-2.38934 0.93867,-0.93866 1.792,-1.83466 0.896,-0.896 1.536,-1.792 0.68267,-0.896 1.06667,-1.83467 0.42667,-0.98133 0.42667,-2.00533 0,-1.152 -0.384,-1.96267 -0.34134,-0.81067 -0.98134,-1.32267 -0.59733,-0.55466 -1.408,-0.81066 -0.81066,-0.256 -1.74933,-0.256 -1.10933,0 -2.048,0.29866 -0.896,0.29867 -1.62133,0.72534 -0.68267,0.42666 -1.19467,0.85333 -0.512,0.384 -0.768,0.64 l -1.74933,-2.47467 q 0.34133,-0.384 1.024,-0.93866 0.68266,-0.55467 1.62133,-1.024 0.98133,-0.512 2.176,-0.85334 1.19467,-0.34133 2.56,-0.34133 4.13867,0 6.10133,1.92 2.00534,1.87733 2.00534,5.41867 z" />
    </g>
    <g
       id="flowRoot11110"
       style="font-style:normal;font-weight:normal;font-size:42.66666794px;line-height:1.25;font-family:sans-serif;letter-spacing:0px;word-spacing:0px;fill:#000000;fill-opacity:1;stroke:none"
       transform="matrix(-0.0549905,0.25871002,-0.25871002,-0.0549905,265.59787,269.64822)"
       aria-label="3">
      <path
         inkscape:connector-curvature="0"
         id="path7419"
         style="font-style:normal;font-variant:normal;font-weight:normal;font-stretch:normal;font-size:42.66666794px;line-height:53.33333588px;font-family:'Ubuntu Mono';-inkscape-font-specification:'Ubuntu Mono'"
         d="m 575.71135,255.69581 q 3.37067,0 4.77867,-1.32267 1.45066,-1.36533 1.45066,-3.62666 0,-1.45067 -0.59733,-2.432 -0.59733,-0.98134 -1.57867,-1.57867 -0.98133,-0.59733 -2.26133,-0.85333 -1.28,-0.256 -2.688,-0.256 h -0.896 v -2.85867 h 1.23733 q 0.93867,0 1.92,-0.17067 1.024,-0.21333 1.83467,-0.68266 0.85333,-0.512 1.36533,-1.36534 0.512,-0.85333 0.512,-2.176 0,-2.176 -1.36533,-3.072 -1.32267,-0.93866 -3.11467,-0.93866 -1.83466,0 -3.11466,0.55466 -1.28,0.512 -2.13334,1.06667 l -1.36533,-2.688 q 0.896,-0.64 2.688,-1.32267 1.83467,-0.72533 4.05333,-0.72533 2.09067,0 3.584,0.512 1.49334,0.512 2.432,1.45067 0.98134,0.93866 1.45067,2.21866 0.46933,1.23734 0.46933,2.73067 0,2.09067 -1.10933,3.54133 -1.06667,1.45067 -2.77333,2.21867 2.048,0.59733 3.54133,2.34667 1.49333,1.70666 1.49333,4.56533 0,1.70667 -0.59733,3.2 -0.55467,1.45067 -1.74933,2.51733 -1.152,1.06667 -3.02934,1.664 -1.83466,0.59734 -4.39466,0.59734 -0.98134,0 -2.048,-0.17067 -1.024,-0.128 -1.92,-0.384 -0.896,-0.21333 -1.62134,-0.42667 -0.68266,-0.256 -0.98133,-0.384 l 0.68267,-3.02933 q 0.68266,0.34133 2.176,0.81067 1.49333,0.46933 3.66933,0.46933 z" />
    </g>
    <g
       id="flowRoot11118"
       style="font-style:normal;font-weight:normal;font-size:42.66666794px;line-height:1.25;font-family:sans-serif;letter-spacing:0px;word-spacing:0px;fill:#000000;fill-opacity:1;stroke:none"
       transform="matrix(-0.02764669,0.26304085,-0.26304085,-0.02764669,271.36315,263.69325)"
       aria-label="4">
      <path
         inkscape:connector-curvature="0"
         id="path7416"
         style="font-style:normal;font-variant:normal;font-weight:normal;font-stretch:normal;font-size:42.66666794px;line-height:53.33333588px;font-family:'Ubuntu Mono';-inkscape-font-specification:'Ubuntu Mono'"
         d="m 568.20202,249.12514 q 0.72533,-1.70666 1.96266,-3.92533 1.28,-2.21867 2.85867,-4.56533 1.57867,-2.38934 3.37067,-4.65067 1.792,-2.304 3.62666,-4.13867 h 3.41334 v 16.768 h 3.11466 v 2.90134 h -3.11466 v 6.74133 h -3.41334 v -6.74133 h -11.81866 z m 11.81866,-13.09866 q -1.152,1.23733 -2.34666,2.73066 -1.152,1.49334 -2.26134,3.15734 -1.10933,1.62133 -2.09066,3.328 -0.93867,1.70666 -1.70667,3.37066 h 8.40533 z" />
    </g>
    <g
       id="flowRoot11126"
       style="font-style:normal;font-weight:normal;font-size:42.66666794px;line-height:1.25;font-family:sans-serif;letter-spacing:0px;word-spacing:0px;fill:#000000;fill-opacity:1;stroke:none"
       transform="matrix(1.5141104e-8,0.26448975,-0.26448975,1.5141104e-8,276.47438,257.16825)"
       aria-label="5">
      <path
         inkscape:connector-curvature="0"
         id="path7413"
         style="font-style:normal;font-variant:normal;font-weight:normal;font-stretch:normal;font-size:42.66666794px;line-height:53.33333588px;font-family:'Ubuntu Mono';-inkscape-font-specification:'Ubuntu Mono'"
         d="m 574.60202,242.04248 q 5.71733,0.21333 8.32,2.51733 2.60266,2.304 2.60266,6.18667 0,1.74933 -0.55466,3.24266 -0.55467,1.49334 -1.74934,2.56 -1.152,1.06667 -2.98666,1.664 -1.792,0.59734 -4.26667,0.59734 -1.024,0 -2.048,-0.17067 -0.98133,-0.128 -1.87733,-0.34133 -0.896,-0.21334 -1.57867,-0.42667 -0.68267,-0.256 -0.98133,-0.42667 l 0.68266,-3.02933 q 0.68267,0.34133 2.09067,0.81067 1.45067,0.46933 3.62667,0.46933 1.70666,0 2.85866,-0.384 1.152,-0.384 1.83467,-1.024 0.72533,-0.68267 1.024,-1.536 0.34133,-0.85333 0.34133,-1.792 0,-1.45067 -0.512,-2.56 -0.46933,-1.152 -1.70666,-1.92 -1.19467,-0.768 -3.328,-1.152 -2.09067,-0.42667 -5.29067,-0.42667 0.256,-1.87733 0.384,-3.49866 0.17067,-1.664 0.256,-3.2 0.128,-1.57867 0.17067,-3.11467 0.0853,-1.536 0.17066,-3.24267 h 12.71467 v 2.98667 h -9.64267 q -0.0427,0.59733 -0.128,1.57867 -0.0427,0.93866 -0.128,2.00533 -0.0853,1.06667 -0.17066,2.048 -0.0853,0.98133 -0.128,1.57867 z" />
    </g>
    <g
       id="flowRoot11134"
       style="font-style:normal;font-weight:normal;font-size:42.66666794px;line-height:1.25;font-family:sans-serif;letter-spacing:0px;word-spacing:0px;fill:#000000;fill-opacity:1;stroke:none"
       transform="matrix(0.02764672,0.26304084,-0.26304084,0.02764672,280.87558,250.14474)"
       aria-label="6">
      <path
         inkscape:connector-curvature="0"
         id="path7410"
         style="font-style:normal;font-variant:normal;font-weight:normal;font-stretch:normal;font-size:42.66666794px;line-height:53.33333588px;font-family:'Ubuntu Mono';-inkscape-font-specification:'Ubuntu Mono'"
         d="m 568.97002,247.67448 q 0,-3.84 1.024,-6.784 1.06666,-2.98667 2.98666,-4.992 1.96267,-2.00534 4.736,-3.072 2.77334,-1.06667 6.272,-1.10934 l 0.29867,2.98667 q -2.26133,0.0427 -4.13867,0.512 -1.83466,0.42667 -3.28533,1.45067 -1.45067,0.98133 -2.432,2.56 -0.98133,1.57866 -1.49333,3.88266 1.024,-0.46933 2.21866,-0.768 1.23734,-0.29866 2.60267,-0.29866 2.21867,0 3.75467,0.68266 1.57866,0.68267 2.51733,1.83467 0.93867,1.10933 1.36533,2.60267 0.42667,1.49333 0.42667,3.072 0,1.45066 -0.46933,2.98666 -0.46934,1.49334 -1.45067,2.77334 -0.98133,1.23733 -2.51733,2.048 -1.536,0.768 -3.66934,0.768 -4.39466,0 -6.57066,-2.944 -2.176,-2.944 -2.176,-8.192 z m 8.40533,-2.73067 q -1.36533,0 -2.51733,0.256 -1.10934,0.256 -2.26134,0.768 -0.0427,0.42667 -0.0427,0.85333 0,0.384 0,0.85334 0,1.664 0.21333,3.15733 0.256,1.45067 0.81067,2.60267 0.59733,1.10933 1.57866,1.792 0.98134,0.64 2.51734,0.64 1.28,0 2.13333,-0.512 0.85333,-0.55467 1.408,-1.36534 0.55467,-0.81066 0.768,-1.792 0.256,-1.024 0.256,-1.92 0,-2.60266 -1.19467,-3.968 -1.152,-1.36533 -3.66933,-1.36533 z" />
    </g>
    <g
       id="flowRoot11142"
       style="font-style:normal;font-weight:normal;font-size:42.66666794px;line-height:1.25;font-family:sans-serif;letter-spacing:0px;word-spacing:0px;fill:#000000;fill-opacity:1;stroke:none"
       transform="matrix(0.05499052,0.25871,-0.25871,0.05499052,284.5185,242.69965)"
       aria-label="7">
      <path
         inkscape:connector-curvature="0"
         id="path7407"
         style="font-style:normal;font-variant:normal;font-weight:normal;font-stretch:normal;font-size:42.66666794px;line-height:53.33333588px;font-family:'Ubuntu Mono';-inkscape-font-specification:'Ubuntu Mono'"
         d="m 573.27935,258.25581 q 0.21333,-3.02933 1.06667,-6.4 0.896,-3.41333 2.13333,-6.57067 1.23733,-3.2 2.73067,-5.888 1.49333,-2.73066 2.944,-4.48 h -12.8 v -3.072 h 16.72533 v 2.944 q -1.28,1.49334 -2.77333,4.01067 -1.49334,2.51733 -2.85867,5.67467 -1.32267,3.11466 -2.304,6.69866 -0.98133,3.54134 -1.23733,7.08267 z" />
    </g>
    <g
       id="flowRoot11150"
       style="font-style:normal;font-weight:normal;font-size:42.66666794px;line-height:1.25;font-family:sans-serif;letter-spacing:0px;word-spacing:0px;fill:#000000;fill-opacity:1;stroke:none"
       transform="matrix(0.08173183,0.25154468,-0.25154468,0.08173183,287.36324,234.91455)"
       aria-label="8">
      <path
         inkscape:connector-curvature="0"
         id="path7404"
         style="font-style:normal;font-variant:normal;font-weight:normal;font-stretch:normal;font-size:42.66666794px;line-height:53.33333588px;font-family:'Ubuntu Mono';-inkscape-font-specification:'Ubuntu Mono'"
         d="m 585.82335,251.38648 q 0,3.328 -2.13333,5.376 -2.09067,2.048 -6.4,2.048 -2.47467,0 -4.096,-0.64 -1.62134,-0.68267 -2.60267,-1.70667 -0.93867,-1.06667 -1.36533,-2.34667 -0.384,-1.28 -0.384,-2.51733 0,-2.26133 1.23733,-4.01067 1.23733,-1.74933 2.944,-2.816 -3.62667,-2.048 -3.62667,-6.272 0,-1.45066 0.55467,-2.77333 0.55467,-1.32267 1.57867,-2.304 1.024,-0.98133 2.47466,-1.57867 1.49334,-0.59733 3.328,-0.59733 2.13334,0 3.62667,0.64 1.536,0.64 2.47467,1.664 0.93866,0.98133 1.36533,2.21867 0.42667,1.19466 0.42667,2.34666 0,2.26134 -1.152,3.92534 -1.152,1.62133 -2.64534,2.60266 4.39467,2.09067 4.39467,6.74134 z m -13.568,0.256 q 0,0.68266 0.256,1.45066 0.256,0.72534 0.85333,1.36534 0.59734,0.64 1.57867,1.06666 0.98133,0.384 2.38933,0.384 1.32267,0 2.26134,-0.34133 0.98133,-0.384 1.57866,-0.98133 0.64,-0.64 0.93867,-1.408 0.29867,-0.768 0.29867,-1.536 0,-2.432 -1.74934,-3.712 -1.74933,-1.32267 -4.82133,-2.00534 -1.70667,0.93867 -2.64533,2.34667 -0.93867,1.408 -0.93867,3.37067 z m 9.55733,-13.52534 q 0,-0.55466 -0.256,-1.23733 -0.256,-0.72533 -0.81066,-1.28 -0.512,-0.59733 -1.36534,-0.98133 -0.85333,-0.42667 -2.048,-0.42667 -1.23733,0 -2.09066,0.384 -0.81067,0.384 -1.36534,0.98133 -0.55466,0.55467 -0.81066,1.28 -0.21334,0.68267 -0.21334,1.36534 0,1.74933 1.23734,3.28533 1.28,1.49333 4.18133,2.176 1.62133,-0.93867 2.56,-2.21867 0.98133,-1.28 0.98133,-3.328 z" />
    </g>
    <g
       id="flowRoot11158"
       style="font-style:normal;font-weight:normal;font-size:42.66666794px;line-height:1.25;font-family:sans-serif;letter-spacing:0px;word-spacing:0px;fill:#000000;fill-opacity:1;stroke:none"
       transform="matrix(0.10757767,0.24162339,-0.24162339,0.10757767,289.37864,226.87475)"
       aria-label="9">
      <path
         inkscape:connector-curvature="0"
         id="path7401"
         style="font-style:normal;font-variant:normal;font-weight:normal;font-stretch:normal;font-size:42.66666794px;line-height:53.33333588px;font-family:'Ubuntu Mono';-inkscape-font-specification:'Ubuntu Mono'"
         d="m 585.73802,242.42648 q 0,7.89333 -3.84,11.904 -3.84,3.968 -11.56267,4.01066 l -0.128,-2.98666 q 4.77867,0 7.68,-1.87734 2.944,-1.92 3.88267,-6.57066 -1.024,0.46933 -2.26134,0.768 -1.23733,0.256 -2.60266,0.256 -2.26134,0 -3.79734,-0.64 -1.536,-0.68267 -2.47466,-1.792 -0.93867,-1.152 -1.36534,-2.60267 -0.42666,-1.45067 -0.42666,-3.072 0,-1.45067 0.46933,-2.944 0.46933,-1.536 1.45067,-2.77333 0.98133,-1.23734 2.51733,-2.048 1.536,-0.81067 3.66933,-0.81067 4.352,0 6.57067,2.98667 2.21867,2.98666 2.21867,8.192 z m -8.448,2.60266 q 1.36533,0 2.51733,-0.256 1.19467,-0.256 2.304,-0.72533 0.0427,-0.42667 0.0427,-0.81067 0,-0.384 0,-0.81066 0,-1.664 -0.256,-3.15734 -0.21334,-1.49333 -0.81067,-2.60266 -0.55467,-1.10934 -1.57867,-1.74934 -0.98133,-0.68266 -2.51733,-0.68266 -1.28,0 -2.13333,0.55466 -0.85334,0.512 -1.408,1.32267 -0.55467,0.768 -0.81067,1.74933 -0.21333,0.98134 -0.21333,1.87734 0,2.60266 1.152,3.968 1.19466,1.32266 3.712,1.32266 z" />
    </g>
    <g
       id="flowRoot11166"
       style="font-style:normal;font-weight:normal;font-size:42.66666794px;line-height:1.25;font-family:sans-serif;letter-spacing:0px;word-spacing:0px;fill:#000000;fill-opacity:1;stroke:none"
       transform="matrix(0.13224487,0.22905483,-0.22905483,0.13224487,290.54261,218.66832)"
       aria-label="0">
      <path
         inkscape:connector-curvature="0"
         id="path7398"
         style="font-style:normal;font-variant:normal;font-weight:normal;font-stretch:normal;font-size:42.66666794px;line-height:53.33333588px;font-family:'Ubuntu Mono';-inkscape-font-specification:'Ubuntu Mono'"
         d="m 579.80735,244.55981 q 0,1.10933 -0.68267,1.92 -0.64,0.81067 -1.70666,0.81067 -1.10934,0 -1.792,-0.81067 -0.68267,-0.81067 -0.68267,-1.92 0,-1.10933 0.68267,-1.96267 0.68266,-0.85333 1.792,-0.85333 1.06666,0 1.70666,0.85333 0.68267,0.85334 0.68267,1.96267 z m -11.17867,0.46933 q 0,-6.656 2.26134,-10.19733 2.304,-3.584 6.44266,-3.584 4.18134,0 6.44267,3.584 2.26133,3.54133 2.26133,10.19733 0,6.656 -2.26133,10.24 -2.26133,3.54134 -6.44267,3.54134 -4.13866,0 -6.44266,-3.54134 -2.26134,-3.584 -2.26134,-10.24 z m 13.824,0 q 0,-2.176 -0.256,-4.096 -0.256,-1.96266 -0.85333,-3.41333 -0.59733,-1.45067 -1.57867,-2.304 -0.98133,-0.85333 -2.432,-0.85333 -1.45066,0 -2.432,0.85333 -0.98133,0.85333 -1.57866,2.304 -0.59734,1.45067 -0.85334,3.41333 -0.256,1.92 -0.256,4.096 0,2.176 0.256,4.13867 0.256,1.92 0.85334,3.37067 0.59733,1.45066 1.57866,2.304 0.98134,0.85333 2.432,0.85333 1.45067,0 2.432,-0.85333 0.98134,-0.85334 1.57867,-2.304 0.59733,-1.45067 0.85333,-3.37067 0.256,-1.96267 0.256,-4.13867 z" />
    </g>
    <g
       id="flowRoot11174"
       style="font-style:normal;font-weight:normal;font-size:42.66666794px;line-height:1.25;font-family:sans-serif;letter-spacing:0px;word-spacing:0px;fill:#000000;fill-opacity:1;stroke:none"
       transform="matrix(0.15546317,0.21397669,-0.21397669,0.15546317,290.84239,210.38518)"
       aria-label="1">
      <path
         inkscape:connector-curvature="0"
         id="path7395"
         style="font-style:normal;font-variant:normal;font-weight:normal;font-stretch:normal;font-size:42.66666794px;line-height:53.33333588px;font-family:'Ubuntu Mono';-inkscape-font-specification:'Ubuntu Mono'"
         d="m 569.86602,237.30648 q 2.176,-0.85334 4.224,-2.13334 2.048,-1.32266 3.79733,-3.328 h 2.47467 v 23.424 h 4.992 v 2.98667 h -14.208 v -2.98667 h 5.71733 v -18.51733 q -0.46933,0.42667 -1.152,0.896 -0.64,0.42667 -1.45067,0.85333 -0.768,0.42667 -1.62133,0.81067 -0.85333,0.384 -1.664,0.64 z" />
    </g>
    <g
       id="flowRoot11182"
       style="font-style:normal;font-weight:normal;font-size:42.66666794px;line-height:1.25;font-family:sans-serif;letter-spacing:0px;word-spacing:0px;fill:#000000;fill-opacity:1;stroke:none"
       transform="matrix(0.17697818,0.19655418,-0.19655418,0.17697818,290.27471,202.11608)"
       aria-label="2">
      <path
         inkscape:connector-curvature="0"
         id="path7392"
         style="font-style:normal;font-variant:normal;font-weight:normal;font-stretch:normal;font-size:42.66666794px;line-height:53.33333588px;font-family:'Ubuntu Mono';-inkscape-font-specification:'Ubuntu Mono'"
         d="m 584.58602,238.58648 q 0,1.36533 -0.55467,2.64533 -0.512,1.28 -1.408,2.51733 -0.85333,1.23734 -1.96267,2.432 -1.10933,1.19467 -2.26133,2.34667 -0.64,0.64 -1.49333,1.536 -0.85334,0.896 -1.62134,1.83467 -0.768,0.93866 -1.28,1.83466 -0.512,0.896 -0.512,1.536 h 12.16 v 2.98667 h -16 q -0.0427,-0.21333 -0.0427,-0.42667 0,-0.256 0,-0.46933 0,-1.792 0.59733,-3.328 0.59733,-1.536 1.536,-2.90133 0.93867,-1.36534 2.09067,-2.56 1.19466,-1.23734 2.34666,-2.38934 0.93867,-0.93866 1.792,-1.83466 0.896,-0.896 1.536,-1.792 0.68267,-0.896 1.06667,-1.83467 0.42667,-0.98133 0.42667,-2.00533 0,-1.152 -0.384,-1.96267 -0.34134,-0.81067 -0.98134,-1.32267 -0.59733,-0.55466 -1.408,-0.81066 -0.81066,-0.256 -1.74933,-0.256 -1.10933,0 -2.048,0.29866 -0.896,0.29867 -1.62133,0.72534 -0.68267,0.42666 -1.19467,0.85333 -0.512,0.384 -0.768,0.64 l -1.74933,-2.47467 q 0.34133,-0.384 1.024,-0.93866 0.68266,-0.55467 1.62133,-1.024 0.98133,-0.512 2.176,-0.85334 1.19467,-0.34133 2.56,-0.34133 4.13867,0 6.10133,1.92 2.00534,1.87733 2.00534,5.41867 z" />
    </g>
    <g
       id="flowRoot11190"
       style="font-style:normal;font-weight:normal;font-size:42.66666794px;line-height:1.25;font-family:sans-serif;letter-spacing:0px;word-spacing:0px;fill:#000000;fill-opacity:1;stroke:none"
       transform="matrix(0.19655418,0.17697819,-0.17697819,0.19655418,288.84579,193.95162)"
       aria-label="3">
      <path
         inkscape:connector-curvature="0"
         id="path7389"
         style="font-style:normal;font-variant:normal;font-weight:normal;font-stretch:normal;font-size:42.66666794px;line-height:53.33333588px;font-family:'Ubuntu Mono';-inkscape-font-specification:'Ubuntu Mono'"
         d="m 575.71135,255.69581 q 3.37067,0 4.77867,-1.32267 1.45066,-1.36533 1.45066,-3.62666 0,-1.45067 -0.59733,-2.432 -0.59733,-0.98134 -1.57867,-1.57867 -0.98133,-0.59733 -2.26133,-0.85333 -1.28,-0.256 -2.688,-0.256 h -0.896 v -2.85867 h 1.23733 q 0.93867,0 1.92,-0.17067 1.024,-0.21333 1.83467,-0.68266 0.85333,-0.512 1.36533,-1.36534 0.512,-0.85333 0.512,-2.176 0,-2.176 -1.36533,-3.072 -1.32267,-0.93866 -3.11467,-0.93866 -1.83466,0 -3.11466,0.55466 -1.28,0.512 -2.13334,1.06667 l -1.36533,-2.688 q 0.896,-0.64 2.688,-1.32267 1.83467,-0.72533 4.05333,-0.72533 2.09067,0 3.584,0.512 1.49334,0.512 2.432,1.45067 0.98134,0.93866 1.45067,2.21866 0.46933,1.23734 0.46933,2.73067 0,2.09067 -1.10933,3.54133 -1.06667,1.45067 -2.77333,2.21867 2.048,0.59733 3.54133,2.34667 1.49333,1.70666 1.49333,4.56533 0,1.70667 -0.59733,3.2 -0.55467,1.45067 -1.74933,2.51733 -1.152,1.06667 -3.02934,1.664 -1.83466,0.59734 -4.39466,0.59734 -0.98134,0 -2.048,-0.17067 -1.024,-0.128 -1.92,-0.384 -0.896,-0.21333 -1.62134,-0.42667 -0.68266,-0.256 -0.98133,-0.384 l 0.68267,-3.02933 q 0.68266,0.34133 2.176,0.81067 1.49333,0.46933 3.66933,0.46933 z" />
    </g>
    <g
       id="flowRoot11198"
       style="font-style:normal;font-weight:normal;font-size:42.66666794px;line-height:1.25;font-family:sans-serif;letter-spacing:0px;word-spacing:0px;fill:#000000;fill-opacity:1;stroke:none"
       transform="matrix(0.2139767,0.15546318,-0.15546318,0.2139767,286.57127,185.98125)"
       aria-label="4">
      <path
         inkscape:connector-curvature="0"
         id="path7386"
         style="font-style:normal;font-variant:normal;font-weight:normal;font-stretch:normal;font-size:42.66666794px;line-height:53.33333588px;font-family:'Ubuntu Mono';-inkscape-font-specification:'Ubuntu Mono'"
         d="m 568.20202,249.12514 q 0.72533,-1.70666 1.96266,-3.92533 1.28,-2.21867 2.85867,-4.56533 1.57867,-2.38934 3.37067,-4.65067 1.792,-2.304 3.62666,-4.13867 h 3.41334 v 16.768 h 3.11466 v 2.90134 h -3.11466 v 6.74133 h -3.41334 v -6.74133 h -11.81866 z m 11.81866,-13.09866 q -1.152,1.23733 -2.34666,2.73066 -1.152,1.49334 -2.26134,3.15734 -1.10933,1.62133 -2.09066,3.328 -0.93867,1.70666 -1.70667,3.37066 h 8.40533 z" />
    </g>
    <g
       id="flowRoot11206"
       style="font-style:normal;font-weight:normal;font-size:42.66666794px;line-height:1.25;font-family:sans-serif;letter-spacing:0px;word-spacing:0px;fill:#000000;fill-opacity:1;stroke:none"
       transform="matrix(0.22905484,0.13224488,-0.13224488,0.22905484,283.47609,178.29229)"
       aria-label="5">
      <path
         inkscape:connector-curvature="0"
         id="path7383"
         style="font-style:normal;font-variant:normal;font-weight:normal;font-stretch:normal;font-size:42.66666794px;line-height:53.33333588px;font-family:'Ubuntu Mono';-inkscape-font-specification:'Ubuntu Mono'"
         d="m 574.60202,242.04248 q 5.71733,0.21333 8.32,2.51733 2.60266,2.304 2.60266,6.18667 0,1.74933 -0.55466,3.24266 -0.55467,1.49334 -1.74934,2.56 -1.152,1.06667 -2.98666,1.664 -1.792,0.59734 -4.26667,0.59734 -1.024,0 -2.048,-0.17067 -0.98133,-0.128 -1.87733,-0.34133 -0.896,-0.21334 -1.57867,-0.42667 -0.68267,-0.256 -0.98133,-0.42667 l 0.68266,-3.02933 q 0.68267,0.34133 2.09067,0.81067 1.45067,0.46933 3.62667,0.46933 1.70666,0 2.85866,-0.384 1.152,-0.384 1.83467,-1.024 0.72533,-0.68267 1.024,-1.536 0.34133,-0.85333 0.34133,-1.792 0,-1.45067 -0.512,-2.56 -0.46933,-1.152 -1.70666,-1.92 -1.19467,-0.768 -3.328,-1.152 -2.09067,-0.42667 -5.29067,-0.42667 0.256,-1.87733 0.384,-3.49866 0.17067,-1.664 0.256,-3.2 0.128,-1.57867 0.17067,-3.11467 0.0853,-1.536 0.17066,-3.24267 h 12.71467 v 2.98667 h -9.64267 q -0.0427,0.59733 -0.128,1.57867 -0.0427,0.93866 -0.128,2.00533 -0.0853,1.06667 -0.17066,2.048 -0.0853,0.98133 -0.128,1.57867 z" />
    </g>
    <g
       id="flowRoot11214"
       style="font-style:normal;font-weight:normal;font-size:42.66666794px;line-height:1.25;font-family:sans-serif;letter-spacing:0px;word-spacing:0px;fill:#000000;fill-opacity:1;stroke:none"
       transform="matrix(0.2416234,0.10757767,-0.10757767,0.2416234,279.59414,170.96899)"
       aria-label="6">
      <path
         inkscape:connector-curvature="0"
         id="path7380"
         style="font-style:normal;font-variant:normal;font-weight:normal;font-stretch:normal;font-size:42.66666794px;line-height:53.33333588px;font-family:'Ubuntu Mono';-inkscape-font-specification:'Ubuntu Mono'"
         d="m 568.97002,247.67448 q 0,-3.84 1.024,-6.784 1.06666,-2.98667 2.98666,-4.992 1.96267,-2.00534 4.736,-3.072 2.77334,-1.06667 6.272,-1.10934 l 0.29867,2.98667 q -2.26133,0.0427 -4.13867,0.512 -1.83466,0.42667 -3.28533,1.45067 -1.45067,0.98133 -2.432,2.56 -0.98133,1.57866 -1.49333,3.88266 1.024,-0.46933 2.21866,-0.768 1.23734,-0.29866 2.60267,-0.29866 2.21867,0 3.75467,0.68266 1.57866,0.68267 2.51733,1.83467 0.93867,1.10933 1.36533,2.60267 0.42667,1.49333 0.42667,3.072 0,1.45066 -0.46933,2.98666 -0.46934,1.49334 -1.45067,2.77334 -0.98133,1.23733 -2.51733,2.048 -1.536,0.768 -3.66934,0.768 -4.39466,0 -6.57066,-2.944 -2.176,-2.944 -2.176,-8.192 z m 8.40533,-2.73067 q -1.36533,0 -2.51733,0.256 -1.10934,0.256 -2.26134,0.768 -0.0427,0.42667 -0.0427,0.85333 0,0.384 0,0.85334 0,1.664 0.21333,3.15733 0.256,1.45067 0.81067,2.60267 0.59733,1.10933 1.57866,1.792 0.98134,0.64 2.51734,0.64 1.28,0 2.13333,-0.512 0.85333,-0.55467 1.408,-1.36534 0.55467,-0.81066 0.768,-1.792 0.256,-1.024 0.256,-1.92 0,-2.60266 -1.19467,-3.968 -1.152,-1.36533 -3.66933,-1.36533 z" />
    </g>
  </g>
</svg>
