<?xml version="1.0" encoding="UTF-8" standalone="no"?>
<!-- Created with Inkscape (http://www.inkscape.org/) -->

<svg
   xmlns:dc="http://purl.org/dc/elements/1.1/"
   xmlns:cc="http://creativecommons.org/ns#"
   xmlns:rdf="http://www.w3.org/1999/02/22-rdf-syntax-ns#"
   xmlns:svg="http://www.w3.org/2000/svg"
   xmlns="http://www.w3.org/2000/svg"
   xmlns:sodipodi="http://sodipodi.sourceforge.net/DTD/sodipodi-0.dtd"
   xmlns:inkscape="http://www.inkscape.org/namespaces/inkscape"
   width="2000"
   height="2000"
   viewBox="0 0 529.16665 529.16668"
   version="1.1"
   id="svg2402"
   inkscape:version="0.92.4 (5da689c313, 2019-01-14)"
   sodipodi:docname="6.svg">
  <defs
     id="defs2396" />
  <sodipodi:namedview
     id="base"
     pagecolor="#ffffff"
     bordercolor="#666666"
     borderopacity="1.0"
     inkscape:pageopacity="0.0"
     inkscape:pageshadow="2"
     inkscape:zoom="0.35"
     inkscape:cx="844.28569"
     inkscape:cy="968.57143"
     inkscape:document-units="px"
     inkscape:current-layer="layer1"
     showgrid="false"
     units="px"
     fit-margin-top="0"
     fit-margin-left="0"
     fit-margin-right="0"
     fit-margin-bottom="0"
     inkscape:window-width="1920"
     inkscape:window-height="1029"
     inkscape:window-x="1920"
     inkscape:window-y="25"
     inkscape:window-maximized="1" />
  <metadata
     id="metadata2399">
    <rdf:RDF>
      <cc:Work
         rdf:about="">
        <dc:format>image/svg+xml</dc:format>
        <dc:type
           rdf:resource="http://purl.org/dc/dcmitype/StillImage" />
        <dc:title></dc:title>
      </cc:Work>
    </rdf:RDF>
  </metadata>
  <g
     inkscape:label="Layer 1"
     inkscape:groupmode="layer"
     id="layer1"
     transform="translate(246.44047,335.73214)">
    <g
       id="g3996">
      <circle
         transform="rotate(1.0000001)"
         r="264.18561"
         cy="-71.454613"
         cx="16.898376"
         id="path5490"
         style="fill:#ffffff;fill-opacity:1;stroke:#000000;stroke-width:0.79376692;stroke-miterlimit:4;stroke-dasharray:none;stroke-opacity:1;paint-order:normal" />
      <g
         id="flowRoot8940"
         style="font-style:normal;font-weight:normal;font-size:42.66666794px;line-height:1.25;font-family:sans-serif;letter-spacing:0px;word-spacing:0px;fill:#000000;fill-opacity:1;stroke:none"
         inkscape:transform-center-y="-3.3882902e-06"
         inkscape:transform-center-x="-250.65811"
         transform="matrix(0.26458897,0,0,0.26458897,116.05043,-135.98083)"
         aria-label="0">
        <path
           id="path3695"
           style="font-style:normal;font-variant:normal;font-weight:normal;font-stretch:normal;font-size:42.66666794px;line-height:53.33333588px;font-family:'Ubuntu Mono';-inkscape-font-specification:'Ubuntu Mono'"
           d="m 579.80735,244.55981 q 0,1.10933 -0.68267,1.92 -0.64,0.81067 -1.70666,0.81067 -1.10934,0 -1.792,-0.81067 -0.68267,-0.81067 -0.68267,-1.92 0,-1.10933 0.68267,-1.96267 0.68266,-0.85333 1.792,-0.85333 1.06666,0 1.70666,0.85333 0.68267,0.85334 0.68267,1.96267 z m -11.17867,0.46933 q 0,-6.656 2.26134,-10.19733 2.304,-3.584 6.44266,-3.584 4.18134,0 6.44267,3.584 2.26133,3.54133 2.26133,10.19733 0,6.656 -2.26133,10.24 -2.26133,3.54134 -6.44267,3.54134 -4.13866,0 -6.44266,-3.54134 -2.26134,-3.584 -2.26134,-10.24 z m 13.824,0 q 0,-2.176 -0.256,-4.096 -0.256,-1.96266 -0.85333,-3.41333 -0.59733,-1.45067 -1.57867,-2.304 -0.98133,-0.85333 -2.432,-0.85333 -1.45066,0 -2.432,0.85333 -0.98133,0.85333 -1.57866,2.304 -0.59734,1.45067 -0.85334,3.41333 -0.256,1.92 -0.256,4.096 0,2.176 0.256,4.13867 0.256,1.92 0.85334,3.37067 0.59733,1.45066 1.57866,2.304 0.98134,0.85333 2.432,0.85333 1.45067,0 2.432,-0.85333 0.98134,-0.85334 1.57867,-2.304 0.59733,-1.45067 0.85333,-3.37067 0.256,-1.96267 0.256,-4.13867 z" />
      </g>
      <g
         id="flowRoot11745"
         style="font-style:normal;font-weight:normal;font-size:42.66666794px;line-height:1.25;font-family:sans-serif;letter-spacing:0px;word-spacing:0px;fill:#000000;fill-opacity:1;stroke:none"
         inkscape:transform-center-y="-26.20091"
         inkscape:transform-center-x="-249.28498"
         transform="matrix(0.26313951,-0.02765708,0.02765708,0.26313951,108.7373,-145.8598)"
         aria-label="1">
        <path
           id="path3698"
           style="font-style:normal;font-variant:normal;font-weight:normal;font-stretch:normal;font-size:42.66666794px;line-height:53.33333588px;font-family:'Ubuntu Mono';-inkscape-font-specification:'Ubuntu Mono'"
           d="m 569.86602,237.30648 q 2.176,-0.85334 4.224,-2.13334 2.048,-1.32266 3.79733,-3.328 h 2.47467 v 23.424 h 4.992 v 2.98667 h -14.208 v -2.98667 h 5.71733 v -18.51733 q -0.46933,0.42667 -1.152,0.896 -0.64,0.42667 -1.45067,0.85333 -0.768,0.42667 -1.62133,0.81067 -0.85333,0.384 -1.664,0.64 z" />
      </g>
      <g
         id="flowRoot11753"
         style="font-style:normal;font-weight:normal;font-size:42.66666794px;line-height:1.25;font-family:sans-serif;letter-spacing:0px;word-spacing:0px;fill:#000000;fill-opacity:1;stroke:none"
         inkscape:transform-center-y="-52.114755"
         inkscape:transform-center-x="-245.18063"
         transform="matrix(0.25880705,-0.05501114,0.05501114,0.25880705,100.43159,-154.92022)"
         aria-label="2">
        <path
           id="path3701"
           style="font-style:normal;font-variant:normal;font-weight:normal;font-stretch:normal;font-size:42.66666794px;line-height:53.33333588px;font-family:'Ubuntu Mono';-inkscape-font-specification:'Ubuntu Mono'"
           d="m 584.58602,238.58648 q 0,1.36533 -0.55467,2.64533 -0.512,1.28 -1.408,2.51733 -0.85333,1.23734 -1.96267,2.432 -1.10933,1.19467 -2.26133,2.34667 -0.64,0.64 -1.49333,1.536 -0.85334,0.896 -1.62134,1.83467 -0.768,0.93866 -1.28,1.83466 -0.512,0.896 -0.512,1.536 h 12.16 v 2.98667 h -16 q -0.0427,-0.21333 -0.0427,-0.42667 0,-0.256 0,-0.46933 0,-1.792 0.59733,-3.328 0.59733,-1.536 1.536,-2.90133 0.93867,-1.36534 2.09067,-2.56 1.19466,-1.23734 2.34666,-2.38934 0.93867,-0.93866 1.792,-1.83466 0.896,-0.896 1.536,-1.792 0.68267,-0.896 1.06667,-1.83467 0.42667,-0.98133 0.42667,-2.00533 0,-1.152 -0.384,-1.96267 -0.34134,-0.81067 -0.98134,-1.32267 -0.59733,-0.55466 -1.408,-0.81066 -0.81066,-0.256 -1.74933,-0.256 -1.10933,0 -2.048,0.29866 -0.896,0.29867 -1.62133,0.72534 -0.68267,0.42666 -1.19467,0.85333 -0.512,0.384 -0.768,0.64 l -1.74933,-2.47467 q 0.34133,-0.384 1.024,-0.93866 0.68266,-0.55467 1.62133,-1.024 0.98133,-0.512 2.176,-0.85334 1.19467,-0.34133 2.56,-0.34133 4.13867,0 6.10133,1.92 2.00534,1.87733 2.00534,5.41867 z" />
      </g>
      <g
         id="flowRoot11761"
         style="font-style:normal;font-weight:normal;font-size:42.66666794px;line-height:1.25;font-family:sans-serif;letter-spacing:0px;word-spacing:0px;fill:#000000;fill-opacity:1;stroke:none"
         inkscape:transform-center-y="-77.457617"
         inkscape:transform-center-x="-238.39003"
         transform="matrix(0.25163905,-0.08176249,0.08176249,0.25163905,91.224305,-163.06282)"
         aria-label="3">
        <path
           id="path3704"
           style="font-style:normal;font-variant:normal;font-weight:normal;font-stretch:normal;font-size:42.66666794px;line-height:53.33333588px;font-family:'Ubuntu Mono';-inkscape-font-specification:'Ubuntu Mono'"
           d="m 575.71135,255.69581 q 3.37067,0 4.77867,-1.32267 1.45066,-1.36533 1.45066,-3.62666 0,-1.45067 -0.59733,-2.432 -0.59733,-0.98134 -1.57867,-1.57867 -0.98133,-0.59733 -2.26133,-0.85333 -1.28,-0.256 -2.688,-0.256 h -0.896 v -2.85867 h 1.23733 q 0.93867,0 1.92,-0.17067 1.024,-0.21333 1.83467,-0.68266 0.85333,-0.512 1.36533,-1.36534 0.512,-0.85333 0.512,-2.176 0,-2.176 -1.36533,-3.072 -1.32267,-0.93866 -3.11467,-0.93866 -1.83466,0 -3.11466,0.55466 -1.28,0.512 -2.13334,1.06667 l -1.36533,-2.688 q 0.896,-0.64 2.688,-1.32267 1.83467,-0.72533 4.05333,-0.72533 2.09067,0 3.584,0.512 1.49334,0.512 2.432,1.45067 0.98134,0.93866 1.45067,2.21866 0.46933,1.23734 0.46933,2.73067 0,2.09067 -1.10933,3.54133 -1.06667,1.45067 -2.77333,2.21867 2.048,0.59733 3.54133,2.34667 1.49333,1.70666 1.49333,4.56533 0,1.70667 -0.59733,3.2 -0.55467,1.45067 -1.74933,2.51733 -1.152,1.06667 -3.02934,1.664 -1.83466,0.59734 -4.39466,0.59734 -0.98134,0 -2.048,-0.17067 -1.024,-0.128 -1.92,-0.384 -0.896,-0.21333 -1.62134,-0.42667 -0.68266,-0.256 -0.98133,-0.384 l 0.68267,-3.02933 q 0.68266,0.34133 2.176,0.81067 1.49333,0.46933 3.66933,0.46933 z" />
      </g>
      <g
         id="flowRoot11769"
         style="font-style:normal;font-weight:normal;font-size:42.66666794px;line-height:1.25;font-family:sans-serif;letter-spacing:0px;word-spacing:0px;fill:#000000;fill-opacity:1;stroke:none"
         inkscape:transform-center-y="-101.95184"
         inkscape:transform-center-x="-228.98758"
         transform="matrix(0.24171404,-0.10761803,0.10761803,0.24171404,81.216332,-170.19841)"
         aria-label="4">
        <path
           id="path3707"
           style="font-style:normal;font-variant:normal;font-weight:normal;font-stretch:normal;font-size:42.66666794px;line-height:53.33333588px;font-family:'Ubuntu Mono';-inkscape-font-specification:'Ubuntu Mono'"
           d="m 568.20202,249.12514 q 0.72533,-1.70666 1.96266,-3.92533 1.28,-2.21867 2.85867,-4.56533 1.57867,-2.38934 3.37067,-4.65067 1.792,-2.304 3.62666,-4.13867 h 3.41334 v 16.768 h 3.11466 v 2.90134 h -3.11466 v 6.74133 h -3.41334 v -6.74133 h -11.81866 z m 11.81866,-13.09866 q -1.152,1.23733 -2.34666,2.73066 -1.152,1.49334 -2.26134,3.15734 -1.10933,1.62133 -2.09066,3.328 -0.93867,1.70666 -1.70667,3.37066 h 8.40533 z" />
      </g>
      <g
         id="flowRoot11777"
         style="font-style:normal;font-weight:normal;font-size:42.66666794px;line-height:1.25;font-family:sans-serif;letter-spacing:0px;word-spacing:0px;fill:#000000;fill-opacity:1;stroke:none"
         inkscape:transform-center-y="-125.32906"
         inkscape:transform-center-x="-217.07629"
         transform="matrix(0.22914076,-0.13229449,0.13229449,0.22914076,70.517304,-176.24878)"
         aria-label="5">
        <path
           id="path3710"
           style="font-style:normal;font-variant:normal;font-weight:normal;font-stretch:normal;font-size:42.66666794px;line-height:53.33333588px;font-family:'Ubuntu Mono';-inkscape-font-specification:'Ubuntu Mono'"
           d="m 574.60202,242.04248 q 5.71733,0.21333 8.32,2.51733 2.60266,2.304 2.60266,6.18667 0,1.74933 -0.55466,3.24266 -0.55467,1.49334 -1.74934,2.56 -1.152,1.06667 -2.98666,1.664 -1.792,0.59734 -4.26667,0.59734 -1.024,0 -2.048,-0.17067 -0.98133,-0.128 -1.87733,-0.34133 -0.896,-0.21334 -1.57867,-0.42667 -0.68267,-0.256 -0.98133,-0.42667 l 0.68266,-3.02933 q 0.68267,0.34133 2.09067,0.81067 1.45067,0.46933 3.62667,0.46933 1.70666,0 2.85866,-0.384 1.152,-0.384 1.83467,-1.024 0.72533,-0.68267 1.024,-1.536 0.34133,-0.85333 0.34133,-1.792 0,-1.45067 -0.512,-2.56 -0.46933,-1.152 -1.70666,-1.92 -1.19467,-0.768 -3.328,-1.152 -2.09067,-0.42667 -5.29067,-0.42667 0.256,-1.87733 0.384,-3.49866 0.17067,-1.664 0.256,-3.2 0.128,-1.57867 0.17067,-3.11467 0.0853,-1.536 0.17066,-3.24267 h 12.71467 v 2.98667 h -9.64267 q -0.0427,0.59733 -0.128,1.57867 -0.0427,0.93866 -0.128,2.00533 -0.0853,1.06667 -0.17066,2.048 -0.0853,0.98133 -0.128,1.57867 z" />
      </g>
      <g
         id="flowRoot11785"
         style="font-style:normal;font-weight:normal;font-size:42.66666794px;line-height:1.25;font-family:sans-serif;letter-spacing:0px;word-spacing:0px;fill:#000000;fill-opacity:1;stroke:none"
         inkscape:transform-center-y="-147.33315"
         inkscape:transform-center-x="-202.78667"
         transform="matrix(0.21405696,-0.15552149,0.15552149,0.21405696,59.244454,-181.14765)"
         aria-label="6">
        <path
           id="path3713"
           style="font-style:normal;font-variant:normal;font-weight:normal;font-stretch:normal;font-size:42.66666794px;line-height:53.33333588px;font-family:'Ubuntu Mono';-inkscape-font-specification:'Ubuntu Mono'"
           d="m 568.97002,247.67448 q 0,-3.84 1.024,-6.784 1.06666,-2.98667 2.98666,-4.992 1.96267,-2.00534 4.736,-3.072 2.77334,-1.06667 6.272,-1.10934 l 0.29867,2.98667 q -2.26133,0.0427 -4.13867,0.512 -1.83466,0.42667 -3.28533,1.45067 -1.45067,0.98133 -2.432,2.56 -0.98133,1.57866 -1.49333,3.88266 1.024,-0.46933 2.21866,-0.768 1.23734,-0.29866 2.60267,-0.29866 2.21867,0 3.75467,0.68266 1.57866,0.68267 2.51733,1.83467 0.93867,1.10933 1.36533,2.60267 0.42667,1.49333 0.42667,3.072 0,1.45066 -0.46933,2.98666 -0.46934,1.49334 -1.45067,2.77334 -0.98133,1.23733 -2.51733,2.048 -1.536,0.768 -3.66934,0.768 -4.39466,0 -6.57066,-2.944 -2.176,-2.944 -2.176,-8.192 z m 8.40533,-2.73067 q -1.36533,0 -2.51733,0.256 -1.10934,0.256 -2.26134,0.768 -0.0427,0.42667 -0.0427,0.85333 0,0.384 0,0.85334 0,1.664 0.21333,3.15733 0.256,1.45067 0.81067,2.60267 0.59733,1.10933 1.57866,1.792 0.98134,0.64 2.51734,0.64 1.28,0 2.13333,-0.512 0.85333,-0.55467 1.408,-1.36534 0.55467,-0.81066 0.768,-1.792 0.256,-1.024 0.256,-1.92 0,-2.60266 -1.19467,-3.968 -1.152,-1.36533 -3.66933,-1.36533 z" />
      </g>
      <g
         id="flowRoot11793"
         style="font-style:normal;font-weight:normal;font-size:42.66666794px;line-height:1.25;font-family:sans-serif;letter-spacing:0px;word-spacing:0px;fill:#000000;fill-opacity:1;stroke:none"
         inkscape:transform-center-y="-167.72302"
         inkscape:transform-center-x="-186.27527"
         transform="matrix(0.19662791,-0.17704457,0.17704457,0.19662791,47.521284,-184.84135)"
         aria-label="7">
        <path
           id="path3716"
           style="font-style:normal;font-variant:normal;font-weight:normal;font-stretch:normal;font-size:42.66666794px;line-height:53.33333588px;font-family:'Ubuntu Mono';-inkscape-font-specification:'Ubuntu Mono'"
           d="m 573.27935,258.25581 q 0.21333,-3.02933 1.06667,-6.4 0.896,-3.41333 2.13333,-6.57067 1.23733,-3.2 2.73067,-5.888 1.49333,-2.73066 2.944,-4.48 h -12.8 v -3.072 h 16.72533 v 2.944 q -1.28,1.49334 -2.77333,4.01067 -1.49334,2.51733 -2.85867,5.67467 -1.32267,3.11466 -2.304,6.69866 -0.98133,3.54134 -1.23733,7.08267 z" />
      </g>
      <g
         id="flowRoot11801"
         style="font-style:normal;font-weight:normal;font-size:42.66666794px;line-height:1.25;font-family:sans-serif;letter-spacing:0px;word-spacing:0px;fill:#000000;fill-opacity:1;stroke:none"
         inkscape:transform-center-y="-186.27528"
         inkscape:transform-center-x="-167.723"
         transform="matrix(0.17704456,-0.19662792,0.19662792,0.17704456,35.476238,-187.28941)"
         aria-label="8">
        <path
           id="path3719"
           style="font-style:normal;font-variant:normal;font-weight:normal;font-stretch:normal;font-size:42.66666794px;line-height:53.33333588px;font-family:'Ubuntu Mono';-inkscape-font-specification:'Ubuntu Mono'"
           d="m 585.82335,251.38648 q 0,3.328 -2.13333,5.376 -2.09067,2.048 -6.4,2.048 -2.47467,0 -4.096,-0.64 -1.62134,-0.68267 -2.60267,-1.70667 -0.93867,-1.06667 -1.36533,-2.34667 -0.384,-1.28 -0.384,-2.51733 0,-2.26133 1.23733,-4.01067 1.23733,-1.74933 2.944,-2.816 -3.62667,-2.048 -3.62667,-6.272 0,-1.45066 0.55467,-2.77333 0.55467,-1.32267 1.57867,-2.304 1.024,-0.98133 2.47466,-1.57867 1.49334,-0.59733 3.328,-0.59733 2.13334,0 3.62667,0.64 1.536,0.64 2.47467,1.664 0.93866,0.98133 1.36533,2.21867 0.42667,1.19466 0.42667,2.34666 0,2.26134 -1.152,3.92534 -1.152,1.62133 -2.64534,2.60266 4.39467,2.09067 4.39467,6.74134 z m -13.568,0.256 q 0,0.68266 0.256,1.45066 0.256,0.72534 0.85333,1.36534 0.59734,0.64 1.57867,1.06666 0.98133,0.384 2.38933,0.384 1.32267,0 2.26134,-0.34133 0.98133,-0.384 1.57866,-0.98133 0.64,-0.64 0.93867,-1.408 0.29867,-0.768 0.29867,-1.536 0,-2.432 -1.74934,-3.712 -1.74933,-1.32267 -4.82133,-2.00534 -1.70667,0.93867 -2.64533,2.34667 -0.93867,1.408 -0.93867,3.37067 z m 9.55733,-13.52534 q 0,-0.55466 -0.256,-1.23733 -0.256,-0.72533 -0.81066,-1.28 -0.512,-0.59733 -1.36534,-0.98133 -0.85333,-0.42667 -2.048,-0.42667 -1.23733,0 -2.09066,0.384 -0.81067,0.384 -1.36534,0.98133 -0.55466,0.55467 -0.81066,1.28 -0.21334,0.68267 -0.21334,1.36534 0,1.74933 1.23734,3.28533 1.28,1.49333 4.18133,2.176 1.62133,-0.93867 2.56,-2.21867 0.98133,-1.28 0.98133,-3.328 z" />
      </g>
      <g
         id="flowRoot11809"
         style="font-style:normal;font-weight:normal;font-size:42.66666794px;line-height:1.25;font-family:sans-serif;letter-spacing:0px;word-spacing:0px;fill:#000000;fill-opacity:1;stroke:none"
         inkscape:transform-center-y="-202.78668"
         inkscape:transform-center-x="-147.33313"
         transform="matrix(0.15552148,-0.21405697,0.21405697,0.15552148,23.241287,-188.46502)"
         aria-label="9">
        <path
           id="path3722"
           style="font-style:normal;font-variant:normal;font-weight:normal;font-stretch:normal;font-size:42.66666794px;line-height:53.33333588px;font-family:'Ubuntu Mono';-inkscape-font-specification:'Ubuntu Mono'"
           d="m 585.73802,242.42648 q 0,7.89333 -3.84,11.904 -3.84,3.968 -11.56267,4.01066 l -0.128,-2.98666 q 4.77867,0 7.68,-1.87734 2.944,-1.92 3.88267,-6.57066 -1.024,0.46933 -2.26134,0.768 -1.23733,0.256 -2.60266,0.256 -2.26134,0 -3.79734,-0.64 -1.536,-0.68267 -2.47466,-1.792 -0.93867,-1.152 -1.36534,-2.60267 -0.42666,-1.45067 -0.42666,-3.072 0,-1.45067 0.46933,-2.944 0.46933,-1.536 1.45067,-2.77333 0.98133,-1.23734 2.51733,-2.048 1.536,-0.81067 3.66933,-0.81067 4.352,0 6.57067,2.98667 2.21867,2.98666 2.21867,8.192 z m -8.448,2.60266 q 1.36533,0 2.51733,-0.256 1.19467,-0.256 2.304,-0.72533 0.0427,-0.42667 0.0427,-0.81067 0,-0.384 0,-0.81066 0,-1.664 -0.256,-3.15734 -0.21334,-1.49333 -0.81067,-2.60266 -0.55467,-1.10934 -1.57867,-1.74934 -0.98133,-0.68266 -2.51733,-0.68266 -1.28,0 -2.13333,0.55466 -0.85334,0.512 -1.408,1.32267 -0.55467,0.768 -0.81067,1.74933 -0.21333,0.98134 -0.21333,1.87734 0,2.60266 1.152,3.968 1.19466,1.32266 3.712,1.32266 z" />
      </g>
      <g
         id="flowRoot11817"
         style="font-style:normal;font-weight:normal;font-size:42.66666794px;line-height:1.25;font-family:sans-serif;letter-spacing:0px;word-spacing:0px;fill:#000000;fill-opacity:1;stroke:none"
         inkscape:transform-center-y="-217.07629"
         inkscape:transform-center-x="-125.32905"
         transform="matrix(0.13229448,-0.22914076,0.22914076,0.13229448,10.950474,-188.35527)"
         aria-label="0">
        <path
           id="path3725"
           style="font-style:normal;font-variant:normal;font-weight:normal;font-stretch:normal;font-size:42.66666794px;line-height:53.33333588px;font-family:'Ubuntu Mono';-inkscape-font-specification:'Ubuntu Mono'"
           d="m 579.80735,244.55981 q 0,1.10933 -0.68267,1.92 -0.64,0.81067 -1.70666,0.81067 -1.10934,0 -1.792,-0.81067 -0.68267,-0.81067 -0.68267,-1.92 0,-1.10933 0.68267,-1.96267 0.68266,-0.85333 1.792,-0.85333 1.06666,0 1.70666,0.85333 0.68267,0.85334 0.68267,1.96267 z m -11.17867,0.46933 q 0,-6.656 2.26134,-10.19733 2.304,-3.584 6.44266,-3.584 4.18134,0 6.44267,3.584 2.26133,3.54133 2.26133,10.19733 0,6.656 -2.26133,10.24 -2.26133,3.54134 -6.44267,3.54134 -4.13866,0 -6.44266,-3.54134 -2.26134,-3.584 -2.26134,-10.24 z m 13.824,0 q 0,-2.176 -0.256,-4.096 -0.256,-1.96266 -0.85333,-3.41333 -0.59733,-1.45067 -1.57867,-2.304 -0.98133,-0.85333 -2.432,-0.85333 -1.45066,0 -2.432,0.85333 -0.98133,0.85333 -1.57866,2.304 -0.59734,1.45067 -0.85334,3.41333 -0.256,1.92 -0.256,4.096 0,2.176 0.256,4.13867 0.256,1.92 0.85334,3.37067 0.59733,1.45066 1.57866,2.304 0.98134,0.85333 2.432,0.85333 1.45067,0 2.432,-0.85333 0.98134,-0.85334 1.57867,-2.304 0.59733,-1.45067 0.85333,-3.37067 0.256,-1.96267 0.256,-4.13867 z" />
      </g>
      <g
         id="flowRoot11825"
         style="font-style:normal;font-weight:normal;font-size:42.66666794px;line-height:1.25;font-family:sans-serif;letter-spacing:0px;word-spacing:0px;fill:#000000;fill-opacity:1;stroke:none"
         inkscape:transform-center-y="-228.98757"
         inkscape:transform-center-x="-101.95183"
         transform="matrix(0.10761802,-0.24171404,0.24171404,0.10761802,-1.2615368,-186.96139)"
         aria-label="1">
        <path
           id="path3728"
           style="font-style:normal;font-variant:normal;font-weight:normal;font-stretch:normal;font-size:42.66666794px;line-height:53.33333588px;font-family:'Ubuntu Mono';-inkscape-font-specification:'Ubuntu Mono'"
           d="m 569.86602,237.30648 q 2.176,-0.85334 4.224,-2.13334 2.048,-1.32266 3.79733,-3.328 h 2.47467 v 23.424 h 4.992 v 2.98667 h -14.208 v -2.98667 h 5.71733 v -18.51733 q -0.46933,0.42667 -1.152,0.896 -0.64,0.42667 -1.45067,0.85333 -0.768,0.42667 -1.62133,0.81067 -0.85333,0.384 -1.664,0.64 z" />
      </g>
      <g
         id="flowRoot11833"
         style="font-style:normal;font-weight:normal;font-size:42.66666794px;line-height:1.25;font-family:sans-serif;letter-spacing:0px;word-spacing:0px;fill:#000000;fill-opacity:1;stroke:none"
         inkscape:transform-center-y="-238.39002"
         inkscape:transform-center-x="-77.457608"
         transform="matrix(0.08176248,-0.25163905,0.25163905,0.08176248,-13.26095,-184.29865)"
         aria-label="2">
        <path
           id="path3731"
           style="font-style:normal;font-variant:normal;font-weight:normal;font-stretch:normal;font-size:42.66666794px;line-height:53.33333588px;font-family:'Ubuntu Mono';-inkscape-font-specification:'Ubuntu Mono'"
           d="m 584.58602,238.58648 q 0,1.36533 -0.55467,2.64533 -0.512,1.28 -1.408,2.51733 -0.85333,1.23734 -1.96267,2.432 -1.10933,1.19467 -2.26133,2.34667 -0.64,0.64 -1.49333,1.536 -0.85334,0.896 -1.62134,1.83467 -0.768,0.93866 -1.28,1.83466 -0.512,0.896 -0.512,1.536 h 12.16 v 2.98667 h -16 q -0.0427,-0.21333 -0.0427,-0.42667 0,-0.256 0,-0.46933 0,-1.792 0.59733,-3.328 0.59733,-1.536 1.536,-2.90133 0.93867,-1.36534 2.09067,-2.56 1.19466,-1.23734 2.34666,-2.38934 0.93867,-0.93866 1.792,-1.83466 0.896,-0.896 1.536,-1.792 0.68267,-0.896 1.06667,-1.83467 0.42667,-0.98133 0.42667,-2.00533 0,-1.152 -0.384,-1.96267 -0.34134,-0.81067 -0.98134,-1.32267 -0.59733,-0.55466 -1.408,-0.81066 -0.81066,-0.256 -1.74933,-0.256 -1.10933,0 -2.048,0.29866 -0.896,0.29867 -1.62133,0.72534 -0.68267,0.42666 -1.19467,0.85333 -0.512,0.384 -0.768,0.64 l -1.74933,-2.47467 q 0.34133,-0.384 1.024,-0.93866 0.68266,-0.55467 1.62133,-1.024 0.98133,-0.512 2.176,-0.85334 1.19467,-0.34133 2.56,-0.34133 4.13867,0 6.10133,1.92 2.00534,1.87733 2.00534,5.41867 z" />
      </g>
      <g
         id="flowRoot11841"
         style="font-style:normal;font-weight:normal;font-size:42.66666794px;line-height:1.25;font-family:sans-serif;letter-spacing:0px;word-spacing:0px;fill:#000000;fill-opacity:1;stroke:none"
         inkscape:transform-center-y="-245.18062"
         inkscape:transform-center-x="-52.114743"
         transform="matrix(0.05501113,-0.25880705,0.25880705,0.05501113,-24.916299,-180.39621)"
         aria-label="3">
        <path
           id="path3734"
           style="font-style:normal;font-variant:normal;font-weight:normal;font-stretch:normal;font-size:42.66666794px;line-height:53.33333588px;font-family:'Ubuntu Mono';-inkscape-font-specification:'Ubuntu Mono'"
           d="m 575.71135,255.69581 q 3.37067,0 4.77867,-1.32267 1.45066,-1.36533 1.45066,-3.62666 0,-1.45067 -0.59733,-2.432 -0.59733,-0.98134 -1.57867,-1.57867 -0.98133,-0.59733 -2.26133,-0.85333 -1.28,-0.256 -2.688,-0.256 h -0.896 v -2.85867 h 1.23733 q 0.93867,0 1.92,-0.17067 1.024,-0.21333 1.83467,-0.68266 0.85333,-0.512 1.36533,-1.36534 0.512,-0.85333 0.512,-2.176 0,-2.176 -1.36533,-3.072 -1.32267,-0.93866 -3.11467,-0.93866 -1.83466,0 -3.11466,0.55466 -1.28,0.512 -2.13334,1.06667 l -1.36533,-2.688 q 0.896,-0.64 2.688,-1.32267 1.83467,-0.72533 4.05333,-0.72533 2.09067,0 3.584,0.512 1.49334,0.512 2.432,1.45067 0.98134,0.93866 1.45067,2.21866 0.46933,1.23734 0.46933,2.73067 0,2.09067 -1.10933,3.54133 -1.06667,1.45067 -2.77333,2.21867 2.048,0.59733 3.54133,2.34667 1.49333,1.70666 1.49333,4.56533 0,1.70667 -0.59733,3.2 -0.55467,1.45067 -1.74933,2.51733 -1.152,1.06667 -3.02934,1.664 -1.83466,0.59734 -4.39466,0.59734 -0.98134,0 -2.048,-0.17067 -1.024,-0.128 -1.92,-0.384 -0.896,-0.21333 -1.62134,-0.42667 -0.68266,-0.256 -0.98133,-0.384 l 0.68267,-3.02933 q 0.68266,0.34133 2.176,0.81067 1.49333,0.46933 3.66933,0.46933 z" />
      </g>
      <g
         id="flowRoot11849"
         style="font-style:normal;font-weight:normal;font-size:42.66666794px;line-height:1.25;font-family:sans-serif;letter-spacing:0px;word-spacing:0px;fill:#000000;fill-opacity:1;stroke:none"
         inkscape:transform-center-y="-249.28496"
         inkscape:transform-center-x="-26.200897"
         transform="matrix(0.02765707,-0.2631395,0.2631395,0.02765707,-36.099877,-175.29683)"
         aria-label="4">
        <path
           id="path3737"
           style="font-style:normal;font-variant:normal;font-weight:normal;font-stretch:normal;font-size:42.66666794px;line-height:53.33333588px;font-family:'Ubuntu Mono';-inkscape-font-specification:'Ubuntu Mono'"
           d="m 568.20202,249.12514 q 0.72533,-1.70666 1.96266,-3.92533 1.28,-2.21867 2.85867,-4.56533 1.57867,-2.38934 3.37067,-4.65067 1.792,-2.304 3.62666,-4.13867 h 3.41334 v 16.768 h 3.11466 v 2.90134 h -3.11466 v 6.74133 h -3.41334 v -6.74133 h -11.81866 z m 11.81866,-13.09866 q -1.152,1.23733 -2.34666,2.73066 -1.152,1.49334 -2.26134,3.15734 -1.10933,1.62133 -2.09066,3.328 -0.93867,1.70666 -1.70667,3.37066 h 8.40533 z" />
      </g>
      <g
         id="flowRoot11857"
         style="font-style:normal;font-weight:normal;font-size:42.66666794px;line-height:1.25;font-family:sans-serif;letter-spacing:0px;word-spacing:0px;fill:#000000;fill-opacity:1;stroke:none"
         inkscape:transform-center-y="-250.65809"
         inkscape:transform-center-x="4.5117858e-06"
         transform="matrix(0,-0.26458895,0.26458895,0,-46.689162,-169.05639)"
         aria-label="5">
        <path
           id="path3740"
           style="font-style:normal;font-variant:normal;font-weight:normal;font-stretch:normal;font-size:42.66666794px;line-height:53.33333588px;font-family:'Ubuntu Mono';-inkscape-font-specification:'Ubuntu Mono'"
           d="m 574.60202,242.04248 q 5.71733,0.21333 8.32,2.51733 2.60266,2.304 2.60266,6.18667 0,1.74933 -0.55466,3.24266 -0.55467,1.49334 -1.74934,2.56 -1.152,1.06667 -2.98666,1.664 -1.792,0.59734 -4.26667,0.59734 -1.024,0 -2.048,-0.17067 -0.98133,-0.128 -1.87733,-0.34133 -0.896,-0.21334 -1.57867,-0.42667 -0.68267,-0.256 -0.98133,-0.42667 l 0.68266,-3.02933 q 0.68267,0.34133 2.09067,0.81067 1.45067,0.46933 3.62667,0.46933 1.70666,0 2.85866,-0.384 1.152,-0.384 1.83467,-1.024 0.72533,-0.68267 1.024,-1.536 0.34133,-0.85333 0.34133,-1.792 0,-1.45067 -0.512,-2.56 -0.46933,-1.152 -1.70666,-1.92 -1.19467,-0.768 -3.328,-1.152 -2.09067,-0.42667 -5.29067,-0.42667 0.256,-1.87733 0.384,-3.49866 0.17067,-1.664 0.256,-3.2 0.128,-1.57867 0.17067,-3.11467 0.0853,-1.536 0.17066,-3.24267 h 12.71467 v 2.98667 h -9.64267 q -0.0427,0.59733 -0.128,1.57867 -0.0427,0.93866 -0.128,2.00533 -0.0853,1.06667 -0.17066,2.048 -0.0853,0.98133 -0.128,1.57867 z" />
      </g>
      <g
         id="flowRoot11865"
         style="font-style:normal;font-weight:normal;font-size:42.66666794px;line-height:1.25;font-family:sans-serif;letter-spacing:0px;word-spacing:0px;fill:#000000;fill-opacity:1;stroke:none"
         inkscape:transform-center-y="-249.28496"
         inkscape:transform-center-x="26.200913"
         transform="matrix(-0.02765708,-0.26313949,0.26313949,-0.02765708,-56.568133,-161.74326)"
         aria-label="6">
        <path
           id="path3743"
           style="font-style:normal;font-variant:normal;font-weight:normal;font-stretch:normal;font-size:42.66666794px;line-height:53.33333588px;font-family:'Ubuntu Mono';-inkscape-font-specification:'Ubuntu Mono'"
           d="m 568.97002,247.67448 q 0,-3.84 1.024,-6.784 1.06666,-2.98667 2.98666,-4.992 1.96267,-2.00534 4.736,-3.072 2.77334,-1.06667 6.272,-1.10934 l 0.29867,2.98667 q -2.26133,0.0427 -4.13867,0.512 -1.83466,0.42667 -3.28533,1.45067 -1.45067,0.98133 -2.432,2.56 -0.98133,1.57866 -1.49333,3.88266 1.024,-0.46933 2.21866,-0.768 1.23734,-0.29866 2.60267,-0.29866 2.21867,0 3.75467,0.68266 1.57866,0.68267 2.51733,1.83467 0.93867,1.10933 1.36533,2.60267 0.42667,1.49333 0.42667,3.072 0,1.45066 -0.46933,2.98666 -0.46934,1.49334 -1.45067,2.77334 -0.98133,1.23733 -2.51733,2.048 -1.536,0.768 -3.66934,0.768 -4.39466,0 -6.57066,-2.944 -2.176,-2.944 -2.176,-8.192 z m 8.40533,-2.73067 q -1.36533,0 -2.51733,0.256 -1.10934,0.256 -2.26134,0.768 -0.0427,0.42667 -0.0427,0.85333 0,0.384 0,0.85334 0,1.664 0.21333,3.15733 0.256,1.45067 0.81067,2.60267 0.59733,1.10933 1.57866,1.792 0.98134,0.64 2.51734,0.64 1.28,0 2.13333,-0.512 0.85333,-0.55467 1.408,-1.36534 0.55467,-0.81066 0.768,-1.792 0.256,-1.024 0.256,-1.92 0,-2.60266 -1.19467,-3.968 -1.152,-1.36533 -3.66933,-1.36533 z" />
      </g>
      <g
         id="flowRoot11873"
         style="font-style:normal;font-weight:normal;font-size:42.66666794px;line-height:1.25;font-family:sans-serif;letter-spacing:0px;word-spacing:0px;fill:#000000;fill-opacity:1;stroke:none"
         inkscape:transform-center-y="-245.18061"
         inkscape:transform-center-x="52.114759"
         transform="matrix(-0.05501114,-0.25880703,0.25880703,-0.05501114,-65.628556,-153.43755)"
         aria-label="7">
        <path
           id="path3746"
           style="font-style:normal;font-variant:normal;font-weight:normal;font-stretch:normal;font-size:42.66666794px;line-height:53.33333588px;font-family:'Ubuntu Mono';-inkscape-font-specification:'Ubuntu Mono'"
           d="m 573.27935,258.25581 q 0.21333,-3.02933 1.06667,-6.4 0.896,-3.41333 2.13333,-6.57067 1.23733,-3.2 2.73067,-5.888 1.49333,-2.73066 2.944,-4.48 h -12.8 v -3.072 h 16.72533 v 2.944 q -1.28,1.49334 -2.77333,4.01067 -1.49334,2.51733 -2.85867,5.67467 -1.32267,3.11466 -2.304,6.69866 -0.98133,3.54134 -1.23733,7.08267 z" />
      </g>
      <g
         id="flowRoot11881"
         style="font-style:normal;font-weight:normal;font-size:42.66666794px;line-height:1.25;font-family:sans-serif;letter-spacing:0px;word-spacing:0px;fill:#000000;fill-opacity:1;stroke:none"
         inkscape:transform-center-y="-238.39"
         inkscape:transform-center-x="77.457618"
         transform="matrix(-0.08176248,-0.25163903,0.25163903,-0.08176248,-73.771159,-144.23026)"
         aria-label="8">
        <path
           id="path3749"
           style="font-style:normal;font-variant:normal;font-weight:normal;font-stretch:normal;font-size:42.66666794px;line-height:53.33333588px;font-family:'Ubuntu Mono';-inkscape-font-specification:'Ubuntu Mono'"
           d="m 585.82335,251.38648 q 0,3.328 -2.13333,5.376 -2.09067,2.048 -6.4,2.048 -2.47467,0 -4.096,-0.64 -1.62134,-0.68267 -2.60267,-1.70667 -0.93867,-1.06667 -1.36533,-2.34667 -0.384,-1.28 -0.384,-2.51733 0,-2.26133 1.23733,-4.01067 1.23733,-1.74933 2.944,-2.816 -3.62667,-2.048 -3.62667,-6.272 0,-1.45066 0.55467,-2.77333 0.55467,-1.32267 1.57867,-2.304 1.024,-0.98133 2.47466,-1.57867 1.49334,-0.59733 3.328,-0.59733 2.13334,0 3.62667,0.64 1.536,0.64 2.47467,1.664 0.93866,0.98133 1.36533,2.21867 0.42667,1.19466 0.42667,2.34666 0,2.26134 -1.152,3.92534 -1.152,1.62133 -2.64534,2.60266 4.39467,2.09067 4.39467,6.74134 z m -13.568,0.256 q 0,0.68266 0.256,1.45066 0.256,0.72534 0.85333,1.36534 0.59734,0.64 1.57867,1.06666 0.98133,0.384 2.38933,0.384 1.32267,0 2.26134,-0.34133 0.98133,-0.384 1.57866,-0.98133 0.64,-0.64 0.93867,-1.408 0.29867,-0.768 0.29867,-1.536 0,-2.432 -1.74934,-3.712 -1.74933,-1.32267 -4.82133,-2.00534 -1.70667,0.93867 -2.64533,2.34667 -0.93867,1.408 -0.93867,3.37067 z m 9.55733,-13.52534 q 0,-0.55466 -0.256,-1.23733 -0.256,-0.72533 -0.81066,-1.28 -0.512,-0.59733 -1.36534,-0.98133 -0.85333,-0.42667 -2.048,-0.42667 -1.23733,0 -2.09066,0.384 -0.81067,0.384 -1.36534,0.98133 -0.55466,0.55467 -0.81066,1.28 -0.21334,0.68267 -0.21334,1.36534 0,1.74933 1.23734,3.28533 1.28,1.49333 4.18133,2.176 1.62133,-0.93867 2.56,-2.21867 0.98133,-1.28 0.98133,-3.328 z" />
      </g>
      <g
         id="flowRoot11889"
         style="font-style:normal;font-weight:normal;font-size:42.66666794px;line-height:1.25;font-family:sans-serif;letter-spacing:0px;word-spacing:0px;fill:#000000;fill-opacity:1;stroke:none"
         inkscape:transform-center-y="-228.98755"
         inkscape:transform-center-x="101.95184"
         transform="matrix(-0.10761802,-0.24171402,0.24171402,-0.10761802,-80.906741,-134.22229)"
         aria-label="9">
        <path
           id="path3752"
           style="font-style:normal;font-variant:normal;font-weight:normal;font-stretch:normal;font-size:42.66666794px;line-height:53.33333588px;font-family:'Ubuntu Mono';-inkscape-font-specification:'Ubuntu Mono'"
           d="m 585.73802,242.42648 q 0,7.89333 -3.84,11.904 -3.84,3.968 -11.56267,4.01066 l -0.128,-2.98666 q 4.77867,0 7.68,-1.87734 2.944,-1.92 3.88267,-6.57066 -1.024,0.46933 -2.26134,0.768 -1.23733,0.256 -2.60266,0.256 -2.26134,0 -3.79734,-0.64 -1.536,-0.68267 -2.47466,-1.792 -0.93867,-1.152 -1.36534,-2.60267 -0.42666,-1.45067 -0.42666,-3.072 0,-1.45067 0.46933,-2.944 0.46933,-1.536 1.45067,-2.77333 0.98133,-1.23734 2.51733,-2.048 1.536,-0.81067 3.66933,-0.81067 4.352,0 6.57067,2.98667 2.21867,2.98666 2.21867,8.192 z m -8.448,2.60266 q 1.36533,0 2.51733,-0.256 1.19467,-0.256 2.304,-0.72533 0.0427,-0.42667 0.0427,-0.81067 0,-0.384 0,-0.81066 0,-1.664 -0.256,-3.15734 -0.21334,-1.49333 -0.81067,-2.60266 -0.55467,-1.10934 -1.57867,-1.74934 -0.98133,-0.68266 -2.51733,-0.68266 -1.28,0 -2.13333,0.55466 -0.85334,0.512 -1.408,1.32267 -0.55467,0.768 -0.81067,1.74933 -0.21333,0.98134 -0.21333,1.87734 0,2.60266 1.152,3.968 1.19466,1.32266 3.712,1.32266 z" />
      </g>
      <g
         id="flowRoot11897"
         style="font-style:normal;font-weight:normal;font-size:42.66666794px;line-height:1.25;font-family:sans-serif;letter-spacing:0px;word-spacing:0px;fill:#000000;fill-opacity:1;stroke:none"
         inkscape:transform-center-y="-217.07626"
         inkscape:transform-center-x="125.32906"
         transform="matrix(-0.13229448,-0.22914074,0.22914074,-0.13229448,-86.95711,-123.52326)"
         aria-label="0">
        <path
           id="path3755"
           style="font-style:normal;font-variant:normal;font-weight:normal;font-stretch:normal;font-size:42.66666794px;line-height:53.33333588px;font-family:'Ubuntu Mono';-inkscape-font-specification:'Ubuntu Mono'"
           d="m 579.80735,244.55981 q 0,1.10933 -0.68267,1.92 -0.64,0.81067 -1.70666,0.81067 -1.10934,0 -1.792,-0.81067 -0.68267,-0.81067 -0.68267,-1.92 0,-1.10933 0.68267,-1.96267 0.68266,-0.85333 1.792,-0.85333 1.06666,0 1.70666,0.85333 0.68267,0.85334 0.68267,1.96267 z m -11.17867,0.46933 q 0,-6.656 2.26134,-10.19733 2.304,-3.584 6.44266,-3.584 4.18134,0 6.44267,3.584 2.26133,3.54133 2.26133,10.19733 0,6.656 -2.26133,10.24 -2.26133,3.54134 -6.44267,3.54134 -4.13866,0 -6.44266,-3.54134 -2.26134,-3.584 -2.26134,-10.24 z m 13.824,0 q 0,-2.176 -0.256,-4.096 -0.256,-1.96266 -0.85333,-3.41333 -0.59733,-1.45067 -1.57867,-2.304 -0.98133,-0.85333 -2.432,-0.85333 -1.45066,0 -2.432,0.85333 -0.98133,0.85333 -1.57866,2.304 -0.59734,1.45067 -0.85334,3.41333 -0.256,1.92 -0.256,4.096 0,2.176 0.256,4.13867 0.256,1.92 0.85334,3.37067 0.59733,1.45066 1.57866,2.304 0.98134,0.85333 2.432,0.85333 1.45067,0 2.432,-0.85333 0.98134,-0.85334 1.57867,-2.304 0.59733,-1.45067 0.85333,-3.37067 0.256,-1.96267 0.256,-4.13867 z" />
      </g>
      <g
         id="flowRoot11905"
         style="font-style:normal;font-weight:normal;font-size:42.66666794px;line-height:1.25;font-family:sans-serif;letter-spacing:0px;word-spacing:0px;fill:#000000;fill-opacity:1;stroke:none"
         inkscape:transform-center-y="-202.78664"
         inkscape:transform-center-x="147.33314"
         transform="matrix(-0.15552148,-0.21405695,0.21405695,-0.15552148,-91.855974,-112.25041)"
         aria-label="1">
        <path
           id="path3758"
           style="font-style:normal;font-variant:normal;font-weight:normal;font-stretch:normal;font-size:42.66666794px;line-height:53.33333588px;font-family:'Ubuntu Mono';-inkscape-font-specification:'Ubuntu Mono'"
           d="m 569.86602,237.30648 q 2.176,-0.85334 4.224,-2.13334 2.048,-1.32266 3.79733,-3.328 h 2.47467 v 23.424 h 4.992 v 2.98667 h -14.208 v -2.98667 h 5.71733 v -18.51733 q -0.46933,0.42667 -1.152,0.896 -0.64,0.42667 -1.45067,0.85333 -0.768,0.42667 -1.62133,0.81067 -0.85333,0.384 -1.664,0.64 z" />
      </g>
      <g
         id="flowRoot11913"
         style="font-style:normal;font-weight:normal;font-size:42.66666794px;line-height:1.25;font-family:sans-serif;letter-spacing:0px;word-spacing:0px;fill:#000000;fill-opacity:1;stroke:none"
         inkscape:transform-center-y="-186.27524"
         inkscape:transform-center-x="167.72301"
         transform="matrix(-0.17704456,-0.1966279,0.1966279,-0.17704456,-95.549683,-100.52724)"
         aria-label="2">
        <path
           id="path3761"
           style="font-style:normal;font-variant:normal;font-weight:normal;font-stretch:normal;font-size:42.66666794px;line-height:53.33333588px;font-family:'Ubuntu Mono';-inkscape-font-specification:'Ubuntu Mono'"
           d="m 584.58602,238.58648 q 0,1.36533 -0.55467,2.64533 -0.512,1.28 -1.408,2.51733 -0.85333,1.23734 -1.96267,2.432 -1.10933,1.19467 -2.26133,2.34667 -0.64,0.64 -1.49333,1.536 -0.85334,0.896 -1.62134,1.83467 -0.768,0.93866 -1.28,1.83466 -0.512,0.896 -0.512,1.536 h 12.16 v 2.98667 h -16 q -0.0427,-0.21333 -0.0427,-0.42667 0,-0.256 0,-0.46933 0,-1.792 0.59733,-3.328 0.59733,-1.536 1.536,-2.90133 0.93867,-1.36534 2.09067,-2.56 1.19466,-1.23734 2.34666,-2.38934 0.93867,-0.93866 1.792,-1.83466 0.896,-0.896 1.536,-1.792 0.68267,-0.896 1.06667,-1.83467 0.42667,-0.98133 0.42667,-2.00533 0,-1.152 -0.384,-1.96267 -0.34134,-0.81067 -0.98134,-1.32267 -0.59733,-0.55466 -1.408,-0.81066 -0.81066,-0.256 -1.74933,-0.256 -1.10933,0 -2.048,0.29866 -0.896,0.29867 -1.62133,0.72534 -0.68267,0.42666 -1.19467,0.85333 -0.512,0.384 -0.768,0.64 l -1.74933,-2.47467 q 0.34133,-0.384 1.024,-0.93866 0.68266,-0.55467 1.62133,-1.024 0.98133,-0.512 2.176,-0.85334 1.19467,-0.34133 2.56,-0.34133 4.13867,0 6.10133,1.92 2.00534,1.87733 2.00534,5.41867 z" />
      </g>
      <g
         id="flowRoot11921"
         style="font-style:normal;font-weight:normal;font-size:42.66666794px;line-height:1.25;font-family:sans-serif;letter-spacing:0px;word-spacing:0px;fill:#000000;fill-opacity:1;stroke:none"
         inkscape:transform-center-y="-167.72297"
         inkscape:transform-center-x="186.27527"
         transform="matrix(-0.19662791,-0.17704455,0.17704455,-0.19662791,-97.997735,-88.482196)"
         aria-label="3">
        <path
           id="path3764"
           style="font-style:normal;font-variant:normal;font-weight:normal;font-stretch:normal;font-size:42.66666794px;line-height:53.33333588px;font-family:'Ubuntu Mono';-inkscape-font-specification:'Ubuntu Mono'"
           d="m 575.71135,255.69581 q 3.37067,0 4.77867,-1.32267 1.45066,-1.36533 1.45066,-3.62666 0,-1.45067 -0.59733,-2.432 -0.59733,-0.98134 -1.57867,-1.57867 -0.98133,-0.59733 -2.26133,-0.85333 -1.28,-0.256 -2.688,-0.256 h -0.896 v -2.85867 h 1.23733 q 0.93867,0 1.92,-0.17067 1.024,-0.21333 1.83467,-0.68266 0.85333,-0.512 1.36533,-1.36534 0.512,-0.85333 0.512,-2.176 0,-2.176 -1.36533,-3.072 -1.32267,-0.93866 -3.11467,-0.93866 -1.83466,0 -3.11466,0.55466 -1.28,0.512 -2.13334,1.06667 l -1.36533,-2.688 q 0.896,-0.64 2.688,-1.32267 1.83467,-0.72533 4.05333,-0.72533 2.09067,0 3.584,0.512 1.49334,0.512 2.432,1.45067 0.98134,0.93866 1.45067,2.21866 0.46933,1.23734 0.46933,2.73067 0,2.09067 -1.10933,3.54133 -1.06667,1.45067 -2.77333,2.21867 2.048,0.59733 3.54133,2.34667 1.49333,1.70666 1.49333,4.56533 0,1.70667 -0.59733,3.2 -0.55467,1.45067 -1.74933,2.51733 -1.152,1.06667 -3.02934,1.664 -1.83466,0.59734 -4.39466,0.59734 -0.98134,0 -2.048,-0.17067 -1.024,-0.128 -1.92,-0.384 -0.896,-0.21333 -1.62134,-0.42667 -0.68266,-0.256 -0.98133,-0.384 l 0.68267,-3.02933 q 0.68266,0.34133 2.176,0.81067 1.49333,0.46933 3.66933,0.46933 z" />
      </g>
      <g
         id="flowRoot11929"
         style="font-style:normal;font-weight:normal;font-size:42.66666794px;line-height:1.25;font-family:sans-serif;letter-spacing:0px;word-spacing:0px;fill:#000000;fill-opacity:1;stroke:none"
         inkscape:transform-center-y="-147.3331"
         inkscape:transform-center-x="202.78666"
         transform="matrix(-0.21405696,-0.15552147,0.15552147,-0.21405696,-99.17334,-76.247245)"
         aria-label="4">
        <path
           id="path3767"
           style="font-style:normal;font-variant:normal;font-weight:normal;font-stretch:normal;font-size:42.66666794px;line-height:53.33333588px;font-family:'Ubuntu Mono';-inkscape-font-specification:'Ubuntu Mono'"
           d="m 568.20202,249.12514 q 0.72533,-1.70666 1.96266,-3.92533 1.28,-2.21867 2.85867,-4.56533 1.57867,-2.38934 3.37067,-4.65067 1.792,-2.304 3.62666,-4.13867 h 3.41334 v 16.768 h 3.11466 v 2.90134 h -3.11466 v 6.74133 h -3.41334 v -6.74133 h -11.81866 z m 11.81866,-13.09866 q -1.152,1.23733 -2.34666,2.73066 -1.152,1.49334 -2.26134,3.15734 -1.10933,1.62133 -2.09066,3.328 -0.93867,1.70666 -1.70667,3.37066 h 8.40533 z" />
      </g>
      <g
         id="flowRoot11937"
         style="font-style:normal;font-weight:normal;font-size:42.66666794px;line-height:1.25;font-family:sans-serif;letter-spacing:0px;word-spacing:0px;fill:#000000;fill-opacity:1;stroke:none"
         inkscape:transform-center-y="-125.32902"
         inkscape:transform-center-x="217.07627"
         transform="matrix(-0.22914075,-0.13229447,0.13229447,-0.22914075,-99.063598,-63.956433)"
         aria-label="5">
        <path
           id="path3770"
           style="font-style:normal;font-variant:normal;font-weight:normal;font-stretch:normal;font-size:42.66666794px;line-height:53.33333588px;font-family:'Ubuntu Mono';-inkscape-font-specification:'Ubuntu Mono'"
           d="m 574.60202,242.04248 q 5.71733,0.21333 8.32,2.51733 2.60266,2.304 2.60266,6.18667 0,1.74933 -0.55466,3.24266 -0.55467,1.49334 -1.74934,2.56 -1.152,1.06667 -2.98666,1.664 -1.792,0.59734 -4.26667,0.59734 -1.024,0 -2.048,-0.17067 -0.98133,-0.128 -1.87733,-0.34133 -0.896,-0.21334 -1.57867,-0.42667 -0.68267,-0.256 -0.98133,-0.42667 l 0.68266,-3.02933 q 0.68267,0.34133 2.09067,0.81067 1.45067,0.46933 3.62667,0.46933 1.70666,0 2.85866,-0.384 1.152,-0.384 1.83467,-1.024 0.72533,-0.68267 1.024,-1.536 0.34133,-0.85333 0.34133,-1.792 0,-1.45067 -0.512,-2.56 -0.46933,-1.152 -1.70666,-1.92 -1.19467,-0.768 -3.328,-1.152 -2.09067,-0.42667 -5.29067,-0.42667 0.256,-1.87733 0.384,-3.49866 0.17067,-1.664 0.256,-3.2 0.128,-1.57867 0.17067,-3.11467 0.0853,-1.536 0.17066,-3.24267 h 12.71467 v 2.98667 h -9.64267 q -0.0427,0.59733 -0.128,1.57867 -0.0427,0.93866 -0.128,2.00533 -0.0853,1.06667 -0.17066,2.048 -0.0853,0.98133 -0.128,1.57867 z" />
      </g>
      <g
         id="flowRoot11945"
         style="font-style:normal;font-weight:normal;font-size:42.66666794px;line-height:1.25;font-family:sans-serif;letter-spacing:0px;word-spacing:0px;fill:#000000;fill-opacity:1;stroke:none"
         inkscape:transform-center-y="-101.9518"
         inkscape:transform-center-x="228.98755"
         transform="matrix(-0.24171403,-0.10761801,0.10761801,-0.24171403,-97.669718,-51.744423)"
         aria-label="6">
        <path
           id="path3773"
           style="font-style:normal;font-variant:normal;font-weight:normal;font-stretch:normal;font-size:42.66666794px;line-height:53.33333588px;font-family:'Ubuntu Mono';-inkscape-font-specification:'Ubuntu Mono'"
           d="m 568.97002,247.67448 q 0,-3.84 1.024,-6.784 1.06666,-2.98667 2.98666,-4.992 1.96267,-2.00534 4.736,-3.072 2.77334,-1.06667 6.272,-1.10934 l 0.29867,2.98667 q -2.26133,0.0427 -4.13867,0.512 -1.83466,0.42667 -3.28533,1.45067 -1.45067,0.98133 -2.432,2.56 -0.98133,1.57866 -1.49333,3.88266 1.024,-0.46933 2.21866,-0.768 1.23734,-0.29866 2.60267,-0.29866 2.21867,0 3.75467,0.68266 1.57866,0.68267 2.51733,1.83467 0.93867,1.10933 1.36533,2.60267 0.42667,1.49333 0.42667,3.072 0,1.45066 -0.46933,2.98666 -0.46934,1.49334 -1.45067,2.77334 -0.98133,1.23733 -2.51733,2.048 -1.536,0.768 -3.66934,0.768 -4.39466,0 -6.57066,-2.944 -2.176,-2.944 -2.176,-8.192 z m 8.40533,-2.73067 q -1.36533,0 -2.51733,0.256 -1.10934,0.256 -2.26134,0.768 -0.0427,0.42667 -0.0427,0.85333 0,0.384 0,0.85334 0,1.664 0.21333,3.15733 0.256,1.45067 0.81067,2.60267 0.59733,1.10933 1.57866,1.792 0.98134,0.64 2.51734,0.64 1.28,0 2.13333,-0.512 0.85333,-0.55467 1.408,-1.36534 0.55467,-0.81066 0.768,-1.792 0.256,-1.024 0.256,-1.92 0,-2.60266 -1.19467,-3.968 -1.152,-1.36533 -3.66933,-1.36533 z" />
      </g>
      <g
         id="flowRoot11953"
         style="font-style:normal;font-weight:normal;font-size:42.66666794px;line-height:1.25;font-family:sans-serif;letter-spacing:0px;word-spacing:0px;fill:#000000;fill-opacity:1;stroke:none"
         inkscape:transform-center-y="-77.457584"
         inkscape:transform-center-x="238.39"
         transform="matrix(-0.25163904,-0.08176247,0.08176247,-0.25163904,-95.006972,-39.745018)"
         aria-label="7">
        <path
           id="path3776"
           style="font-style:normal;font-variant:normal;font-weight:normal;font-stretch:normal;font-size:42.66666794px;line-height:53.33333588px;font-family:'Ubuntu Mono';-inkscape-font-specification:'Ubuntu Mono'"
           d="m 573.27935,258.25581 q 0.21333,-3.02933 1.06667,-6.4 0.896,-3.41333 2.13333,-6.57067 1.23733,-3.2 2.73067,-5.888 1.49333,-2.73066 2.944,-4.48 h -12.8 v -3.072 h 16.72533 v 2.944 q -1.28,1.49334 -2.77333,4.01067 -1.49334,2.51733 -2.85867,5.67467 -1.32267,3.11466 -2.304,6.69866 -0.98133,3.54134 -1.23733,7.08267 z" />
      </g>
      <g
         id="flowRoot11961"
         style="font-style:normal;font-weight:normal;font-size:42.66666794px;line-height:1.25;font-family:sans-serif;letter-spacing:0px;word-spacing:0px;fill:#000000;fill-opacity:1;stroke:none"
         inkscape:transform-center-y="-52.114716"
         inkscape:transform-center-x="245.1806"
         transform="matrix(-0.25880704,-0.05501112,0.05501112,-0.25880704,-91.104538,-28.089669)"
         aria-label="8">
        <path
           id="path3779"
           style="font-style:normal;font-variant:normal;font-weight:normal;font-stretch:normal;font-size:42.66666794px;line-height:53.33333588px;font-family:'Ubuntu Mono';-inkscape-font-specification:'Ubuntu Mono'"
           d="m 585.82335,251.38648 q 0,3.328 -2.13333,5.376 -2.09067,2.048 -6.4,2.048 -2.47467,0 -4.096,-0.64 -1.62134,-0.68267 -2.60267,-1.70667 -0.93867,-1.06667 -1.36533,-2.34667 -0.384,-1.28 -0.384,-2.51733 0,-2.26133 1.23733,-4.01067 1.23733,-1.74933 2.944,-2.816 -3.62667,-2.048 -3.62667,-6.272 0,-1.45066 0.55467,-2.77333 0.55467,-1.32267 1.57867,-2.304 1.024,-0.98133 2.47466,-1.57867 1.49334,-0.59733 3.328,-0.59733 2.13334,0 3.62667,0.64 1.536,0.64 2.47467,1.664 0.93866,0.98133 1.36533,2.21867 0.42667,1.19466 0.42667,2.34666 0,2.26134 -1.152,3.92534 -1.152,1.62133 -2.64534,2.60266 4.39467,2.09067 4.39467,6.74134 z m -13.568,0.256 q 0,0.68266 0.256,1.45066 0.256,0.72534 0.85333,1.36534 0.59734,0.64 1.57867,1.06666 0.98133,0.384 2.38933,0.384 1.32267,0 2.26134,-0.34133 0.98133,-0.384 1.57866,-0.98133 0.64,-0.64 0.93867,-1.408 0.29867,-0.768 0.29867,-1.536 0,-2.432 -1.74934,-3.712 -1.74933,-1.32267 -4.82133,-2.00534 -1.70667,0.93867 -2.64533,2.34667 -0.93867,1.408 -0.93867,3.37067 z m 9.55733,-13.52534 q 0,-0.55466 -0.256,-1.23733 -0.256,-0.72533 -0.81066,-1.28 -0.512,-0.59733 -1.36534,-0.98133 -0.85333,-0.42667 -2.048,-0.42667 -1.23733,0 -2.09066,0.384 -0.81067,0.384 -1.36534,0.98133 -0.55466,0.55467 -0.81066,1.28 -0.21334,0.68267 -0.21334,1.36534 0,1.74933 1.23734,3.28533 1.28,1.49333 4.18133,2.176 1.62133,-0.93867 2.56,-2.21867 0.98133,-1.28 0.98133,-3.328 z" />
      </g>
      <g
         id="flowRoot11969"
         style="font-style:normal;font-weight:normal;font-size:42.66666794px;line-height:1.25;font-family:sans-serif;letter-spacing:0px;word-spacing:0px;fill:#000000;fill-opacity:1;stroke:none"
         inkscape:transform-center-y="-26.200872"
         inkscape:transform-center-x="249.28494"
         transform="matrix(-0.26313949,-0.02765706,0.02765706,-0.26313949,-86.00516,-16.906091)"
         aria-label="9">
        <path
           id="path3782"
           style="font-style:normal;font-variant:normal;font-weight:normal;font-stretch:normal;font-size:42.66666794px;line-height:53.33333588px;font-family:'Ubuntu Mono';-inkscape-font-specification:'Ubuntu Mono'"
           d="m 585.73802,242.42648 q 0,7.89333 -3.84,11.904 -3.84,3.968 -11.56267,4.01066 l -0.128,-2.98666 q 4.77867,0 7.68,-1.87734 2.944,-1.92 3.88267,-6.57066 -1.024,0.46933 -2.26134,0.768 -1.23733,0.256 -2.60266,0.256 -2.26134,0 -3.79734,-0.64 -1.536,-0.68267 -2.47466,-1.792 -0.93867,-1.152 -1.36534,-2.60267 -0.42666,-1.45067 -0.42666,-3.072 0,-1.45067 0.46933,-2.944 0.46933,-1.536 1.45067,-2.77333 0.98133,-1.23734 2.51733,-2.048 1.536,-0.81067 3.66933,-0.81067 4.352,0 6.57067,2.98667 2.21867,2.98666 2.21867,8.192 z m -8.448,2.60266 q 1.36533,0 2.51733,-0.256 1.19467,-0.256 2.304,-0.72533 0.0427,-0.42667 0.0427,-0.81067 0,-0.384 0,-0.81066 0,-1.664 -0.256,-3.15734 -0.21334,-1.49333 -0.81067,-2.60266 -0.55467,-1.10934 -1.57867,-1.74934 -0.98133,-0.68266 -2.51733,-0.68266 -1.28,0 -2.13333,0.55466 -0.85334,0.512 -1.408,1.32267 -0.55467,0.768 -0.81067,1.74933 -0.21333,0.98134 -0.21333,1.87734 0,2.60266 1.152,3.968 1.19466,1.32266 3.712,1.32266 z" />
      </g>
      <g
         id="flowRoot11977"
         style="font-style:normal;font-weight:normal;font-size:42.66666794px;line-height:1.25;font-family:sans-serif;letter-spacing:0px;word-spacing:0px;fill:#000000;fill-opacity:1;stroke:none"
         inkscape:transform-center-y="3.4086482e-05"
         inkscape:transform-center-x="250.65807"
         transform="matrix(-0.26458894,1.6192089e-8,-1.6192089e-8,-0.26458894,-79.764717,-6.3168056)"
         aria-label="0">
        <path
           id="path3785"
           style="font-style:normal;font-variant:normal;font-weight:normal;font-stretch:normal;font-size:42.66666794px;line-height:53.33333588px;font-family:'Ubuntu Mono';-inkscape-font-specification:'Ubuntu Mono'"
           d="m 579.80735,244.55981 q 0,1.10933 -0.68267,1.92 -0.64,0.81067 -1.70666,0.81067 -1.10934,0 -1.792,-0.81067 -0.68267,-0.81067 -0.68267,-1.92 0,-1.10933 0.68267,-1.96267 0.68266,-0.85333 1.792,-0.85333 1.06666,0 1.70666,0.85333 0.68267,0.85334 0.68267,1.96267 z m -11.17867,0.46933 q 0,-6.656 2.26134,-10.19733 2.304,-3.584 6.44266,-3.584 4.18134,0 6.44267,3.584 2.26133,3.54133 2.26133,10.19733 0,6.656 -2.26133,10.24 -2.26133,3.54134 -6.44267,3.54134 -4.13866,0 -6.44266,-3.54134 -2.26134,-3.584 -2.26134,-10.24 z m 13.824,0 q 0,-2.176 -0.256,-4.096 -0.256,-1.96266 -0.85333,-3.41333 -0.59733,-1.45067 -1.57867,-2.304 -0.98133,-0.85333 -2.432,-0.85333 -1.45066,0 -2.432,0.85333 -0.98133,0.85333 -1.57866,2.304 -0.59734,1.45067 -0.85334,3.41333 -0.256,1.92 -0.256,4.096 0,2.176 0.256,4.13867 0.256,1.92 0.85334,3.37067 0.59733,1.45066 1.57866,2.304 0.98134,0.85333 2.432,0.85333 1.45067,0 2.432,-0.85333 0.98134,-0.85334 1.57867,-2.304 0.59733,-1.45067 0.85333,-3.37067 0.256,-1.96267 0.256,-4.13867 z" />
      </g>
      <g
         id="flowRoot11985"
         style="font-style:normal;font-weight:normal;font-size:42.66666794px;line-height:1.25;font-family:sans-serif;letter-spacing:0px;word-spacing:0px;fill:#000000;fill-opacity:1;stroke:none"
         inkscape:transform-center-y="26.200937"
         inkscape:transform-center-x="249.28493"
         transform="matrix(-0.26313948,0.02765709,-0.02765709,-0.26313948,-72.451571,3.5621649)"
         aria-label="1">
        <path
           id="path3788"
           style="font-style:normal;font-variant:normal;font-weight:normal;font-stretch:normal;font-size:42.66666794px;line-height:53.33333588px;font-family:'Ubuntu Mono';-inkscape-font-specification:'Ubuntu Mono'"
           d="m 569.86602,237.30648 q 2.176,-0.85334 4.224,-2.13334 2.048,-1.32266 3.79733,-3.328 h 2.47467 v 23.424 h 4.992 v 2.98667 h -14.208 v -2.98667 h 5.71733 v -18.51733 q -0.46933,0.42667 -1.152,0.896 -0.64,0.42667 -1.45067,0.85333 -0.768,0.42667 -1.62133,0.81067 -0.85333,0.384 -1.664,0.64 z" />
      </g>
      <g
         id="flowRoot11993"
         style="font-style:normal;font-weight:normal;font-size:42.66666794px;line-height:1.25;font-family:sans-serif;letter-spacing:0px;word-spacing:0px;fill:#000000;fill-opacity:1;stroke:none"
         inkscape:transform-center-y="52.114777"
         inkscape:transform-center-x="245.18057"
         transform="matrix(-0.25880702,0.05501114,-0.05501114,-0.25880702,-64.145864,12.622588)"
         aria-label="2">
        <path
           id="path3791"
           style="font-style:normal;font-variant:normal;font-weight:normal;font-stretch:normal;font-size:42.66666794px;line-height:53.33333588px;font-family:'Ubuntu Mono';-inkscape-font-specification:'Ubuntu Mono'"
           d="m 584.58602,238.58648 q 0,1.36533 -0.55467,2.64533 -0.512,1.28 -1.408,2.51733 -0.85333,1.23734 -1.96267,2.432 -1.10933,1.19467 -2.26133,2.34667 -0.64,0.64 -1.49333,1.536 -0.85334,0.896 -1.62134,1.83467 -0.768,0.93866 -1.28,1.83466 -0.512,0.896 -0.512,1.536 h 12.16 v 2.98667 h -16 q -0.0427,-0.21333 -0.0427,-0.42667 0,-0.256 0,-0.46933 0,-1.792 0.59733,-3.328 0.59733,-1.536 1.536,-2.90133 0.93867,-1.36534 2.09067,-2.56 1.19466,-1.23734 2.34666,-2.38934 0.93867,-0.93866 1.792,-1.83466 0.896,-0.896 1.536,-1.792 0.68267,-0.896 1.06667,-1.83467 0.42667,-0.98133 0.42667,-2.00533 0,-1.152 -0.384,-1.96267 -0.34134,-0.81067 -0.98134,-1.32267 -0.59733,-0.55466 -1.408,-0.81066 -0.81066,-0.256 -1.74933,-0.256 -1.10933,0 -2.048,0.29866 -0.896,0.29867 -1.62133,0.72534 -0.68267,0.42666 -1.19467,0.85333 -0.512,0.384 -0.768,0.64 l -1.74933,-2.47467 q 0.34133,-0.384 1.024,-0.93866 0.68266,-0.55467 1.62133,-1.024 0.98133,-0.512 2.176,-0.85334 1.19467,-0.34133 2.56,-0.34133 4.13867,0 6.10133,1.92 2.00534,1.87733 2.00534,5.41867 z" />
      </g>
      <g
         id="flowRoot12001"
         style="font-style:normal;font-weight:normal;font-size:42.66666794px;line-height:1.25;font-family:sans-serif;letter-spacing:0px;word-spacing:0px;fill:#000000;fill-opacity:1;stroke:none"
         inkscape:transform-center-y="77.457633"
         inkscape:transform-center-x="238.38997"
         transform="matrix(-0.25163902,0.08176248,-0.08176248,-0.25163902,-54.938578,20.765191)"
         aria-label="3">
        <path
           id="path3794"
           style="font-style:normal;font-variant:normal;font-weight:normal;font-stretch:normal;font-size:42.66666794px;line-height:53.33333588px;font-family:'Ubuntu Mono';-inkscape-font-specification:'Ubuntu Mono'"
           d="m 575.71135,255.69581 q 3.37067,0 4.77867,-1.32267 1.45066,-1.36533 1.45066,-3.62666 0,-1.45067 -0.59733,-2.432 -0.59733,-0.98134 -1.57867,-1.57867 -0.98133,-0.59733 -2.26133,-0.85333 -1.28,-0.256 -2.688,-0.256 h -0.896 v -2.85867 h 1.23733 q 0.93867,0 1.92,-0.17067 1.024,-0.21333 1.83467,-0.68266 0.85333,-0.512 1.36533,-1.36534 0.512,-0.85333 0.512,-2.176 0,-2.176 -1.36533,-3.072 -1.32267,-0.93866 -3.11467,-0.93866 -1.83466,0 -3.11466,0.55466 -1.28,0.512 -2.13334,1.06667 l -1.36533,-2.688 q 0.896,-0.64 2.688,-1.32267 1.83467,-0.72533 4.05333,-0.72533 2.09067,0 3.584,0.512 1.49334,0.512 2.432,1.45067 0.98134,0.93866 1.45067,2.21866 0.46933,1.23734 0.46933,2.73067 0,2.09067 -1.10933,3.54133 -1.06667,1.45067 -2.77333,2.21867 2.048,0.59733 3.54133,2.34667 1.49333,1.70666 1.49333,4.56533 0,1.70667 -0.59733,3.2 -0.55467,1.45067 -1.74933,2.51733 -1.152,1.06667 -3.02934,1.664 -1.83466,0.59734 -4.39466,0.59734 -0.98134,0 -2.048,-0.17067 -1.024,-0.128 -1.92,-0.384 -0.896,-0.21333 -1.62134,-0.42667 -0.68266,-0.256 -0.98133,-0.384 l 0.68267,-3.02933 q 0.68266,0.34133 2.176,0.81067 1.49333,0.46933 3.66933,0.46933 z" />
      </g>
      <g
         id="flowRoot12009"
         style="font-style:normal;font-weight:normal;font-size:42.66666794px;line-height:1.25;font-family:sans-serif;letter-spacing:0px;word-spacing:0px;fill:#000000;fill-opacity:1;stroke:none"
         inkscape:transform-center-y="101.95185"
         inkscape:transform-center-x="228.98752"
         transform="matrix(-0.24171401,0.10761802,-0.10761802,-0.24171401,-44.930595,27.900763)"
         aria-label="4">
        <path
           id="path3797"
           style="font-style:normal;font-variant:normal;font-weight:normal;font-stretch:normal;font-size:42.66666794px;line-height:53.33333588px;font-family:'Ubuntu Mono';-inkscape-font-specification:'Ubuntu Mono'"
           d="m 568.20202,249.12514 q 0.72533,-1.70666 1.96266,-3.92533 1.28,-2.21867 2.85867,-4.56533 1.57867,-2.38934 3.37067,-4.65067 1.792,-2.304 3.62666,-4.13867 h 3.41334 v 16.768 h 3.11466 v 2.90134 h -3.11466 v 6.74133 h -3.41334 v -6.74133 h -11.81866 z m 11.81866,-13.09866 q -1.152,1.23733 -2.34666,2.73066 -1.152,1.49334 -2.26134,3.15734 -1.10933,1.62133 -2.09066,3.328 -0.93867,1.70666 -1.70667,3.37066 h 8.40533 z" />
      </g>
      <g
         id="flowRoot12017"
         style="font-style:normal;font-weight:normal;font-size:42.66666794px;line-height:1.25;font-family:sans-serif;letter-spacing:0px;word-spacing:0px;fill:#000000;fill-opacity:1;stroke:none"
         inkscape:transform-center-y="125.32907"
         inkscape:transform-center-x="217.07624"
         transform="matrix(-0.22914073,0.13229448,-0.13229448,-0.22914073,-34.231577,33.951132)"
         aria-label="5">
        <path
           id="path3800"
           style="font-style:normal;font-variant:normal;font-weight:normal;font-stretch:normal;font-size:42.66666794px;line-height:53.33333588px;font-family:'Ubuntu Mono';-inkscape-font-specification:'Ubuntu Mono'"
           d="m 574.60202,242.04248 q 5.71733,0.21333 8.32,2.51733 2.60266,2.304 2.60266,6.18667 0,1.74933 -0.55466,3.24266 -0.55467,1.49334 -1.74934,2.56 -1.152,1.06667 -2.98666,1.664 -1.792,0.59734 -4.26667,0.59734 -1.024,0 -2.048,-0.17067 -0.98133,-0.128 -1.87733,-0.34133 -0.896,-0.21334 -1.57867,-0.42667 -0.68267,-0.256 -0.98133,-0.42667 l 0.68266,-3.02933 q 0.68267,0.34133 2.09067,0.81067 1.45067,0.46933 3.62667,0.46933 1.70666,0 2.85866,-0.384 1.152,-0.384 1.83467,-1.024 0.72533,-0.68267 1.024,-1.536 0.34133,-0.85333 0.34133,-1.792 0,-1.45067 -0.512,-2.56 -0.46933,-1.152 -1.70666,-1.92 -1.19467,-0.768 -3.328,-1.152 -2.09067,-0.42667 -5.29067,-0.42667 0.256,-1.87733 0.384,-3.49866 0.17067,-1.664 0.256,-3.2 0.128,-1.57867 0.17067,-3.11467 0.0853,-1.536 0.17066,-3.24267 h 12.71467 v 2.98667 h -9.64267 q -0.0427,0.59733 -0.128,1.57867 -0.0427,0.93866 -0.128,2.00533 -0.0853,1.06667 -0.17066,2.048 -0.0853,0.98133 -0.128,1.57867 z" />
      </g>
      <g
         id="flowRoot12025"
         style="font-style:normal;font-weight:normal;font-size:42.66666794px;line-height:1.25;font-family:sans-serif;letter-spacing:0px;word-spacing:0px;fill:#000000;fill-opacity:1;stroke:none"
         inkscape:transform-center-y="147.33315"
         inkscape:transform-center-x="202.78662"
         transform="matrix(-0.21405694,0.15552148,-0.15552148,-0.21405694,-22.958727,38.850006)"
         aria-label="6">
        <path
           id="path3803"
           style="font-style:normal;font-variant:normal;font-weight:normal;font-stretch:normal;font-size:42.66666794px;line-height:53.33333588px;font-family:'Ubuntu Mono';-inkscape-font-specification:'Ubuntu Mono'"
           d="m 568.97002,247.67448 q 0,-3.84 1.024,-6.784 1.06666,-2.98667 2.98666,-4.992 1.96267,-2.00534 4.736,-3.072 2.77334,-1.06667 6.272,-1.10934 l 0.29867,2.98667 q -2.26133,0.0427 -4.13867,0.512 -1.83466,0.42667 -3.28533,1.45067 -1.45067,0.98133 -2.432,2.56 -0.98133,1.57866 -1.49333,3.88266 1.024,-0.46933 2.21866,-0.768 1.23734,-0.29866 2.60267,-0.29866 2.21867,0 3.75467,0.68266 1.57866,0.68267 2.51733,1.83467 0.93867,1.10933 1.36533,2.60267 0.42667,1.49333 0.42667,3.072 0,1.45066 -0.46933,2.98666 -0.46934,1.49334 -1.45067,2.77334 -0.98133,1.23733 -2.51733,2.048 -1.536,0.768 -3.66934,0.768 -4.39466,0 -6.57066,-2.944 -2.176,-2.944 -2.176,-8.192 z m 8.40533,-2.73067 q -1.36533,0 -2.51733,0.256 -1.10934,0.256 -2.26134,0.768 -0.0427,0.42667 -0.0427,0.85333 0,0.384 0,0.85334 0,1.664 0.21333,3.15733 0.256,1.45067 0.81067,2.60267 0.59733,1.10933 1.57866,1.792 0.98134,0.64 2.51734,0.64 1.28,0 2.13333,-0.512 0.85333,-0.55467 1.408,-1.36534 0.55467,-0.81066 0.768,-1.792 0.256,-1.024 0.256,-1.92 0,-2.60266 -1.19467,-3.968 -1.152,-1.36533 -3.66933,-1.36533 z" />
      </g>
      <g
         id="flowRoot12033"
         style="font-style:normal;font-weight:normal;font-size:42.66666794px;line-height:1.25;font-family:sans-serif;letter-spacing:0px;word-spacing:0px;fill:#000000;fill-opacity:1;stroke:none"
         inkscape:transform-center-y="167.72302"
         inkscape:transform-center-x="186.27522"
         transform="matrix(-0.19662789,0.17704456,-0.17704456,-0.19662789,-11.235557,42.543705)"
         aria-label="7">
        <path
           id="path3806"
           style="font-style:normal;font-variant:normal;font-weight:normal;font-stretch:normal;font-size:42.66666794px;line-height:53.33333588px;font-family:'Ubuntu Mono';-inkscape-font-specification:'Ubuntu Mono'"
           d="m 573.27935,258.25581 q 0.21333,-3.02933 1.06667,-6.4 0.896,-3.41333 2.13333,-6.57067 1.23733,-3.2 2.73067,-5.888 1.49333,-2.73066 2.944,-4.48 h -12.8 v -3.072 h 16.72533 v 2.944 q -1.28,1.49334 -2.77333,4.01067 -1.49334,2.51733 -2.85867,5.67467 -1.32267,3.11466 -2.304,6.69866 -0.98133,3.54134 -1.23733,7.08267 z" />
      </g>
      <g
         id="flowRoot12041"
         style="font-style:normal;font-weight:normal;font-size:42.66666794px;line-height:1.25;font-family:sans-serif;letter-spacing:0px;word-spacing:0px;fill:#000000;fill-opacity:1;stroke:none"
         inkscape:transform-center-y="186.27528"
         inkscape:transform-center-x="167.72295"
         transform="matrix(-0.17704454,0.19662791,-0.19662791,-0.17704454,0.80948933,44.991767)"
         aria-label="8">
        <path
           id="path3809"
           style="font-style:normal;font-variant:normal;font-weight:normal;font-stretch:normal;font-size:42.66666794px;line-height:53.33333588px;font-family:'Ubuntu Mono';-inkscape-font-specification:'Ubuntu Mono'"
           d="m 585.82335,251.38648 q 0,3.328 -2.13333,5.376 -2.09067,2.048 -6.4,2.048 -2.47467,0 -4.096,-0.64 -1.62134,-0.68267 -2.60267,-1.70667 -0.93867,-1.06667 -1.36533,-2.34667 -0.384,-1.28 -0.384,-2.51733 0,-2.26133 1.23733,-4.01067 1.23733,-1.74933 2.944,-2.816 -3.62667,-2.048 -3.62667,-6.272 0,-1.45066 0.55467,-2.77333 0.55467,-1.32267 1.57867,-2.304 1.024,-0.98133 2.47466,-1.57867 1.49334,-0.59733 3.328,-0.59733 2.13334,0 3.62667,0.64 1.536,0.64 2.47467,1.664 0.93866,0.98133 1.36533,2.21867 0.42667,1.19466 0.42667,2.34666 0,2.26134 -1.152,3.92534 -1.152,1.62133 -2.64534,2.60266 4.39467,2.09067 4.39467,6.74134 z m -13.568,0.256 q 0,0.68266 0.256,1.45066 0.256,0.72534 0.85333,1.36534 0.59734,0.64 1.57867,1.06666 0.98133,0.384 2.38933,0.384 1.32267,0 2.26134,-0.34133 0.98133,-0.384 1.57866,-0.98133 0.64,-0.64 0.93867,-1.408 0.29867,-0.768 0.29867,-1.536 0,-2.432 -1.74934,-3.712 -1.74933,-1.32267 -4.82133,-2.00534 -1.70667,0.93867 -2.64533,2.34667 -0.93867,1.408 -0.93867,3.37067 z m 9.55733,-13.52534 q 0,-0.55466 -0.256,-1.23733 -0.256,-0.72533 -0.81066,-1.28 -0.512,-0.59733 -1.36534,-0.98133 -0.85333,-0.42667 -2.048,-0.42667 -1.23733,0 -2.09066,0.384 -0.81067,0.384 -1.36534,0.98133 -0.55466,0.55467 -0.81066,1.28 -0.21334,0.68267 -0.21334,1.36534 0,1.74933 1.23734,3.28533 1.28,1.49333 4.18133,2.176 1.62133,-0.93867 2.56,-2.21867 0.98133,-1.28 0.98133,-3.328 z" />
      </g>
      <g
         id="flowRoot12049"
         style="font-style:normal;font-weight:normal;font-size:42.66666794px;line-height:1.25;font-family:sans-serif;letter-spacing:0px;word-spacing:0px;fill:#000000;fill-opacity:1;stroke:none"
         inkscape:transform-center-y="202.78666"
         inkscape:transform-center-x="147.33308"
         transform="matrix(-0.15552146,0.21405695,-0.21405695,-0.15552146,13.04444,46.167362)"
         aria-label="9">
        <path
           id="path3812"
           style="font-style:normal;font-variant:normal;font-weight:normal;font-stretch:normal;font-size:42.66666794px;line-height:53.33333588px;font-family:'Ubuntu Mono';-inkscape-font-specification:'Ubuntu Mono'"
           d="m 585.73802,242.42648 q 0,7.89333 -3.84,11.904 -3.84,3.968 -11.56267,4.01066 l -0.128,-2.98666 q 4.77867,0 7.68,-1.87734 2.944,-1.92 3.88267,-6.57066 -1.024,0.46933 -2.26134,0.768 -1.23733,0.256 -2.60266,0.256 -2.26134,0 -3.79734,-0.64 -1.536,-0.68267 -2.47466,-1.792 -0.93867,-1.152 -1.36534,-2.60267 -0.42666,-1.45067 -0.42666,-3.072 0,-1.45067 0.46933,-2.944 0.46933,-1.536 1.45067,-2.77333 0.98133,-1.23734 2.51733,-2.048 1.536,-0.81067 3.66933,-0.81067 4.352,0 6.57067,2.98667 2.21867,2.98666 2.21867,8.192 z m -8.448,2.60266 q 1.36533,0 2.51733,-0.256 1.19467,-0.256 2.304,-0.72533 0.0427,-0.42667 0.0427,-0.81067 0,-0.384 0,-0.81066 0,-1.664 -0.256,-3.15734 -0.21334,-1.49333 -0.81067,-2.60266 -0.55467,-1.10934 -1.57867,-1.74934 -0.98133,-0.68266 -2.51733,-0.68266 -1.28,0 -2.13333,0.55466 -0.85334,0.512 -1.408,1.32267 -0.55467,0.768 -0.81067,1.74933 -0.21333,0.98134 -0.21333,1.87734 0,2.60266 1.152,3.968 1.19466,1.32266 3.712,1.32266 z" />
      </g>
      <g
         id="flowRoot12057"
         style="font-style:normal;font-weight:normal;font-size:42.66666794px;line-height:1.25;font-family:sans-serif;letter-spacing:0px;word-spacing:0px;fill:#000000;fill-opacity:1;stroke:none"
         inkscape:transform-center-y="217.07627"
         inkscape:transform-center-x="125.329"
         transform="matrix(-0.13229446,0.22914074,-0.22914074,-0.13229446,25.335252,46.05762)"
         aria-label="0">
        <path
           id="path3815"
           style="font-style:normal;font-variant:normal;font-weight:normal;font-stretch:normal;font-size:42.66666794px;line-height:53.33333588px;font-family:'Ubuntu Mono';-inkscape-font-specification:'Ubuntu Mono'"
           d="m 579.80735,244.55981 q 0,1.10933 -0.68267,1.92 -0.64,0.81067 -1.70666,0.81067 -1.10934,0 -1.792,-0.81067 -0.68267,-0.81067 -0.68267,-1.92 0,-1.10933 0.68267,-1.96267 0.68266,-0.85333 1.792,-0.85333 1.06666,0 1.70666,0.85333 0.68267,0.85334 0.68267,1.96267 z m -11.17867,0.46933 q 0,-6.656 2.26134,-10.19733 2.304,-3.584 6.44266,-3.584 4.18134,0 6.44267,3.584 2.26133,3.54133 2.26133,10.19733 0,6.656 -2.26133,10.24 -2.26133,3.54134 -6.44267,3.54134 -4.13866,0 -6.44266,-3.54134 -2.26134,-3.584 -2.26134,-10.24 z m 13.824,0 q 0,-2.176 -0.256,-4.096 -0.256,-1.96266 -0.85333,-3.41333 -0.59733,-1.45067 -1.57867,-2.304 -0.98133,-0.85333 -2.432,-0.85333 -1.45066,0 -2.432,0.85333 -0.98133,0.85333 -1.57866,2.304 -0.59734,1.45067 -0.85334,3.41333 -0.256,1.92 -0.256,4.096 0,2.176 0.256,4.13867 0.256,1.92 0.85334,3.37067 0.59733,1.45066 1.57866,2.304 0.98134,0.85333 2.432,0.85333 1.45067,0 2.432,-0.85333 0.98134,-0.85334 1.57867,-2.304 0.59733,-1.45067 0.85333,-3.37067 0.256,-1.96267 0.256,-4.13867 z" />
      </g>
      <g
         id="flowRoot12065"
         style="font-style:normal;font-weight:normal;font-size:42.66666794px;line-height:1.25;font-family:sans-serif;letter-spacing:0px;word-spacing:0px;fill:#000000;fill-opacity:1;stroke:none"
         inkscape:transform-center-y="228.98755"
         inkscape:transform-center-x="101.95178"
         transform="matrix(-0.107618,0.24171402,-0.24171402,-0.107618,37.547262,44.66374)"
         aria-label="1">
        <path
           id="path3818"
           style="font-style:normal;font-variant:normal;font-weight:normal;font-stretch:normal;font-size:42.66666794px;line-height:53.33333588px;font-family:'Ubuntu Mono';-inkscape-font-specification:'Ubuntu Mono'"
           d="m 569.86602,237.30648 q 2.176,-0.85334 4.224,-2.13334 2.048,-1.32266 3.79733,-3.328 h 2.47467 v 23.424 h 4.992 v 2.98667 h -14.208 v -2.98667 h 5.71733 v -18.51733 q -0.46933,0.42667 -1.152,0.896 -0.64,0.42667 -1.45067,0.85333 -0.768,0.42667 -1.62133,0.81067 -0.85333,0.384 -1.664,0.64 z" />
      </g>
      <g
         id="flowRoot12073"
         style="font-style:normal;font-weight:normal;font-size:42.66666794px;line-height:1.25;font-family:sans-serif;letter-spacing:0px;word-spacing:0px;fill:#000000;fill-opacity:1;stroke:none"
         inkscape:transform-center-y="238.39"
         inkscape:transform-center-x="77.457564"
         transform="matrix(-0.08176246,0.25163903,-0.25163903,-0.08176246,49.546667,42.000994)"
         aria-label="2">
        <path
           id="path3821"
           style="font-style:normal;font-variant:normal;font-weight:normal;font-stretch:normal;font-size:42.66666794px;line-height:53.33333588px;font-family:'Ubuntu Mono';-inkscape-font-specification:'Ubuntu Mono'"
           d="m 584.58602,238.58648 q 0,1.36533 -0.55467,2.64533 -0.512,1.28 -1.408,2.51733 -0.85333,1.23734 -1.96267,2.432 -1.10933,1.19467 -2.26133,2.34667 -0.64,0.64 -1.49333,1.536 -0.85334,0.896 -1.62134,1.83467 -0.768,0.93866 -1.28,1.83466 -0.512,0.896 -0.512,1.536 h 12.16 v 2.98667 h -16 q -0.0427,-0.21333 -0.0427,-0.42667 0,-0.256 0,-0.46933 0,-1.792 0.59733,-3.328 0.59733,-1.536 1.536,-2.90133 0.93867,-1.36534 2.09067,-2.56 1.19466,-1.23734 2.34666,-2.38934 0.93867,-0.93866 1.792,-1.83466 0.896,-0.896 1.536,-1.792 0.68267,-0.896 1.06667,-1.83467 0.42667,-0.98133 0.42667,-2.00533 0,-1.152 -0.384,-1.96267 -0.34134,-0.81067 -0.98134,-1.32267 -0.59733,-0.55466 -1.408,-0.81066 -0.81066,-0.256 -1.74933,-0.256 -1.10933,0 -2.048,0.29866 -0.896,0.29867 -1.62133,0.72534 -0.68267,0.42666 -1.19467,0.85333 -0.512,0.384 -0.768,0.64 l -1.74933,-2.47467 q 0.34133,-0.384 1.024,-0.93866 0.68266,-0.55467 1.62133,-1.024 0.98133,-0.512 2.176,-0.85334 1.19467,-0.34133 2.56,-0.34133 4.13867,0 6.10133,1.92 2.00534,1.87733 2.00534,5.41867 z" />
      </g>
      <g
         id="flowRoot12081"
         style="font-style:normal;font-weight:normal;font-size:42.66666794px;line-height:1.25;font-family:sans-serif;letter-spacing:0px;word-spacing:0px;fill:#000000;fill-opacity:1;stroke:none"
         inkscape:transform-center-y="245.18059"
         inkscape:transform-center-x="52.114702"
         transform="matrix(-0.05501112,0.25880703,-0.25880703,-0.05501112,61.202016,38.09855)"
         aria-label="3">
        <path
           id="path3824"
           style="font-style:normal;font-variant:normal;font-weight:normal;font-stretch:normal;font-size:42.66666794px;line-height:53.33333588px;font-family:'Ubuntu Mono';-inkscape-font-specification:'Ubuntu Mono'"
           d="m 575.71135,255.69581 q 3.37067,0 4.77867,-1.32267 1.45066,-1.36533 1.45066,-3.62666 0,-1.45067 -0.59733,-2.432 -0.59733,-0.98134 -1.57867,-1.57867 -0.98133,-0.59733 -2.26133,-0.85333 -1.28,-0.256 -2.688,-0.256 h -0.896 v -2.85867 h 1.23733 q 0.93867,0 1.92,-0.17067 1.024,-0.21333 1.83467,-0.68266 0.85333,-0.512 1.36533,-1.36534 0.512,-0.85333 0.512,-2.176 0,-2.176 -1.36533,-3.072 -1.32267,-0.93866 -3.11467,-0.93866 -1.83466,0 -3.11466,0.55466 -1.28,0.512 -2.13334,1.06667 l -1.36533,-2.688 q 0.896,-0.64 2.688,-1.32267 1.83467,-0.72533 4.05333,-0.72533 2.09067,0 3.584,0.512 1.49334,0.512 2.432,1.45067 0.98134,0.93866 1.45067,2.21866 0.46933,1.23734 0.46933,2.73067 0,2.09067 -1.10933,3.54133 -1.06667,1.45067 -2.77333,2.21867 2.048,0.59733 3.54133,2.34667 1.49333,1.70666 1.49333,4.56533 0,1.70667 -0.59733,3.2 -0.55467,1.45067 -1.74933,2.51733 -1.152,1.06667 -3.02934,1.664 -1.83466,0.59734 -4.39466,0.59734 -0.98134,0 -2.048,-0.17067 -1.024,-0.128 -1.92,-0.384 -0.896,-0.21333 -1.62134,-0.42667 -0.68266,-0.256 -0.98133,-0.384 l 0.68267,-3.02933 q 0.68266,0.34133 2.176,0.81067 1.49333,0.46933 3.66933,0.46933 z" />
      </g>
      <g
         id="flowRoot12089"
         style="font-style:normal;font-weight:normal;font-size:42.66666794px;line-height:1.25;font-family:sans-serif;letter-spacing:0px;word-spacing:0px;fill:#000000;fill-opacity:1;stroke:none"
         inkscape:transform-center-y="249.28493"
         inkscape:transform-center-x="26.200858"
         transform="matrix(-0.02765706,0.26313948,-0.26313948,-0.02765706,72.385594,32.999172)"
         aria-label="4">
        <path
           id="path3827"
           style="font-style:normal;font-variant:normal;font-weight:normal;font-stretch:normal;font-size:42.66666794px;line-height:53.33333588px;font-family:'Ubuntu Mono';-inkscape-font-specification:'Ubuntu Mono'"
           d="m 568.20202,249.12514 q 0.72533,-1.70666 1.96266,-3.92533 1.28,-2.21867 2.85867,-4.56533 1.57867,-2.38934 3.37067,-4.65067 1.792,-2.304 3.62666,-4.13867 h 3.41334 v 16.768 h 3.11466 v 2.90134 h -3.11466 v 6.74133 h -3.41334 v -6.74133 h -11.81866 z m 11.81866,-13.09866 q -1.152,1.23733 -2.34666,2.73066 -1.152,1.49334 -2.26134,3.15734 -1.10933,1.62133 -2.09066,3.328 -0.93867,1.70666 -1.70667,3.37066 h 8.40533 z" />
      </g>
      <g
         id="flowRoot12097"
         style="font-style:normal;font-weight:normal;font-size:42.66666794px;line-height:1.25;font-family:sans-serif;letter-spacing:0px;word-spacing:0px;fill:#000000;fill-opacity:1;stroke:none"
         inkscape:transform-center-y="250.65806"
         inkscape:transform-center-x="-4.7483005e-05"
         transform="matrix(1.5146782e-8,0.26458893,-0.26458893,1.5146782e-8,82.974879,26.758729)"
         aria-label="5">
        <path
           id="path3830"
           style="font-style:normal;font-variant:normal;font-weight:normal;font-stretch:normal;font-size:42.66666794px;line-height:53.33333588px;font-family:'Ubuntu Mono';-inkscape-font-specification:'Ubuntu Mono'"
           d="m 574.60202,242.04248 q 5.71733,0.21333 8.32,2.51733 2.60266,2.304 2.60266,6.18667 0,1.74933 -0.55466,3.24266 -0.55467,1.49334 -1.74934,2.56 -1.152,1.06667 -2.98666,1.664 -1.792,0.59734 -4.26667,0.59734 -1.024,0 -2.048,-0.17067 -0.98133,-0.128 -1.87733,-0.34133 -0.896,-0.21334 -1.57867,-0.42667 -0.68267,-0.256 -0.98133,-0.42667 l 0.68266,-3.02933 q 0.68267,0.34133 2.09067,0.81067 1.45067,0.46933 3.62667,0.46933 1.70666,0 2.85866,-0.384 1.152,-0.384 1.83467,-1.024 0.72533,-0.68267 1.024,-1.536 0.34133,-0.85333 0.34133,-1.792 0,-1.45067 -0.512,-2.56 -0.46933,-1.152 -1.70666,-1.92 -1.19467,-0.768 -3.328,-1.152 -2.09067,-0.42667 -5.29067,-0.42667 0.256,-1.87733 0.384,-3.49866 0.17067,-1.664 0.256,-3.2 0.128,-1.57867 0.17067,-3.11467 0.0853,-1.536 0.17066,-3.24267 h 12.71467 v 2.98667 h -9.64267 q -0.0427,0.59733 -0.128,1.57867 -0.0427,0.93866 -0.128,2.00533 -0.0853,1.06667 -0.17066,2.048 -0.0853,0.98133 -0.128,1.57867 z" />
      </g>
      <g
         id="flowRoot12105"
         style="font-style:normal;font-weight:normal;font-size:42.66666794px;line-height:1.25;font-family:sans-serif;letter-spacing:0px;word-spacing:0px;fill:#000000;fill-opacity:1;stroke:none"
         inkscape:transform-center-y="249.28492"
         inkscape:transform-center-x="-26.200951"
         transform="matrix(0.02765709,0.26313947,-0.26313947,0.02765709,92.85385,19.445583)"
         aria-label="6">
        <path
           id="path3833"
           style="font-style:normal;font-variant:normal;font-weight:normal;font-stretch:normal;font-size:42.66666794px;line-height:53.33333588px;font-family:'Ubuntu Mono';-inkscape-font-specification:'Ubuntu Mono'"
           d="m 568.97002,247.67448 q 0,-3.84 1.024,-6.784 1.06666,-2.98667 2.98666,-4.992 1.96267,-2.00534 4.736,-3.072 2.77334,-1.06667 6.272,-1.10934 l 0.29867,2.98667 q -2.26133,0.0427 -4.13867,0.512 -1.83466,0.42667 -3.28533,1.45067 -1.45067,0.98133 -2.432,2.56 -0.98133,1.57866 -1.49333,3.88266 1.024,-0.46933 2.21866,-0.768 1.23734,-0.29866 2.60267,-0.29866 2.21867,0 3.75467,0.68266 1.57866,0.68267 2.51733,1.83467 0.93867,1.10933 1.36533,2.60267 0.42667,1.49333 0.42667,3.072 0,1.45066 -0.46933,2.98666 -0.46934,1.49334 -1.45067,2.77334 -0.98133,1.23733 -2.51733,2.048 -1.536,0.768 -3.66934,0.768 -4.39466,0 -6.57066,-2.944 -2.176,-2.944 -2.176,-8.192 z m 8.40533,-2.73067 q -1.36533,0 -2.51733,0.256 -1.10934,0.256 -2.26134,0.768 -0.0427,0.42667 -0.0427,0.85333 0,0.384 0,0.85334 0,1.664 0.21333,3.15733 0.256,1.45067 0.81067,2.60267 0.59733,1.10933 1.57866,1.792 0.98134,0.64 2.51734,0.64 1.28,0 2.13333,-0.512 0.85333,-0.55467 1.408,-1.36534 0.55467,-0.81066 0.768,-1.792 0.256,-1.024 0.256,-1.92 0,-2.60266 -1.19467,-3.968 -1.152,-1.36533 -3.66933,-1.36533 z" />
      </g>
      <g
         id="flowRoot12113"
         style="font-style:normal;font-weight:normal;font-size:42.66666794px;line-height:1.25;font-family:sans-serif;letter-spacing:0px;word-spacing:0px;fill:#000000;fill-opacity:1;stroke:none"
         inkscape:transform-center-y="245.18056"
         inkscape:transform-center-x="-52.114791"
         transform="matrix(0.05501114,0.25880701,-0.25880701,0.05501114,101.91427,11.139866)"
         aria-label="7">
        <path
           id="path3836"
           style="font-style:normal;font-variant:normal;font-weight:normal;font-stretch:normal;font-size:42.66666794px;line-height:53.33333588px;font-family:'Ubuntu Mono';-inkscape-font-specification:'Ubuntu Mono'"
           d="m 573.27935,258.25581 q 0.21333,-3.02933 1.06667,-6.4 0.896,-3.41333 2.13333,-6.57067 1.23733,-3.2 2.73067,-5.888 1.49333,-2.73066 2.944,-4.48 h -12.8 v -3.072 h 16.72533 v 2.944 q -1.28,1.49334 -2.77333,4.01067 -1.49334,2.51733 -2.85867,5.67467 -1.32267,3.11466 -2.304,6.69866 -0.98133,3.54134 -1.23733,7.08267 z" />
      </g>
      <g
         id="flowRoot12121"
         style="font-style:normal;font-weight:normal;font-size:42.66666794px;line-height:1.25;font-family:sans-serif;letter-spacing:0px;word-spacing:0px;fill:#000000;fill-opacity:1;stroke:none"
         inkscape:transform-center-y="238.38995"
         inkscape:transform-center-x="-77.457647"
         transform="matrix(0.08176248,0.25163901,-0.25163901,0.08176248,110.05688,1.9325802)"
         aria-label="8">
        <path
           id="path3839"
           style="font-style:normal;font-variant:normal;font-weight:normal;font-stretch:normal;font-size:42.66666794px;line-height:53.33333588px;font-family:'Ubuntu Mono';-inkscape-font-specification:'Ubuntu Mono'"
           d="m 585.82335,251.38648 q 0,3.328 -2.13333,5.376 -2.09067,2.048 -6.4,2.048 -2.47467,0 -4.096,-0.64 -1.62134,-0.68267 -2.60267,-1.70667 -0.93867,-1.06667 -1.36533,-2.34667 -0.384,-1.28 -0.384,-2.51733 0,-2.26133 1.23733,-4.01067 1.23733,-1.74933 2.944,-2.816 -3.62667,-2.048 -3.62667,-6.272 0,-1.45066 0.55467,-2.77333 0.55467,-1.32267 1.57867,-2.304 1.024,-0.98133 2.47466,-1.57867 1.49334,-0.59733 3.328,-0.59733 2.13334,0 3.62667,0.64 1.536,0.64 2.47467,1.664 0.93866,0.98133 1.36533,2.21867 0.42667,1.19466 0.42667,2.34666 0,2.26134 -1.152,3.92534 -1.152,1.62133 -2.64534,2.60266 4.39467,2.09067 4.39467,6.74134 z m -13.568,0.256 q 0,0.68266 0.256,1.45066 0.256,0.72534 0.85333,1.36534 0.59734,0.64 1.57867,1.06666 0.98133,0.384 2.38933,0.384 1.32267,0 2.26134,-0.34133 0.98133,-0.384 1.57866,-0.98133 0.64,-0.64 0.93867,-1.408 0.29867,-0.768 0.29867,-1.536 0,-2.432 -1.74934,-3.712 -1.74933,-1.32267 -4.82133,-2.00534 -1.70667,0.93867 -2.64533,2.34667 -0.93867,1.408 -0.93867,3.37067 z m 9.55733,-13.52534 q 0,-0.55466 -0.256,-1.23733 -0.256,-0.72533 -0.81066,-1.28 -0.512,-0.59733 -1.36534,-0.98133 -0.85333,-0.42667 -2.048,-0.42667 -1.23733,0 -2.09066,0.384 -0.81067,0.384 -1.36534,0.98133 -0.55466,0.55467 -0.81066,1.28 -0.21334,0.68267 -0.21334,1.36534 0,1.74933 1.23734,3.28533 1.28,1.49333 4.18133,2.176 1.62133,-0.93867 2.56,-2.21867 0.98133,-1.28 0.98133,-3.328 z" />
      </g>
      <g
         id="flowRoot12129"
         style="font-style:normal;font-weight:normal;font-size:42.66666794px;line-height:1.25;font-family:sans-serif;letter-spacing:0px;word-spacing:0px;fill:#000000;fill-opacity:1;stroke:none"
         inkscape:transform-center-y="228.98749"
         inkscape:transform-center-x="-101.95186"
         transform="matrix(0.10761801,0.241714,-0.241714,0.10761801,117.19245,-8.075403)"
         aria-label="9">
        <path
           id="path3842"
           style="font-style:normal;font-variant:normal;font-weight:normal;font-stretch:normal;font-size:42.66666794px;line-height:53.33333588px;font-family:'Ubuntu Mono';-inkscape-font-specification:'Ubuntu Mono'"
           d="m 585.73802,242.42648 q 0,7.89333 -3.84,11.904 -3.84,3.968 -11.56267,4.01066 l -0.128,-2.98666 q 4.77867,0 7.68,-1.87734 2.944,-1.92 3.88267,-6.57066 -1.024,0.46933 -2.26134,0.768 -1.23733,0.256 -2.60266,0.256 -2.26134,0 -3.79734,-0.64 -1.536,-0.68267 -2.47466,-1.792 -0.93867,-1.152 -1.36534,-2.60267 -0.42666,-1.45067 -0.42666,-3.072 0,-1.45067 0.46933,-2.944 0.46933,-1.536 1.45067,-2.77333 0.98133,-1.23734 2.51733,-2.048 1.536,-0.81067 3.66933,-0.81067 4.352,0 6.57067,2.98667 2.21867,2.98666 2.21867,8.192 z m -8.448,2.60266 q 1.36533,0 2.51733,-0.256 1.19467,-0.256 2.304,-0.72533 0.0427,-0.42667 0.0427,-0.81067 0,-0.384 0,-0.81066 0,-1.664 -0.256,-3.15734 -0.21334,-1.49333 -0.81067,-2.60266 -0.55467,-1.10934 -1.57867,-1.74934 -0.98133,-0.68266 -2.51733,-0.68266 -1.28,0 -2.13333,0.55466 -0.85334,0.512 -1.408,1.32267 -0.55467,0.768 -0.81067,1.74933 -0.21333,0.98134 -0.21333,1.87734 0,2.60266 1.152,3.968 1.19466,1.32266 3.712,1.32266 z" />
      </g>
      <g
         id="flowRoot12137"
         style="font-style:normal;font-weight:normal;font-size:42.66666794px;line-height:1.25;font-family:sans-serif;letter-spacing:0px;word-spacing:0px;fill:#000000;fill-opacity:1;stroke:none"
         inkscape:transform-center-y="217.0762"
         inkscape:transform-center-x="-125.32907"
         transform="matrix(0.13229446,0.22914072,-0.22914072,0.13229446,123.24282,-18.774431)"
         aria-label="0">
        <path
           id="path3845"
           style="font-style:normal;font-variant:normal;font-weight:normal;font-stretch:normal;font-size:42.66666794px;line-height:53.33333588px;font-family:'Ubuntu Mono';-inkscape-font-specification:'Ubuntu Mono'"
           d="m 579.80735,244.55981 q 0,1.10933 -0.68267,1.92 -0.64,0.81067 -1.70666,0.81067 -1.10934,0 -1.792,-0.81067 -0.68267,-0.81067 -0.68267,-1.92 0,-1.10933 0.68267,-1.96267 0.68266,-0.85333 1.792,-0.85333 1.06666,0 1.70666,0.85333 0.68267,0.85334 0.68267,1.96267 z m -11.17867,0.46933 q 0,-6.656 2.26134,-10.19733 2.304,-3.584 6.44266,-3.584 4.18134,0 6.44267,3.584 2.26133,3.54133 2.26133,10.19733 0,6.656 -2.26133,10.24 -2.26133,3.54134 -6.44267,3.54134 -4.13866,0 -6.44266,-3.54134 -2.26134,-3.584 -2.26134,-10.24 z m 13.824,0 q 0,-2.176 -0.256,-4.096 -0.256,-1.96266 -0.85333,-3.41333 -0.59733,-1.45067 -1.57867,-2.304 -0.98133,-0.85333 -2.432,-0.85333 -1.45066,0 -2.432,0.85333 -0.98133,0.85333 -1.57866,2.304 -0.59734,1.45067 -0.85334,3.41333 -0.256,1.92 -0.256,4.096 0,2.176 0.256,4.13867 0.256,1.92 0.85334,3.37067 0.59733,1.45066 1.57866,2.304 0.98134,0.85333 2.432,0.85333 1.45067,0 2.432,-0.85333 0.98134,-0.85334 1.57867,-2.304 0.59733,-1.45067 0.85333,-3.37067 0.256,-1.96267 0.256,-4.13867 z" />
      </g>
      <g
         id="flowRoot12145"
         style="font-style:normal;font-weight:normal;font-size:42.66666794px;line-height:1.25;font-family:sans-serif;letter-spacing:0px;word-spacing:0px;fill:#000000;fill-opacity:1;stroke:none"
         inkscape:transform-center-y="202.78658"
         inkscape:transform-center-x="-147.33314"
         transform="matrix(0.15552146,0.21405693,-0.21405693,0.15552146,128.14168,-30.047281)"
         aria-label="1">
        <path
           id="path3848"
           style="font-style:normal;font-variant:normal;font-weight:normal;font-stretch:normal;font-size:42.66666794px;line-height:53.33333588px;font-family:'Ubuntu Mono';-inkscape-font-specification:'Ubuntu Mono'"
           d="m 569.86602,237.30648 q 2.176,-0.85334 4.224,-2.13334 2.048,-1.32266 3.79733,-3.328 h 2.47467 v 23.424 h 4.992 v 2.98667 h -14.208 v -2.98667 h 5.71733 v -18.51733 q -0.46933,0.42667 -1.152,0.896 -0.64,0.42667 -1.45067,0.85333 -0.768,0.42667 -1.62133,0.81067 -0.85333,0.384 -1.664,0.64 z" />
      </g>
      <g
         id="flowRoot12153"
         style="font-style:normal;font-weight:normal;font-size:42.66666794px;line-height:1.25;font-family:sans-serif;letter-spacing:0px;word-spacing:0px;fill:#000000;fill-opacity:1;stroke:none"
         inkscape:transform-center-y="186.27519"
         inkscape:transform-center-x="-167.723"
         transform="matrix(0.17704454,0.19662789,-0.19662789,0.17704454,131.83538,-41.770451)"
         aria-label="2">
        <path
           id="path3851"
           style="font-style:normal;font-variant:normal;font-weight:normal;font-stretch:normal;font-size:42.66666794px;line-height:53.33333588px;font-family:'Ubuntu Mono';-inkscape-font-specification:'Ubuntu Mono'"
           d="m 584.58602,238.58648 q 0,1.36533 -0.55467,2.64533 -0.512,1.28 -1.408,2.51733 -0.85333,1.23734 -1.96267,2.432 -1.10933,1.19467 -2.26133,2.34667 -0.64,0.64 -1.49333,1.536 -0.85334,0.896 -1.62134,1.83467 -0.768,0.93866 -1.28,1.83466 -0.512,0.896 -0.512,1.536 h 12.16 v 2.98667 h -16 q -0.0427,-0.21333 -0.0427,-0.42667 0,-0.256 0,-0.46933 0,-1.792 0.59733,-3.328 0.59733,-1.536 1.536,-2.90133 0.93867,-1.36534 2.09067,-2.56 1.19466,-1.23734 2.34666,-2.38934 0.93867,-0.93866 1.792,-1.83466 0.896,-0.896 1.536,-1.792 0.68267,-0.896 1.06667,-1.83467 0.42667,-0.98133 0.42667,-2.00533 0,-1.152 -0.384,-1.96267 -0.34134,-0.81067 -0.98134,-1.32267 -0.59733,-0.55466 -1.408,-0.81066 -0.81066,-0.256 -1.74933,-0.256 -1.10933,0 -2.048,0.29866 -0.896,0.29867 -1.62133,0.72534 -0.68267,0.42666 -1.19467,0.85333 -0.512,0.384 -0.768,0.64 l -1.74933,-2.47467 q 0.34133,-0.384 1.024,-0.93866 0.68266,-0.55467 1.62133,-1.024 0.98133,-0.512 2.176,-0.85334 1.19467,-0.34133 2.56,-0.34133 4.13867,0 6.10133,1.92 2.00534,1.87733 2.00534,5.41867 z" />
      </g>
      <g
         id="flowRoot12161"
         style="font-style:normal;font-weight:normal;font-size:42.66666794px;line-height:1.25;font-family:sans-serif;letter-spacing:0px;word-spacing:0px;fill:#000000;fill-opacity:1;stroke:none"
         inkscape:transform-center-y="167.72293"
         inkscape:transform-center-x="-186.27525"
         transform="matrix(0.19662789,0.17704455,-0.17704455,0.19662789,134.28343,-53.815497)"
         aria-label="3">
        <path
           id="path3854"
           style="font-style:normal;font-variant:normal;font-weight:normal;font-stretch:normal;font-size:42.66666794px;line-height:53.33333588px;font-family:'Ubuntu Mono';-inkscape-font-specification:'Ubuntu Mono'"
           d="m 575.71135,255.69581 q 3.37067,0 4.77867,-1.32267 1.45066,-1.36533 1.45066,-3.62666 0,-1.45067 -0.59733,-2.432 -0.59733,-0.98134 -1.57867,-1.57867 -0.98133,-0.59733 -2.26133,-0.85333 -1.28,-0.256 -2.688,-0.256 h -0.896 v -2.85867 h 1.23733 q 0.93867,0 1.92,-0.17067 1.024,-0.21333 1.83467,-0.68266 0.85333,-0.512 1.36533,-1.36534 0.512,-0.85333 0.512,-2.176 0,-2.176 -1.36533,-3.072 -1.32267,-0.93866 -3.11467,-0.93866 -1.83466,0 -3.11466,0.55466 -1.28,0.512 -2.13334,1.06667 l -1.36533,-2.688 q 0.896,-0.64 2.688,-1.32267 1.83467,-0.72533 4.05333,-0.72533 2.09067,0 3.584,0.512 1.49334,0.512 2.432,1.45067 0.98134,0.93866 1.45067,2.21866 0.46933,1.23734 0.46933,2.73067 0,2.09067 -1.10933,3.54133 -1.06667,1.45067 -2.77333,2.21867 2.048,0.59733 3.54133,2.34667 1.49333,1.70666 1.49333,4.56533 0,1.70667 -0.59733,3.2 -0.55467,1.45067 -1.74933,2.51733 -1.152,1.06667 -3.02934,1.664 -1.83466,0.59734 -4.39466,0.59734 -0.98134,0 -2.048,-0.17067 -1.024,-0.128 -1.92,-0.384 -0.896,-0.21333 -1.62134,-0.42667 -0.68266,-0.256 -0.98133,-0.384 l 0.68267,-3.02933 q 0.68266,0.34133 2.176,0.81067 1.49333,0.46933 3.66933,0.46933 z" />
      </g>
      <g
         id="flowRoot12169"
         style="font-style:normal;font-weight:normal;font-size:42.66666794px;line-height:1.25;font-family:sans-serif;letter-spacing:0px;word-spacing:0px;fill:#000000;fill-opacity:1;stroke:none"
         inkscape:transform-center-y="147.33306"
         inkscape:transform-center-x="-202.78664"
         transform="matrix(0.21405694,0.15552147,-0.15552147,0.21405694,135.45903,-66.050448)"
         aria-label="4">
        <path
           id="path3857"
           style="font-style:normal;font-variant:normal;font-weight:normal;font-stretch:normal;font-size:42.66666794px;line-height:53.33333588px;font-family:'Ubuntu Mono';-inkscape-font-specification:'Ubuntu Mono'"
           d="m 568.20202,249.12514 q 0.72533,-1.70666 1.96266,-3.92533 1.28,-2.21867 2.85867,-4.56533 1.57867,-2.38934 3.37067,-4.65067 1.792,-2.304 3.62666,-4.13867 h 3.41334 v 16.768 h 3.11466 v 2.90134 h -3.11466 v 6.74133 h -3.41334 v -6.74133 h -11.81866 z m 11.81866,-13.09866 q -1.152,1.23733 -2.34666,2.73066 -1.152,1.49334 -2.26134,3.15734 -1.10933,1.62133 -2.09066,3.328 -0.93867,1.70666 -1.70667,3.37066 h 8.40533 z" />
      </g>
      <g
         id="flowRoot12177"
         style="font-style:normal;font-weight:normal;font-size:42.66666794px;line-height:1.25;font-family:sans-serif;letter-spacing:0px;word-spacing:0px;fill:#000000;fill-opacity:1;stroke:none"
         inkscape:transform-center-y="125.32898"
         inkscape:transform-center-x="-217.07625"
         transform="matrix(0.22914073,0.13229447,-0.13229447,0.22914073,135.34928,-78.34126)"
         aria-label="5">
        <path
           id="path3860"
           style="font-style:normal;font-variant:normal;font-weight:normal;font-stretch:normal;font-size:42.66666794px;line-height:53.33333588px;font-family:'Ubuntu Mono';-inkscape-font-specification:'Ubuntu Mono'"
           d="m 574.60202,242.04248 q 5.71733,0.21333 8.32,2.51733 2.60266,2.304 2.60266,6.18667 0,1.74933 -0.55466,3.24266 -0.55467,1.49334 -1.74934,2.56 -1.152,1.06667 -2.98666,1.664 -1.792,0.59734 -4.26667,0.59734 -1.024,0 -2.048,-0.17067 -0.98133,-0.128 -1.87733,-0.34133 -0.896,-0.21334 -1.57867,-0.42667 -0.68267,-0.256 -0.98133,-0.42667 l 0.68266,-3.02933 q 0.68267,0.34133 2.09067,0.81067 1.45067,0.46933 3.62667,0.46933 1.70666,0 2.85866,-0.384 1.152,-0.384 1.83467,-1.024 0.72533,-0.68267 1.024,-1.536 0.34133,-0.85333 0.34133,-1.792 0,-1.45067 -0.512,-2.56 -0.46933,-1.152 -1.70666,-1.92 -1.19467,-0.768 -3.328,-1.152 -2.09067,-0.42667 -5.29067,-0.42667 0.256,-1.87733 0.384,-3.49866 0.17067,-1.664 0.256,-3.2 0.128,-1.57867 0.17067,-3.11467 0.0853,-1.536 0.17066,-3.24267 h 12.71467 v 2.98667 h -9.64267 q -0.0427,0.59733 -0.128,1.57867 -0.0427,0.93866 -0.128,2.00533 -0.0853,1.06667 -0.17066,2.048 -0.0853,0.98133 -0.128,1.57867 z" />
      </g>
      <g
         id="flowRoot12185"
         style="font-style:normal;font-weight:normal;font-size:42.66666794px;line-height:1.25;font-family:sans-serif;letter-spacing:0px;word-spacing:0px;fill:#000000;fill-opacity:1;stroke:none"
         inkscape:transform-center-y="101.95176"
         inkscape:transform-center-x="-228.98753"
         transform="matrix(0.24171401,0.10761801,-0.10761801,0.24171401,133.95541,-90.55327)"
         aria-label="6">
        <path
           id="path3863"
           style="font-style:normal;font-variant:normal;font-weight:normal;font-stretch:normal;font-size:42.66666794px;line-height:53.33333588px;font-family:'Ubuntu Mono';-inkscape-font-specification:'Ubuntu Mono'"
           d="m 568.97002,247.67448 q 0,-3.84 1.024,-6.784 1.06666,-2.98667 2.98666,-4.992 1.96267,-2.00534 4.736,-3.072 2.77334,-1.06667 6.272,-1.10934 l 0.29867,2.98667 q -2.26133,0.0427 -4.13867,0.512 -1.83466,0.42667 -3.28533,1.45067 -1.45067,0.98133 -2.432,2.56 -0.98133,1.57866 -1.49333,3.88266 1.024,-0.46933 2.21866,-0.768 1.23734,-0.29866 2.60267,-0.29866 2.21867,0 3.75467,0.68266 1.57866,0.68267 2.51733,1.83467 0.93867,1.10933 1.36533,2.60267 0.42667,1.49333 0.42667,3.072 0,1.45066 -0.46933,2.98666 -0.46934,1.49334 -1.45067,2.77334 -0.98133,1.23733 -2.51733,2.048 -1.536,0.768 -3.66934,0.768 -4.39466,0 -6.57066,-2.944 -2.176,-2.944 -2.176,-8.192 z m 8.40533,-2.73067 q -1.36533,0 -2.51733,0.256 -1.10934,0.256 -2.26134,0.768 -0.0427,0.42667 -0.0427,0.85333 0,0.384 0,0.85334 0,1.664 0.21333,3.15733 0.256,1.45067 0.81067,2.60267 0.59733,1.10933 1.57866,1.792 0.98134,0.64 2.51734,0.64 1.28,0 2.13333,-0.512 0.85333,-0.55467 1.408,-1.36534 0.55467,-0.81066 0.768,-1.792 0.256,-1.024 0.256,-1.92 0,-2.60266 -1.19467,-3.968 -1.152,-1.36533 -3.66933,-1.36533 z" />
      </g>
      <g
         id="flowRoot12193"
         style="font-style:normal;font-weight:normal;font-size:42.66666794px;line-height:1.25;font-family:sans-serif;letter-spacing:0px;word-spacing:0px;fill:#000000;fill-opacity:1;stroke:none"
         inkscape:transform-center-y="77.457544"
         inkscape:transform-center-x="-238.38998"
         transform="matrix(0.25163902,0.08176247,-0.08176247,0.25163902,131.29266,-102.55268)"
         aria-label="7">
        <path
           id="path3866"
           style="font-style:normal;font-variant:normal;font-weight:normal;font-stretch:normal;font-size:42.66666794px;line-height:53.33333588px;font-family:'Ubuntu Mono';-inkscape-font-specification:'Ubuntu Mono'"
           d="m 573.27935,258.25581 q 0.21333,-3.02933 1.06667,-6.4 0.896,-3.41333 2.13333,-6.57067 1.23733,-3.2 2.73067,-5.888 1.49333,-2.73066 2.944,-4.48 h -12.8 v -3.072 h 16.72533 v 2.944 q -1.28,1.49334 -2.77333,4.01067 -1.49334,2.51733 -2.85867,5.67467 -1.32267,3.11466 -2.304,6.69866 -0.98133,3.54134 -1.23733,7.08267 z" />
      </g>
      <g
         id="flowRoot12201"
         style="font-style:normal;font-weight:normal;font-size:42.66666794px;line-height:1.25;font-family:sans-serif;letter-spacing:0px;word-spacing:0px;fill:#000000;fill-opacity:1;stroke:none"
         inkscape:transform-center-y="52.114692"
         inkscape:transform-center-x="-245.18057"
         transform="matrix(0.25880702,0.05501113,-0.05501113,0.25880702,127.39022,-114.20801)"
         aria-label="8">
        <path
           id="path3869"
           style="font-style:normal;font-variant:normal;font-weight:normal;font-stretch:normal;font-size:42.66666794px;line-height:53.33333588px;font-family:'Ubuntu Mono';-inkscape-font-specification:'Ubuntu Mono'"
           d="m 585.82335,251.38648 q 0,3.328 -2.13333,5.376 -2.09067,2.048 -6.4,2.048 -2.47467,0 -4.096,-0.64 -1.62134,-0.68267 -2.60267,-1.70667 -0.93867,-1.06667 -1.36533,-2.34667 -0.384,-1.28 -0.384,-2.51733 0,-2.26133 1.23733,-4.01067 1.23733,-1.74933 2.944,-2.816 -3.62667,-2.048 -3.62667,-6.272 0,-1.45066 0.55467,-2.77333 0.55467,-1.32267 1.57867,-2.304 1.024,-0.98133 2.47466,-1.57867 1.49334,-0.59733 3.328,-0.59733 2.13334,0 3.62667,0.64 1.536,0.64 2.47467,1.664 0.93866,0.98133 1.36533,2.21867 0.42667,1.19466 0.42667,2.34666 0,2.26134 -1.152,3.92534 -1.152,1.62133 -2.64534,2.60266 4.39467,2.09067 4.39467,6.74134 z m -13.568,0.256 q 0,0.68266 0.256,1.45066 0.256,0.72534 0.85333,1.36534 0.59734,0.64 1.57867,1.06666 0.98133,0.384 2.38933,0.384 1.32267,0 2.26134,-0.34133 0.98133,-0.384 1.57866,-0.98133 0.64,-0.64 0.93867,-1.408 0.29867,-0.768 0.29867,-1.536 0,-2.432 -1.74934,-3.712 -1.74933,-1.32267 -4.82133,-2.00534 -1.70667,0.93867 -2.64533,2.34667 -0.93867,1.408 -0.93867,3.37067 z m 9.55733,-13.52534 q 0,-0.55466 -0.256,-1.23733 -0.256,-0.72533 -0.81066,-1.28 -0.512,-0.59733 -1.36534,-0.98133 -0.85333,-0.42667 -2.048,-0.42667 -1.23733,0 -2.09066,0.384 -0.81067,0.384 -1.36534,0.98133 -0.55466,0.55467 -0.81066,1.28 -0.21334,0.68267 -0.21334,1.36534 0,1.74933 1.23734,3.28533 1.28,1.49333 4.18133,2.176 1.62133,-0.93867 2.56,-2.21867 0.98133,-1.28 0.98133,-3.328 z" />
      </g>
      <g
         id="flowRoot12209"
         style="font-style:normal;font-weight:normal;font-size:42.66666794px;line-height:1.25;font-family:sans-serif;letter-spacing:0px;word-spacing:0px;fill:#000000;fill-opacity:1;stroke:none"
         inkscape:transform-center-y="26.200854"
         inkscape:transform-center-x="-249.28491"
         transform="matrix(0.26313947,0.02765708,-0.02765708,0.26313947,122.29084,-125.39159)"
         aria-label="9">
        <path
           id="path3872"
           style="font-style:normal;font-variant:normal;font-weight:normal;font-stretch:normal;font-size:42.66666794px;line-height:53.33333588px;font-family:'Ubuntu Mono';-inkscape-font-specification:'Ubuntu Mono'"
           d="m 585.73802,242.42648 q 0,7.89333 -3.84,11.904 -3.84,3.968 -11.56267,4.01066 l -0.128,-2.98666 q 4.77867,0 7.68,-1.87734 2.944,-1.92 3.88267,-6.57066 -1.024,0.46933 -2.26134,0.768 -1.23733,0.256 -2.60266,0.256 -2.26134,0 -3.79734,-0.64 -1.536,-0.68267 -2.47466,-1.792 -0.93867,-1.152 -1.36534,-2.60267 -0.42666,-1.45067 -0.42666,-3.072 0,-1.45067 0.46933,-2.944 0.46933,-1.536 1.45067,-2.77333 0.98133,-1.23734 2.51733,-2.048 1.536,-0.81067 3.66933,-0.81067 4.352,0 6.57067,2.98667 2.21867,2.98666 2.21867,8.192 z m -8.448,2.60266 q 1.36533,0 2.51733,-0.256 1.19467,-0.256 2.304,-0.72533 0.0427,-0.42667 0.0427,-0.81067 0,-0.384 0,-0.81066 0,-1.664 -0.256,-3.15734 -0.21334,-1.49333 -0.81067,-2.60266 -0.55467,-1.10934 -1.57867,-1.74934 -0.98133,-0.68266 -2.51733,-0.68266 -1.28,0 -2.13333,0.55466 -0.85334,0.512 -1.408,1.32267 -0.55467,0.768 -0.81067,1.74933 -0.21333,0.98134 -0.21333,1.87734 0,2.60266 1.152,3.968 1.19466,1.32266 3.712,1.32266 z" />
      </g>
    </g>
  </g>
</svg>
